<?xml version="1.0" encoding="utf-8"?>
<!-- Generator: Adobe Illustrator 22.1.0, SVG Export Plug-In . SVG Version: 6.00 Build 0)  -->
<svg version="1.1" id="圖層_1" xmlns="http://www.w3.org/2000/svg" xmlns:xlink="http://www.w3.org/1999/xlink" x="0px" y="0px"
	 viewBox="0 0 378.3 88.3" style="enable-background:new 0 0 378.3 88.3;" xml:space="preserve">
<style type="text/css">
	.st0{fill:#FFFFFF;}
	.st1{fill:#E83434;}
	.st2{fill:#040000;}
</style>
<g>
	<polygon points="245.7,8.9 200.4,8.9 200.4,15.1 219.3,15.1 219.3,61.4 226.8,61.4 226.8,15.1 245.7,15.1 	"/>
	<path d="M259.1,51.7c-1.6,1.3-3.3,2.4-5.1,3.3c-1.8,0.9-3.8,1.3-6,1.3c-2.7,0-4.6-0.6-6-1.7c-1.3-1.1-2-2.8-2-5.1
		c0-2,0.6-3.5,1.8-4.7c1.2-1.1,2.8-1.9,4.7-2.4c1.6-0.5,3.6-0.8,6.2-1c2.5-0.3,4.6-0.5,6.3-0.6V51.7z M261.7,24
		c-1.6-1.1-3.4-1.9-5.3-2.3c-2-0.4-4.4-0.6-7.3-0.6c-2.4,0-4.8,0.2-7.2,0.6c-2.5,0.4-4.3,0.8-5.6,1.2v6.7h0.4c2.2-0.8,4.4-1.6,6.6-2
		c2.2-0.5,4.1-0.7,5.7-0.7c1.4,0,2.7,0.1,4,0.3c1.3,0.2,2.4,0.5,3.3,1.1c0.9,0.5,1.7,1.2,2.1,2.2c0.5,1,0.7,2.2,0.7,3.8v1.3
		c-3.7,0.2-7.1,0.4-10.4,0.8c-3.2,0.4-6,1.1-8.3,2.1c-2.7,1.1-4.6,2.7-5.8,4.5c-1.3,1.9-1.9,4.3-1.9,7c0,1.7,0.4,3.4,1,5
		c0.6,1.6,1.6,2.9,2.7,4c1.2,1.1,2.5,1.9,4.1,2.6c1.6,0.6,3.2,0.9,4.9,0.9c2.1,0,3.8-0.2,4.9-0.5c1.2-0.3,2.4-0.8,3.7-1.4
		c0.8-0.4,1.8-1,2.7-1.7c1-0.7,1.7-1.3,2.3-1.7v4.2h7.1V34.5c0-2.5-0.3-4.5-1.1-6.2C264.5,26.5,263.3,25.1,261.7,24"/>
	<rect x="272.7" y="22" width="7.1" height="39.4"/>
	<rect x="272.2" y="8.5" width="8.1" height="6.9"/>
	<path d="M311.2,52.4c-2,2.5-4.9,3.8-8.6,3.8c-1.7,0-3.2-0.2-4.6-0.5c-1.3-0.3-2.9-0.9-4.8-1.7V31.6c1.7-1.3,3.5-2.4,5.3-3.3
		c1.9-0.8,3.9-1.2,5.9-1.2c3.4,0,5.9,1.2,7.5,3.7c1.6,2.5,2.3,6,2.3,10.5C314.2,46.2,313.2,49.9,311.2,52.4 M306.2,20.8
		c-2.5,0-4.8,0.5-7,1.5c-2.2,1-4.1,2.2-5.9,3.7V22h-7.2v53.9h7.2V59.4c1.7,0.9,3.3,1.6,4.9,2.1c1.7,0.4,3.5,0.7,5.6,0.7
		c5.1,0,9.4-2,12.7-5.8c3.3-4,5-9.1,5-15.7c0-6-1.4-10.8-4.1-14.4C314.8,22.6,311,20.8,306.2,20.8"/>
	<path d="M333.3,37.2c0.2-1.7,0.5-3.1,1.1-4.4c0.6-1.2,1.4-2.4,2.4-3.5c1.1-1,2.3-1.7,3.6-2.3c1.3-0.5,2.9-0.8,4.8-0.8
		c1.9,0,3.5,0.3,4.8,0.8c1.3,0.5,2.4,1.3,3.2,2.2c0.8,0.9,1.3,2,1.8,3.3c0.4,1.3,0.6,2.9,0.7,4.6H333.3z M357.9,25.2
		c-1.5-1.5-3.3-2.6-5.3-3.3c-2.1-0.7-4.4-1.1-7-1.1c-5.8,0-10.5,1.9-14.1,5.7c-3.6,3.8-5.4,8.9-5.4,15.3c0,6.5,1.8,11.5,5.6,15.1
		c3.7,3.6,8.9,5.3,15.6,5.3c1.7,0,3.1-0.1,4.2-0.3c1.1-0.2,2.4-0.4,3.8-0.8c1-0.3,2.1-0.6,3.3-1.1c1.2-0.5,2.3-0.8,3.1-1.2v-7.2
		h-0.4c-0.6,0.5-1.3,1-2.2,1.5c-0.8,0.5-1.9,1-3.2,1.5c-1.2,0.5-2.6,1-4.1,1.3c-1.5,0.3-3,0.5-4.5,0.5c-4.3,0-7.8-1.2-10.2-3.6
		c-2.5-2.4-3.7-6-3.7-10.5h29.2v-3.6c0-3.2-0.4-5.8-1.2-8C360.5,28.6,359.3,26.7,357.9,25.2"/>
	<rect x="367.4" y="8.5" width="8.1" height="6.9"/>
	<rect x="367.8" y="22" width="7.1" height="39.4"/>
	<polygon class="st1" points="15.9,25.7 27.7,60.3 34.2,60.3 46,25.7 46,60.9 56.1,60.9 56.1,9.3 43.8,9.3 31.4,46.5 18.6,9.3 
		6.5,9.3 6.5,60.9 15.9,60.9 	"/>
	<path class="st1" d="M84.7,16.2c0,0,16.6-1.5,16.1,18.7c0,0,1.4,18.9-14.9,19.1c0,0-16.1,1.9-16-18.5
		C69.9,35.5,68.3,16.4,84.7,16.2 M85.6,62.3c26.5-0.2,25.7-26.1,25.7-26.1C112.2,7,85.8,7.8,85.8,7.8C58.1,8.2,59.5,34.7,59.5,34.7
		C59.6,64.3,85.6,62.3,85.6,62.3"/>
	<path class="st1" d="M131.5,9.4c0,0-20.5,4.9-16.5,32.6c0,0,3,24.3,32.3,19.5c0,0,5.1-1.1,8.6-2.6l3.3-1.6V44.3c0,0-3.2,5.9-10.3,8
		c0,0-10.2,4.1-17.4-1.3c0,0-9.8-5.4-5.6-23.9c0,0,2.3-11.8,17.1-10.4c0,0,8.1-0.1,16.1,8.4V12.8C159.2,12.8,146.3,5.2,131.5,9.4"/>
	<path class="st1" d="M180.9,39l6.6-18l6.8,18H180.9z M193.2,9.1h-10.9l-19.7,52h10.3l5.2-13.7h19.1l5,13.7h10.6L193.2,9.1z"/>
	<polygon points="245.7,8.9 200.4,8.9 200.4,15.1 219.3,15.1 219.3,61.4 226.8,61.4 226.8,15.1 245.7,15.1 	"/>
	<path d="M259.1,51.7c-1.6,1.3-3.3,2.4-5.1,3.3c-1.8,0.9-3.8,1.3-6,1.3c-2.7,0-4.6-0.6-6-1.7c-1.3-1.1-2-2.8-2-5.1
		c0-2,0.6-3.5,1.8-4.7c1.2-1.1,2.8-1.9,4.7-2.4c1.6-0.5,3.6-0.8,6.2-1c2.5-0.3,4.6-0.5,6.3-0.6V51.7z M261.7,24
		c-1.6-1.1-3.4-1.9-5.3-2.3c-2-0.4-4.4-0.6-7.3-0.6c-2.4,0-4.8,0.2-7.2,0.6c-2.5,0.4-4.3,0.8-5.6,1.2v6.7h0.4c2.2-0.8,4.4-1.6,6.6-2
		c2.2-0.5,4.1-0.7,5.7-0.7c1.4,0,2.7,0.1,4,0.3c1.3,0.2,2.4,0.5,3.3,1.1c0.9,0.5,1.7,1.2,2.1,2.2c0.5,1,0.7,2.2,0.7,3.8v1.3
		c-3.7,0.2-7.1,0.4-10.4,0.8c-3.2,0.4-6,1.1-8.3,2.1c-2.7,1.1-4.6,2.7-5.8,4.5c-1.3,1.9-1.9,4.3-1.9,7c0,1.7,0.4,3.4,1,5
		c0.6,1.6,1.6,2.9,2.7,4c1.2,1.1,2.5,1.9,4.1,2.6c1.6,0.6,3.2,0.9,4.9,0.9c2.1,0,3.8-0.2,4.9-0.5c1.2-0.3,2.4-0.8,3.7-1.4
		c0.8-0.4,1.8-1,2.7-1.7c1-0.7,1.7-1.3,2.3-1.7v4.2h7.1V34.5c0-2.5-0.3-4.5-1.1-6.2C264.5,26.5,263.3,25.1,261.7,24"/>
	<rect x="272.7" y="22" width="7.1" height="39.4"/>
	<rect x="272.2" y="8.5" width="8.1" height="6.9"/>
	<path d="M311.2,52.4c-2,2.5-4.9,3.8-8.6,3.8c-1.7,0-3.2-0.2-4.6-0.5c-1.3-0.3-2.9-0.9-4.8-1.7V31.6c1.7-1.3,3.5-2.4,5.3-3.3
		c1.9-0.8,3.9-1.2,5.9-1.2c3.4,0,5.9,1.2,7.5,3.7c1.6,2.5,2.3,6,2.3,10.5C314.2,46.2,313.2,49.9,311.2,52.4 M306.2,20.8
		c-2.5,0-4.8,0.5-7,1.5c-2.2,1-4.1,2.2-5.9,3.7V22h-7.2v53.9h7.2V59.4c1.7,0.9,3.3,1.6,4.9,2.1c1.7,0.4,3.5,0.7,5.6,0.7
		c5.1,0,9.4-2,12.7-5.8c3.3-4,5-9.1,5-15.7c0-6-1.4-10.8-4.1-14.4C314.8,22.6,311,20.8,306.2,20.8"/>
	<path d="M333.3,37.2c0.2-1.7,0.5-3.1,1.1-4.4c0.6-1.2,1.4-2.4,2.4-3.5c1.1-1,2.3-1.7,3.6-2.3c1.3-0.5,2.9-0.8,4.8-0.8
		c1.9,0,3.5,0.3,4.8,0.8c1.3,0.5,2.4,1.3,3.2,2.2c0.8,0.9,1.3,2,1.8,3.3c0.4,1.3,0.6,2.9,0.7,4.6H333.3z M357.9,25.2
		c-1.5-1.5-3.3-2.6-5.3-3.3c-2.1-0.7-4.4-1.1-7-1.1c-5.8,0-10.5,1.9-14.1,5.7c-3.6,3.8-5.4,8.9-5.4,15.3c0,6.5,1.8,11.5,5.6,15.1
		c3.7,3.6,8.9,5.3,15.6,5.3c1.7,0,3.1-0.1,4.2-0.3c1.1-0.2,2.4-0.4,3.8-0.8c1-0.3,2.1-0.6,3.3-1.1c1.2-0.5,2.3-0.8,3.1-1.2v-7.2
		h-0.4c-0.6,0.5-1.3,1-2.2,1.5c-0.8,0.5-1.9,1-3.2,1.5c-1.2,0.5-2.6,1-4.1,1.3c-1.5,0.3-3,0.5-4.5,0.5c-4.3,0-7.8-1.2-10.2-3.6
		c-2.5-2.4-3.7-6-3.7-10.5h29.2v-3.6c0-3.2-0.4-5.8-1.2-8C360.5,28.6,359.3,26.7,357.9,25.2"/>
	<rect x="367.4" y="8.5" width="8.1" height="6.9"/>
	<rect x="367.8" y="22" width="7.1" height="39.4"/>
</g>
</svg>
