<?xml version="1.0" encoding="utf-8"?>
<!-- Generator: Adobe Illustrator 15.1.0, SVG Export Plug-In . SVG Version: 6.00 Build 0)  -->
<!DOCTYPE svg PUBLIC "-//W3C//DTD SVG 1.1//EN" "http://www.w3.org/Graphics/SVG/1.1/DTD/svg11.dtd">
<svg version="1.1" id="圖層_1" xmlns="http://www.w3.org/2000/svg" xmlns:xlink="http://www.w3.org/1999/xlink" x="0px" y="0px"
	 width="42.472px" height="43.679px" viewBox="21.411 20.925 42.472 43.679" enable-background="new 21.411 20.925 42.472 43.679"
	 xml:space="preserve">
<g>
	<path fill="#E83434" d="M52.359,25.791c-5.877,0.078-5.293,6.929-5.293,6.929c-0.039,7.319,5.723,6.618,5.723,6.618
		c5.839-0.078,5.332-6.852,5.332-6.852C58.316,25.246,52.359,25.791,52.359,25.791z"/>
	<polygon fill="#E83434" points="49.129,54.287 53.956,54.287 51.504,47.824 	"/>
	<path fill="#E83434" d="M21.411,20.925v43.679h42.472V20.925H21.411z M41.344,49.305c-2.881-3.076-5.762-3.037-5.762-3.037
		c-5.294-0.506-6.151,3.737-6.151,3.737c-1.518,6.657,2.024,8.604,2.024,8.604c2.569,1.946,6.229,0.467,6.229,0.467
		c2.531-0.778,3.698-2.88,3.698-2.88v4.671l-1.207,0.584c-1.246,0.545-3.076,0.935-3.076,0.935
		c-10.511,1.713-11.601-7.008-11.601-7.008c-1.44-9.927,5.917-11.679,5.917-11.679c5.333-1.519,9.966,1.207,9.966,1.207v4.399
		H41.344z M42.121,41.83h-3.62V29.178l-4.244,12.418h-2.297l-4.282-12.418v12.613h-3.387V23.299h4.36l4.594,13.314l4.438-13.353
		h4.438V41.83z M56.76,62.229l-1.791-4.904h-6.852l-1.869,4.904H42.55l7.085-18.686h3.932l7.047,18.686H56.76z M52.672,42.336
		c0,0-9.305,0.701-9.344-9.927c0,0-0.467-9.499,9.422-9.654c0,0,9.459-0.272,9.109,10.199
		C61.898,32.954,62.209,42.258,52.672,42.336z"/>
</g>
</svg>
