<?xml version="1.0" encoding="utf-8"?>
<!-- Generator: Adobe Illustrator 22.1.0, SVG Export Plug-In . SVG Version: 6.00 Build 0)  -->
<svg version="1.1" id="圖層_1" xmlns="http://www.w3.org/2000/svg" xmlns:xlink="http://www.w3.org/1999/xlink" x="0px" y="0px"
	 viewBox="0 0 171.5 143.5" style="enable-background:new 0 0 171.5 143.5;" xml:space="preserve">
<style type="text/css">
	.st0{fill:#FFFFFF;}
	.st1{fill:#E83434;}
	.st2{fill:#040000;}
</style>
<g>
	<polygon class="st2" points="109.1,59 90.4,59 90.4,61.6 98.2,61.6 98.2,80.7 101.3,80.7 101.3,61.6 109.1,61.6 	"/>
	<path class="st2" d="M114.6,76.7c-0.7,0.6-1.4,1-2.1,1.4c-0.7,0.4-1.6,0.6-2.5,0.6c-1.1,0-1.9-0.2-2.5-0.7
		c-0.5-0.5-0.8-1.2-0.8-2.1c0-0.8,0.3-1.5,0.7-1.9c0.5-0.4,1.2-0.8,1.9-1c0.7-0.2,1.5-0.3,2.6-0.4c1-0.1,1.9-0.2,2.6-0.3V76.7z
		 M115.7,65.3c-0.7-0.4-1.4-0.8-2.2-1c-0.8-0.2-1.8-0.3-3-0.3c-1,0-2,0.1-3,0.3c-1,0.2-1.8,0.3-2.3,0.5v2.8h0.2
		c0.9-0.3,1.8-0.6,2.7-0.8c0.9-0.2,1.7-0.3,2.4-0.3c0.6,0,1.1,0,1.7,0.1c0.5,0.1,1,0.2,1.3,0.4c0.4,0.2,0.7,0.5,0.9,0.9
		c0.2,0.4,0.3,0.9,0.3,1.6V70c-1.5,0.1-3,0.2-4.3,0.3c-1.3,0.2-2.5,0.4-3.5,0.9c-1.1,0.5-1.9,1.1-2.4,1.9c-0.5,0.8-0.8,1.8-0.8,2.9
		c0,0.7,0.2,1.4,0.4,2.1c0.3,0.7,0.7,1.2,1.1,1.7c0.5,0.5,1.1,0.8,1.7,1.1c0.6,0.2,1.3,0.4,2,0.4c0.9,0,1.6-0.1,2-0.2
		c0.5-0.1,1-0.3,1.5-0.6c0.3-0.2,0.7-0.4,1.1-0.7c0.4-0.3,0.7-0.5,1-0.7v1.7h2.9V69.6c0-1-0.1-1.9-0.5-2.6
		C116.8,66.3,116.3,65.7,115.7,65.3"/>
	<rect x="120.2" y="64.5" class="st2" width="2.9" height="16.3"/>
	<rect x="120" y="58.9" class="st2" width="3.3" height="2.8"/>
	<path class="st2" d="M136.1,77c-0.8,1-2,1.6-3.5,1.6c-0.7,0-1.3-0.1-1.9-0.2c-0.6-0.1-1.2-0.4-2-0.7v-9.2c0.7-0.5,1.4-1,2.2-1.3
		c0.8-0.3,1.6-0.5,2.4-0.5c1.4,0,2.4,0.5,3.1,1.5c0.6,1,1,2.5,1,4.3C137.4,74.4,137,76,136.1,77 M134.1,64c-1,0-2,0.2-2.9,0.6
		c-0.9,0.4-1.7,0.9-2.4,1.5v-1.7h-3v22.3h3v-6.8c0.7,0.4,1.4,0.7,2,0.9c0.7,0.2,1.5,0.3,2.3,0.3c2.1,0,3.9-0.8,5.3-2.4
		c1.4-1.6,2.1-3.8,2.1-6.5c0-2.5-0.6-4.5-1.7-6C137.6,64.7,136.1,64,134.1,64"/>
	<path class="st2" d="M145.3,70.8c0.1-0.7,0.2-1.3,0.4-1.8c0.2-0.5,0.6-1,1-1.4c0.4-0.4,0.9-0.7,1.5-0.9c0.6-0.2,1.2-0.3,2-0.3
		c0.8,0,1.4,0.1,2,0.3c0.5,0.2,1,0.5,1.3,0.9c0.3,0.4,0.6,0.8,0.7,1.3c0.2,0.5,0.3,1.2,0.3,1.9H145.3z M155.4,65.8
		c-0.6-0.6-1.4-1.1-2.2-1.4c-0.9-0.3-1.8-0.4-2.9-0.4c-2.4,0-4.3,0.8-5.8,2.4c-1.5,1.6-2.2,3.7-2.2,6.3c0,2.7,0.8,4.8,2.3,6.2
		c1.5,1.5,3.7,2.2,6.5,2.2c0.7,0,1.3-0.1,1.8-0.1c0.5-0.1,1-0.2,1.6-0.3c0.4-0.1,0.8-0.3,1.4-0.4c0.5-0.2,0.9-0.3,1.3-0.5v-3h-0.2
		c-0.2,0.2-0.5,0.4-0.9,0.6c-0.3,0.2-0.8,0.4-1.3,0.6c-0.5,0.2-1.1,0.4-1.7,0.5c-0.6,0.1-1.2,0.2-1.9,0.2c-1.8,0-3.2-0.5-4.2-1.5
		c-1-1-1.5-2.5-1.5-4.3h12.1v-1.5c0-1.3-0.2-2.4-0.5-3.3C156.5,67.2,156,66.4,155.4,65.8"/>
	<rect x="159.4" y="58.9" class="st2" width="3.3" height="2.8"/>
	<rect x="159.5" y="64.5" class="st2" width="2.9" height="16.3"/>
	<path d="M13.4,95.8h9.2v5.6h-9.2V95.8z M12.2,102.3L12.2,102.3L12.2,102.3l11.5,0v0h0v-7.6H12.2V102.3z"/>
	<polygon points="20.6,88.1 23.1,91.3 13.1,91.3 16.1,86.5 15.2,85.9 11.8,91.3 10.6,91.3 10.6,92.4 23.8,92.4 24.6,93.4 25.4,92.6 
		21.6,87.4 	"/>
	<polygon points="31.6,85.8 31.6,90.1 26.9,90.1 26.9,91.1 31.6,91.1 31.6,101.3 26.9,101.3 26.9,102.4 32.8,102.4 32.8,85.8 	"/>
	<polygon points="36.7,85.8 35.5,85.8 35.5,102.3 41.4,102.3 41.4,101.2 36.7,101.2 36.7,91.1 41.4,91.1 41.4,90.1 36.7,90.1 	"/>
	<path d="M53.5,94h-7.1v-1.6h7.1V94z M45.2,91.3v3.8h9.5h0v-3.7h0v0H45.2z"/>
	<polygon points="55.8,85.9 54.3,85.9 52.3,88.7 50.5,88.7 50.5,85.9 49.3,85.9 49.3,88.7 47.5,88.7 45.8,85.9 44.5,85.9 46.1,88.7 
		42.9,88.7 42.9,92.5 44,92.5 44,89.8 55.9,89.8 55.9,92.5 57.1,92.5 57.1,88.7 57.1,88.7 53.7,88.7 	"/>
	<path d="M44.9,99.8h4.5v1.8h-4.5V99.8z M44.9,97.1h4.5v1.8h-4.5V97.1z M50.5,99.8H55v1.8h-4.5V99.8z M50.5,97.1H55v1.8h-4.5V97.1z
		 M43.7,102.4h12.4v-6.1l-12.4,0V102.4z"/>
	<polygon points="64.1,85.9 62.7,85.9 62.3,86.8 62,87.3 62,87.3 58.6,94.8 60,94.8 61.5,91.3 61.5,102.3 62.6,102.3 62.6,89.3 	"/>
	<polygon points="67.9,85.8 66.8,85.8 68.2,90.7 63.8,90.7 63.8,91.8 68.5,91.8 71.4,102.3 72.6,102.3 69.6,91.8 73.7,91.8 
		73.7,90.7 69.3,90.7 	"/>
	<polygon points="70.2,86.4 72.8,89.1 73.7,88.4 71,85.7 	"/>
	<path d="M77.7,101.1l0.8-1h7.8l0.5,0.5L77.7,101.1z M90.2,100.1l0-1l-15.1,0l0,1h2l-0.9,1.1l-1.1,0.1v1l12.8-0.7l0.8,0.7l1.7,0
		l-2.4-2.1H90.2z"/>
	<polygon points="84.5,96.7 85.3,94.5 87.2,96 87.2,94.6 85.7,93.4 86.8,90.5 87.8,90.5 87.8,96.7 90.5,96.7 90.5,95.6 88.9,95.6 
		88.9,89.5 87.1,89.5 87.3,88.9 86.1,88.9 85.9,89.5 83.5,89.5 83.5,90.5 85.6,90.5 84.7,92.7 83.5,91.8 83.5,93.1 84.4,93.8 
		83.3,96.7 	"/>
	<rect x="75.3" y="97.4" width="15.2" height="1"/>
	<polygon points="79.4,88.6 80.6,88.6 80.6,87.8 85,87.8 85,88.6 86.2,88.6 86.2,87.8 90.5,87.8 90.5,86.7 86.2,86.7 86.2,85.9 
		85,85.9 85,86.7 80.6,86.7 80.6,85.9 79.4,85.9 79.4,86.7 75.2,86.7 75.2,87.8 79.4,87.8 	"/>
	<path d="M78.4,93.9h-2.7l2.8-1.8h1.1l2.7,1.8h-2.7v-1.3h-1.1V93.9z M82.7,95.6h-3.1V95h3.1v-0.8h0l0-1.3l-1.2-0.8h1.2v-1h-3.1v-0.6
		h3.1v-1.1h-3.1v-0.8h-1.1v0.8h-3.1v1.1h3.1v0.6h-3.1v1h1.2l-1.1,0.8l0,1.1h0v1h3.1v0.6h-3.1v1.1h7.4V95.6z"/>
	<polygon points="102.9,88.2 101.9,85.9 100.7,85.9 101.7,88.2 	"/>
	<polygon points="96.1,102.3 97.3,102.3 98.7,91.9 97.6,91.9 	"/>
	<polygon points="100.5,91.9 101.9,102.3 103.1,102.3 101.6,91.9 	"/>
	<polygon points="107.8,90.5 102.9,90.5 102.9,91.6 104.8,91.6 104.8,102.4 105.9,102.4 105.9,91.6 107.8,91.6 	"/>
	<rect x="102.9" y="86.1" width="4.8" height="1.1"/>
	<polygon points="96,85.9 94.7,85.9 92.2,90.8 93.5,90.9 	"/>
	<polygon points="92.2,95.2 93.6,95.2 93.8,94.7 93.8,102.3 95,102.3 95,92.4 96,90.3 94.7,90.3 	"/>
	<polygon points="102.7,89 100.2,89 100.2,85.9 99.1,85.9 99.1,89 96.6,89 96.6,90 99.1,90 99.1,102.3 100.2,102.3 100.2,90 
		102.7,90 	"/>
	<path d="M118,98.3h3.9v3H118V98.3z M118,91.4h3.9v3H118V91.4z M116.9,102.3h6.2v-5H118v-1.8h5.1v-5.1h-6.2L116.9,102.3z"/>
	<polygon points="120.4,87.4 120.4,85.9 119.3,85.9 119.3,87.4 115.7,87.4 115.7,88.6 113.2,85.9 111.8,85.9 109.4,88.5 109.4,90 
		112.5,86.8 115.7,90.2 116.4,90.2 116.8,90.2 116.8,88.3 123.2,88.3 123.2,90.2 124.3,90.2 124.3,90.1 124.3,87.4 	"/>
	<path d="M111.1,94.5h2.8v2.3h-2.8V94.5z M111.1,91.4h2.8v2.2h-2.8V91.4z M113.4,99l0.4,1.1l-2.7,0.7v-2.9l3.9,0v0h0v-7.5h0v0h-2
		v-1.6h-1.1v1.6H110l0,10.7l-0.6,0.2l0,1.1l4.7-1.2l0.4,1.2l1.2,0l-1.2-3.4L113.4,99z"/>
	<polygon class="st1" points="14.1,66 19,80.3 21.7,80.3 26.6,66 26.6,80.5 30.7,80.5 30.7,59.2 25.6,59.2 20.5,74.6 15.2,59.2 
		10.2,59.2 10.2,80.5 14.1,80.5 	"/>
	<path class="st1" d="M42.5,62.1c0,0,6.8-0.6,6.7,7.7c0,0,0.6,7.8-6.2,7.9c0,0-6.7,0.8-6.6-7.6C36.4,70.1,35.8,62.2,42.5,62.1
		 M42.9,81.1c11-0.1,10.6-10.8,10.6-10.8C53.9,58.3,43,58.6,43,58.6c-11.4,0.2-10.9,11.1-10.9,11.1C32.2,81.9,42.9,81.1,42.9,81.1"
		/>
	<path class="st1" d="M61.9,59.3c0,0-8.5,2-6.8,13.5c0,0,1.3,10,13.4,8.1c0,0,2.1-0.5,3.5-1.1l1.4-0.7v-5.4c0,0-1.3,2.4-4.2,3.3
		c0,0-4.2,1.7-7.2-0.6c0,0-4.1-2.2-2.3-9.9c0,0,1-4.9,7.1-4.3c0,0,3.3,0,6.7,3.5v-5.1C73.3,60.6,68,57.5,61.9,59.3"/>
	<path class="st1" d="M82.3,71.5L85,64l2.8,7.5H82.3z M87.4,59.1h-4.5l-8.1,21.5H79l2.1-5.7H89l2.1,5.7h4.4L87.4,59.1z"/>
	<polygon class="st2" points="109.1,59 90.4,59 90.4,61.6 98.2,61.6 98.2,80.7 101.3,80.7 101.3,61.6 109.1,61.6 	"/>
	<path class="st2" d="M114.6,76.7c-0.7,0.6-1.4,1-2.1,1.4c-0.7,0.4-1.6,0.6-2.5,0.6c-1.1,0-1.9-0.2-2.5-0.7
		c-0.5-0.5-0.8-1.2-0.8-2.1c0-0.8,0.3-1.5,0.7-1.9c0.5-0.4,1.2-0.8,1.9-1c0.7-0.2,1.5-0.3,2.6-0.4c1-0.1,1.9-0.2,2.6-0.3V76.7z
		 M115.7,65.3c-0.7-0.4-1.4-0.8-2.2-1c-0.8-0.2-1.8-0.3-3-0.3c-1,0-2,0.1-3,0.3c-1,0.2-1.8,0.3-2.3,0.5v2.8h0.2
		c0.9-0.3,1.8-0.6,2.7-0.8c0.9-0.2,1.7-0.3,2.4-0.3c0.6,0,1.1,0,1.7,0.1c0.5,0.1,1,0.2,1.3,0.4c0.4,0.2,0.7,0.5,0.9,0.9
		c0.2,0.4,0.3,0.9,0.3,1.6V70c-1.5,0.1-3,0.2-4.3,0.3c-1.3,0.2-2.5,0.4-3.5,0.9c-1.1,0.5-1.9,1.1-2.4,1.9c-0.5,0.8-0.8,1.8-0.8,2.9
		c0,0.7,0.2,1.4,0.4,2.1c0.3,0.7,0.7,1.2,1.1,1.7c0.5,0.5,1.1,0.8,1.7,1.1c0.6,0.2,1.3,0.4,2,0.4c0.9,0,1.6-0.1,2-0.2
		c0.5-0.1,1-0.3,1.5-0.6c0.3-0.2,0.7-0.4,1.1-0.7c0.4-0.3,0.7-0.5,1-0.7v1.7h2.9V69.6c0-1-0.1-1.9-0.5-2.6
		C116.8,66.3,116.3,65.7,115.7,65.3"/>
	<rect x="120.2" y="64.5" class="st2" width="2.9" height="16.3"/>
	<rect x="120" y="58.9" class="st2" width="3.3" height="2.8"/>
	<path class="st2" d="M136.1,77c-0.8,1-2,1.6-3.5,1.6c-0.7,0-1.3-0.1-1.9-0.2c-0.6-0.1-1.2-0.4-2-0.7v-9.2c0.7-0.5,1.4-1,2.2-1.3
		c0.8-0.3,1.6-0.5,2.4-0.5c1.4,0,2.4,0.5,3.1,1.5c0.6,1,1,2.5,1,4.3C137.4,74.4,137,76,136.1,77 M134.1,64c-1,0-2,0.2-2.9,0.6
		c-0.9,0.4-1.7,0.9-2.4,1.5v-1.7h-3v22.3h3v-6.8c0.7,0.4,1.4,0.7,2,0.9c0.7,0.2,1.5,0.3,2.3,0.3c2.1,0,3.9-0.8,5.3-2.4
		c1.4-1.6,2.1-3.8,2.1-6.5c0-2.5-0.6-4.5-1.7-6C137.6,64.7,136.1,64,134.1,64"/>
	<path class="st2" d="M145.3,70.8c0.1-0.7,0.2-1.3,0.4-1.8c0.2-0.5,0.6-1,1-1.4c0.4-0.4,0.9-0.7,1.5-0.9c0.6-0.2,1.2-0.3,2-0.3
		c0.8,0,1.4,0.1,2,0.3c0.5,0.2,1,0.5,1.3,0.9c0.3,0.4,0.6,0.8,0.7,1.3c0.2,0.5,0.3,1.2,0.3,1.9H145.3z M155.4,65.8
		c-0.6-0.6-1.4-1.1-2.2-1.4c-0.9-0.3-1.8-0.4-2.9-0.4c-2.4,0-4.3,0.8-5.8,2.4c-1.5,1.6-2.2,3.7-2.2,6.3c0,2.7,0.8,4.8,2.3,6.2
		c1.5,1.5,3.7,2.2,6.5,2.2c0.7,0,1.3-0.1,1.8-0.1c0.5-0.1,1-0.2,1.6-0.3c0.4-0.1,0.8-0.3,1.4-0.4c0.5-0.2,0.9-0.3,1.3-0.5v-3h-0.2
		c-0.2,0.2-0.5,0.4-0.9,0.6c-0.3,0.2-0.8,0.4-1.3,0.6c-0.5,0.2-1.1,0.4-1.7,0.5c-0.6,0.1-1.2,0.2-1.9,0.2c-1.8,0-3.2-0.5-4.2-1.5
		c-1-1-1.5-2.5-1.5-4.3h12.1v-1.5c0-1.3-0.2-2.4-0.5-3.3C156.5,67.2,156,66.4,155.4,65.8"/>
	<rect x="159.4" y="58.9" class="st2" width="3.3" height="2.8"/>
	<rect x="159.5" y="64.5" class="st2" width="2.9" height="16.3"/>
</g>
</svg>
