<?xml version="1.0" encoding="utf-8"?>
<!-- Generator: Adobe Illustrator 22.1.0, SVG Export Plug-In . SVG Version: 6.00 Build 0)  -->
<svg version="1.1" id="圖層_1" xmlns="http://www.w3.org/2000/svg" xmlns:xlink="http://www.w3.org/1999/xlink" x="0px" y="0px"
	 viewBox="0 0 205.5 187" style="enable-background:new 0 0 205.5 187;" xml:space="preserve">
<style type="text/css">
	.st0{fill:#FFFFFF;}
	.st1{fill:#E83434;}
</style>
<g>
	<path class="st0" d="M159.4-132.6v-7.6v-0.2l-0.2-0.1l-4.6-2.4l-0.1,0h-0.1h-28.9l0.4,0.4v-0.4v-0.4h-0.4h-3.5l0.2,0.1l-3.6-2.3
		l-0.1-0.1h-0.1h-8.3l0.4,0.4v-0.2l-0.4,0.4h0h0.4v-0.4v-0.3v-0.1l-0.1-0.1l-0.1-0.3l0,0.2v-0.3v0v0c-0.1-0.6-0.6-0.9-0.9-0.9
		l0.3,0.2l-0.1-0.2l-0.4-0.6l-0.3,0.6l-0.1,0.2l0.3-0.2c-0.3,0.1-0.8,0.3-0.9,0.9v0v0v0.3l0-0.2l-0.1,0.3l0,0.1v0.1v0.3v0.4h0.4
		l-0.4-0.4v0.2l0.4-0.4h-7.9h-0.1l-0.1,0.1l-3.7,2.3l0.2-0.1h-3.5H93v0.4v0.4l0.4-0.4H64.2h-0.1l-0.1,0l-4.5,2.4l-0.2,0.1v0.2v7.5
		h0.8v-7.5l-0.2,0.4l4.5-2.4l-0.2,0h29.1h0.4v-0.4v-0.4l-0.4,0.4h3.5H97l0.1-0.1l3.7-2.3l-0.2,0.1h7.9h0.4v-0.4v-0.2v-0.4h-0.4
		l0.4,0.4v-0.3l0,0.2l0.1-0.3l0-0.1v-0.1v-0.3l0,0.1c0-0.2,0.2-0.2,0.2-0.2l0.2,0c0,0,0.1-0.2,0.1-0.2l0.1-0.2l-0.7,0l0.1,0.2
		l0.1,0.1l0.2,0c0,0,0.2,0,0.2,0.2v-0.1v0.3v0.1l0,0.1l0.1,0.3l0-0.2v0.3l0.4-0.4h0h-0.4v0.4v0.2v0.4h0.4h8.3l-0.2-0.1l3.6,2.3
		l0.1,0.1h0.1h3.5l-0.4-0.4v0.4v0.4h0.4h28.9l-0.2,0l4.6,2.4l-0.2-0.4v7.6H159.4z"/>
	<polygon class="st0" points="124.2,-129 111.9,-129 111.9,-127.3 117,-127.3 117,-114.7 119.1,-114.7 119.1,-127.3 124.2,-127.3 	
		"/>
	<path class="st0" d="M127.9-117.3c-0.4,0.4-0.9,0.7-1.4,0.9c-0.5,0.2-1,0.4-1.6,0.4c-0.7,0-1.3-0.2-1.6-0.5
		c-0.4-0.3-0.5-0.8-0.5-1.4c0-0.5,0.2-1,0.5-1.3c0.3-0.3,0.8-0.5,1.3-0.7c0.4-0.1,1-0.2,1.7-0.3c0.7-0.1,1.3-0.1,1.7-0.2V-117.3z
		 M128.6-124.8c-0.4-0.3-0.9-0.5-1.4-0.6c-0.6-0.1-1.2-0.2-2-0.2c-0.7,0-1.3,0.1-2,0.2c-0.7,0.1-1.2,0.2-1.5,0.3v1.8h0.1
		c0.6-0.2,1.2-0.4,1.8-0.6c0.6-0.1,1.1-0.2,1.6-0.2c0.4,0,0.7,0,1.1,0.1c0.3,0,0.7,0.1,0.9,0.3c0.3,0.1,0.5,0.3,0.6,0.6
		c0.1,0.3,0.2,0.6,0.2,1v0.4c-1,0.1-1.9,0.1-2.8,0.2c-0.9,0.1-1.6,0.3-2.3,0.6c-0.7,0.3-1.2,0.7-1.6,1.2c-0.3,0.5-0.5,1.2-0.5,1.9
		c0,0.5,0.1,0.9,0.3,1.4c0.2,0.4,0.4,0.8,0.7,1.1c0.3,0.3,0.7,0.5,1.1,0.7c0.4,0.2,0.9,0.3,1.3,0.3c0.6,0,1-0.1,1.3-0.1
		c0.3-0.1,0.6-0.2,1-0.4c0.2-0.1,0.5-0.3,0.7-0.5c0.3-0.2,0.5-0.3,0.6-0.4v1.1h1.9v-7.3c0-0.7-0.1-1.2-0.3-1.7
		C129.3-124.2,129-124.6,128.6-124.8"/>
	<rect x="131.6" y="-125.4" class="st0" width="1.9" height="10.7"/>
	<rect x="131.4" y="-129.1" class="st0" width="2.2" height="1.9"/>
	<path class="st0" d="M142-117.1c-0.6,0.7-1.3,1-2.3,1c-0.5,0-0.9,0-1.2-0.1c-0.4-0.1-0.8-0.2-1.3-0.5v-6.1c0.5-0.4,0.9-0.7,1.5-0.9
		c0.5-0.2,1-0.3,1.6-0.3c0.9,0,1.6,0.3,2,1c0.4,0.7,0.6,1.6,0.6,2.9C142.9-118.8,142.6-117.8,142-117.1 M140.7-125.7
		c-0.7,0-1.3,0.1-1.9,0.4c-0.6,0.3-1.1,0.6-1.6,1v-1.1h-1.9v14.6h1.9v-4.5c0.5,0.3,0.9,0.4,1.3,0.6c0.5,0.1,1,0.2,1.5,0.2
		c1.4,0,2.6-0.5,3.5-1.6c0.9-1.1,1.4-2.5,1.4-4.3c0-1.6-0.4-2.9-1.1-3.9C143-125.2,142-125.7,140.7-125.7"/>
	<path class="st0" d="M148.1-121.2c0-0.4,0.1-0.9,0.3-1.2c0.2-0.3,0.4-0.6,0.7-0.9c0.3-0.3,0.6-0.5,1-0.6c0.4-0.1,0.8-0.2,1.3-0.2
		c0.5,0,0.9,0.1,1.3,0.2c0.4,0.1,0.7,0.3,0.9,0.6c0.2,0.2,0.4,0.5,0.5,0.9c0.1,0.4,0.2,0.8,0.2,1.3H148.1z M154.7-124.5
		c-0.4-0.4-0.9-0.7-1.4-0.9c-0.6-0.2-1.2-0.3-1.9-0.3c-1.6,0-2.9,0.5-3.8,1.6c-1,1-1.5,2.4-1.5,4.2c0,1.8,0.5,3.1,1.5,4.1
		c1,1,2.4,1.5,4.2,1.5c0.5,0,0.9,0,1.2-0.1c0.3,0,0.6-0.1,1-0.2c0.3-0.1,0.6-0.2,0.9-0.3c0.3-0.1,0.6-0.2,0.8-0.3v-2h-0.1
		c-0.2,0.1-0.3,0.3-0.6,0.4c-0.2,0.1-0.5,0.3-0.9,0.4c-0.3,0.1-0.7,0.3-1.1,0.3c-0.4,0.1-0.8,0.1-1.2,0.1c-1.2,0-2.1-0.3-2.8-1
		c-0.7-0.7-1-1.6-1-2.9h7.9v-1c0-0.9-0.1-1.6-0.3-2.2C155.4-123.6,155.1-124.1,154.7-124.5"/>
	<rect x="157.3" y="-129.1" class="st0" width="2.2" height="1.9"/>
	<rect x="157.4" y="-125.4" class="st0" width="1.9" height="10.7"/>
	<rect x="62.5" y="-139" class="st0" width="0.7" height="2.1"/>
	<rect x="63.6" y="-139" class="st0" width="0.7" height="2.1"/>
	<rect x="64.7" y="-139" class="st0" width="0.7" height="2.1"/>
	<path class="st0" d="M70.6-138.8c-0.2-0.2-0.7-0.2-0.7-0.2c-0.5,0-0.8,0.2-0.8,0.2v1.9H69v0.4h1.8v-0.4h-0.1V-138.8z"/>
	<path class="st0" d="M69.1-135.7v1.9l1.5,0l0-1.9c-0.2-0.2-0.7-0.2-0.7-0.2C69.4-136,69.1-135.7,69.1-135.7"/>
	<path class="st0" d="M72.7-138.8C72.5-139,72-139,72-139c-0.5,0-0.8,0.2-0.8,0.2v1.9H71v0.4h1.8v-0.4h-0.1V-138.8z"/>
	<path class="st0" d="M71.2-135.7v1.9l1.5,0l0-1.9C72.5-136,72-136,72-136C71.5-136,71.2-135.7,71.2-135.7"/>
	<path class="st0" d="M74.7-138.8C74.5-139,74-139,74-139c-0.5,0-0.8,0.2-0.8,0.2v1.9h-0.1v0.4h1.8v-0.4h-0.1V-138.8z"/>
	<path class="st0" d="M73.2-135.7v1.9l1.5,0l0-1.9C74.5-136,74-136,74-136C73.5-136,73.2-135.7,73.2-135.7"/>
	<path class="st0" d="M84.9-138.8c-0.2-0.2-0.7-0.2-0.7-0.2c-0.5,0-0.8,0.2-0.8,0.2v1.9h-0.1v0.4H85v-0.4h-0.1V-138.8z"/>
	<path class="st0" d="M83.4-135.7v1.9l1.5,0v-1.9c-0.2-0.2-0.7-0.2-0.7-0.2C83.7-136,83.4-135.7,83.4-135.7"/>
	<path class="st0" d="M87-138.8c-0.2-0.2-0.7-0.2-0.7-0.2c-0.5,0-0.8,0.2-0.8,0.2v1.9h-0.1v0.4h1.8v-0.4H87V-138.8z"/>
	<path class="st0" d="M85.4-135.7v1.9l1.5,0v-1.9c-0.2-0.2-0.7-0.2-0.7-0.2C85.8-136,85.4-135.7,85.4-135.7"/>
	<path class="st0" d="M89-138.8c-0.2-0.2-0.7-0.2-0.7-0.2c-0.5,0-0.8,0.2-0.8,0.2v1.9h-0.1v0.4h1.8v-0.4H89V-138.8z"/>
	<path class="st0" d="M87.5-135.7v1.9l1.5,0v-1.9c-0.2-0.2-0.7-0.2-0.7-0.2C87.8-136,87.5-135.7,87.5-135.7"/>
	<path class="st0" d="M77.8-138.8c-0.2-0.2-0.7-0.2-0.7-0.2c-0.5,0-0.8,0.2-0.8,0.2v1.9h-0.1v0.4H78v-0.4h-0.1V-138.8z"/>
	<path class="st0" d="M76.3-135.7v1.9l1.5,0l0-1.9c-0.2-0.2-0.7-0.2-0.7-0.2C76.6-136,76.3-135.7,76.3-135.7"/>
	<path class="st0" d="M79.9-138.8c-0.2-0.2-0.7-0.2-0.7-0.2c-0.5,0-0.8,0.2-0.8,0.2v1.9h-0.1v0.4H80v-0.4h-0.1V-138.8z"/>
	<path class="st0" d="M78.4-135.7v1.9l1.5,0l0-1.9c-0.2-0.2-0.7-0.2-0.7-0.2C78.7-136,78.4-135.7,78.4-135.7"/>
	<path class="st0" d="M81.9-138.8c-0.2-0.2-0.7-0.2-0.7-0.2c-0.5,0-0.8,0.2-0.8,0.2v1.9h-0.1v0.4h1.8v-0.4h-0.1V-138.8z"/>
	<path class="st0" d="M80.4-135.7v1.9l1.5,0l0-1.9c-0.2-0.2-0.7-0.2-0.7-0.2C80.7-136,80.4-135.7,80.4-135.7"/>
	<path class="st0" d="M149.9-136.9h-0.1v-1.9c0,0-0.3-0.3-0.8-0.2c0,0-0.5,0-0.7,0.2v1.8h-0.1v0.4h1.8V-136.9z"/>
	<path class="st0" d="M148.3-133.9l1.5,0v-1.9c0,0-0.3-0.2-0.8-0.2c0,0-0.5,0-0.7,0.2L148.3-133.9z"/>
	<path class="st0" d="M147.9-136.9h-0.1v-1.9c0,0-0.3-0.3-0.8-0.2c0,0-0.5,0-0.7,0.2v1.8h-0.1v0.4h1.8V-136.9z"/>
	<path class="st0" d="M146.2-133.9l1.5,0v-1.9c0,0-0.3-0.2-0.8-0.2c0,0-0.5,0-0.7,0.2L146.2-133.9z"/>
	<path class="st0" d="M145.8-136.9h-0.1v-1.9c0,0-0.3-0.3-0.8-0.2c0,0-0.5,0-0.7,0.2v1.8H144v0.4h1.8V-136.9z"/>
	<path class="st0" d="M144.2-133.9l1.5,0v-1.9c0,0-0.3-0.2-0.8-0.2c0,0-0.5,0-0.7,0.2L144.2-133.9z"/>
	<path class="st0" d="M135.6-136.9h-0.1v-1.9c0,0-0.3-0.3-0.8-0.2c0,0-0.5,0-0.7,0.2v1.8h-0.1v0.4h1.8V-136.9z"/>
	<path class="st0" d="M135.5-135.7c0,0-0.3-0.2-0.8-0.2c0,0-0.5,0-0.7,0.2l0,1.9l1.5,0V-135.7z"/>
	<path class="st0" d="M133.5-138.8c0,0-0.3-0.3-0.8-0.2c0,0-0.5,0-0.7,0.2v1.8h-0.1v0.4h1.8v-0.3h-0.1V-138.8z"/>
	<path class="st0" d="M131.9-135.8v1.9l1.5,0v-1.9c0,0-0.3-0.2-0.8-0.2C132.7-136,132.2-136,131.9-135.8"/>
	<path class="st0" d="M131.5-136.9h-0.1v-1.9c0,0-0.3-0.3-0.8-0.2c0,0-0.5,0-0.7,0.2v1.8h-0.1v0.4h1.8V-136.9z"/>
	<path class="st0" d="M131.4-135.7c0,0-0.3-0.2-0.8-0.2c0,0-0.5,0-0.7,0.2l0,1.9l1.5,0V-135.7z"/>
	<path class="st0" d="M142.7-136.9h-0.1v-1.9c0,0-0.3-0.3-0.8-0.2c0,0-0.5,0-0.7,0.2v1.8H141v0.4h1.8V-136.9z"/>
	<path class="st0" d="M141.1-133.9l1.5,0v-1.9c0,0-0.3-0.2-0.8-0.2c0,0-0.5,0-0.7,0.2L141.1-133.9z"/>
	<path class="st0" d="M140.7-136.9h-0.1v-1.9c0,0-0.3-0.3-0.8-0.2c0,0-0.5,0-0.7,0.2v1.8h-0.1v0.4h1.8V-136.9z"/>
	<path class="st0" d="M139-133.9l1.5,0v-1.9c0,0-0.3-0.2-0.8-0.2c0,0-0.5,0-0.7,0.2L139-133.9z"/>
	<path class="st0" d="M138.6-136.9h-0.1v-1.9c0,0-0.3-0.3-0.8-0.2c0,0-0.5,0-0.7,0.2v1.8h-0.1v0.4h1.8V-136.9z"/>
	<path class="st0" d="M137-133.9l1.5,0v-1.9c0,0-0.3-0.2-0.8-0.2c0,0-0.5,0-0.7,0.2L137-133.9z"/>
	<path class="st0" d="M96.3-139.5c-0.6,0-0.8,0.2-0.8,0.2l0,2l1.6,0v-2C96.9-139.5,96.3-139.5,96.3-139.5"/>
	<path class="st0" d="M96.3-136.4c-0.6,0-0.8,0.2-0.8,0.2l0,2l1.6,0v-2C96.9-136.4,96.3-136.4,96.3-136.4"/>
	<path class="st0" d="M98.5-137.3h1v0.7h-1V-137.3z M98.3-133.9h1.4v-5.9h-1.4V-133.9z"/>
	<path class="st0" d="M100.6-137.3h1v0.7h-1V-137.3z M100.4-133.9h1.4v-5.9h-1.4V-133.9z"/>
	<path class="st0" d="M102.7-137.3h1v0.7h-1V-137.3z M102.6-133.9h1.4v-5.9h-1.4V-133.9z"/>
	<path class="st0" d="M104.8-137.3h1v0.7h-1V-137.3z M104.6-133.9h1.4v-5.9h-1.4V-133.9z"/>
	<path class="st0" d="M113.1-137.3h1v0.7h-1V-137.3z M112.9-133.9h1.4v-5.9h-1.4V-133.9z"/>
	<path class="st0" d="M115.2-137.3h1v0.7h-1V-137.3z M115.1-133.9h1.4v-5.9h-1.4V-133.9z"/>
	<path class="st0" d="M117.3-137.3h1.1v0.7h-1.1V-137.3z M117.2-133.9h1.4v-5.9h-1.4V-133.9z"/>
	<path class="st0" d="M119.4-137.3h1v0.7h-1V-137.3z M119.3-133.9h1.4v-5.9h-1.4V-133.9z"/>
	<path class="st0" d="M123.5-139.3c0,0-0.2-0.1-0.8-0.2c0,0-0.6,0-0.8,0.2v2l1.6,0V-139.3z"/>
	<path class="st0" d="M123.5-136.3c0,0-0.2-0.1-0.8-0.2c0,0-0.6,0-0.8,0.2v2l1.6,0V-136.3z"/>
	<polygon class="st0" points="112.3,-137 111.8,-137 111.8,-139.8 107.1,-139.8 107.1,-137 106.6,-137 106.6,-136.8 112.3,-136.8 	
		"/>
	<path class="st0" d="M93.4-139.1c-0.2-0.2-0.7-0.2-0.7-0.2c-0.5,0-0.8,0.2-0.8,0.2v4.5h-0.1v0.3h1.8v-0.4h-0.1V-139.1z"/>
	<path class="st0" d="M127.1-134.6H127v-4.5c-0.2-0.2-0.7-0.2-0.7-0.2c-0.5,0-0.8,0.2-0.8,0.2v4.5h-0.1v0.3h1.8V-134.6z"/>
	<path class="st0" d="M111.6-135.1c-0.5-0.7-1.3-1.1-2.2-1.1c-0.9,0-1.7,0.4-2.2,1.1v-1.2h4.3V-135.1z M111.1-133.9h-3.4v-1.2
		c0.4-0.5,1-0.8,1.7-0.8c0.7,0,1.3,0.3,1.7,0.8V-133.9z M112.3-136.4h-5.7v2.9h5.7V-136.4z"/>
	<path class="st0" d="M62.8-135.9h2.3v2h-2.3V-135.9z M62.1-136.5L62.1-136.5l0,0.7h0h0.1v2.3h3.6v-2.3h0.1v-0.7H62.1L62.1-136.5z"
		/>
	<path class="st0" d="M155.9-133.9h-2.3v-2h2.3V-133.9z M156.7-136.5L156.7-136.5h-3.9v0.4v0.2h0.1v2.3h3.6v-2.3h0.1v-0.2h0V-136.5z
		"/>
	<rect x="153.3" y="-139" class="st0" width="0.7" height="2.2"/>
	<rect x="154.3" y="-139" class="st0" width="0.7" height="2.2"/>
	<rect x="155.4" y="-139" class="st0" width="0.7" height="2.2"/>
	<rect x="55.6" y="-164.5" class="st1" width="107.4" height="110.3"/>
	<path d="M61.2-104.8h6v3.7h-6V-104.8z M60.5-100.5L60.5-100.5L60.5-100.5l7.6,0v0h0v-5h-7.6V-100.5z"/>
	<polygon points="66,-109.9 67.6,-107.7 61.1,-107.7 63,-110.9 62.4,-111.3 60.2,-107.7 59.4,-107.7 59.4,-107 68.1,-107 
		68.6,-106.4 69.1,-106.8 66.6,-110.3 	"/>
	<polygon points="73.2,-111.3 73.2,-108.5 70.2,-108.5 70.2,-107.8 73.2,-107.8 73.2,-101.1 70.2,-101.1 70.2,-100.4 74,-100.4 
		74,-111.3 	"/>
	<polygon points="76.6,-111.3 75.8,-111.3 75.8,-100.5 79.7,-100.5 79.7,-101.2 76.6,-101.2 76.6,-107.8 79.7,-107.8 79.7,-108.5 
		76.6,-108.5 	"/>
	<path d="M87.6-106h-4.7v-1h4.7V-106z M82.2-107.7v2.5h6.2h0v-2.5h0v0H82.2z"/>
	<polygon points="89.1,-111.3 88.2,-111.3 86.8,-109.4 85.7,-109.4 85.7,-111.3 84.9,-111.3 84.9,-109.4 83.7,-109.4 82.6,-111.3 
		81.7,-111.3 82.8,-109.4 80.7,-109.4 80.7,-106.9 81.4,-106.9 81.4,-108.7 89.2,-108.7 89.2,-106.9 90,-106.9 90,-109.4 90,-109.4 
		87.8,-109.4 	"/>
	<path d="M82-102.1h2.9v1.2H82V-102.1z M82-103.9h2.9v1.2H82V-103.9z M85.6-102.1h3v1.2h-3V-102.1z M85.6-103.9h3v1.2h-3V-103.9z
		 M81.2-100.4h8.2v-4l-8.2,0V-100.4z"/>
	<polygon points="94.6,-111.3 93.7,-111.3 93.4,-110.7 93.2,-110.4 93.3,-110.3 91,-105.5 91.9,-105.4 92.9,-107.7 92.9,-100.5 
		93.7,-100.5 93.7,-109 	"/>
	<polygon points="97.1,-111.3 96.4,-111.3 97.3,-108.1 94.4,-108.1 94.4,-107.4 97.5,-107.4 99.4,-100.5 100.2,-100.5 98.2,-107.4 
		100.9,-107.4 100.9,-108.1 98,-108.1 	"/>
	<polygon points="98.6,-110.9 100.4,-109.2 101,-109.7 99.2,-111.4 	"/>
	<path d="M103.5-101.3l0.5-0.6h5.1l0.3,0.3L103.5-101.3z M111.8-101.9l0-0.7l-9.9,0l0,0.7h1.3l-0.6,0.7l-0.7,0v0.6l8.4-0.4l0.5,0.4
		l1.1,0l-1.6-1.4H111.8z"/>
	<polygon points="108,-104.2 108.6,-105.6 109.8,-104.6 109.8,-105.5 108.8,-106.3 109.5,-108.2 110.2,-108.2 110.2,-104.2 
		112,-104.2 112,-104.9 111,-104.9 111,-108.9 109.8,-108.9 109.9,-109.3 109.1,-109.3 109,-108.9 107.4,-108.9 107.4,-108.2 
		108.7,-108.2 108.2,-106.8 107.4,-107.4 107.4,-106.5 107.9,-106.1 107.2,-104.2 	"/>
	<rect x="102" y="-103.7" width="10" height="0.7"/>
	<polygon points="104.7,-109.5 105.5,-109.5 105.5,-110 108.4,-110 108.4,-109.5 109.2,-109.5 109.2,-110 112,-110 112,-110.7 
		109.2,-110.7 109.2,-111.3 108.4,-111.3 108.4,-110.7 105.5,-110.7 105.5,-111.3 104.7,-111.3 104.7,-110.7 101.9,-110.7 
		101.9,-110 104.7,-110 	"/>
	<path d="M104-106h-1.8l1.8-1.2h0.7l1.8,1.2h-1.8v-0.8H104V-106z M106.8-104.9h-2.1v-0.4h2.1v-0.5h0l0-0.9l-0.8-0.5h0.8v-0.7h-2.1
		v-0.4h2.1v-0.7h-2.1v-0.5H104v0.5h-2v0.7h2v0.4h-2v0.7h0.8l-0.8,0.5l0,0.7h0v0.7h2v0.4h-2v0.7h4.9V-104.9z"/>
	<polygon points="120.1,-109.8 119.5,-111.3 118.7,-111.3 119.3,-109.8 	"/>
	<polygon points="115.7,-100.5 116.4,-100.5 117.4,-107.3 116.7,-107.3 	"/>
	<polygon points="118.6,-107.3 119.5,-100.5 120.3,-100.5 119.3,-107.3 	"/>
	<polygon points="123.4,-108.3 120.2,-108.3 120.2,-107.5 121.4,-107.5 121.4,-100.5 122.2,-100.5 122.2,-107.5 123.4,-107.5 	"/>
	<rect x="120.2" y="-111.1" width="3.2" height="0.8"/>
	<polygon points="115.6,-111.3 114.8,-111.3 113.1,-108 114,-108 	"/>
	<polygon points="113.1,-105.2 114,-105.1 114.2,-105.5 114.2,-100.5 114.9,-100.5 114.9,-107 115.6,-108.4 114.8,-108.4 	"/>
	<polygon points="120,-109.3 118.4,-109.3 118.4,-111.3 117.6,-111.3 117.6,-109.3 116,-109.3 116,-108.6 117.6,-108.6 
		117.6,-100.5 118.4,-100.5 118.4,-108.6 120,-108.6 	"/>
	<path d="M130.1-103.1h2.6v2h-2.6V-103.1z M130.1-107.6h2.6v2h-2.6V-107.6z M129.3-100.5h4.1v-3.3h-3.3v-1.2h3.3v-3.3h-4.1
		L129.3-100.5z"/>
	<polygon points="131.7,-110.3 131.7,-111.3 131,-111.3 131,-110.3 128.6,-110.3 128.6,-109.5 126.9,-111.3 126,-111.3 
		124.4,-109.6 124.4,-108.6 126.4,-110.7 128.6,-108.5 129.1,-108.5 129.3,-108.5 129.3,-109.7 133.5,-109.7 133.5,-108.5 
		134.2,-108.5 134.2,-108.5 134.2,-110.3 	"/>
	<path d="M125.6-105.6h1.9v1.5h-1.9V-105.6z M125.6-107.6h1.9v1.5h-1.9V-107.6z M127-102.7l0.3,0.8l-1.8,0.5v-1.9l2.6,0v0h0v-4.9h0
		v0h-1.3v-1.1h-0.7v1.1h-1.3l0,7l-0.4,0.1l0,0.7l3.1-0.8l0.3,0.8l0.8,0l-0.8-2.2L127-102.7z"/>
	<polygon points="61.7,-124.4 64.9,-115 66.7,-115 69.9,-124.4 69.9,-114.8 72.7,-114.8 72.7,-128.9 69.3,-128.9 65.9,-118.7 
		62.4,-128.8 59.1,-128.9 59.1,-114.8 61.7,-114.8 	"/>
	<path d="M80.4-127c0,0,4.5-0.4,4.4,5.1c0,0,0.4,5.1-4,5.2c0,0-4.4,0.5-4.4-5C76.4-121.7,76-126.9,80.4-127 M80.7-114.4
		c7.2-0.1,7-7.1,7-7.1c0.3-7.9-6.9-7.7-6.9-7.7c-7.5,0.1-7.2,7.3-7.2,7.3C73.6-113.9,80.7-114.4,80.7-114.4"/>
	<path d="M93.1-128.8c0,0-5.6,1.3-4.5,8.9c0,0,0.8,6.6,8.8,5.3c0,0,1.4-0.3,2.3-0.7l0.9-0.4v-3.6c0,0-0.9,1.6-2.8,2.2
		c0,0-2.8,1.1-4.7-0.4c0,0-2.7-1.5-1.5-6.5c0,0,0.6-3.2,4.7-2.8c0,0,2.2,0,4.4,2.3v-3.3C100.7-127.9,97.2-130,93.1-128.8"/>
	<path d="M106.6-120.8l1.8-4.9l1.9,4.9H106.6z M110-128.9h-3l-5.4,14.2h2.8l1.4-3.7h5.2l1.4,3.7h2.9L110-128.9z"/>
	<path class="st0" d="M159.4-132.6v-7.6v-0.2l-0.2-0.1l-4.6-2.4l-0.1,0h-0.1h-28.9l0.4,0.4v-0.4v-0.4h-0.4h-3.5l0.2,0.1l-3.6-2.3
		l-0.1-0.1h-0.1h-8.3l0.4,0.4v-0.2l-0.4,0.4h0h0.4v-0.4v-0.3v-0.1l0-0.1l-0.1-0.3l0,0.2v-0.3v0v0c-0.1-0.6-0.6-0.9-0.9-0.9l0.3,0.2
		l-0.1-0.2l-0.3-0.6l-0.3,0.6l-0.1,0.2l0.3-0.2c-0.3,0-0.8,0.3-0.9,0.9v0v0v0.3l0-0.2l-0.1,0.3l0,0.1v0.1v0.3v0.4h0.4l-0.4-0.4v0.2
		l0.4-0.4h-7.9h-0.1l-0.1,0.1l-3.7,2.3l0.2-0.1h-3.5H93v0.4v0.4l0.4-0.4H64.2h-0.1l-0.1,0l-4.5,2.4l-0.2,0.1v0.2v7.5h0.8v-7.5
		l-0.2,0.4l4.5-2.4l-0.2,0.1h29.1h0.4v-0.4v-0.4l-0.4,0.4h3.5H97l0.1-0.1l3.7-2.3l-0.2,0.1h7.9h0.4v-0.4v-0.2v-0.4h-0.4l0.4,0.4
		v-0.3l0,0.2l0.1-0.3l0-0.1v-0.1v-0.3l0,0.1c0-0.2,0.2-0.2,0.2-0.2l0.2,0c0,0,0.1-0.2,0.1-0.2l0.1-0.2H109l0.1,0.2l0.1,0.1l0.2,0
		c0,0,0.2,0,0.2,0.2v-0.1v0.3v0.1l0,0.1l0.1,0.3l0-0.2v0.3l0.4-0.4h0h-0.4v0.4v0.2v0.4h0.4h8.3l-0.2-0.1l3.6,2.3l0.1,0.1h0.1h3.5
		l-0.4-0.4v0.4v0.4h0.4h28.9l-0.2,0l4.6,2.4l-0.2-0.4v7.6H159.4z"/>
	<polygon class="st0" points="124.2,-129 111.9,-129 111.9,-127.3 117,-127.3 117,-114.7 119.1,-114.7 119.1,-127.3 124.2,-127.3 	
		"/>
	<path class="st0" d="M127.9-117.3c-0.4,0.4-0.9,0.7-1.4,0.9c-0.5,0.2-1,0.4-1.6,0.4c-0.7,0-1.3-0.2-1.6-0.5
		c-0.4-0.3-0.5-0.8-0.5-1.4c0-0.5,0.2-1,0.5-1.3c0.3-0.3,0.8-0.5,1.3-0.7c0.4-0.1,1-0.2,1.7-0.3c0.7-0.1,1.3-0.1,1.7-0.2V-117.3z
		 M128.6-124.8c-0.4-0.3-0.9-0.5-1.4-0.6c-0.6-0.1-1.2-0.2-2-0.2c-0.7,0-1.3,0.1-2,0.2c-0.7,0.1-1.2,0.2-1.5,0.3v1.8h0.1
		c0.6-0.2,1.2-0.4,1.8-0.6c0.6-0.1,1.1-0.2,1.6-0.2c0.4,0,0.7,0,1.1,0.1c0.3,0,0.7,0.1,0.9,0.3c0.3,0.1,0.5,0.3,0.6,0.6
		c0.1,0.3,0.2,0.6,0.2,1v0.4c-1,0.1-1.9,0.1-2.8,0.2c-0.9,0.1-1.6,0.3-2.3,0.6c-0.7,0.3-1.2,0.7-1.6,1.2c-0.3,0.5-0.5,1.2-0.5,1.9
		c0,0.5,0.1,0.9,0.3,1.4c0.2,0.4,0.4,0.8,0.7,1.1c0.3,0.3,0.7,0.5,1.1,0.7c0.4,0.2,0.9,0.3,1.3,0.3c0.6,0,1-0.1,1.3-0.1
		c0.3-0.1,0.6-0.2,1-0.4c0.2-0.1,0.5-0.3,0.7-0.5c0.3-0.2,0.5-0.3,0.6-0.4v1.1h1.9v-7.3c0-0.7-0.1-1.2-0.3-1.7
		C129.3-124.2,129-124.6,128.6-124.8"/>
	<rect x="131.6" y="-125.4" class="st0" width="1.9" height="10.7"/>
	<rect x="131.4" y="-129.1" class="st0" width="2.2" height="1.9"/>
	<path class="st0" d="M142-117.1c-0.6,0.7-1.3,1-2.3,1c-0.5,0-0.9,0-1.2-0.1c-0.4-0.1-0.8-0.2-1.3-0.5v-6.1c0.5-0.4,0.9-0.7,1.5-0.9
		c0.5-0.2,1-0.3,1.6-0.3c0.9,0,1.6,0.3,2,1c0.4,0.7,0.6,1.6,0.6,2.9C142.9-118.8,142.6-117.8,142-117.1 M140.7-125.7
		c-0.7,0-1.3,0.1-1.9,0.4c-0.6,0.3-1.1,0.6-1.6,1v-1.1h-1.9v14.6h1.9v-4.5c0.5,0.3,0.9,0.4,1.3,0.6c0.5,0.1,1,0.2,1.5,0.2
		c1.4,0,2.6-0.5,3.5-1.6c0.9-1.1,1.4-2.5,1.4-4.3c0-1.6-0.4-2.9-1.1-3.9C143-125.2,142-125.7,140.7-125.7"/>
	<path class="st0" d="M148.1-121.2c0-0.4,0.1-0.9,0.3-1.2c0.2-0.3,0.4-0.6,0.7-0.9c0.3-0.3,0.6-0.5,1-0.6c0.4-0.1,0.8-0.2,1.3-0.2
		c0.5,0,0.9,0.1,1.3,0.2c0.4,0.1,0.7,0.3,0.9,0.6c0.2,0.2,0.4,0.5,0.5,0.9c0.1,0.4,0.2,0.8,0.2,1.3H148.1z M154.7-124.5
		c-0.4-0.4-0.9-0.7-1.4-0.9c-0.6-0.2-1.2-0.3-1.9-0.3c-1.6,0-2.9,0.5-3.8,1.6c-1,1-1.5,2.4-1.5,4.2c0,1.8,0.5,3.1,1.5,4.1
		c1,1,2.4,1.5,4.2,1.5c0.5,0,0.9,0,1.2-0.1c0.3,0,0.6-0.1,1-0.2c0.3-0.1,0.6-0.2,0.9-0.3c0.3-0.1,0.6-0.2,0.8-0.3v-2h-0.1
		c-0.2,0.1-0.3,0.3-0.6,0.4c-0.2,0.1-0.5,0.3-0.9,0.4c-0.3,0.1-0.7,0.3-1.1,0.3c-0.4,0.1-0.8,0.1-1.2,0.1c-1.2,0-2.1-0.3-2.8-1
		c-0.7-0.7-1-1.6-1-2.9h7.9v-1c0-0.9-0.1-1.6-0.3-2.2C155.4-123.6,155.1-124.1,154.7-124.5"/>
	<rect x="157.3" y="-129.1" class="st0" width="2.2" height="1.9"/>
	<rect x="157.4" y="-125.4" class="st0" width="1.9" height="10.7"/>
	<rect x="62.5" y="-139" class="st0" width="0.7" height="2.1"/>
	<rect x="63.6" y="-139" class="st0" width="0.7" height="2.1"/>
	<rect x="64.7" y="-139" class="st0" width="0.7" height="2.1"/>
	<path class="st0" d="M70.6-138.8c-0.2-0.2-0.7-0.2-0.7-0.2c-0.5,0-0.8,0.2-0.8,0.2v1.9H69v0.4h1.8v-0.4h-0.1V-138.8z"/>
	<path class="st0" d="M69.1-135.7v1.9l1.5,0l0-1.9c-0.2-0.2-0.7-0.2-0.7-0.2C69.4-136,69.1-135.7,69.1-135.7"/>
	<path class="st0" d="M72.7-138.8C72.5-139,72-139,72-139c-0.5,0-0.8,0.2-0.8,0.2v1.9H71v0.4h1.8v-0.4h-0.1V-138.8z"/>
	<path class="st0" d="M71.2-135.7v1.9l1.5,0l0-1.9C72.5-136,72-136,72-136C71.5-136,71.2-135.7,71.2-135.7"/>
	<path class="st0" d="M74.7-138.8C74.5-139,74-139,74-139c-0.5,0-0.8,0.2-0.8,0.2v1.9h-0.1v0.4h1.8v-0.4h-0.1V-138.8z"/>
	<path class="st0" d="M73.2-135.7v1.9l1.5,0l0-1.9C74.5-136,74-136,74-136C73.5-136,73.2-135.7,73.2-135.7"/>
	<path class="st0" d="M84.9-138.8c-0.2-0.2-0.7-0.2-0.7-0.2c-0.5,0-0.8,0.2-0.8,0.2v1.9h-0.1v0.4H85v-0.4h-0.1V-138.8z"/>
	<path class="st0" d="M83.4-135.7v1.9l1.5,0v-1.9c-0.2-0.2-0.7-0.2-0.7-0.2C83.7-136,83.4-135.7,83.4-135.7"/>
	<path class="st0" d="M87-138.8c-0.2-0.2-0.7-0.2-0.7-0.2c-0.5,0-0.8,0.2-0.8,0.2v1.9h-0.1v0.4h1.8v-0.4H87V-138.8z"/>
	<path class="st0" d="M85.4-135.7v1.9l1.5,0v-1.9c-0.2-0.2-0.7-0.2-0.7-0.2C85.8-136,85.4-135.7,85.4-135.7"/>
	<path class="st0" d="M89-138.8c-0.2-0.2-0.7-0.2-0.7-0.2c-0.5,0-0.8,0.2-0.8,0.2v1.9h-0.1v0.4h1.8v-0.4H89V-138.8z"/>
	<path class="st0" d="M87.5-135.7v1.9l1.5,0v-1.9c-0.2-0.2-0.7-0.2-0.7-0.2C87.8-136,87.5-135.7,87.5-135.7"/>
	<path class="st0" d="M77.8-138.8c-0.2-0.2-0.7-0.2-0.7-0.2c-0.5,0-0.8,0.2-0.8,0.2v1.9h-0.1v0.4H78v-0.4h-0.1V-138.8z"/>
	<path class="st0" d="M76.3-135.7v1.9l1.5,0l0-1.9c-0.2-0.2-0.7-0.2-0.7-0.2C76.6-136,76.3-135.7,76.3-135.7"/>
	<path class="st0" d="M79.9-138.8c-0.2-0.2-0.7-0.2-0.7-0.2c-0.5,0-0.8,0.2-0.8,0.2v1.9h-0.1v0.4H80v-0.4h-0.1V-138.8z"/>
	<path class="st0" d="M78.4-135.7v1.9l1.5,0l0-1.9c-0.2-0.2-0.7-0.2-0.7-0.2C78.7-136,78.4-135.7,78.4-135.7"/>
	<path class="st0" d="M81.9-138.8c-0.2-0.2-0.7-0.2-0.7-0.2c-0.5,0-0.8,0.2-0.8,0.2v1.9h-0.1v0.4h1.8v-0.4h-0.1V-138.8z"/>
	<path class="st0" d="M80.4-135.7v1.9l1.5,0l0-1.9c-0.2-0.2-0.7-0.2-0.7-0.2C80.7-136,80.4-135.7,80.4-135.7"/>
	<path class="st0" d="M149.9-136.9h-0.1v-1.9c0,0-0.3-0.3-0.8-0.2c0,0-0.5,0-0.7,0.2v1.8h-0.1v0.4h1.8V-136.9z"/>
	<path class="st0" d="M148.3-133.9l1.5,0v-1.9c0,0-0.3-0.2-0.8-0.2c0,0-0.5,0-0.7,0.2L148.3-133.9z"/>
	<path class="st0" d="M147.9-136.9h-0.1v-1.9c0,0-0.3-0.3-0.8-0.2c0,0-0.5,0-0.7,0.2v1.8h-0.1v0.4h1.8V-136.9z"/>
	<path class="st0" d="M146.2-133.9l1.5,0v-1.9c0,0-0.3-0.2-0.8-0.2c0,0-0.5,0-0.7,0.2L146.2-133.9z"/>
	<path class="st0" d="M145.8-136.9h-0.1v-1.9c0,0-0.3-0.3-0.8-0.2c0,0-0.5,0-0.7,0.2v1.8H144v0.4h1.8V-136.9z"/>
	<path class="st0" d="M144.2-133.9l1.5,0v-1.9c0,0-0.3-0.2-0.8-0.2c0,0-0.5,0-0.7,0.2L144.2-133.9z"/>
	<path class="st0" d="M135.6-136.9h-0.1v-1.9c0,0-0.3-0.3-0.8-0.2c0,0-0.5,0-0.7,0.2v1.8h-0.1v0.4h1.8V-136.9z"/>
	<path class="st0" d="M135.5-135.7c0,0-0.3-0.2-0.8-0.2c0,0-0.5,0-0.7,0.2l0,1.9l1.5,0V-135.7z"/>
	<path class="st0" d="M133.5-138.8c0,0-0.3-0.3-0.8-0.2c0,0-0.5,0-0.7,0.2v1.8h-0.1v0.4h1.8v-0.3h-0.1V-138.8z"/>
	<path class="st0" d="M131.9-135.8v1.9l1.5,0v-1.9c0,0-0.3-0.2-0.8-0.2C132.7-136,132.2-136,131.9-135.8"/>
	<path class="st0" d="M131.5-136.9h-0.1v-1.9c0,0-0.3-0.3-0.8-0.2c0,0-0.5,0-0.7,0.2v1.8h-0.1v0.4h1.8V-136.9z"/>
	<path class="st0" d="M131.4-135.7c0,0-0.3-0.2-0.8-0.2c0,0-0.5,0-0.7,0.2l0,1.9l1.5,0V-135.7z"/>
	<path class="st0" d="M142.7-136.9h-0.1v-1.9c0,0-0.3-0.3-0.8-0.2c0,0-0.5,0-0.7,0.2v1.8H141v0.4h1.8V-136.9z"/>
	<path class="st0" d="M141.1-133.9l1.5,0v-1.9c0,0-0.3-0.2-0.8-0.2c0,0-0.5,0-0.7,0.2L141.1-133.9z"/>
	<path class="st0" d="M140.7-136.9h-0.1v-1.9c0,0-0.3-0.3-0.8-0.2c0,0-0.5,0-0.7,0.2v1.8h-0.1v0.4h1.8V-136.9z"/>
	<path class="st0" d="M139-133.9l1.5,0v-1.9c0,0-0.3-0.2-0.8-0.2c0,0-0.5,0-0.7,0.2L139-133.9z"/>
	<path class="st0" d="M138.6-136.9h-0.1v-1.9c0,0-0.3-0.3-0.8-0.2c0,0-0.5,0-0.7,0.2v1.8h-0.1v0.4h1.8V-136.9z"/>
	<path class="st0" d="M137-133.9l1.5,0v-1.9c0,0-0.3-0.2-0.8-0.2c0,0-0.5,0-0.7,0.2L137-133.9z"/>
	<path class="st0" d="M96.3-139.5c-0.6,0-0.8,0.2-0.8,0.2l0,2l1.6,0v-2C96.9-139.5,96.3-139.5,96.3-139.5"/>
	<path class="st0" d="M96.3-136.4c-0.6,0-0.8,0.2-0.8,0.2l0,2l1.6,0v-2C96.9-136.4,96.3-136.4,96.3-136.4"/>
	<path class="st0" d="M98.5-137.3h1v0.7h-1V-137.3z M98.3-133.9h1.4v-5.9h-1.4V-133.9z"/>
	<path class="st0" d="M100.6-137.3h1v0.7h-1V-137.3z M100.4-133.9h1.4v-5.9h-1.4V-133.9z"/>
	<path class="st0" d="M102.7-137.3h1v0.7h-1V-137.3z M102.6-133.9h1.4v-5.9h-1.4V-133.9z"/>
	<path class="st0" d="M104.8-137.3h1v0.7h-1V-137.3z M104.6-133.9h1.4v-5.9h-1.4V-133.9z"/>
	<path class="st0" d="M113.1-137.3h1v0.7h-1V-137.3z M112.9-133.9h1.4v-5.9h-1.4V-133.9z"/>
	<path class="st0" d="M115.2-137.3h1v0.7h-1V-137.3z M115.1-133.9h1.4v-5.9h-1.4V-133.9z"/>
	<path class="st0" d="M117.3-137.3h1.1v0.7h-1.1V-137.3z M117.2-133.9h1.4v-5.9h-1.4V-133.9z"/>
	<path class="st0" d="M119.4-137.3h1v0.7h-1V-137.3z M119.3-133.9h1.4v-5.9h-1.4V-133.9z"/>
	<path class="st0" d="M123.5-139.3c0,0-0.2-0.1-0.8-0.2c0,0-0.6,0-0.8,0.2v2l1.6,0V-139.3z"/>
	<path class="st0" d="M123.5-136.3c0,0-0.2-0.1-0.8-0.2c0,0-0.6,0-0.8,0.2v2l1.6,0V-136.3z"/>
	<polygon class="st0" points="112.3,-137 111.8,-137 111.8,-139.8 107.1,-139.8 107.1,-137 106.6,-137 106.6,-136.8 112.3,-136.8 	
		"/>
	<path class="st0" d="M93.4-139.1c-0.2-0.2-0.7-0.2-0.7-0.2c-0.5,0-0.8,0.2-0.8,0.2v4.5h-0.1v0.3h1.8v-0.4h-0.1V-139.1z"/>
	<path class="st0" d="M127.1-134.6H127v-4.5c-0.2-0.2-0.7-0.2-0.7-0.2c-0.5,0-0.8,0.2-0.8,0.2v4.5h-0.1v0.3h1.8V-134.6z"/>
	<path class="st0" d="M111.6-135.1c-0.5-0.7-1.3-1.1-2.2-1.1c-0.9,0-1.7,0.4-2.2,1.1v-1.2h4.3V-135.1z M111.1-133.9h-3.4v-1.2
		c0.4-0.5,1-0.8,1.7-0.8c0.7,0,1.3,0.3,1.7,0.8V-133.9z M112.3-136.4h-5.7v2.9h5.7V-136.4z"/>
	<path class="st0" d="M62.8-135.9h2.3v2h-2.3V-135.9z M62.1-136.5L62.1-136.5l0,0.7h0h0.1v2.3h3.6v-2.3h0.1v-0.7H62.1L62.1-136.5z"
		/>
	<path class="st0" d="M155.9-133.9h-2.3v-2h2.3V-133.9z M156.7-136.5L156.7-136.5h-3.9v0.4v0.2h0.1v2.3h3.6v-2.3h0.1v-0.2h0V-136.5z
		"/>
	<rect x="153.3" y="-139" class="st0" width="0.7" height="2.2"/>
	<rect x="154.3" y="-139" class="st0" width="0.7" height="2.2"/>
	<rect x="155.4" y="-139" class="st0" width="0.7" height="2.2"/>
</g>
<g>
	<path class="st0" d="M197.4,87.4V73.7v-0.4L197,73l-8.4-4.3l-0.2-0.1h-0.2h-52.5l0.7,0.7v-0.6V68h-0.7h-6.4l0.4,0.1l-6.6-4.2
		l-0.2-0.1h-0.2h-15l0.7,0.7v-0.4l-0.7,0.7h0.1h0.7v-0.7v-0.5v-0.2l-0.1-0.2l-0.3-0.5l0.1,0.3v-0.6v-0.1v0c-0.1-1.1-1.1-1.6-1.7-1.7
		l0.5,0.3l-0.2-0.3l-0.6-1l-0.6,1.1l-0.2,0.3l0.5-0.4c-0.5,0.1-1.5,0.6-1.6,1.7v0v0.1v0.6l0.1-0.3l-0.3,0.5l-0.1,0.2v0.2v0.5v0.7
		h0.7l-0.7-0.7v0.3l0.7-0.7H90.5h-0.2l-0.2,0.1l-6.8,4.2l0.4-0.1h-6.5h-0.7v0.7v0.6l0.7-0.7h-53H24l-0.2,0.1l-8.1,4.4l-0.4,0.2v0.4
		v13.7h1.5V73.8l-0.4,0.7l8.1-4.4l-0.3,0.1h53h0.7v-0.7v-0.6l-0.7,0.7h6.5h0.2l0.2-0.1l6.8-4.2l-0.4,0.1h14.4h0.7v-0.7v-0.3v-0.7
		h-0.7l0.7,0.7v-0.5l-0.1,0.3l0.3-0.5l0.1-0.2v-0.2v-0.6l0,0.1c0-0.3,0.4-0.4,0.4-0.4l0.3-0.1c0,0,0.2-0.3,0.2-0.3l0.2-0.3l-1.3,0
		l0.2,0.3l0.2,0.3l0.3,0.1c0.1,0,0.4,0.1,0.4,0.4v-0.1v0.6v0.2l0.1,0.1l0.3,0.5l-0.1-0.3v0.5l0.7-0.7h-0.1H107v0.7v0.4v0.7h0.7h15
		l-0.4-0.1l6.6,4.2l0.2,0.1h0.2h6.4l-0.7-0.7v0.6v0.7h0.7h52.5L188,70l8.4,4.3l-0.4-0.6v13.7H197.4z"/>
	<polygon class="st0" points="133.3,94.1 110.9,94.1 110.9,97.2 120.3,97.2 120.3,120.1 124,120.1 124,97.2 133.3,97.2 	"/>
	<path class="st0" d="M140,115.3c-0.8,0.7-1.6,1.2-2.5,1.6c-0.9,0.4-1.9,0.7-3,0.7c-1.3,0-2.3-0.3-3-0.9c-0.6-0.6-1-1.4-1-2.5
		c0-1,0.3-1.7,0.9-2.3c0.6-0.5,1.4-1,2.3-1.2c0.8-0.2,1.8-0.4,3.1-0.5c1.2-0.1,2.3-0.2,3.1-0.3V115.3z M141.3,101.6
		c-0.8-0.5-1.7-0.9-2.6-1.1c-1-0.2-2.2-0.3-3.6-0.3c-1.2,0-2.4,0.1-3.6,0.3c-1.2,0.2-2.1,0.4-2.8,0.6v3.3h0.2c1.1-0.4,2.2-0.8,3.3-1
		c1.1-0.2,2-0.3,2.8-0.3c0.7,0,1.3,0.1,2,0.1c0.6,0.1,1.2,0.3,1.6,0.5c0.5,0.3,0.8,0.6,1.1,1.1c0.2,0.5,0.4,1.1,0.4,1.9v0.6
		c-1.8,0.1-3.5,0.2-5.1,0.4c-1.6,0.2-3,0.5-4.1,1.1c-1.3,0.5-2.3,1.3-2.9,2.2c-0.6,1-0.9,2.1-0.9,3.5c0,0.9,0.2,1.7,0.5,2.5
		c0.3,0.8,0.8,1.4,1.3,2c0.6,0.5,1.3,1,2,1.3c0.8,0.3,1.6,0.5,2.4,0.5c1.1,0,1.9-0.1,2.4-0.3c0.6-0.1,1.2-0.4,1.8-0.7
		c0.4-0.2,0.9-0.5,1.4-0.9c0.5-0.3,0.9-0.6,1.1-0.8v2.1h3.5v-13.3c0-1.2-0.2-2.2-0.6-3.1C142.6,102.8,142,102.1,141.3,101.6"/>
	<rect x="146.7" y="100.6" class="st0" width="3.5" height="19.5"/>
	<rect x="146.4" y="94" class="st0" width="4" height="3.4"/>
	<path class="st0" d="M165.7,115.7c-1,1.2-2.4,1.9-4.2,1.9c-0.9,0-1.6-0.1-2.3-0.2c-0.7-0.1-1.5-0.4-2.4-0.9v-11
		c0.8-0.6,1.7-1.2,2.6-1.6c0.9-0.4,1.9-0.6,2.9-0.6c1.7,0,2.9,0.6,3.7,1.8c0.8,1.2,1.1,3,1.1,5.2
		C167.2,112.6,166.7,114.4,165.7,115.7 M163.2,100c-1.2,0-2.4,0.3-3.5,0.7c-1.1,0.5-2,1.1-2.9,1.8v-2h-3.5v26.6h3.5v-8.1
		c0.8,0.5,1.6,0.8,2.4,1c0.8,0.2,1.7,0.3,2.8,0.3c2.5,0,4.6-1,6.3-2.9c1.6-2,2.5-4.5,2.5-7.8c0-3-0.7-5.4-2-7.1
		C167.5,100.9,165.6,100,163.2,100"/>
	<path class="st0" d="M176.7,108.2c0.1-0.8,0.3-1.6,0.5-2.2c0.3-0.6,0.7-1.2,1.2-1.7c0.5-0.5,1.1-0.9,1.8-1.1
		c0.7-0.3,1.4-0.4,2.4-0.4c0.9,0,1.7,0.1,2.4,0.4c0.6,0.3,1.2,0.6,1.6,1.1c0.4,0.5,0.7,1,0.9,1.6c0.2,0.6,0.3,1.4,0.3,2.3H176.7z
		 M188.8,102.2c-0.7-0.7-1.6-1.3-2.6-1.6c-1-0.3-2.2-0.5-3.4-0.5c-2.9,0-5.2,0.9-7,2.8c-1.8,1.9-2.7,4.4-2.7,7.6
		c0,3.2,0.9,5.7,2.8,7.5c1.8,1.8,4.4,2.6,7.7,2.6c0.9,0,1.6-0.1,2.1-0.2c0.6-0.1,1.2-0.2,1.9-0.4c0.5-0.1,1-0.3,1.6-0.5
		c0.6-0.2,1.1-0.4,1.5-0.6v-3.6h-0.2c-0.3,0.2-0.6,0.5-1.1,0.7c-0.4,0.2-1,0.5-1.6,0.8c-0.6,0.3-1.3,0.5-2,0.6
		c-0.7,0.2-1.5,0.3-2.2,0.3c-2.2,0-3.8-0.6-5.1-1.8c-1.2-1.2-1.8-3-1.8-5.2h14.4v-1.8c0-1.6-0.2-2.9-0.6-4
		C190.1,103.9,189.6,103,188.8,102.2"/>
	<rect x="193.5" y="94" class="st0" width="4" height="3.4"/>
	<rect x="193.7" y="100.6" class="st0" width="3.5" height="19.5"/>
	<rect x="21.1" y="75.8" class="st0" width="1.3" height="3.9"/>
	<rect x="23.1" y="75.8" class="st0" width="1.3" height="3.9"/>
	<rect x="25" y="75.8" class="st0" width="1.3" height="3.9"/>
	<path class="st0" d="M35.8,76.3c-0.4-0.4-1.3-0.4-1.3-0.4c-0.9,0-1.4,0.4-1.4,0.4v3.4h-0.2v0.6h3.2v-0.7h-0.2V76.3z"/>
	<path class="st0" d="M33.1,81.8v3.4l2.7,0l0-3.4c-0.4-0.4-1.3-0.4-1.3-0.4C33.6,81.3,33.1,81.8,33.1,81.8"/>
	<path class="st0" d="M39.6,76.3c-0.4-0.4-1.3-0.4-1.3-0.4c-0.9,0-1.4,0.4-1.4,0.4v3.4h-0.2v0.6h3.2v-0.7h-0.2V76.3z"/>
	<path class="st0" d="M36.8,81.8v3.4l2.7,0l0-3.4c-0.4-0.4-1.3-0.4-1.3-0.4C37.4,81.3,36.8,81.8,36.8,81.8"/>
	<path class="st0" d="M43.3,76.3c-0.4-0.4-1.3-0.4-1.3-0.4c-0.9,0-1.4,0.4-1.4,0.4v3.4h-0.2v0.6h3.2v-0.7h-0.2V76.3z"/>
	<path class="st0" d="M40.5,81.8v3.4l2.7,0l0-3.4c-0.4-0.4-1.3-0.4-1.3-0.4C41.1,81.3,40.5,81.8,40.5,81.8"/>
	<path class="st0" d="M61.8,76.3c-0.4-0.4-1.3-0.4-1.3-0.4c-0.9,0-1.4,0.4-1.4,0.4v3.4h-0.2v0.6H62v-0.7h-0.2V76.3z"/>
	<path class="st0" d="M59,81.8v3.4l2.7,0v-3.4c-0.4-0.4-1.3-0.4-1.3-0.4C59.6,81.3,59,81.8,59,81.8"/>
	<path class="st0" d="M65.5,76.3c-0.4-0.4-1.3-0.4-1.3-0.4c-0.9,0-1.4,0.4-1.4,0.4v3.4h-0.2v0.6h3.2v-0.7h-0.2V76.3z"/>
	<path class="st0" d="M62.8,81.8v3.4l2.8,0v-3.4c-0.4-0.4-1.3-0.4-1.3-0.4C63.3,81.3,62.8,81.8,62.8,81.8"/>
	<path class="st0" d="M69.3,76.3c-0.4-0.4-1.3-0.4-1.3-0.4c-0.9,0-1.4,0.4-1.4,0.4v3.4h-0.2v0.6h3.2v-0.7h-0.2V76.3z"/>
	<path class="st0" d="M66.5,81.8v3.4l2.7,0v-3.4c-0.4-0.4-1.3-0.4-1.3-0.4C67.1,81.3,66.5,81.8,66.5,81.8"/>
	<path class="st0" d="M48.9,76.3c-0.4-0.4-1.3-0.4-1.3-0.4c-0.9,0-1.4,0.4-1.4,0.4v3.4h-0.2v0.6h3.2v-0.7h-0.2V76.3z"/>
	<path class="st0" d="M46.2,81.8v3.4l2.7,0l0-3.4c-0.4-0.4-1.3-0.4-1.3-0.4C46.7,81.3,46.2,81.8,46.2,81.8"/>
	<path class="st0" d="M52.6,76.3c-0.4-0.4-1.3-0.4-1.3-0.4c-0.9,0-1.4,0.4-1.4,0.4v3.4h-0.2v0.6h3.2v-0.7h-0.2V76.3z"/>
	<path class="st0" d="M49.9,81.8v3.4l2.7,0l0-3.4c-0.4-0.4-1.3-0.4-1.3-0.4C50.4,81.3,49.9,81.8,49.9,81.8"/>
	<path class="st0" d="M56.4,76.3c-0.4-0.4-1.3-0.4-1.3-0.4c-0.9,0-1.5,0.4-1.5,0.4v3.4h-0.2v0.6h3.2v-0.7h-0.2V76.3z"/>
	<path class="st0" d="M53.6,81.8v3.4l2.8,0l0-3.4c-0.4-0.4-1.3-0.4-1.3-0.4C54.2,81.3,53.6,81.8,53.6,81.8"/>
	<path class="st0" d="M180.1,79.7h-0.2v-3.4c0,0-0.6-0.5-1.5-0.4c0,0-0.9,0-1.3,0.4v3.3h-0.2v0.7h3.2V79.7z"/>
	<path class="st0" d="M177.1,85.1l2.7,0v-3.4c0,0-0.6-0.5-1.5-0.4c0,0-0.9,0-1.3,0.4L177.1,85.1z"/>
	<path class="st0" d="M176.3,79.7h-0.2v-3.4c0,0-0.6-0.5-1.5-0.4c0,0-0.9,0-1.3,0.4v3.3h-0.2v0.7h3.2V79.7z"/>
	<path class="st0" d="M173.4,85.1l2.8,0v-3.4c0,0-0.6-0.5-1.5-0.4c0,0-0.9,0-1.3,0.4L173.4,85.1z"/>
	<path class="st0" d="M172.6,79.7h-0.2v-3.4c0,0-0.5-0.5-1.5-0.4c0,0-0.9,0-1.3,0.4v3.3h-0.2v0.7h3.2V79.7z"/>
	<path class="st0" d="M169.6,85.1l2.7,0v-3.4c0,0-0.5-0.5-1.5-0.4c0,0-0.9,0-1.3,0.4L169.6,85.1z"/>
	<path class="st0" d="M154.1,79.7h-0.2v-3.4c0,0-0.5-0.5-1.4-0.4c0,0-0.9,0-1.3,0.4v3.3h-0.2v0.7h3.2V79.7z"/>
	<path class="st0" d="M153.9,81.8c0,0-0.5-0.5-1.4-0.4c0,0-0.9,0-1.3,0.4l0,3.4l2.7,0V81.8z"/>
	<path class="st0" d="M150.1,76.3c0,0-0.6-0.5-1.5-0.4c0,0-0.9,0-1.3,0.4v3.3h-0.2v0.7h3.2v-0.6h-0.2V76.3z"/>
	<path class="st0" d="M147.4,81.8v3.4l2.8,0v-3.4c0,0-0.6-0.5-1.5-0.4C148.7,81.4,147.8,81.4,147.4,81.8"/>
	<path class="st0" d="M146.6,79.7h-0.2v-3.4c0,0-0.6-0.5-1.5-0.4c0,0-0.9,0-1.3,0.4v3.3h-0.2v0.7h3.2V79.7z"/>
	<path class="st0" d="M146.4,81.8c0,0-0.6-0.5-1.5-0.4c0,0-0.9,0-1.3,0.4l0,3.4l2.7,0V81.8z"/>
	<path class="st0" d="M167,79.7h-0.2v-3.4c0,0-0.5-0.5-1.4-0.4c0,0-0.9,0-1.3,0.4v3.3h-0.2v0.7h3.2V79.7z"/>
	<path class="st0" d="M164,85.1l2.7,0v-3.4c0,0-0.5-0.5-1.4-0.4c0,0-0.9,0-1.3,0.4L164,85.1z"/>
	<path class="st0" d="M163.2,79.7H163v-3.4c0,0-0.5-0.5-1.4-0.4c0,0-0.9,0-1.3,0.4v3.3H160v0.7h3.2V79.7z"/>
	<path class="st0" d="M160.3,85.1l2.7,0v-3.4c0,0-0.5-0.5-1.4-0.4c0,0-0.9,0-1.3,0.4L160.3,85.1z"/>
	<path class="st0" d="M159.5,79.7h-0.2v-3.4c0,0-0.5-0.5-1.4-0.4c0,0-0.9,0-1.3,0.4v3.3h-0.2v0.7h3.2V79.7z"/>
	<path class="st0" d="M156.5,85.1l2.7,0v-3.4c0,0-0.5-0.5-1.4-0.4c0,0-0.9,0-1.3,0.4L156.5,85.1z"/>
	<path class="st0" d="M82.4,75c-1.1,0-1.4,0.3-1.4,0.3l0,3.6l2.9,0v-3.6C83.6,75,82.4,75,82.4,75"/>
	<path class="st0" d="M82.4,80.6c-1.1,0-1.4,0.3-1.4,0.3l0,3.7l2.9,0v-3.6C83.6,80.6,82.4,80.6,82.4,80.6"/>
	<path class="st0" d="M86.4,78.9h1.9v1.3h-1.9V78.9z M86.2,85.1h2.5V74.4h-2.5V85.1z"/>
	<path class="st0" d="M90.3,78.9h1.9v1.3h-1.9V78.9z M90,85.1h2.5V74.4H90V85.1z"/>
	<path class="st0" d="M94.2,78.9h1.9v1.3h-1.9V78.9z M93.9,85.1h2.5V74.3h-2.5V85.1z"/>
	<path class="st0" d="M97.9,78.9h1.9v1.3h-1.9V78.9z M97.7,85.1h2.5V74.4h-2.5V85.1z"/>
	<path class="st0" d="M113.1,78.9h1.9v1.3h-1.9V78.9z M112.8,85.1h2.5V74.4h-2.5V85.1z"/>
	<path class="st0" d="M117,78.9h1.9v1.3H117V78.9z M116.7,85.1h2.5V74.4h-2.5V85.1z"/>
	<path class="st0" d="M120.8,78.9h1.9v1.3h-1.9V78.9z M120.5,85.1h2.5V74.3h-2.5V85.1z"/>
	<path class="st0" d="M124.6,78.9h1.9v1.3h-1.9V78.9z M124.3,85.1h2.5V74.4h-2.5V85.1z"/>
	<path class="st0" d="M132,75.3c0,0-0.3-0.3-1.4-0.3c0,0-1.2,0-1.5,0.3v3.6l2.9,0V75.3z"/>
	<path class="st0" d="M132,80.9c0,0-0.3-0.2-1.4-0.3c0,0-1.2,0-1.5,0.3v3.6l2.9,0V80.9z"/>
	<polygon class="st0" points="111.6,79.5 110.7,79.5 110.7,74.4 102.1,74.4 102.1,79.5 101.3,79.5 101.3,79.9 111.6,79.9 	"/>
	<path class="st0" d="M77.3,75.8c-0.4-0.4-1.3-0.4-1.3-0.4c-0.9,0-1.5,0.4-1.5,0.4v8.2h-0.2v0.6h3.2v-0.7h-0.2V75.8z"/>
	<path class="st0" d="M138.6,83.9h-0.2v-8.1c-0.4-0.4-1.3-0.4-1.3-0.4c-0.9,0-1.4,0.4-1.4,0.4v8.2h-0.2v0.6h3.2V83.9z"/>
	<path class="st0" d="M110.4,83c-0.9-1.2-2.3-2-3.9-2c-1.6,0-3.1,0.8-3.9,2v-2.1h7.9V83z M109.5,85.2h-6.2v-2.2
		c0.8-0.8,1.9-1.4,3.1-1.4c1.2,0,2.4,0.6,3.1,1.4V85.2z M111.6,80.5h-10.3v5.2h10.3V80.5z"/>
	<path class="st0" d="M21.6,81.5h4.1v3.6h-4.1V81.5z M20.2,80.3L20.2,80.3l-0.1,1.2h0.1h0.2v4.2H27v-4.2h0.3v-1.2H20.2L20.2,80.3z"
		/>
	<path class="st0" d="M190.9,85.1h-4.2v-3.6h4.2V85.1z M192.4,80.3L192.4,80.3h-7.1v0.8v0.4h0.2v4.2h6.6v-4.2h0.3v-0.4h0V80.3z"/>
	<rect x="186.1" y="75.9" class="st0" width="1.3" height="3.9"/>
	<rect x="188.1" y="75.9" class="st0" width="1.3" height="3.9"/>
	<rect x="190.1" y="75.9" class="st0" width="1.3" height="3.9"/>
	<polygon class="st1" points="19.6,102.4 25.5,119.6 28.6,119.6 34.5,102.4 34.5,119.9 39.5,119.9 39.5,94.3 33.4,94.3 27.3,112.7 
		20.9,94.3 14.9,94.3 14.9,119.9 19.6,119.9 	"/>
	<path class="st1" d="M53.6,97.8c0,0,8.2-0.8,8,9.3c0,0,0.7,9.4-7.4,9.4c0,0-8,1-7.9-9.1C46.3,107.3,45.5,97.9,53.6,97.8
		 M54.1,120.6c13.1-0.1,12.7-12.9,12.7-12.9c0.5-14.4-12.6-14-12.6-14c-13.7,0.2-13,13.3-13,13.3C41.3,121.5,54.1,120.6,54.1,120.6"
		/>
	<path class="st1" d="M76.8,94.4c0,0-10.1,2.4-8.2,16.1c0,0,1.5,12,16,9.7c0,0,2.5-0.5,4.2-1.3l1.6-0.8v-6.5c0,0-1.6,2.9-5.1,4
		c0,0-5,2-8.6-0.7c0,0-4.9-2.7-2.8-11.8c0,0,1.1-5.8,8.5-5.2c0,0,4,0,8,4.2V96C90.5,96,84.1,92.3,76.8,94.4"/>
	<path class="st1" d="M101.3,109l3.3-8.9l3.4,8.9H101.3z M107.4,94.2h-5.4L92.2,120h5.1l2.6-6.8h9.5l2.5,6.8h5.3L107.4,94.2z"/>
	<path class="st0" d="M197.4,87.4V73.7v-0.4L197,73l-8.3-4.3l-0.2-0.1h-0.2h-52.5l0.7,0.7v-0.6V68h-0.7h-6.4l0.4,0.1l-6.6-4.2
		l-0.2-0.1h-0.2h-15l0.7,0.7v-0.4l-0.7,0.7h0.1h0.7v-0.7v-0.5v-0.2l-0.1-0.1l-0.2-0.5l0.1,0.3v-0.6v-0.1v0c-0.1-1.1-1.1-1.6-1.7-1.6
		l0.5,0.3l-0.2-0.3l-0.6-1l-0.6,1l-0.2,0.3l0.5-0.3c-0.5,0.1-1.5,0.5-1.6,1.6v0v0.1v0.6l0.1-0.3l-0.3,0.5l-0.1,0.2v0.2v0.5v0.7h0.7
		l-0.7-0.7v0.3l0.7-0.7H90.5h-0.2l-0.2,0.1l-6.8,4.2l0.4-0.1h-6.5h-0.7v0.7v0.6l0.7-0.7h-53H24l-0.2,0.1l-8.1,4.4l-0.4,0.2v0.4v13.7
		h1.5V73.8l-0.4,0.7l8.1-4.4l-0.3,0.1h53h0.7v-0.7v-0.6l-0.7,0.7h6.5h0.2l0.2-0.1l6.8-4.3l-0.4,0.1h14.4h0.7v-0.7v-0.3v-0.7h-0.7
		l0.7,0.7v-0.5l-0.1,0.3l0.3-0.5l0.1-0.1v-0.2v-0.6l0,0.1c0-0.3,0.4-0.4,0.4-0.4l0.3-0.1c0,0,0.2-0.3,0.2-0.3l0.2-0.3h-1.3l0.2,0.3
		l0.2,0.3l0.3,0.1c0.1,0,0.4,0.1,0.4,0.4v-0.1v0.6v0.2l0.1,0.1l0.3,0.5l-0.1-0.3v0.5l0.7-0.7h-0.1H107v0.7v0.4v0.7h0.7h15l-0.4-0.1
		l6.6,4.2l0.2,0.1h0.2h6.4l-0.7-0.7v0.6v0.7h0.7h52.5L188,70l8.3,4.3l-0.4-0.6v13.7H197.4z"/>
	<polygon class="st0" points="133.3,94.1 110.9,94.1 110.9,97.2 120.3,97.2 120.3,120.1 124,120.1 124,97.2 133.3,97.2 	"/>
	<path class="st0" d="M140,115.3c-0.8,0.7-1.6,1.2-2.5,1.6c-0.9,0.4-1.9,0.7-3,0.7c-1.3,0-2.3-0.3-3-0.9c-0.6-0.6-1-1.4-1-2.5
		c0-1,0.3-1.7,0.9-2.3c0.6-0.5,1.4-1,2.3-1.2c0.8-0.2,1.8-0.4,3.1-0.5c1.2-0.1,2.3-0.2,3.1-0.3V115.3z M141.3,101.6
		c-0.8-0.5-1.7-0.9-2.6-1.1c-1-0.2-2.2-0.3-3.6-0.3c-1.2,0-2.4,0.1-3.6,0.3c-1.2,0.2-2.1,0.4-2.8,0.6v3.3h0.2c1.1-0.4,2.2-0.8,3.3-1
		c1.1-0.2,2-0.3,2.8-0.3c0.7,0,1.3,0.1,2,0.1c0.6,0.1,1.2,0.3,1.6,0.5c0.5,0.3,0.8,0.6,1.1,1.1c0.2,0.5,0.4,1.1,0.4,1.9v0.6
		c-1.8,0.1-3.5,0.2-5.1,0.4c-1.6,0.2-3,0.5-4.1,1.1c-1.3,0.5-2.3,1.3-2.9,2.2c-0.6,1-0.9,2.1-0.9,3.5c0,0.9,0.2,1.7,0.5,2.5
		c0.3,0.8,0.8,1.4,1.3,2c0.6,0.5,1.3,1,2,1.3c0.8,0.3,1.6,0.5,2.4,0.5c1.1,0,1.9-0.1,2.4-0.3c0.6-0.1,1.2-0.4,1.8-0.7
		c0.4-0.2,0.9-0.5,1.4-0.9c0.5-0.3,0.9-0.6,1.1-0.8v2.1h3.5v-13.3c0-1.2-0.2-2.2-0.6-3.1C142.6,102.8,142,102.1,141.3,101.6"/>
	<rect x="146.7" y="100.6" class="st0" width="3.5" height="19.5"/>
	<rect x="146.4" y="94" class="st0" width="4" height="3.4"/>
	<path class="st0" d="M165.7,115.7c-1,1.2-2.4,1.9-4.2,1.9c-0.9,0-1.6-0.1-2.3-0.2c-0.7-0.1-1.5-0.4-2.4-0.9v-11
		c0.8-0.6,1.7-1.2,2.6-1.6c0.9-0.4,1.9-0.6,2.9-0.6c1.7,0,2.9,0.6,3.7,1.8c0.8,1.2,1.1,3,1.1,5.2
		C167.2,112.6,166.7,114.4,165.7,115.7 M163.2,100c-1.2,0-2.4,0.3-3.5,0.7c-1.1,0.5-2,1.1-2.9,1.8v-2h-3.5v26.6h3.5v-8.1
		c0.8,0.5,1.6,0.8,2.4,1c0.8,0.2,1.7,0.3,2.8,0.3c2.5,0,4.6-1,6.3-2.9c1.6-2,2.5-4.5,2.5-7.8c0-3-0.7-5.4-2-7.1
		C167.5,100.9,165.6,100,163.2,100"/>
	<path class="st0" d="M176.7,108.2c0.1-0.8,0.3-1.6,0.5-2.2c0.3-0.6,0.7-1.2,1.2-1.7c0.5-0.5,1.1-0.9,1.8-1.1
		c0.7-0.3,1.4-0.4,2.4-0.4c0.9,0,1.7,0.1,2.4,0.4c0.6,0.3,1.2,0.6,1.6,1.1c0.4,0.5,0.7,1,0.9,1.6c0.2,0.6,0.3,1.4,0.3,2.3H176.7z
		 M188.8,102.2c-0.7-0.7-1.6-1.3-2.6-1.6c-1-0.3-2.2-0.5-3.4-0.5c-2.9,0-5.2,0.9-7,2.8c-1.8,1.9-2.7,4.4-2.7,7.6
		c0,3.2,0.9,5.7,2.8,7.5c1.8,1.8,4.4,2.6,7.7,2.6c0.9,0,1.6-0.1,2.1-0.2c0.6-0.1,1.2-0.2,1.9-0.4c0.5-0.1,1-0.3,1.6-0.5
		c0.6-0.2,1.1-0.4,1.5-0.6v-3.6h-0.2c-0.3,0.2-0.6,0.5-1.1,0.7c-0.4,0.2-1,0.5-1.6,0.8c-0.6,0.3-1.3,0.5-2,0.6
		c-0.7,0.2-1.5,0.3-2.2,0.3c-2.2,0-3.8-0.6-5.1-1.8c-1.2-1.2-1.8-3-1.8-5.2h14.4v-1.8c0-1.6-0.2-2.9-0.6-4
		C190.1,103.9,189.6,103,188.8,102.2"/>
	<rect x="193.5" y="94" class="st0" width="4" height="3.4"/>
	<rect x="193.7" y="100.6" class="st0" width="3.5" height="19.5"/>
	<rect x="21.1" y="75.8" class="st0" width="1.3" height="3.9"/>
	<rect x="23.1" y="75.8" class="st0" width="1.3" height="3.9"/>
	<rect x="25" y="75.8" class="st0" width="1.3" height="3.9"/>
	<path class="st0" d="M35.8,76.3c-0.4-0.4-1.3-0.4-1.3-0.4c-0.9,0-1.4,0.4-1.4,0.4v3.4h-0.2v0.6h3.2v-0.7h-0.2V76.3z"/>
	<path class="st0" d="M33.1,81.8v3.4l2.7,0l0-3.4c-0.4-0.4-1.3-0.4-1.3-0.4C33.6,81.3,33.1,81.8,33.1,81.8"/>
	<path class="st0" d="M39.6,76.3c-0.4-0.4-1.3-0.4-1.3-0.4c-0.9,0-1.4,0.4-1.4,0.4v3.4h-0.2v0.6h3.2v-0.7h-0.2V76.3z"/>
	<path class="st0" d="M36.8,81.8v3.4l2.7,0l0-3.4c-0.4-0.4-1.3-0.4-1.3-0.4C37.4,81.3,36.8,81.8,36.8,81.8"/>
	<path class="st0" d="M43.3,76.3c-0.4-0.4-1.3-0.4-1.3-0.4c-0.9,0-1.4,0.4-1.4,0.4v3.4h-0.2v0.6h3.2v-0.7h-0.2V76.3z"/>
	<path class="st0" d="M40.5,81.8v3.4l2.7,0l0-3.4c-0.4-0.4-1.3-0.4-1.3-0.4C41.1,81.3,40.5,81.8,40.5,81.8"/>
	<path class="st0" d="M61.8,76.3c-0.4-0.4-1.3-0.4-1.3-0.4c-0.9,0-1.4,0.4-1.4,0.4v3.4h-0.2v0.6H62v-0.7h-0.2V76.3z"/>
	<path class="st0" d="M59,81.8v3.4l2.7,0v-3.4c-0.4-0.4-1.3-0.4-1.3-0.4C59.6,81.3,59,81.8,59,81.8"/>
	<path class="st0" d="M65.5,76.3c-0.4-0.4-1.3-0.4-1.3-0.4c-0.9,0-1.4,0.4-1.4,0.4v3.4h-0.2v0.6h3.2v-0.7h-0.2V76.3z"/>
	<path class="st0" d="M62.8,81.8v3.4l2.8,0v-3.4c-0.4-0.4-1.3-0.4-1.3-0.4C63.3,81.3,62.8,81.8,62.8,81.8"/>
	<path class="st0" d="M69.3,76.3c-0.4-0.4-1.3-0.4-1.3-0.4c-0.9,0-1.4,0.4-1.4,0.4v3.4h-0.2v0.6h3.2v-0.7h-0.2V76.3z"/>
	<path class="st0" d="M66.5,81.8v3.4l2.7,0v-3.4c-0.4-0.4-1.3-0.4-1.3-0.4C67.1,81.3,66.5,81.8,66.5,81.8"/>
	<path class="st0" d="M48.9,76.3c-0.4-0.4-1.3-0.4-1.3-0.4c-0.9,0-1.4,0.4-1.4,0.4v3.4h-0.2v0.6h3.2v-0.7h-0.2V76.3z"/>
	<path class="st0" d="M46.2,81.8v3.4l2.7,0l0-3.4c-0.4-0.4-1.3-0.4-1.3-0.4C46.7,81.3,46.2,81.8,46.2,81.8"/>
	<path class="st0" d="M52.6,76.3c-0.4-0.4-1.3-0.4-1.3-0.4c-0.9,0-1.4,0.4-1.4,0.4v3.4h-0.2v0.6h3.2v-0.7h-0.2V76.3z"/>
	<path class="st0" d="M49.9,81.8v3.4l2.7,0l0-3.4c-0.4-0.4-1.3-0.4-1.3-0.4C50.4,81.3,49.9,81.8,49.9,81.8"/>
	<path class="st0" d="M56.4,76.3c-0.4-0.4-1.3-0.4-1.3-0.4c-0.9,0-1.5,0.4-1.5,0.4v3.4h-0.2v0.6h3.2v-0.7h-0.2V76.3z"/>
	<path class="st0" d="M53.6,81.8v3.4l2.8,0l0-3.4c-0.4-0.4-1.3-0.4-1.3-0.4C54.2,81.3,53.6,81.8,53.6,81.8"/>
	<path class="st0" d="M180.1,79.7h-0.2v-3.4c0,0-0.6-0.5-1.5-0.4c0,0-0.9,0-1.3,0.4v3.3h-0.2v0.7h3.2V79.7z"/>
	<path class="st0" d="M177.1,85.1l2.7,0v-3.4c0,0-0.6-0.5-1.5-0.4c0,0-0.9,0-1.3,0.4L177.1,85.1z"/>
	<path class="st0" d="M176.3,79.7h-0.2v-3.4c0,0-0.6-0.5-1.5-0.4c0,0-0.9,0-1.3,0.4v3.3h-0.2v0.7h3.2V79.7z"/>
	<path class="st0" d="M173.4,85.1l2.8,0v-3.4c0,0-0.6-0.5-1.5-0.4c0,0-0.9,0-1.3,0.4L173.4,85.1z"/>
	<path class="st0" d="M172.6,79.7h-0.2v-3.4c0,0-0.5-0.5-1.5-0.4c0,0-0.9,0-1.3,0.4v3.3h-0.2v0.7h3.2V79.7z"/>
	<path class="st0" d="M169.6,85.1l2.7,0v-3.4c0,0-0.5-0.5-1.5-0.4c0,0-0.9,0-1.3,0.4L169.6,85.1z"/>
	<path class="st0" d="M154.1,79.7h-0.2v-3.4c0,0-0.5-0.5-1.4-0.4c0,0-0.9,0-1.3,0.4v3.3h-0.2v0.7h3.2V79.7z"/>
	<path class="st0" d="M153.9,81.8c0,0-0.5-0.5-1.4-0.4c0,0-0.9,0-1.3,0.4l0,3.4l2.7,0V81.8z"/>
	<path class="st0" d="M150.1,76.3c0,0-0.6-0.5-1.5-0.4c0,0-0.9,0-1.3,0.4v3.3h-0.2v0.7h3.2v-0.6h-0.2V76.3z"/>
	<path class="st0" d="M147.4,81.8v3.4l2.8,0v-3.4c0,0-0.6-0.5-1.5-0.4C148.7,81.4,147.8,81.4,147.4,81.8"/>
	<path class="st0" d="M146.6,79.7h-0.2v-3.4c0,0-0.6-0.5-1.5-0.4c0,0-0.9,0-1.3,0.4v3.3h-0.2v0.7h3.2V79.7z"/>
	<path class="st0" d="M146.4,81.8c0,0-0.6-0.5-1.5-0.4c0,0-0.9,0-1.3,0.4l0,3.4l2.7,0V81.8z"/>
	<path class="st0" d="M167,79.7h-0.2v-3.4c0,0-0.5-0.5-1.4-0.4c0,0-0.9,0-1.3,0.4v3.3h-0.2v0.7h3.2V79.7z"/>
	<path class="st0" d="M164,85.1l2.7,0v-3.4c0,0-0.5-0.5-1.4-0.4c0,0-0.9,0-1.3,0.4L164,85.1z"/>
	<path class="st0" d="M163.2,79.7H163v-3.4c0,0-0.5-0.5-1.4-0.4c0,0-0.9,0-1.3,0.4v3.3H160v0.7h3.2V79.7z"/>
	<path class="st0" d="M160.3,85.1l2.7,0v-3.4c0,0-0.5-0.5-1.4-0.4c0,0-0.9,0-1.3,0.4L160.3,85.1z"/>
	<path class="st0" d="M159.5,79.7h-0.2v-3.4c0,0-0.5-0.5-1.4-0.4c0,0-0.9,0-1.3,0.4v3.3h-0.2v0.7h3.2V79.7z"/>
	<path class="st0" d="M156.5,85.1l2.7,0v-3.4c0,0-0.5-0.5-1.4-0.4c0,0-0.9,0-1.3,0.4L156.5,85.1z"/>
	<path class="st0" d="M82.4,75c-1.1,0-1.4,0.3-1.4,0.3l0,3.6l2.9,0v-3.6C83.6,75,82.4,75,82.4,75"/>
	<path class="st0" d="M82.4,80.6c-1.1,0-1.4,0.3-1.4,0.3l0,3.7l2.9,0v-3.6C83.6,80.6,82.4,80.6,82.4,80.6"/>
	<path class="st0" d="M86.4,78.9h1.9v1.3h-1.9V78.9z M86.2,85.1h2.5V74.4h-2.5V85.1z"/>
	<path class="st0" d="M90.3,78.9h1.9v1.3h-1.9V78.9z M90,85.1h2.5V74.4H90V85.1z"/>
	<path class="st0" d="M94.2,78.9h1.9v1.3h-1.9V78.9z M93.9,85.1h2.5V74.3h-2.5V85.1z"/>
	<path class="st0" d="M97.9,78.9h1.9v1.3h-1.9V78.9z M97.7,85.1h2.5V74.4h-2.5V85.1z"/>
	<path class="st0" d="M113.1,78.9h1.9v1.3h-1.9V78.9z M112.8,85.1h2.5V74.4h-2.5V85.1z"/>
	<path class="st0" d="M117,78.9h1.9v1.3H117V78.9z M116.7,85.1h2.5V74.4h-2.5V85.1z"/>
	<path class="st0" d="M120.8,78.9h1.9v1.3h-1.9V78.9z M120.5,85.1h2.5V74.3h-2.5V85.1z"/>
	<path class="st0" d="M124.6,78.9h1.9v1.3h-1.9V78.9z M124.3,85.1h2.5V74.4h-2.5V85.1z"/>
	<path class="st0" d="M132,75.3c0,0-0.3-0.3-1.4-0.3c0,0-1.2,0-1.5,0.3v3.6l2.9,0V75.3z"/>
	<path class="st0" d="M132,80.9c0,0-0.3-0.2-1.4-0.3c0,0-1.2,0-1.5,0.3v3.6l2.9,0V80.9z"/>
	<polygon class="st0" points="111.6,79.5 110.7,79.5 110.7,74.4 102.1,74.4 102.1,79.5 101.3,79.5 101.3,79.9 111.6,79.9 	"/>
	<path class="st0" d="M77.3,75.8c-0.4-0.4-1.3-0.4-1.3-0.4c-0.9,0-1.5,0.4-1.5,0.4v8.2h-0.2v0.6h3.2v-0.7h-0.2V75.8z"/>
	<path class="st0" d="M138.6,83.9h-0.2v-8.1c-0.4-0.4-1.3-0.4-1.3-0.4c-0.9,0-1.4,0.4-1.4,0.4v8.2h-0.2v0.6h3.2V83.9z"/>
	<path class="st0" d="M110.4,83c-0.9-1.2-2.3-2-3.9-2c-1.6,0-3.1,0.8-3.9,2v-2.1h7.9V83z M109.5,85.2h-6.2v-2.2
		c0.8-0.8,1.9-1.4,3.1-1.4c1.2,0,2.4,0.6,3.1,1.4V85.2z M111.6,80.5h-10.3v5.2h10.3V80.5z"/>
	<path class="st0" d="M21.6,81.5h4.1v3.6h-4.1V81.5z M20.2,80.3L20.2,80.3l-0.1,1.2h0.1h0.2v4.2H27v-4.2h0.3v-1.2H20.2L20.2,80.3z"
		/>
	<path class="st0" d="M190.9,85.1h-4.2v-3.6h4.2V85.1z M192.4,80.3L192.4,80.3h-7.1v0.8v0.4h0.2v4.2h6.6v-4.2h0.3v-0.4h0V80.3z"/>
	<rect x="186.1" y="75.9" class="st0" width="1.3" height="3.9"/>
	<rect x="188.1" y="75.9" class="st0" width="1.3" height="3.9"/>
	<rect x="190.1" y="75.9" class="st0" width="1.3" height="3.9"/>
</g>
<g>
	<polygon points="714.7,-170 669.4,-170 669.4,-163.7 688.3,-163.7 688.3,-117.5 695.8,-117.5 695.8,-163.7 714.7,-163.7 	"/>
	<path d="M728.1-127.1c-1.6,1.3-3.3,2.4-5.1,3.3c-1.8,0.9-3.8,1.3-6,1.3c-2.7,0-4.6-0.6-6-1.7c-1.3-1.1-2-2.8-2-5.1
		c0-2,0.6-3.5,1.8-4.7c1.2-1.1,2.8-1.9,4.7-2.4c1.6-0.5,3.6-0.8,6.2-1c2.5-0.3,4.6-0.5,6.3-0.6V-127.1z M730.7-154.8
		c-1.6-1.1-3.4-1.9-5.3-2.3c-2-0.4-4.4-0.6-7.3-0.6c-2.4,0-4.8,0.2-7.2,0.6c-2.5,0.4-4.3,0.8-5.6,1.2v6.7h0.4c2.2-0.8,4.4-1.6,6.6-2
		c2.2-0.5,4.1-0.7,5.7-0.7c1.4,0,2.7,0.1,4,0.3c1.3,0.2,2.4,0.5,3.3,1.1c0.9,0.5,1.7,1.2,2.1,2.2c0.5,1,0.7,2.2,0.7,3.8v1.3
		c-3.7,0.2-7.1,0.4-10.4,0.8c-3.2,0.4-6,1.1-8.3,2.1c-2.7,1.1-4.6,2.7-5.8,4.5c-1.3,1.9-1.9,4.3-1.9,7c0,1.7,0.4,3.4,1,5
		c0.6,1.6,1.6,2.9,2.7,4c1.2,1.1,2.5,1.9,4.1,2.6c1.6,0.6,3.2,0.9,4.9,0.9c2.1,0,3.8-0.2,4.9-0.5c1.2-0.3,2.4-0.8,3.7-1.4
		c0.8-0.4,1.8-1,2.7-1.7c1-0.7,1.7-1.3,2.3-1.7v4.2h7.1v-26.9c0-2.5-0.3-4.5-1.1-6.2C733.5-152.4,732.3-153.7,730.7-154.8"/>
	<rect x="741.7" y="-156.8" width="7.1" height="39.4"/>
	<rect x="741.2" y="-170.3" width="8.1" height="6.9"/>
	<path d="M780.2-126.4c-2,2.5-4.9,3.8-8.6,3.8c-1.7,0-3.2-0.2-4.6-0.5c-1.3-0.3-2.9-0.9-4.8-1.7v-22.3c1.7-1.3,3.5-2.4,5.3-3.3
		c1.9-0.8,3.9-1.2,5.9-1.2c3.4,0,5.9,1.2,7.5,3.7c1.6,2.5,2.3,6,2.3,10.5C783.2-132.7,782.2-128.9,780.2-126.4 M775.2-158
		c-2.5,0-4.8,0.5-7,1.5c-2.2,1-4.1,2.2-5.9,3.7v-4.1h-7.2v53.9h7.2v-16.4c1.7,0.9,3.3,1.6,4.9,2.1c1.7,0.4,3.5,0.7,5.6,0.7
		c5.1,0,9.4-2,12.7-5.8c3.3-4,5-9.1,5-15.7c0-6-1.4-10.8-4.1-14.4C783.8-156.2,780-158,775.2-158"/>
	<path d="M802.3-141.6c0.2-1.7,0.5-3.1,1.1-4.4c0.6-1.2,1.4-2.4,2.4-3.5c1.1-1,2.3-1.7,3.6-2.3c1.3-0.5,2.9-0.8,4.8-0.8
		c1.9,0,3.5,0.3,4.8,0.8c1.3,0.5,2.4,1.3,3.2,2.2c0.8,0.9,1.3,2,1.8,3.3c0.4,1.3,0.6,2.9,0.7,4.6H802.3z M826.9-153.6
		c-1.5-1.5-3.3-2.6-5.3-3.3c-2.1-0.7-4.4-1.1-7-1.1c-5.8,0-10.5,1.9-14.1,5.7c-3.6,3.8-5.4,8.9-5.4,15.3c0,6.5,1.8,11.5,5.6,15.1
		c3.7,3.6,8.9,5.3,15.6,5.3c1.7,0,3.1-0.1,4.2-0.3c1.1-0.2,2.4-0.4,3.8-0.8c1-0.3,2.1-0.6,3.3-1.1c1.2-0.5,2.3-0.8,3.1-1.2v-7.2
		h-0.4c-0.6,0.5-1.3,1-2.2,1.5c-0.8,0.5-1.9,1-3.2,1.5c-1.2,0.5-2.6,1-4.1,1.3c-1.5,0.3-3,0.5-4.5,0.5c-4.3,0-7.8-1.2-10.2-3.6
		c-2.5-2.4-3.7-6-3.7-10.5h29.2v-3.6c0-3.2-0.4-5.8-1.2-8C829.5-150.3,828.3-152.1,826.9-153.6"/>
	<rect x="836.4" y="-170.3" width="8.1" height="6.9"/>
	<rect x="836.8" y="-156.8" width="7.1" height="39.4"/>
	<polygon class="st1" points="484.9,-153.1 496.7,-118.5 503.2,-118.5 515,-153.1 515,-117.9 525.1,-117.9 525.1,-169.5 
		512.8,-169.5 500.4,-132.4 487.6,-169.5 475.5,-169.5 475.5,-117.9 484.9,-117.9 	"/>
	<path class="st1" d="M553.7-162.6c0,0,16.6-1.5,16.1,18.7c0,0,1.4,18.9-14.9,19.1c0,0-16.1,1.9-16-18.5
		C538.9-143.3,537.3-162.4,553.7-162.6 M554.6-116.5c26.5-0.2,25.7-26.1,25.7-26.1c1-29.1-25.4-28.4-25.4-28.4
		c-27.7,0.4-26.3,26.9-26.3,26.9C528.7-114.5,554.6-116.5,554.6-116.5"/>
	<path class="st1" d="M600.5-169.4c0,0-20.5,4.9-16.5,32.6c0,0,3,24.3,32.3,19.5c0,0,5.1-1.1,8.6-2.6l3.3-1.6v-13.1
		c0,0-3.2,5.9-10.3,8c0,0-10.2,4.1-17.4-1.3c0,0-9.8-5.4-5.6-23.9c0,0,2.3-11.8,17.1-10.4c0,0,8.1-0.1,16.1,8.4v-12.3
		C628.2-166.1,615.3-173.6,600.5-169.4"/>
	<path class="st1" d="M649.9-139.8l6.6-18l6.8,18H649.9z M662.2-169.7h-10.9l-19.7,52h10.3l5.2-13.7h19.1l5,13.7h10.6L662.2-169.7z"
		/>
	<polygon points="714.7,-170 669.4,-170 669.4,-163.7 688.3,-163.7 688.3,-117.5 695.8,-117.5 695.8,-163.7 714.7,-163.7 	"/>
	<path d="M728.1-127.1c-1.6,1.3-3.3,2.4-5.1,3.3c-1.8,0.9-3.8,1.3-6,1.3c-2.7,0-4.6-0.6-6-1.7c-1.3-1.1-2-2.8-2-5.1
		c0-2,0.6-3.5,1.8-4.7c1.2-1.1,2.8-1.9,4.7-2.4c1.6-0.5,3.6-0.8,6.2-1c2.5-0.3,4.6-0.5,6.3-0.6V-127.1z M730.7-154.8
		c-1.6-1.1-3.4-1.9-5.3-2.3c-2-0.4-4.4-0.6-7.3-0.6c-2.4,0-4.8,0.2-7.2,0.6c-2.5,0.4-4.3,0.8-5.6,1.2v6.7h0.4c2.2-0.8,4.4-1.6,6.6-2
		c2.2-0.5,4.1-0.7,5.7-0.7c1.4,0,2.7,0.1,4,0.3c1.3,0.2,2.4,0.5,3.3,1.1c0.9,0.5,1.7,1.2,2.1,2.2c0.5,1,0.7,2.2,0.7,3.8v1.3
		c-3.7,0.2-7.1,0.4-10.4,0.8c-3.2,0.4-6,1.1-8.3,2.1c-2.7,1.1-4.6,2.7-5.8,4.5c-1.3,1.9-1.9,4.3-1.9,7c0,1.7,0.4,3.4,1,5
		c0.6,1.6,1.6,2.9,2.7,4c1.2,1.1,2.5,1.9,4.1,2.6c1.6,0.6,3.2,0.9,4.9,0.9c2.1,0,3.8-0.2,4.9-0.5c1.2-0.3,2.4-0.8,3.7-1.4
		c0.8-0.4,1.8-1,2.7-1.7c1-0.7,1.7-1.3,2.3-1.7v4.2h7.1v-26.9c0-2.5-0.3-4.5-1.1-6.2C733.5-152.4,732.3-153.7,730.7-154.8"/>
	<rect x="741.7" y="-156.8" width="7.1" height="39.4"/>
	<rect x="741.2" y="-170.3" width="8.1" height="6.9"/>
	<path d="M780.2-126.4c-2,2.5-4.9,3.8-8.6,3.8c-1.7,0-3.2-0.2-4.6-0.5c-1.3-0.3-2.9-0.9-4.8-1.7v-22.3c1.7-1.3,3.5-2.4,5.3-3.3
		c1.9-0.8,3.9-1.2,5.9-1.2c3.4,0,5.9,1.2,7.5,3.7c1.6,2.5,2.3,6,2.3,10.5C783.2-132.7,782.2-128.9,780.2-126.4 M775.2-158
		c-2.5,0-4.8,0.5-7,1.5c-2.2,1-4.1,2.2-5.9,3.7v-4.1h-7.2v53.9h7.2v-16.4c1.7,0.9,3.3,1.6,4.9,2.1c1.7,0.4,3.5,0.7,5.6,0.7
		c5.1,0,9.4-2,12.7-5.8c3.3-4,5-9.1,5-15.7c0-6-1.4-10.8-4.1-14.4C783.8-156.2,780-158,775.2-158"/>
	<path d="M802.3-141.6c0.2-1.7,0.5-3.1,1.1-4.4c0.6-1.2,1.4-2.4,2.4-3.5c1.1-1,2.3-1.7,3.6-2.3c1.3-0.5,2.9-0.8,4.8-0.8
		c1.9,0,3.5,0.3,4.8,0.8c1.3,0.5,2.4,1.3,3.2,2.2c0.8,0.9,1.3,2,1.8,3.3c0.4,1.3,0.6,2.9,0.7,4.6H802.3z M826.9-153.6
		c-1.5-1.5-3.3-2.6-5.3-3.3c-2.1-0.7-4.4-1.1-7-1.1c-5.8,0-10.5,1.9-14.1,5.7c-3.6,3.8-5.4,8.9-5.4,15.3c0,6.5,1.8,11.5,5.6,15.1
		c3.7,3.6,8.9,5.3,15.6,5.3c1.7,0,3.1-0.1,4.2-0.3c1.1-0.2,2.4-0.4,3.8-0.8c1-0.3,2.1-0.6,3.3-1.1c1.2-0.5,2.3-0.8,3.1-1.2v-7.2
		h-0.4c-0.6,0.5-1.3,1-2.2,1.5c-0.8,0.5-1.9,1-3.2,1.5c-1.2,0.5-2.6,1-4.1,1.3c-1.5,0.3-3,0.5-4.5,0.5c-4.3,0-7.8-1.2-10.2-3.6
		c-2.5-2.4-3.7-6-3.7-10.5h29.2v-3.6c0-3.2-0.4-5.8-1.2-8C829.5-150.3,828.3-152.1,826.9-153.6"/>
	<rect x="836.4" y="-170.3" width="8.1" height="6.9"/>
	<rect x="836.8" y="-156.8" width="7.1" height="39.4"/>
</g>
<g>
	<polygon points="141,-520.1 114.8,-520.1 114.8,-516.5 125.7,-516.5 125.7,-489.7 130.1,-489.7 130.1,-516.5 141,-516.5 	"/>
	<path d="M148.8-495.3c-0.9,0.8-1.9,1.4-2.9,1.9c-1,0.5-2.2,0.8-3.5,0.8c-1.5,0-2.7-0.3-3.5-1c-0.8-0.7-1.2-1.7-1.2-2.9
		c0-1.1,0.4-2,1-2.7c0.7-0.6,1.6-1.1,2.7-1.4c0.9-0.3,2.1-0.5,3.6-0.6c1.5-0.2,2.7-0.3,3.7-0.3V-495.3z M150.3-511.4
		c-0.9-0.6-2-1.1-3.1-1.3c-1.2-0.2-2.6-0.4-4.2-0.4c-1.4,0-2.8,0.1-4.2,0.4c-1.4,0.2-2.5,0.5-3.3,0.7v3.9h0.2
		c1.3-0.5,2.6-0.9,3.8-1.2c1.3-0.3,2.4-0.4,3.3-0.4c0.8,0,1.6,0.1,2.3,0.2c0.7,0.1,1.4,0.3,1.9,0.6c0.5,0.3,1,0.7,1.2,1.3
		c0.3,0.6,0.4,1.3,0.4,2.2v0.8c-2.1,0.1-4.1,0.3-6,0.5c-1.8,0.2-3.5,0.6-4.8,1.2c-1.6,0.6-2.7,1.5-3.4,2.6c-0.7,1.1-1.1,2.5-1.1,4
		c0,1,0.2,2,0.6,2.9c0.4,0.9,0.9,1.7,1.6,2.3c0.7,0.6,1.5,1.1,2.4,1.5c0.9,0.3,1.8,0.5,2.8,0.5c1.2,0,2.2-0.1,2.9-0.3
		c0.7-0.2,1.4-0.5,2.1-0.8c0.5-0.2,1-0.6,1.6-1c0.6-0.4,1-0.7,1.3-1v2.4h4.1v-15.6c0-1.4-0.2-2.6-0.7-3.6
		C151.9-509.9,151.2-510.7,150.3-511.4"/>
	<rect x="156.6" y="-512.5" width="4.1" height="22.8"/>
	<rect x="156.4" y="-520.3" width="4.7" height="4"/>
	<path d="M178.9-494.9c-1.2,1.5-2.8,2.2-5,2.2c-1,0-1.9-0.1-2.6-0.3c-0.8-0.2-1.7-0.5-2.8-1v-12.9c1-0.8,2-1.4,3.1-1.9
		c1.1-0.5,2.2-0.7,3.4-0.7c2,0,3.4,0.7,4.3,2.2c0.9,1.5,1.3,3.5,1.3,6.1C180.7-498.5,180.1-496.4,178.9-494.9 M176-513.2
		c-1.5,0-2.8,0.3-4.1,0.9c-1.2,0.6-2.4,1.3-3.4,2.2v-2.4h-4.1v31.2h4.1v-9.5c1,0.6,1.9,0.9,2.9,1.2c1,0.3,2,0.4,3.2,0.4
		c3,0,5.4-1.1,7.4-3.4c1.9-2.3,2.9-5.3,2.9-9.1c0-3.5-0.8-6.3-2.4-8.3C181-512.2,178.8-513.2,176-513.2"/>
	<path d="M191.8-503.7c0.1-0.9,0.3-1.8,0.6-2.5c0.3-0.7,0.8-1.4,1.4-2c0.6-0.6,1.3-1,2.1-1.3c0.8-0.3,1.7-0.5,2.8-0.5
		c1.1,0,2,0.2,2.8,0.5c0.8,0.3,1.4,0.7,1.8,1.3c0.4,0.5,0.8,1.2,1,1.9c0.2,0.7,0.4,1.6,0.4,2.7H191.8z M205.9-510.7
		c-0.9-0.9-1.9-1.5-3.1-1.9c-1.2-0.4-2.5-0.6-4-0.6c-3.4,0-6.1,1.1-8.2,3.3c-2.1,2.2-3.1,5.1-3.1,8.9c0,3.8,1.1,6.7,3.2,8.7
		c2.1,2,5.2,3.1,9,3.1c1,0,1.8-0.1,2.5-0.2c0.6-0.1,1.4-0.3,2.2-0.5c0.6-0.1,1.2-0.4,1.9-0.6c0.7-0.3,1.3-0.5,1.8-0.7v-4.2h-0.2
		c-0.3,0.3-0.7,0.6-1.2,0.8c-0.5,0.3-1.1,0.6-1.9,0.9c-0.7,0.3-1.5,0.6-2.4,0.7c-0.9,0.2-1.7,0.3-2.6,0.3c-2.5,0-4.5-0.7-5.9-2.1
		c-1.4-1.4-2.1-3.4-2.1-6.1h16.9v-2.1c0-1.8-0.2-3.4-0.7-4.6C207.5-508.7,206.8-509.8,205.9-510.7"/>
	<rect x="211.5" y="-520.3" width="4.7" height="4"/>
	<rect x="211.7" y="-512.5" width="4.1" height="22.8"/>
	<polygon class="st1" points="8,-510.4 14.9,-490.3 18.6,-490.3 25.4,-510.4 25.4,-490 31.3,-490 31.3,-519.9 24.1,-519.9 
		17,-498.4 9.6,-519.9 2.5,-519.9 2.5,-490 8,-490 	"/>
	<path class="st1" d="M47.8-515.9c0,0,9.6-0.9,9.3,10.8c0,0,0.8,10.9-8.6,11.1c0,0-9.3,1.1-9.3-10.7
		C39.3-504.7,38.3-515.7,47.8-515.9 M48.3-489.2c15.4-0.1,14.8-15.1,14.8-15.1c0.6-16.9-14.7-16.4-14.7-16.4
		c-16,0.3-15.2,15.6-15.2,15.6C33.3-488,48.3-489.2,48.3-489.2"/>
	<path class="st1" d="M74.9-519.8c0,0-11.9,2.9-9.5,18.9c0,0,1.7,14.1,18.7,11.3c0,0,2.9-0.6,5-1.5L91-492v-7.6c0,0-1.9,3.4-6,4.6
		c0,0-5.9,2.4-10-0.8c0,0-5.7-3.1-3.3-13.9c0,0,1.4-6.8,9.9-6c0,0,4.7-0.1,9.3,4.9v-7.1C91-517.9,83.5-522.2,74.9-519.8"/>
	<path class="st1" d="M103.5-502.7l3.8-10.4l4,10.4H103.5z M110.7-520h-6.3l-11.4,30.1h6l3-7.9h11.1l2.9,7.9h6.2L110.7-520z"/>
	<polygon points="141,-520.1 114.8,-520.1 114.8,-516.5 125.7,-516.5 125.7,-489.7 130.1,-489.7 130.1,-516.5 141,-516.5 	"/>
	<path d="M148.8-495.3c-0.9,0.8-1.9,1.4-2.9,1.9c-1,0.5-2.2,0.8-3.5,0.8c-1.5,0-2.7-0.3-3.5-1c-0.8-0.7-1.2-1.7-1.2-2.9
		c0-1.1,0.4-2,1-2.7c0.7-0.6,1.6-1.1,2.7-1.4c0.9-0.3,2.1-0.5,3.6-0.6c1.5-0.2,2.7-0.3,3.7-0.3V-495.3z M150.3-511.4
		c-0.9-0.6-2-1.1-3.1-1.3c-1.2-0.2-2.6-0.4-4.2-0.4c-1.4,0-2.8,0.1-4.2,0.4c-1.4,0.2-2.5,0.5-3.3,0.7v3.9h0.2
		c1.3-0.5,2.6-0.9,3.8-1.2c1.3-0.3,2.4-0.4,3.3-0.4c0.8,0,1.6,0.1,2.3,0.2c0.7,0.1,1.4,0.3,1.9,0.6c0.5,0.3,1,0.7,1.2,1.3
		c0.3,0.6,0.4,1.3,0.4,2.2v0.8c-2.1,0.1-4.1,0.3-6,0.5c-1.8,0.2-3.5,0.6-4.8,1.2c-1.6,0.6-2.7,1.5-3.4,2.6c-0.7,1.1-1.1,2.5-1.1,4
		c0,1,0.2,2,0.6,2.9c0.4,0.9,0.9,1.7,1.6,2.3c0.7,0.6,1.5,1.1,2.4,1.5c0.9,0.3,1.8,0.5,2.8,0.5c1.2,0,2.2-0.1,2.9-0.3
		c0.7-0.2,1.4-0.5,2.1-0.8c0.5-0.2,1-0.6,1.6-1c0.6-0.4,1-0.7,1.3-1v2.4h4.1v-15.6c0-1.4-0.2-2.6-0.7-3.6
		C151.9-509.9,151.2-510.7,150.3-511.4"/>
	<rect x="156.6" y="-512.5" width="4.1" height="22.8"/>
	<rect x="156.4" y="-520.3" width="4.7" height="4"/>
	<path d="M178.9-494.9c-1.2,1.5-2.8,2.2-5,2.2c-1,0-1.9-0.1-2.6-0.3c-0.8-0.2-1.7-0.5-2.8-1v-12.9c1-0.8,2-1.4,3.1-1.9
		c1.1-0.5,2.2-0.7,3.4-0.7c2,0,3.4,0.7,4.3,2.2c0.9,1.5,1.3,3.5,1.3,6.1C180.7-498.5,180.1-496.4,178.9-494.9 M176-513.2
		c-1.5,0-2.8,0.3-4.1,0.9c-1.2,0.6-2.4,1.3-3.4,2.2v-2.4h-4.1v31.2h4.1v-9.5c1,0.6,1.9,0.9,2.9,1.2c1,0.3,2,0.4,3.2,0.4
		c3,0,5.4-1.1,7.4-3.4c1.9-2.3,2.9-5.3,2.9-9.1c0-3.5-0.8-6.3-2.4-8.3C181-512.2,178.8-513.2,176-513.2"/>
	<path d="M191.8-503.7c0.1-0.9,0.3-1.8,0.6-2.5c0.3-0.7,0.8-1.4,1.4-2c0.6-0.6,1.3-1,2.1-1.3c0.8-0.3,1.7-0.5,2.8-0.5
		c1.1,0,2,0.2,2.8,0.5c0.8,0.3,1.4,0.7,1.8,1.3c0.4,0.5,0.8,1.2,1,1.9c0.2,0.7,0.4,1.6,0.4,2.7H191.8z M205.9-510.7
		c-0.9-0.9-1.9-1.5-3.1-1.9c-1.2-0.4-2.5-0.6-4-0.6c-3.4,0-6.1,1.1-8.2,3.3c-2.1,2.2-3.1,5.1-3.1,8.9c0,3.8,1.1,6.7,3.2,8.7
		c2.1,2,5.2,3.1,9,3.1c1,0,1.8-0.1,2.5-0.2c0.6-0.1,1.4-0.3,2.2-0.5c0.6-0.1,1.2-0.4,1.9-0.6c0.7-0.3,1.3-0.5,1.8-0.7v-4.2h-0.2
		c-0.3,0.3-0.7,0.6-1.2,0.8c-0.5,0.3-1.1,0.6-1.9,0.9c-0.7,0.3-1.5,0.6-2.4,0.7c-0.9,0.2-1.7,0.3-2.6,0.3c-2.5,0-4.5-0.7-5.9-2.1
		c-1.4-1.4-2.1-3.4-2.1-6.1h16.9v-2.1c0-1.8-0.2-3.4-0.7-4.6C207.5-508.7,206.8-509.8,205.9-510.7"/>
	<rect x="211.5" y="-520.3" width="4.7" height="4"/>
	<rect x="211.7" y="-512.5" width="4.1" height="22.8"/>
</g>
<g>
	<polygon class="st1" points="17.7,-434.1 29.3,-400.3 35.6,-400.3 47.2,-434.1 47.2,-399.8 57,-399.8 57,-450.2 45,-450.2 
		32.9,-413.9 20.4,-450.1 8.5,-450.2 8.5,-399.8 17.7,-399.8 	"/>
	<path class="st1" d="M84.9-443.4c0,0,16.2-1.5,15.7,18.3c0,0,1.3,18.5-14.5,18.7c0,0-15.8,1.9-15.6-18
		C70.5-424.5,69-443.2,84.9-443.4 M85.8-398.3c25.9-0.2,25-25.5,25-25.5c1-28.5-24.8-27.7-24.8-27.7c-27,0.4-25.7,26.3-25.7,26.3
		C60.5-396.4,85.8-398.3,85.8-398.3"/>
	<path class="st1" d="M130.6-450c0,0-20,4.8-16.1,31.9c0,0,3,23.7,31.6,19.1c0,0,5-1.1,8.4-2.6l3.2-1.6v-12.8c0,0-3.2,5.7-10.1,7.8
		c0,0-10,4-16.9-1.3c0,0-9.6-5.3-5.5-23.4c0,0,2.3-11.5,16.7-10.2c0,0,7.9-0.1,15.7,8.3v-12C157.8-446.8,145.2-454.2,130.6-450"/>
	<path class="st1" d="M179-421.1l6.5-17.6l6.7,17.6H179z M191-450.3h-10.7l-19.3,50.8h10l5.1-13.4h18.7l4.9,13.4h10.4L191-450.3z"/>
</g>
<g>
	<polygon class="st0" points="268,-493.8 279.6,-459.8 285.9,-459.8 297.6,-493.8 297.6,-459.2 307.5,-459.2 307.5,-509.8 
		295.3,-509.8 283.2,-473.4 270.6,-509.8 258.7,-509.8 258.7,-459.2 268,-459.2 	"/>
	<path class="st0" d="M335.5-503c0,0,16.3-1.5,15.8,18.3c0,0,1.3,18.5-14.6,18.8c0,0-15.8,1.9-15.7-18.1
		C321-484.1,319.4-502.8,335.5-503 M336.3-457.8c26.1-0.2,25.2-25.7,25.2-25.7c1-28.6-24.9-27.9-24.9-27.9
		c-27.1,0.4-25.8,26.4-25.8,26.4C310.9-455.9,336.3-457.8,336.3-457.8"/>
	<path class="st0" d="M381.4-509.7c0,0-20.1,4.8-16.2,32c0,0,3,23.8,31.7,19.2c0,0,5-1.1,8.4-2.6l3.3-1.6v-12.8
		c0,0-3.2,5.7-10.1,7.8c0,0-10,4-17-1.3c0,0-9.7-5.3-5.5-23.5c0,0,2.3-11.6,16.8-10.2c0,0,7.9-0.1,15.8,8.3v-12.1
		C408.6-506.4,396-513.9,381.4-509.7"/>
	<path class="st0" d="M429.9-480.7l6.5-17.7l6.7,17.7H429.9z M442-510h-10.7l-19.3,51.1H422l5.1-13.5h18.8l5,13.5h10.4L442-510z"/>
</g>
<g>
	<path d="M215.8-336.2v-16.1v-0.5l-0.5-0.2l-9.8-5.1l-0.2-0.1h-0.2h-61.4l0.9,0.9v-0.8v-0.9h-0.9h-7.5l0.5,0.1l-7.7-4.9l-0.2-0.1
		h-0.3H111l0.9,0.9v-0.5l-0.9,0.9h0.1h0.9v-0.9v-0.6v-0.2l-0.1-0.2l-0.3-0.6l0.1,0.4v-0.7v-0.1l0-0.1c-0.2-1.3-1.3-1.8-1.9-1.9
		l0.6,0.4l-0.2-0.4l-0.8-1.2l-0.7,1.2l-0.2,0.4l0.6-0.4c-0.6,0.1-1.7,0.6-1.9,1.9v0.1v0.1v0.7l0.1-0.4l-0.3,0.6l-0.1,0.2v0.2v0.6
		v0.9h0.9l-0.8-0.9v0.4l0.9-0.9H90.8h-0.2l-0.2,0.1l-8,5l0.5-0.1h-7.5h-0.9v0.9v0.8l0.9-0.9h-62H13l-0.2,0.1l-9.5,5.2l-0.4,0.2v0.5
		v16h1.7v-16l-0.4,0.8l9.5-5.2l-0.4,0.1h62h0.9v-0.9v-0.8l-0.9,0.9h7.5H83l0.2-0.1l8-5l-0.5,0.1h16.8h0.9v-0.9v-0.4v-0.9h-0.9
		l0.8,0.9v-0.6l-0.1,0.4l0.3-0.6l0.1-0.2v-0.2v-0.7l0,0.1c0.1-0.4,0.4-0.5,0.5-0.5l0.4-0.1c0,0,0.2-0.3,0.2-0.3l0.2-0.4l-1.5,0
		l0.2,0.4l0.2,0.3l0.4,0.1c0.1,0,0.5,0.1,0.5,0.5v-0.1v0.7v0.2l0.1,0.2l0.3,0.6l-0.1-0.4v0.6l0.9-0.9H111h-0.9v0.9v0.5v0.9h0.9h17.6
		l-0.4-0.1l7.7,4.9l0.2,0.1h0.3h7.5l-0.9-0.9v0.8v0.9h0.9h61.4l-0.4-0.1l9.8,5.1l-0.5-0.8v16.1H215.8z"/>
	<rect x="9.6" y="-349.7" width="1.6" height="4.6"/>
	<rect x="11.9" y="-349.7" width="1.6" height="4.6"/>
	<rect x="14.2" y="-349.7" width="1.6" height="4.6"/>
	<path d="M26.8-349.2c-0.5-0.5-1.5-0.5-1.5-0.5c-1,0-1.7,0.5-1.7,0.5v4h-0.3v0.8h3.8v-0.8h-0.3V-349.2z"/>
	<path d="M23.6-342.8v3.9l3.2,0l0-4c-0.5-0.4-1.5-0.5-1.5-0.5C24.3-343.3,23.6-342.8,23.6-342.8"/>
	<path d="M31.2-349.2c-0.5-0.5-1.5-0.5-1.5-0.5c-1,0-1.7,0.5-1.7,0.5v4h-0.3v0.8h3.8v-0.8h-0.3V-349.2z"/>
	<path d="M28-342.8v3.9l3.2,0l0-4c-0.5-0.4-1.5-0.5-1.5-0.5C28.6-343.3,28-342.8,28-342.8"/>
	<path d="M35.6-349.2c-0.5-0.5-1.5-0.5-1.5-0.5c-1.1,0-1.7,0.5-1.7,0.5v4h-0.3v0.8h3.8v-0.8h-0.3V-349.2z"/>
	<path d="M32.4-342.8v3.9l3.2,0l0-4c-0.5-0.4-1.5-0.5-1.5-0.5C33-343.3,32.4-342.8,32.4-342.8"/>
	<path d="M57.2-349.2c-0.5-0.5-1.5-0.5-1.5-0.5c-1,0-1.7,0.5-1.7,0.5v4h-0.3v0.8h3.8v-0.8h-0.3V-349.2z"/>
	<path d="M54-342.8v3.9l3.2,0l0-4c-0.5-0.4-1.5-0.5-1.5-0.5C54.6-343.3,54-342.8,54-342.8"/>
	<path d="M61.6-349.2c-0.5-0.5-1.5-0.5-1.5-0.5c-1,0-1.7,0.5-1.7,0.5v4h-0.3v0.8h3.7v-0.8h-0.3V-349.2z"/>
	<path d="M58.4-342.8v3.9l3.2,0l0-4c-0.5-0.4-1.5-0.5-1.5-0.5C59-343.3,58.4-342.8,58.4-342.8"/>
	<path d="M66-349.2c-0.5-0.5-1.6-0.5-1.6-0.5c-1,0-1.7,0.5-1.7,0.5v4h-0.3v0.8h3.8v-0.8H66V-349.2z"/>
	<path d="M62.7-342.8v3.9l3.2,0l0-4c-0.5-0.4-1.6-0.5-1.6-0.5C63.4-343.3,62.7-342.8,62.7-342.8"/>
	<path d="M42.1-349.2c-0.5-0.5-1.5-0.5-1.5-0.5c-1,0-1.7,0.5-1.7,0.5v4h-0.3v0.8h3.8v-0.8h-0.3V-349.2z"/>
	<path d="M38.9-342.8v3.9l3.2,0l0-4c-0.5-0.4-1.5-0.5-1.5-0.5C39.6-343.3,38.9-342.8,38.9-342.8"/>
	<path d="M46.5-349.2c-0.5-0.5-1.5-0.5-1.5-0.5c-1,0-1.7,0.5-1.7,0.5v4H43v0.8h3.7v-0.8h-0.3V-349.2z"/>
	<path d="M43.3-342.8v3.9l3.2,0l0-4c-0.5-0.4-1.5-0.5-1.5-0.5C43.9-343.3,43.3-342.8,43.3-342.8"/>
	<path d="M50.9-349.2c-0.5-0.5-1.5-0.5-1.5-0.5c-1.1,0-1.7,0.5-1.7,0.5v4h-0.3v0.8h3.8v-0.8h-0.3V-349.2z"/>
	<path d="M47.7-342.8v3.9l3.2,0l0-4c-0.5-0.4-1.5-0.5-1.5-0.5C48.3-343.3,47.7-342.8,47.7-342.8"/>
	<path d="M195.6-345.2h-0.2v-4c0,0-0.7-0.5-1.7-0.5c0,0-1,0-1.5,0.5v3.9h-0.3v0.8h3.7V-345.2z"/>
	<path d="M192.1-338.9l3.2,0v-3.9c0,0-0.7-0.5-1.7-0.5c0,0-1,0-1.5,0.5L192.1-338.9z"/>
	<path d="M191.2-345.2h-0.3v-4c0,0-0.7-0.5-1.7-0.5c0,0-1,0-1.5,0.5v3.9h-0.3v0.8h3.8V-345.2z"/>
	<path d="M187.7-338.9l3.2,0v-3.9c0,0-0.7-0.5-1.7-0.5c0,0-1,0-1.5,0.5L187.7-338.9z"/>
	<path d="M186.8-345.2h-0.3v-4c0,0-0.6-0.5-1.7-0.5c0,0-1.1,0-1.5,0.5v3.9H183v0.8h3.8V-345.2z"/>
	<path d="M183.3-338.9l3.2,0v-3.9c0,0-0.6-0.5-1.7-0.5c0,0-1.1,0-1.5,0.5L183.3-338.9z"/>
	<path d="M165.2-345.2h-0.3v-4c0,0-0.7-0.5-1.7-0.5c0,0-1,0-1.5,0.5v3.9h-0.3v0.8h3.8V-345.2z"/>
	<path d="M164.9-342.8c0,0-0.7-0.5-1.7-0.5c0,0-1,0-1.5,0.5l0,4l3.2,0V-342.8z"/>
	<path d="M160.5-349.2c0,0-0.7-0.5-1.7-0.5c0,0-1,0-1.5,0.5v3.9H157v0.8h3.7v-0.8h-0.3V-349.2z"/>
	<path d="M157.3-342.8l0,4l3.2,0v-3.9c0,0-0.7-0.5-1.7-0.5C158.8-343.3,157.8-343.3,157.3-342.8"/>
	<path d="M156.4-345.2h-0.3v-4c0,0-0.6-0.5-1.7-0.5c0,0-1,0-1.5,0.5v3.9h-0.3v0.8h3.8V-345.2z"/>
	<path d="M156.2-342.8c0,0-0.6-0.5-1.7-0.5c0,0-1,0-1.5,0.5l0,4l3.2,0V-342.8z"/>
	<path d="M180.2-345.2H180v-4c0,0-0.6-0.5-1.7-0.5c0,0-1,0-1.5,0.5v3.9h-0.3v0.8h3.8V-345.2z"/>
	<path d="M176.8-338.9l3.2,0v-3.9c0,0-0.6-0.5-1.7-0.5c0,0-1,0-1.5,0.5L176.8-338.9z"/>
	<path d="M175.9-345.2h-0.3v-4c0,0-0.6-0.5-1.7-0.5c0,0-1.1,0-1.5,0.5v3.9h-0.3v0.8h3.8V-345.2z"/>
	<path d="M172.4-338.9l3.2,0v-3.9c0,0-0.6-0.5-1.7-0.5c0,0-1.1,0-1.5,0.5L172.4-338.9z"/>
	<path d="M171.5-345.2h-0.2v-4c0,0-0.6-0.5-1.7-0.5c0,0-1,0-1.5,0.5v3.9h-0.3v0.8h3.7V-345.2z"/>
	<path d="M168-338.9l3.2,0v-3.9c0,0-0.6-0.5-1.7-0.5c0,0-1,0-1.5,0.5L168-338.9z"/>
	<path d="M81.3-350.7c-1.3,0-1.6,0.3-1.6,0.3l0,4.3l3.4,0v-4.2C82.7-350.8,81.3-350.7,81.3-350.7"/>
	<path d="M81.3-344.2c-1.3,0-1.6,0.3-1.6,0.3l0,4.3l3.4,0v-4.2C82.7-344.2,81.3-344.2,81.3-344.2"/>
	<path d="M86-346.1h2.2v1.5H86V-346.1z M85.7-338.9h2.9v-12.5h-2.9V-338.9z"/>
	<path d="M90.5-346.1h2.2v1.5h-2.2V-346.1z M90.2-338.9h2.9v-12.5h-2.9V-338.9z"/>
	<path d="M95.1-346.2h2.2v1.5h-2.2V-346.2z M94.8-339h2.9v-12.6h-2.9V-339z"/>
	<path d="M99.5-346.1h2.2v1.5h-2.2V-346.1z M99.2-338.9h2.9v-12.5h-2.9V-338.9z"/>
	<path d="M117.2-346.1h2.2v1.5h-2.2V-346.1z M116.9-338.9h2.9v-12.5h-2.9V-338.9z"/>
	<path d="M121.7-346.1h2.2v1.5h-2.2V-346.1z M121.4-338.9h2.9v-12.5h-2.9V-338.9z"/>
	<path d="M126.2-346.2h2.2v1.5h-2.2V-346.2z M125.9-339h2.9v-12.6h-2.9V-339z"/>
	<path d="M130.7-346.1h2.2v1.5h-2.2V-346.1z M130.3-338.9h2.9v-12.5h-2.9V-338.9z"/>
	<path d="M139.3-350.4c0,0-0.3-0.3-1.6-0.3c0,0-1.4-0.1-1.8,0.3v4.2l3.4,0V-350.4z"/>
	<path d="M139.3-343.9c0,0-0.3-0.3-1.6-0.3c0,0-1.4-0.1-1.8,0.4v4.2l3.4,0V-343.9z"/>
	<polygon points="115.4,-345.4 114.4,-345.4 114.4,-351.4 104.4,-351.4 104.4,-345.4 103.4,-345.4 103.4,-345 115.4,-345 	"/>
	<path d="M75.3-349.8c-0.5-0.4-1.5-0.5-1.5-0.5c-1,0-1.7,0.5-1.7,0.5v9.5h-0.2v0.8h3.7v-0.8h-0.3V-349.8z"/>
	<path d="M147.1-340.3h-0.3v-9.5c-0.5-0.4-1.5-0.5-1.5-0.5c-1,0-1.7,0.5-1.7,0.5v9.5h-0.3v0.8h3.7V-340.3z"/>
	<path d="M114-341.4c-1-1.4-2.7-2.3-4.6-2.3c-1.9,0-3.6,0.9-4.6,2.3v-2.4h9.2V-341.4z M113.1-338.8h-7.3v-2.6c0.9-1,2.2-1.6,3.7-1.6
		c1.5,0,2.8,0.6,3.6,1.6V-338.8z M115.4-344.3h-12v6.1h12V-344.3z"/>
	<path d="M10.2-343.1h4.9v4.2h-4.9V-343.1z M8.6-344.5L8.6-344.5l-0.1,1.4h0.1h0.2v5h7.7v-5h0.3v-1.4H8.6L8.6-344.5z"/>
	<path d="M208.2-338.9h-4.9v-4.2h4.9V-338.9z M209.9-344.5L209.9-344.5h-8.3v0.9v0.4h0.3v5h7.7v-5h0.3v-0.4h0V-344.5z"/>
	<rect x="202.7" y="-349.7" width="1.6" height="4.6"/>
	<rect x="205" y="-349.7" width="1.6" height="4.6"/>
	<rect x="207.2" y="-349.7" width="1.6" height="4.6"/>
	<path d="M215.8-336.2v-16.1v-0.5l-0.5-0.2l-9.8-5.1l-0.2-0.1h-0.2h-61.4l0.8,0.9v-0.8v-0.9h-0.8h-7.5l0.4,0.1l-7.7-4.9l-0.2-0.1
		h-0.3H111l0.9,0.9v-0.5l-0.9,0.9h0.1h0.8v-0.9v-0.6v-0.2l-0.1-0.2l-0.3-0.6l0.1,0.4v-0.7v-0.1l0-0.1c-0.2-1.3-1.3-1.8-1.9-1.9
		l0.6,0.4l-0.2-0.4l-0.7-1.2l-0.7,1.2l-0.2,0.4l0.6-0.4c-0.6,0.1-1.7,0.6-1.9,1.9v0.1v0.1v0.7l0.1-0.4l-0.3,0.6l-0.1,0.2v0.2v0.6
		v0.9h0.8l-0.8-0.9v0.4l0.9-0.9H90.8h-0.2l-0.2,0.1l-8,5l0.5-0.1h-7.5h-0.9v0.9v0.8l0.9-0.9h-62H13l-0.2,0.1l-9.5,5.2l-0.5,0.2v0.5
		v16h1.7v-16l-0.4,0.8l9.5-5.2l-0.4,0.1h62h0.9v-0.9v-0.8l-0.9,0.9h7.5H83l0.2-0.1l8-5l-0.5,0.1h16.8h0.9v-0.9v-0.4v-0.9h-0.9
		l0.8,0.9v-0.6l-0.1,0.4l0.3-0.6l0.1-0.2v-0.2v-0.7v0.1c0.1-0.4,0.4-0.5,0.5-0.5l0.4-0.1c0,0,0.2-0.3,0.2-0.3l0.2-0.4l-1.5,0
		l0.2,0.4l0.2,0.3l0.4,0.1c0.1,0,0.5,0.1,0.5,0.5v-0.1v0.7v0.2l0.1,0.2l0.3,0.6l-0.1-0.4v0.6l0.9-0.9H111h-0.9v0.9v0.5v0.9h0.9h17.6
		l-0.5-0.1l7.7,4.9l0.2,0.1h0.3h7.5l-0.9-0.9v0.8v0.9h0.9h61.4l-0.4-0.1l9.8,5.1l-0.4-0.8l0,16.1H215.8z"/>
	<rect x="9.6" y="-349.7" width="1.6" height="4.6"/>
	<rect x="11.9" y="-349.7" width="1.6" height="4.6"/>
	<rect x="14.2" y="-349.7" width="1.6" height="4.6"/>
	<path d="M26.8-349.2c-0.5-0.5-1.5-0.5-1.5-0.5c-1,0-1.7,0.5-1.7,0.5v4h-0.3v0.8h3.8v-0.8h-0.3V-349.2z"/>
	<path d="M23.6-342.8v3.9l3.2,0l0-4c-0.5-0.4-1.5-0.5-1.5-0.5C24.3-343.3,23.6-342.8,23.6-342.8"/>
	<path d="M31.2-349.2c-0.5-0.5-1.5-0.5-1.5-0.5c-1,0-1.7,0.5-1.7,0.5v4h-0.3v0.8h3.8v-0.8h-0.3V-349.2z"/>
	<path d="M28-342.8v3.9l3.2,0l0-4c-0.5-0.4-1.5-0.5-1.5-0.5C28.6-343.3,28-342.8,28-342.8"/>
	<path d="M35.6-349.2c-0.5-0.5-1.5-0.5-1.5-0.5c-1.1,0-1.7,0.5-1.7,0.5v4h-0.3v0.8h3.8v-0.8h-0.3V-349.2z"/>
	<path d="M32.4-342.8v3.9l3.2,0l0-4c-0.5-0.4-1.5-0.5-1.5-0.5C33-343.3,32.4-342.8,32.4-342.8"/>
	<path d="M57.2-349.2c-0.5-0.5-1.5-0.5-1.5-0.5c-1,0-1.7,0.5-1.7,0.5v4h-0.3v0.8h3.8v-0.8h-0.3V-349.2z"/>
	<path d="M54-342.8v3.9l3.2,0l0-4c-0.5-0.4-1.5-0.5-1.5-0.5C54.6-343.3,54-342.8,54-342.8"/>
	<path d="M61.6-349.2c-0.5-0.5-1.5-0.5-1.5-0.5c-1,0-1.7,0.5-1.7,0.5v4h-0.3v0.8h3.7v-0.8h-0.3V-349.2z"/>
	<path d="M58.4-342.8v3.9l3.2,0l0-4c-0.5-0.4-1.5-0.5-1.5-0.5C59-343.3,58.4-342.8,58.4-342.8"/>
	<path d="M66-349.2c-0.5-0.5-1.6-0.5-1.6-0.5c-1,0-1.7,0.5-1.7,0.5v4h-0.3v0.8h3.8v-0.8H66V-349.2z"/>
	<path d="M62.7-342.8v3.9l3.2,0l0-4c-0.5-0.4-1.6-0.5-1.6-0.5C63.4-343.3,62.7-342.8,62.7-342.8"/>
	<path d="M42.1-349.2c-0.5-0.5-1.5-0.5-1.5-0.5c-1,0-1.7,0.5-1.7,0.5v4h-0.3v0.8h3.8v-0.8h-0.3V-349.2z"/>
	<path d="M38.9-342.8v3.9l3.2,0l0-4c-0.5-0.4-1.5-0.5-1.5-0.5C39.6-343.3,38.9-342.8,38.9-342.8"/>
	<path d="M46.5-349.2c-0.5-0.5-1.5-0.5-1.5-0.5c-1,0-1.7,0.5-1.7,0.5v4H43v0.8h3.7v-0.8h-0.3V-349.2z"/>
	<path d="M43.3-342.8v3.9l3.2,0l0-4c-0.5-0.4-1.5-0.5-1.5-0.5C43.9-343.3,43.3-342.8,43.3-342.8"/>
	<path d="M50.9-349.2c-0.5-0.5-1.5-0.5-1.5-0.5c-1.1,0-1.7,0.5-1.7,0.5v4h-0.3v0.8h3.8v-0.8h-0.3V-349.2z"/>
	<path d="M47.7-342.8v3.9l3.2,0l0-4c-0.5-0.4-1.5-0.5-1.5-0.5C48.3-343.3,47.7-342.8,47.7-342.8"/>
	<path d="M195.6-345.2h-0.2v-4c0,0-0.7-0.5-1.7-0.5c0,0-1,0-1.5,0.5v3.9h-0.3v0.8h3.7V-345.2z"/>
	<path d="M192.1-338.9l3.2,0v-3.9c0,0-0.7-0.5-1.7-0.5c0,0-1,0-1.5,0.5L192.1-338.9z"/>
	<path d="M191.2-345.2h-0.3v-4c0,0-0.7-0.5-1.7-0.5c0,0-1,0-1.5,0.5v3.9h-0.3v0.8h3.8V-345.2z"/>
	<path d="M187.7-338.9l3.2,0v-3.9c0,0-0.7-0.5-1.7-0.5c0,0-1,0-1.5,0.5L187.7-338.9z"/>
	<path d="M186.8-345.2h-0.3v-4c0,0-0.6-0.5-1.7-0.5c0,0-1.1,0-1.5,0.5v3.9H183v0.8h3.8V-345.2z"/>
	<path d="M183.3-338.9l3.2,0v-3.9c0,0-0.6-0.5-1.7-0.5c0,0-1.1,0-1.5,0.5L183.3-338.9z"/>
	<path d="M165.2-345.2h-0.3v-4c0,0-0.7-0.5-1.7-0.5c0,0-1,0-1.5,0.5v3.9h-0.3v0.8h3.8V-345.2z"/>
	<path d="M164.9-342.8c0,0-0.7-0.5-1.7-0.5c0,0-1,0-1.5,0.5l0,4l3.2,0V-342.8z"/>
	<path d="M160.5-349.2c0,0-0.7-0.5-1.7-0.5c0,0-1,0-1.5,0.5v3.9H157v0.8h3.7v-0.8h-0.3V-349.2z"/>
	<path d="M157.3-342.8l0,4l3.2,0v-3.9c0,0-0.7-0.5-1.7-0.5C158.8-343.3,157.8-343.3,157.3-342.8"/>
	<path d="M156.4-345.2h-0.3v-4c0,0-0.6-0.5-1.7-0.5c0,0-1,0-1.5,0.5v3.9h-0.3v0.8h3.8V-345.2z"/>
	<path d="M156.2-342.8c0,0-0.6-0.5-1.7-0.5c0,0-1,0-1.5,0.5l0,4l3.2,0V-342.8z"/>
	<path d="M180.2-345.2H180v-4c0,0-0.6-0.5-1.7-0.5c0,0-1,0-1.5,0.5v3.9h-0.3v0.8h3.8V-345.2z"/>
	<path d="M176.8-338.9l3.2,0v-3.9c0,0-0.6-0.5-1.7-0.5c0,0-1,0-1.5,0.5L176.8-338.9z"/>
	<path d="M175.9-345.2h-0.3v-4c0,0-0.6-0.5-1.7-0.5c0,0-1.1,0-1.5,0.5v3.9h-0.3v0.8h3.8V-345.2z"/>
	<path d="M172.4-338.9l3.2,0v-3.9c0,0-0.6-0.5-1.7-0.5c0,0-1.1,0-1.5,0.5L172.4-338.9z"/>
	<path d="M171.5-345.2h-0.2v-4c0,0-0.6-0.5-1.7-0.5c0,0-1,0-1.5,0.5v3.9h-0.3v0.8h3.7V-345.2z"/>
	<path d="M168-338.9l3.2,0v-3.9c0,0-0.6-0.5-1.7-0.5c0,0-1,0-1.5,0.5L168-338.9z"/>
	<path d="M81.3-350.7c-1.3,0-1.6,0.3-1.6,0.3l0,4.3l3.4,0v-4.2C82.7-350.8,81.3-350.7,81.3-350.7"/>
	<path d="M81.3-344.2c-1.3,0-1.6,0.3-1.6,0.3l0,4.3l3.4,0v-4.2C82.7-344.2,81.3-344.2,81.3-344.2"/>
	<path d="M86-346.1h2.2v1.5H86V-346.1z M85.7-338.9h2.9v-12.5h-2.9V-338.9z"/>
	<path d="M90.5-346.1h2.2v1.5h-2.2V-346.1z M90.2-338.9h2.9v-12.5h-2.9V-338.9z"/>
	<path d="M95.1-346.2h2.2v1.5h-2.2V-346.2z M94.8-339h2.9v-12.6h-2.9V-339z"/>
	<path d="M99.5-346.1h2.2v1.5h-2.2V-346.1z M99.2-338.9h2.9v-12.5h-2.9V-338.9z"/>
	<path d="M117.2-346.1h2.2v1.5h-2.2V-346.1z M116.9-338.9h2.9v-12.5h-2.9V-338.9z"/>
	<path d="M121.7-346.1h2.2v1.5h-2.2V-346.1z M121.4-338.9h2.9v-12.5h-2.9V-338.9z"/>
	<path d="M126.2-346.2h2.2v1.5h-2.2V-346.2z M125.9-339h2.9v-12.6h-2.9V-339z"/>
	<path d="M130.7-346.1h2.2v1.5h-2.2V-346.1z M130.3-338.9h2.9v-12.5h-2.9V-338.9z"/>
	<path d="M139.3-350.4c0,0-0.3-0.3-1.6-0.3c0,0-1.4-0.1-1.8,0.3v4.2l3.4,0V-350.4z"/>
	<path d="M139.3-343.9c0,0-0.3-0.3-1.6-0.3c0,0-1.4-0.1-1.8,0.4v4.2l3.4,0V-343.9z"/>
	<polygon points="115.4,-345.4 114.4,-345.4 114.4,-351.4 104.4,-351.4 104.4,-345.4 103.4,-345.4 103.4,-345 115.4,-345 	"/>
	<path d="M75.3-349.8c-0.5-0.4-1.5-0.5-1.5-0.5c-1,0-1.7,0.5-1.7,0.5v9.5h-0.2v0.8h3.7v-0.8h-0.3V-349.8z"/>
	<path d="M147.1-340.3h-0.3v-9.5c-0.5-0.4-1.5-0.5-1.5-0.5c-1,0-1.7,0.5-1.7,0.5v9.5h-0.3v0.8h3.7V-340.3z"/>
	<path d="M114-341.4c-1-1.4-2.7-2.3-4.6-2.3c-1.9,0-3.6,0.9-4.6,2.3v-2.4h9.2V-341.4z M113.1-338.8h-7.3v-2.6c0.9-1,2.2-1.6,3.7-1.6
		c1.5,0,2.8,0.6,3.6,1.6V-338.8z M115.4-344.3h-12v6.1h12V-344.3z"/>
	<path d="M10.2-343.1h4.9v4.2h-4.9V-343.1z M8.6-344.5L8.6-344.5l-0.1,1.4h0.1h0.2v5h7.7v-5h0.3v-1.4H8.6L8.6-344.5z"/>
	<path d="M208.2-338.9h-4.9v-4.2h4.9V-338.9z M209.9-344.5L209.9-344.5h-8.3v0.9v0.4h0.3v5h7.7v-5h0.3v-0.4h0V-344.5z"/>
	<rect x="202.7" y="-349.7" width="1.6" height="4.6"/>
	<rect x="205" y="-349.7" width="1.6" height="4.6"/>
	<rect x="207.2" y="-349.7" width="1.6" height="4.6"/>
</g>
<g>
	<path class="st0" d="M752-348.4v-37.3v-1.2l-1.1-0.6l-22.6-11.7l-0.4-0.2h-0.5H584.9l2,2v-1.8v-2h-2h-17.4l1.1,0.3l-17.9-11.3
		l-0.5-0.3h-0.6h-40.8l2,2v-1.1l-2,2h0.2h2v-2v-1.3v-0.5l-0.2-0.4l-0.7-1.4l0.2,0.9v-1.5v-0.1l0-0.1c-0.4-3-3-4.3-4.5-4.5l1.4,0.9
		l-0.6-0.9l-1.7-2.8l-1.7,2.9l-0.5,0.9l1.4-1c-1.4,0.3-4,1.5-4.4,4.5v0.2v0.1v1.5l0.2-0.9l-0.7,1.4l-0.2,0.4v0.5v1.3v2h2l-1.9-2v0.9
		l2-2h-39h-0.6l-0.5,0.3l-18.5,11.5l1.1-0.3H426h-2v2v1.8l2-2H282.3h-0.5l-0.4,0.2l-22.1,11.9l-1,0.6v1.2v37.1h4v-37.1l-1,1.8
		l22.1-12l-0.9,0.3H426h2v-2v-1.8l-2,2h17.5h0.6l0.5-0.3l18.5-11.5l-1.1,0.3h39h2v-2v-0.9v-2h-2l1.9,2v-1.3l-0.2,0.9l0.7-1.4
		l0.2-0.5v-0.5v-1.5l0,0.3c0.1-0.9,1-1.1,1.2-1.1l0.9-0.2c0.1,0,0.5-0.8,0.5-0.8l0.5-0.9l-3.4,0l0.6,0.9l0.5,0.7l0.9,0.2
		c0.2,0,1.1,0.3,1.2,1.1v-0.3v1.5v0.5l0.2,0.4l0.7,1.4l-0.2-0.9v1.3l2-2h-0.2h-2v2v1.1v2h2h40.8l-1-0.3l17.9,11.3l0.5,0.3h0.6h17.4
		l-2-2v1.8v2h2h142.4l-0.9-0.2l22.6,11.7l-1.1-1.8v37.3H752z"/>
	<rect x="273.8" y="-379.8" class="st0" width="3.7" height="10.6"/>
	<rect x="279.2" y="-379.8" class="st0" width="3.6" height="10.6"/>
	<rect x="284.5" y="-379.8" class="st0" width="3.6" height="10.6"/>
	<path class="st0" d="M313.8-378.6c-1.1-1.1-3.6-1.1-3.6-1.1c-2.4-0.1-3.9,1.2-3.9,1.2v9.2h-0.6v1.7h8.7v-1.9h-0.6V-378.6z"/>
	<path class="st0" d="M306.3-363.7v9.1l7.4,0l0-9.2c-1.2-1-3.6-1.1-3.6-1.1C307.8-364.9,306.3-363.7,306.3-363.7"/>
	<path class="st0" d="M323.9-378.6c-1.1-1.1-3.6-1.1-3.6-1.1c-2.4-0.1-3.9,1.2-3.9,1.2v9.2h-0.7v1.7h8.7v-1.9h-0.6V-378.6z"/>
	<path class="st0" d="M316.5-363.7v9.1l7.4,0l0-9.2c-1.1-1-3.6-1.1-3.6-1.1C318-364.9,316.5-363.7,316.5-363.7"/>
	<path class="st0" d="M334.1-378.6c-1.2-1.1-3.6-1.1-3.6-1.1c-2.4-0.1-3.9,1.2-3.9,1.2v9.2H326v1.7h8.7v-1.9h-0.6V-378.6z"/>
	<path class="st0" d="M326.6-363.7v9.1l7.4,0l0.1-9.2c-1.2-1-3.6-1.1-3.6-1.1C328.1-364.9,326.6-363.7,326.6-363.7"/>
	<path class="st0" d="M384.3-378.6c-1.1-1.1-3.6-1.1-3.6-1.1c-2.4-0.1-3.9,1.2-3.9,1.2v9.2h-0.6v1.7h8.7v-1.9h-0.6V-378.6z"/>
	<path class="st0" d="M376.8-363.7v9.1l7.4,0l0-9.2c-1.1-1-3.6-1.1-3.6-1.1C378.3-364.9,376.8-363.7,376.8-363.7"/>
	<path class="st0" d="M394.4-378.6c-1.1-1.1-3.6-1.1-3.6-1.1c-2.4-0.1-3.9,1.2-3.9,1.2v9.2h-0.6v1.7h8.7v-1.9h-0.6V-378.6z"/>
	<path class="st0" d="M386.9-363.7v9.1l7.5,0l0-9.2c-1.2-1-3.6-1.1-3.6-1.1C388.4-364.9,386.9-363.7,386.9-363.7"/>
	<path class="st0" d="M404.6-378.6c-1.1-1.1-3.6-1.1-3.6-1.1c-2.4-0.1-3.9,1.2-3.9,1.2v9.2h-0.6v1.7h8.7v-1.9h-0.6V-378.6z"/>
	<path class="st0" d="M397.1-363.7v9.1l7.5,0l0-9.2c-1.1-1-3.6-1.1-3.6-1.1C398.6-364.9,397.1-363.7,397.1-363.7"/>
	<path class="st0" d="M349.3-378.6c-1.1-1.1-3.6-1.1-3.6-1.1c-2.4-0.1-3.9,1.2-3.9,1.2v9.2h-0.6v1.7h8.7v-1.9h-0.6V-378.6z"/>
	<path class="st0" d="M341.9-363.7v9.1l7.4,0l0-9.2c-1.1-1-3.6-1.1-3.6-1.1C343.4-364.9,341.9-363.7,341.9-363.7"/>
	<path class="st0" d="M359.5-378.6c-1.1-1.1-3.6-1.1-3.6-1.1c-2.4-0.1-3.9,1.2-3.9,1.2v9.2h-0.6v1.7h8.7v-1.9h-0.6V-378.6z"/>
	<path class="st0" d="M352-363.7v9.1l7.4,0l0-9.2c-1.1-1-3.6-1.1-3.6-1.1C353.5-364.9,352-363.7,352-363.7"/>
	<path class="st0" d="M369.6-378.6c-1.1-1.1-3.5-1.1-3.5-1.1c-2.5-0.1-4,1.2-4,1.2v9.2h-0.6v1.7h8.7v-1.9h-0.6V-378.6z"/>
	<path class="st0" d="M362.1-363.7v9.1l7.5,0l0-9.2c-1.1-1-3.5-1.1-3.5-1.1C363.6-364.9,362.1-363.7,362.1-363.7"/>
	<path class="st0" d="M705-369.4h-0.6v-9.2c0,0-1.5-1.2-4-1.2c0,0-2.4,0-3.6,1.1v9.1h-0.6v1.9h8.7V-369.4z"/>
	<path class="st0" d="M697-354.6l7.4,0v-9.1c0,0-1.5-1.2-3.9-1.2c0,0-2.4,0.1-3.6,1.1L697-354.6z"/>
	<path class="st0" d="M694.8-369.4h-0.6v-9.2c0,0-1.5-1.2-3.9-1.2c0,0-2.4,0-3.6,1.1v9.1h-0.6v1.9h8.7V-369.4z"/>
	<path class="st0" d="M686.8-354.6l7.5,0v-9.1c0,0-1.6-1.2-3.9-1.2c0,0-2.4,0.1-3.6,1.1L686.8-354.6z"/>
	<path class="st0" d="M684.7-369.4h-0.6v-9.2c0,0-1.5-1.2-3.9-1.2c0,0-2.4,0-3.5,1.1v9.1H676v1.9h8.7V-369.4z"/>
	<path class="st0" d="M676.7-354.6l7.4,0v-9.1c0,0-1.5-1.2-3.9-1.2c0,0-2.4,0.1-3.5,1.1L676.7-354.6z"/>
	<path class="st0" d="M634.5-369.4h-0.6v-9.2c0,0-1.5-1.2-3.9-1.2c0,0-2.4,0-3.6,1.1v9.1h-0.6v1.9h8.7V-369.4z"/>
	<path class="st0" d="M633.9-363.7c0,0-1.5-1.2-3.9-1.2c0,0-2.4,0.1-3.6,1.1l0.1,9.2l7.4,0V-363.7z"/>
	<path class="st0" d="M623.8-378.5c0,0-1.5-1.2-3.9-1.2c0,0-2.4,0-3.6,1.1v9.1h-0.6v1.9h8.7v-1.7h-0.6V-378.5z"/>
	<path class="st0" d="M616.3-363.8l0,9.2l7.5,0v-9.1c0,0-1.5-1.2-4-1.2C619.8-364.9,617.4-364.8,616.3-363.8"/>
	<path class="st0" d="M614.3-369.4h-0.6v-9.2c0,0-1.5-1.2-3.9-1.2c0,0-2.4,0-3.6,1.1v9.1h-0.6v1.9h8.7V-369.4z"/>
	<path class="st0" d="M613.6-363.7c0,0-1.5-1.2-3.9-1.2c0,0-2.4,0.1-3.6,1.1l0,9.2l7.4,0V-363.7z"/>
	<path class="st0" d="M669.5-369.4h-0.6v-9.2c0,0-1.5-1.2-3.9-1.2c0,0-2.4,0-3.6,1.1v9.1h-0.6v1.9h8.7V-369.4z"/>
	<path class="st0" d="M661.4-354.6l7.4,0v-9.1c0,0-1.5-1.2-3.9-1.2c0,0-2.4,0.1-3.6,1.1L661.4-354.6z"/>
	<path class="st0" d="M659.3-369.4h-0.6v-9.2c0,0-1.5-1.2-3.9-1.2c0,0-2.5,0-3.6,1.1v9.1h-0.6v1.9h8.7V-369.4z"/>
	<path class="st0" d="M651.3-354.6l7.4,0v-9.1c0,0-1.5-1.2-3.9-1.2c0,0-2.5,0.1-3.6,1.1L651.3-354.6z"/>
	<path class="st0" d="M649.1-369.4h-0.6v-9.2c0,0-1.5-1.2-3.9-1.2c0,0-2.4,0-3.6,1.1v9.1h-0.6v1.9h8.7V-369.4z"/>
	<path class="st0" d="M641.1-354.6l7.4,0v-9.1c0,0-1.5-1.2-3.9-1.2c0,0-2.4,0.1-3.6,1.1L641.1-354.6z"/>
	<path class="st0" d="M440.2-382c-3,0.1-3.7,0.8-3.7,0.8l0,9.9l7.8,0v-9.8C443.4-382.2,440.2-382,440.2-382"/>
	<path class="st0" d="M440.2-366.9c-3,0.1-3.7,0.8-3.7,0.8l0,9.9l7.8,0v-9.8C443.4-367.1,440.2-366.9,440.2-366.9"/>
	<path class="st0" d="M451.1-371.4h5.2v3.5h-5.2V-371.4z M450.3-354.7h6.7v-29.1h-6.7V-354.7z"/>
	<path class="st0" d="M461.5-371.4h5.2v3.5h-5.2V-371.4z M460.8-354.7h6.8v-29.1h-6.8V-354.7z"/>
	<path class="st0" d="M472-371.5h5.2v3.5H472V-371.5z M471.3-354.8h6.8v-29.1h-6.8V-354.8z"/>
	<path class="st0" d="M482.3-371.4h5.2v3.5h-5.2V-371.4z M481.5-354.7h6.8v-29.1h-6.8V-354.7z"/>
	<path class="st0" d="M523.3-371.4h5.1v3.5h-5.1V-371.4z M522.5-354.7h6.8v-29.1h-6.8V-354.7z"/>
	<path class="st0" d="M533.8-371.4h5.1v3.5h-5.1V-371.4z M533.1-354.7h6.7v-29.1h-6.7V-354.7z"/>
	<path class="st0" d="M544.3-371.5h5.2v3.5h-5.2V-371.5z M543.5-354.8h6.8v-29.1h-6.8V-354.8z"/>
	<path class="st0" d="M554.5-371.4h5.2v3.5h-5.2V-371.4z M553.8-354.7h6.8v-29.1h-6.8V-354.7z"/>
	<path class="st0" d="M574.5-381.3c0,0-0.8-0.7-3.7-0.8c0,0-3.2-0.1-4.1,0.8v9.8l7.8,0V-381.3z"/>
	<path class="st0" d="M574.5-366.2c0,0-0.8-0.7-3.7-0.8c0,0-3.2-0.1-4.1,0.8v9.8l7.8,0V-366.2z"/>
	<polygon class="st0" points="519.2,-369.8 516.9,-369.8 516.9,-383.6 493.6,-383.6 493.6,-369.8 491.4,-369.8 491.4,-368.8 
		519.2,-368.8 	"/>
	<path class="st0" d="M426.3-380c-1.1-1-3.6-1.1-3.6-1.1c-2.4-0.1-3.9,1.1-3.9,1.1v22.1h-0.6v1.7h8.7v-1.9h-0.6V-380z"/>
	<path class="st0" d="M592.6-358H592v-22c-1.2-1-3.6-1.1-3.6-1.1c-2.4-0.1-3.9,1.2-3.9,1.2v22.1h-0.6v1.7h8.7V-358z"/>
	<path class="st0" d="M515.9-360.5c-2.3-3.3-6.2-5.4-10.6-5.4c-4.5,0-8.4,2.2-10.7,5.4v-5.7h21.3V-360.5z M513.7-354.5h-17v-6
		c2.1-2.3,5.1-3.8,8.5-3.8c3.4,0,6.4,1.5,8.5,3.8V-354.5z M519.2-367.1h-27.9v14.1h27.9V-367.1z"/>
	<path class="st0" d="M275.3-364.4h11.2v9.7h-11.2V-364.4z M271.5-367.6h-0.2v3.2h0.2h0.5v11.5h17.9v-11.5h0.7v-3.2H271.5
		L271.5-367.6z"/>
	<path class="st0" d="M734.3-354.7h-11.3v-9.7h11.3V-354.7z M738.3-367.6L738.3-367.6h-19.2v2.2v1h0.7v11.5h17.8v-11.5h0.7v-1h0
		V-367.6z"/>
	<rect x="721.4" y="-379.7" class="st0" width="3.6" height="10.6"/>
	<rect x="726.8" y="-379.7" class="st0" width="3.6" height="10.6"/>
	<rect x="732.1" y="-379.7" class="st0" width="3.6" height="10.6"/>
	<path class="st0" d="M752-348.4v-37.3v-1.2l-1.1-0.5l-22.6-11.8l-0.4-0.2h-0.5H584.9l2,2v-1.8v-2h-2h-17.4l1,0.3l-17.9-11.3
		l-0.5-0.3h-0.6h-40.8l2,2v-1.1l-2,2h0.2h2v-2v-1.3v-0.5l-0.2-0.4l-0.7-1.4l0.2,0.9v-1.5v-0.1l0-0.1c-0.4-3-3-4.3-4.5-4.5l1.4,0.9
		l-0.6-0.9l-1.7-2.8l-1.7,2.8l-0.6,0.9l1.4-0.9c-1.4,0.2-4,1.4-4.4,4.5v0.1v0.1v1.5l0.2-0.9l-0.7,1.4l-0.2,0.5v0.5v1.3v2h2l-1.9-2
		v0.9l2-2h-39h-0.6l-0.5,0.3l-18.5,11.5l1.1-0.3H426h-2v2v1.8l2-2H282.3h-0.5l-0.5,0.2l-22.1,12l-1.1,0.6v1.2v37.1h4v-37.1l-1,1.8
		l22-12l-0.9,0.3H426h2v-2v-1.8l-2,2h17.5h0.6l0.5-0.3l18.5-11.5l-1.1,0.3h39h2v-2v-0.9v-2h-2l1.9,2v-1.3l-0.2,0.9l0.7-1.4l0.2-0.4
		v-0.5v-1.5v0.3c0.1-0.9,1-1.1,1.2-1.1l0.9-0.2c0,0,0.5-0.8,0.5-0.8l0.5-0.9l-3.4,0l0.5,0.9l0.5,0.7l0.8,0.2
		c0.2,0.1,1.1,0.3,1.2,1.1v-0.3v1.5v0.5l0.2,0.4l0.7,1.4l-0.2-0.9v1.3l2-2h-0.2h-2v2v1.1v2h2h40.8l-1.1-0.3l17.9,11.3l0.5,0.3h0.6
		h17.4l-2-2v1.8v2h2h142.4l-0.9-0.3l22.6,11.7l-1-1.8l0,37.3H752z"/>
	<rect x="273.8" y="-379.8" class="st0" width="3.7" height="10.6"/>
	<rect x="279.2" y="-379.8" class="st0" width="3.6" height="10.6"/>
	<rect x="284.5" y="-379.8" class="st0" width="3.6" height="10.6"/>
	<path class="st0" d="M313.8-378.6c-1.1-1.1-3.6-1.1-3.6-1.1c-2.4-0.1-3.9,1.2-3.9,1.2v9.2h-0.6v1.7h8.7v-1.9h-0.6V-378.6z"/>
	<path class="st0" d="M306.3-363.7v9.1l7.4,0l0-9.2c-1.2-1-3.6-1.1-3.6-1.1C307.8-364.9,306.3-363.7,306.3-363.7"/>
	<path class="st0" d="M323.9-378.6c-1.1-1.1-3.6-1.1-3.6-1.1c-2.4-0.1-3.9,1.2-3.9,1.2v9.2h-0.7v1.7h8.7v-1.9h-0.6V-378.6z"/>
	<path class="st0" d="M316.5-363.7v9.1l7.4,0l0-9.2c-1.1-1-3.6-1.1-3.6-1.1C318-364.9,316.5-363.7,316.5-363.7"/>
	<path class="st0" d="M334.1-378.6c-1.2-1.1-3.6-1.1-3.6-1.1c-2.4-0.1-3.9,1.2-3.9,1.2v9.2H326v1.7h8.7v-1.9h-0.6V-378.6z"/>
	<path class="st0" d="M326.6-363.7v9.1l7.4,0l0.1-9.2c-1.2-1-3.6-1.1-3.6-1.1C328.1-364.9,326.6-363.7,326.6-363.7"/>
	<path class="st0" d="M384.3-378.6c-1.1-1.1-3.6-1.1-3.6-1.1c-2.4-0.1-3.9,1.2-3.9,1.2v9.2h-0.6v1.7h8.7v-1.9h-0.6V-378.6z"/>
	<path class="st0" d="M376.8-363.7v9.1l7.4,0l0-9.2c-1.1-1-3.6-1.1-3.6-1.1C378.3-364.9,376.8-363.7,376.8-363.7"/>
	<path class="st0" d="M394.4-378.6c-1.1-1.1-3.6-1.1-3.6-1.1c-2.4-0.1-3.9,1.2-3.9,1.2v9.2h-0.6v1.7h8.7v-1.9h-0.6V-378.6z"/>
	<path class="st0" d="M386.9-363.7v9.1l7.5,0l0-9.2c-1.2-1-3.6-1.1-3.6-1.1C388.4-364.9,386.9-363.7,386.9-363.7"/>
	<path class="st0" d="M404.6-378.6c-1.1-1.1-3.6-1.1-3.6-1.1c-2.4-0.1-3.9,1.2-3.9,1.2v9.2h-0.6v1.7h8.7v-1.9h-0.6V-378.6z"/>
	<path class="st0" d="M397.1-363.7v9.1l7.5,0l0-9.2c-1.1-1-3.6-1.1-3.6-1.1C398.6-364.9,397.1-363.7,397.1-363.7"/>
	<path class="st0" d="M349.3-378.6c-1.1-1.1-3.6-1.1-3.6-1.1c-2.4-0.1-3.9,1.2-3.9,1.2v9.2h-0.6v1.7h8.7v-1.9h-0.6V-378.6z"/>
	<path class="st0" d="M341.9-363.7v9.1l7.4,0l0-9.2c-1.1-1-3.6-1.1-3.6-1.1C343.4-364.9,341.9-363.7,341.9-363.7"/>
	<path class="st0" d="M359.5-378.6c-1.1-1.1-3.6-1.1-3.6-1.1c-2.4-0.1-3.9,1.2-3.9,1.2v9.2h-0.6v1.7h8.7v-1.9h-0.6V-378.6z"/>
	<path class="st0" d="M352-363.7v9.1l7.4,0l0-9.2c-1.1-1-3.6-1.1-3.6-1.1C353.5-364.9,352-363.7,352-363.7"/>
	<path class="st0" d="M369.6-378.6c-1.1-1.1-3.5-1.1-3.5-1.1c-2.5-0.1-4,1.2-4,1.2v9.2h-0.6v1.7h8.7v-1.9h-0.6V-378.6z"/>
	<path class="st0" d="M362.1-363.7v9.1l7.5,0l0-9.2c-1.1-1-3.5-1.1-3.5-1.1C363.6-364.9,362.1-363.7,362.1-363.7"/>
	<path class="st0" d="M705-369.4h-0.6v-9.2c0,0-1.5-1.2-4-1.2c0,0-2.4,0-3.6,1.1v9.1h-0.6v1.9h8.7V-369.4z"/>
	<path class="st0" d="M697-354.6l7.4,0v-9.1c0,0-1.5-1.2-3.9-1.2c0,0-2.4,0.1-3.6,1.1L697-354.6z"/>
	<path class="st0" d="M694.8-369.4h-0.6v-9.2c0,0-1.5-1.2-3.9-1.2c0,0-2.4,0-3.6,1.1v9.1h-0.6v1.9h8.7V-369.4z"/>
	<path class="st0" d="M686.8-354.6l7.5,0v-9.1c0,0-1.6-1.2-3.9-1.2c0,0-2.4,0.1-3.6,1.1L686.8-354.6z"/>
	<path class="st0" d="M684.7-369.4h-0.6v-9.2c0,0-1.5-1.2-3.9-1.2c0,0-2.4,0-3.5,1.1v9.1H676v1.9h8.7V-369.4z"/>
	<path class="st0" d="M676.7-354.6l7.4,0v-9.1c0,0-1.5-1.2-3.9-1.2c0,0-2.4,0.1-3.5,1.1L676.7-354.6z"/>
	<path class="st0" d="M634.5-369.4h-0.6v-9.2c0,0-1.5-1.2-3.9-1.2c0,0-2.4,0-3.6,1.1v9.1h-0.6v1.9h8.7V-369.4z"/>
	<path class="st0" d="M633.9-363.7c0,0-1.5-1.2-3.9-1.2c0,0-2.4,0.1-3.6,1.1l0.1,9.2l7.4,0V-363.7z"/>
	<path class="st0" d="M623.8-378.5c0,0-1.5-1.2-3.9-1.2c0,0-2.4,0-3.6,1.1v9.1h-0.6v1.9h8.7v-1.7h-0.6V-378.5z"/>
	<path class="st0" d="M616.3-363.8l0,9.2l7.5,0v-9.1c0,0-1.5-1.2-4-1.2C619.8-364.9,617.4-364.8,616.3-363.8"/>
	<path class="st0" d="M614.3-369.4h-0.6v-9.2c0,0-1.5-1.2-3.9-1.2c0,0-2.4,0-3.6,1.1v9.1h-0.6v1.9h8.7V-369.4z"/>
	<path class="st0" d="M613.6-363.7c0,0-1.5-1.2-3.9-1.2c0,0-2.4,0.1-3.6,1.1l0,9.2l7.4,0V-363.7z"/>
	<path class="st0" d="M669.5-369.4h-0.6v-9.2c0,0-1.5-1.2-3.9-1.2c0,0-2.4,0-3.6,1.1v9.1h-0.6v1.9h8.7V-369.4z"/>
	<path class="st0" d="M661.4-354.6l7.4,0v-9.1c0,0-1.5-1.2-3.9-1.2c0,0-2.4,0.1-3.6,1.1L661.4-354.6z"/>
	<path class="st0" d="M659.3-369.4h-0.6v-9.2c0,0-1.5-1.2-3.9-1.2c0,0-2.5,0-3.6,1.1v9.1h-0.6v1.9h8.7V-369.4z"/>
	<path class="st0" d="M651.3-354.6l7.4,0v-9.1c0,0-1.5-1.2-3.9-1.2c0,0-2.5,0.1-3.6,1.1L651.3-354.6z"/>
	<path class="st0" d="M649.1-369.4h-0.6v-9.2c0,0-1.5-1.2-3.9-1.2c0,0-2.4,0-3.6,1.1v9.1h-0.6v1.9h8.7V-369.4z"/>
	<path class="st0" d="M641.1-354.6l7.4,0v-9.1c0,0-1.5-1.2-3.9-1.2c0,0-2.4,0.1-3.6,1.1L641.1-354.6z"/>
	<path class="st0" d="M440.2-382c-3,0.1-3.7,0.8-3.7,0.8l0,9.9l7.8,0v-9.8C443.4-382.2,440.2-382,440.2-382"/>
	<path class="st0" d="M440.2-366.9c-3,0.1-3.7,0.8-3.7,0.8l0,9.9l7.8,0v-9.8C443.4-367.1,440.2-366.9,440.2-366.9"/>
	<path class="st0" d="M451.1-371.4h5.2v3.5h-5.2V-371.4z M450.3-354.7h6.7v-29.1h-6.7V-354.7z"/>
	<path class="st0" d="M461.5-371.4h5.2v3.5h-5.2V-371.4z M460.8-354.7h6.8v-29.1h-6.8V-354.7z"/>
	<path class="st0" d="M472-371.5h5.2v3.5H472V-371.5z M471.3-354.8h6.8v-29.1h-6.8V-354.8z"/>
	<path class="st0" d="M482.3-371.4h5.2v3.5h-5.2V-371.4z M481.5-354.7h6.8v-29.1h-6.8V-354.7z"/>
	<path class="st0" d="M523.3-371.4h5.1v3.5h-5.1V-371.4z M522.5-354.7h6.8v-29.1h-6.8V-354.7z"/>
	<path class="st0" d="M533.8-371.4h5.1v3.5h-5.1V-371.4z M533.1-354.7h6.7v-29.1h-6.7V-354.7z"/>
	<path class="st0" d="M544.3-371.5h5.2v3.5h-5.2V-371.5z M543.5-354.8h6.8v-29.1h-6.8V-354.8z"/>
	<path class="st0" d="M554.5-371.4h5.2v3.5h-5.2V-371.4z M553.8-354.7h6.8v-29.1h-6.8V-354.7z"/>
	<path class="st0" d="M574.5-381.3c0,0-0.8-0.7-3.7-0.8c0,0-3.2-0.1-4.1,0.8v9.8l7.8,0V-381.3z"/>
	<path class="st0" d="M574.5-366.2c0,0-0.8-0.7-3.7-0.8c0,0-3.2-0.1-4.1,0.8v9.8l7.8,0V-366.2z"/>
	<polygon class="st0" points="519.2,-369.8 516.9,-369.8 516.9,-383.6 493.6,-383.6 493.6,-369.8 491.4,-369.8 491.4,-368.8 
		519.2,-368.8 	"/>
	<path class="st0" d="M426.3-380c-1.1-1-3.6-1.1-3.6-1.1c-2.4-0.1-3.9,1.1-3.9,1.1v22.1h-0.6v1.7h8.7v-1.9h-0.6V-380z"/>
	<path class="st0" d="M592.6-358H592v-22c-1.2-1-3.6-1.1-3.6-1.1c-2.4-0.1-3.9,1.2-3.9,1.2v22.1h-0.6v1.7h8.7V-358z"/>
	<path class="st0" d="M515.9-360.5c-2.3-3.3-6.2-5.4-10.6-5.4c-4.5,0-8.4,2.2-10.7,5.4v-5.7h21.3V-360.5z M513.7-354.5h-17v-6
		c2.1-2.3,5.1-3.8,8.5-3.8c3.4,0,6.4,1.5,8.5,3.8V-354.5z M519.2-367.1h-27.9v14.1h27.9V-367.1z"/>
	<path class="st0" d="M275.3-364.4h11.2v9.7h-11.2V-364.4z M271.5-367.6h-0.2v3.2h0.2h0.5v11.5h17.9v-11.5h0.7v-3.2H271.5
		L271.5-367.6z"/>
	<path class="st0" d="M734.3-354.7h-11.3v-9.7h11.3V-354.7z M738.3-367.6L738.3-367.6h-19.2v2.2v1h0.7v11.5h17.8v-11.5h0.7v-1h0
		V-367.6z"/>
	<rect x="721.4" y="-379.7" class="st0" width="3.6" height="10.6"/>
	<rect x="726.8" y="-379.7" class="st0" width="3.6" height="10.6"/>
	<rect x="732.1" y="-379.7" class="st0" width="3.6" height="10.6"/>
</g>
<g>
	<path class="st1" d="M134.3-294c-15.1,0.2-13.6,17.8-13.6,17.8c-0.1,18.8,14.7,17,14.7,17c15-0.2,13.7-17.6,13.7-17.6
		C149.6-295.4,134.3-294,134.3-294z"/>
	<polygon class="st1" points="126,-220.8 138.4,-220.8 132.1,-237.4 	"/>
	<path class="st1" d="M54.8-306.5v112.2h109.1v-112.2H54.8z M106-233.6c-7.4-7.9-14.8-7.8-14.8-7.8c-13.6-1.3-15.8,9.6-15.8,9.6
		c-3.9,17.1,5.2,22.1,5.2,22.1c6.6,5,16,1.2,16,1.2c6.5-2,9.5-7.4,9.5-7.4v12l-3.1,1.5c-3.2,1.4-7.9,2.4-7.9,2.4
		c-27,4.4-29.8-18-29.8-18c-3.7-25.5,15.2-30,15.2-30c13.7-3.9,25.6,3.1,25.6,3.1V-233.6z M108-252.8h-9.3v-32.4l-10.9,31.9h-5.9
		l-10.9-31.9v32.4h-8.7v-47.5l11.2,0l11.8,34.2l11.4-34.3H108V-252.8z M145.6-200.4L141-213h-17.6l-4.8,12.6h-9.5l18.2-48h10.1
		l18.1,48H145.6z M135.2-251.5c0,0-23.9,1.8-24-25.5c0,0-1.2-24.4,24.2-24.8c0,0,24.3-0.7,23.4,26.2
		C158.8-275.6,159.6-251.7,135.2-251.5z"/>
</g>
<g>
	<path class="st0" d="M268.7-303.4H286v10.5h-17.3V-303.4z M266.5-291.1L266.5-291.1L266.5-291.1l21.7,0v0h0v-14.2h-21.7V-291.1z"/>
	<polygon class="st0" points="282.3,-317.9 286.9,-311.9 268.2,-311.9 273.8,-320.9 272,-322.1 265.7,-311.9 263.3,-311.9 
		263.3,-309.8 288.3,-309.8 289.8,-307.9 291.3,-309.3 284.1,-319.2 	"/>
	<polygon class="st0" points="303,-322.1 303,-314.2 294.2,-314.2 294.2,-312.1 303,-312.1 303,-292.9 294.2,-292.9 294.2,-290.9 
		305.3,-290.9 305.3,-322.1 	"/>
	<polygon class="st0" points="312.5,-322.1 310.2,-322.1 310.2,-291.1 321.4,-291.1 321.4,-293.1 312.5,-293.1 312.5,-312.2 
		321.4,-312.2 321.4,-314.2 312.5,-314.2 	"/>
	<path class="st0" d="M344.3-306.8h-13.5v-3h13.5V-306.8z M328.6-311.9v7.1h17.9h0v-7h0v-0.1H328.6z"/>
	<polygon class="st0" points="348.5,-322.1 345.8,-322 342,-316.7 338.7,-316.7 338.7,-322.1 336.4,-322.1 336.4,-316.7 333,-316.7 
		329.8,-322 327.3,-322 330.4,-316.7 324.3,-316.7 324.3,-309.6 326.4,-309.6 326.4,-314.6 348.9,-314.6 348.9,-309.6 351,-309.6 
		351,-316.7 351,-316.7 344.6,-316.7 	"/>
	<path class="st0" d="M328-295.8h8.4v3.3H328V-295.8z M328-300.8h8.4v3.3H328V-300.8z M338.6-295.8h8.5v3.3h-8.5V-295.8z
		 M338.6-300.8h8.5v3.3h-8.5V-300.8z M325.8-291h23.4v-11.6l-23.4,0.1V-291z"/>
	<polygon class="st0" points="364.2,-322 361.6,-322 360.9,-320.4 360.3,-319.4 360.4,-319.4 353.9,-305.3 356.5,-305.3 
		359.3,-311.8 359.4,-291.1 361.5,-291.1 361.5,-315.5 	"/>
	<polygon class="st0" points="371.5,-322.1 369.4,-322.1 372,-312.9 363.7,-312.9 363.7,-311 372.5,-311 378.1,-291.1 380.3,-291.1 
		374.6,-311 382.3,-311 382.3,-312.9 374.1,-312.9 	"/>
	<polygon class="st0" points="375.7,-321 380.7,-316 382.4,-317.4 377.3,-322.3 	"/>
	<path class="st0" d="M389.8-293.3l1.5-1.8h14.7l1,0.9L389.8-293.3z M413.5-295.2l0-1.9l-28.5,0l0,2h3.7l-1.7,2L385-293v1.8
		l24.2-1.3l1.4,1.3l3.1,0l-4.5-4H413.5z"/>
	<polygon class="st0" points="402.7,-301.7 404.2,-305.8 407.8,-303 407.8,-305.6 404.9,-307.8 407,-313.3 409,-313.3 409,-301.7 
		414,-301.7 414,-303.8 411.1,-303.8 411.1,-315.3 407.7,-315.3 408.1,-316.5 405.8,-316.5 405.4,-315.3 400.9,-315.3 400.9,-313.3 
		404.7,-313.3 403.2,-309.2 400.9,-311 400.8,-308.4 402.5,-307.1 400.4,-301.7 	"/>
	<rect x="385.4" y="-300.4" class="st0" width="28.7" height="1.9"/>
	<polygon class="st0" points="393.2,-316.9 395.3,-316.9 395.3,-318.5 403.7,-318.5 403.7,-316.9 405.9,-316.9 405.9,-318.5 
		414.1,-318.5 414.1,-320.5 405.9,-320.5 405.9,-322 403.7,-322 403.7,-320.5 395.3,-320.5 395.3,-322 393.2,-322 393.2,-320.5 
		385.3,-320.5 385.3,-318.5 393.2,-318.5 	"/>
	<path class="st0" d="M391.2-306.9h-5.1l5.2-3.4h2.1l5.2,3.4h-5.2v-2.4h-2.2V-306.9z M399.3-303.7h-5.9v-1.2h5.9v-1.5h0l0-2.4
		l-2.2-1.4h2.2v-1.9h-5.9v-1.1h5.9v-2h-5.9v-1.5h-2.2v1.5h-5.9v2h5.9v1.1h-5.9v1.9h2.2l-2.2,1.4l0,2h0v1.9h5.9v1.2h-5.9v2h14V-303.7
		z"/>
	<polygon class="st0" points="437.3,-317.8 435.5,-322 433.2,-322 435.1,-317.8 	"/>
	<polygon class="st0" points="424.6,-291.1 426.8,-291 429.5,-310.7 427.4,-310.7 	"/>
	<polygon class="st0" points="432.9,-310.7 435.6,-291 437.8,-291.1 435,-310.7 	"/>
	<polygon class="st0" points="446.7,-313.4 437.5,-313.4 437.5,-311.2 441.1,-311.2 441.1,-291 443.2,-291 443.2,-311.2 
		446.7,-311.2 	"/>
	<rect x="437.5" y="-321.6" class="st0" width="9.1" height="2.2"/>
	<polygon class="st0" points="424.4,-322.1 422,-322 417.3,-312.8 419.8,-312.7 	"/>
	<polygon class="st0" points="417.3,-304.5 419.8,-304.4 420.3,-305.5 420.3,-291.1 422.4,-291.1 422.4,-309.8 424.5,-313.8 
		422,-313.8 	"/>
	<polygon class="st0" points="437,-316.3 432.3,-316.3 432.3,-322 430.2,-322 430.2,-316.3 425.6,-316.3 425.6,-314.3 430.2,-314.3 
		430.2,-291.1 432.3,-291.1 432.3,-314.3 437,-314.3 	"/>
	<path class="st0" d="M465.9-298.6h7.4v5.6h-7.4V-298.6z M465.9-311.6h7.4v5.6h-7.4V-311.6z M463.7-291.1h11.7v-9.5h-9.6v-3.5h9.6
		v-9.6h-11.7L463.7-291.1z"/>
	<polygon class="st0" points="470.5,-319.1 470.5,-322.1 468.4,-322.1 468.4,-319.1 461.5,-319.2 461.5,-316.9 456.8,-322 
		454.2,-322.1 449.7,-317.2 449.7,-314.3 455.4,-320.4 461.6,-313.9 462.9,-313.9 463.7,-313.9 463.7,-317.4 475.6,-317.4 
		475.6,-314 477.7,-314 477.7,-314 477.7,-319.2 	"/>
	<path class="st0" d="M452.9-305.7h5.3v4.4h-5.3V-305.7z M452.9-311.6h5.3v4.2h-5.3V-311.6z M457.1-297.4l0.8,2.2l-5,1.3v-5.4l7.4,0
		v0h0v-14.1h0v-0.1h-3.8v-3h-2.1v3h-3.6l0,20.1l-1.2,0.3l0.1,2l8.9-2.3l0.8,2.3l2.2,0l-2.3-6.3L457.1-297.4z"/>
</g>
<g>
	<path d="M270.4-85.5h11.4v6.9h-11.4V-85.5z M269-77.4L269-77.4L269-77.4l14.3,0v0h0v-9.4H269V-77.4z"/>
	<polygon points="279.4,-95.1 282.4,-91.1 270.1,-91.1 273.8,-97.1 272.6,-97.8 268.4,-91.1 266.9,-91.1 266.9,-89.7 283.4,-89.7 
		284.3,-88.5 285.4,-89.4 280.6,-96 	"/>
	<polygon points="293.1,-97.9 293.1,-92.6 287.3,-92.6 287.3,-91.3 293.1,-91.3 293.1,-78.6 287.3,-78.6 287.3,-77.3 294.6,-77.3 
		294.6,-97.9 	"/>
	<polygon points="299.4,-97.9 297.8,-97.9 297.8,-77.4 305.2,-77.4 305.2,-78.7 299.4,-78.7 299.4,-91.3 305.2,-91.3 305.2,-92.6 
		299.4,-92.6 	"/>
	<path d="M320.3-87.8h-8.9v-2h8.9V-87.8z M310-91.1v4.7h11.8h0v-4.6h0v-0.1H310z"/>
	<polygon points="323.1,-97.8 321.3,-97.8 318.8,-94.3 316.6,-94.3 316.6,-97.8 315.1,-97.8 315.1,-94.3 312.9,-94.3 310.7,-97.8 
		309.1,-97.8 311.1,-94.3 307.1,-94.3 307.1,-89.6 308.5,-89.6 308.5,-92.9 323.3,-92.9 323.3,-89.6 324.7,-89.6 324.7,-94.3 
		324.7,-94.3 320.5,-94.3 	"/>
	<path d="M309.6-80.5h5.6v2.2h-5.6V-80.5z M309.6-83.8h5.6v2.2h-5.6V-83.8z M316.5-80.5h5.6v2.2h-5.6V-80.5z M316.5-83.8h5.6v2.2
		h-5.6V-83.8z M308.1-77.3h15.4V-85l-15.4,0.1V-77.3z"/>
	<polygon points="333.4,-97.8 331.7,-97.8 331.2,-96.7 330.9,-96.1 330.9,-96 326.6,-86.8 328.4,-86.8 330.2,-91.1 330.3,-77.4 
		331.7,-77.4 331.7,-93.5 	"/>
	<polygon points="338.2,-97.9 336.8,-97.9 338.6,-91.8 333.1,-91.8 333.1,-90.5 338.9,-90.5 342.6,-77.4 344.1,-77.4 340.3,-90.5 
		345.3,-90.5 345.3,-91.8 339.9,-91.8 	"/>
	<polygon points="341,-97.1 344.3,-93.8 345.4,-94.7 342.1,-98 	"/>
	<path d="M350.3-78.9l1-1.2h9.7l0.6,0.6L350.3-78.9z M365.9-80.1l0-1.3l-18.8,0l0,1.3h2.5l-1.1,1.3l-1.4,0.1v1.2l15.9-0.8l0.9,0.8
		l2.1,0l-3-2.6H365.9z"/>
	<polygon points="358.8,-84.4 359.8,-87.1 362.2,-85.3 362.2,-87 360.3,-88.4 361.6,-92.1 363,-92.1 363,-84.4 366.3,-84.4 
		366.3,-85.8 364.4,-85.8 364.3,-93.4 362.1,-93.4 362.4,-94.1 360.9,-94.1 360.6,-93.4 357.6,-93.4 357.6,-92.1 360.1,-92.1 
		359.1,-89.3 357.6,-90.5 357.6,-88.8 358.7,-88 357.3,-84.4 	"/>
	<rect x="347.4" y="-83.5" width="19" height="1.3"/>
	<polygon points="352.5,-94.4 354,-94.4 354,-95.5 359.5,-95.5 359.5,-94.4 360.9,-94.4 360.9,-95.5 366.3,-95.5 366.3,-96.8 
		360.9,-96.8 360.9,-97.8 359.5,-97.8 359.5,-96.8 354,-96.8 354,-97.8 352.5,-97.8 352.5,-96.8 347.3,-96.8 347.3,-95.5 
		352.5,-95.5 	"/>
	<path d="M351.2-87.8h-3.4l3.4-2.2h1.4l3.4,2.2h-3.4v-1.6h-1.4V-87.8z M356.6-85.8h-3.9v-0.8h3.9v-1h0l0-1.6l-1.4-0.9h1.4v-1.3h-3.9
		v-0.7h3.9v-1.3h-3.9v-1h-1.4v1h-3.9v1.3h3.9v0.7h-3.9v1.3h1.5l-1.4,0.9l0,1.3h0v1.3h3.9v0.8h-3.9v1.3h9.2V-85.8z"/>
	<polygon points="381.7,-95 380.5,-97.8 378.9,-97.8 380.2,-95 	"/>
	<polygon points="373.3,-77.4 374.7,-77.4 376.5,-90.3 375.1,-90.3 	"/>
	<polygon points="378.7,-90.3 380.5,-77.4 382,-77.4 380.1,-90.3 	"/>
	<polygon points="387.9,-92.1 381.8,-92.1 381.8,-90.7 384.1,-90.7 384.1,-77.3 385.5,-77.3 385.5,-90.7 387.9,-90.7 	"/>
	<rect x="381.8" y="-97.5" width="6" height="1.4"/>
	<polygon points="373.1,-97.8 371.5,-97.8 368.4,-91.7 370.1,-91.6 	"/>
	<polygon points="368.4,-86.2 370.1,-86.2 370.4,-86.9 370.4,-77.4 371.9,-77.4 371.9,-89.7 373.2,-92.4 371.6,-92.4 	"/>
	<polygon points="381.4,-94 378.4,-94 378.4,-97.8 377,-97.8 377,-94 373.9,-94 373.9,-92.7 377,-92.7 377,-77.4 378.4,-77.4 
		378.4,-92.7 381.4,-92.7 	"/>
	<path d="M400.5-82.4h4.9v3.7h-4.9V-82.4z M400.5-90.9h4.9v3.7h-4.9V-90.9z M399.1-77.4h7.7v-6.2h-6.3v-2.3h6.3v-6.3h-7.7
		L399.1-77.4z"/>
	<polygon points="403.5,-95.9 403.5,-97.9 402.1,-97.9 402.1,-95.9 397.6,-95.9 397.6,-94.4 394.5,-97.8 392.8,-97.8 389.8,-94.6 
		389.8,-92.7 393.6,-96.7 397.6,-92.5 398.6,-92.5 399,-92.5 399,-94.8 406.9,-94.8 406.9,-92.5 408.3,-92.5 408.3,-92.5 
		408.3,-95.9 	"/>
	<path d="M391.9-87.1h3.5v2.9h-3.5V-87.1z M391.9-90.9h3.5v2.7h-3.5V-90.9z M394.7-81.6l0.5,1.4l-3.3,0.9v-3.6l4.9,0v0h0v-9.3h0v0
		h-2.5v-2h-1.4v2h-2.4l0,13.3l-0.8,0.2l0,1.3l5.9-1.5l0.6,1.5l1.5,0l-1.5-4.2L394.7-81.6z"/>
</g>
</svg>
