<?xml version="1.0" encoding="utf-8"?>
<!-- Generator: Adobe Illustrator 15.1.0, SVG Export Plug-In . SVG Version: 6.00 Build 0)  -->
<!DOCTYPE svg PUBLIC "-//W3C//DTD SVG 1.1//EN" "http://www.w3.org/Graphics/SVG/1.1/DTD/svg11.dtd">
<svg version="1.1" id="圖層_1" xmlns="http://www.w3.org/2000/svg" xmlns:xlink="http://www.w3.org/1999/xlink" x="0px" y="0px"
	 width="52px" height="59px" viewBox="0 0 52 59" enable-background="new 0 0 52 59" xml:space="preserve">
<path d="M52,51.214c0-0.002,0-0.003,0-0.005v-5.667V6.583C52,2.953,48.949,0,45.199,0H8.06H7.941H6.8C3.051,0,0,2.953,0,6.583
	v44.688C0,55.533,3.589,59,8,59h37.2C48.949,59,52,56.047,52,52.417v-1.084c0-0.002,0-0.003,0-0.005V51.214z M48,6.583v36.959H10.06
	V4h35.14C46.744,4,48,5.159,48,6.583 M4,6.583c0-1.146,0.819-2.108,1.941-2.445v39.666c-0.052,0.014-0.102,0.03-0.153,0.045
	c-0.273,0.076-0.541,0.164-0.801,0.267c-0.027,0.011-0.055,0.018-0.082,0.028c-0.284,0.116-0.557,0.251-0.824,0.396
	C4.055,44.554,4.026,44.564,4,44.579V6.583z M45.199,55H8c-2.205,0-4-1.673-4-3.729c0-2.058,1.795-3.729,4-3.729h0.06H48v1.672H12.8
	c-1.104,0-2,0.896-2,2v0.114c0,1.104,0.896,2,2,2h35.011C47.409,54.302,46.395,55,45.199,55"/>
<path d="M19.4,28.635h19.2c1.104,0,2-0.895,2-2v-13.75c0-1.104-0.896-2-2-2H19.4c-1.105,0-2,0.896-2,2v13.75
	C17.4,27.74,18.295,28.635,19.4,28.635 M21.4,14.885h15.2v9.75H21.4V14.885z"/>
</svg>
