<?xml version="1.0" encoding="utf-8"?>
<!-- Generator: Adobe Illustrator 15.1.0, SVG Export Plug-In . SVG Version: 6.00 Build 0)  -->
<!DOCTYPE svg PUBLIC "-//W3C//DTD SVG 1.1//EN" "http://www.w3.org/Graphics/SVG/1.1/DTD/svg11.dtd">
<svg version="1.1" id="圖層_1" xmlns="http://www.w3.org/2000/svg" xmlns:xlink="http://www.w3.org/1999/xlink" x="0px" y="0px"
	 width="56.872px" height="57.477px" viewBox="0 0 56.872 57.477" enable-background="new 0 0 56.872 57.477" xml:space="preserve">
<path d="M18.446,38.828c0.589,0.595,1.372,0.923,2.205,0.923s1.616-0.328,2.205-0.923L38.478,23.04c1.213-1.225,1.213-3.218,0-4.442
	c-0.589-0.596-1.37-0.923-2.203-0.923h-0.001c-0.833,0-1.617,0.327-2.206,0.923L18.446,34.385
	C17.233,35.611,17.233,37.604,18.446,38.828"/>
<path d="M29.471,33.375l-4.49,4.539l0.062,0.268c0.335,1.436-0.076,2.909-1.098,3.943l-7.949,8.032
	c-0.782,0.791-1.824,1.226-2.932,1.226c-1.11,0-2.152-0.435-2.934-1.226l-2.878-2.908c-1.622-1.64-1.622-4.306,0-5.945l7.948-8.031
	c1.02-1.031,2.472-1.446,3.89-1.109l0.274,0.065l4.484-4.534l-0.55-0.326c-3.998-2.379-9.086-1.722-12.372,1.598L2.978,37
	c-3.97,4.012-3.97,10.541,0,14.553l2.878,2.908c1.925,1.945,4.484,3.018,7.208,3.018c2.721,0,5.281-1.072,7.206-3.018l7.948-8.033
	c3.28-3.315,3.932-8.452,1.581-12.488L29.471,33.375z"/>
<path d="M53.895,5.925l-2.877-2.908C49.093,1.071,46.533,0,43.81,0s-5.282,1.071-7.207,3.017l-7.947,8.033
	c-3.282,3.315-3.933,8.451-1.581,12.488l0.328,0.565l4.49-4.539l-0.063-0.269c-0.335-1.434,0.076-2.908,1.099-3.942l7.947-8.032
	c0.783-0.791,1.825-1.227,2.934-1.227s2.15,0.436,2.934,1.227l2.878,2.908c1.622,1.639,1.622,4.305,0,5.945l-7.949,8.032
	c-1.02,1.03-2.469,1.444-3.889,1.109L37.51,25.25l-4.484,4.532l0.55,0.327c1.606,0.956,3.388,1.421,5.158,1.421
	c2.638,0,5.248-1.034,7.214-3.02l7.947-8.032C57.864,16.466,57.864,9.937,53.895,5.925"/>
</svg>
