<?xml version="1.0" encoding="utf-8"?>
<!-- Generator: Adobe Illustrator 15.1.0, SVG Export Plug-In . SVG Version: 6.00 Build 0)  -->
<!DOCTYPE svg PUBLIC "-//W3C//DTD SVG 1.1//EN" "http://www.w3.org/Graphics/SVG/1.1/DTD/svg11.dtd">
<svg version="1.1" id="圖層_1" xmlns="http://www.w3.org/2000/svg" xmlns:xlink="http://www.w3.org/1999/xlink" x="0px" y="0px"
	 width="70.423px" height="60.964px" viewBox="0 0 70.423 60.964" enable-background="new 0 0 70.423 60.964" xml:space="preserve">
<path d="M53.774,10.832c-0.946,0-1.957,0.108-3.078,0.33C47.682,4.367,40.999,0,33.556,0c-9.057,0-16.908,6.648-18.454,15.541
	c-0.211-0.016-0.422-0.028-0.634-0.028h-0.153C6.421,15.513,0,21.933,0,29.823c0,8.002,6.105,14.271,13.898,14.271
	c0.198,0,0.76,0.022,1.054,0.034l0.204,0.008l17.869-0.002v9.541l-6.656-6.472l-2.702,2.778l11.296,10.982l11.296-10.982
	l-2.702-2.778l-6.657,6.472v-9.541l16.942-0.004c8.988-0.712,16.581-8.334,16.581-16.645C70.423,18.302,62.955,10.832,53.774,10.832
	 M36.899,40.261v-8.75h-3.875v8.75l-17.786,0.002c0,0-1.039-0.044-1.341-0.044c-5.62,0-10.022-4.566-10.022-10.396
	c0-3.215,1.443-6.206,3.959-8.207c1.839-1.462,4.091-2.231,6.411-2.231c0.799,0,1.606,0.091,2.407,0.277
	c3.514,0.904,6.135,3.935,6.523,7.543c0.113,1.057,1.089,1.837,2.133,1.72c0.515-0.055,0.977-0.307,1.302-0.709
	c0.325-0.404,0.474-0.909,0.418-1.423c-0.506-4.714-3.681-8.77-8.135-10.446C20.057,9.209,26.29,3.875,33.556,3.875
	c8.201,0,14.873,6.671,14.873,14.871c0,1.915-0.355,3.771-1.056,5.517c-0.194,0.48-0.188,1.007,0.015,1.483
	c0.203,0.476,0.58,0.844,1.062,1.037c0.98,0.392,2.13-0.107,2.519-1.075c0.887-2.208,1.336-4.55,1.336-6.962
	c0-1.26-0.142-2.559-0.421-3.866c0.703-0.117,1.313-0.172,1.892-0.172c7.044,0,12.773,5.731,12.773,12.777
	c0,7.021-6.655,12.27-12.878,12.775H36.899z"/>
</svg>
