<?xml version="1.0" encoding="utf-8"?>
<!-- Generator: Adobe Illustrator 15.1.0, SVG Export Plug-In . SVG Version: 6.00 Build 0)  -->
<!DOCTYPE svg PUBLIC "-//W3C//DTD SVG 1.1//EN" "http://www.w3.org/Graphics/SVG/1.1/DTD/svg11.dtd">
<svg version="1.1" id="圖層_1" xmlns="http://www.w3.org/2000/svg" xmlns:xlink="http://www.w3.org/1999/xlink" x="0px" y="0px"
	 width="86.172px" height="52.953px" viewBox="0 0 86.172 52.953" enable-background="new 0 0 86.172 52.953" xml:space="preserve">
<path d="M75.277,31.167c-1.502,0-2.935,0.306-4.237,0.859l-9.369-13.607c1.877-1.958,3.038-4.607,3.038-7.527
	C64.709,4.886,59.822,0,53.814,0c-6.006,0-10.891,4.886-10.891,10.892c0,2.92,1.161,5.57,3.038,7.528l-9.37,13.606
	c-1.303-0.554-2.735-0.859-4.237-0.859c-1.503,0-2.935,0.306-4.239,0.859L18.747,18.42c1.878-1.958,3.039-4.608,3.039-7.528
	C21.786,4.886,16.899,0,10.892,0C4.886,0,0,4.886,0,10.893c0,6.006,4.886,10.892,10.892,10.892c1.502,0,2.934-0.306,4.238-0.858
	l9.37,13.607c-1.876,1.958-3.037,4.606-3.037,7.526c0,6.007,4.886,10.892,10.892,10.892c6.006,0,10.892-4.885,10.892-10.892
	c0-2.92-1.161-5.568-3.038-7.526l9.371-13.606c1.302,0.551,2.733,0.857,4.234,0.857c1.503,0,2.936-0.306,4.238-0.858l9.371,13.608
	c-1.876,1.958-3.036,4.606-3.036,7.526c0,6.007,4.886,10.892,10.89,10.892c6.008,0,10.895-4.885,10.895-10.892
	C86.172,36.053,81.285,31.167,75.277,31.167 M4.4,10.893c0-3.58,2.912-6.492,6.492-6.492c3.581,0,6.494,2.912,6.494,6.492
	c0,3.579-2.913,6.492-6.494,6.492C7.312,17.384,4.4,14.471,4.4,10.893 M32.355,48.551c-3.58,0-6.492-2.912-6.492-6.491
	c0-3.581,2.912-6.492,6.492-6.492c3.58,0,6.492,2.911,6.492,6.492C38.847,45.639,35.935,48.551,32.355,48.551 M47.324,10.893
	c0-3.58,2.911-6.492,6.49-6.492c3.581,0,6.494,2.912,6.494,6.492c0,3.579-2.913,6.492-6.494,6.492
	C50.235,17.384,47.324,14.471,47.324,10.893 M75.277,48.552c-3.578,0-6.489-2.912-6.489-6.491c0-3.581,2.911-6.493,6.489-6.493
	c3.581,0,6.494,2.912,6.494,6.493C81.771,45.64,78.858,48.552,75.277,48.552"/>
</svg>
