<?xml version="1.0" encoding="utf-8"?>
<!-- Generator: Adobe Illustrator 16.0.0, SVG Export Plug-In . SVG Version: 6.00 Build 0)  -->
<!DOCTYPE svg PUBLIC "-//W3C//DTD SVG 1.1//EN" "http://www.w3.org/Graphics/SVG/1.1/DTD/svg11.dtd">
<svg version="1.1" id="圖層_1" xmlns="http://www.w3.org/2000/svg" xmlns:xlink="http://www.w3.org/1999/xlink" x="0px" y="0px"
	 width="309.775px" height="56.458px" viewBox="0 0 309.775 56.458" enable-background="new 0 0 309.775 56.458"
	 xml:space="preserve">
<g>
	<path d="M3.6,13.2c0.84,0,1.979,0.42,2.88,0.66c1.62,0.48,2.7,4.92,2.7,7.08c0,1.5-0.18,2.94-0.3,4.38
		c-0.42,1.08-0.06,2.221-0.479,3.3c-0.06,0.06-0.06,0.181-0.06,0.3c0,1.141,0.06,7.74,1.62,7.74c0.12,0,0.24,0,0.36-0.12
		c2.58-3.06,4.8-5.7,5.64-9.6c0.24-1.2,1.08-1.92,2.04-1.92c0.78,0,1.439,0.36,1.439,1.08c0,0.899-1.74,2.34-2.04,3.6
		c-0.18,0.42-0.78,2.22-1.44,2.76c-0.54,0.36-0.36,1.08-0.66,1.62c-0.48,1.02-1.5,1.859-1.62,2.64c0,0.66-1.2,1.5-1.5,2.4
		c-0.66,1.2-3,2.04-4.38,2.04c-1.98,0-4.56-2.221-5.46-4.26c-0.54-1.2-2.1-3.36-2.1-5.1c0-1.381-0.24-2.701-0.24-4.021
		C0,26.279,1.74,13.2,3.6,13.2z M5.64,2.82c1.38,0.3,3,0.24,3,1.74c0,1.38-0.72,3-2.28,3C4.92,7.56,4.5,5.7,4.5,4.62
		C4.5,4.02,4.62,2.82,5.64,2.82z"/>
	<path d="M39.298,47.218c-0.3,0-0.54,0.12-1.02,0.42c-3.18,0-4.26-4.44-4.38-7.62c0-0.6,0.06-1.199,0.06-1.74
		c0-0.84-0.24-1.56-0.24-2.34c0-0.959,1.08-2.639,1.08-2.879s-0.06-0.42-0.06-0.66c0-0.18,0.12-0.42,0.12-0.6
		c0-0.36-0.6-0.601-0.6-1.08c0-0.66,0.36-1.44,0.48-2.16c0-0.36-0.36-0.54-0.36-0.84c0-0.12,0.12-0.24,0.24-0.36
		c0.72-0.479,0.78-1.92,0.78-2.399c0-0.961-0.24-1.92-0.24-2.881c0-0.539,0.24-1.199,0.24-1.739c0-0.12-0.06-0.479-0.18-0.479
		c-0.54,0-3.96,3.239-4.14,4.739c-0.12,1.021-1.92,3.78-2.76,5.04c-1.8,2.76-3.3,5.399-6.78,5.399c-2.34,0-2.58-3.3-2.58-5.94
		c0-1.68,0.12-2.819,0.12-4.26c0-0.479-0.24-0.959-0.24-1.439c0-0.359,0.3-0.66,0.3-1.08c0-0.3-0.06-0.6-0.06-0.96
		c0-2.04,0.84-4.319,0.84-6.419c0-0.84,1.86-1.56,2.94-1.56c1.8,0,1.86,1.5,1.86,2.88c0,2.64-0.12,5.28-0.24,7.92
		c-0.18,1.14-1.14,2.46-1.14,3.659c0,0.181,0.12,0.301,0.24,0.48c1.5,0,3.48-4.619,5.88-6.3c0.66-0.72,1.26-1.86,1.98-2.7
		c0.96-1.14,3.24-2.1,3.54-2.58c0.66-0.96,1.92-1.14,2.94-1.14c2.76,0,2.52,2.1,2.52,7.979c0,1.2-1.26,1.62-1.26,2.641
		c0,0.18,0.12,0.42,0.12,0.66c0,0.239-0.18,0.6-0.18,0.84c0,0.42,0.66,0.899,0.66,1.199c0,0.36-0.66,0.541-0.96,0.78
		c0,0.36,0.24,0.84,0.24,0.96c0,0.061,0,0.061,0,0.061c-0.48,0.84-0.54,2.64-0.54,4.56c0,1.8-0.12,5.279,0.48,5.279
		c0.78,0,3-5.579,3.96-7.56c0.18-0.54,0.96-0.48,0.96-0.9c0.06-0.84,0.18-1.319,0.78-1.979c1.14-1.2,1.5-4.02,3.84-4.02
		c0.42,0,0.72,0.239,0.72,0.659c0,1.08-1.98,4.021-2.76,4.5c-0.36,0.541,0.06,1.44-0.48,1.86c-0.96,0.96-0.78,2.16-1.5,2.94
		c-0.06,0.06-0.84,3.239-0.84,3.18c0,0.359,0.12,0.779,0.12,1.14c0,1.2-1.2,1.92-1.2,2.7c0,0.66,0,1.08-0.6,1.379
		c-0.18,0.121-0.9,2.101-1.8,2.881C39.778,47.278,39.479,47.218,39.298,47.218z M35.699,29.039c0,0.06-0.06,0.06-0.12,0.12
		c0,0.18,0,0.24,0.12,0.36c0-0.12,0.06-0.181,0.12-0.3C35.819,29.159,35.759,29.098,35.699,29.039z M37.918,38.579h0.12l-0.06-0.18
		L37.918,38.579z"/>
	<path d="M70.438,35.699c0,1.5-0.96,2.52-2.64,2.52c-0.84,0-1.14-1.62-1.2-2.52c-2.34,0-2.7,2.28-4.68,3.18
		c-1.86,0.84-2.94,2.58-4.2,3.3c-1.38,0.48-2.34,2.939-3.3,4.439c-0.48,0.78-0.36,1.74-0.48,2.58c0,0.6,0.84,0.78,1.26,0.78
		c0.48,0,0.96-0.181,1.38-0.181c0.24,0,0.42,0.061,0.66,0.061c1.26,0.061,0.9-1.859,2.4-2.279c1.68-0.42,2.04-2.221,2.7-3.961
		c0.6-0.959,2.22-2.939,2.22-4.079c0,0.06,0,0.06,0,0.06c0.18,0,1.26-1.92,1.44-1.92c0.9,0,0.54,1.5,0.96,1.5
		c0.18,0,0.36-0.06,0.72-0.06c0.18,0,0.42,0.12,0.42,0.36c0,0.959-1.08,1.92-2.58,2.76c-0.24,0-0.42-0.061-0.66-0.121l0.12,0.121
		l-0.06-0.181c0.18,0.06,0.42,0.12,0.66,0.181c0,1.26,0.06,2.52-1.02,2.879c-0.72,0.121-0.42,1.44-1.2,1.74
		c-1.14,0.48-0.24,2.221-1.8,2.221c-0.78,0-0.9,1.139-1.5,1.319c-0.42,0.12-0.78,0.36-1.14,0.66c-1.44,1.14-2.28,1.2-3.72,1.2
		c-1.32,0-1.38,1.08-2.1,1.08c-1.5,0-3.3-3.121-3.3-4.2c0-0.181,0.72-1.44,1.02-2.34c0.06-0.48,1.14-5.399,4.14-7.2
		c1.02-0.6,1.14-1.859,2.52-2.22c1.8-0.479,2.58-2.58,3.18-2.58c1.2-0.18,1.26-1.439,2.46-1.439c1.32,0,1.68-2.101,3.24-2.46
		c2.4-0.6,2.16-3.061,2.64-6.12c0-0.78-0.54-1.68-1.44-1.68c-0.3,0-0.6,0.12-0.84,0.12c-0.36,0-0.72-0.301-1.14-0.301
		c-0.78,0-1.98,1.08-3.84,1.621c-1.32,0.42-1.62,0.719-2.88,1.56c-0.42-0.181-0.72-0.42-0.96-0.42c0,0-1.92,1.68-4.38,1.68
		c-0.36,0-0.42-0.84-0.84-1.08c-1.92-0.72-3.36-1.739-3.36-3.479c0-0.18,0.12-0.36,0.12-0.54c0-0.42-0.18-0.78-0.18-1.2
		c0-0.6,0.48-1.199,0.48-1.86c0.06-1.32,0.84-2.28,1.68-3.06c0.6-0.6,2.58-2.7,2.58-2.76c0.42-1.62,2.28-1.02,2.82-2.64
		c0.24-0.72,1.92-1.14,2.58-2.22c0.9-1.44,1.92-1.98,3-3.06c1.26,0.24,4.74,0.3,4.979,2.4c0,0.3-0.18,0.72-0.42,0.78
		c-1.68,0.24-3.18,1.74-4.02,3c-1.08,1.26-3.18,1.5-3.96,4.38c-0.24,0.9-1.86,1.38-2.28,2.82c-0.24,0.54-1.08,1.5-1.08,1.979
		c0,0.24,0.18,0.42,0.54,0.42c0.12,0,0.24,0,0.36-0.06c2.94-0.78,7.08-2.22,11.7-2.22c2.28,0,3.24,0.6,4.5,1.859
		c0.3,0.78-0.06,1.68,0.6,2.34c0.24-0.18,0.6-0.479,0.78-0.479c0.48,0,0.48,1.5,0.6,2.1c1.02,0.181,0.24,1.38,1.92,1.38
		c0.42,0,0.78-0.06,1.14-0.24c1.08-0.539,2.22-0.18,3.3-0.6c0.84,0.24,2.88,0.24,2.88,1.32c0,0.84-1.2,1.68-1.92,1.68
		c-0.36,0-0.66-0.12-0.96-0.12c-1.26,0-5.28,0.78-6,2.58c-0.12,0.239-0.36,0.36-0.66,0.36c-0.18,0-0.42-0.061-0.6-0.061
		c-0.6,0-2.34,1.439-2.34,2.46c0,0.181,0.06,0.36,0.06,0.54c0,0.24-0.12,0.3-0.36,0.3c-0.24,0-0.48-0.06-0.66-0.06
		c-0.54,0-0.96,0.42-0.96,1.14c0,0.479,0.06,0.899,0.3,1.319c-0.24-0.06-0.42-0.239-0.6-0.239c-0.3,0-0.3,0.18-0.42,0.42
		c1.08,0,1.02-0.54,1.14-1.56c0-0.301-0.06-0.541-0.06-0.84C70.258,34.858,70.438,35.219,70.438,35.699z"/>
	<path d="M86.338,17.519c0-0.84-0.24-1.62-0.24-2.459c0-0.84,0.42-1.14,0.96-1.98c-0.12-0.78-0.24-1.56-0.24-2.22
		c0-1.26,0.3-3.6,1.8-3.6c1.56,0,3.6,1.14,3.6,3.48c0,2.1-1.74,3.959-1.74,6.839c0,0.96-0.78,2.4-0.78,3.78
		c0,0.24,0.24,0.54,0.24,0.72c0,0.541-0.78,1.08-0.78,1.92c0,0.061,0,0.061,0.06,0.061c0,0,0.18,0,0.18-0.24
		c-0.06-0.18-0.06-0.42-0.12-0.6c0.36,0.18,0.72,0.3,1.08,0.3c1.02,0,2.16-2.399,2.94-3.479c1.5-2.04,6-6.48,10.259-6.48
		c0.78,0,1.5,0.24,2.16,0.54c0.36,0,0.72,0.9,1.44,0.96l1.32,1.74c0.12,0.42,0.3,0.84,0.3,1.32c0,1.14-0.18,3.36-0.78,4.379
		c-0.54,0.541-0.3,1.621-0.78,2.28c-0.84,1.14-1.8,2.34-2.22,3.66c-0.66,1.86-3.18,3.12-3.36,4.62c-0.36,1.199-2.22,1.08-2.22,1.859
		c0,1.38-6,3.12-7.44,3.12c-0.6,0-1.38-0.36-1.8-0.36c-0.84,0-1.56,3.12-1.56,5.34c0,0.48,0.24,0.9,0.24,1.38
		c0,0.421-0.12,0.9-0.12,1.32c0,0.659,0.06,1.56,0.42,1.979c0.72,0.961,0.78,2.641,0.78,3.9c0,0.779,0.66,1.56,0.66,2.399
		c0,0.96,0.24,2.46-2.34,2.46c-1.02,0-1.98-1.14-1.98-2.039c0-1.141-0.66-2.221-0.66-3.36c0-0.24,0.06-0.54,0.06-0.78
		c0-0.18-0.06-0.359-0.06-0.54c0-0.479,0.42-0.96,0.42-1.38c0-0.54-0.78-1.02-0.78-1.8s-0.48-1.2-0.48-1.8c0-0.48,0.18-0.9,0.3-1.38
		c-0.12-0.24-0.12-0.54-0.12-0.841c0-0.42,0.06-0.899,0.06-1.379c0-1.08-0.48-2.16-0.48-3.24c0-1.561,0.78-3.061,0.78-4.56
		c0-0.48-0.42-0.72-0.42-1.14c0-0.36,0.48-0.66,0.48-1.141s-0.3-0.96-0.3-1.439c0-1.801,1.2-2.16,1.2-2.7c0-0.3-0.54-0.78-0.54-1.2
		c0-0.66,0.6-1.8,0.6-2.82c-0.06-0.239-0.78-3.479-0.9-3.599C86.278,19.199,86.338,18.359,86.338,17.519z M87.058,27.719
		c-0.06,0.119-0.18,0.24-0.18,0.359c0,0.12,0.12,0.24,0.18,0.36c0.06-0.12,0.12-0.24,0.18-0.36
		C87.178,27.959,87.118,27.838,87.058,27.719z M86.999,42.598c0,0.12-0.06,0.18-0.12,0.301c0,0.06,0.06,0.119,0.12,0.18
		c0.06-0.061,0.12-0.18,0.18-0.24C87.118,42.778,87.058,42.659,86.999,42.598z M88.858,25.499c-0.48,0-0.72,0.721-0.78,1.08
		c0,0.061,0.06,0.18,0.12,0.18c0.3,0,0.72-0.6,0.78-1.079C88.918,25.62,88.918,25.559,88.858,25.499z M94.918,23.519
		c-0.18,0.06-0.3,0.3-0.36,0.54c-0.96,2.279-3.72,4.02-3.72,9.779c0,0.6,0.3,0.9,0.84,0.9c2.52,0,5.16-1.86,7.2-3.18
		c1.38-1.381,4.44-5.221,4.86-9.54c0.12-1.26,0.66-2.58,0.66-3.9s-0.36-1.32-1.02-1.32c-2.64,0-5.1,3.84-7.5,4.619
		C95.878,22.379,95.698,23.099,94.918,23.519z"/>
	<path d="M120.178,13.2c0.84,0,1.979,0.42,2.88,0.66c1.62,0.48,2.7,4.92,2.7,7.08c0,1.5-0.18,2.94-0.3,4.38
		c-0.42,1.08-0.06,2.221-0.479,3.3c-0.06,0.06-0.06,0.181-0.06,0.3c0,1.141,0.06,7.74,1.62,7.74c0.12,0,0.24,0,0.36-0.12
		c2.58-3.06,4.8-5.7,5.64-9.6c0.24-1.2,1.08-1.92,2.04-1.92c0.78,0,1.439,0.36,1.439,1.08c0,0.899-1.74,2.34-2.04,3.6
		c-0.18,0.42-0.78,2.22-1.44,2.76c-0.54,0.36-0.36,1.08-0.66,1.62c-0.48,1.02-1.5,1.859-1.62,2.64c0,0.66-1.2,1.5-1.5,2.4
		c-0.66,1.2-3,2.04-4.38,2.04c-1.98,0-4.56-2.221-5.46-4.26c-0.54-1.2-2.1-3.36-2.1-5.1c0-1.381-0.24-2.701-0.24-4.021
		C116.578,26.279,118.318,13.2,120.178,13.2z M122.218,2.82c1.38,0.3,3,0.24,3,1.74c0,1.38-0.72,3-2.28,3
		c-1.44,0-1.86-1.86-1.86-2.94C121.078,4.02,121.198,2.82,122.218,2.82z"/>
	<path d="M135.478,28.079c0.72-0.119,1.08-2.279,1.56-2.76c-0.06-0.3-0.06-0.54-0.06-0.84c0-1.02,0.66-2.16,0.66-2.82
		c0.12-2.22,1.68-4.56,2.64-6.659c0.3-0.72,1.86-3.72,2.34-3.72c0.12,0,0.3,0.06,0.42,0.06c0.66,0,1.26-0.24,1.92-0.24
		c1.86,0,2.04,2.16,2.4,3.48c0,0.36-0.12,0.66-0.18,1.2c1.02-1.38,2.7-2.88,2.88-3.66c0.24-0.96,2.88-3.42,4.919-3.42
		c3.24,0,4.14,3.24,4.14,5.4c0,2.28-0.48,3.18-2.22,4.439c-1.08,0.78-0.78,2.581-1.68,2.581c-2.52,0-1.8-7.26-2.7-7.26
		c-0.06,0-0.06,0.06-0.12,0.06c-2.4,1.44-5.46,6.12-6.6,8.939c-0.42,0.96-0.72,1.979-1.32,2.88c-1.02,1.5-0.6,2.82-2.34,6.96
		c-0.84,2.04-0.78,4.26-1.86,6.18c0.06-0.12-1.02,5.1-3.3,5.1c-1.5,0-2.04-2.04-2.04-4.02c0-0.54,0.12-1.021,0.12-1.62
		c0-0.84-0.24-1.68-0.24-2.699c0-1.141,0.24-3.181,1.02-4.141c0-0.06,0.06-0.119,0.06-0.24c0-0.359-0.3-0.72-0.3-1.02
		c0-0.54,0.24-1.32,0.36-1.8L135.478,28.079z M143.577,23.219l-0.12,0.18h0.18L143.577,23.219z"/>
	<path d="M163.318,32.219c0.479-0.121,0.84-0.36,0.9-0.9c0-1.98,0.78-3.96,1.5-5.82c0.72-1.859,1.14-3.84,3.24-6.839
		c1.68-2.4,2.4-5.4,6.54-5.4c2.76,0,4.14,1.26,5.52,3.06c1.56-0.78,2.58-2.7,4.439-3.42c1.02-0.42,1.62-1.44,3.12-1.44
		c1.32,0,3.18,0.66,3.18,3.48c0,3.9-1.74,8.459-1.74,12.959c0,0.9-0.96,2.16-0.96,3.42c0,2.76-0.6,5.82-0.6,8.58
		c0,0.959,0.06,1.859,0.06,2.76c0,0.42-0.06,0.899-0.06,1.26c0,0.42,0.12,0.84,0.48,1.199c-0.06,0.24-0.12,0.541-0.12,0.78
		c0,0.24,0.66,2.34,0.84,2.34c0.9,0,2.28-4.499,2.28-5.819c0.66-2.34,1.26-4.5,2.04-6.66c0.06-0.6,0.66-0.66,0.84-1.439
		c0.6-2.28,0.3-3.78,1.98-5.34c0.24-0.18,0.36-0.54,0.42-0.78c0.42-1.56,2.16-3.54,3.42-3.54c0.42,0,1.32,0.301,1.32,0.9
		c0,0.12-0.06,0.24-0.12,0.3c-0.42,0.66-3.6,4.5-3.6,6.36c-0.24,1.799-1.2,3.42-1.62,5.159c-0.42,1.681-0.72,3.899-1.5,5.399
		c-0.42,0.601-0.06,1.561-0.66,2.34c-0.48,0.9-0.48,2.94-0.48,4.2c-0.18,1.261-1.02,1.979-1.44,2.94c-0.48,1.08-1.92,1.08-2.82,1.08
		c-1.5,0-2.22-0.961-3.24-1.92c-0.6-0.541-0.36-1.261-0.66-1.44c-0.9-0.78-0.78-1.86-0.84-2.88c0-0.6,0.06-1.2,0.06-1.8
		c0-1.021-0.9-1.32-0.9-2.16c0-4.68,0.54-10.62,0.84-15.72c0.06-1.199,0.96-2.279,0.96-2.939c-0.06-0.3-0.06-0.66-0.06-0.96
		c0-4.2,0.3-3.42,0.9-4.56c0-0.72-0.3-1.32-0.36-1.98c-0.54,0.12-0.96,0.24-1.44,0.3c-0.96,0.18-0.24,1.68-1.74,1.68
		c-0.42,0.96-0.6,1.5-1.38,1.92c-0.12,0-2.28,1.92-2.4,2.459c-0.36,1.5-0.12,2.461-1.62,2.881c-0.42,0.119-2.52,4.739-3.72,7.26
		c-3,5.459-2.88,5.52-5.7,5.52c-1.98,0-4.2-1.32-4.2-3.84c-0.18-0.42,0.24-1.02-0.9-1.141V32.219z M178.137,17.159
		c-0.48,0-0.84,0.12-1.26,0.36c-3.78,2.521-6.6,8.34-7.5,12.899c0,0.24,0.06,0.42,0.36,0.42c0.24,0,3.36-4.199,4.2-5.58
		c0.42-0.659,0.9-1.379,1.56-1.92c1.26-1.02,1.98-2.579,3.3-3.599c0,0,0.9-1.2,0.9-1.8c0-0.12-0.06-0.24-0.06-0.42
		C179.217,17.339,178.557,17.159,178.137,17.159z"/>
	<path d="M206.396,23.999c-0.12,0-0.3,0.061-0.54,0.061c-0.54,0-0.9-2.22-0.9-2.939c0.06,0,0.12-0.061,0.12-0.061
		c0,0.12,0,0.061-0.06,0.12c0,0,0-0.06,0.06-0.12c-0.54,0.54-0.9,0.84-0.9,1.32c0,0.479,0.84,1.26,0.84,1.8
		c0,0.239-0.9,0.96-0.9,2.04c0,0.42,0.06,0.84,0.06,1.26c0,0.54-0.06,1.02-0.54,1.26v0.061c0-0.9-1.02-0.541-1.02-1.021
		c0-0.36,0.84-0.479,0.84-0.96c0-0.359-0.6-0.72-0.6-0.96c0-0.12,0.06-0.3,0.06-0.479c0-0.601-0.18-1.2-0.18-1.801
		c0-0.42,0.18-0.899,0.18-1.379c0-0.301-0.06-0.721-0.06-1.08c0-1.141,0.18-2.28,0.78-3.42c0.06-0.12,0.12-0.3,0.12-0.48
		c0-0.36-0.36-0.66-0.36-1.02c0-0.24,0.06-0.48,0.06-0.72c0-0.36-0.3-0.66-0.72-0.66c-0.42,0-0.42,0.24-0.6,0.36
		c-1.8,0-2.16,1.74-5.22,1.74c-0.66,0-3.96-0.54-3.96-2.34c0-0.66,1.68-0.66,2.4-0.78c1.26-0.24,2.58-1.32,3.24-1.32
		c0.18,0,1.92-1.68,4.26-2.04c1.56-0.36,1.74-4.32,1.74-6.54c0-0.54-0.06-1.08-0.12-1.62c0.72-1.38,1.26-2.28,2.82-2.28
		c1.98,0,2.46,1.38,2.46,3.96c0,0.84-0.12,1.68-0.48,1.92c0.06-0.06,0.12-0.06,0.18-0.06c0,0,0,0.06-0.06,0.12
		c0-0.06-0.06-0.12-0.06-0.18c0.54,0.36,0.42,1.14,1.02,1.38c0.96-0.36,3.24-1.5,5.04-1.5c0.84,0,1.98-1.5,2.7-1.5
		c0.36,0,0.66,0.78,1.02,0.78c0.54,0,0.42-1.08,1.26-1.08c2.46,0,1.5,2.34,2.16,2.34c0.06,0,0.18-0.06,0.24-0.18
		c0.12,0.24,0.18,0.42,0.18,0.6c0,0.42-1.14,1.5-1.38,1.5c-0.12,0-0.78-0.36-1.08-0.36c-0.24,0-0.66,0.42-1.02,0.42
		c-0.18,0-0.42-0.06-0.6-0.06c-0.24,0-0.48,0.06-0.66,0.18c-1.92,1.2-3.3,1.2-5.28,1.62c0.06,0-3.959,1.98-4.379,2.94
		c0.06,0.12,0.06,0.3,0.06,0.42c0,0.42-0.3,0.84-0.3,1.26c0,0.06,0,0.18,0.06,0.24c-0.18,1.5-0.3,2.94-0.48,4.44
		c0,0.9-0.78,1.56-0.78,2.459c0,1.44-0.12,1.86-0.36,3.12C206.696,24.179,206.696,23.999,206.396,23.999z M205.856,27.959
		c0.3,0,0.54-0.121,0.84-0.121c-0.24,0.78-0.66,1.32-0.66,2.041c0,0.299,0.12,0.659,0.12,0.959c0,2.82-0.54,5.28-0.54,7.92
		c0,0.6,0.66,0.96,0.66,1.561c0,0.42-0.72,0.6-0.72,1.26c0,0.18,0.06,0.72,0.3,0.84c1.26,0.72-0.3,3.42,1.56,3.42
		c0.96,0,2.94-3.42,3.9-5.16c1.38-2.52,3.06-4.68,4.74-7.08c0.12,0.48,0.24,0.721,0.24,0.961c0,0.42-0.24,0.66-0.84,1.319
		c-0.12,0.72-0.18,1.44-0.18,2.16c0,1.319,0.36,2.76,0.36,3.96c0,1.979-1.38,1.859-1.56,2.88c-0.06,0.479,0.06,1.56-0.24,1.56
		c-0.12,0-0.36-0.18-0.42-0.18c-0.96,0-1.02,0.06-1.2,0.9c0,0.659-0.72,0.539-0.9,1.199c-0.06,0.24-1.8,1.859-1.92,1.859
		s-0.24-0.06-0.36-0.06c-0.18,0-0.54,0.12-0.54,0.24c-0.3,0.899-1.92,1.14-2.34,1.14c-1.56,0-3-1.439-3-2.16
		c0-0.119,0-0.239,0.06-0.42c0-1.26-1.38-2.699-1.38-3.719c0-0.181,0.06-0.42,0.06-0.601c0-0.24-0.72-1.92-0.72-2.64
		c0-0.24,1.32-2.16,1.32-3.301c0-0.239-0.06-0.479-0.06-0.719c0-0.84,0.78-1.5,0.78-2.16c-0.12-0.18-0.18-0.42-0.42-0.42
		c-0.48,0-0.78,1.859-1.26,1.859c-0.12,0-0.42-0.24-0.42-0.359c0.42-0.78,0.42-2.82,1.02-2.82c0.24,0,0.42,0.42,0.84,0.42
		c0.24,0,0.78-0.42,0.78-0.96c0-0.239-0.18-0.36-0.6-0.54h-0.06c0.24-0.359,0.42-0.84,0.42-1.32c0-0.239-0.06-0.42-0.06-0.66
		c0-0.239,0-0.539,0.3-0.659c0.18,0,0.24,0.6,0.24,1.44c0,0.479-0.06,1.02-0.06,1.619c0,1.5,0.12,3,0.78,3
		c0.18,0,0.36-0.54,0.36-0.779c0-0.121-0.06-0.301-0.06-0.42c0-0.601,0.42-1.08,0.42-1.621c0-0.6-0.6-1.14-0.6-1.56
		c0-0.239,0.72-1.14,0.72-1.92c0-0.239-0.12-0.479-0.12-0.72c0-0.54,0.18-1.08,0.18-1.62l-0.06,0.06
		C205.676,27.959,205.796,27.959,205.856,27.959z M202.376,31.439c0,0.06-0.06,0.239-0.18,0.3c-0.24,0-0.18-0.359-0.18-1.08
		C202.196,31.018,202.376,31.139,202.376,31.439z M202.796,29.819c-0.06,0-0.18-0.18-0.3-0.24c0.18-0.18,0.54-0.119,0.66-0.18
		C203.156,29.639,203.036,29.819,202.796,29.819z M203.096,33.059c0.06,0,0.06,0,0.12-0.061c-0.06,0-0.06,0-0.12,0h0.06
		L203.096,33.059z M203.216,29.459l-0.06-0.061c0.18-0.24,0.3-0.42,0.48-0.66C203.576,29.039,203.396,29.219,203.216,29.459z
		 M203.996,39.899c0,0.06,0.06,0.18,0.12,0.18c0.72,0,0.96-1.02,0.96-1.5c0-0.301-0.12-1.2-0.36-1.2c-0.66,0.3-0.48,0.899-0.54,1.44
		C204.116,39.178,204.056,39.539,203.996,39.899z M206.996,25.679c0,1.079-1.44,1.319-1.44,2.159l0.06-0.06
		c-0.24,0.181-0.48,0.42-0.66,0.42s-0.36-0.18-0.36-0.3c0-0.721-0.06-1.5,0.24-2.1c0.12,0.24,0.36,0.359,0.54,0.479
		c0.24-1.319,0.6-1.26,1.38-1.5l-0.06-0.06C206.876,25.079,206.996,25.379,206.996,25.679z M205.376,19.379
		c0-0.06-0.06-0.06-0.12-0.06s-0.06,0.12-0.06,0.18c0,0,0.06,0,0.12,0.06C205.316,19.499,205.376,19.439,205.376,19.379z
		 M205.556,17.04c0,0.12,0.06,0.18,0.12,0.18c0,0,0.06-0.06,0.12-0.12c0-0.06,0-0.18-0.18-0.18
		C205.616,16.919,205.556,16.979,205.556,17.04z M211.616,46.258c-0.06,0-0.12,0.06-0.18,0.119c0,0.121,0,0.361,0.12,0.361
		c0.18,0,0.18-0.121,0.18-0.301C211.736,46.377,211.676,46.318,211.616,46.258z M213.416,44.758c0-0.301-0.24-0.48-0.54-0.48
		c-0.3,0-0.36,0.18-0.479,0.42c0,0.48,0.36,0.36,0.6,0.48C213.416,45.178,213.416,45.239,213.416,44.758z M212.996,42.298
		c-0.18,0-0.3,0.12-0.3,0.42c0,0.12,0.18,0.24,0.36,0.36c0.18,0,0.3-0.061,0.48-0.36C213.356,42.598,213.176,42.298,212.996,42.298z
		 M213.356,40.499c0.06-0.12,0.12-0.18,0.18-0.301c0-0.06-0.12-0.119-0.12-0.18c-0.06,0.12-0.12,0.24-0.18,0.36
		C213.296,40.438,213.356,40.438,213.356,40.499z M214.795,38.819c-0.12,0-0.18,0.119-0.18,0.18c0,0.12,0.06,0.3,0.18,0.3
		c0.06,0,0.06-0.06,0.12-0.06C214.916,39.059,214.855,38.819,214.795,38.819z M216.956,34.619c0-0.06-0.06-0.12-0.06-0.181
		c0-0.06,0.12-0.06,0.12-0.119c0.06,0.06,0.06,0.119,0.06,0.18S217.016,34.559,216.956,34.619z M217.916,32.338
		c0,0.18-0.18,0.301-0.42,0.301c-0.3,0-0.48-0.121-0.48-0.24c0-0.12,0.18-0.301,0.42-0.301
		C217.735,32.098,217.916,32.159,217.916,32.338z M220.976,26.338c0.12,0,0.24,0.061,0.24,0.181c0,0.96-0.6,2.7-1.44,2.7
		c-0.36,0-0.72-0.36-1.02-0.541C219.715,28.079,219.775,26.338,220.976,26.338z M221.996,25.559c-0.06-0.12-0.12-0.24-0.12-0.36
		c0.06-0.12,0.12-0.18,0.24-0.18c0.18,0,0.3,0.12,0.3,0.18s0,0.12-0.06,0.181C222.235,25.439,222.115,25.499,221.996,25.559z
		 M223.615,23.159c0-0.24,0.24-0.779,0.66-0.779c0.24,0,0.42,0.24,0.42,0.42c0,0.24-0.6,0.96-0.84,0.96
		C223.615,23.519,223.615,23.399,223.615,23.159z M226.195,20.459c-0.12,0-0.18-0.061-0.18-0.12c0-0.181,0.36-0.42,0.6-0.54
		l-0.06-0.12C226.495,19.919,226.435,20.459,226.195,20.459z M227.035,19.499c0.18,0,0.3,0.06,0.42,0.24
		c0,0.121-0.12,0.24-0.24,0.24c-0.18,0-0.42-0.18-0.6-0.18C226.735,19.679,226.855,19.499,227.035,19.499z M227.875,18.479
		c0-0.18,0.18-0.3,0.3-0.3c0.12,0,0.24,0.18,0.24,0.3c0,0.12-0.12,0.36-0.24,0.36c-0.06,0-0.06-0.06-0.12-0.06
		C227.995,18.659,227.875,18.539,227.875,18.479z M231.535,16.199c0-0.9,0.96-1.44,1.8-1.5c0.06,0,0.3,0.12,0.3,0.24
		c0,1.32-0.3,1.32-1.56,1.74C231.835,16.679,231.535,16.559,231.535,16.199z"/>
	<path d="M234.236,13.2c0.84,0,1.98,0.42,2.88,0.66c1.62,0.48,2.7,4.92,2.7,7.08c0,1.5-0.18,2.94-0.3,4.38
		c-0.42,1.08-0.06,2.221-0.48,3.3c-0.06,0.06-0.06,0.181-0.06,0.3c0,1.141,0.06,7.74,1.62,7.74c0.12,0,0.24,0,0.36-0.12
		c2.58-3.06,4.8-5.7,5.64-9.6c0.24-1.2,1.08-1.92,2.04-1.92c0.78,0,1.44,0.36,1.44,1.08c0,0.899-1.74,2.34-2.04,3.6
		c-0.18,0.42-0.78,2.22-1.44,2.76c-0.54,0.36-0.36,1.08-0.66,1.62c-0.48,1.02-1.5,1.859-1.62,2.64c0,0.66-1.2,1.5-1.5,2.4
		c-0.66,1.2-3,2.04-4.38,2.04c-1.98,0-4.56-2.221-5.46-4.26c-0.54-1.2-2.1-3.36-2.1-5.1c0-1.381-0.24-2.701-0.24-4.021
		C230.636,26.279,232.376,13.2,234.236,13.2z M236.276,2.82c1.38,0.3,3,0.24,3,1.74c0,1.38-0.72,3-2.28,3
		c-1.44,0-1.86-1.86-1.86-2.94C235.136,4.02,235.256,2.82,236.276,2.82z"/>
	<path d="M279.475,18c0.3,0,1.08,0.54,1.08,1.08c0,0.48-0.6,1.02-2.52,1.201c-2.04,0.18-3.959,1.139-5.7,1.979
		c-2.28,1.14-2.7,1.5-2.94,3.239c0,0.36-0.96,5.16-1.2,5.4c-1.32,0.72-0.3,2.58-1.2,3.72c-0.84,1.08-1.08,2.521-5.34,6.78
		c0,0,0-0.061-0.06-0.061c-0.42,0-2.58,1.26-3.36,1.74c-1.26-0.36-2.7-0.601-3.9-1.44c0,0-4.26-3.18-4.26-9.359
		c0-1.2,0.48-2.28,0.48-3.42c0-0.78,1.26-3.78,1.26-5.159c0-1.261-1.68-3.721-1.68-5.46c0-6.24,2.4-6.78,6.359-6.78
		c0.9,0,1.86,0,2.88,0c1.62,0,2.94,1.26,4.38,1.74c1.68,0.6,3.9,3.06,4.56,5.279c0.24,0.96,0.42,2.221,1.44,2.221
		c0.18,0,0.36-0.061,0.54-0.121c3-1.02,5.879-2.279,9.06-2.459C279.355,18.059,279.415,18,279.475,18z M256.436,13.679
		c-1.86,0.24-2.94,2.7-2.94,4.44c0,0.54,0,1.8,0.78,1.8c0.06,0,0.12,0,0.12-0.06c0.84-0.841,1.02-1.201,1.44-1.201
		c0.18,0,0.48,0.06,0.9,0.24c0.36,0.12,4.02,1.02,4.02,2.4c0,0.54-0.84,1.619-0.84,2.16c0,0.479,0.48,0.539,0.78,0.539
		c1.56-0.18,5.04-0.84,5.04-2.219c0-0.361,0-0.721-0.18-1.08c-1.5-3.24-4.02-7.2-8.159-7.2
		C257.156,13.56,256.796,13.62,256.436,13.679z M265.315,25.439c-2.16,0.78-4.32,1.68-6.66,1.68c-1.2,0.3-1.62,2.101-1.62,3.96
		c0,0.301,0.06,0.6,0.06,0.9c0,0.779-0.42,1.74-0.42,2.459c0,1.201,0.78,3.66,2.34,3.66c2.94,0,5.28-7.199,6.36-7.92
		c0.66-0.42,0.54-2.1,0.72-3.18C265.976,26.219,266.215,25.439,265.315,25.439z"/>
	<path d="M299.815,47.218c-0.3,0-0.54,0.12-1.02,0.42c-3.18,0-4.26-4.44-4.38-7.62c0-0.6,0.06-1.199,0.06-1.74
		c0-0.84-0.24-1.56-0.24-2.34c0-0.959,1.08-2.639,1.08-2.879s-0.06-0.42-0.06-0.66c0-0.18,0.12-0.42,0.12-0.6
		c0-0.36-0.6-0.601-0.6-1.08c0-0.66,0.36-1.44,0.48-2.16c0-0.36-0.36-0.54-0.36-0.84c0-0.12,0.12-0.24,0.24-0.36
		c0.72-0.479,0.78-1.92,0.78-2.399c0-0.961-0.24-1.92-0.24-2.881c0-0.539,0.24-1.199,0.24-1.739c0-0.12-0.06-0.479-0.18-0.479
		c-0.54,0-3.96,3.239-4.14,4.739c-0.12,1.021-1.92,3.78-2.76,5.04c-1.8,2.76-3.3,5.399-6.78,5.399c-2.34,0-2.58-3.3-2.58-5.94
		c0-1.68,0.12-2.819,0.12-4.26c0-0.479-0.24-0.959-0.24-1.439c0-0.359,0.3-0.66,0.3-1.08c0-0.3-0.06-0.6-0.06-0.96
		c0-2.04,0.84-4.319,0.84-6.419c0-0.84,1.86-1.56,2.94-1.56c1.8,0,1.86,1.5,1.86,2.88c0,2.64-0.12,5.28-0.24,7.92
		c-0.18,1.14-1.14,2.46-1.14,3.659c0,0.181,0.12,0.301,0.24,0.48c1.5,0,3.48-4.619,5.88-6.3c0.66-0.72,1.26-1.86,1.98-2.7
		c0.96-1.14,3.24-2.1,3.54-2.58c0.66-0.96,1.92-1.14,2.94-1.14c2.76,0,2.52,2.1,2.52,7.979c0,1.2-1.26,1.62-1.26,2.641
		c0,0.18,0.12,0.42,0.12,0.66c0,0.239-0.18,0.6-0.18,0.84c0,0.42,0.66,0.899,0.66,1.199c0,0.36-0.66,0.541-0.96,0.78
		c0,0.36,0.24,0.84,0.24,0.96c0,0.061,0,0.061,0,0.061c-0.48,0.84-0.54,2.64-0.54,4.56c0,1.8-0.12,5.279,0.48,5.279
		c0.78,0,3-5.579,3.96-7.56c0.18-0.54,0.96-0.48,0.96-0.9c0.06-0.84,0.18-1.319,0.78-1.979c1.14-1.2,1.5-4.02,3.84-4.02
		c0.42,0,0.72,0.239,0.72,0.659c0,1.08-1.98,4.021-2.76,4.5c-0.36,0.541,0.06,1.44-0.48,1.86c-0.96,0.96-0.78,2.16-1.5,2.94
		c-0.06,0.06-0.84,3.239-0.84,3.18c0,0.359,0.12,0.779,0.12,1.14c0,1.2-1.2,1.92-1.2,2.7c0,0.66,0,1.08-0.6,1.379
		c-0.18,0.121-0.9,2.101-1.8,2.881C300.295,47.278,299.995,47.218,299.815,47.218z M296.215,29.039c0,0.06-0.06,0.06-0.12,0.12
		c0,0.18,0,0.24,0.12,0.36c0-0.12,0.06-0.181,0.12-0.3C296.335,29.159,296.275,29.098,296.215,29.039z M298.435,38.579h0.12
		l-0.06-0.18L298.435,38.579z"/>
</g>
</svg>
