<?xml version="1.0" encoding="utf-8"?>
<!-- Generator: Adobe Illustrator 16.0.0, SVG Export Plug-In . SVG Version: 6.00 Build 0)  -->
<!DOCTYPE svg PUBLIC "-//W3C//DTD SVG 1.1//EN" "http://www.w3.org/Graphics/SVG/1.1/DTD/svg11.dtd">
<svg version="1.1" id="圖層_1" xmlns="http://www.w3.org/2000/svg" xmlns:xlink="http://www.w3.org/1999/xlink" x="0px" y="0px"
	 width="458.632px" height="89.816px" viewBox="0 0 458.632 89.816" enable-background="new 0 0 458.632 89.816"
	 xml:space="preserve">
<g>
	<path d="M5.76,43.679c0,1.5-0.84,1.62-0.84,2.64c0,0.24,0.06,0.721,0.24,0.721c0.06,0,0.18-0.181,0.36-0.181s0.24,1.44,0.24,2.399
		c0,2.041-0.96,2.4-0.96,4.141c0,0.72-0.06,1.199-0.06,1.979c0,1.14,0.24,2.28,1.68,2.28c0.06,0,0.12,0,0.18-0.061
		c0.06,0.9,0,2.16,0.36,2.221c0.9,0,2.88-8.52,4.38-11.4c0.18,0.061,0.3,0.061,0.42,0.061c0.6,0,0.18-1.38,0.6-1.38
		c0.3,0,0.18,2.28,0.6,2.28c0.42-0.42,0.42-2.041,0.42-3.121c0-0.479-0.12-1.02-0.12-1.5c0-1.559,0.48-3.779,1.92-4.559
		c0.48-0.24,0.6-1.92,0.78-2.7c0.18-1.021,0.96-1.8,1.26-2.82c0.12-0.54,2.16-2.22,3.12-2.22c0.36,0,0.96,0.18,0.96,0.48
		c0,1.379-1.44,2.819-2.4,3.779c-1.38,1.02-2.34,4.98-2.94,4.98c-0.24,0-0.3-0.42-0.6-0.42c-0.54,0-0.42,5.459-0.6,7.68
		c-0.24,0.18-0.48,0.299-0.78,0.479c-0.18,2.22,0.12,4.499-0.36,6.72c-0.24,0-0.54-0.061-0.84-0.061c-0.06,0.12-0.12,0.24-0.12,0.36
		c0,0.3,0.18,0.601,0.18,0.96c0,0.3-0.06,0.6-0.06,0.9c0,0.18,0.06,0.42,0.06,0.66c-0.06,2.1-1.02,3.659-1.56,5.52
		c-0.48,1.56-1.92,1.56-2.22,2.399c-0.18,0.54-1.32,1.5-1.38,1.5c-0.3,0-0.54-0.42-0.9-0.42c-0.42,0-0.9,0.3-1.32,0.3
		c-2.64-0.3-2.64-5.22-3.96-6.479c-0.18-0.181-0.24-0.601-0.24-1.14c0-2.82-0.96-2.04-0.96-5.58c0-1.02,0.06-2.16,0.06-2.939
		c0-1.021-0.36-1.86-0.36-2.82c0-1.38,0.36-2.76,0.36-4.14c0-0.601,0-1.14-0.06-1.74c0-1.14,1.02-0.36,1.02-1.08
		c0-0.36-0.06-0.72-0.06-1.079c0.06-1.201,0.12-2.4,0.12-3.601c0-1.44-0.66-2.64-0.66-3.96c0-2.16,0.48-3.959,0.84-6
		c0.06-0.119,0.12-0.3,0.12-0.539c0-0.541-0.18-1.08-0.18-1.681c0-0.54,0.36-1.02,0.36-1.56c0-0.42-0.12-0.84-0.12-1.32
		c0-1.32,0.42-3.06,0.42-4.26c0-0.48-0.06-0.96-0.06-1.38c0-0.96,0.06-1.86,0.06-2.76c0-0.84-0.36-1.44-0.36-2.101
		c0-1.319,1.68-1.379,2.76-1.379c1.98,0,2.16,0.42,2.16,2.039c0,3.12-0.72,7.381-0.72,9.96c0,0.3,0.24,0.601,0.24,0.96
		c0,0.061-0.06,0.12-0.06,0.12c-0.42,0.78-0.24,1.62-0.36,2.46c0,0.359,0.24,0.6,0.24,0.96c0,0.239-0.18,0.479-0.18,0.66
		c0,0.3,0.18,0.54,0.18,0.84c0,0.479-0.24,1.2-0.24,1.68s0.24,0.96,0.24,1.44c0,1.08-0.48,2.16-0.48,3.06
		c0,0.36,0.24,0.72,0.24,1.08c0,0.479-0.54,0.96-0.54,1.44c0,0.479,0.54,0.779,0.54,1.379c-0.18,1.5-0.36,1.98-0.54,3.12
		c0,0,0-0.06,0-0.12C5.7,42.238,5.76,42.778,5.76,43.679z M2.04,47.818c0-0.359-0.48-0.66-0.78-0.66c-0.3,0-0.42,0.301-0.42,0.78
		c0,0.18,0.06,0.42,0.18,0.659C1.38,48.418,2.04,48.358,2.04,47.818z M4.2,51.059c-0.06,0.119-0.12,0.24-0.12,0.359
		c0,0.061,0,0.12,0.06,0.18c0.06-0.06,0.12-0.18,0.18-0.239C4.32,51.178,4.32,51.178,4.2,51.059z M4.2,45.479l0.06-0.12l-0.12-0.06
		L4.2,45.479z M5.82,60.538c0,0.18,0.06,0.3,0.18,0.42c0.06-0.24,0.18-0.36,0.24-0.601c0-0.06-0.12-0.24-0.18-0.3
		C5.82,60.058,5.82,60.357,5.82,60.538z M10.44,52.198c-0.06,0.601-0.06,1.2-0.06,1.8c0,0,0.06,0.061,0.12,0.12
		c0.12,0,0.12-0.42,0.12-0.96c0-0.3,0-0.66,0-0.9L10.44,52.198z M13.26,51.178c0-0.119-0.06-0.18-0.18-0.18
		c-0.18,0-0.24,0.12-0.3,0.301c0,0.119,0.12,0.18,0.24,0.18C13.14,51.358,13.26,51.299,13.26,51.178z M14.04,47.459
		c0,0.119,0.06,0.239,0.12,0.299c0-0.06,0.06-0.119,0.06-0.18c0-0.24-0.06-0.42-0.06-1.02C14.1,47.099,14.04,47.278,14.04,47.459z
		 M16.379,38.398c-0.06,0-0.12,0.061-0.12,0.12s0.06,0.12,0.06,0.181c0.06,0,0.12,0,0.18-0.061
		C16.5,38.578,16.439,38.398,16.379,38.398z"/>
	<path d="M23.1,28.859c0.84,0,1.98,0.42,2.88,0.66c1.62,0.479,2.7,4.92,2.7,7.079c0,1.5-0.18,2.94-0.3,4.38
		c-0.42,1.08-0.06,2.221-0.48,3.3c-0.06,0.06-0.06,0.181-0.06,0.3c0,1.141,0.06,7.74,1.62,7.74c0.12,0,0.24,0,0.36-0.12
		c2.58-3.06,4.8-5.7,5.64-9.6c0.24-1.2,1.08-1.92,2.04-1.92c0.78,0,1.44,0.36,1.44,1.08c0,0.899-1.74,2.34-2.04,3.6
		c-0.18,0.42-0.78,2.22-1.44,2.76c-0.54,0.36-0.36,1.08-0.66,1.62c-0.48,1.02-1.5,1.859-1.62,2.64c0,0.66-1.2,1.5-1.5,2.4
		c-0.66,1.2-3,2.04-4.38,2.04c-1.98,0-4.56-2.221-5.46-4.26c-0.54-1.2-2.1-3.36-2.1-5.1c0-1.381-0.24-2.701-0.24-4.021
		C19.5,41.938,21.24,28.859,23.1,28.859z M25.14,18.479c1.38,0.3,3,0.24,3,1.74c0,1.38-0.72,2.999-2.28,2.999
		c-1.44,0-1.86-1.859-1.86-2.939C24,19.68,24.12,18.479,25.14,18.479z"/>
	<path d="M41.28,57.598c-1.68-3.119-1.74-6.899-1.74-10.439c0-0.359,0.06-0.72,0.06-1.08c0.48-3.779,0.54-7.619,0.84-11.459
		c0.06-1.02,0.42-2.28,0.42-3.12c0-0.54-0.36-1.14-0.36-1.68s0.12-1.44,0.72-1.44c1.38,0,4.32,0.42,4.32,1.74
		c0,6.72-1.2,12.659-1.2,18.899c0,0.3,0,0.899,0.3,0.899c0.54,0,2.28-3.539,2.94-4.379c0.48-0.601,0.78-1.74,1.14-2.101
		c0.66-0.66,0.9-1.44,0.9-2.28c0-0.359-0.12-0.779-0.12-1.14c0-0.479,0.12-1.021,0.12-1.5c0-1.68,4.26-1.979,7.14-2.7
		c3.9-0.959,8.04-1.799,12.059-1.799c0.9,0,2.34,0.84,2.34,1.619c0,0.54-0.48,1.2-1.08,1.26c-4.5,0.301-9.3,2.641-14.1,3.66
		c-2.76,0.6-2.64,2.939-4.2,4.859c-1.8,2.221-3.06,6.48-4.44,9.78c-1.38,3.239-2.22,3.54-4.32,3.54
		C42.36,58.318,41.82,57.958,41.28,57.598z"/>
	<path d="M73.559,28.859c0.84,0,1.98,0.42,2.88,0.66c1.62,0.479,2.7,4.92,2.7,7.079c0,1.5-0.18,2.94-0.3,4.38
		c-0.42,1.08-0.06,2.221-0.48,3.3c-0.06,0.06-0.06,0.181-0.06,0.3c0,1.141,0.06,7.74,1.62,7.74c0.12,0,0.24,0,0.36-0.12
		c2.58-3.06,4.8-5.7,5.64-9.6c0.24-1.2,1.08-1.92,2.04-1.92c0.78,0,1.44,0.36,1.44,1.08c0,0.899-1.74,2.34-2.04,3.6
		c-0.18,0.42-0.78,2.22-1.44,2.76c-0.54,0.36-0.36,1.08-0.66,1.62c-0.48,1.02-1.5,1.859-1.62,2.64c0,0.66-1.2,1.5-1.5,2.4
		c-0.66,1.2-3,2.04-4.38,2.04c-1.98,0-4.56-2.221-5.46-4.26c-0.54-1.2-2.1-3.36-2.1-5.1c0-1.381-0.24-2.701-0.24-4.021
		C69.959,41.938,71.699,28.859,73.559,28.859z M75.599,18.479c1.38,0.3,3,0.24,3,1.74c0,1.38-0.72,2.999-2.28,2.999
		c-1.44,0-1.86-1.859-1.86-2.939C74.459,19.68,74.579,18.479,75.599,18.479z"/>
	<path d="M109.258,62.878c-0.3,0-0.54,0.12-1.02,0.42c-3.18,0-4.26-4.44-4.38-7.62c0-0.6,0.06-1.199,0.06-1.74
		c0-0.84-0.24-1.56-0.24-2.34c0-0.959,1.08-2.639,1.08-2.879s-0.06-0.42-0.06-0.66c0-0.18,0.12-0.42,0.12-0.6
		c0-0.36-0.6-0.601-0.6-1.08c0-0.66,0.36-1.44,0.48-2.16c0-0.36-0.36-0.54-0.36-0.84c0-0.12,0.12-0.24,0.24-0.36
		c0.72-0.479,0.78-1.92,0.78-2.399c0-0.961-0.24-1.92-0.24-2.881c0-0.539,0.24-1.199,0.24-1.739c0-0.12-0.06-0.479-0.18-0.479
		c-0.54,0-3.96,3.239-4.14,4.739c-0.12,1.021-1.92,3.78-2.76,5.04c-1.8,2.76-3.3,5.399-6.78,5.399c-2.34,0-2.58-3.3-2.58-5.94
		c0-1.68,0.12-2.819,0.12-4.26c0-0.479-0.24-0.959-0.24-1.439c0-0.359,0.3-0.66,0.3-1.08c0-0.3-0.06-0.6-0.06-0.96
		c0-2.04,0.84-4.319,0.84-6.419c0-0.84,1.86-1.561,2.94-1.561c1.8,0,1.86,1.5,1.86,2.88c0,2.64-0.12,5.28-0.24,7.92
		c-0.18,1.14-1.14,2.46-1.14,3.659c0,0.181,0.12,0.301,0.24,0.48c1.5,0,3.48-4.619,5.88-6.3c0.66-0.72,1.26-1.86,1.98-2.7
		c0.96-1.14,3.24-2.1,3.54-2.58c0.66-0.959,1.92-1.14,2.94-1.14c2.76,0,2.52,2.101,2.52,7.979c0,1.2-1.26,1.62-1.26,2.641
		c0,0.18,0.12,0.42,0.12,0.66c0,0.239-0.18,0.6-0.18,0.84c0,0.42,0.66,0.899,0.66,1.199c0,0.36-0.66,0.541-0.96,0.78
		c0,0.36,0.24,0.84,0.24,0.96c0,0.061,0,0.061,0,0.061c-0.48,0.84-0.54,2.64-0.54,4.56c0,1.8-0.12,5.279,0.48,5.279
		c0.78,0,3-5.579,3.96-7.56c0.18-0.54,0.96-0.48,0.96-0.9c0.06-0.84,0.18-1.319,0.78-1.979c1.14-1.2,1.5-4.02,3.84-4.02
		c0.42,0,0.72,0.239,0.72,0.659c0,1.08-1.98,4.021-2.76,4.5c-0.36,0.541,0.06,1.44-0.48,1.86c-0.96,0.96-0.78,2.16-1.5,2.94
		c-0.06,0.06-0.84,3.239-0.84,3.18c0,0.359,0.12,0.779,0.12,1.14c0,1.2-1.2,1.92-1.2,2.7c0,0.66,0,1.08-0.6,1.379
		c-0.18,0.121-0.9,2.101-1.8,2.881C109.738,62.938,109.438,62.878,109.258,62.878z M105.658,44.698c0,0.06-0.06,0.06-0.12,0.12
		c0,0.18,0,0.24,0.12,0.36c0-0.12,0.06-0.181,0.12-0.3C105.778,44.818,105.718,44.758,105.658,44.698z M107.878,54.238h0.12
		l-0.06-0.18L107.878,54.238z"/>
	<path d="M141.777,55.078c0,0.6-0.96,2.04-1.68,2.279c0.42,0.301,0.6,0.48,0.6,0.66c0,0.36-0.72,0.78-0.72,1.26
		c0,0.301,0.66,0.42,0.66,0.721c0,0.48-0.84,0.779-0.84,1.439c0,0.301,0.24,0.6,0.24,0.84c0,0.541-0.3,1.021-0.36,1.5
		c0,0.18-0.96,0.78-0.96,1.62c0,0.78,0.3,1.2,0.3,1.74c0,1.56-1.44,5.76-1.44,6.6c0,0.06,0,0.181,0.06,0.24
		c0,1.079-1.44,3.06-1.44,3.54c0,0.24,0.24,0.479,0.24,0.72c0,0.42-0.48,0.659-0.48,1.079c-0.06,1.44-1.38,3.061-1.38,4.08
		c0,0.181,0.12,0.42,0.12,0.541c0,0.479-0.6,0.899-0.6,1.379c0,2.7-2.22,4.5-4.68,4.5c-0.66,0-1.38-0.06-1.98-0.42
		c-3.18-2.1-5.04-3.18-5.04-9.299c0-1.381,0.42-2.701,0.42-4.08c0-0.78,1.26-5.82,2.22-6.54c1.08-0.84,0.24-2.521,1.5-3.36
		c0.12-0.119,0.24-0.42,0.3-0.6c0.3-1.38,1.02-1.859,1.68-3.119c0.36-1.32,1.08-2.281,2.22-3c0.12-0.061,0.18-0.24,0.24-0.36
		c0.54-1.979,2.7-2.761,3.24-4.2c0.12-0.42,2.16-3.3,2.7-3.3c0.18,0,0.36,0.06,0.54,0.12c0.48-1.32,1.98-3.9,1.98-5.52
		c0-0.6-0.36-1.141-0.36-1.62c0-0.601,0.48-1.5,0.48-2.34c0-0.479-0.12-1.021-0.12-1.56c0-1.2,0.42-2.461,0.42-3.721
		c0-0.6,0.06-1.68-0.42-1.68c-0.18,0-0.3,0.061-0.36,0.24c-0.42,1.14-1.02,1.74-2.22,1.74c-0.06,0-0.18-0.061-0.24-0.121
		c-0.36,0-0.72,1.801-1.32,2.101v-0.12l0.06,0.061c-0.18,0.24-0.3,0.6-0.54,0.72c-1.32,0.36-1.86,2.04-2.88,2.34
		c-0.9,0.3-1.08,1.26-1.62,1.8c-0.66,0.66-1.08,0.779-1.68,1.68c-0.24,1.02-2.16,4.8-4.2,5.221c-3.66,0-5.82-2.16-5.82-5.7
		c0-1.56,0.6-2.28,0.84-3.24c0.24-1.08,0.72-2.159,1.14-3.18c0.36-0.96,1.62-1.26,1.98-2.399c0.36-1.201,1.98-1.92,2.4-3.121
		c0.6-1.739,4.8-5.1,7.8-5.1c1.2,0,2.22,0.181,3.36,0.42c1.32,0.301,2.28,1.681,3.24,1.681c0.3,0,0.54-0.181,0.78-0.54
		c1.14-1.141,0.72-1.561,1.62-1.561c1.8,0,5.28,0.721,5.28,3.541c0,2.399-2.28,6.419-2.28,9.839c0,0.78-0.84,1.5-0.84,2.28
		c0,0.779,0.24,0.84,0.72,0.84c0.36,0,0.72-0.12,1.02-0.42c0.36-0.301,3.3-1.801,4.8-1.801c0.6,0,2.7,0.66,2.7,1.98
		c0,1.26-1.68,0.721-2.1,1.141c-0.72,0.779-1.8,0.6-2.64,1.079c-1.86,1.08-1.98,1.74-3.06,2.4c-0.84,0.84-0.6-0.48-2.94,2.579
		c-0.36,0.42-0.24,1.141-0.66,1.621c-0.12,0.119-0.6,1.02-0.6,1.199c0,0,0,0,0-0.061C141.657,54.538,141.777,54.838,141.777,55.078z
		 M136.917,31.739c-1.08,0-8.1,5.04-8.1,5.579c0,0.601-0.96,1.98-1.86,3.061c-0.54,0.66-2.22,2.939-2.22,3.359
		c0.12,0.36,0,0.54,0.36,0.54c0.06,0,0.12-0.06,0.12-0.06c2.46-1.5,4.2-4.26,6.36-5.34c0.6-0.301,1.74-2.16,2.7-2.939
		c0.66-0.541,1.32-0.961,1.74-1.74c0.48-0.84,1.68-0.18,1.86-1.74C137.578,32.159,137.458,31.739,136.917,31.739z M134.218,76.438
		c0-0.54,0.72-1.2,0.72-1.86c0-2.28,1.32-4.56,1.32-7.14c0-1.08,0.72-1.62,0.72-2.279c0-0.301-0.54-0.601-0.54-0.78
		c0-0.06,0.06-0.181,0.18-0.36c0.24-0.42,1.08-4.02,1.08-6.119c0-0.24-0.54-0.601-0.72-0.601c-0.24,0-1.5,1.14-1.8,1.74
		c-4.08,7.079-9.419,13.499-9.419,22.499c0,1.74,0.42,4.08,2.16,4.8c0.78-0.181,1.56-0.42,2.28-0.601c0.48-0.6,0.84-1.199,1.32-1.68
		c0.54-0.479,0.24-1.26,0.66-1.8c1.08-1.319,0.6-3.239,2.28-4.62C134.278,77.037,134.218,76.678,134.218,76.438z M132.838,38.519
		c0,0.06-0.06,0.06-0.12,0.12c0,0.12,0,0.24,0.12,0.24c0.06,0,0.12-0.061,0.12-0.18C132.898,38.639,132.898,38.578,132.838,38.519z
		 M135.298,39.179v-0.12l0.06,0.061L135.298,39.179z M139.018,61.378c0,0.06,0.18,0.18,0.18,0.18c0.06,0,0.12-0.12,0.12-0.239
		c0-0.061,0-0.061-0.06-0.121C139.078,61.197,139.018,61.258,139.018,61.378z"/>
	<path d="M202.496,51.838c-1.26,1.26-1.86,1.26-1.86,3c0,0.301,0.06,0.6,0.06,0.9c0,3.24-1.56,3.72-2.58,6.42
		c-0.36,0.66-1.02,1.08-1.62,1.439c-0.3-0.18-0.72-0.48-0.9-0.48c-0.3,0-0.66,0.84-1.02,0.84c-0.66,0-3.18-1.379-3.3-2.52
		c0-0.479-1.14-0.539-1.14-1.38c0-0.18,0.06-0.36,0.06-0.54c0-0.42-0.54-0.66-0.54-0.959c0-0.24,0.24-0.541,0.24-0.841
		c0-0.479-0.84-0.479-0.84-1.14c0-1.561,0.18-3,0.18-4.5c-0.06-0.3-0.06-0.66-0.06-0.96c0-0.899,0.18-1.739,0.66-2.521
		c0.06-0.06,0.06-0.18,0.06-0.299c0-0.36-0.12-0.66-0.12-0.961c0-0.959,0.84-2.039,0.84-3.18c0-1.439,0.72-2.22,0.72-3.06
		c0-0.479-0.42-0.899-0.42-1.38c0-1.02,0.42-2.279,0.6-3.42c0-0.6-0.24-0.96-0.9-1.08c-0.36,0.12-1.14,0.36-1.14,0.84
		c0,1.141-1.32,1.86-2.1,2.4c-0.6,0.24-0.78,1.5-1.62,2.039c-0.9,0.541-3.06,6.78-6.66,6.78c-0.9,0-1.92-0.66-2.88-1.2
		c-1.32-0.72-1.26-4.26-1.86-6.299c-0.12-0.24-0.18-0.541-0.18-0.781c0-1.499,1.02-3.899,1.02-4.68c0-1.439,0.9-2.52,0.9-3.899
		c0,0.24,1.26-7.439,3.06-7.439c1.26,0,2.76,1.739,2.76,2.399c0,1.5-1.44,3.061-1.5,4.74c-0.12,2.58-1.14,5.82-1.14,9
		c0,0.539,0.24,1.08,0.42,1.619c1.2,0,4.86-4.5,6.84-6.119c1.8-1.44,5.1-4.26,5.939-4.26c2.64,0.18,4.92,0.539,4.92,3.66
		c0,2.459-0.18,7.499-1.56,10.799c-0.48,1.141-0.48,2.52-0.72,3.72c0.06,0.3,0.06,0.66,0.06,0.96c0,2.221-0.96,4.561-0.96,5.82
		c0,0.539,0.36,2.399,0.96,2.399c0.9,0,2.7-3.6,2.7-4.499c0-0.9,1.38-1.5,1.38-2.041c-0.06-0.299-0.18-0.6-0.18-0.899
		c0-0.24,0.18-0.66,0.48-0.66c0.18,0,0.48,0.3,0.54,0.3c-0.06,0,0.48-0.72,0.72-0.959c0.9-0.9,0.6-5.101,2.82-5.101l-0.06-0.06
		c-0.3,1.14-0.24,2.1-0.48,3.06c-0.24,0-0.36,0-0.36,0.06c0,0.061,0.06,0.121,0.12,0.24c0,0,0.18-0.18,0.18-0.359
		c0,0.6-0.78,1.26-0.78,1.859c0,0.36,0.54,0.54,0.84,0.6C202.616,50.038,202.616,50.938,202.496,51.838z M200.216,53.878
		c0-0.42-0.12-0.78-0.12-1.2c-0.06,0.36-0.12,0.721-0.12,1.08c0,0.24,0.06,0.48,0.12,0.721
		C200.156,54.238,200.216,54.059,200.216,53.878z M201.476,49.979h-0.12l0.06,0.18L201.476,49.979z M203.036,49.139
		c0,0.06,0.06,0.119,0.06,0.18L203.036,49.139z M207.656,37.078c0.18,0.181,0.24,0.361,0.24,0.541c0,0.899-1.74,3.299-1.74,3.6
		c0,0.24,0.06,0.48,0.06,0.66c0,1.56-1.86,1.439-2.64,1.92l0.06,0.06c-0.18-0.6-0.36-1.14-0.48-1.68c1.14-1.681,2.28-3.24,2.28-7.56
		c0-1.02-0.9-1.98-0.9-2.82c0-0.779,1.32-1.68,2.34-1.68c3.42,0,6.84-0.42,10.32-0.42c1.56,0,3.48,0,3.48,1.68
		c0,1.08-0.96,1.08-1.62,1.08c-0.42,0-0.78-0.061-1.2-0.061c-0.9,0-1.74,0.121-2.58,0.301c-1.92,0.42-4.56,0.18-5.82,0.96
		C208.735,35.039,208.676,36.238,207.656,37.078c0.06,0,0.12-0.06,0.18-0.119L207.656,37.078z M205.436,41.759
		c0,0.06-0.06,0.12-0.06,0.18s0,0.12,0.06,0.181c0,0,0.06-0.061,0.12-0.061C205.556,41.818,205.556,41.938,205.436,41.759z"/>
	<path d="M223.076,28.859c0.84,0,1.98,0.42,2.88,0.66c1.62,0.479,2.7,4.92,2.7,7.079c0,1.5-0.18,2.94-0.3,4.38
		c-0.42,1.08-0.06,2.221-0.48,3.3c-0.06,0.06-0.06,0.181-0.06,0.3c0,1.141,0.06,7.74,1.62,7.74c0.12,0,0.24,0,0.36-0.12
		c2.58-3.06,4.8-5.7,5.64-9.6c0.24-1.2,1.08-1.92,2.04-1.92c0.78,0,1.44,0.36,1.44,1.08c0,0.899-1.74,2.34-2.04,3.6
		c-0.18,0.42-0.78,2.22-1.44,2.76c-0.54,0.36-0.36,1.08-0.66,1.62c-0.48,1.02-1.5,1.859-1.62,2.64c0,0.66-1.2,1.5-1.5,2.4
		c-0.66,1.2-3,2.04-4.38,2.04c-1.98,0-4.56-2.221-5.46-4.26c-0.54-1.2-2.1-3.36-2.1-5.1c0-1.381-0.24-2.701-0.24-4.021
		C219.477,41.938,221.216,28.859,223.076,28.859z M225.116,18.479c1.38,0.3,3,0.24,3,1.74c0,1.38-0.72,2.999-2.28,2.999
		c-1.44,0-1.86-1.859-1.86-2.939C223.977,19.68,224.096,18.479,225.116,18.479z"/>
	<path d="M284.514,63.838c-0.36-1.26-2.1-0.36-2.82-1.68c-1.32-1.381-2.22-3-2.22-4.561c0-1.32-1.02-2.76-1.02-3.18
		c0-0.359,0.42-0.72,0.42-1.02c0-0.18-0.12-0.301-0.54-0.301c0-0.479,0.12-0.84,0.12-1.26c0-0.359-0.36-0.6-0.36-1.199
		c0.36-0.541,0.48-1.141,0.48-1.74c0-0.66-0.18-1.26-0.48-1.92c0.24-0.301,0.84-0.84,0.84-1.439c0-0.841-0.84-1.32-0.84-1.74
		s0.66-0.9,0.66-1.801c0-0.719-0.48-0.899-0.48-1.319c0-0.24,0.12-0.479,0.18-0.72c0.24-1.86,0.24-3.54,0.36-5.221
		c0.3-0.899,0.42-1.379,0.42-2.34c-0.54,0-2.34,2.7-2.94,3.181c-1.08,1.38-1.8,4.38-2.58,4.979c-0.9,3.48-2.94,8.76-2.94,10.199
		c-0.18,0.541-0.42,0.78-0.78,0.78c-0.84,0-1.92-0.72-2.64-1.2c-0.54-0.3-1.74-0.3-1.74-1.08c0-0.299,0.3-0.66,0.3-0.959
		c0-0.721-1.08-0.961-1.08-1.32c0-0.18,0.3-0.42,0.3-0.78c0-0.3-0.18-0.54-0.6-0.54c-0.12,0-0.18,0-0.3,0
		c0-0.779-0.24-2.279,0.84-2.279c0-0.12,0-0.301,0-0.42c0-0.36-0.12-0.541-0.6-0.541c-0.12,0-0.3,0.061-0.479,0.061
		c-0.06-0.84-0.24-1.561-0.24-2.279c0-0.78,0.42-1.08,0.24-1.261c-0.24-0.18-0.3-0.36-0.3-0.6c0-0.36,0.24-0.479,0.24-1.2
		c-1.14,0-2.7,3.359-3.24,4.5c-1.44,3.06-2.64,8.22-2.64,12.119c0,1.2-1.08,3.84-1.2,3.84c-0.54,0.48-1.26,0.66-1.98,0.66
		c-2.76,0-4.2-2.76-4.2-4.979c0-0.66-0.66-1.021-0.78-1.56c-0.72-4.92-1.32-10.02-1.32-14.58c0-1.8,0.36-4.14,0.36-5.58
		c0-0.479-0.24-0.899-0.24-1.199c0-1.86,0.3-3.48,0.3-5.34c0-0.84,0.24-2.28-0.96-2.28c-0.12-0.18,0.12-0.18,1.08-0.18
		c-1.26-0.9-1.56-0.66-2.16-0.66c-0.72,0-0.84,0.181-1.26,0.84c-0.36-0.3-0.72-0.42-1.08-0.42c-0.66,0-1.26,0.66-1.92,0.66
		c-0.9,0-2.58-1.56-2.88-1.56c-2.22-0.36-3.78-2.521-3.78-4.44c0-0.239,0.12-0.36,0.12-0.54c0-0.42-0.24-0.84-0.24-1.32
		c0-0.84,0.36-1.799,1.26-2.52c0.9,1.62,0.42,2.88,2.52,3.3c1.5,0.3,3.3,0.841,5.04,0.78c0.18,0.359,0.42,0.48,0.66,0.48
		c0.66,0,1.32-0.66,1.8-0.66c0.24,0,0.6,0.479,1.02,0.479c1.68,0,1.2-4.2,1.2-5.939c0-0.841-0.24-1.62-1.02-2.28
		c0.36-0.18,0.72-0.24,1.08-0.24c4.439,0,4.74,4.62,6.06,7.2c1.08-0.12,2.22-0.24,3.54-0.24c0.48,0,0.06,0.42,1.02,0.42
		c0.24,0,0.24-0.3,0.36-0.6c1.38,0,2.76,0.239,4.62-0.3c0.24-0.12,0.72-0.42,1.32-0.54c0,0.12,0,0.12,0.12,0.42
		c-0.12,0.12-0.54,0.42-0.72,0.72c0.12-0.12,0.36-0.18,0.54-0.18c0.36,0,0.72,0.18,1.02,0.18c0.3,0,0.54-0.12,0.66-0.6
		c-0.24-0.48-0.42-1.021-0.42-1.62c0-2.22,2.28-3.36,2.28-4.5c0-0.54-0.42-0.601-0.42-1.68c0.48-0.12,0.9-0.3,1.44-0.601
		c-0.36-0.479-0.6-0.959-0.6-1.439c0-0.6,1.02-1.561,1.02-1.859c0.12-0.841,0.24-2.101,1.5-2.101c-0.18,0-0.42,0-0.6,0.181
		c0,0.06,0,0.239,0.24,0.239c1.26,0,2.34-1.62,3.36-1.62c1.26,0,2.52,0.42,3.78,0.42c1.5,1.32,2.88,2.16,2.88,5.46
		c0,2.399-1.38,4.86-2.7,6.84c0.12,0.24,0.3,0.479,0.48,0.479c0.36,0,0.06-0.479,2.04-0.479c0.78,0,1.44,0.24,2.22,0.54
		c-0.78,0.24-1.44,0.42-2.52,0.6c0,0.12,0.3,0.12,0.3,0.12c0.78,0,3.18,0.181,3.18-0.6c0-0.24-0.12-0.479-0.42-0.78
		c0.24-0.24,0.48-0.48,0.72-0.48c0.42,0,0.66,0.961,1.26,0.961c0.42,0,1.439-0.301,2.399-0.48c0.18,0,0.96,0.84,0.96,0.9
		c0.36-0.36,0.6-0.54,0.6-0.78c0.12,0.24,0.42,0.54,0.66,0.96c0.96,0.24,2.52,0,2.52,1.92c0,0.78-0.66,1.439-1.32,1.561
		c-0.06-0.42-0.24-0.721-0.54-0.721c-0.18,0-0.36,0.061-0.66,0.24v-0.54c-0.24-0.24-0.54-0.42-0.66-0.54
		c-0.42,0-0.36,0.061-0.6,0.061c-0.66,0-1.26-0.42-1.86-0.42c-0.36,0-0.72,0.42-1.02,0.42c-0.06,0-0.18-0.061-0.3-0.061
		c0-0.3,0-0.42,0.18-0.72c-1.26,0.3-2.46,0.72-3.66,1.02c0-0.3,0-0.6,0-0.72c-0.6,0-0.78,1.02-1.62,1.02c-0.12,0-0.24,0-0.42-0.06
		c-1.14,0-1.5,0.78-1.92,0.78c-2.82,0.119-4.14,1.979-5.46,4.319c-1.2,1.44-2.34,3.479-3.42,5.34c-0.36,0.54-0.96,0.899-1.44,1.5
		c0.24,0.181,0.66,0.181,1.08,0.36c-0.18,0.359-0.42,0.899-0.6,1.439c0-0.119,0-0.119,0.18-0.119c0,0.299,0.12,0.479,0.12,0.659
		c0,0.3-0.36,0.72-0.36,1.021c0,0.3,0.06,0.539,0.06,0.779c-0.36,1.141-0.48,2.34-1.14,3.66c-0.24,0.24-0.36,0.42-0.36,0.6
		c0,0.24,0.24,0.48,0.78,0.66c0.24,0.78,0.24,1.32,0.36,2.1c1.2-0.6,1.62-2.459,2.22-3.359c0.9-1.439,2.52-3,3.12-4.32
		c0.6-1.979,4.5-3.359,4.62-3.359c1.56,0,4.44,1.439,4.44,4.02c0,0-1.08,3.12-0.9,2.82c-0.12,0.24-0.18,0.48-0.18,0.66
		c0,0.66,0.84,1.08,0.84,1.56c0,0.36-1.08,1.44-1.74,2.16c0.3-0.181,0.42-0.181,0.84-0.181c0,0.541-0.54,1.08-0.54,1.62
		c0,0.24,0.12,0.54,0.36,0.78c0,0.72-0.3,1.199-0.3,1.92c0,0.48,0.18,0.779,0.18,1.14c0,2.16-0.6,3.06-1.2,4.92
		c0.24-0.06,0.48-0.12,0.66-0.12c0.3,0,0.48,0.12,0.48,0.42c0,0.24-0.12,0.66-0.12,1.021c0,0.42,0.06,0.84,0.06,1.319
		c0,0.541-0.6,1.08-1.5,1.68c1.26,0.24,1.62,0.301,1.62,1.08c0,0.301-0.06,0.66-0.12,1.2c0.24,0,0.42,0,0.66,0
		c0.12,1.56,0.12,3,1.68,4.2c0.42-2.4,0.36-4.2,1.44-4.2c-0.24-0.42-0.54-1.02-0.54-2.22c0-0.18,0.06-0.3,0.24-0.3
		c0.12,0,0.3,0.06,0.48,0.239c0.18-0.18,0.3-0.359,0.3-0.479c0-0.3-0.36-0.42-0.54-0.6c0.06-0.78,0.06-1.5,0.24-2.101
		c0-1.14-0.18-2.279-0.18-3.42c0.18-0.18,0.42-0.479,0.42-0.779c-0.06-0.12-0.06-0.301-0.06-0.48c0-0.72,0.66-1.68,0.48-1.92
		c0-1.38,0.36-1.14,0.36-1.56c0-0.181-0.48-0.24-0.48-0.479c0-0.24,0.12-0.66,0.12-1.021c0.36,0.181,0.36,0.36,0.54,0.54
		c1.08-2.58,1.56-5.699,3.78-5.699c0.72,0,2.16,0.539,2.16,1.379c0,0.181-0.06,0.36-0.24,0.601c-1.38,1.5-2.16,3.36-2.7,5.34
		c-0.3,0.72-0.66,1.439-0.66,2.28c0,0.299,0.18,0.659,0.18,0.959c0,0.36-0.3,0.9-0.3,1.26c-0.18,1.201-0.42,2.641-0.42,3.181
		c0,0.899,0.3,1.499,0.3,2.34c-0.24,0.96-0.24,1.86-0.42,2.939c0,1.08-0.48,2.82-0.78,3.42c-0.3,1.021-0.66,3.72-2.16,3.72
		c-0.24,0-0.96-0.06-1.02-0.3l-0.54,0.78H284.514z M265.855,22.319c0-0.66,0.54-1.26,0.54-1.8c0.12-0.84,0.12-1.32,0.12-2.16
		c-1.44,0.54-2.76,1.141-4.32,1.74c0-0.12,0.06-0.18,0.06-0.301c0-0.42-0.3-0.659-0.6-0.899c-1.8,0-3.12,1.979-4.26,1.979
		c-0.18,0-0.36,0-0.54,0c0,0.36-1.44,1.141-1.44,1.86c0.06,0.3,0.12,0.54,0.12,0.84c0,0.78-0.36,1.56-1.14,2.22
		c0.78,0,1.08,0.42,1.08,0.66c0,0.6-0.72,3.48-0.66,3.42c0,1.86-0.42,2.04-0.42,2.939c0.42,0,0.479,0.181,0.479,0.36
		c0,0.24-0.06,0.48-0.06,0.78c0,0.24,0,0.54,0,0.779c0,0.841-0.12,1.681-0.96,2.4c-0.12,0.301,0.72,0.96,0.72,1.74
		c0,0.72-0.72,1.14-0.72,1.74c0,0.779,0.84,1.5,0.84,2.279c0,0.78-0.48,1.561-0.48,2.34c0.24,0.301,0.36,0.6,0.36,0.9
		c0,0.3-0.12,0.6-0.36,0.84c0.18,0.779,0.42,1.74,0.6,2.46c0,0.78-0.18,1.8-0.18,2.64s0.06,2.641,0.78,2.641
		c0.12-0.48,0.54-0.961,0.54-1.44c0.66-3.66,0.48-7.5,2.1-10.8c1.86-5.4,5.459-7.8,6.36-11.22c0-0.3,0.24-0.78,0.42-1.079
		c-0.12-0.841-0.36-1.681-0.36-2.461c0-0.72,0.24-1.439,1.14-2.1c-0.42-0.18-0.42-0.18-0.54-0.18c0.54-0.54,1.08-1.02,1.62-1.561
		C266.155,23.34,265.855,22.859,265.855,22.319z M261.835,18.24c0.06,0.299,0.42,0.42,0.78,0.42c0.36,0,0.78-0.121,1.14-0.42
		H261.835z M265.795,18.24c0.36-0.181,1.32-0.121,1.32-0.781c0-0.239-0.24-0.359-0.36-0.359c-0.3,0-0.72,0.48-1.14,0.779
		C265.615,17.879,265.795,18.06,265.795,18.24z M265.795,36.238c0,0.24,0.24,0.42,0.72,0.721c0-0.301,0.24-0.66,0.24-1.02
		c0-0.181-0.12-0.36-0.36-0.541C266.035,35.759,265.795,35.999,265.795,36.238z M267.835,43.679c-0.36,0.12-0.9,0.12-1.32,0.239
		c0.18,0.24,0.18,0.42,0.42,0.42c0.42-0.18,0.78-0.18,0.9-0.42C267.835,43.799,267.835,43.679,267.835,43.679z M268.255,33.959
		c-0.42,0.12-0.78,0.12-1.14,0.3c0.24,0.479,0.36,0.601,0.6,1.021c0.18-0.721,0.06-0.301,0.66-1.2L268.255,33.959z M271.615,19.5
		c0,0.18,0.06,0.42,0.18,0.6c0.3-0.48,0.96-0.66,0.96-1.2c0-0.18-0.06-0.3-0.12-0.54C271.975,18.66,271.615,19.08,271.615,19.5z
		 M276.174,13.14c1.86-0.54,2.22-2.52,3.06-3.84c0.72-1.14,0.66-3.72,0.66-4.499c0-0.9-0.78-2.281-1.56-2.281
		c-0.42,0.181-1.02,0.48-1.02,0.781c-0.18,1.319-0.72,1.979-2.1,2.279c0,0.24,0.06,0.54,0.06,0.779c0,0.121,0,0.181-0.06,0.24
		c-0.72,0.66-1.68,4.2-1.68,4.021c0,1.38-0.3,1.56-0.54,2.64C274.314,13.26,275.214,13.26,276.174,13.14z"/>
	<path d="M316.735,36.059c0.66-0.96,0.72-4.08,1.74-5.939c0.24-0.6,0.66-1.141,0.72-1.859c0.06-0.721,0.84-1.08,0.9-1.801
		c0.06-0.6,0.12-1.619,0.42-2.16c2.22-3.479,3.12-11.039,7.38-11.039c0.3,0,0.66,0,1.02,0c3.36,0,3.6,5.88,3.6,8.699
		c0,1.021,0,1.381-0.12,1.92c0.9,1.381,0.84,4.021,1.02,5.881c0.24,1.26,0.66,2.399,0.66,3.719c0,0.66-0.06,1.26-0.06,1.92
		c0,2.34,0.78,4.2,2.28,6.48c-0.24,0.66-0.48,1.32-0.72,1.92c0.479,1.8,0.84,5.22,1.38,5.879c0.6,0.78,0.66,3.721,1.26,5.4
		c0.42,1.199,0.48,2.46,0.48,3.779c-0.3,0.24-0.66,0.42-0.96,0.601c-0.84,0.659-2.04,2.159-2.94,2.159c-0.54,0-0.78-0.84-1.2-1.079
		c-1.5-0.841-1.8-2.4-2.04-3.84c-0.24-1.261-0.84-2.341-0.84-3.84c0-0.24,0.06-0.48,0.06-0.72c0-1.32-0.66-8.221-2.28-8.221
		c-0.66,0-1.92,0.48-2.76,0.721c-0.6,0.66-1.56,0.359-2.22,0.84c-0.18,0.12-0.36,0.18-0.48,0.18c-0.24,0-0.42-0.06-0.66-0.119
		c-0.3,0-1.62,0.959-2.82,0.959c-2.28,0-3.12,7.68-4.14,9.48c-0.24,0.6-1.56,4.319-3.42,4.319c-0.72,0-1.62-0.72-1.62-1.38
		c0-0.12,0-0.18,0.06-0.3c0.6-1.62,1.38-3.66,1.74-5.58c0.42-2.22,1.98-5.939,1.98-8.52c0-0.78-0.54-1.62-0.54-2.399
		c0-0.301,0.18-0.541,0.48-0.541c0.3,0,0.6,0.061,0.9,0.061c0.18,0,0.42-0.061,0.66-0.12
		C315.895,38.938,315.595,37.738,316.735,36.059z M322.555,32.999c-0.12,0.84-2.1,3.6-2.1,6.3c0,0.54-0.06,1.439,0.54,1.439
		c2.04,0,4.44-0.66,6.54-0.959c0.84-0.42,0.9-1.021,0.9-1.74c0-2.94-1.26-7.02-1.26-10.5c0-0.12,0-0.24,0.06-0.42v0.061
		c-0.06,0-0.66-3.061-1.02-3.061c-0.3,0-1.86,3.42-1.86,4.32c0,1.32-0.66,2.34-1.68,3C322.674,31.979,322.674,32.52,322.555,32.999z
		"/>
	<path d="M367.493,38.039c-0.66,0-0.66,2.22-0.66,3.119c0,1.141-1.38,2.521-1.38,4.2c0,1.92-1.74,3.36-1.74,5.28
		c0,0.359,0,0.539-0.18,0.539c-0.18,0-0.24-0.359-0.42-0.359c-0.36,0-1.08,4.74-2.76,5.279c-0.12,0.061-2.04,3.12-4.38,3.12
		c-0.24,0-0.479-0.12-0.66-0.12c-0.36,0-0.96,0.301-1.56,0.301c-2.16,0-4.5-3.9-4.5-6.18c0-1.32-0.84-2.461-0.84-3.48
		c0-0.54,0.06-1.08,0.06-1.68c0-1.141-0.12-2.34-0.12-3.48c0-2.52-0.06-5.1,0.3-7.619c0.48-3.6,0.3-7.439,0.6-11.16
		c0-0.779,0.42-1.56,0.42-2.22c0-0.239-0.12-0.479-0.12-0.72c0-0.66,0.12-1.38,0.12-2.16c-0.06-0.539-0.18-1.02-0.24-1.56
		c0.54-0.66,1.38-0.72,2.22-0.72c2.58,0,2.82,1.859,2.82,3.18c0,0.3-0.06,0.66-0.06,0.96c0,0.54,0.06,1.079,0.06,1.56
		s-0.06,0.9-0.18,1.32c0,0.54,0.12,1.08,0.12,1.619c0,0.721-0.06,1.5-0.06,2.221c0,0.24,0,0.54,0.06,0.84c0,1.14-0.3,1.74-0.3,3.18
		c0,0.84,0.12,1.859,0.48,2.58c0,1.199-0.72,2.58-0.72,3.3c0,0.479,0.48,0.899,0.48,1.26c0,0.54-1.32,1.62-1.32,1.92
		c0,2.101,0.84,1.56,0.84,2.16c-0.12,1.319-0.54,2.46-0.96,3.899c0,0.061,0.06,0.301,0.18,0.36c1.08,0.66,0.54,3.239,0.96,3.239
		c0.9,0.181,0.42,1.5,1.26,1.5c1.74,0,4.8-7.919,6.24-10.859c0.9-1.859,1.14-3.239,2.4-4.739c0.54-0.601,0.18-1.62,0.84-2.28
		c0.48-0.48,0.36-1.32,0.9-1.8c0.54-0.42,0.78-1.08,1.02-1.68c0.96-2.101,1.8-4.56,3.84-6c0.24-0.12,0.24-0.479,0.24-0.78
		c0-1.26,2.7-4.199,3-5.879c0.18-1.08,1.14-1.74,1.74-2.58c0,0.06,0,0.06,0,0.06c0.24,0,2.04-1.44,2.16-1.44
		c0.6,0,0.96,1.021,1.68,1.021c0.54,0,0.84-0.54,1.56-0.54c0.84,0,2.16,3.48,2.16,5.76c0,0.96,0,1.859,0,2.76
		c0,1.561-0.72,2.58-0.72,3.36c0,0.18,0.06,0.42,0.06,0.6c0,0.96-0.3,1.8-0.3,2.76c0,0.54-0.72,1.5-0.72,2.521
		c0,1.08-0.42,1.74-0.42,2.58c0,0.42,0.12,0.84,0.12,1.319c0,0.601-0.3,1.14-0.3,1.74c0,0.239,0,0.42,0.12,0.659
		c-0.12,1.381-0.24,2.94-0.24,4.381c0,0.959,0.06,1.92,0.06,2.939c0,1.14,0,2.279-0.12,3.24c0,0.42,0,0.84,0.06,1.319
		c0,0.66-0.06,1.32-0.12,1.979c-0.18,0.721-0.66,0.721-0.66,1.201c0,0.479,0.3,0.959,0.3,1.439c0,0.84-0.66,1.74-0.66,2.82
		c0,0.84,0.06,2.34-0.78,2.639c-1.02,0.361-1.98,3.24-3.06,3.24c-1.32,0-1.979-3.779-1.979-5.34c0-1.92,0.3-4.02,0.3-6.06
		c0-0.96-0.18-2.04-0.18-3.06c0-0.24,0.06-0.48,0.06-0.721c0-0.42-0.24-0.779-0.24-1.199c0,0.12,0.72-3.54,0.72-3.6
		c0-0.601-0.12-1.141-0.12-1.74c0-0.42,0.24-0.9,0.24-1.32s-0.24-0.72-0.24-1.08c0-1.02,0.42-1.979,0.42-2.819
		c0-0.24-0.12-0.479-0.12-0.66c0-0.36,0.18-0.66,0.18-0.96c0-0.12,0-0.18-0.06-0.3c0.12-1.261,0.42-2.46,0.42-3.479
		c0-0.78-0.3-1.681-0.3-2.76c0-0.541,0.24-0.961,0.24-1.5c0-0.84-0.36-4.08-0.78-4.08c-0.84,0-0.24,2.22-1.38,2.22
		c-0.18,0-0.42-0.181-0.66-0.181c0,0-0.6,1.261-1.26,1.621c0,0-1.2,1.739-1.2,1.859s0.78,0.359,0.78,0.66
		c0,0.96-1.98,0.72-1.98,1.56s-0.6,1.56-0.6,2.34c0,0.24,0.12,0.54,0.12,0.78c0,0.42-0.36,0.84-0.36,1.14
		c0,0.36,0.48,0.841,0.48,1.021c0,0.119-0.12,0.24-0.48,0.479C367.613,38.099,367.553,38.039,367.493,38.039z M353.094,45.299
		c0-0.12-0.18-0.18-0.3-0.18s-0.18,0.119-0.18,0.239s0.06,0.24,0.12,0.36C353.034,45.719,352.974,45.479,353.094,45.299z
		 M353.214,35.699c-0.18,0.18-0.18,0.359-0.18,0.479c0,0.181,0.12,0.3,0.18,0.54c0.06-0.12,0.12-0.24,0.18-0.359
		C353.394,36.179,353.394,36.119,353.214,35.699z M353.094,38.639c0,0,0.06,0,0.12,0.061c0.06-0.061,0.06-0.121,0.06-0.181
		c0,0-0.06-0.06-0.12-0.06C353.154,38.519,353.094,38.578,353.094,38.639z M362.693,43.679c0,0.36,0.06,0.659,0.24,0.659
		c0.36,0,0.42-0.899,0.42-1.199c0-0.301,0.06-1.02-0.3-1.02c-0.18,0-0.36,0.299-0.36,0.42c0,0.119,0.06,0.239,0.06,0.299
		C362.753,43.078,362.693,43.438,362.693,43.679z M362.934,45.719c0,0.06,0.06,0.119,0.12,0.18c0.06-0.061,0.18-0.061,0.18-0.12
		c0-0.18,0-0.42-0.24-0.42C362.994,45.479,362.934,45.599,362.934,45.719z M369.293,28.739c0,0.12,0.06,0.239,0.06,0.36
		c0.06-0.061,0.18-0.121,0.18-0.181c-0.06-0.06-0.12-0.18-0.12-0.3C369.354,28.619,369.293,28.68,369.293,28.739z M373.433,24.239
		c0-0.12-0.06-0.42-0.24-0.42c-0.18,0-0.3,0.06-0.3,0.24c0,0.3,0.06,0.6,0.06,0.96C373.133,24.719,373.313,24.479,373.433,24.239z
		 M378.833,48.658c0-0.42,0.06-1.32-0.36-1.32c-0.78,0-0.42,1.681-0.84,2.221c0,0.06,0.06,0.06,0.12,0.06
		c0-0.06-0.06-0.12-0.06-0.12C378.173,49.498,378.833,49.318,378.833,48.658z M377.993,35.219l0.06-0.18h-0.12L377.993,35.219z
		 M378.593,33.419c-0.18,0-0.3,0.12-0.3,0.3s0.06,0.301,0.18,0.301c0.24,0,0.36-0.181,0.48-0.42
		C378.773,33.479,378.773,33.419,378.593,33.419z M379.073,35.339c-0.06,0-0.06,0-0.12-0.06c-0.06,0.119-0.12,0.24-0.12,0.3
		c0,0,0.06,0.06,0.12,0.06C379.013,35.579,379.013,35.459,379.073,35.339z M379.073,56.338c-0.06-0.061-0.12-0.12-0.18-0.12
		c0,0,0,0.12,0,0.181c0,0,0,0.06,0.12,0.06C379.073,56.398,379.073,56.338,379.073,56.338z M379.313,25.619
		c-0.06,0.061-0.18,0.18-0.18,0.301c0,0.119,0.06,0.239,0.12,0.239c0.12,0,0.12-0.06,0.24-0.18
		C379.493,25.799,379.433,25.799,379.313,25.619z M379.433,31.739c0-0.06,0-0.12-0.12-0.12c-0.06,0-0.12,0-0.12,0.12
		c0,0.06,0.06,0.12,0.12,0.18c0,0,0.06-0.06,0.12-0.06C379.433,31.799,379.433,31.799,379.433,31.739z M379.613,36.359
		c0.06,0,0.06,0,0.06-0.061c-0.06,0-0.18,0.061-0.24,0.12c0.06,0,0.06,0.12,0.12,0.12c0.06,0,0.12-0.061,0.12-0.12
		s0-0.12-0.06-0.181C379.613,36.299,379.613,36.359,379.613,36.359z M380.393,58.857c-0.12,0-0.18-0.06-0.18-0.119
		c0,0,0.06-0.12,0.18-0.12c0.18,0,0.18,0.06,0.18,0.18C380.513,58.798,380.453,58.857,380.393,58.857z"/>
	<path d="M400.493,37.318c1.86-1.5,1.26-3.359,2.22-4.739c0.78-1.14,0.66-4.8,1.56-5.7c0.66-0.66,0.24-2.039,1.08-2.939
		c0.6-0.66,0.3-2.221,1.26-3c1.2-0.9,1.32-2.4,2.52-3.359c1.26-1.021,1.92-2.881,4.92-2.881c1.38,0,3,1.32,4.14,2.7
		c0.06,1.5,0.36,3.181,0.36,4.5c0,1.2-0.3,2.64-0.3,4.021c0,0.84-0.9,1.559-0.9,2.639c0,1.561-0.72,0.78-0.9,1.561
		c0,0.6-1.44,2.82-1.8,4.32c-0.36,1.439-2.1,2.699-2.34,3.719c-0.42,1.801-3.66,1.98-3.66,3.601c0,0.42,0.96,1.38,1.32,1.8
		c1.26,1.74,2.1,4.979,4.08,6.6c0.6,0.42,0.54,1.439,1.02,1.92c1.26,1.32,1.56,3.24,2.88,4.32c0.3,0.3,0.18,1.02,0.48,1.439
		c0.54,0.96,2.1,3,2.1,3.061c0,0.6-0.54,1.02-0.54,1.319s0.24,0.72,0.24,1.021c0,0.719-0.6,1.26-1.38,1.26
		c-0.36,0-0.72-0.061-1.08-0.12c-0.72-0.181-3.6-2.761-4.08-3.78c-0.24-1.02-1.26-1.619-1.74-2.58c-0.96-1.74-2.34-3.72-3.6-5.64
		c-0.84-1.26-3.48-5.339-4.26-5.339c-0.24,0-0.84,2.1-0.84,3.359c0,0.119,0,0.3,0.06,0.48c0,0.299-0.12,0.6-0.18,0.899
		c-0.42,2.04-1.44,7.56-2.82,7.56c-0.3,0-0.96-0.12-1.26,0.18c-0.84-0.06-1.62,0-2.46-0.18c-2.28-0.48-2.64-4.32-2.64-7.02
		c0-0.84,0.36-1.74,0.36-2.58c0-0.66-0.3-1.26-0.3-1.98c0-1.319,0.42-2.52,0.42-3.479c0-0.479-0.54-1.2-0.54-1.979
		c0.12-2.52,0.48-5.1,0.48-7.38c0-0.66-0.18-1.38-0.18-1.979c0-0.36,0.12-0.721,0.12-1.021c0-0.78-0.36-1.68-0.36-2.521
		c0-2.999,0.12-5.999,0.72-8.939c0.48-2.64-0.78-4.68,1.979-4.68c1.62,0,3.6,1.68,3.6,3.301c0,3.18,0.48,5.939,0.48,8.939
		c0,1.56-0.42,2.58-0.42,3.6c0,0.6,0.12,1.26,0.12,2.04c0,0.899-0.24,1.68-0.84,2.399c0.06-0.479,0.12-0.96,0.18-1.5
		c0-0.119-0.06-0.18-0.12-0.18s-0.12,0-0.18,0.061c0.06,0.479,0.06,1.08,0.12,1.619C400.193,36.479,400.253,36.599,400.493,37.318z
		 M412.853,18.959c-1.02,0-2.52,2.82-3.24,3.78c-1.2,1.681-0.78,4.56-2.22,6.72c-0.12,0.18-0.18,0.42-0.18,0.6
		c-0.24,1.561-0.78,3.061-1.26,4.561c-0.42,0.84-0.78,0.9-0.78,1.56c0,0.479,0.18,1.44,0.6,1.44c0.66,0,1.86-0.84,2.52-1.141
		c0.3-0.899,1.68-0.24,1.68-1.199c0-0.181-0.06-0.36-0.06-0.541c0-1.139,1.08-2.159,1.08-3.059c0.12-1.261,1.5-2.4,1.8-4.08
		c0-0.301,0.06-0.601,0.18-0.84c0.66-1.621,0.66-3.36,0.9-5.28C413.813,20.819,413.933,18.959,412.853,18.959z M411.713,35.459
		c-0.54,0-0.36,0.12-0.48,0.42c0,0,0.12,0.061,0.18,0.061C411.533,35.699,411.713,35.639,411.713,35.459z"/>
	<path d="M456.833,25.379c0.3,1.5,0.84,2.881,1.32,4.32c-0.42,0.779-0.54,1.74-0.54,1.98c0,0.6,0.78,2.399,0.78,3.899
		c0,0.36-0.06,0.72-0.06,1.079c0,0.36,0.06,0.781,0.12,1.141c-0.06,0-0.12,0-0.18,0.061c0.06-0.061,0.06-0.121,0.12-0.121
		c0.18,0.181,0.24,0.36,0.24,0.541c0,0.119,0,0.299-0.12,0.42c-0.42,0.6-0.54,3.299-1.14,3.299c0.06,0.061,0.06,0.121,0.06,0.181
		c0,0-0.06-0.06-0.12-0.06c0.06-0.061,0.12-0.061,0.12-0.061c-0.06,1.141-0.72,5.88-3.42,9.3c-1.62,4.14-7.32,7.079-11.399,7.079
		c-1.8,0-3.48-0.42-5.16-1.26c-1.32-0.66-2.459-2.34-3.959-3.3c-1.32-0.239-2.64-4.919-4.02-6.12c0.06,0.061-1.38-3.239-1.38-4.439
		c0-0.42,0.12-0.84,0.12-1.199c0-0.78-0.42-1.74-0.42-2.76c0-0.301,0.06-0.541,0.06-0.841c0-0.72-0.12-1.44-0.12-2.159
		c0-2.76,0.18-9.301,3.6-15.24c1.68-2.939,3-6.659,6.78-6.659c0.48,0,1.02,0.18,1.5,0.18c1.38,0,3.48-0.96,5.34-0.96
		c1.98,0,3.48,0.359,5.22,1.2c0.54,0.3,1.26,1.8,2.04,1.92c2.94,2.64,1.62,2.46,2.58,4.319
		C454.792,21.719,456.473,23.639,456.833,25.379z M445.373,53.398c0.48,0,0.96-0.12,1.44-0.36c5.16-2.46,8.939-10.319,8.939-16.439
		c0-2.04,0-4.62-0.66-6.479c-0.36-1.02-0.06-2.16-0.6-3.12c-0.06-0.06-0.06-0.12-0.06-0.18c0-0.24,0.12-0.42,0.12-0.601
		c0-1.979-3.12-4.799-4.02-6.779c-0.18-0.359-1.56-1.08-2.04-1.68c-0.78-0.96-2.04-0.66-2.76-1.38c-0.24-0.181-1.68-0.66-2.58-0.66
		c-0.6,0-4.32,4.5-4.92,6.239c-0.84,2.461-2.64,5.221-2.94,7.5c-0.24,1.74-1.26,3.6-1.26,5.4c0,0.359,0.24,0.66,0.24,0.959
		c0,0.301-0.06,0.601-0.06,0.84c0,1.201,0.48,2.34,0.48,3.48c0,0.42-0.18,0.72-0.18,1.02c0,0.721,0.96,1.381,0.96,2.34
		c0,0.24-0.12,0.48-0.12,0.721c0,0.18,0.96,1.619,1.26,2.22c1.02,2.22,2.94,3.72,4.26,5.7c-0.06,0.06-0.06,0.06-0.12,0.119
		c0-0.06-0.06-0.06-0.06-0.119c0.06,0,0.06,0.06,0.12,0.06C441.953,52.198,444.233,53.398,445.373,53.398z M435.653,47.698
		c0-0.06,0-0.12-0.06-0.12s-0.12,0-0.12,0.061c0,0.06,0.06,0.06,0.06,0.119C435.593,47.758,435.653,47.698,435.653,47.698z
		 M439.313,51.479l-0.12,0.06c0,0.06,0.06,0.12,0.12,0.12c0,0,0.06,0,0.12-0.061c0,0.24,0.06,0.24,0.12,0.301
		c0.06-0.061,0.06-0.061,0.06-0.12s-0.06-0.06-0.18-0.12C439.373,51.598,439.373,51.538,439.313,51.479z M454.732,21.119
		c0-0.06,0.06-0.119,0.06-0.119v0.18C454.792,21.119,454.732,21.119,454.732,21.119z M456.413,26.999c0,0.12,0,0.24,0.12,0.24
		c0.12,0,0.18-0.06,0.24-0.12C456.652,27.059,456.533,27.059,456.413,26.999z"/>
</g>
</svg>
