<?xml version="1.0" encoding="utf-8"?>
<!-- Generator: Adobe Illustrator 16.0.0, SVG Export Plug-In . SVG Version: 6.00 Build 0)  -->
<!DOCTYPE svg PUBLIC "-//W3C//DTD SVG 1.1//EN" "http://www.w3.org/Graphics/SVG/1.1/DTD/svg11.dtd">
<svg version="1.1" id="圖層_1" xmlns="http://www.w3.org/2000/svg" xmlns:xlink="http://www.w3.org/1999/xlink" x="0px" y="0px"
	 width="161.339px" height="68.217px" viewBox="0 0 161.339 68.217" enable-background="new 0 0 161.339 68.217"
	 xml:space="preserve">
<g>
	<path d="M21.179,35.699c0,1.5-0.96,2.52-2.64,2.52c-0.84,0-1.14-1.62-1.2-2.52c-2.34,0-2.7,2.28-4.68,3.18
		c-1.86,0.84-2.94,2.58-4.2,3.3c-1.38,0.48-2.34,2.94-3.3,4.44c-0.48,0.78-0.36,1.74-0.48,2.58c0,0.6,0.84,0.78,1.26,0.78
		c0.48,0,0.96-0.18,1.38-0.18c0.24,0,0.42,0.06,0.66,0.06c1.26,0.06,0.9-1.86,2.4-2.28c1.68-0.42,2.04-2.22,2.7-3.96
		c0.6-0.96,2.22-2.94,2.22-4.08c0,0.06,0,0.06,0,0.06c0.18,0,1.26-1.92,1.44-1.92c0.9,0,0.54,1.5,0.96,1.5
		c0.18,0,0.36-0.06,0.72-0.06c0.18,0,0.42,0.12,0.42,0.36c0,0.96-1.08,1.92-2.58,2.76c-0.24,0-0.42-0.06-0.66-0.12l0.12,0.12
		l-0.06-0.18c0.18,0.06,0.42,0.12,0.66,0.18c0,1.26,0.06,2.52-1.02,2.88c-0.72,0.12-0.42,1.44-1.2,1.74
		c-1.14,0.48-0.24,2.22-1.8,2.22c-0.78,0-0.9,1.14-1.5,1.32c-0.42,0.12-0.78,0.36-1.14,0.66c-1.44,1.14-2.28,1.2-3.72,1.2
		c-1.32,0-1.38,1.08-2.1,1.08c-1.5,0-3.3-3.12-3.3-4.2c0-0.18,0.72-1.44,1.02-2.34c0.06-0.48,1.14-5.4,4.14-7.2
		c1.02-0.6,1.14-1.86,2.52-2.22c1.8-0.48,2.58-2.58,3.18-2.58c1.2-0.18,1.26-1.439,2.46-1.439c1.32,0,1.68-2.1,3.24-2.46
		c2.4-0.6,2.16-3.06,2.64-6.12c0-0.78-0.54-1.68-1.44-1.68c-0.3,0-0.6,0.12-0.84,0.12c-0.36,0-0.72-0.3-1.14-0.3
		c-0.78,0-1.98,1.08-3.84,1.62c-1.32,0.42-1.62,0.72-2.88,1.56c-0.42-0.18-0.72-0.42-0.96-0.42c0,0-1.92,1.68-4.38,1.68
		c-0.36,0-0.42-0.84-0.84-1.08c-1.92-0.72-3.36-1.74-3.36-3.479c0-0.18,0.12-0.36,0.12-0.54c0-0.42-0.18-0.78-0.18-1.2
		c0-0.6,0.48-1.2,0.48-1.86c0.06-1.32,0.84-2.28,1.68-3.06c0.6-0.6,2.58-2.7,2.58-2.76c0.42-1.62,2.28-1.02,2.82-2.64
		c0.24-0.72,1.92-1.14,2.58-2.22c0.9-1.44,1.92-1.98,3-3.06c1.26,0.24,4.74,0.3,4.979,2.4c0,0.3-0.18,0.72-0.42,0.78
		c-1.68,0.24-3.18,1.74-4.02,3c-1.08,1.26-3.18,1.5-3.96,4.38c-0.24,0.9-1.86,1.38-2.28,2.82c-0.24,0.54-1.08,1.5-1.08,1.98
		c0,0.24,0.18,0.42,0.54,0.42c0.12,0,0.24,0,0.36-0.06c2.94-0.78,7.08-2.22,11.7-2.22c2.28,0,3.24,0.6,4.5,1.86
		c0.3,0.78-0.06,1.68,0.6,2.34c0.24-0.18,0.6-0.48,0.78-0.48c0.48,0,0.48,1.5,0.6,2.1c1.02,0.18,0.24,1.38,1.92,1.38
		c0.42,0,0.78-0.06,1.14-0.24c1.08-0.54,2.22-0.18,3.3-0.6c0.84,0.24,2.88,0.24,2.88,1.32c0,0.84-1.2,1.68-1.92,1.68
		c-0.36,0-0.66-0.12-0.96-0.12c-1.26,0-5.28,0.78-6,2.58c-0.12,0.24-0.36,0.36-0.66,0.36c-0.18,0-0.42-0.06-0.6-0.06
		c-0.6,0-2.34,1.44-2.34,2.46c0,0.18,0.06,0.36,0.06,0.54c0,0.24-0.12,0.3-0.36,0.3c-0.24,0-0.48-0.06-0.66-0.06
		c-0.54,0-0.96,0.42-0.96,1.14c0,0.48,0.06,0.9,0.3,1.32c-0.24-0.06-0.42-0.24-0.6-0.24c-0.3,0-0.3,0.18-0.42,0.42
		c1.08,0,1.02-0.54,1.14-1.56c0-0.3-0.06-0.54-0.06-0.84C20.999,34.858,21.179,35.219,21.179,35.699z"/>
	<path d="M42.72,23.999c-0.12,0-0.3,0.06-0.54,0.06c-0.54,0-0.9-2.22-0.9-2.94c0.06,0,0.12-0.06,0.12-0.06c0,0.12,0,0.06-0.06,0.12
		c0,0,0-0.06,0.06-0.12c-0.54,0.54-0.9,0.84-0.9,1.32s0.84,1.26,0.84,1.8c0,0.24-0.9,0.96-0.9,2.04c0,0.42,0.06,0.84,0.06,1.26
		c0,0.54-0.06,1.02-0.54,1.26v0.06c0-0.9-1.02-0.54-1.02-1.02c0-0.36,0.84-0.48,0.84-0.96c0-0.36-0.6-0.72-0.6-0.96
		c0-0.12,0.06-0.3,0.06-0.48c0-0.6-0.18-1.2-0.18-1.8c0-0.42,0.18-0.9,0.18-1.38c0-0.3-0.06-0.72-0.06-1.08
		c0-1.14,0.18-2.28,0.78-3.42c0.06-0.12,0.12-0.3,0.12-0.48c0-0.36-0.36-0.66-0.36-1.02c0-0.24,0.06-0.48,0.06-0.72
		c0-0.36-0.3-0.66-0.72-0.66c-0.42,0-0.42,0.24-0.6,0.36c-1.8,0-2.16,1.74-5.22,1.74c-0.66,0-3.96-0.54-3.96-2.34
		c0-0.66,1.68-0.66,2.4-0.78c1.26-0.24,2.58-1.32,3.24-1.32c0.18,0,1.92-1.68,4.26-2.04c1.56-0.36,1.74-4.32,1.74-6.54
		c0-0.54-0.06-1.08-0.12-1.62C41.52,0.9,42.06,0,43.62,0c1.98,0,2.46,1.38,2.46,3.96c0,0.84-0.12,1.68-0.48,1.92
		c0.06-0.06,0.12-0.06,0.18-0.06c0,0,0,0.06-0.06,0.12c0-0.06-0.06-0.12-0.06-0.18c0.54,0.36,0.42,1.14,1.02,1.38
		c0.96-0.36,3.24-1.5,5.04-1.5c0.84,0,1.98-1.5,2.7-1.5c0.36,0,0.66,0.78,1.02,0.78c0.54,0,0.42-1.08,1.26-1.08
		c2.46,0,1.5,2.34,2.16,2.34c0.06,0,0.18-0.06,0.24-0.18c0.12,0.24,0.18,0.42,0.18,0.6c0,0.42-1.14,1.5-1.38,1.5
		c-0.12,0-0.78-0.36-1.08-0.36c-0.24,0-0.66,0.42-1.02,0.42c-0.18,0-0.42-0.06-0.6-0.06c-0.24,0-0.48,0.06-0.66,0.18
		c-1.92,1.2-3.3,1.2-5.28,1.62c0.06,0-3.959,1.98-4.379,2.94c0.06,0.12,0.06,0.3,0.06,0.42c0,0.42-0.3,0.84-0.3,1.26
		c0,0.06,0,0.18,0.06,0.24c-0.18,1.5-0.3,2.94-0.48,4.44c0,0.9-0.78,1.56-0.78,2.46c0,1.44-0.12,1.86-0.36,3.12
		C43.02,24.179,43.02,23.999,42.72,23.999z M42.18,27.959c0.3,0,0.54-0.12,0.84-0.12c-0.24,0.78-0.66,1.32-0.66,2.04
		c0,0.3,0.12,0.66,0.12,0.96c0,2.82-0.54,5.28-0.54,7.919c0,0.6,0.66,0.96,0.66,1.56c0,0.42-0.72,0.6-0.72,1.26
		c0,0.18,0.06,0.72,0.3,0.84c1.26,0.72-0.3,3.42,1.56,3.42c0.96,0,2.94-3.42,3.9-5.16c1.38-2.52,3.06-4.68,4.74-7.08
		c0.12,0.48,0.24,0.72,0.24,0.96c0,0.42-0.24,0.66-0.84,1.32c-0.12,0.72-0.18,1.44-0.18,2.16c0,1.32,0.36,2.76,0.36,3.96
		c0,1.979-1.38,1.86-1.56,2.88c-0.06,0.479,0.06,1.56-0.24,1.56c-0.12,0-0.36-0.18-0.42-0.18c-0.96,0-1.02,0.06-1.2,0.9
		c0,0.66-0.72,0.54-0.9,1.2c-0.06,0.24-1.8,1.86-1.92,1.86s-0.24-0.06-0.36-0.06c-0.18,0-0.54,0.12-0.54,0.24
		c-0.3,0.9-1.92,1.14-2.34,1.14c-1.56,0-3-1.44-3-2.16c0-0.12,0-0.24,0.06-0.42c0-1.26-1.38-2.7-1.38-3.72
		c0-0.18,0.06-0.42,0.06-0.6c0-0.24-0.72-1.92-0.72-2.64c0-0.24,1.32-2.16,1.32-3.3c0-0.24-0.06-0.48-0.06-0.72
		c0-0.84,0.78-1.5,0.78-2.16c-0.12-0.18-0.18-0.42-0.42-0.42c-0.48,0-0.78,1.86-1.26,1.86c-0.12,0-0.42-0.24-0.42-0.36
		c0.42-0.78,0.42-2.82,1.02-2.82c0.24,0,0.42,0.42,0.84,0.42c0.24,0,0.78-0.42,0.78-0.96c0-0.24-0.18-0.36-0.6-0.54h-0.06
		c0.24-0.36,0.42-0.84,0.42-1.32c0-0.24-0.06-0.42-0.06-0.66c0-0.24,0-0.54,0.3-0.66c0.18,0,0.24,0.6,0.24,1.44
		c0,0.48-0.06,1.02-0.06,1.62c0,1.5,0.12,3,0.78,3c0.18,0,0.36-0.54,0.36-0.78c0-0.12-0.06-0.3-0.06-0.42c0-0.6,0.42-1.08,0.42-1.62
		c0-0.6-0.6-1.14-0.6-1.56c0-0.24,0.72-1.14,0.72-1.92c0-0.24-0.12-0.48-0.12-0.72c0-0.54,0.18-1.08,0.18-1.62l-0.06,0.06
		C42,27.959,42.12,27.959,42.18,27.959z M38.7,31.439c0,0.06-0.06,0.24-0.18,0.3c-0.24,0-0.18-0.36-0.18-1.08
		C38.52,31.019,38.7,31.139,38.7,31.439z M39.12,29.819c-0.06,0-0.18-0.18-0.3-0.24c0.18-0.18,0.54-0.12,0.66-0.18
		C39.48,29.639,39.36,29.819,39.12,29.819z M39.42,33.059c0.06,0,0.06,0,0.12-0.06c-0.06,0-0.06,0-0.12,0h0.06L39.42,33.059z
		 M39.54,29.459l-0.06-0.06c0.18-0.24,0.3-0.42,0.48-0.66C39.9,29.039,39.72,29.219,39.54,29.459z M40.32,39.898
		c0,0.06,0.06,0.18,0.12,0.18c0.72,0,0.96-1.02,0.96-1.5c0-0.3-0.12-1.2-0.36-1.2c-0.66,0.3-0.48,0.9-0.54,1.44
		C40.44,39.178,40.38,39.539,40.32,39.898z M43.32,25.679c0,1.08-1.44,1.32-1.44,2.16l0.06-0.06c-0.24,0.18-0.48,0.42-0.66,0.42
		s-0.36-0.18-0.36-0.3c0-0.72-0.06-1.5,0.24-2.1c0.12,0.24,0.36,0.36,0.54,0.48c0.24-1.32,0.6-1.26,1.38-1.5l-0.06-0.06
		C43.2,25.079,43.32,25.379,43.32,25.679z M41.7,19.379c0-0.06-0.06-0.06-0.12-0.06s-0.06,0.12-0.06,0.18c0,0,0.06,0,0.12,0.06
		C41.64,19.499,41.7,19.439,41.7,19.379z M41.88,17.04c0,0.12,0.06,0.18,0.12,0.18c0,0,0.06-0.06,0.12-0.12c0-0.06,0-0.18-0.18-0.18
		C41.94,16.919,41.88,16.979,41.88,17.04z M47.939,46.258c-0.06,0-0.12,0.06-0.18,0.12c0,0.12,0,0.36,0.12,0.36
		c0.18,0,0.18-0.12,0.18-0.3C48.06,46.378,48,46.318,47.939,46.258z M49.739,44.758c0-0.3-0.24-0.48-0.54-0.48
		c-0.3,0-0.36,0.18-0.479,0.42c0,0.48,0.36,0.36,0.6,0.48C49.739,45.178,49.739,45.238,49.739,44.758z M49.319,42.298
		c-0.18,0-0.3,0.12-0.3,0.42c0,0.12,0.18,0.24,0.36,0.36c0.18,0,0.3-0.06,0.48-0.36C49.68,42.598,49.5,42.298,49.319,42.298z
		 M49.68,40.499c0.06-0.12,0.12-0.18,0.18-0.3c0-0.06-0.12-0.12-0.12-0.18c-0.06,0.12-0.12,0.24-0.18,0.36
		C49.62,40.438,49.68,40.438,49.68,40.499z M51.119,38.818c-0.12,0-0.18,0.12-0.18,0.18c0,0.12,0.06,0.3,0.18,0.3
		c0.06,0,0.06-0.06,0.12-0.06C51.239,39.059,51.179,38.818,51.119,38.818z M53.279,34.619c0-0.06-0.06-0.12-0.06-0.18
		s0.12-0.06,0.12-0.12c0.06,0.06,0.06,0.12,0.06,0.18S53.339,34.559,53.279,34.619z M54.239,32.339c0,0.18-0.18,0.3-0.42,0.3
		c-0.3,0-0.48-0.12-0.48-0.24c0-0.12,0.18-0.3,0.42-0.3C54.059,32.099,54.239,32.159,54.239,32.339z M57.299,26.339
		c0.12,0,0.24,0.06,0.24,0.18c0,0.96-0.6,2.7-1.44,2.7c-0.36,0-0.72-0.36-1.02-0.54C56.039,28.079,56.099,26.339,57.299,26.339z
		 M58.319,25.559c-0.06-0.12-0.12-0.24-0.12-0.36c0.06-0.12,0.12-0.18,0.24-0.18c0.18,0,0.3,0.12,0.3,0.18c0,0.06,0,0.12-0.06,0.18
		C58.559,25.439,58.439,25.499,58.319,25.559z M59.939,23.159c0-0.24,0.24-0.78,0.66-0.78c0.24,0,0.42,0.24,0.42,0.42
		c0,0.24-0.6,0.96-0.84,0.96C59.939,23.519,59.939,23.399,59.939,23.159z M62.519,20.459c-0.12,0-0.18-0.06-0.18-0.12
		c0-0.18,0.36-0.42,0.6-0.54l-0.06-0.12C62.819,19.919,62.759,20.459,62.519,20.459z M63.359,19.499c0.18,0,0.3,0.06,0.42,0.24
		c0,0.12-0.12,0.24-0.24,0.24c-0.18,0-0.42-0.18-0.6-0.18C63.059,19.679,63.179,19.499,63.359,19.499z M64.199,18.479
		c0-0.18,0.18-0.3,0.3-0.3c0.12,0,0.24,0.18,0.24,0.3c0,0.12-0.12,0.36-0.24,0.36c-0.06,0-0.06-0.06-0.12-0.06
		C64.319,18.659,64.199,18.539,64.199,18.479z M67.859,16.199c0-0.9,0.96-1.44,1.8-1.5c0.06,0,0.3,0.12,0.3,0.24
		c0,1.32-0.3,1.32-1.56,1.74C68.159,16.679,67.859,16.559,67.859,16.199z"/>
	<path d="M93.959,18c0.3,0,1.08,0.54,1.08,1.08c0,0.48-0.6,1.02-2.52,1.2c-2.04,0.18-3.96,1.14-5.7,1.98
		c-2.28,1.14-2.7,1.5-2.939,3.24c0,0.36-0.96,5.16-1.2,5.4c-1.32,0.72-0.3,2.58-1.2,3.72c-0.84,1.08-1.08,2.52-5.339,6.78
		c0,0,0-0.06-0.06-0.06c-0.42,0-2.58,1.26-3.36,1.74c-1.26-0.36-2.7-0.6-3.9-1.44c0,0-4.26-3.18-4.26-9.359
		c0-1.2,0.48-2.28,0.48-3.42c0-0.78,1.26-3.78,1.26-5.16c0-1.26-1.68-3.72-1.68-5.46c0-6.24,2.4-6.78,6.359-6.78
		c0.9,0,1.86,0,2.88,0c1.62,0,2.94,1.26,4.38,1.74c1.68,0.6,3.9,3.06,4.56,5.279c0.24,0.96,0.42,2.22,1.44,2.22
		c0.18,0,0.36-0.06,0.54-0.12c3-1.02,5.879-2.28,9.06-2.46C93.839,18.059,93.899,18,93.959,18z M70.92,13.679
		c-1.86,0.24-2.939,2.7-2.939,4.44c0,0.54,0,1.8,0.78,1.8c0.06,0,0.12,0,0.12-0.06c0.84-0.84,1.02-1.2,1.44-1.2
		c0.18,0,0.48,0.06,0.9,0.24c0.36,0.12,4.02,1.02,4.02,2.4c0,0.54-0.84,1.62-0.84,2.16c0,0.48,0.48,0.54,0.78,0.54
		c1.56-0.18,5.04-0.84,5.04-2.22c0-0.36,0-0.72-0.18-1.08c-1.5-3.24-4.02-7.2-8.16-7.2C71.64,13.56,71.28,13.62,70.92,13.679z
		 M79.8,25.439c-2.16,0.78-4.32,1.68-6.66,1.68c-1.2,0.3-1.62,2.1-1.62,3.96c0,0.3,0.06,0.6,0.06,0.9c0,0.78-0.42,1.74-0.42,2.46
		c0,1.2,0.78,3.66,2.34,3.66c2.94,0,5.28-7.2,6.36-7.92c0.66-0.42,0.54-2.1,0.72-3.18C80.46,26.219,80.7,25.439,79.8,25.439z"/>
	<path d="M93.9,28.079c0.72-0.12,1.08-2.28,1.56-2.76c-0.06-0.3-0.06-0.54-0.06-0.84c0-1.02,0.66-2.16,0.66-2.82
		c0.12-2.22,1.68-4.56,2.64-6.66c0.3-0.72,1.86-3.72,2.34-3.72c0.12,0,0.3,0.06,0.42,0.06c0.66,0,1.26-0.24,1.92-0.24
		c1.86,0,2.04,2.16,2.4,3.48c0,0.36-0.12,0.66-0.18,1.2c1.02-1.38,2.7-2.88,2.88-3.66c0.24-0.96,2.88-3.42,4.92-3.42
		c3.24,0,4.14,3.24,4.14,5.4c0,2.28-0.48,3.18-2.22,4.439c-1.08,0.78-0.78,2.58-1.68,2.58c-2.52,0-1.8-7.26-2.7-7.26
		c-0.06,0-0.06,0.06-0.12,0.06c-2.4,1.44-5.46,6.12-6.6,8.939c-0.42,0.96-0.72,1.98-1.32,2.88c-1.02,1.5-0.6,2.82-2.34,6.96
		c-0.84,2.04-0.78,4.26-1.86,6.18c0.06-0.12-1.02,5.1-3.3,5.1c-1.5,0-2.04-2.04-2.04-4.02c0-0.54,0.12-1.02,0.12-1.62
		c0-0.84-0.24-1.68-0.24-2.7c0-1.14,0.24-3.18,1.02-4.14c0-0.06,0.06-0.12,0.06-0.24c0-0.36-0.3-0.72-0.3-1.02
		c0-0.54,0.24-1.32,0.36-1.8L93.9,28.079z M102,23.219l-0.12,0.18h0.18L102,23.219z"/>
	<path d="M137.46,61.257c0,2.76-3.24,6.96-6.78,6.96c-2.82,0-3-1.38-4.38-2.16c-1.5-0.84-1.56-2.64-1.56-4.5
		c0-1.68-0.06-4.5,1.86-7.8c0.42-0.6,0.84-2.7,1.32-3.78s1.32-2.88,2.94-5.46c0.3-0.42,0.72-0.78,1.02-1.26
		c0.78-1.2,1.56-3.48,2.58-3.84c1.02-0.6,1.26-1.68,2.22-2.46c1.62-1.32,2.4-3.96,2.82-6.18c0.18-1.08,1.26-1.86,1.26-2.76
		c0-0.12,0-0.36-0.12-0.36s-0.6,0.42-0.84,0.42c-0.12,0-0.24-0.12-0.24-0.24c0-2.64,1.2-2.88,1.2-4.38c0-1.2-0.06-4.02-1.08-4.02
		s-1.14,1.38-1.62,1.38c0,0-1.74,1.32-1.979,2.4c0-0.12-1.68,2.16-2.64,2.7c-0.18,0.12-1.44,2.04-1.62,3.18
		c-0.18,1.02-1.56,1.92-2.52,2.82c-5.16-0.479-6.36-4.919-6.36-8.939c0-0.6,0.06-1.26,0.12-1.86c0-0.18,0.6-10.74,3.3-10.74
		c2.34,0,3.66,2.28,3.66,3.54c0,2.82-1.08,5.88-1.08,8.58c0,0.42,0.06,0.78,0.42,0.78c0.78,0,3.3-2.34,4.02-3.18
		c0.84-1.02,1.86-1.68,3.06-2.22c0.96-0.42,0.42-1.26,1.14-1.5c0.84-0.3,0.54-1.26,1.38-1.92c0.66-0.54,2.4-2.64,4.26-2.64
		c1.44,0,3.96,1.26,3.96,2.46c0,1.02-0.12,2.1-0.18,3.12c-0.6,2.28-0.48,5.82-1.5,7.68c-0.48,0.9-0.54,2.22-0.54,3.3
		c0,0.36,0.18,0.6,0.54,0.6c0.66,0,2.22-1.14,3.42-1.74c1.56-1.38,1.74-1.5,3.18-1.98c0.66-0.24,1.32-0.36,1.74-1.02
		c0.12-0.18,3.419-1.62,4.26-1.62c0.66,0,3.24,0.42,3.24,1.86c0,0.54-0.36,1.14-0.9,1.2c-1.86,0-2.1,0.54-3.66,1.38
		c-2.4,1.26-4.92,2.64-7.08,4.2c-1.8,1.02-2.7,2.04-3.96,2.88c-1.86,1.26-2.76,2.46-4.26,6.36c-0.12,0.42-0.96,0.42-0.96,1.02
		c0,0.12,0.06,0.6,0.24,0.66c0.12,0,0.48-0.18,0.54-0.24c0.18,0.6,0.24,1.14,0.24,1.74c0,0.48-0.06,0.96-0.12,1.44
		c-0.12,1.2-2.22,0.66-2.22,2.16c0,0.24,0.12,0.48,0.12,0.72c0.6-0.42,0.06-1.44,1.2-1.44c0.42,0,0.66,0.36,0.66,0.72
		c0,0.6-0.24,1.08-0.3,1.62c0,0.18-0.84,0.48-0.84,1.2c0,0.18,0.06,0.3,0.06,0.54c0,0.12-0.06,0.24-0.06,0.42
		c0,0.48,0.36,1.02,0.36,1.5c-0.06,0-0.42,3.18-1.08,3.18c-0.12,0-0.18-0.06-0.3-0.06c-0.12,0-0.24,0.06-0.36,0.18l-0.06,0.12
		c0.18-0.24,0.66-0.24,0.96-0.3C138.12,57.118,138.72,59.458,137.46,61.257z M130.26,63.597c0.84,0,1.32-0.9,2.1-1.2
		c1.68-0.66,2.4-2.94,3.66-4.38c-0.12-0.3-0.48-0.48-0.48-0.78c0-1.2,1.02-1.38,1.02-2.52c0-0.24-0.06-0.48-0.06-0.66
		c0-1.08,1.02-2.16,1.02-3.72c0-0.3-0.12-0.6-0.12-0.9c0-1.56,0.96-4.44,0.96-6.72c0-0.18-0.06-0.84-0.54-0.84
		c-0.42,0-2.94,3.66-3.6,4.92c-0.06,0.18-0.18,0.36-0.36,0.54c-1.38,1.62-3.24,4.44-3.3,6.3c0,0.18-0.12,0.42-0.24,0.6
		c-0.78,0.9-1.2,5.28-1.5,7.38C128.82,62.757,129.12,63.597,130.26,63.597z M134.94,61.018c-0.06,0.06-0.12,0.12-0.12,0.18
		c0,0.12,0.06,0.18,0.12,0.18s0.12-0.12,0.12-0.18C135,61.138,135,61.078,134.94,61.018z M136.98,56.877c0,0.06,0.06,0.12,0.12,0.12
		c0.12,0,0.12-0.18,0.12-0.3C137.04,56.698,136.98,56.758,136.98,56.877z M137.1,54.958c0.06-0.06,0.12-0.06,0.18-0.12
		c-0.06-0.06-0.06-0.12-0.12-0.12s-0.12,0.06-0.12,0.06L137.1,54.958z M138.36,53.698c0,0.06,0.06,0.12,0.12,0.18
		c0.66,0,0.6-0.84,0.9-1.14c0-0.06,0-0.12-0.06-0.12s-0.12,0-0.12,0.06s0.06,0.06,0.06,0.12
		C138.48,52.858,138.36,52.978,138.36,53.698z M138.6,55.978l0.06-0.12h-0.06V55.978z M138.66,50.638c0,0.06,0.3,0.24,0.36,0.24
		c0.18-0.06,0.6-0.24,0.6-0.54c-0.12-0.06-0.24-0.12-0.42-0.24C139.02,50.278,138.66,50.458,138.66,50.638z M139.14,43.918
		c-0.12,0-0.24,0.12-0.24,0.24c0,0.06,0.06,0.12,0.18,0.12c0.18,0,0.18-0.12,0.36-0.18C139.32,44.038,139.26,43.978,139.14,43.918z
		 M140.76,40.138c0,0-0.12,0.06-0.12,0.12c0,0.18,0.12,0.18,0.24,0.18C140.88,40.378,140.88,40.138,140.76,40.138z"/>
</g>
</svg>
