<?xml version="1.0" encoding="utf-8"?>
<!-- Generator: Adobe Illustrator 15.1.0, SVG Export Plug-In . SVG Version: 6.00 Build 0)  -->
<!DOCTYPE svg PUBLIC "-//W3C//DTD SVG 1.1//EN" "http://www.w3.org/Graphics/SVG/1.1/DTD/svg11.dtd">
<svg version="1.1" xmlns="http://www.w3.org/2000/svg" xmlns:xlink="http://www.w3.org/1999/xlink" x="0px" y="0px"
	 width="280.63px" height="436.536px" viewBox="0 0 280.63 436.536" enable-background="new 0 0 280.63 436.536"
	 xml:space="preserve">
<g id="bg">
</g>
<g id="圖層_1">
	<g>
		<path stroke="#000000" stroke-width="0.5" d="M84.859,282.553l-3.149-14.697v14.697h-2.073v-19.384h3.38l2.944,15.671
			l2.816-15.671h3.38v19.384h-2.074v-14.697l-3.149,14.697H84.859z"/>
		<path stroke="#000000" stroke-width="0.5" d="M101.887,282.553h-2.074l4.353-19.384h2.611l4.354,19.384h-2.074l-1.306-5.557
			h-4.661L101.887,282.553z M105.471,266.345l-1.946,8.577h3.79L105.471,266.345z"/>
		<path stroke="#000000" stroke-width="0.5" d="M126.21,282.553l-2.945-8.707h-2.176v8.707h-2.073v-19.384h4.352
			c0.786,0,1.473,0.157,2.062,0.474s1.067,0.727,1.435,1.229c0.367,0.504,0.64,1.055,0.818,1.652c0.18,0.597,0.27,1.186,0.27,1.767
			c0,0.494-0.047,0.989-0.141,1.485c-0.095,0.494-0.244,0.982-0.449,1.459c-0.204,0.479-0.478,0.91-0.819,1.293
			c-0.342,0.385-0.741,0.68-1.202,0.884l3.148,9.142H126.21z M123.035,271.772c0.819,0,1.461-0.324,1.921-0.973
			c0.461-0.648,0.691-1.408,0.691-2.278c0-0.888-0.23-1.655-0.691-2.306c-0.46-0.647-1.102-0.971-1.921-0.971h-1.945v6.527H123.035z
			"/>
		<path stroke="#000000" stroke-width="0.5" d="M137.477,282.553v-19.384h2.077v19.384H137.477z"/>
		<path stroke="#000000" stroke-width="0.5" d="M156.895,282.45v-1.434c-0.769,1.024-1.819,1.537-3.149,1.537
			c-1.759,0-2.996-0.781-3.713-2.344s-1.075-4.049-1.075-7.464c0-3.447,0.358-5.957,1.075-7.528c0.717-1.57,1.954-2.355,3.713-2.355
			c0.955,0,1.749,0.184,2.381,0.551c0.632,0.366,1.109,0.854,1.434,1.459c0.325,0.607,0.551,1.26,0.679,1.959
			c0.128,0.701,0.192,1.442,0.192,2.228h-2.074c0-1.229-0.214-2.228-0.64-2.995c-0.427-0.768-1.008-1.152-1.742-1.152
			c-0.409,0-0.785,0.094-1.126,0.281c-0.342,0.188-0.648,0.551-0.922,1.089c-0.272,0.538-0.491,1.335-0.653,2.394
			s-0.243,2.416-0.243,4.071c0,1.638,0.081,2.982,0.243,4.032c0.162,1.051,0.385,1.848,0.666,2.395s0.589,0.919,0.922,1.113
			c0.333,0.197,0.704,0.295,1.113,0.295c0.529,0,0.957-0.137,1.28-0.41c0.324-0.271,0.564-0.648,0.718-1.125
			c0.153-0.479,0.256-1.039,0.307-1.678c0.052-0.641,0.077-1.412,0.077-2.318h-2.51v-2.072h4.687v9.473H156.895z"/>
		<path stroke="#000000" stroke-width="0.5" d="M168.66,280.286c-0.844-1.595-1.267-4.066-1.267-7.412
			c0-3.381,0.423-5.872,1.267-7.476c0.846-1.604,2.164-2.408,3.956-2.408c1.844,0,3.176,0.794,3.995,2.382s1.229,4.089,1.229,7.502
			c0,3.346-0.423,5.817-1.268,7.412c-0.844,1.598-2.163,2.395-3.956,2.395C170.824,282.68,169.505,281.883,168.66,280.286z
			 M173.82,280.414c0.358-0.194,0.687-0.567,0.985-1.113c0.3-0.545,0.533-1.349,0.704-2.407s0.257-2.398,0.257-4.02
			c0-1.656-0.086-3.012-0.257-4.07s-0.404-1.857-0.704-2.395c-0.299-0.539-0.627-0.9-0.985-1.088s-0.761-0.281-1.204-0.281
			c-0.409,0-0.793,0.094-1.151,0.281s-0.688,0.549-0.986,1.088c-0.298,0.537-0.543,1.336-0.729,2.395
			c-0.188,1.059-0.282,2.414-0.282,4.07c0,1.621,0.095,2.957,0.282,4.008c0.187,1.049,0.436,1.852,0.742,2.406
			c0.309,0.555,0.636,0.932,0.985,1.126c0.351,0.198,0.73,0.296,1.14,0.296C173.059,280.709,173.461,280.612,173.82,280.414z"/>
		<path stroke="#000000" stroke-width="0.5" d="M188.952,280.478h6.529v2.075h-8.603v-19.384h2.073V280.478z"/>
		<path stroke="#000000" stroke-width="0.5" d="M212.969,277.598c-0.308,1.271-0.727,2.266-1.255,2.982
			c-0.53,0.717-1.118,1.225-1.767,1.523c-0.649,0.299-1.341,0.449-2.074,0.449h-4.353v-19.384h4.353c0.75,0,1.446,0.14,2.086,0.423
			c0.641,0.281,1.225,0.779,1.755,1.498c0.528,0.717,0.947,1.715,1.255,2.994c0.308,1.281,0.461,2.878,0.461,4.789
			C213.43,274.751,213.277,276.327,212.969,277.598z M210.447,267.266c-0.606-1.348-1.43-2.021-2.471-2.021h-2.382v15.233h2.382
			c1.041,0,1.864-0.683,2.471-2.048c0.605-1.366,0.909-3.219,0.909-5.557C211.356,270.485,211.052,268.615,210.447,267.266z"/>
	</g>
	<g>
		<polygon fill="none" points="167.021,157.407 167.021,157.407 167.021,157.407 		"/>
		<polygon fill="none" points="130.762,157.407 130.762,157.407 130.762,157.407 		"/>
		<polygon fill="none" points="184.511,187.286 184.511,187.286 184.511,187.286 		"/>
		<polygon fill="none" points="113.235,187.286 113.235,187.286 113.235,187.286 		"/>
		<polygon fill="none" points="167.021,217.188 167.021,217.188 167.021,217.188 		"/>
		<polygon fill="none" points="130.762,217.188 130.762,217.188 130.762,217.188 		"/>
		<polygon fill="#D11036" points="113.235,187.286 113.235,187.286 113.235,167.306 77.631,187.286 113.235,207.261 
			113.235,187.286 		"/>
		<polygon fill="#D11036" points="167.021,157.407 167.021,157.407 184.511,167.306 184.511,128.303 149.629,147.715 
			167.021,157.407 		"/>
		<polygon fill="#D11036" points="184.511,207.261 167.021,217.188 167.021,217.188 167.021,217.188 148.133,226.842 
			184.511,246.262 		"/>
		<polygon points="130.762,217.188 130.762,217.188 113.235,207.261 113.235,246.262 148.133,226.842 130.762,217.188 		"/>
		<polygon points="130.762,157.407 130.762,157.407 149.629,147.715 113.235,128.303 113.235,167.306 130.762,157.407 		"/>
		<polygon points="184.511,187.286 184.511,187.286 184.511,207.261 220.122,187.286 184.511,167.306 184.511,187.286 		"/>
		<polygon fill="#D11036" points="148.37,167.306 167.021,157.407 149.629,147.715 130.762,157.407 		"/>
		<polygon points="149.383,207.261 130.762,217.188 148.133,226.842 167.021,217.188 		"/>
		<polygon fill="#D11036" points="167.021,197.927 167.021,217.188 184.511,207.261 184.511,187.286 		"/>
		<polygon points="130.762,176.646 130.762,157.407 113.235,167.306 113.235,187.286 		"/>
		<polygon fill="#D11036" points="130.762,196.795 113.235,187.286 113.235,207.261 130.762,217.188 		"/>
		<polygon points="167.021,177.778 184.511,187.286 184.511,167.306 167.021,157.407 		"/>
		<polygon fill="none" points="167.021,157.407 167.021,157.407 167.021,157.407 		"/>
		<polygon fill="none" points="130.762,157.407 130.762,157.407 130.762,157.407 		"/>
		<polygon fill="none" points="184.511,187.286 184.511,187.286 184.511,187.286 		"/>
		<polygon fill="none" points="113.235,187.286 113.235,187.286 113.235,187.286 		"/>
		<polygon fill="none" points="167.021,217.188 167.021,217.188 167.021,217.188 		"/>
		<polygon fill="none" points="130.762,217.188 130.762,217.188 130.762,217.188 		"/>
		<polygon fill="#E0CA76" points="184.511,128.303 149.629,147.715 130.762,157.407 148.37,167.306 167.021,157.407 
			167.021,157.407 167.021,157.407 184.511,167.306 		"/>
		<polygon fill="#323333" points="149.383,207.261 130.762,217.188 113.235,207.261 113.235,246.262 148.133,226.842 
			167.021,217.188 		"/>
		<polygon fill="#E0CA76" points="184.511,246.262 184.511,207.261 184.511,187.286 167.021,197.927 167.021,217.188 
			148.133,226.842 		"/>
		<polygon fill="#323333" points="149.629,147.715 113.235,128.303 113.235,167.306 113.235,187.286 130.762,176.646 
			130.762,157.407 		"/>
		<polygon fill="#E0CA76" points="130.762,196.795 113.235,187.286 113.235,167.306 77.631,187.286 113.235,207.261 
			130.762,217.188 		"/>
		<polygon fill="#323333" points="184.511,167.306 167.021,157.407 167.021,177.778 184.511,187.286 184.511,207.261 
			220.122,187.286 		"/>
	</g>
</g>
</svg>
