<?xml version="1.0" encoding="utf-8"?>
<!-- Generator: Adobe Illustrator 15.1.0, SVG Export Plug-In . SVG Version: 6.00 Build 0)  -->
<!DOCTYPE svg PUBLIC "-//W3C//DTD SVG 1.1//EN" "http://www.w3.org/Graphics/SVG/1.1/DTD/svg11.dtd">
<svg version="1.1" id="圖層_1" xmlns="http://www.w3.org/2000/svg" xmlns:xlink="http://www.w3.org/1999/xlink" x="0px" y="0px" width="4150" height="1431" viewBox="0 0 4150 1431" enable-background="new 0 0 4150 1431" xml:space="preserve">
    <g>
        <path fill-rule="evenodd" clip-rule="evenodd" d="M4152.971,463.067c0,2.045,0,4.041,0,6.044c-1.635,6.704-1.635,20.355,0,27.059
			c0,0.687,0,1.36,0,2.004c-2.324,82.365-2.15,178.16-3.967,244.55c-4.563,170.032-17.956,340.236-39.066,502.181
			c-4.779,36.719-11.413,77.758-20.981,114.271c-4.222,16.161-10.809,33.932-22.008,46.133c-5.521,6.018-13.01,8.237-21.026,13.05
			c-8.784,5.169-8.784,9.61-22.012,10.981c-40.018,4.247-82.534,2.026-124.104,3.035c-125.916,2.991-252.258-1.094-379.292,0
			c-207.763,1.779-393.165,1.331-612.428,0c-588.26-3.559-1180.179,0-1770.272,0c-311.748,0-630.603-1.984-945.712-1.984
			c-23.284,0-46.092,1.537-60.008-3.025c-6.674-2.184-14.451-8.117-22.032-13.049c-20.505-13.211-31.489-36.192-39.029-63.098
			c-30.003-107.49-39.135-237.599-51.023-360.901C11.956,906.944,6.484,820.984,5.02,736.742
			c-0.926-51.625-3.212-109.811-3.037-163.396c0.063-20.6-0.713-42.819-1.983-60.126c0-0.687,0-1.353,0-1.997
			c0.497-93.637,3.037-174.084,5.02-267.636c0.579-28.698,2.779-60.331,0.967-86.202c7.455-31.951,19.279-59.542,36.015-82.164
			C76.333,46.886,114.693,7.685,176.099,3.038c33.386-2.564,78.424,4.219,108.102-3.03c1215.956,0,2431.505,0,3647.614,0
			c0,0.343,0,0.708,0,1.03c75.602-7.534,117.64,18.459,158.135,46.11c26.279,33.265,55.701,62.592,59.055,117.267
			c4.185,69.541-0.208,149.175,3.967,227.5c0,0.365,0,0.687,0,1.009c-1.635,4.343-1.635,15.676,0,20.074c0,0.323,0,0.652,0,0.974
			c-1.635,3.391-1.635,13.674,0,17.021c0,0.329,0,0.707,0,1.051C4151.336,440.022,4151.336,455.033,4152.971,463.067z" />
    </g>
</svg>