<?xml version="1.0" encoding="utf-8"?>
<!-- Generator: Adobe Illustrator 22.0.1, SVG Export Plug-In . SVG Version: 6.00 Build 0)  -->
<svg version="1.1" id="圖層_1" xmlns="http://www.w3.org/2000/svg" xmlns:xlink="http://www.w3.org/1999/xlink" x="0px" y="0px"
	 viewBox="0 0 166.7 102.3" style="enable-background:new 0 0 166.7 102.3;" xml:space="preserve">
<style type="text/css">
	.st0{opacity:0.2;}
	.st1{fill:#EFEFEF;}
	.st2{fill:#FFFFFF;}
	.st3{fill:#1B1B1B;}
	.st4{fill:#362D2B;}
	.st5{opacity:0.4;}
	.st6{opacity:0.2;fill:#FFFFFF;}
	.st7{opacity:0.4;fill:#FFFFFF;}
</style>
<polygon class="st6" points="31,76.9 1.4,101.7 135.7,101.7 165.3,76.9 "/>
<rect x="31.2" y="1.1" class="st6" width="134.2" height="75.8"/>
<path class="st2" d="M165.6,76c-39.3,0-78.6,0-117.8,0c-5.5,0-11,0-16.5,0c0.4,0.3,0.8,0.5,1.1,0.8c0-22.1,0-44.1,0-66.2
	c0-3.2,0-6.4,0-9.7c-0.5,0.3-0.9,0.7-1.4,1c39.3,0,78.6,0,117.8,0c5.5,0,11,0,16.5,0c-0.4-0.3-0.8-0.5-1.1-0.8c0,22.1,0,44.1,0,66.2
	c0,3.2,0,6.4,0,9.7c0,1.3,2.5,0.9,2.5-0.2c0-22.1,0-44.1,0-66.2c0-3.2,0-6.4,0-9.7c0-0.6-0.6-0.8-1.1-0.8c-39.3,0-78.6,0-117.8,0
	c-5.5,0-11,0-16.5,0c-0.5,0-1.4,0.4-1.4,1c0,22.1,0,44.1,0,66.2c0,3.2,0,6.4,0,9.7c0,0.6,0.6,0.8,1.1,0.8c39.3,0,78.6,0,117.8,0
	c5.5,0,11,0,16.5,0C166.8,77.7,167.3,76,165.6,76z"/>
<path class="st2" d="M2.3,101.9c6.3-5.3,12.5-10.5,18.8-15.8c3.2-2.7,6.5-5.4,9.7-8.2c1.2-1,1.2-1.1,1.4-2.4c0.4-2.6,0-5.5,0-8.1
	c0-4.6,0-9.1,0-13.7c0-11,0-22,0-33c0-6.7,0-13.4,0-20c0-0.7-2,0-2.2,0.2c-6.3,5.3-12.5,10.5-18.8,15.8c-3.2,2.7-6.5,5.4-9.7,8.2
	c-1.2,1-1.2,1.1-1.4,2.4c-0.4,2.6,0,5.5,0,8.1c0,4.6,0,9.1,0,13.7c0,11,0,22,0,33c0,6.7,0,13.4,0,20c0,0.6,2.5,0.2,2.5-0.7
	c0-15.8,0-31.5,0-47.3c0-8.5,0-17,0-25.5c0-0.8-0.1-1.7,0-2.5c0.2-1.1-0.4,0.2,0-0.4c1.8-2.5,5.4-4.6,7.8-6.5
	c7.2-6,14.4-12.1,21.6-18.1c-0.7,0.1-1.5,0.1-2.2,0.2c0,15.8,0,31.5,0,47.3c0,8.5,0,17,0,25.5c0,0.8,0.1,1.7,0,2.5
	c-0.2,1.1,0.4-0.2,0,0.4c-1.8,2.5-5.4,4.6-7.8,6.5c-7.2,6-14.4,12.1-21.6,18.1C-0.7,102.5,1.8,102.3,2.3,101.9z"/>
<path class="st2" d="M136.8,101.9c6.3-5.3,12.5-10.5,18.8-15.8c3.2-2.7,6.5-5.4,9.7-8.2c1.2-1,1.2-1.1,1.4-2.4c0.4-2.6,0-5.5,0-8.1
	c0-4.6,0-9.1,0-13.7c0-11,0-22,0-33c0-6.7,0-13.4,0-20c0-0.7-2,0-2.2,0.2c-6.3,5.3-12.5,10.5-18.8,15.8c-3.2,2.7-6.5,5.4-9.7,8.2
	c-1.2,1-1.2,1.1-1.4,2.4c-0.4,2.6,0,5.5,0,8.1c0,4.6,0,9.1,0,13.7c0,11,0,22,0,33c0,6.7,0,13.4,0,20c0,0.6,2.5,0.2,2.5-0.7
	c0-15.8,0-31.5,0-47.3c0-8.5,0-17,0-25.5c0-0.8-0.1-1.7,0-2.5c0.2-1.1-0.4,0.2,0-0.4c1.8-2.5,5.4-4.6,7.8-6.5
	c7.2-6,14.4-12.1,21.6-18.1c-0.7,0.1-1.5,0.1-2.2,0.2c0,15.8,0,31.5,0,47.3c0,8.5,0,17,0,25.5c0,0.8,0.1,1.7,0,2.5
	c-0.2,1.1,0.4-0.2,0,0.4c-1.8,2.5-5.4,4.6-7.8,6.5c-7.2,6-14.4,12.1-21.6,18.1C133.8,102.5,136.3,102.3,136.8,101.9z"/>
<path class="st2" d="M2.5,101.6c4-3.3,7.9-6.6,11.9-10c5.4-4.6,11.4-8.9,16.5-13.8c0.1-0.1,1.3-0.9,1.3-1.1c0.1,0.6-2.7,0.1-1.5,0.6
	c0.7,0.3,2.1,0,2.9,0c4.3,0,8.6,0,13,0c30.6,0,61.3,0,91.9,0c5.7,0,11.4,0,17.1,0c2.8,0,5.9-0.4,8.7,0c0.5,0.1,0.2,0,0.2-0.2
	c0-0.5-1.2,0.7-1.3,0.8c-2.3,1.7-4.4,3.7-6.6,5.6c-5.9,5-11.9,10-17.8,15c-0.3,0.2-4.1,3.1-4,3.4c-0.3-0.7,3.5-0.4,0.4-0.6
	c-3.7-0.2-7.4,0-11.1,0c-14,0-28.1,0-42.1,0c-26,0-52.1-0.1-78.1,0c-0.5,0-1,0-1.5,0c-0.5,0-2.8,1-1.6,1c23.4,0,46.8,0,70.2,0
	c15.4,0,30.8,0,46.1,0c4.7,0,9.4,0,14.2,0c1.8,0,4.1,0.4,5.7-0.5c1.6-0.9,3-2.5,4.4-3.6c3.4-2.9,6.8-5.7,10.2-8.6
	c5.1-4.2,10.1-8.5,15.2-12.7c0.3-0.3-0.1-0.4-0.3-0.4c-23.4,0-46.8,0-70.2,0c-15.4,0-30.8,0-46.1,0c-4.7,0-9.4,0-14.2,0
	c-1.8,0-4.1-0.4-5.7,0.5c-1.6,0.9-3,2.5-4.4,3.6c-3.4,2.9-6.8,5.7-10.2,8.6c-5.1,4.2-10.1,8.5-15.2,12.7C-0.3,102.3,2,102,2.5,101.6
	z"/>
<path class="st2" d="M2.5,25.8c4-3.3,7.9-6.6,11.9-10C19.8,11.3,25.7,7,30.8,2c0.1-0.1,1.3-0.9,1.3-1.1c0.1,0.6-2.7,0.1-1.5,0.6
	c0.7,0.3,2.1,0,2.9,0c4.3,0,8.6,0,13,0c30.6,0,61.3,0,91.9,0c5.7,0,11.4,0,17.1,0c2.8,0,5.9-0.4,8.7,0c0.5,0.1,0.2,0,0.2-0.2
	c0-0.5-1.2,0.7-1.3,0.8c-2.3,1.7-4.4,3.7-6.6,5.6c-5.9,5-11.9,10-17.8,15c-0.3,0.2-4.1,3.1-4,3.4c-0.3-0.7,3.5-0.4,0.4-0.6
	c-3.7-0.2-7.4,0-11.1,0c-14,0-28.1,0-42.1,0c-26,0-52.1-0.1-78.1,0c-0.5,0-1,0-1.5,0c-0.5,0-2.8,1-1.6,1c23.4,0,46.8,0,70.2,0
	c15.4,0,30.8,0,46.1,0c4.7,0,9.4,0,14.2,0c1.8,0,4.1,0.4,5.7-0.5c1.6-0.9,3-2.5,4.4-3.6c3.4-2.9,6.8-5.7,10.2-8.6
	c5.1-4.2,10.1-8.5,15.2-12.7c0.3-0.3-0.1-0.4-0.3-0.4c-23.4,0-46.8,0-70.2,0c-15.4,0-30.8,0-46.1,0c-4.7,0-9.4,0-14.2,0
	c-1.8,0-4.1-0.4-5.7,0.5c-1.6,0.9-3,2.5-4.4,3.6c-3.4,2.9-6.8,5.7-10.2,8.6C10.3,17.5,5.3,21.8,0.2,26C-0.3,26.4,2,26.2,2.5,25.8z"
	/>
<rect x="1.4" y="26" class="st6" width="134.3" height="75.7"/>
<polygon class="st7" points="165.3,1.1 135.7,26 135.7,101.7 165.3,76.9 "/>
<polygon class="st6" points="31,1.1 1.4,25.9 135.7,25.9 165.3,1.1 "/>
</svg>
