<?xml version="1.0" encoding="utf-8"?>
<!-- Generator: Adobe Illustrator 22.0.1, SVG Export Plug-In . SVG Version: 6.00 Build 0)  -->
<svg version="1.1" id="圖層_1" xmlns="http://www.w3.org/2000/svg" xmlns:xlink="http://www.w3.org/1999/xlink" x="0px" y="0px"
	 viewBox="0 0 191.7 129.9" style="enable-background:new 0 0 191.7 129.9;" xml:space="preserve">
<style type="text/css">
	.st0{opacity:0.2;}
	.st1{fill:#EFEFEF;}
	.st2{fill:#FFFFFF;}
	.st3{fill:#1B1B1B;}
	.st4{fill:#362D2B;}
	.st5{opacity:0.4;}
	.st6{opacity:0.2;fill:#FFFFFF;}
	.st7{opacity:0.4;fill:#FFFFFF;}
</style>
<g>
	<path d="M98.2,0.2c-0.7,2-1.7,4.9-3,8.9h-1.1C93.6,7,92.8,4.7,92,2.3c-0.8,2.4-1.6,4.7-2.2,6.8h-1c-0.7-2.2-1.5-5-2.6-8.4
		c-0.1-0.1-0.2-0.1-0.3-0.1h-0.1V0.2h1.8C88,2.6,88.7,5,89.5,7.3c0.7-2.1,1.4-4.3,2.1-6.6c-0.1-0.1-0.2-0.2-0.4-0.2H91V0.2
		c0.3,0,0.9,0,1.7,0c0.7,2.3,1.5,4.7,2.3,7c0.7-2.1,1.4-4.3,2-6.4c-0.1-0.1-0.2-0.2-0.4-0.2h-0.1V0.2H98.2z"/>
</g>
<g>
	<path d="M191.8,72.7v0.4h-1.9c0.1-1.1,0.1-2.4,0.1-3.9v-0.5c-0.8,0-1.6,0-2.2,0c-0.8,0-1.7,0-2.5,0v0.5c0,1.7,0,2.8,0,3.3
		c0,0.1,0.2,0.2,0.5,0.2h0.1v0.4h-1.9c0.1-1.2,0.1-2.8,0.1-4.8c0-1.6,0-2.7-0.1-3.5c0-0.1-0.2-0.2-0.4-0.2h-0.1v-0.4h1.9
		c-0.1,0.5-0.1,1.6-0.1,3.3V68c0.1,0,0.5,0,1.2,0c0.5,0,0.9,0,1.3,0c0.3,0,0.7,0,1.1,0c0.6,0,0.9,0,1.1,0v-0.4c0-1,0-1.9-0.1-2.7
		c-0.2-0.2-0.3-0.2-0.4-0.2h-0.1v-0.4h1.9c-0.1,1.3-0.1,2.7-0.1,4.1c0,1.3,0,2.7,0.1,4.2C191.3,72.7,191.4,72.7,191.8,72.7
		L191.8,72.7z"/>
</g>
<g>
	<g>
		<path d="M27.7,13.6c0,2.3,0,4.6,0,6.8c0,0.7,2.4,0.3,2.4-0.6c0-2.3,0-4.6,0-6.8C30,12.3,27.7,12.7,27.7,13.6L27.7,13.6z"/>
	</g>
	<g>
		<path d="M153.8,13.4c0,2.3,0,4.6,0,6.8c0,1.1,2.4,0.6,2.4-0.3c0-2.3,0-4.6,0-6.8C156.1,12.1,153.8,12.6,153.8,13.4L153.8,13.4z"/>
	</g>
	<g>
		<path d="M28.6,17.5c36.8,0,73.6,0,110.4,0c5.2,0,10.3,0,15.5,0c1,0,2.5-1.5,0.9-1.5c-36.8,0-73.6,0-110.4,0c-5.2,0-10.3,0-15.5,0
			C28.5,16,27,17.5,28.6,17.5L28.6,17.5z"/>
	</g>
</g>
<g>
	<g>
		<path d="M176.8,34.1c-2.3,0-4.6,0-6.8,0c-0.4,0-1.4,0.2-1.6,0.6c-0.2,0.5,0.2,0.6,0.6,0.6c2.3,0,4.6,0,6.8,0
			c0.4,0,1.4-0.2,1.6-0.6C177.6,34.2,177.2,34.1,176.8,34.1L176.8,34.1z"/>
	</g>
	<g>
		<path d="M176.7,105c-2.3,0-4.6,0-6.8,0c-0.5,0-1.3,0.1-1.5,0.7c-0.2,0.5,0.2,0.8,0.7,0.8c2.3,0,4.6,0,6.8,0c0.5,0,1.3-0.1,1.5-0.7
			C177.6,105.3,177.2,105,176.7,105L176.7,105z"/>
	</g>
	<g>
		<path d="M171.7,35.1c0,20.7,0,41.4,0,62.1c0,3,0,5.9,0,8.9c0,0.5,2.4,0.2,2.4-0.6c0-20.7,0-41.4,0-62.1c0-3,0-5.9,0-8.9
			C174.1,33.9,171.7,34.3,171.7,35.1L171.7,35.1z"/>
	</g>
</g>
<path d="M155.4,105.1c-36.8,0-73.6,0-110.4,0c-5.2,0-10.3,0-15.5,0c0.2,0.2,0.5,0.4,0.7,0.5c0-20.7,0-41.3,0-62c0-3,0-6,0-9.1
	c-0.5,0.3-1.1,0.6-1.6,0.8c36.8,0,73.6,0,110.4,0c5.2,0,10.3,0,15.5,0c-0.2-0.2-0.5-0.4-0.7-0.5c0,20.7,0,41.3,0,62c0,3,0,6,0,9.1
	c0,1,2.4,0.5,2.4-0.3c0-20.7,0-41.3,0-62c0-3,0-6,0-9.1c0-0.4-0.4-0.5-0.7-0.5c-36.8,0-73.6,0-110.4,0c-5.2,0-10.3,0-15.5,0
	c-0.4,0-1.6,0.2-1.6,0.8c0,20.7,0,41.3,0,62c0,3,0,6,0,9.1c0,0.4,0.4,0.5,0.7,0.5c36.8,0,73.6,0,110.4,0c5.2,0,10.3,0,15.5,0
	C155.4,106.4,157,105.1,155.4,105.1z"/>
<path d="M1.9,129.5c5.9-4.9,11.7-9.8,17.6-14.8c3-2.5,6.1-5.1,9.1-7.6c1.1-0.9,1.3-1.1,1.5-2.4c0.4-2.4,0-5.1,0-7.6
	c0-4.3,0-8.6,0-12.8c0-10.3,0-20.6,0-30.9c0-6.3,0-12.5,0-18.8c0-0.9-1.5-0.7-1.9-0.3c-5.9,4.9-11.7,9.8-17.6,14.8
	c-3,2.5-6.1,5.1-9.1,7.6c-1.1,0.9-1.3,1.1-1.5,2.4c-0.4,2.4,0,5.1,0,7.6c0,4.3,0,8.6,0,12.8c0,10.3,0,20.6,0,30.9
	c0,6.3,0,12.5,0,18.8c0,1.1,2.4,0.7,2.4-0.2c0-14.8,0-29.6,0-44.3c0-8,0-15.9,0-23.9c0-0.8,0-1.5,0-2.3c0-1.1-0.5,0.3-0.1-0.2
	c1.8-2.3,5-4.2,7.3-6.1c6.7-5.7,13.5-11.3,20.2-17c-0.6-0.1-1.3-0.2-1.9-0.3c0,14.8,0,29.6,0,44.3c0,8,0,15.9,0,23.9
	c0,0.8,0,1.5,0,2.3c0,1.1,0.5-0.3,0.1,0.2c-1.8,2.3-5,4.2-7.3,6.1c-6.7,5.7-13.5,11.3-20.2,17C-0.9,129.7,1,130.2,1.9,129.5z"/>
<path d="M2.1,129.3C10.9,122,20.3,115,28.6,107c0.2-0.2,1.2-0.7,1.2-1c-0.1,0.7-1.8,0-1,0.5c0.5,0.3,2.1,0,2.7,0c4.1,0,8.1,0,12.2,0
	c28.7,0,57.4,0,86.1,0c8.2,0,16.4,0,24.6,0c-0.2-0.3-0.4-0.7-0.5-1c-8.8,7.4-18.2,14.4-26.6,22.3c-0.2,0.2-1.2,0.7-1.2,1
	c0.1-0.7,1.8,0,1-0.5c-0.5-0.3-2.1,0-2.7,0c-4.1,0-8.1,0-12.2,0c-28.7,0-57.4,0-86.1,0c-8.2,0-16.4,0-24.6,0c-1,0-2.5,1.5-0.9,1.5
	c21.7,0,43.3,0,65,0c14.5,0,29,0,43.5,0c4.5,0,8.9,0,13.4,0c1.7,0,3.9,0.4,5.4-0.5c1.5-0.8,2.9-2.4,4.2-3.6c3.1-2.6,6.2-5.2,9.4-7.9
	c4.7-4,9.5-8,14.2-11.9c0.5-0.5,0-1-0.5-1c-21.7,0-43.3,0-65,0c-14.5,0-29,0-43.5,0c-4.5,0-8.9,0-13.4,0c-1.7,0-3.9-0.4-5.4,0.5
	c-1.5,0.8-2.9,2.4-4.2,3.6c-3.1,2.6-6.2,5.2-9.4,7.9c-4.7,4-9.5,8-14.2,11.9C-0.9,129.7,1.4,129.9,2.1,129.3z"/>
<rect x="29.1" y="34.8" width="125.9" height="71"/>
</svg>
