<?xml version="1.0" encoding="utf-8"?>
<!-- Generator: Adobe Illustrator 22.0.1, SVG Export Plug-In . SVG Version: 6.00 Build 0)  -->
<svg version="1.1" id="圖層_1" xmlns="http://www.w3.org/2000/svg" xmlns:xlink="http://www.w3.org/1999/xlink" x="0px" y="0px"
	 viewBox="0 0 192 129.5" style="enable-background:new 0 0 192 129.5;" xml:space="preserve">
<style type="text/css">
	.st0{opacity:0.2;}
	.st1{fill:#EFEFEF;}
	.st2{fill:#FFFFFF;}
	.st3{fill:#1B1B1B;}
	.st4{fill:#362D2B;}
	.st5{opacity:0.4;}
	.st6{opacity:0.2;fill:#FFFFFF;}
	.st7{opacity:0.4;fill:#FFFFFF;}
</style>
<g>
	<path class="st2" d="M98-0.1c-0.7,2-1.7,4.9-3,8.9H94c-0.6-2.1-1.3-4.4-2.2-6.8c-0.8,2.4-1.6,4.7-2.2,6.8h-1
		c-0.6-2.2-1.5-5-2.6-8.4c-0.1-0.1-0.2-0.1-0.3-0.1h-0.1v-0.4h1.8c0.7,2.4,1.4,4.8,2.1,7.2C90,5,90.7,2.8,91.3,0.4
		c-0.1-0.1-0.2-0.2-0.4-0.2h-0.1v-0.4c0.3,0,0.9,0,1.7,0c0.7,2.3,1.5,4.7,2.3,7c0.7-2.1,1.4-4.3,1.9-6.4c-0.1-0.1-0.2-0.2-0.4-0.2
		h-0.1v-0.4H98z"/>
</g>
<g>
	<path class="st2" d="M191.6,72.4v0.4h-1.9c0.1-1.1,0.1-2.4,0.1-3.9v-0.5c-0.8,0-1.6,0-2.2,0c-0.8,0-1.7,0-2.5,0v0.5
		c0,1.7,0,2.8,0,3.3c0,0.1,0.2,0.2,0.5,0.2h0.1v0.4h-1.9c0.1-1.2,0.1-2.8,0.1-4.8c0-1.6,0-2.7-0.1-3.5c0-0.1-0.2-0.2-0.4-0.2h-0.1
		V64h1.9c-0.1,0.5-0.1,1.6-0.1,3.3v0.4c0.1,0,0.5,0,1.2,0c0.5,0,0.9,0,1.3,0c0.3,0,0.7,0,1.1,0c0.6,0,0.9,0,1.1,0v-0.4
		c0-1,0-1.9-0.1-2.7c-0.2-0.2-0.3-0.2-0.4-0.2h-0.1V64h1.9c-0.1,1.3-0.1,2.7-0.1,4.1c0,1.3,0,2.7,0.1,4.2
		C191.1,72.4,191.3,72.4,191.6,72.4L191.6,72.4z"/>
</g>
<g>
	<g>
		<path class="st2" d="M27.5,13.3c0,2.3,0,4.6,0,6.8c0,0.7,2.4,0.3,2.4-0.6c0-2.3,0-4.6,0-6.8C29.9,12,27.5,12.4,27.5,13.3
			L27.5,13.3z"/>
	</g>
	<g>
		<path class="st2" d="M153.6,13.1c0,2.3,0,4.6,0,6.8c0,1.1,2.4,0.6,2.4-0.3c0-2.3,0-4.6,0-6.8C155.9,11.8,153.6,12.3,153.6,13.1
			L153.6,13.1z"/>
	</g>
	<g>
		<path class="st2" d="M28.4,17.1c36.8,0,73.6,0,110.4,0c5.2,0,10.3,0,15.5,0c1,0,2.5-1.5,0.9-1.5c-36.8,0-73.6,0-110.4,0
			c-5.2,0-10.3,0-15.5,0C28.4,15.7,26.9,17.1,28.4,17.1L28.4,17.1z"/>
	</g>
</g>
<g>
	<g>
		<path class="st2" d="M176.6,33.8c-2.3,0-4.6,0-6.8,0c-0.4,0-1.4,0.2-1.6,0.6c-0.2,0.5,0.2,0.6,0.6,0.6c2.3,0,4.6,0,6.8,0
			c0.4,0,1.4-0.2,1.6-0.6C177.4,33.9,177.1,33.8,176.6,33.8L176.6,33.8z"/>
	</g>
	<g>
		<path class="st2" d="M176.6,104.7c-2.3,0-4.6,0-6.8,0c-0.5,0-1.3,0.1-1.5,0.7c-0.2,0.5,0.2,0.8,0.7,0.8c2.3,0,4.6,0,6.8,0
			c0.5,0,1.3-0.1,1.5-0.7C177.4,105,177.1,104.7,176.6,104.7L176.6,104.7z"/>
	</g>
	<g>
		<path class="st2" d="M171.5,34.8c0,20.7,0,41.4,0,62.1c0,3,0,5.9,0,8.9c0,0.5,2.4,0.2,2.4-0.6c0-20.7,0-41.4,0-62.1
			c0-3,0-5.9,0-8.9C173.9,33.6,171.5,34,171.5,34.8L171.5,34.8z"/>
	</g>
</g>
<path class="st2" d="M155.2,104.8c-36.8,0-73.6,0-110.4,0c-5.2,0-10.3,0-15.5,0c0.2,0.2,0.5,0.4,0.7,0.5c0-20.7,0-41.3,0-62
	c0-3,0-6,0-9.1c-0.5,0.3-1.1,0.6-1.6,0.8c36.8,0,73.6,0,110.4,0c5.2,0,10.3,0,15.5,0c-0.2-0.2-0.5-0.4-0.7-0.5c0,20.7,0,41.3,0,62
	c0,3,0,6,0,9.1c0,1,2.4,0.5,2.4-0.3c0-20.7,0-41.3,0-62c0-3,0-6,0-9.1c0-0.4-0.4-0.5-0.7-0.5c-36.8,0-73.6,0-110.4,0
	c-5.2,0-10.3,0-15.5,0c-0.4,0-1.6,0.2-1.6,0.8c0,20.7,0,41.3,0,62c0,3,0,6,0,9.1c0,0.4,0.4,0.5,0.7,0.5c36.8,0,73.6,0,110.4,0
	c5.2,0,10.3,0,15.5,0C155.2,106.1,156.8,104.8,155.2,104.8z"/>
<path class="st2" d="M1.7,129.2c5.9-4.9,11.7-9.8,17.6-14.8c3-2.5,6.1-5.1,9.1-7.6c1.1-0.9,1.3-1.1,1.5-2.4c0.4-2.4,0-5.1,0-7.6
	c0-4.3,0-8.6,0-12.8c0-10.3,0-20.6,0-30.9c0-6.3,0-12.5,0-18.8c0-0.9-1.5-0.7-1.9-0.3c-5.9,4.9-11.7,9.8-17.6,14.8
	c-3,2.5-6.1,5.1-9.1,7.6c-1.1,0.9-1.3,1.1-1.5,2.4c-0.4,2.4,0,5.1,0,7.6c0,4.3,0,8.6,0,12.8c0,10.3,0,20.6,0,30.9
	c0,6.3,0,12.5,0,18.8c0,1.1,2.4,0.7,2.4-0.2c0-14.8,0-29.6,0-44.3c0-8,0-15.9,0-23.9c0-0.8,0-1.5,0-2.3c0-1.1-0.5,0.3-0.1-0.2
	c1.8-2.3,5-4.2,7.3-6.1c6.7-5.7,13.5-11.3,20.2-17c-0.6-0.1-1.3-0.2-1.9-0.3c0,14.8,0,29.6,0,44.3c0,8,0,15.9,0,23.9
	c0,0.8,0,1.5,0,2.3c0,1.1,0.5-0.3,0.1,0.2c-1.8,2.3-5,4.2-7.3,6.1c-6.7,5.7-13.5,11.3-20.2,17C-1,129.3,0.9,129.9,1.7,129.2z"/>
<path class="st2" d="M1.9,129c8.8-7.4,18.2-14.4,26.6-22.3c0.2-0.2,1.2-0.7,1.2-1c-0.1,0.7-1.8,0-1,0.5c0.5,0.3,2.1,0,2.7,0
	c4.1,0,8.1,0,12.2,0c28.7,0,57.4,0,86.1,0c8.2,0,16.4,0,24.6,0c-0.2-0.3-0.4-0.7-0.5-1c-8.8,7.4-18.2,14.4-26.6,22.3
	c-0.2,0.2-1.2,0.7-1.2,1c0.1-0.7,1.8,0,1-0.5c-0.5-0.3-2.1,0-2.7,0c-4.1,0-8.1,0-12.2,0c-28.7,0-57.4,0-86.1,0c-8.2,0-16.4,0-24.6,0
	c-1,0-2.5,1.5-0.9,1.5c21.7,0,43.3,0,65,0c14.5,0,29,0,43.5,0c4.5,0,8.9,0,13.4,0c1.7,0,3.9,0.4,5.4-0.5c1.5-0.8,2.9-2.4,4.2-3.6
	c3.1-2.6,6.2-5.2,9.4-7.9c4.7-4,9.5-8,14.2-11.9c0.5-0.5,0-1-0.5-1c-21.7,0-43.3,0-65,0c-14.5,0-29,0-43.5,0c-4.5,0-8.9,0-13.4,0
	c-1.7,0-3.9-0.4-5.4,0.5c-1.5,0.8-2.9,2.4-4.2,3.6c-3.1,2.6-6.2,5.2-9.4,7.9c-4.7,4-9.5,8-14.2,11.9C-1.1,129.4,1.2,129.6,1.9,129z"
	/>
<rect x="28.9" y="34.5" class="st2" width="125.9" height="71"/>
</svg>
