<?xml version="1.0" encoding="utf-8"?>
<!-- Generator: Adobe Illustrator 22.1.0, SVG Export Plug-In . SVG Version: 6.00 Build 0)  -->
<svg version="1.1" id="Layer_1" xmlns="http://www.w3.org/2000/svg" xmlns:xlink="http://www.w3.org/1999/xlink" x="0px" y="0px"
	 viewBox="0 0 29.6 29.7" style="enable-background:new 0 0 29.6 29.7;" xml:space="preserve">
<title>bus</title>
<path d="M8.4,23.8c1.3,0,2.4-1.1,2.4-2.4c0-1.3-1.1-2.4-2.4-2.4S6,20.1,6,21.4c0,0,0,0,0,0C6,22.7,7.1,23.8,8.4,23.8L8.4,23.8z
	 M8.4,20.3c0.6,0,1.1,0.5,1.1,1.1c0,0.6-0.5,1.1-1.1,1.1c-0.6,0-1.1-0.5-1.1-1.1l0,0C7.3,20.8,7.8,20.3,8.4,20.3z"/>
<path d="M21.2,23.8c1.3,0,2.4-1.1,2.4-2.4s-1.1-2.4-2.4-2.4s-2.4,1.1-2.4,2.4c0,0,0,0,0,0C18.9,22.7,19.9,23.8,21.2,23.8
	C21.2,23.8,21.2,23.8,21.2,23.8z M21.2,20.3c0.6,0,1.1,0.5,1.1,1.1c0,0.6-0.5,1.1-1.1,1.1c-0.6,0-1.1-0.5-1.1-1.1c0,0,0,0,0,0
	C20.1,20.8,20.6,20.3,21.2,20.3z"/>
<path d="M28.4,3.4h-1.8V2.1c0-1.2-1-2.1-2.1-2.1H5.2C4,0,3,0.9,3,2.1v1.3H1.2C0.5,3.4,0,3.9,0,4.6c0,0,0,0,0,0v6.1
	c0,0.7,0.5,1.2,1.2,1.2H3v12.8c0,1.2,1,2.1,2.2,2.1c-0.1,0-0.3,0-0.4,0h0v1.7c0,0.7,0.5,1.2,1.2,1.2c0,0,0,0,0,0h3.3
	c0.7,0,1.2-0.5,1.2-1.2v-1.6h8.7v1.6c0,0.7,0.5,1.2,1.2,1.2h3.3c0.7,0,1.2-0.5,1.2-1.2c0,0,0,0,0,0v-1.7l0,0c-0.1,0-0.3,0-0.4,0
	c1.2,0,2.1-1,2.1-2.1V12h1.8c0.7,0,1.2-0.5,1.2-1.2c0,0,0,0,0,0V4.6C29.6,4,29.1,3.4,28.4,3.4z M3,10.7H1.2V4.7H3V10.7z M4.2,4.7h10
	v11.5h-10L4.2,4.7z M9.2,28.5H6v-1.6h3.3L9.2,28.5z M23.6,28.5h-3.2v-1.6h3.3L23.6,28.5z M25.4,24.8c0,0.5-0.4,0.9-0.9,0.9l0,0H5.2
	c-0.5,0-0.9-0.4-0.9-0.9l0,0v-7.4h21.2L25.4,24.8z M25.4,16.2h-10V4.7h10V16.2z M25.4,3.4H4.2V2.1c0-0.5,0.4-0.9,0.9-0.9l0,0h19.3
	c0.5,0,0.9,0.4,0.9,0.9l0,0L25.4,3.4z M28.4,10.7h-1.8V4.7h1.8L28.4,10.7z"/>
</svg>
