<?xml version="1.0" encoding="utf-8"?>
<!-- Generator: Adobe Illustrator 22.1.0, SVG Export Plug-In . SVG Version: 6.00 Build 0)  -->
<svg version="1.1" id="Layer_1" xmlns="http://www.w3.org/2000/svg" xmlns:xlink="http://www.w3.org/1999/xlink" x="0px" y="0px"
	 viewBox="0 0 31 19.6" style="enable-background:new 0 0 31 19.6;" xml:space="preserve">
<title>car</title>
<path d="M6.3,7.6C6.9,8,7.5,8.2,8.2,8.2H23c0.7,0,1.3-0.2,1.8-0.6l0.8-0.6c0.6-0.4,0.8-1.2,0.5-1.9l-1.7-3.7c0,0,0,0,0-0.1
	C23.5,0.1,22.3,0,21,0H10.2C8.9,0,7.7,0.1,6.8,1.4c0,0,0,0,0,0.1L5.1,5.2C4.8,5.8,5,6.6,5.6,7.1L6.3,7.6z M6.1,5.6L7.7,2
	c0.5-0.8,1.1-0.9,2.4-0.9h10.8c1.3,0,1.9,0.1,2.4,0.9l1.7,3.6c0.1,0.2,0,0.4-0.1,0.6l-0.8,0.6C23.8,7,23.4,7.2,23,7.2H8.2
	C7.7,7.2,7.3,7,7,6.8L6.2,6.2C6,6.1,6,5.8,6.1,5.6L6.1,5.6z"/>
<path d="M31,6.3l-0.2-0.7c-0.2-0.7-0.9-1.2-1.6-1.2h-1.7c-0.3,0-0.6,0.2-0.6,0.6s0.2,0.6,0.6,0.6l0,0h1.6c0.2,0,0.5,0.2,0.5,0.4
	l0.2,0.7c0,0,0,0,0,0.1h-0.1H27c-0.2,0-0.3,0-0.4,0.1c-0.2,0.2-0.3,0.5-0.1,0.8c0,0,0,0,0,0l1.3,1.6l0,0c0.5,0.7,0.8,1.6,0.8,2.5
	v3.1c-0.1,0.6-0.5,1-1.1,1.1L3.5,16c-0.6-0.1-1-0.5-1.1-1.1v-3.1c0-0.9,0.3-1.8,0.8-2.5l0,0l1.3-1.6C4.7,7.4,4.6,7,4.4,6.8
	C4.3,6.7,4.1,6.7,4,6.7H1.2c0,0,0,0-0.1,0c0,0,0,0,0-0.1L1.3,6c0.1-0.2,0.3-0.4,0.5-0.4h1.6C3.8,5.6,4,5.3,4,5S3.8,4.4,3.5,4.4H1.8
	c-0.7,0-1.4,0.5-1.6,1.2L0,6.3c-0.1,0.3,0,0.7,0.2,1c0.2,0.3,0.6,0.5,0.9,0.5h1.8L2.4,8.5c-0.7,0.9-1.1,2.1-1.1,3.3v3.1
	c0.1,1.2,1,2.1,2.2,2.2H3.4v1.4c0,0.6,0.5,1.1,1.1,1.1c0,0,0,0,0,0h3c0.6,0,1.1-0.5,1.1-1.1c0,0,0,0,0,0v-1.4h15h-0.9v1.4
	c0,0.6,0.5,1.1,1.1,1.1h3c0.6,0,1.1-0.5,1.1-1.1v-1.4h-0.2c1.2-0.1,2.1-1,2.2-2.2v-3.2c0-1.2-0.4-2.3-1.1-3.3l-0.5-0.7h1.8
	c0.4,0,0.7-0.2,0.9-0.5C31,7,31.1,6.6,31,6.3z M7.5,18.5h-3v-1.4h2.9L7.5,18.5z M26.7,18.5h-3v-1.4h2.9L26.7,18.5z"/>
<path d="M11.6,14h7.8c0.3,0,0.5-0.2,0.5-0.5c0,0,0,0,0,0c0-0.3-0.2-0.6-0.5-0.6c0,0,0,0,0,0h-7.8c-0.3,0-0.6,0.2-0.6,0.6
	C11.1,13.8,11.4,14,11.6,14L11.6,14z"/>
<path d="M19.5,12c0.3,0,0.6-0.3,0.5-0.6c0-0.3-0.2-0.5-0.5-0.5h-7.8c-0.3,0-0.6,0.2-0.6,0.5c0,0,0,0,0,0c0,0.3,0.3,0.6,0.6,0.5
	L19.5,12z"/>
<path d="M4.5,10.9l1.3,1C5.8,12,5.9,12,6.1,12h2.5c0.3,0,0.6-0.2,0.6-0.5c0-0.3-0.3-0.6-0.6-0.5H6.2l-1.1-0.9
	c-0.3-0.1-0.6,0-0.7,0.3C4.4,10.6,4.4,10.8,4.5,10.9z"/>
<path d="M8.6,12.9H6c-0.3,0-0.6,0.2-0.6,0.5c0,0.3,0.2,0.6,0.5,0.6c0,0,0,0,0,0h2.6c0.3,0,0.5-0.3,0.5-0.6C9,13.1,8.8,12.9,8.6,12.9
	L8.6,12.9z"/>
<path d="M26.8,10.1C26.6,9.9,26.2,9.8,26,10l-1.1,0.9h-2.3c-0.3,0-0.5,0.3-0.5,0.6c0,0.3,0.2,0.4,0.5,0.5h2.5c0.1,0,0.2,0,0.3-0.1
	l1.2-1C26.9,10.7,26.9,10.3,26.8,10.1z"/>
<path d="M22.6,12.9c-0.3,0-0.5,0.2-0.5,0.5s0.2,0.5,0.5,0.5h2.6c0.3,0,0.5-0.3,0.5-0.6c0-0.3-0.2-0.4-0.5-0.5L22.6,12.9z"/>
</svg>
