<?xml version="1.0" encoding="utf-8"?>
<!-- Generator: Adobe Illustrator 22.1.0, SVG Export Plug-In . SVG Version: 6.00 Build 0)  -->
<svg version="1.1" id="Help_and_Support__Icons" xmlns="http://www.w3.org/2000/svg" xmlns:xlink="http://www.w3.org/1999/xlink"
	 x="0px" y="0px" viewBox="0 0 123.9 145.1" style="enable-background:new 0 0 123.9 145.1;" xml:space="preserve">
<path d="M121.4,61.6L121.4,61.6c-4.3-5.9-12.7-7.3-18.7-2.9L84.1,72.6c-3.6,2.6-5.7,6.9-5.4,11.4c0,0.2,0,0.4,0,0.6v1.6l-3.4-2.5
	c9.1-12.6,9.5-25.9,9.5-26.5c0-2-0.5-3.9-1.4-5.6L117.2,32c3.5-2,4.7-6.5,2.7-10l0,0l-6.8-11.8c-1-1.7-2.5-2.9-4.4-3.4
	c-1.8-0.5-3.8-0.3-5.4,0.7l-0.8-2.9c-0.5-2-1.8-3.5-3.5-4.2s-3.6-0.5-5.2,0.4l0,0c-0.6,0.4-1.2,0.8-1.7,1.4c-0.5-0.5-1.2-1-1.9-1.3
	c-1.7-0.7-3.6-0.5-5.2,0.4l0,0c-1.9,1.1-3.3,3.1-3.8,5.3c-1.2-0.1-2.4,0.2-3.5,0.8l0,0c-2.1,1.2-3.5,3.4-3.9,5.9
	c-1.1,0-2.2,0.3-3.2,0.9l0,0c-3.1,1.8-4.8,6-3.8,9.5L68,28l-9.7,5.6l-0.2,0.1c-0.1,0.1-0.2,0.1-0.3,0.2c-0.1,0.1-0.2,0.1-0.3,0.2
	c-0.1,0.1-0.2,0.1-0.2,0.2c-0.1,0.1-0.2,0.2-0.3,0.3c-0.1,0.1-0.1,0.1-0.2,0.2s-0.2,0.2-0.3,0.3c0,0.1-0.1,0.1-0.1,0.2
	c-0.1,0.1-0.2,0.3-0.3,0.4c0,0.1-0.1,0.1-0.1,0.2c-0.1,0.1-0.2,0.3-0.3,0.4c-0.1,0.1-0.1,0.2-0.1,0.3c-0.1,0.1-0.1,0.2-0.2,0.4
	c-0.1,0.2-0.2,0.4-0.2,0.6v0.1c-0.2,0.5-0.3,0.9-0.4,1.4c0,0.1,0,0.1,0,0.2c0,0.2,0,0.3-0.1,0.5c0,0.2,0,0.3,0,0.5
	c0,0.1,0,0.1,0,0.2c0,0.2,0,0.4,0,0.6v0.1c0,0.2,0.1,0.4,0.1,0.6v0.1c0,0.2,0.1,0.4,0.2,0.6v0.1c0.1,0.2,0.1,0.3,0.2,0.5
	c0,0.1,0,0.1,0.1,0.2c0,0,0,0.1,0.1,0.1l-2.1,2.8c-0.5-0.7-1-1.4-1.5-2.1c-4.9-6-11.8-9.8-19.6-10.6c-7.7-0.8-15.3,1.4-21.4,6.3
	C4.8,44.7,1,51.6,0.2,59.4s1.4,15.3,6.3,21.4c4.6,5.7,11,9.3,18.2,10.4c0.7,1.6,1.5,3.1,2.3,4.6c-3.4,7.3-5.9,21.9,6.4,31.4l0,0
	c4.2,3.3,4.2,3.3,7.3,5.7c5.2,4,31,9.7,33.9,10.4c0.1,0,0.3,0,0.4,0.1l27.1,1.7c0.1,0,0.1,0,0.2,0c1,0,1.9-0.6,2.3-1.5
	c0.1-0.3,1.4-3.4-0.3-6.5c-0.3-0.6-0.7-1.1-1.1-1.6l6.6-2.8c0.9-0.4,1.5-1.3,1.5-2.3c0-0.3,0-1.2-0.5-2.4l0,0
	c-0.6-1.3-1.9-3.1-4.8-4c6.2-10.3,6.6-23.5,0.6-34.3l12.5-9.4C124.4,75.9,125.7,67.5,121.4,61.6z M57.2,57.6l5.5-0.8
	c0.2,0.3,0.5,0.5,0.7,0.7c-0.3,2.6-1.7,10.6-8.6,17.3c1.4-2.9,2.3-6.1,2.6-9.4C57.8,62.8,57.7,60.2,57.2,57.6z M63.7,36.3L70,47.2
	c-2,0.9-3.7,2.3-4.9,4.2l-5.8-10c-0.1-0.1-0.1-0.2-0.2-0.4c0,0,0,0,0-0.1S59,40.6,59,40.5l0,0c0-0.3,0-0.6,0.1-0.9
	c0.2-0.6,0.5-1.1,1.1-1.4l0.3-0.2L63.7,36.3z M96.1,5.2c0.2-0.1,0.5-0.3,0.8-0.2c0.2,0.1,0.5,0.4,0.6,0.9l2.1,7.6
	c0.4,1.4-0.4,3.2-1.5,3.9c-0.2,0.1-0.5,0.3-0.8,0.2c-0.1,0-0.1-0.1-0.2-0.1c-0.2-0.2-0.3-0.4-0.4-0.8l-0.3-1l-0.1-0.5l0,0l-1.7-6.1
	C94.2,7.7,94.9,5.9,96.1,5.2z M87.3,5.8c0.2-0.1,0.5-0.3,0.8-0.2c0.2,0.1,0.5,0.4,0.6,0.9l2.7,10l0,0l1.2,4.3
	c0.4,1.4-0.4,3.2-1.5,3.9c-0.2,0.1-0.5,0.3-0.8,0.2c-0.1,0-0.1-0.1-0.2-0.1c-0.2-0.2-0.3-0.4-0.4-0.8L85.9,9.7
	C85.4,8.3,86.1,6.4,87.3,5.8z M80,11.9c0.2-0.1,0.5-0.3,0.8-0.2c0.2,0.1,0.5,0.4,0.6,0.9l3.4,12.6c0.4,1.4-0.4,3.2-1.5,3.9
	c-0.2,0.1-0.5,0.3-0.8,0.2c-0.1,0-0.1-0.1-0.2-0.1c-0.2-0.2-0.3-0.4-0.4-0.8l-3.4-12.6C78.1,14.4,78.8,12.6,80,11.9z M72.8,18.6
	c0.2-0.1,0.5-0.3,0.8-0.2c0.3,0.1,0.5,0.4,0.6,0.9L77,29.7c0.4,1.4-0.4,3.2-1.5,3.9c-0.2,0.1-0.5,0.3-0.8,0.2
	c-0.2-0.1-0.5-0.4-0.6-0.9l-2.8-10.4C70.9,21.2,71.7,19.3,72.8,18.6z M69.3,34.2c0.5,2,1.8,3.5,3.5,4.2c0.3,0.1,0.6,0.2,0.9,0.3
	c0.1,0,0.1,0,0.2,0c0.3,0.1,0.6,0.1,0.9,0.1c0,0,0,0,0.1,0s0.1,0,0.2,0c0.2,0,0.3,0,0.5,0c0.1,0,0.2,0,0.3,0c0.2,0,0.3-0.1,0.5-0.1
	c0.1,0,0.2,0,0.3-0.1c0.2,0,0.3-0.1,0.5-0.2c0.1,0,0.2-0.1,0.2-0.1c0.2-0.1,0.5-0.2,0.7-0.4c0.3-0.2,0.7-0.4,1-0.7
	c0,0,0.1,0,0.1-0.1c0.3-0.2,0.6-0.5,0.8-0.8l0.1-0.1c0.2-0.3,0.5-0.6,0.7-0.9l0.1-0.1c0.2-0.3,0.4-0.7,0.5-1c0,0,0,0,0-0.1h0.1
	c0.2,0,0.4,0.1,0.6,0.1c0.2,0,0.4,0,0.5,0.1h0.1c0.3,0,0.6,0,0.9-0.1c0.1,0,0.1,0,0.2,0c0.3,0,0.5-0.1,0.8-0.2
	c0.1,0,0.2-0.1,0.3-0.1c0.3-0.1,0.7-0.3,1-0.4c0.3-0.2,0.7-0.4,1-0.7c0,0,0.1,0,0.1-0.1c0.3-0.2,0.6-0.5,0.8-0.8l0.1-0.1
	c0.2-0.3,0.5-0.6,0.7-0.9l0.1-0.1c0.2-0.3,0.4-0.6,0.5-1v-0.1h0.1c0.2,0,0.4,0.1,0.6,0.1c0.2,0,0.3,0,0.5,0h0.1c0.3,0,0.6,0,0.9-0.1
	c0.1,0,0.1,0,0.2,0c0.3,0,0.5-0.1,0.8-0.2c0.1,0,0.2-0.1,0.3-0.1c0.3-0.1,0.7-0.3,1-0.4c0.2-0.1,0.5-0.3,0.7-0.5
	c0.1,0,0.1-0.1,0.2-0.1c0.2-0.2,0.4-0.3,0.5-0.5l0.1-0.1c0.2-0.2,0.4-0.4,0.6-0.6c0-0.1,0.1-0.1,0.1-0.2c0.1-0.2,0.3-0.4,0.4-0.6
	c0-0.1,0.1-0.1,0.1-0.2c0.2-0.2,0.3-0.5,0.4-0.8c0,0,0-0.1,0.1-0.1c0.1-0.2,0.2-0.5,0.3-0.7c0-0.1,0.1-0.1,0.1-0.2
	c0.1-0.3,0.2-0.6,0.2-0.9l0,0c0.1-0.3,0.1-0.6,0.1-0.8v-0.1c0.1,0,0.2,0,0.4,0c0.1,0,0.3,0,0.4,0c0.1,0,0.3-0.1,0.4-0.1
	c0.1,0,0.2,0,0.4-0.1c0.2,0,0.3-0.1,0.5-0.2c0.1,0,0.2-0.1,0.3-0.1c0.3-0.1,0.5-0.2,0.7-0.4c0.2-0.1,0.4-0.2,0.6-0.4
	c0.1,0,0.1-0.1,0.2-0.1c0.1-0.1,0.3-0.2,0.4-0.3c0.1-0.1,0.1-0.1,0.2-0.2c0.1-0.1,0.2-0.2,0.3-0.3c0.1-0.1,0.1-0.1,0.2-0.2
	c0.1-0.1,0.2-0.2,0.3-0.3c0.1-0.1,0.1-0.1,0.2-0.2c0.1-0.1,0.2-0.2,0.2-0.3c0.1-0.1,0.1-0.2,0.2-0.2c0.1-0.1,0.1-0.2,0.2-0.3
	c0-0.1,0.1-0.2,0.1-0.2c0.1-0.1,0.1-0.2,0.2-0.4c0-0.1,0.1-0.2,0.1-0.3c0.1-0.1,0.1-0.2,0.2-0.4c0-0.1,0.1-0.2,0.1-0.3
	s0.1-0.2,0.1-0.4c0-0.1,0.1-0.2,0.1-0.3s0.1-0.3,0.1-0.4c0-0.1,0-0.2,0.1-0.3c0-0.1,0.1-0.3,0.1-0.4c0-0.1,0-0.2,0-0.3s0-0.3,0-0.4
	c0-0.1,0-0.2,0-0.3s0-0.2,0-0.4c0-0.1,0-0.2,0-0.3s0-0.2,0-0.4c0-0.1,0-0.2,0-0.3s0-0.2,0-0.4c0-0.1,0-0.2-0.1-0.3
	c0-0.1,0-0.1,0-0.2l1-0.6c0.5-0.3,1.1-0.4,1.7-0.2c0.6,0.2,1.1,0.5,1.4,1.1l6.8,11.8c0.6,1.1,0.3,2.5-0.8,3.1L80,47.7
	c-1.1-0.7-2.4-1.2-3.8-1.4c-0.1,0-0.1,0-0.2,0c-0.1,0-0.2,0-0.4-0.1l-7.3-12.7l1-0.6L69.3,34.2z M57.5,48.1l2.4,4.1l-3.8,0.5
	c-0.2-0.6-0.4-1.2-0.7-1.7L57.5,48.1z M9.8,77.6c-4.1-5-5.9-11.3-5.2-17.7s3.8-12.2,8.8-16.2c4.3-3.5,9.6-5.4,15.1-5.4
	c0.8,0,1.7,0,2.6,0.1c6.4,0.7,12.2,3.8,16.2,8.8c1.1,1.4,2.1,2.9,2.9,4.4c0,0.1,0,0.1,0.1,0.2c0.7,1.4,1.2,2.8,1.6,4.3
	c0,0.1,0.1,0.2,0.1,0.3c0.7,2.7,0.9,5.6,0.6,8.4C51.9,71.2,48.8,77,43.8,81c-0.6,0.5-1.2,0.9-1.9,1.4l0,0c-4.1,2.7-8.9,4.1-13.7,4
	h-0.1c-0.7,0-1.3-0.1-2-0.1C19.6,85.7,13.9,82.6,9.8,77.6z M74.9,138.3c-10.6-2.3-28.5-6.9-31.7-9.4c-3.1-2.4-3.1-2.4-7.3-5.7
	c-9.7-7.5-7.5-18.3-5.7-23.4l13.5,10.4c0.6,0.5,1.4,0.6,2.1,0.4h0.1l0,0l0,0l0,0c0.1,0,0.2-0.1,0.4-0.1c0.1,0,0.1,0,0.2,0
	s0.2,0,0.3-0.1c2.4-0.5,7.3-1.1,9.8,0.8c0.1,0.1,0.3,0.2,0.5,0.4c2.7,2.1,11.3,8.7,15.4,11.9c-0.1,0-0.2,0.1-0.3,0.1s-0.2,0-0.3,0
	s-0.2,0-0.3,0s-0.2,0-0.3,0s-0.2,0-0.3,0s-0.3-0.1-0.4-0.1c-0.1,0-0.2,0-0.3-0.1c-0.2,0-0.3-0.1-0.5-0.2c-0.1,0-0.2-0.1-0.3-0.1
	c-0.2-0.1-0.4-0.2-0.5-0.2s-0.2-0.1-0.3-0.1c-0.2-0.1-0.4-0.2-0.6-0.3c-0.1,0-0.1-0.1-0.2-0.1c-0.2-0.1-0.5-0.3-0.7-0.4
	c-0.1,0-0.1-0.1-0.2-0.1c-0.3-0.2-0.5-0.4-0.8-0.6l-8.8-6.8c-1.1-0.8-2.7-0.6-3.5,0.5s-0.6,2.7,0.5,3.5l8.7,6.7l0,0l9.5,7.4
	c0.3,0.3,0.7,0.4,1.1,0.5c0.1,0,8.5,1.4,16.6,2.9c0.1,0,0.1,0,0.2,0l0.9,0.2l0,0c1.1,0.2,2.2,0.4,3.2,0.6c2.4,0.5,4.1,1.3,4.7,2.4
	c0.1,0.2,0.2,0.4,0.2,0.6L74.9,138.3z M104.7,129.1l-4.6,1.9l-0.4-0.1c0.2-0.2,0.4-0.4,0.6-0.5c0.6-0.6,1.2-1.3,1.8-2
	C103.2,128.4,104.1,128.7,104.7,129.1z M115.5,76.2l-14.1,10.6l-0.2,0.1c-1.1,0.8-1.4,2.3-0.7,3.4c7.5,11.4,5.9,26.8-3.8,36.5
	c-1.6,1.6-3.5,3.1-5.4,4.3h-0.1c-6.9-1.3-14-2.5-16.1-2.9l-0.3-0.2c2.5-1.1,3.6-3.3,3.8-3.6c0.5-1.1,0.2-2.3-0.7-3.1
	c0,0-15.5-12-18.2-14c-1.1-0.8-2.3-1.4-3.6-1.8c-0.6-0.2-1.3-0.3-2-0.4c-0.3,0-0.7-0.1-1-0.1c-0.7-0.1-1.3-0.1-1.9-0.1
	c-2.2,0-4.2,0.4-5.4,0.6l-14.5-11c-0.5-1-1-2-1.6-3c0.2,0,0.4,0,0.5,0c0.4,0,0.8-0.1,1.2-0.1c0.2,0,0.4-0.1,0.6-0.1
	c1.7-0.2,3.3-0.6,4.9-1c0.1,0,0.3-0.1,0.4-0.1c0.5-0.2,1-0.3,1.5-0.5c0.2-0.1,0.3-0.1,0.5-0.2c0.5-0.2,0.9-0.4,1.4-0.6
	c0.1-0.1,0.2-0.1,0.3-0.2c0.7-0.4,1.5-0.7,2.2-1.2c0.3-0.2,0.6-0.3,0.9-0.5c0.1,0,0.1,0,0.2-0.1c23.3-8.2,24.1-29.8,24.1-30v-0.1
	c0-0.1,0-0.1,0-0.2c0-0.4,0.1-0.7,0.2-1c0.1-0.2,0.1-0.4,0.2-0.6c0-0.1,0.1-0.2,0.1-0.3c0.1-0.3,0.3-0.6,0.5-0.8l0,0
	c1-1.3,2.6-2.2,4.3-2.3c0.1,0,0.1,0,0.2,0c0,0,0,0,0.1,0l0,0c0.2,0,0.4,0,0.6,0l0,0c1.3,0.2,2.3,0.8,3,1.4c0.1,0.1,0.1,0.1,0.2,0.2
	c1.1,1.1,1.7,2.5,1.7,4.1c0,0.6-0.4,13.7-10,25.5C66.1,87,61.9,90.6,57,93.4c-1.2,0.7-1.6,2.2-0.9,3.4c0.5,0.8,1.3,1.2,2.2,1.2
	c0.4,0,0.9-0.1,1.3-0.3c4.7-2.7,8.8-6.1,12.3-10l6.5,4.8v11.8c0,1.4,1.1,2.5,2.5,2.5l0,0c1.4,0,2.5-1.1,2.5-2.5V91.2v-6.5
	c0-0.2,0-0.3,0-0.5c0-0.1,0-0.2,0-0.3c-0.2-2.9,1.1-5.6,3.4-7.3l18.6-13.9c3.7-2.7,8.9-1.9,11.6,1.8C120,68.2,119.2,73.4,115.5,76.2
	z"/>
</svg>
