<?xml version="1.0" encoding="utf-8"?>
<!-- Generator: Adobe Illustrator 22.1.0, SVG Export Plug-In . SVG Version: 6.00 Build 0)  -->
<svg version="1.1" id="Help_and_Support__Icons" xmlns="http://www.w3.org/2000/svg" xmlns:xlink="http://www.w3.org/1999/xlink"
	 x="0px" y="0px" viewBox="0 0 208 208" style="enable-background:new 0 0 208 208;" xml:space="preserve">
<style type="text/css">
	.st0{fill:#FFFFFF;}
</style>
<circle cx="104" cy="104" r="104"/>
<g>
	<path class="st0" d="M78,111.4c-7.8,0-14.1,6.3-14.1,14.1s6.3,14.1,14.1,14.1s14.1-6.3,14.1-14.1S85.8,111.4,78,111.4z M78,134.7
		c-5,0-9.1-4.1-9.1-9.1s4.1-9.1,9.1-9.1s9.1,4.1,9.1,9.1C87.2,130.6,83.1,134.7,78,134.7z"/>
	<path class="st0" d="M164.2,130.1H154L143.4,111v-1.7c0-5.2-4.2-9.4-9.3-9.5V86c0-6.5-5.3-11.8-11.8-11.8H80.5V53.4
		c0-3.9-3.2-7.2-7.2-7.2H57.1c-1.4,0-2.5,1.1-2.5,2.5c0,1.4,1.1,2.5,2.5,2.5h16.3c1.2,0,2.2,1,2.2,2.2v39.5
		c-16.9,1.3-30.3,15.4-30.3,32.7c0,18.1,14.7,32.8,32.8,32.8s32.8-14.7,32.8-32.8c0-4-0.7-7.9-2.1-11.5h20.4v32.4
		c0,6.5,5.3,11.8,11.8,11.8s11.8-5.3,11.8-11.8s-5.3-11.8-11.8-11.8c-2.5,0-4.9,0.8-6.8,2.2v-22.8h5.3l10.9,19.7
		c0.4,0.8,1.3,1.3,2.2,1.3h11.6c1.4,0,2.5-1.1,2.5-2.5S165.6,130.1,164.2,130.1z M140.9,139.7c3.8,0,6.8,3.1,6.8,6.8
		c0,3.8-3.1,6.8-6.8,6.8c-3.8,0-6.8-3.1-6.8-6.8S137.2,139.7,140.9,139.7z M122.3,79.2c3.8,0,6.8,3.1,6.8,6.8v13.8H98.2
		c-5-3.9-11.1-6.4-17.7-6.9V79.2H122.3z M78,153.4c-15.3,0-27.8-12.5-27.8-27.8S62.7,97.8,78,97.8s27.8,12.5,27.8,27.8
		S93.4,153.4,78,153.4z M106.4,109.1c-0.9-1.5-1.9-3-3-4.3h25.8v4.3H106.4z M134.1,109.1v-4.3c2.3,0.1,4.2,2,4.3,4.3H134.1z"/>
</g>
</svg>
