<?xml version="1.0" encoding="utf-8"?>
<!-- Generator: Adobe Illustrator 22.1.0, SVG Export Plug-In . SVG Version: 6.00 Build 0)  -->
<svg version="1.1" id="Help_and_Support__Icons" xmlns="http://www.w3.org/2000/svg" xmlns:xlink="http://www.w3.org/1999/xlink"
	 x="0px" y="0px" viewBox="0 0 151.2 151.1" style="enable-background:new 0 0 151.2 151.1;" xml:space="preserve">
<path d="M147.8,62.6l-15.2-3.4l-0.3-0.8c-1.1-3.7-2.6-7.3-4.5-10.8l-0.4-0.8l8.3-13.2c0.7-1.1,0.6-2.5-0.1-3.5
	c-4.2-5.6-9.2-10.5-14.7-14.8c-1-0.8-2.4-0.8-3.5-0.1l-13.2,8.3l-0.8-0.4c-3.4-1.8-7.1-3.3-10.8-4.5l-0.8-0.3L88.4,3.2
	C88.1,2,87.1,1,85.8,0.8c-7-1-13.9-1-20.9,0c-1.3,0.2-2.3,1.1-2.6,2.4l-3.4,15.2l-0.8,0.3c-3.7,1.1-7.3,2.6-10.8,4.5l-0.8,0.4
	l-13.1-8.4c-1.1-0.7-2.5-0.6-3.5,0.1c-5.6,4.3-10.5,9.2-14.8,14.8c-0.8,1-0.8,2.4-0.1,3.5l8.3,13.2l-0.4,0.8
	c-1.8,3.4-3.3,7-4.5,10.8l-0.3,0.8L3,62.6c-1.2,0.3-2.2,1.3-2.3,2.6C0.2,68.7,0,72.3,0,75.7s0.2,6.9,0.7,10.5
	c0.2,1.3,1.1,2.3,2.3,2.6l15.2,3.4l0.3,0.8c1.1,3.7,2.6,7.3,4.5,10.8l0.4,0.8l-8.4,13c-0.7,1.1-0.6,2.5,0.1,3.5
	c4.2,5.6,9.2,10.6,14.8,14.8c1,0.8,2.4,0.8,3.5,0.1l13.2-8.3l0.8,0.4c3.4,1.8,7,3.3,10.8,4.5l0.8,0.3l3.4,15.2
	c0.3,1.2,1.3,2.2,2.6,2.3c3.5,0.5,7.1,0.7,10.5,0.7s6.9-0.2,10.5-0.7c1.3-0.2,2.3-1.1,2.6-2.3l3.4-15.2l0.8-0.3
	c3.7-1.1,7.3-2.6,10.8-4.5l0.8-0.4l13.2,8.3c1.1,0.7,2.5,0.6,3.5-0.1c5.6-4.2,10.6-9.2,14.8-14.8c0.8-1,0.8-2.4,0.1-3.5l-8.3-13.2
	l0.4-0.8c1.8-3.4,3.3-7.1,4.5-10.8l0.3-0.8l15.2-3.4c1.2-0.3,2.2-1.3,2.4-2.6c0.5-3.5,0.7-7.1,0.7-10.5s-0.2-6.9-0.7-10.5
	C150,63.9,149,62.9,147.8,62.6z M144.5,82.1l-0.1,1.1l-14.9,3.4c-1.1,0.3-2,1.1-2.3,2.2c-1.3,5-3.2,9.8-5.9,14.2
	c-0.6,1-0.6,2.2,0,3.2l8.2,12.9l-0.7,0.8c-2.8,3.3-5.8,6.4-9.1,9.1l-0.8,0.7l-12.9-8.2c-1-0.6-2.2-0.6-3.2,0
	c-4.4,2.6-9.2,4.6-14.2,5.9c-1.1,0.3-2,1.2-2.2,2.3L83,144.5l-1.1,0.1c-2.2,0.2-4.3,0.3-6.4,0.3s-4.3-0.1-6.5-0.3l-1.1-0.1
	l-3.4-14.9c-0.3-1.1-1.1-2-2.2-2.3c-5-1.3-9.7-3.2-14.2-5.9c-1-0.6-2.2-0.6-3.2,0L32,129.6l-0.8-0.7c-3.3-2.7-6.4-5.8-9.1-9.1
	l-0.7-0.8l8.2-12.9c0.6-1,0.6-2.2,0-3.2c-2.6-4.4-4.6-9.2-5.9-14.2c-0.3-1.1-1.2-2-2.3-2.2l-15-3.5L6.3,82C6.1,79.8,6,77.6,6,75.5
	s0.1-4.3,0.3-6.5l0.1-1.1l14.9-3.4c1.1-0.3,2-1.1,2.3-2.2c1.3-5,3.2-9.8,5.9-14.2c0.6-1,0.6-2.2,0-3.2L21.3,32l0.7-0.8
	c2.7-3.3,5.8-6.4,9.1-9.1l0.8-0.7l12.9,8.2c1,0.6,2.2,0.6,3.2,0c4.4-2.6,9.2-4.6,14.2-5.9c1.1-0.3,2-1.2,2.2-2.3l3.4-14.9l1.1-0.1
	c4.3-0.4,8.6-0.4,12.9,0l1.1,0.1l3.4,14.9c0.3,1.1,1.1,2,2.2,2.3c5,1.3,9.7,3.2,14.2,5.9c1,0.6,2.2,0.6,3.2,0l12.9-8.2l0.8,0.7
	c3.3,2.7,6.4,5.8,9.1,9.1l0.7,0.8l-8.2,12.9c-0.6,1-0.6,2.2,0,3.2c2.6,4.4,4.6,9.2,5.9,14.2c0.3,1.1,1.2,2,2.3,2.2l14.9,3.4l0.1,1.1
	c0.2,2.2,0.3,4.3,0.3,6.5C144.8,77.7,144.7,79.9,144.5,82.1z"/>
<path d="M75.4,37.6c-20.9,0-38,17-38,38s17,38,38,38c20.9,0,38-17,38-38S96.3,37.6,75.4,37.6z M75.4,107.4
	c-17.6,0-31.9-14.3-31.9-31.9s14.3-31.9,31.9-31.9s31.9,14.3,31.9,31.9S93,107.4,75.4,107.4z"/>
<path d="M75.4,55.6c-11,0-20,9-20,20s9,20,20,20s20-9,20-20S86.4,55.6,75.4,55.6z M75.4,89.4c-7.7,0-13.9-6.2-13.9-13.9
	s6.2-13.9,13.9-13.9s13.9,6.2,13.9,13.9S83.1,89.4,75.4,89.4z"/>
</svg>
