<?xml version="1.0" encoding="utf-8"?>
<!-- Generator: Adobe Illustrator 22.1.0, SVG Export Plug-In . SVG Version: 6.00 Build 0)  -->
<svg version="1.1" id="Help_and_Support__Icons" xmlns="http://www.w3.org/2000/svg" xmlns:xlink="http://www.w3.org/1999/xlink"
	 x="0px" y="0px" viewBox="0 0 144.1 144" style="enable-background:new 0 0 144.1 144;" xml:space="preserve">
<g>
	<path d="M142,0H96.8H47.2H2C0.9,0,0,0.9,0,2v131v9c0,1.1,0.9,2,2,2s2-0.9,2-2v-7h41.2v7c0,1.1,0.9,2,2,2s2-0.9,2-2v-7h45.7v7
		c0,1.1,0.9,2,2,2s2-0.9,2-2v-7h41.2v7c0,1.1,0.9,2,2,2s2-0.9,2-2v-9V2C144,0.9,143.1,0,142,0z M4,4h41.2v127H4V4z M49.2,4h45.7v127
		H49.2V4z M98.9,4h41.2v127H98.9V4z"/>
	<path d="M33.7,9H15.6c-1.1,0-2,0.9-2,2s0.9,2,2,2h18.1c1.1,0,2-0.9,2-2S34.8,9,33.7,9z"/>
	<path d="M33.7,18.1H15.6c-1.1,0-2,0.9-2,2s0.9,2,2,2h18.1c1.1,0,2-0.9,2-2S34.8,18.1,33.7,18.1z"/>
	<path d="M33.7,27.1H15.6c-1.1,0-2,0.9-2,2s0.9,2,2,2h18.1c1.1,0,2-0.9,2-2S34.8,27.1,33.7,27.1z"/>
	<path d="M33.7,103.9H15.6c-1.1,0-2,0.9-2,2s0.9,2,2,2h18.1c1.1,0,2-0.9,2-2S34.8,103.9,33.7,103.9z"/>
	<path d="M33.7,112.9H15.6c-1.1,0-2,0.9-2,2s0.9,2,2,2h18.1c1.1,0,2-0.9,2-2S34.8,112.9,33.7,112.9z"/>
	<path d="M33.7,121.9H15.6c-1.1,0-2,0.9-2,2s0.9,2,2,2h18.1c1.1,0,2-0.9,2-2C35.7,122.8,34.8,121.9,33.7,121.9z"/>
	<path d="M22.1,65.2c0-3.6-2.9-6.5-6.5-6.5s-6.5,2.9-6.5,6.5s2.9,6.5,6.5,6.5S22.1,68.8,22.1,65.2z M13.1,65.2
		c0-1.4,1.1-2.5,2.5-2.5s2.5,1.1,2.5,2.5s-1.1,2.5-2.5,2.5S13.1,66.6,13.1,65.2z"/>
	<path d="M83.3,9H60.7c-1.1,0-2,0.9-2,2s0.9,2,2,2h22.6c1.1,0,2-0.9,2-2S84.4,9,83.3,9z"/>
	<path d="M83.3,18.1H60.7c-1.1,0-2,0.9-2,2s0.9,2,2,2h22.6c1.1,0,2-0.9,2-2S84.4,18.1,83.3,18.1z"/>
	<path d="M83.3,27.1H60.7c-1.1,0-2,0.9-2,2s0.9,2,2,2h22.6c1.1,0,2-0.9,2-2S84.4,27.1,83.3,27.1z"/>
	<path d="M83.3,103.9H60.7c-1.1,0-2,0.9-2,2s0.9,2,2,2h22.6c1.1,0,2-0.9,2-2S84.4,103.9,83.3,103.9z"/>
	<path d="M83.3,112.9H60.7c-1.1,0-2,0.9-2,2s0.9,2,2,2h22.6c1.1,0,2-0.9,2-2S84.4,112.9,83.3,112.9z"/>
	<path d="M83.3,121.9H60.7c-1.1,0-2,0.9-2,2s0.9,2,2,2h22.6c1.1,0,2-0.9,2-2C85.3,122.8,84.4,121.9,83.3,121.9z"/>
	<path d="M67.3,65.2c0-3.6-2.9-6.5-6.5-6.5s-6.5,2.9-6.5,6.5s2.9,6.5,6.5,6.5C64.3,71.7,67.3,68.8,67.3,65.2z M58.2,65.2
		c0-1.4,1.1-2.5,2.5-2.5s2.5,1.1,2.5,2.5s-1.1,2.5-2.5,2.5C59.4,67.7,58.2,66.6,58.2,65.2z"/>
	<path d="M128.5,9h-18.1c-1.1,0-2,0.9-2,2s0.9,2,2,2h18.1c1.1,0,2-0.9,2-2S129.6,9,128.5,9z"/>
	<path d="M128.5,18.1h-18.1c-1.1,0-2,0.9-2,2s0.9,2,2,2h18.1c1.1,0,2-0.9,2-2S129.6,18.1,128.5,18.1z"/>
	<path d="M128.5,27.1h-18.1c-1.1,0-2,0.9-2,2s0.9,2,2,2h18.1c1.1,0,2-0.9,2-2S129.6,27.1,128.5,27.1z"/>
	<path d="M128.5,103.9h-18.1c-1.1,0-2,0.9-2,2s0.9,2,2,2h18.1c1.1,0,2-0.9,2-2S129.6,103.9,128.5,103.9z"/>
	<path d="M128.5,112.9h-18.1c-1.1,0-2,0.9-2,2s0.9,2,2,2h18.1c1.1,0,2-0.9,2-2S129.6,112.9,128.5,112.9z"/>
	<path d="M128.5,121.9h-18.1c-1.1,0-2,0.9-2,2s0.9,2,2,2h18.1c1.1,0,2-0.9,2-2C130.5,122.8,129.6,121.9,128.5,121.9z"/>
	<path d="M116.9,65.2c0-3.6-2.9-6.5-6.5-6.5s-6.5,2.9-6.5,6.5s2.9,6.5,6.5,6.5S116.9,68.8,116.9,65.2z M107.9,65.2
		c0-1.4,1.1-2.5,2.5-2.5s2.5,1.1,2.5,2.5s-1.1,2.5-2.5,2.5S107.9,66.6,107.9,65.2z"/>
</g>
</svg>
