<?xml version="1.0" encoding="utf-8"?>
<!-- Generator: Adobe Illustrator 22.1.0, SVG Export Plug-In . SVG Version: 6.00 Build 0)  -->
<svg version="1.1" id="Help_and_Support__Icons" xmlns="http://www.w3.org/2000/svg" xmlns:xlink="http://www.w3.org/1999/xlink"
	 x="0px" y="0px" viewBox="0 0 208 208" style="enable-background:new 0 0 208 208;" xml:space="preserve">
<style type="text/css">
	.st0{fill:#FFFFFF;}
</style>
<circle cx="104" cy="104" r="104"/>
<g>
	<path class="st0" d="M58.6,90.7c1.2,0.2,2.3-0.7,2.4-1.9c2.9-21.4,21.4-37.6,43-37.6s40.1,16.1,43,37.6c0.1,1.1,1.1,1.9,2.1,1.9
		c0.1,0,0.2,0,0.3,0c1.2-0.2,2-1.2,1.9-2.4C148.1,64.8,127.8,47,104,47S59.9,64.8,56.7,88.3C56.6,89.5,57.4,90.6,58.6,90.7z"/>
	<path class="st0" d="M156.7,103.9c-4.8-4.8-11.2-7.5-18-7.5h-8.4c-3.4,0-6.2,2.8-6.2,6.2v38.5c0,0.7,0.1,1.3,0.3,1.9h-8.2
		c-0.8-3.4-3.5-6.1-7.1-6.9c-2.4-0.5-4.9,0-6.9,1.4s-3.4,3.4-3.9,5.9c-0.5,2.4,0,4.9,1.4,6.9s3.4,3.4,5.9,3.9
		c0.6,0.1,1.2,0.2,1.8,0.2c4.2,0,7.9-2.9,8.9-7h14.2h4h4.4l0,0l0,0l0,0c6.8,0,13.2-2.6,18-7.5c4.8-4.8,7.5-11.2,7.5-18
		C164.2,115.1,161.5,108.7,156.7,103.9z M112,146.2c-0.5,2.6-3.1,4.4-5.7,3.8c-1.3-0.3-2.4-1-3.1-2.1s-1-2.4-0.7-3.7s1-2.4,2.1-3.1
		c0.8-0.5,1.7-0.8,2.7-0.8c0.3,0,0.6,0,1,0.1C110.8,141,112.5,143.5,112,146.2z M130.3,143.1c-1.1,0-1.9-0.9-1.9-1.9v-38.5
		c0-1.1,0.9-1.9,1.9-1.9h6.2v42.3h-2.2H130.3z M153.7,136.9c-3.5,3.5-8,5.6-12.8,6.1v-42.1c4.8,0.5,9.3,2.6,12.8,6.1
		c4,4,6.2,9.3,6.2,15C159.9,127.6,157.7,132.9,153.7,136.9z"/>
	<path class="st0" d="M77.7,96.5h-8.4l0,0l0,0l0,0c-6.8,0-13.2,2.6-18,7.5c-4.8,4.8-7.5,11.2-7.5,18s2.6,13.2,7.5,18
		c4.8,4.8,11.2,7.5,18,7.5h8.4c3.4,0,6.2-2.8,6.2-6.2v-38.5C83.9,99.3,81.1,96.5,77.7,96.5z M48.1,121.9c0-5.6,2.2-11,6.2-15
		c3.5-3.5,8-5.6,12.8-6.1v42.1c-4.8-0.5-9.3-2.6-12.8-6.1C50.3,132.9,48.1,127.6,48.1,121.9z M79.6,141.2c0,1.1-0.9,1.9-1.9,1.9
		h-6.2v-42.3h6.2c1.1,0,1.9,0.9,1.9,1.9V141.2z"/>
</g>
</svg>
