<?xml version="1.0" encoding="utf-8"?>
<!-- Generator: Adobe Illustrator 22.1.0, SVG Export Plug-In . SVG Version: 6.00 Build 0)  -->
<svg version="1.1" id="Help_and_Support__Icons" xmlns="http://www.w3.org/2000/svg" xmlns:xlink="http://www.w3.org/1999/xlink"
	 x="0px" y="0px" viewBox="0 0 208 208" style="enable-background:new 0 0 208 208;" xml:space="preserve">
<style type="text/css">
	.st0{fill:#FFFFFF;}
</style>
<circle cx="104" cy="104" r="104"/>
<g>
	<path class="st0" d="M84.3,133.4c-8.6,0-15.6,7-15.6,15.6s7,15.6,15.6,15.6s15.6-7,15.6-15.6S92.9,133.4,84.3,133.4z M84.3,159.4
		c-5.7,0-10.4-4.7-10.4-10.4s4.7-10.4,10.4-10.4c5.7,0,10.4,4.7,10.4,10.4S90,159.4,84.3,159.4z"/>
	<circle class="st0" cx="84.3" cy="149" r="3.9"/>
	<path class="st0" d="M125.8,133.4c-8.6,0-15.6,7-15.6,15.6s7,15.6,15.6,15.6s15.6-7,15.6-15.6S134.4,133.4,125.8,133.4z
		 M125.8,159.4c-5.7,0-10.4-4.7-10.4-10.4s4.7-10.4,10.4-10.4c5.7,0,10.4,4.7,10.4,10.4S131.5,159.4,125.8,159.4z"/>
	<circle class="st0" cx="125.8" cy="149" r="3.9"/>
	<path class="st0" d="M149.2,99.6c0-17.5,0-39-33.8-39h-13c-0.9,0-1.6,0.4-2.1,1.1s-0.6,1.6-0.3,2.4c0.1,0.2,6.9,16.4,3,32.9H65.3
		C60.6,85.3,50.8,81.1,45,79.6c-0.7-2-2.6-3.4-4.9-3.4c-2.9,0-5.2,2.3-5.2,5.2s2.3,5.2,5.2,5.2c1.6,0,3-0.7,3.9-1.8
		c5.1,1.4,13.5,5.2,17,15.6l4.5,15c2.2,7.2,9.7,12.8,17.2,12.8H105h19.7C144.1,128.2,149.2,109.5,149.2,99.6z M106,65.9h9.4
		c27.2,0,28.5,13.7,28.6,31.2h-35.7C111.1,83.9,107.9,72.2,106,65.9z M82.7,123c-5.1,0-10.7-4.2-12.2-9.1L67,102.2h76.9
		c-0.6,6.1-3.7,20.8-19.1,20.8h-19.7H82.7z"/>
</g>
</svg>
