<?xml version="1.0" encoding="utf-8"?>
<!-- Generator: Adobe Illustrator 22.1.0, SVG Export Plug-In . SVG Version: 6.00 Build 0)  -->
<svg version="1.1" id="Help_and_Support__Icons" xmlns="http://www.w3.org/2000/svg" xmlns:xlink="http://www.w3.org/1999/xlink"
	 x="0px" y="0px" viewBox="0 0 130.3 145.8" style="enable-background:new 0 0 130.3 145.8;" xml:space="preserve">
<g>
	<path d="M51.5,23.4c6.5,0,11.8-5.1,11.9-11.6S58.1-0.1,51.6,0C45.1,0,40,5.2,40,11.8C39.9,18.2,45.1,23.4,51.5,23.4z"/>
	<path d="M97.7,104.5c-0.8-1.2-2-1.7-3.4-1.5s-2.4,1.2-2.8,2.5c-4.8,18.1-23.2,32.3-41.9,32.3C26.7,137.8,8,119.1,8,96.2
		c0-15.6,8.7-29.8,22.6-37c1.4-0.7,2.3-2.2,2.2-3.8c-0.1-1.4-0.8-2.6-2-3.3c-0.6-0.4-1.3-0.5-2-0.5c-0.6,0-1.3,0.2-1.9,0.5
		C9.9,60.9-0.3,78.2,0,97.2c0.5,25.8,22.7,48.1,48.5,48.6c0.4,0,0.7,0,1.1,0c23.2,0,43.5-16.2,48.5-39c0.2-0.7,0-1.5-0.4-2.2V104.5z
		"/>
	<path d="M128.9,114.9c-7.1-12.4-14.4-24.7-21.5-37.1c-1.7-2.9-3.8-4.4-6.8-4.8c-0.6-0.1-1.2-0.1-1.8-0.1C94.2,73,89.6,73,85,73
		c-5.1,0-10.1,0-15.2,0c-0.8,0-1.6,0-2.6,0c0-3.3,0-6.5,0-9.8c0-0.6,0-1.3,0-2c6.2,0,12.4,0,18.6,0c1.3,0,2.7,0,4,0
		c0.6,0,1.2-0.1,1.8-0.1c3.1-0.3,5.3-2.8,5.4-5.8c0.1-3-2-5.5-5.1-6.1C91,49,90,49,89.1,49c-7.5,0-15.1,0-22.9,0
		c-0.2-1.8-0.3-3.4-0.5-5c-0.4-3.4-0.2-7-2.1-10.1c-3-5.1-9-7.7-14.6-6.1c-5.7,1.6-7.6,6.8-7.3,13c0.2,3.8,0.4,7.7,0.6,11.5
		c0.2,4.2,0.5,8.3,0.7,12.5c0.3,5.6,0.7,11.2,1,16.8c0.2,3.1,1.6,5.8,3.9,7.9c2.9,2.8,6.5,3.7,10.5,3.7c13.3,0,24.6,0,37.9,0
		c0.1,0,0.1,0,0.2,0c1.4,0,2.2,0.4,2.8,1.6c1.3,2.4,2.7,4.8,4.1,7.1c1.7,2.9,3.4,5.8,5,8.8c2.4,4.2,4.8,8.4,7.3,12.6
		c2.3,3.9,7,5.2,10.8,3C130.5,124,131.5,119.3,128.9,114.9z"/>
</g>
</svg>
