<?xml version="1.0" encoding="utf-8"?>
<!-- Generator: Adobe Illustrator 22.1.0, SVG Export Plug-In . SVG Version: 6.00 Build 0)  -->
<svg version="1.1" id="Layer_1" xmlns="http://www.w3.org/2000/svg" xmlns:xlink="http://www.w3.org/1999/xlink" x="0px" y="0px"
	 viewBox="0 0 25.2 35.5" style="enable-background:new 0 0 25.2 35.5;" xml:space="preserve">
<title>mrt</title>
<path d="M6.4,22c-1.4,0-2.5,1.1-2.5,2.5c0,1.4,1.1,2.5,2.5,2.5s2.5-1.1,2.5-2.5S7.8,22,6.4,22L6.4,22z M6.4,25.8
	c-0.7,0-1.2-0.5-1.3-1.2c0-0.7,0.5-1.2,1.2-1.3c0.7,0,1.2,0.5,1.3,1.2c0,0,0,0,0,0C7.6,25.2,7,25.7,6.4,25.8L6.4,25.8z"/>
<path d="M18.8,22c-1.4,0-2.5,1.1-2.5,2.5s1.1,2.5,2.5,2.5s2.5-1.1,2.5-2.5S20.2,22,18.8,22L18.8,22z M18.8,25.8
	c-0.7,0-1.2-0.5-1.2-1.2c0-0.7,0.5-1.2,1.2-1.2c0.7,0,1.2,0.5,1.2,1.2c0,0,0,0,0,0C20,25.2,19.5,25.7,18.8,25.8L18.8,25.8z"/>
<path d="M8.9,4.3h7.3c0.4,0,0.7-0.3,0.7-0.7c0-0.4-0.3-0.7-0.7-0.7H8.9C8.6,3,8.3,3.3,8.3,3.7C8.3,4,8.6,4.3,8.9,4.3z"/>
<path d="M25.2,4.7C25,1.2,18.3,0,12.6,0S0.3,1.2,0,4.7v20.2c0,2.4,1.5,4.5,3.8,5.2l0,0l-2,4.5c-0.1,0.3,0,0.7,0.3,0.9
	c0.3,0.1,0.7,0,0.9-0.3l2.1-4.7c0.4,0.1,0.8,0.1,1.2,0.1h12.6c0.4,0,0.8,0,1.2-0.1l0.8,1.8H4.3l-0.6,1.3h17.7l-0.1-0.3l0.8,1.9
	c0.1,0.2,0.3,0.4,0.6,0.4c0.1,0,0.2,0,0.3,0c0.3-0.1,0.5-0.5,0.3-0.9c0,0,0,0,0,0l-2-4.5l0,0c2.3-0.7,3.9-2.8,3.8-5.2L25.2,4.7
	L25.2,4.7z M12.6,1.3c6.2,0,11.1,1.5,11.3,3.4v1.1H1.3V4.7C1.5,2.8,6.4,1.3,12.6,1.3z M23.9,7.1v12H1.3v-12H23.9z M18.9,29.1H6.3
	c-3,0-5-1.7-5-4.2v-4.4h22.6v4.4C23.9,27.5,21.9,29.1,18.9,29.1L18.9,29.1z"/>
</svg>
