<?xml version="1.0" encoding="utf-8"?>
<!-- Generator: Adobe Illustrator 22.1.0, SVG Export Plug-In . SVG Version: 6.00 Build 0)  -->
<svg version="1.1" id="Layer_1" xmlns="http://www.w3.org/2000/svg" xmlns:xlink="http://www.w3.org/1999/xlink" x="0px" y="0px"
	 viewBox="0 0 105 105" style="enable-background:new 0 0 105 105;" xml:space="preserve">
<style type="text/css">
	.st0{fill:#212121;}
	.st1{fill:#EA2227;}
	.st2{fill:#FFFFFF;}
</style>
<title>notice3</title>
<path class="st0" d="M66.1,29.3c-0.9-1.3-2.3-2.1-3.9-2.2H42.8c-1.5,0.1-2.8,0.8-3.7,2c-1.3,1.6-2,3.7-2,5.7l-6,17.3
	c-0.4,1.1-0.2,2.3,0.5,3.2c0.3,0.3,0.6,0.6,1,0.8c0.8,0.4,1.8,0.4,2.7,0c0.9-0.4,1.6-1.2,1.8-2.2c0.2-0.7,0.4-1.4,0.6-2.1l5.8-14.2
	h0.9v50.9c0,1.5,0.7,2.9,2,3.7c1,0.6,2.2,0.7,3.3,0.1c1.4-0.7,2.3-2.2,2.3-3.9V58.4h1v30.1c0,1.6,0.9,3.1,2.3,3.9
	c1,0.5,2.3,0.5,3.3-0.1c1.3-0.8,2-2.2,2-3.7V37.6h0.9v17.5c0,1.3,0.7,2.5,1.9,3.1c0.9,0.4,1.9,0.4,2.7-0.1c1.1-0.6,1.7-1.8,1.7-3
	V34.8C67.9,32.8,67.3,30.9,66.1,29.3z"/>
<circle class="st0" cx="52.5" cy="19.3" r="7"/>
<polygon class="st0" points="31.4,62 24.8,62 22.7,58.5 29.3,58.5 "/>
<polygon class="st0" points="29,79.6 21.7,75.4 21.6,70.1 28.9,74.3 "/>
<polygon class="st0" points="36.7,73.8 31.6,70.5 31.8,66.7 36.9,70 "/>
<rect x="48.7" y="6.5" transform="matrix(0.7071 -0.7071 0.7071 0.7071 -21.7535 52.4977)" class="st1" width="7.7" height="91.9"/>
<path class="st2" d="M22.7,18L87,82.3l-4.8,4.8L17.9,22.7L22.7,18 M22.7,16.7L22,17.3L17.3,22l-0.7,0.7l0.7,0.7l64.3,64.3l0.7,0.7
	l0.7-0.7l4.8-4.8l0.7-0.7l-0.7-0.7L23.4,17.3L22.7,16.7L22.7,16.7z"/>
<path class="st1" d="M52.5,7.4c24.9,0,45.2,20.2,45.2,45.1S77.4,97.6,52.5,97.7c-24.9,0-45.2-20.2-45.2-45.1
	c0-12,4.8-23.5,13.2-31.9C29,12.1,40.5,7.3,52.5,7.4 M52.5,0C23.5,0,0,23.5,0,52.5c0,29,23.5,52.5,52.5,52.5S105,81.5,105,52.5
	c0-13.9-5.5-27.3-15.4-37.1C79.8,5.5,66.4,0,52.5,0z"/>
</svg>
