<?xml version="1.0" encoding="utf-8"?>
<!-- Generator: Adobe Illustrator 22.1.0, SVG Export Plug-In . SVG Version: 6.00 Build 0)  -->
<svg version="1.1" id="Layer_1" xmlns="http://www.w3.org/2000/svg" xmlns:xlink="http://www.w3.org/1999/xlink" x="0px" y="0px"
	 viewBox="0 0 105 105" style="enable-background:new 0 0 105 105;" xml:space="preserve">
<style type="text/css">
	.st0{fill:#212121;}
	.st1{fill:#FFFFFF;}
	.st2{fill:#EA2227;}
</style>
<title>notice2</title>
<path class="st0" d="M33.7,78.6c-1,0-2-0.3-2.8-0.8l-12.3-7.5c-1.5-0.9-2-2.9-1.1-4.3s2.9-2,4.3-1.1l11.6,7l8.9-14.6
	c0.9-1.5,2.9-2,4.3-1.1c1.5,0.9,2,2.9,1.1,4.3c0,0,0,0,0,0l-9.3,15.3C37.4,77.6,35.6,78.6,33.7,78.6z"/>
<path class="st0" d="M65,91.1c-2.2,0-3.9-1.8-3.9-3.9V71.5L46,64c-0.3-0.1-0.5-0.3-0.8-0.5l-2.7-1.2c-2.6-1.2-3.7-4.3-2.5-6.9
	l8.2-17.9h-4.2c-0.7,0-1.2,0.6-1.2,1.2v9.8c0,2.3-1.8,4.1-4.1,4.1c-2.3,0-4.1-1.8-4.1-4.1v-9.8c0-5.2,4.2-9.4,9.4-9.4h11.3
	c0.4,0,0.8,0.1,1.2,0.2c0.3,0.1,0.7,0.2,1,0.3l4.3,2c2.6,1.2,3.8,4.3,2.6,6.9c0,0,0,0,0,0l-9.5,20.9l9.9,5c2.7,1.3,4.4,4.1,4.4,7.1
	v15.7C68.9,89.5,67.1,91.2,65,91.1z"/>
<path class="st1" d="M55.1,30c0.3,0,0.7,0,1,0.1c0.3,0.1,0.6,0.2,0.9,0.3l4.3,2c2.2,1,3.2,3.7,2.2,5.9l-9.8,21.6l10.6,5.3
	c2.4,1.2,4,3.7,4,6.4v15.7c0,1.7-1.4,3.2-3.2,3.2c-1.7,0-3.2-1.4-3.2-3.2V71.5c0-0.3-0.2-0.6-0.5-0.7l-15-7.5
	c-0.2-0.1-0.4-0.3-0.6-0.4l-2.9-1.3c-2.2-1-3.2-3.7-2.2-5.9l8.6-19H44c-1.1,0-2,0.9-2,2v9.8c0,1.9-1.5,3.3-3.4,3.3
	c-1.8,0-3.3-1.5-3.3-3.3v-9.8c0-4.8,3.9-8.7,8.7-8.7L55.1,30 M55.2,28.5H43.9c-5.6,0-10.2,4.6-10.2,10.2v9.8c0,2.7,2.2,4.8,4.8,4.8
	c0.6,0,1.1-0.1,1.6-0.3l-0.9,2c-1.3,3,0,6.5,3,7.9l2.7,1.2c0.2,0.2,0.5,0.3,0.8,0.5l14.7,7.3v15.3c0,2.6,2.1,4.6,4.7,4.6
	c2.6,0,4.6-2.1,4.6-4.6V71.5c0-3.3-1.8-6.3-4.8-7.7l-9.3-4.6l9.2-20.3c1.4-3,0-6.5-3-7.9c0,0,0,0,0,0l-4.3-2
	c-0.4-0.2-0.8-0.3-1.2-0.4C56,28.5,55.6,28.4,55.2,28.5L55.2,28.5z M43.4,46v-7.3c0-0.3,0.2-0.5,0.5-0.5h3L43.4,46L43.4,46z"/>
<path class="st0" d="M78.2,49.9h-7.4c-3.4,0-6.6-1.8-8.3-4.8l-4.3-7.3c-0.9-1.5-0.4-3.4,1.1-4.3s3.4-0.4,4.3,1.1l4.3,7.3
	c0.6,1,1.7,1.6,2.9,1.7h7.4c1.7,0,3.2,1.4,3.2,3.2C81.4,48.5,79.9,49.9,78.2,49.9z"/>
<path class="st0" d="M72.4,23.2c0,4.4-3.6,7.9-7.9,7.9c-4.4,0-7.9-3.6-7.9-7.9s3.6-7.9,7.9-7.9l0,0C68.8,15.2,72.4,18.8,72.4,23.2z"
	/>
<rect x="48.7" y="6.5" transform="matrix(0.7071 -0.7071 0.7071 0.7071 -21.7311 52.5011)" class="st2" width="7.7" height="91.9"/>
<path class="st1" d="M22.7,17.9l64.3,64.3L82.3,87L18,22.7L22.7,17.9 M22.7,16.6l-0.7,0.7L17.3,22l-0.7,0.7l0.7,0.7l64.3,64.4
	l0.7,0.7l0.7-0.7l4.8-4.8l0.7-0.7l-0.7-0.7L23.4,17.3L22.7,16.6L22.7,16.6z"/>
<path class="st2" d="M52.5,7.4c24.9,0,45.1,20.2,45.1,45.2c0,24.9-20.2,45.1-45.2,45.1c-24.9,0-45.1-20.2-45.1-45.2
	c0-12,4.8-23.4,13.2-31.9C29,12.1,40.5,7.3,52.5,7.4 M52.5,0C23.5,0,0,23.5,0,52.5S23.5,105,52.5,105c29,0,52.5-23.5,52.5-52.5
	c0-13.9-5.5-27.3-15.4-37.1C79.8,5.5,66.4,0,52.5,0z"/>
</svg>
