<?xml version="1.0" encoding="utf-8"?>
<!-- Generator: Adobe Illustrator 22.1.0, SVG Export Plug-In . SVG Version: 6.00 Build 0)  -->
<svg version="1.1" id="Layer_1" xmlns="http://www.w3.org/2000/svg" xmlns:xlink="http://www.w3.org/1999/xlink" x="0px" y="0px"
	 viewBox="0 0 105 105" style="enable-background:new 0 0 105 105;" xml:space="preserve">
<style type="text/css">
	.st0{fill:#212121;}
	.st1{fill:#FFFFFF;}
	.st2{fill:#EA2227;}
	.st3{fill:none;stroke:#212121;stroke-width:2;stroke-linecap:round;stroke-miterlimit:10;}
</style>
<title>notice8</title>
<path class="st0" d="M28.7,32.1h48.6c3.5,0,6.4,2.8,6.4,6.3v31.6c0,3.5-2.8,6.4-6.4,6.4H28.7c-3.5,0-6.3-2.8-6.3-6.4V38.5
	C22.3,35,25.2,32.1,28.7,32.1z"/>
<path class="st0" d="M77.3,78.2H28.7c-4.5,0-8.1-3.6-8.1-8.1V38.5c0-4.5,3.6-8.1,8.1-8.1h48.6c4.5,0,8.1,3.6,8.1,8.1l0,0v31.6
	C85.4,74.6,81.8,78.2,77.3,78.2z M28.7,33.9c-2.5,0-4.6,2.1-4.6,4.6v31.6c0,2.5,2.1,4.6,4.6,4.6h48.7c2.5,0,4.6-2.1,4.6-4.6V38.5
	c0-2.5-2.1-4.6-4.6-4.6L28.7,33.9z"/>
<path class="st0" d="M38.4,25.7h-7.1c-1.7,0-3.1,1.4-3.1,3.1l0,0h13.4l0,0C41.5,27.1,40.1,25.7,38.4,25.7z"/>
<circle class="st1" cx="53" cy="54.3" r="15.7"/>
<path class="st1" d="M53,71.7c-9.6,0-17.4-7.8-17.4-17.4c0-9.6,7.8-17.4,17.4-17.4c9.6,0,17.4,7.8,17.4,17.4
	C70.4,63.9,62.6,71.7,53,71.7z M53,40.4c-7.7,0-13.9,6.2-13.9,13.9S45.3,68.2,53,68.2c7.7,0,13.9-6.2,13.9-13.9l0,0
	C66.9,46.6,60.7,40.4,53,40.4z"/>
<path class="st1" d="M78.1,40.9c0,2.1-1.7,3.8-3.8,3.8c-2.1,0-3.8-1.7-3.8-3.8c0-2.1,1.7-3.8,3.8-3.8C76.4,37.2,78.1,38.8,78.1,40.9
	C78.1,40.9,78.1,40.9,78.1,40.9z"/>
<path class="st0" d="M74.3,45.6c-2.6,0-4.7-2.1-4.7-4.6c0-2.6,2.1-4.7,4.6-4.7c2.6,0,4.7,2.1,4.7,4.6c0,0,0,0,0,0
	C79,43.5,76.9,45.6,74.3,45.6z M74.3,38c-1.6,0-2.9,1.3-2.9,2.9s1.3,2.9,2.9,2.9c1.6,0,2.9-1.3,2.9-2.9c0,0,0,0,0,0
	C77.2,39.3,76,38,74.3,38C74.4,38,74.3,38,74.3,38z"/>
<path class="st0" d="M63.7,54.3C63.7,60.2,58.9,65,53,65c-5.9,0-10.7-4.8-10.7-10.7c0-5.9,4.8-10.7,10.7-10.7c0,0,0,0,0,0
	C58.9,43.5,63.7,48.3,63.7,54.3C63.7,54.3,63.7,54.3,63.7,54.3z"/>
<path class="st0" d="M53,66.6c-6.8,0-12.3-5.5-12.3-12.3S46.2,42,53,42s12.3,5.5,12.3,12.3l0,0C65.3,61.1,59.8,66.5,53,66.6z
	 M53,45.1c-5.1,0-9.2,4.1-9.2,9.2c0,5.1,4.1,9.2,9.2,9.2c5.1,0,9.2-4.1,9.2-9.2C62.2,49.2,58.1,45.1,53,45.1z"/>
<rect x="26.5" y="71.3" class="st1" width="8.9" height="1.6"/>
<rect x="48.6" y="6.5" transform="matrix(0.7072 -0.707 0.707 0.7072 -21.7413 52.4672)" class="st2" width="7.7" height="92"/>
<path class="st1" d="M22.7,17.9L87,82.3L82.3,87L17.9,22.7L22.7,17.9 M22.7,16.6L22,17.3L17.3,22l-0.7,0.7l0.7,0.7l64.4,64.3
	l0.7,0.7l0.7-0.7l4.8-4.8l0.7-0.7l-0.7-0.7L23.3,17.3C23.3,17.3,22.7,16.6,22.7,16.6z"/>
<path class="st2" d="M52.5,7.4c24.9,0,45.1,20.2,45.1,45.2c0,24.9-20.2,45.1-45.2,45.1S7.3,77.4,7.3,52.5c0-12,4.8-23.5,13.2-31.9
	C29,12.1,40.5,7.3,52.5,7.4 M52.5,0C23.5,0,0,23.6,0,52.6S23.5,105,52.5,105S105,81.5,105,52.5c0-13.9-5.5-27.3-15.4-37.1
	C79.8,5.5,66.4,0,52.5,0L52.5,0z"/>
<line class="st3" x1="70.3" y1="28" x2="64.8" y2="22.5"/>
<line class="st3" x1="79.1" y1="28" x2="84.5" y2="22.5"/>
<line class="st3" x1="74.7" y1="27.4" x2="74.7" y2="19.7"/>
</svg>
