<?xml version="1.0" encoding="utf-8"?>
<!-- Generator: Adobe Illustrator 22.1.0, SVG Export Plug-In . SVG Version: 6.00 Build 0)  -->
<svg version="1.1" id="Layer_1" xmlns="http://www.w3.org/2000/svg" xmlns:xlink="http://www.w3.org/1999/xlink" x="0px" y="0px"
	 viewBox="0 0 105 105" style="enable-background:new 0 0 105 105;" xml:space="preserve">
<style type="text/css">
	.st0{fill:#212121;}
	.st1{fill:#FFFFFF;}
	.st2{fill:#EA2227;}
</style>
<title>notice7</title>
<path class="st0" d="M39.4,18.1h26.2c4.4,0,7.9,3.5,7.9,7.9v53c0,4.4-3.5,7.9-7.9,7.9H39.4c-4.4,0-7.9-3.5-7.9-7.9V26
	C31.5,21.6,35,18.1,39.4,18.1z"/>
<path class="st1" d="M36,26.3h33c0.2,0,0.4,0.2,0.4,0.4v46.1c0,0.2-0.2,0.4-0.4,0.4H36c-0.2,0-0.4-0.2-0.4-0.4V26.8
	C35.6,26.5,35.7,26.3,36,26.3z"/>
<path class="st1" d="M61,80.4c0,1.4-1.1,2.5-2.5,2.5h0h-12c-1.4,0-2.5-1.1-2.5-2.5l0,0l0,0c0-1.4,1.1-2.5,2.5-2.4h12
	C59.9,78,61,79,61,80.4z"/>
<path class="st1" d="M60.1,21.3c0,0.3-0.2,0.6-0.6,0.7H45.4c-0.3,0-0.6-0.3-0.6-0.7l0,0c0-0.3,0.2-0.6,0.6-0.7h14.2
	C59.9,20.6,60.2,20.9,60.1,21.3z"/>
<path class="st1" d="M36.4,21.8c0,0.9,0.7,1.6,1.6,1.6s1.6-0.7,1.6-1.6s-0.7-1.6-1.6-1.6c0,0,0,0,0,0C37.1,20.1,36.4,20.8,36.4,21.8
	z"/>
<rect x="48.7" y="6.5" transform="matrix(0.7071 -0.7071 0.7071 0.7071 -21.7172 52.5152)" class="st2" width="7.7" height="91.9"/>
<path class="st1" d="M22.7,17.9l64.3,64.3L82.3,87L18,22.7L22.7,17.9 M22.7,16.6l-0.7,0.7L17.3,22l-0.7,0.7l0.7,0.7l64.3,64.3
	l0.7,0.7l0.7-0.7l4.8-4.8l0.7-0.7l-0.7-0.7L23.4,17.3L22.7,16.6L22.7,16.6z"/>
<path class="st2" d="M52.5,7.4c24.9,0,45.1,20.2,45.1,45.2c0,24.9-20.2,45.1-45.2,45.1c-24.9,0-45.1-20.2-45.1-45.2
	c0-12,4.8-23.4,13.2-31.9C29,12.1,40.5,7.3,52.5,7.4 M52.5,0C23.5,0,0,23.5,0,52.5c0,29,23.5,52.5,52.5,52.5S105,81.5,105,52.5
	c0-13.9-5.5-27.3-15.4-37.1C79.8,5.5,66.4,0,52.5,0z"/>
</svg>
