<?xml version="1.0" encoding="utf-8"?>
<!-- Generator: Adobe Illustrator 22.1.0, SVG Export Plug-In . SVG Version: 6.00 Build 0)  -->
<svg version="1.1" id="Layer_1" xmlns="http://www.w3.org/2000/svg" xmlns:xlink="http://www.w3.org/1999/xlink" x="0px" y="0px"
	 viewBox="0 0 105 105" style="enable-background:new 0 0 105 105;" xml:space="preserve">
<style type="text/css">
	.st0{fill:#212121;}
	.st1{fill:#FFFFFF;}
	.st2{fill:#EA2227;}
</style>
<title>notice6</title>
<path class="st0" d="M71.5,87.3H52.4c-3.3,0-6.1-2.7-6.1-6.1v-4.8h31.3v4.8C77.6,84.6,74.9,87.3,71.5,87.3
	C71.5,87.3,71.5,87.3,71.5,87.3z"/>
<path class="st0" d="M48.3,73.5h27.3c2,0,3.6,1.6,3.6,3.6v0.7c0,2-1.6,3.6-3.6,3.6H48.3c-2,0-3.6-1.6-3.6-3.6v-0.7
	C44.7,75.1,46.3,73.5,48.3,73.5z"/>
<path class="st1" d="M75.6,81.6H48.3c-2.1,0-3.8-1.7-3.8-3.8v-0.7c0-2.1,1.7-3.8,3.8-3.8h27.3c2.1,0,3.8,1.7,3.8,3.8v0.7
	C79.4,79.9,77.7,81.6,75.6,81.6z M48.3,73.7c-1.8,0-3.3,1.5-3.3,3.3v0.7c0,1.8,1.5,3.3,3.3,3.3h27.3c1.8,0,3.3-1.5,3.3-3.3v-0.7
	c0-1.8-1.5-3.3-3.3-3.3H48.3z"/>
<path class="st0" d="M77.6,69.9H46.3v-0.1c0-5.9,4.8-10.8,10.8-10.8h9.8c5.9,0,10.8,4.8,10.8,10.8V69.9z"/>
<path class="st0" d="M47.2,70.3h29.6c0.8,0,1.5,0.7,1.5,1.5v0c0,0.8-0.7,1.5-1.5,1.5H47.2c-0.8,0-1.5-0.7-1.5-1.5v0
	C45.6,71,46.3,70.3,47.2,70.3z"/>
<path class="st1" d="M76.7,73.6H47.2c-1,0-1.8-0.8-1.8-1.8c0-1,0.8-1.8,1.8-1.8h29.6c1,0,1.8,0.8,1.8,1.8
	C78.5,72.8,77.7,73.6,76.7,73.6z M47.2,70.5c-0.7,0-1.3,0.6-1.3,1.3s0.6,1.3,1.3,1.3l0,0h29.6c0.7,0,1.3-0.6,1.3-1.3
	s-0.6-1.3-1.3-1.3H47.2z"/>
<polygon class="st0" points="29.4,87.8 24.5,45.1 55.9,45.1 51.1,87.8 "/>
<path class="st1" d="M55.3,45.6l-4.7,41.7H29.8l-4.7-41.7H55.3 M56.5,44.6H23.9l0.1,1.1l4.8,41.7l0.1,0.9h22.6l0.1-0.9l4.7-41.7
	L56.5,44.6L56.5,44.6z"/>
<polygon class="st0" points="25.3,40.6 54.9,40.6 54.2,38.2 26,38.2 "/>
<polygon class="st0" points="22.9,45.6 57.5,45.6 56.3,40.6 24.1,40.6 "/>
<path class="st1" d="M57.9,45.9H22.5l1.3-5.7h32.8L57.9,45.9z M23.4,45.2h33.7l-1-4.3H24.4L23.4,45.2z"/>
<polygon class="st0" points="51.5,39.8 47.6,39 52,18.5 66,13.1 67.5,16.9 55.5,21.5 "/>
<rect x="48.7" y="6.5" transform="matrix(0.7071 -0.7071 0.7071 0.7071 -21.7574 52.5056)" class="st2" width="7.7" height="92"/>
<path class="st1" d="M22.7,18L87,82.4l-4.8,4.8L17.9,22.7L22.7,18 M22.7,16.6L22,17.3l-4.8,4.8l-0.7,0.7l0.7,0.7l64.3,64.4l0.7,0.7
	l0.7-0.7l4.8-4.8l0.7-0.7l-0.7-0.7L23.4,17.3L22.7,16.6L22.7,16.6z"/>
<path class="st2" d="M52.5,7.4c24.9,0,45.2,20.2,45.2,45.1S77.4,97.7,52.5,97.7S7.3,77.5,7.3,52.5c0-12,4.8-23.5,13.2-31.9
	C29,12.1,40.5,7.3,52.5,7.4 M52.5,0C23.5,0,0,23.5,0,52.5S23.5,105,52.5,105c29,0,52.5-23.5,52.5-52.5c0-13.9-5.5-27.3-15.4-37.1
	C79.8,5.5,66.4,0,52.5,0L52.5,0z"/>
</svg>
