<?xml version="1.0" encoding="utf-8"?>
<!-- Generator: Adobe Illustrator 22.1.0, SVG Export Plug-In . SVG Version: 6.00 Build 0)  -->
<svg version="1.1" id="Layer_1" xmlns="http://www.w3.org/2000/svg" xmlns:xlink="http://www.w3.org/1999/xlink" x="0px" y="0px"
	 viewBox="0 0 105 105" style="enable-background:new 0 0 105 105;" xml:space="preserve">
<style type="text/css">
	.st0{fill:#212121;}
	.st1{fill:#EA2227;}
	.st2{fill:#FFFFFF;}
</style>
<title>notice4</title>
<rect x="16.8" y="56.3" class="st0" width="62.6" height="9"/>
<path class="st0" d="M40.7,22.3c0,0,1.8,15,18.8,15H66c3.8,0,7.6,1.2,10.6,3.5c4.2,3,6.1,8.3,4.9,13.3v-0.2c0-8.2-6.7-13-14.9-13h-9
	c-9.3,0-16.8-9.4-16.8-18.7V22"/>
<path class="st0" d="M45.9,15.9c0,0,1.8,15,18.8,15h6.5c3.8,0,7.6,1.2,10.6,3.5c4.2,3,6.1,8.3,4.9,13.3v-0.2c0-8.2-6.7-13-14.9-13
	h-9c-9.3,0-16.8-9.4-16.8-18.7v-0.2"/>
<rect x="80.7" y="56.3" class="st0" width="3.1" height="9"/>
<path class="st0" d="M85.1,56.3h0.8c1.3,0,2.4,1.1,2.4,2.4c0,0,0,0,0,0v4.2c0,1.3-1.1,2.4-2.4,2.4c0,0,0,0,0,0h-0.8"/>
<rect x="48.6" y="6.5" transform="matrix(0.7071 -0.7071 0.7071 0.7071 -21.738 52.4676)" class="st1" width="7.7" height="91.9"/>
<path class="st2" d="M22.7,17.9L87,82.3L82.3,87L18,22.7L22.7,17.9 M22.7,16.6l-0.7,0.7L17.2,22l-0.7,0.7l0.7,0.7l64.4,64.3l0.7,0.7
	l0.7-0.7l4.8-4.8l0.7-0.7l-0.7-0.7L23.3,17.3L22.7,16.6L22.7,16.6z"/>
<path class="st1" d="M52.5,7.4c24.9,0,45.1,20.2,45.1,45.2c0,24.9-20.2,45.1-45.2,45.1S7.3,77.4,7.3,52.5c0-12,4.8-23.5,13.2-31.9
	C29,12.1,40.5,7.3,52.5,7.4 M52.5,0C23.5,0,0,23.5,0,52.5c0,29,23.5,52.5,52.5,52.5c29,0,52.5-23.5,52.5-52.5
	c0-13.9-5.5-27.3-15.4-37.1C79.8,5.5,66.4,0,52.5,0L52.5,0z"/>
</svg>
