<?xml version="1.0" encoding="utf-8"?>
<!-- Generator: Adobe Illustrator 22.1.0, SVG Export Plug-In . SVG Version: 6.00 Build 0)  -->
<svg version="1.1" id="Layer_1" xmlns="http://www.w3.org/2000/svg" xmlns:xlink="http://www.w3.org/1999/xlink" x="0px" y="0px"
	 viewBox="0 0 105 105" style="enable-background:new 0 0 105 105;" xml:space="preserve">
<style type="text/css">
	.st0{fill:#212121;}
	.st1{fill:#FFFFFF;}
	.st2{fill:#EA2227;}
</style>
<title>notice5</title>
<path class="st0" d="M27.3,71.2c-4.8-2.9-7.8-7.4-7.8-12.4c0-8.9,9.5-16,21.2-16s21.2,7.2,21.2,16s-9.5,16.1-21.2,16.1
	c-1.9,0-3.9-0.2-5.8-0.6l-10.6,7.6L27.3,71.2z"/>
<ellipse class="st1" cx="60" cy="42.8" rx="26.6" ry="19.4"/>
<path class="st0" d="M85,78L68.1,65.5c-2.7,0.6-5.4,0.8-8.1,0.8c-17,0-30.7-10.6-30.7-23.5S43,19.3,60,19.3s30.7,10.6,30.7,23.6
	c0,7-3.9,13.5-10.9,18L85,78z M37.5,42.8c0,8.3,10.3,15.3,22.5,15.3s22.5-7,22.5-15.3S72.2,27.5,60,27.5S37.5,34.5,37.5,42.8
	L37.5,42.8z"/>
<path class="st1" d="M60,20.5c16.3,0,29.5,10,29.5,22.3c0,7-4.3,13.3-11,17.4l4.3,14.6L68.4,64.2c-2.8,0.6-5.6,0.9-8.4,0.9
	c-16.3,0-29.5-10-29.5-22.3S43.7,20.5,60,20.5 M60,59.4c12.9,0,23.7-7.6,23.7-16.5S72.8,26.3,60,26.3s-23.7,7.6-23.7,16.5
	S47.1,59.4,60,59.4 M60,18c-17.6,0-32,11.1-32,24.8s14.3,24.8,32,24.8c2.6,0,5.3-0.2,7.8-0.8l13.5,10l5.9,4.4l-2.1-7l-3.8-12.9
	c6.8-4.7,10.6-11.3,10.6-18.5C91.9,29.2,77.6,18.1,60,18L60,18z M60,56.9c-11.3,0-21.3-6.6-21.3-14.1S48.6,28.7,60,28.7
	s21.3,6.6,21.3,14.1S71.3,56.9,60,56.9z"/>
<path class="st0" d="M70.3,42.1c-0.4,1.9,0.8,3.7,2.7,4.1c1.9,0.4,3.7-0.8,4.1-2.7c0.4-1.9-0.8-3.7-2.7-4.1c-0.4-0.1-0.9-0.1-1.3,0
	C71.6,39.7,70.6,40.7,70.3,42.1z"/>
<path class="st0" d="M56.3,42.1c-0.4,1.9,0.8,3.7,2.7,4.1c1.9,0.4,3.7-0.8,4.1-2.7c0.4-1.9-0.8-3.7-2.7-4.1c-0.4-0.1-0.9-0.1-1.3,0
	C57.7,39.7,56.6,40.7,56.3,42.1z"/>
<path class="st0" d="M42.4,42.1c-0.4,1.9,0.8,3.7,2.7,4.1c1.9,0.4,3.7-0.8,4.1-2.7c0.4-1.9-0.8-3.7-2.7-4.1c-0.4-0.1-0.9-0.1-1.3,0
	C43.7,39.7,42.6,40.7,42.4,42.1z"/>
<rect x="48.7" y="6.6" transform="matrix(0.7071 -0.7071 0.7071 0.7071 -21.7563 52.5429)" class="st2" width="7.7" height="91.9"/>
<path class="st1" d="M22.8,18l64.3,64.3l-4.8,4.8L18,22.7L22.8,18 M22.8,16.7l-0.7,0.7l-4.8,4.8l-0.7,0.7l0.7,0.7l64.4,64.3l0.7,0.7
	l0.7-0.7l4.8-4.8l0.7-0.7l-0.7-0.7L23.4,17.4L22.8,16.7L22.8,16.7z"/>
<path class="st2" d="M52.5,7.4c24.9,0,45.2,20.2,45.2,45.2c0,24.9-20.2,45.2-45.2,45.2S7.4,77.5,7.4,52.5c0-12,4.8-23.5,13.2-31.9
	C29,12.1,40.5,7.3,52.5,7.4 M52.5,0C23.5,0,0,23.5,0,52.5c0,29,23.5,52.5,52.5,52.5S105,81.5,105,52.5c0-13.9-5.5-27.3-15.4-37.1
	C79.8,5.5,66.4,0,52.5,0z"/>
</svg>
