<?xml version="1.0" encoding="utf-8"?>
<!-- Generator: Adobe Illustrator 22.1.0, SVG Export Plug-In . SVG Version: 6.00 Build 0)  -->
<svg version="1.1" id="Layer_1" xmlns="http://www.w3.org/2000/svg" xmlns:xlink="http://www.w3.org/1999/xlink" x="0px" y="0px"
	 viewBox="0 0 105 105" style="enable-background:new 0 0 105 105;" xml:space="preserve">
<style type="text/css">
	.st0{fill:#212121;}
	.st1{fill:#FFFFFF;}
	.st2{fill:#EA2227;}
</style>
<title>notice1</title>
<path class="st0" d="M73.1,29.8c0,0,0.9-7.4,0-6c-0.4,0.5-2.5,2.8-2.6,3.5c-0.3-0.7-1.1-2.8-0.5-3.7c0,0-4.3-1.1-3.8,8.6l-4.1,7.7
	c1.1,1.5,3.9,4.3,11.1,5.6c0.1-0.7,0.1-1.4,0.1-2.2c0,0,1.7,0.6,5.8-0.3c2.8-0.5,5.2-2.3,6.5-4.7c0.5-0.9,0.8-1.9,0.8-2.9
	C86.4,34.5,74.3,32.7,73.1,29.8z"/>
<path class="st0" d="M33.4,64.5l2.2,12.9c0.2,1.4,0.9,2.7,1.9,3.7l0,0c1,1,2.4,1.6,3.8,1.6l0,0c1.1,0,2.1-0.9,2.1-2
	c0-0.3,0-0.5-0.1-0.8l-0.7-1.9c-0.8-2.2-1.3-4.6-1.3-7v-7.6l-3.5-2.2L33.4,64.5z"/>
<path class="st0" d="M68.2,56.4l6.1,21.8l0,0c0.5,1.3-0.1,2.8-1.4,3.3c-0.3,0.1-0.6,0.2-0.9,0.2h-1.4c-0.9,0-1.8-0.5-2.2-1.4
	l-0.8-1.5l-3.1-9l-0.8-13.4H68.2z"/>
<path class="st0" d="M61.8,85.6c-0.5,0-1-0.1-1.4-0.4c-1.2-0.7-2.2-1.6-3-2.7c-0.4-0.6-0.6-1.3-0.6-2L56,70.2
	c-0.1-1.1-0.9-2.1-2-2.3c-3.3-1-6.4-2.3-9.3-4.1c-0.4-0.2-0.8-0.3-1.3-0.3c-0.9,0-1.8,0.5-2.3,1.2c-2.5,3.4-5.3,6.6-8.3,9.6L32.5,81
	c-0.1,2.1-1.8,3.7-3.8,3.7c-1.7,0-3.2-1.1-3.7-2.7c-2.1-7.2-0.7-11.4,0.9-13.6c0.5-0.7,0.6-1.6,0.3-2.4c-1.3-4.2-0.2-11.3,1-16.6
	c0-0.1,0-0.2,0.1-0.3c-4.1-4.8-3.6-12,1.2-16.2c0.1-0.1,0.1-0.1,0.2-0.2l0.7-0.6c1.8-1.2,4.3-0.8,5.6,1.1c1.1,1.6,0.9,3.8-0.6,5.1
	l-0.7,0.6c-0.8,0.6-1.3,1.6-1.3,2.7c0,0.6,0.1,1.1,0.4,1.6c0.4-0.1,0.7-0.2,1.1-0.3c2.8-0.4,5.7-0.6,8.5-0.6
	c5.2,0,10.5,0.5,15.6,1.5l2.1-4l1,1c1.7,1.8,5.1,4.2,11.8,5.4l0.9,0.2l-0.1,0.9c-1.6,11.8-6.1,17-8.7,19c-0.6,0.5-1,1.3-1,2.1
	l0.6,14.1C64.7,84.3,63.4,85.6,61.8,85.6L61.8,85.6z"/>
<path class="st1" d="M31.9,32.2c1.7,0,3,1.3,3,3c0,0.9-0.4,1.8-1.1,2.3l-0.7,0.6c-1.9,1.5-2.2,4.3-0.7,6.2c0,0,0,0.1,0.1,0.1
	c0.5-0.2,1.1-0.4,1.6-0.5c2.8-0.4,5.6-0.6,8.4-0.6c5.4,0,10.8,0.6,16.2,1.7l1.8-3.5c1.9,2,5.5,4.5,12.3,5.8
	c-1.5,11.5-6,16.5-8.4,18.4c-0.9,0.7-1.4,1.8-1.4,2.9l0.6,14.1c0,1.1-0.9,2-2,2c-0.3,0-0.6-0.1-0.9-0.2c-1-0.6-1.9-1.4-2.6-2.4
	c-0.3-0.4-0.4-0.9-0.4-1.3L57,70.1c-0.1-1.6-1.3-2.9-2.8-3.2c-3.2-0.9-6.2-2.3-9.1-4c-0.6-0.3-1.2-0.5-1.8-0.5
	c-1.2,0-2.4,0.6-3.1,1.6c-2.6,3.4-5.4,6.7-8.4,9.7L31.5,81c-0.1,1.5-1.3,2.7-2.8,2.7l0,0c-1.3,0-2.4-0.8-2.7-2.1
	c-2-7-0.5-10.9,0.8-12.8c0.6-1,0.8-2.2,0.4-3.3c-1.3-4.1,0-11.4,1-16.1c0.1-0.3,0.2-0.5,0.2-0.8c-4-4.2-3.8-10.8,0.4-14.8
	c0.2-0.2,0.4-0.4,0.6-0.5l0.7-0.6C30.6,32.4,31.2,32.2,31.9,32.2 M31.9,30.2L31.9,30.2c-1.2,0-2.3,0.4-3.2,1.1l-0.7,0.6
	c-5.3,4.3-6.1,12-1.9,17.4c-1.2,5.4-2.3,12.6-1,17c0.2,0.5,0.1,1.1-0.2,1.6c-1.7,2.4-3.2,6.9-1,14.4c0.6,2.1,2.5,3.5,4.7,3.5
	c2.6,0,4.8-2,4.9-4.6l0.3-6.4c2.9-2.9,5.6-6.1,8.1-9.4c0.3-0.5,0.9-0.8,1.5-0.8c0.3,0,0.6,0.1,0.8,0.2c3,1.8,6.2,3.2,9.6,4.2
	c0.7,0.1,1.2,0.7,1.3,1.4l0.8,10.4c0,0.9,0.3,1.8,0.8,2.5c0.9,1.2,2,2.2,3.3,2.9c0.6,0.3,1.2,0.5,1.9,0.5c2.1,0,3.9-1.7,4-3.9v-0.2
	l-0.6-14.1c0-0.5,0.2-1,0.6-1.2c2.7-2.2,7.5-7.6,9.1-19.7l0.3-1.9l-1.9-0.3c-6.4-1.2-9.7-3.4-11.3-5.1l-1.9-2.1l-1.3,2.5l-1.1,2.2
	c-5-0.9-10-1.4-15.1-1.4c-2.9,0-5.8,0.2-8.7,0.6c-0.1,0-0.2,0-0.3,0.1c0-0.1,0-0.3,0-0.4c0-0.7,0.3-1.4,0.9-1.9l0.7-0.6
	c2.1-1.7,2.4-4.9,0.7-7C34.9,30.9,33.5,30.2,31.9,30.2L31.9,30.2z"/>
<rect x="48.7" y="6.5" transform="matrix(0.7071 -0.7071 0.7071 0.7071 -21.7324 52.4891)" class="st2" width="7.7" height="91.9"/>
<path class="st1" d="M22.7,17.9L87,82.3L82.3,87L17.9,22.7L22.7,17.9 M22.7,16.6L22,17.3L17.3,22l-0.7,0.7l0.7,0.7l64.3,64.3
	l0.7,0.7l0.7-0.7l4.8-4.8l0.7-0.7l-0.7-0.7L23.4,17.3L22.7,16.6z"/>
<path class="st2" d="M52.5,7.4c24.9,0,45.1,20.2,45.1,45.2c0,24.9-20.2,45.1-45.2,45.1c-24.9,0-45.1-20.2-45.1-45.2
	c0-12,4.8-23.5,13.2-31.9C29,12.1,40.5,7.3,52.5,7.4 M52.5,0C23.5,0,0,23.5,0,52.5c0,29,23.5,52.5,52.5,52.5S105,81.5,105,52.5
	c0-13.9-5.5-27.3-15.4-37.1C79.8,5.5,66.4,0,52.5,0z"/>
</svg>
