<?xml version="1.0" encoding="utf-8"?>
<!-- Generator: Adobe Illustrator 22.1.0, SVG Export Plug-In . SVG Version: 6.00 Build 0)  -->
<svg version="1.1" id="Help_and_Support_Icons" xmlns="http://www.w3.org/2000/svg" xmlns:xlink="http://www.w3.org/1999/xlink"
	 x="0px" y="0px" viewBox="0 0 175.2 115.2" style="enable-background:new 0 0 175.2 115.2;" xml:space="preserve">
<style type="text/css">
	.st0{stroke:#000000;stroke-miterlimit:10;}
</style>
<title>tour2</title>
<path class="st0" d="M156.5,38.5c8.9-8.2,9.4-22.1,1.2-31c-8.2-8.9-22.1-9.4-31-1.2s-9.4,22.1-1.2,31c0.4,0.4,0.8,0.8,1.2,1.2
	c-1,0.7-1.9,1.5-2.8,2.3c-5.5-1.3-11.3-0.4-16.1,2.6c-1.6-1.8-3.4-3.5-5.3-4.9c8.9-8.2,9.4-22.1,1.2-31c-8.2-8.9-22.1-9.4-31-1.2
	s-9.4,22.1-1.2,31c0.4,0.4,0.8,0.8,1.2,1.2c-1.9,1.4-3.7,3.1-5.3,4.9c-4.8-3-10.6-3.9-16.1-2.6c-0.9-0.8-1.8-1.6-2.8-2.3
	c8.9-8.2,9.4-22.1,1.2-31s-22.1-9.4-31-1.2s-9.4,22.1-1.2,31c0.4,0.4,0.8,0.8,1.2,1.2c-9.3,6.6-16,19.1-18.1,34
	c-0.2,1.2,0.7,2.4,1.9,2.6c0,0,0,0,0,0h0.3c1.1,0,2.1-0.8,2.2-1.9c2.2-14.8,9.3-27.3,18.7-32.5c0.7-0.4,1.1-1.1,1.2-1.9
	c0-0.8-0.3-1.6-1-2c-8-5.4-10.1-16.2-4.7-24.1S35.3,2.5,43.3,7.9c8,5.4,10.1,16.2,4.7,24.1c-1.2,1.8-2.8,3.4-4.7,4.7
	c-0.7,0.4-1,1.2-1,2c0,0.8,0.5,1.5,1.2,1.9c1,0.6,1.9,1.2,2.8,1.9C35.5,47.9,31.1,61,36.4,71.8c1.2,2.4,2.8,4.6,4.8,6.4
	c-9.3,6.6-16,19.1-18.2,34c-0.2,1.2,0.7,2.4,1.9,2.6c0,0,0,0,0,0h0.3c1.1,0,2.1-0.8,2.2-1.9c2.2-14.8,9.3-27.3,18.7-32.5
	c0.7-0.4,1.1-1.1,1.2-1.9c0-0.8-0.3-1.6-1-2c-8-5.4-10-16.2-4.7-24.1s16.2-10,24.1-4.7s10,16.2,4.7,24.1c-1.2,1.8-2.8,3.4-4.7,4.7
	c-0.7,0.4-1,1.2-1,2c0,0.8,0.5,1.5,1.2,1.9c9.3,5.2,16.5,17.7,18.7,32.5c0.2,1.2,1.3,2.1,2.6,1.9c0.2,0,0.5,0,0.7,0
	c1.2,0.2,2.4-0.7,2.6-1.9c0,0,0,0,0,0c2.2-14.8,9.3-27.3,18.7-32.5c1.1-0.6,1.5-2,0.9-3.1c-0.2-0.3-0.4-0.6-0.7-0.8
	c-8-5.4-10-16.2-4.7-24.1c5.4-8,16.2-10,24.1-4.7c8,5.4,10,16.2,4.7,24.1c-1.2,1.8-2.8,3.4-4.7,4.7c-1,0.7-1.3,2.1-0.6,3.2
	c0.2,0.3,0.5,0.5,0.8,0.7c9.3,5.2,16.5,17.7,18.7,32.5c0.2,1.1,1.1,1.9,2.2,1.9h0.3c1.2-0.2,2.1-1.3,1.9-2.6c0,0,0,0,0,0
	c-2.2-15-8.9-27.4-18.1-34c8.9-8.2,9.4-22,1.2-30.8c-1.8-1.9-3.9-3.6-6.3-4.7c0.9-0.7,1.8-1.4,2.8-1.9c1.1-0.6,1.5-2,0.9-3.1
	c-0.2-0.3-0.4-0.6-0.7-0.8c-8-5.4-10.1-16.2-4.7-24.1c5.4-8,16.2-10.1,24.1-4.7c8,5.4,10.1,16.2,4.7,24.1c-1.2,1.8-2.8,3.4-4.7,4.7
	c-1,0.7-1.3,2.1-0.6,3.2c0.2,0.3,0.5,0.5,0.8,0.7c9.3,5.2,16.5,17.7,18.7,32.5c0.2,1.1,1.1,1.9,2.2,1.9h0.3c1.2-0.2,2.1-1.3,1.9-2.6
	C172.5,57.6,165.8,45.1,156.5,38.5z M97.2,62.1c0,6.1,2.5,11.9,7,16.1c-7.7,5.5-13.5,15-16.6,26.6c-3-11.6-8.9-21.1-16.6-26.6
	c8.9-8.2,9.4-22,1.2-30.8c-0.4-0.4-0.8-0.8-1.2-1.2c1.9-2.2,4.2-4,6.7-5.5c1.1-0.6,1.5-2,0.8-3.1c-0.2-0.3-0.4-0.6-0.7-0.7
	c-8-5.4-10-16.2-4.7-24.1c5.4-8,16.2-10,24.1-4.7c8,5.4,10,16.2,4.7,24.1c-1.2,1.8-2.8,3.4-4.7,4.7c-0.7,0.4-1,1.2-1,2
	c0,0.8,0.5,1.5,1.2,1.9c2.5,1.5,4.7,3.3,6.6,5.5C99.7,50.3,97.2,56.1,97.2,62.1z"/>
</svg>
