<?xml version="1.0" encoding="utf-8"?>
<!-- Generator: Adobe Illustrator 22.1.0, SVG Export Plug-In . SVG Version: 6.00 Build 0)  -->
<svg version="1.1" id="Help_and_Support_Icons" xmlns="http://www.w3.org/2000/svg" xmlns:xlink="http://www.w3.org/1999/xlink"
	 x="0px" y="0px" viewBox="0 0 137.2 147.2" style="enable-background:new 0 0 137.2 147.2;" xml:space="preserve">
<title>tour1</title>
<path d="M70,147.2c-0.7,0-1.2,0-1.4,0c-11.7,0.2-22.9-4.2-31.3-12.3c-14.2-13.4-20.9-36-19.9-67.2c0.3-3.9,0.9-7.8,1.8-11.7
	c0.4-1.5,1.9-2.4,3.4-2.1c0.3,0.1,0.5,0.2,0.7,0.3c9.3,5.4,33.8,16.2,61.7-0.4c1.3-0.8,3.1-0.3,3.9,1c0.3,0.4,7.3,11.3,27.1,5.8
	c0.8-0.2,1.6-0.1,2.3,0.4c0.7,0.5,1.1,1.2,1.2,2c0.2,1.5,0.4,3.1,0.5,4.6c0,0.2,0,0.5,0,0.7c0.8,30.9-5.9,53.3-19.9,66.6
	C91.9,142.7,81.2,147,70,147.2z M23.8,61c-0.4,2.3-0.7,4.7-0.9,7c-0.9,29.4,5.2,50.6,18.2,62.8c7.3,7,17.1,10.9,27.2,10.7h0.5
	c10.2,0.1,20-3.7,27.3-10.8c12.9-12.2,18.9-33.4,18.1-62.8c0-0.1,0-0.3,0-0.4c0-0.2,0-0.4-0.1-0.6c-16.5,3.5-25.1-3.2-28.5-6.9
	C59,74.6,35.5,66.9,23.8,61z"/>
<path d="M52.6,85.2c0,2.8-2.2,5.1-5,5.1s-5.1-2.2-5.1-5c0-2.8,2.2-5.1,5-5.1c0,0,0.1,0,0.1,0C50.3,80.2,52.6,82.5,52.6,85.2
	L52.6,85.2z"/>
<path d="M94.7,85.2c0,2.8-2.3,5.1-5.1,5.1c-2.8,0-5.1-2.3-5.1-5.1c0-2.8,2.3-5.1,5.1-5.1c0,0,0,0,0.1,0
	C92.5,80.2,94.7,82.4,94.7,85.2z"/>
<path d="M74.2,128.2c-0.8,0-1.6-0.1-2.3-0.2c-6.5-1.3-10.7-7.6-9.4-14.1c1.3-6.5,7.6-10.7,14.1-9.4c6.5,1.3,10.7,7.6,9.4,14.1l0,0
	C84.9,124.1,79.9,128.2,74.2,128.2z M74.2,109.8c-3,0-5.7,2.1-6.3,5.1c-0.3,1.7,0,3.4,0.9,4.8c2,2.9,5.9,3.7,8.8,1.8
	c2.9-2,3.7-5.9,1.8-8.8c-0.9-1.4-2.4-2.4-4.1-2.7C75,109.8,74.6,109.8,74.2,109.8z"/>
<path d="M25.7,115.6C8.9,112.1,1.4,105,1.1,104.7l-0.8-0.8l0-1.1C-1.6,63,6.6,33.9,24.8,16.6C36.6,5.4,52.4-0.6,68.6,0
	c16.2-0.6,32,5.3,43.8,16.5c18.2,17.4,26.5,46.4,24.6,86.2l-0.1,1.1l-0.8,0.8c-0.3,0.3-7.8,7.4-24.6,10.9l-1.1-5.5
	c12.1-2.5,18.8-7.1,21-8.8c1.6-37.4-6.1-64.6-22.8-80.6c-10.7-10.1-25-15.5-39.7-15h-0.3h-0.3c-14.7-0.5-29,4.9-39.7,15
	c-16.7,16-24.4,43.1-22.8,80.6c2.2,1.7,8.9,6.3,21,8.8L25.7,115.6z"/>
<path d="M83.4,119.7c-1.6,0.1-2.9-1.2-2.9-2.7c-0.1-1.6,1.2-2.9,2.7-2.9l0,0c7.4-0.5,18.1-1.6,27-3.9c1.5-0.4,3,0.6,3.4,2.1
	c0.4,1.5-0.5,3-2,3.4c-9.3,2.4-20.4,3.6-28,4.1L83.4,119.7z"/>
</svg>
