<?xml version="1.0" encoding="utf-8"?>
<!-- Generator: Adobe Illustrator 22.1.0, SVG Export Plug-In . SVG Version: 6.00 Build 0)  -->
<svg version="1.1" id="Help_and_Support_Icons" xmlns="http://www.w3.org/2000/svg" xmlns:xlink="http://www.w3.org/1999/xlink"
	 x="0px" y="0px" viewBox="0 0 128.8 127.2" style="enable-background:new 0 0 128.8 127.2;" xml:space="preserve">
<title>tour3</title>
<polygon points="58.1,78.9 40.7,78.9 40.7,73.4 52.6,73.4 52.6,61.5 58.1,61.5 "/>
<polygon points="17.4,78.9 0,78.9 0,61.5 5.5,61.5 5.5,73.4 17.4,73.4 "/>
<polygon points="5.5,38.4 0,38.4 0,21 17.4,21 17.4,26.5 5.5,26.5 "/>
<polygon points="58.1,38.4 52.6,38.4 52.6,26.5 40.7,26.5 40.7,21 58.1,21 "/>
<path d="M57.1,92.4H37.4c-2.3,0-4.2-1.9-4.2-4.2v-76c0-2.3,1.9-4.2,4.2-4.2h45.2c2.3,0,4.2,1.9,4.2,4.2v60.4l8.7,8.7
	c1.3,1.3,1.3,3.4,0,4.7s-3.4,1.3-4.7,0l-9.8-9.8c-4.4-4.4-11.6-4.4-16,0c-4.4,4.4-4.4,11.6,0,16l35.2,35.1h28.7V85.5
	c0-4.8-1.9-9.3-5.3-12.7L94.8,44.1V11.3C94.8,5,89.7,0,83.5,0h-47c-6.2,0-11.3,5-11.3,11.3v0v95.5c0,6.2,5,11.3,11.3,11.3h44.9
	L60.2,96.8C58.9,95.5,57.9,94,57.1,92.4z"/>
</svg>
