<?xml version="1.0" encoding="utf-8"?>
<!-- Generator: Adobe Illustrator 16.0.0, SVG Export Plug-In . SVG Version: 6.00 Build 0)  -->
<!DOCTYPE svg PUBLIC "-//W3C//DTD SVG 1.1//EN" "http://www.w3.org/Graphics/SVG/1.1/DTD/svg11.dtd">
<svg version="1.1" id="圖層_1" xmlns="http://www.w3.org/2000/svg" xmlns:xlink="http://www.w3.org/1999/xlink" x="0px" y="0px"
	 width="61px" height="39.863px" viewBox="0 0 61 39.863" enable-background="new 0 0 61 39.863" xml:space="preserve">
<g>
	<path d="M29.924,7.693c1.936-3.223,5.452-4.985,8.779-4.985c4.279,0,8.508,2.77,9.893,7.649c4.788-0.254,7.923,3.203,7.63,7.076
		c1.022,0.175,1.894,0.598,2.591,1.135c0.99-5.951-3.585-10.412-8.332-10.875C48.439,3.057,43.816,0,38.703,0
		c-3.965,0-7.702,1.834-10.138,4.941c-5.238,0.133-9.534,4.082-10.232,9.164l2.716,0.134C21.698,10.426,25.227,7.187,29.924,7.693z"
		/>
	<path d="M57.72,21.932c3.288-0.199,3.749,2.969,2.923,3.982c-2.771,3.396-10.986,13.015-10.986,13.015
		c-0.567,0.665-1.195,0.854-1.844,0.865L31.04,39.863c-1.965-0.073-3.77-0.446-3.77-0.446c-1.898-0.471-8.54-2.514-13.463-2.695
		l-8.263,0.475L0,24.617l10.88-5.811c2.028-1.289,3.659-1.713,5.202-1.713l26.194,1.285c2.081,0.094,3.721,1.906,3.648,4.341
		c-0.068,2.374-1.719,3.966-3.729,3.966L29.709,26.42c1.485,0.818,3.079,1.405,4.385,1.834l12.686,0.826l6.723-7.8
		C54.608,20.1,56.551,19.932,57.72,21.932z"/>
	<circle cx="26.652" cy="12.213" r="1.425"/>
	<circle cx="37.751" cy="12.837" r="1.853"/>
	<circle cx="40.622" cy="7.085" r="1.213"/>
	<circle cx="49.18" cy="15.837" r="1.257"/>
</g>
</svg>
