<?xml version="1.0" encoding="utf-8"?>
<!-- Generator: Adobe Illustrator 16.0.0, SVG Export Plug-In . SVG Version: 6.00 Build 0)  -->
<!DOCTYPE svg PUBLIC "-//W3C//DTD SVG 1.1//EN" "http://www.w3.org/Graphics/SVG/1.1/DTD/svg11.dtd">
<svg version="1.1" id="圖層_1" xmlns="http://www.w3.org/2000/svg" xmlns:xlink="http://www.w3.org/1999/xlink" x="0px" y="0px"
	 width="56.999px" height="57.002px" viewBox="0 0 56.999 57.002" enable-background="new 0 0 56.999 57.002" xml:space="preserve">
<path d="M54.597,36.094l0.773-0.773c2.173-2.172,2.173-5.705,0-7.879L29.561,1.633C28.507,0.58,27.108,0,25.62,0
	c-1.487,0-2.887,0.58-3.938,1.633l-4.137,4.135c-1.054,1.053-1.632,2.451-1.632,3.939s0.578,2.889,1.632,3.941l25.81,25.809
	c1.053,1.053,2.452,1.633,3.94,1.633s2.887-0.58,3.938-1.633l0.773-0.773l0.853,0.852c0.01,0.01,0.038,0.039,0.038,0.092
	s-0.028,0.082-0.038,0.092l-4.847,4.846c-0.659,0.66-1.655,0.809-2.479,0.367c-0.008-0.004-0.016-0.008-0.022-0.012L25.38,34.523
	c-2.136-1.104-4.712-0.703-6.411,0.996l-4.585,4.584l0,0c-0.449-0.16-0.928-0.244-1.419-0.244c-1.115,0-2.164,0.434-2.952,1.225
	l-9.311,9.309C0.249,50.846,0,51.449,0,52.088c0,0.641,0.249,1.242,0.702,1.695l2.517,2.518c0.453,0.453,1.055,0.701,1.695,0.701
	c0.64,0,1.242-0.248,1.695-0.701l9.31-9.311c1.148-1.148,1.487-2.807,1.014-4.256l4.625-4.625c0.567-0.568,1.428-0.701,2.142-0.334
	L43.82,48.168c0.862,0.459,1.793,0.682,2.715,0.682c1.488,0,2.953-0.582,4.067-1.695l4.847-4.848c0.716-0.715,1.11-1.668,1.11-2.68
	s-0.395-1.965-1.11-2.68L54.597,36.094z"/>
</svg>
