<?xml version="1.0" encoding="utf-8"?>
<!-- Generator: Adobe Illustrator 16.0.0, SVG Export Plug-In . SVG Version: 6.00 Build 0)  -->
<!DOCTYPE svg PUBLIC "-//W3C//DTD SVG 1.1//EN" "http://www.w3.org/Graphics/SVG/1.1/DTD/svg11.dtd">
<svg version="1.1" id="圖層_1" xmlns="http://www.w3.org/2000/svg" xmlns:xlink="http://www.w3.org/1999/xlink" x="0px" y="0px"
	 width="58px" height="25.725px" viewBox="0 0 58 25.725" enable-background="new 0 0 58 25.725" xml:space="preserve">
<g>
	<path d="M15.256,18.631c0,0-0.513,3.168,1.15,5.125c1.662,1.959,4.872,1.969,4.872,1.969s0.512-3.168-1.152-5.125
		C18.464,18.641,15.256,18.631,15.256,18.631z"/>
	<path d="M32.382,17.811c0,0-0.424-3.18-2.578-4.578c-2.157-1.398-5.232-0.482-5.232-0.482s0.42,3.18,2.577,4.576
		C29.303,18.725,32.382,17.811,32.382,17.811z"/>
	<path d="M39.083,20.521c-1.743,1.885-1.367,5.072-1.367,5.072s3.206,0.127,4.948-1.76c1.745-1.889,1.368-5.074,1.368-5.074
		S40.826,18.633,39.083,20.521z"/>
	<path d="M29.225,0c7.229,0,12.132,3.449,16.224,6.238c3.985,2.719,7.428,5.064,12.552,5.064v3.299
		c-6.142,0-10.345-2.865-14.41-5.637c-4.297-2.93-8.354-5.699-14.661-5.699c-6.527,0-10.492,2.779-14.691,5.721
		C10.297,11.75,6.229,14.602,0,14.602v-3.299c5.188,0,8.5-2.324,12.337-5.012C16.277,3.529,21.064,0,29.225,0z"/>
</g>
</svg>
