<?xml version="1.0" encoding="utf-8"?>
<!-- Generator: Adobe Illustrator 16.0.0, SVG Export Plug-In . SVG Version: 6.00 Build 0)  -->
<!DOCTYPE svg PUBLIC "-//W3C//DTD SVG 1.1//EN" "http://www.w3.org/Graphics/SVG/1.1/DTD/svg11.dtd">
<svg version="1.1" id="圖層_1" xmlns="http://www.w3.org/2000/svg" xmlns:xlink="http://www.w3.org/1999/xlink" x="0px" y="0px"
	 width="376.521px" height="137.33px" viewBox="0 0 376.521 137.33" enable-background="new 0 0 376.521 137.33"
	 xml:space="preserve">
<g>
	<path fill-rule="evenodd" clip-rule="evenodd" d="M157.358,1.237c0.31,0.599,0.739,0.998,1.474,0.849
		c0.509-0.104,1.014-0.23,1.614-0.368c-0.209-0.323-0.398-0.618-0.647-1.004c2.074-0.941,4.253-0.772,6.354-0.5
		c1.218,0.157,2.426,0.322,3.654,0.407c0.682,0.047,1.486,0.199,1.991,0.607c1.267,1.029,2.514,0.928,3.704,0.106
		c1.447-1,2.955-1.393,4.641-1.103c0.307,0.499,0.565,0.922,0.818,1.332c0.541-0.029,1.051-0.056,1.62-0.085
		c0.297,0.52,0.581,1.016,1.043,1.827c0.244-1.063,0.417-1.809,0.646-2.805c0.682,0.442,1.129,0.868,1.662,1.052
		c1.756,0.609,3.474,1.132,5.452,0.716c2.298-0.482,4.679-0.581,7.028-0.774c1.746-0.144,3.505-0.106,5.252-0.117
		c1.635-0.009,3.255-0.056,4.889,0.128c1.436,0.163,2.902,0.414,4.272-0.339c0.424-0.233,0.691,0.019,1.077,0.156
		c0.838,0.299,1.868,0.662,2.643,0.424c2.524-0.778,5.086-0.217,7.613-0.462c0.68-0.065,1.5,0.092,2.078,0.442
		c2.133,1.293,4.262,1.584,6.771,1.1c2.066-0.399,4.295-0.634,6.447-0.02c0.278,0.08,0.68,0.139,0.883,0
		c1.102-0.751,1.394,0.427,2.147,0.862c0.956-0.18,1.888-0.729,3.151-0.422c1.181,0.287,2.581-0.327,4.016-0.565
		c0.1,0.167,0.306,0.51,0.548,0.915c0.962-0.043,1.909-0.25,2.965-0.098c3.278,0.469,6.597-0.049,9.9-0.049
		c1.128,0,2.259,0.082,3.389,0.084c1.649,0.004,3.301-0.051,4.952-0.044c1.746,0.006,3.508-0.076,5.236,0.118
		c2.417,0.271,4.93-0.173,7.243,1.07c0.661,0.354,1.635,0.216,2.457,0.163c3.62-0.231,7.2,0.06,10.784,0.573
		c1.619,0.232,3.275-0.042,4.931,0.257c1.69,0.305,3.311,0.946,5.115,0.831c1.855-0.118,3.736,0.152,5.606,0.25
		c1.759,0.092,3.519,0.18,5.669,0.289c-1.823,1.335-3.708,1.042-5.369,1.657c3.319,0.079,6.642,0.093,9.956,0.251
		c4.563,0.219,9.119,0.584,13.683,0.815c3.407,0.172,6.822,0.216,10.232,0.352c0.768,0.031,1.528,0.209,2.548,0.357
		c-1.613,1.028-3.081,0.38-4.45,0.596c-1.305,0.205-2.563,0.68-3.864,1.042c-0.167,0.502,0.171,0.708,0.589,0.789
		c0.896,0.175,1.848,0.224,2.214,1.31c-1.286,0.232-2.674-0.221-3.966,0.475c0.234,0.298,0.363,0.585,0.467,0.575
		c1.709-0.158,3.051,1.194,4.797,1.07c1.853-0.131,3.746-0.042,5.673,1.27c-2.303,0.254-4.336,0.695-6.356,0.645
		c-2.289-0.057-4.126,0.814-6.006,1.954c0.393,0.803,1.102,0.324,1.616,0.471c0.576,0.164,1.215,0.1,1.805,0.232
		c0.559,0.125,0.879,0.743,1.67,0.533c1.286-0.341,2.16,0.366,2.666,1.622c2.235,0.186,4.497,0.373,6.74,0.56
		c0.423,0.828-0.655,0.583-0.705,1.058c1.444,1.088,1.444,1.088,2.762-0.711c0.32,0.443,0.696,0.796,0.861,1.23
		c0.22,0.583-0.27,1.374-0.833,1.418c-0.501,0.04-1.013-0.077-1.518-0.051c-0.148,0.007-0.424,0.299-0.397,0.399
		c0.066,0.262,0.227,0.533,0.428,0.717c0.129,0.119,0.396,0.133,0.597,0.123c2.124-0.108,3.883,1.184,5.89,1.559
		c0.395,0.074,0.646,0.911,1.034,1.503c0.212-0.174,0.548-0.312,0.584-0.504c0.106-0.575,0.283-1.079,0.954-0.843
		c0.728,0.256-0.079,0.617-0.03,0.935c0.046,0.298,0.057,0.641,0.211,0.877c0.582,0.883,0.085,1.544-0.432,2.313
		c-0.244-0.552-0.468-1.056-0.737-1.669c-0.553,0.105-1.041,0.199-1.637,0.313c-0.188-0.521-0.383-1.06-0.601-1.663
		c-0.391,0.713-0.721,1.318-0.947,1.729c-1.137,0.701-2.95-0.957-3.157,1.437c-0.317-0.495-0.503-0.996-0.861-1.272
		c-0.283-0.217-0.86-0.319-1.159-0.172c-0.248,0.123-0.423,0.702-0.378,1.044c0.095,0.702,0.36,1.381,0.562,2.096
		c1.744,0.357,3.52,0.729,5.3,1.074c0.285,0.055,0.749,0.116,0.869-0.034c0.666-0.833,1.531-0.167,2.237-0.378
		c1.146-0.343,0.66,0.765,1.056,1.049c2.535,0.572,5.183,0.009,7.681,0.822c0.139,0.045,0.204,0.309,0.43,0.676
		c-0.879,0.079-1.655,0.206-2.428,0.207c-4.358,0.003-8.716-0.034-13.072-0.032c-0.611,0-1.238,0.075-1.826,0.233
		c-0.2,0.053-0.449,0.673-0.425,0.691c1.251,0.917-0.333,1.626-0.189,2.603c1.409,0.155,2.935-0.305,4.422,0.696
		c-0.618,0.325-1.116,0.588-1.617,0.852c0.106,0.154,0.21,0.438,0.32,0.442c1.34,0.041,2.682,0.033,4.021,0.054
		c0.483,0.008,0.965,0.06,1.52,0.097c-0.483,0.961-1.228,0.777-1.909,0.867c-0.8,0.105-1.621,0.105-2.306,0.765
		c-0.445,0.43-1.146,0.592-1.814,0.913c1.412,1.169,3.068,0.546,4.584,1.077c0,0.646,0,1.332,0,1.885
		c0.726,1.113,1.8-0.121,2.327,0.492c0.613,0.711,1.371,0.172,1.968,0.52c-0.063,0.387-0.127,0.772-0.218,1.322
		c1.872,0.114,3.69,0.226,5.508,0.338c0.015,0.089,0.026,0.179,0.04,0.268c-0.447,0.104-0.961,0.107-1.322,0.341
		c-0.4,0.262-0.664,0.736-1.02,1.155c-0.417-0.381-0.708-0.65-1.002-0.918c-1.016,1.39-3.254-0.784-4.037,1.588
		c1.157,0.823,2.654,0.456,3.982,1c-2.986,0.335-5.972,0.671-8.85,0.994c-0.53,1.114,0.618,0.98,0.817,1.517
		c0.179,0.483-0.605,0.947,0.043,1.391c0.14,0.095,0.197,0.31,0.357,0.576c-1.07,0.865-2.375,0.522-3.557,0.648
		c-1.101,0.118-2.221,0.055-3.665,0.718c0.728,0.361,1.047,0.639,1.385,0.665c0.71,0.057,1.442-0.105,2.137,0.003
		c0.277,0.043,0.516,0.545,0.701,0.878c0.077,0.142,0.014,0.533-0.062,0.556c-0.249,0.074-0.551,0.093-0.794,0.012
		c-0.158-0.053-0.216-0.414-0.371-0.461c-0.249-0.076-0.565-0.064-0.813,0.024c-0.137,0.049-0.308,0.376-0.259,0.494
		c0.105,0.252,0.314,0.61,0.528,0.645c1.121,0.184,2.256,0.28,3.425,0.411c-1.603,1.21-3.607,0.395-5.481,1.275
		c1.442,0.876,2.885,0.252,4.214,0.449c1.541,0.227,3.08,0.502,4.631,0.639c1.442,0.127,2.899,0.102,4.348,0.355
		c-2.971,0.081-5.951,0.047-8.91,0.276c-2.929,0.226-5.893-0.083-9.012,0.528c0.406,0.663,0.778,1.126,0.99,1.654
		c0.226,0.558,0.301,1.177,0.462,1.854c2.408,0.31,4.724,0.607,7.266,0.934c-0.119,0.513-0.225,0.96-0.322,1.374
		c-0.325,0.016-0.603,0.112-0.699,0.02c-0.534-0.511-1.042-0.954-1.882-0.845c-0.717,0.093-1.467-0.045-2.178,0.074
		c-2.276,0.38-4.522,0.193-6.78-0.139c-0.818-0.121-1.66-0.112-2.492-0.121c-0.631-0.007-1.284,0.048-1.582,0.739
		c-0.248,0.574-0.68,0.643-1.237,0.685c-2.587,0.192-5.179,0.363-7.753,0.683c-1.639,0.204-3.257,0.619-4.859,1.034
		c-0.257,0.067-0.484,0.622-0.532,0.976c-0.024,0.185,0.343,0.565,0.585,0.618c1.096,0.241,2.207,0.395,3.349,0.587
		c-0.224,0.443-0.386,0.765-0.588,1.169c2.254,1.395,4.8,0.038,7.229,1.111c0.331,0.442,0.424,0.962-0.394,1.548
		c-0.785,0.563-1.517,0.983-2.536,0.942c-2.322-0.092-4.362,0.773-6.461,1.964c1.761,0.845,1.761,0.839,4.269,0.817
		c1.44-0.012,2.88-0.002,4.541-0.002c-0.074,0.864-0.129,1.524-0.185,2.172c-3.604-0.117-6.879,1.064-10.281,1.054
		c-0.101,0-0.235,0.001-0.3,0.061c-2.073,1.895-4.727,1.057-7.104,1.517c-0.304,0.059-0.6,0.147-0.873,0.215
		c-0.337,0.72,0.089,1.006,0.635,1.088c0.711,0.106,1.475,0.257,2.156,0.11c2.732-0.588,5.362-0.107,7.992,0.565
		c0.283,0.072,0.604,0.01,1.004,0.01c-0.084,0.32-0.291,0.726-0.195,0.821c0.56,0.548,0.878-0.137,1.382-0.359
		c0.673,0.446,1.392,0.921,2.177,1.441c-0.265,0.343-0.426,0.751-0.622,0.77c-1.757,0.163-3.52,0.256-5.28,0.372
		c-1.24,0.082-2.479,0.153-3.717,0.256c-1.02,0.084-1.418,0.739-1.459,1.69c0.845,1.531,2.269,1.986,3.859,1.9
		c1.387-0.075,2.605,0.395,3.887,0.819c-2.18,0.78-4.493,0.22-6.628,0.682c-2.313,0.499-4.552-0.024-6.819,0.173
		c-2.17,0.188-4.357,0.159-6.538,0.194c-2.243,0.036-4.485,0.035-6.803,0.051c0,0.5-0.017,0.783,0.007,1.062
		c0.024,0.296,0.088,0.589,0.135,0.871c-0.565,0.291-1.068,0.549-1.61,0.826c0.726,0.805,2.027,0.211,2.395,1.386
		c-0.787,0.745-1.774,0.454-2.659,0.466c-3.715,0.052-7.43,0.046-11.146,0.029c-0.822-0.004-1.645-0.185-2.469-0.205
		c-0.816-0.02-1.637,0.036-2.453,0.109c-0.502,0.045-1.074,0.396-1.481,0.245c-1.356-0.502-2.658-0.375-3.938,0.114
		c-2.403,0.92-4.923,0.622-7.388,0.676c-1.544,0.034-2.833,0.38-4.266,1.522c0.573,0.154,0.993,0.423,1.251,0.313
		c2.009-0.865,4.12-0.233,6.163-0.485c0.288-0.036,0.652,0.05,0.895,0.211c1.671,1.119,3.54,0.964,5.415,0.983
		c2.783,0.028,5.563,0.187,8.66,0.301c-0.408,0.373-0.566,0.637-0.771,0.685c-3.678,0.846-7.419,0.488-11.14,0.562
		c-3,0.059-5.979-0.068-8.979,0.603c-1.728,0.386-3.665-0.071-5.491-0.274c-0.601-0.067-0.919,0-1.3,0.461
		c-0.207,0.25-0.684,0.342-1.051,0.376c-0.396,0.036-0.807-0.126-1.209-0.12c-7.971,0.119-15.94,0.271-23.911,0.371
		c-5.405,0.068-10.77,0.699-16.15,1.112c-5.698,0.438-11.395,0.921-17.09,1.4c-0.263,0.021-0.512,0.205-0.929,0.38
		c0.296,0.302,0.48,0.654,0.672,0.657c1.405,0.026,2.669,1.25,4.182,0.494c0.139-0.069,0.482,0.306,0.745,0.445
		c1.095,0.577,2.118,0.873,3.489,0.612c1.799-0.342,3.724-0.185,5.58-0.047c3.636,0.27,7.26-0.166,10.894-0.035
		c1.762,0.063,3.533-0.024,5.298-0.002c0.726,0.008,1.547-0.074,2.152,0.229c0.995,0.498,1.876,0.307,2.836,0.074
		c0.487-0.118,1.08-0.22,1.388,0.346c0.37,0.679-0.053,1.158-0.513,1.623c-0.554,0.561-1.174,0.715-1.97,0.676
		c-3.468-0.167-6.946-0.621-10.401,0.146c-1.673-0.449-3.467,0.342-5.137-0.604c-0.595-0.337-1.666-0.443-2.217-0.127
		c-1.76,1.009-3.573,0.814-5.427,0.693c-0.397-0.027-0.882-0.042-1.193,0.151c-1.265,0.778-2.655,0.595-3.967,0.468
		c-3.024-0.293-6.025-0.013-9.029,0.154c-2.556,0.142-5.124,0.079-7.667,0.426c-1.332,0.181-2.657,0.416-3.99,0.584
		c-0.502,0.063-1.039,0.097-1.526-0.01c-0.802-0.176-1.511-0.057-1.895,0.653c-0.436,0.804-1.255,1.012-1.844,0.85
		c-1.643-0.452-3.232,0.123-4.853,0.044c-1.604-0.077-3.229,0.665-4.867,0.849c-2.054,0.232-4.171,0.563-6.184,0.294
		c-1.987-0.267-3.866,0.006-5.789,0.161c-0.411,0.033-0.939,0.308-1.205,0.142c-1.372-0.863-2.246,0.346-3.885,0.571
		c0.776,0.468,1.086,0.815,1.402,0.82c2.277,0.039,4.539,0.246,6.836-0.108c2.244-0.348,4.554-0.263,6.832-0.394
		c1.342-0.077,2.682-0.199,4.021-0.307c1.865-0.15,3.729-0.322,5.594-0.453c2.169-0.153,4.346-0.232,6.511-0.42
		c1.127-0.098,2.245-0.328,3.354-0.561c1.324-0.279,2.635-0.394,4.003-0.381c2.751,0.026,5.516,0.34,8.262-0.169
		c0.709-0.131,1.448-0.12,2.176-0.129c1.17-0.015,2.217-0.115,2.966-1.281c0.597-0.932,1.629-0.657,2.538-0.449
		c0.067,0.331,0.126,0.626,0.183,0.922c0.177,0.097,0.354,0.276,0.528,0.276c2.704,0.002,5.405-0.034,8.109-0.027
		c1.661,0.005,3.322,0.103,4.984,0.096c1.03-0.003,2.091,0.008,3.084-0.219c2.991-0.681,6.008-0.417,9.019-0.403
		c0.256,0.001,0.51,0.232,0.793,0.37c-0.362,0.84-1.064,0.588-1.602,0.61c-5.288,0.211-10.578,0.362-15.867,0.583
		c-4.556,0.191-9.129,0.252-13.65,0.757c-2.557,0.286-5.217-0.254-7.69,0.83c-0.247,0.107-0.619,0.001-0.912-0.081
		c-1.586-0.438-3.112-0.093-4.571,0.453c-1.607,0.602-3.259,0.69-4.914,0.599c-2.281-0.126-4.537-0.187-6.756,0.474
		c-0.195,0.059-0.411,0.054-0.617,0.069c-5.795,0.419-11.592,0.834-17.387,1.258c-1.036,0.076-2.029,0.167-3.026-0.391
		c-0.751-0.422-1.583-0.092-2.401,0.161c-1.273,0.395-2.593,0.757-3.912,0.868c-3.522,0.293-7.057,0.446-10.584,0.655
		c-3.623,0.214-7.253,0.677-10.867,0.58c-4.849-0.132-9.677,0.143-14.514,0.211c-3.102,0.044-6.207-0.087-9.306,0.018
		c-3.723,0.126-7.443,0.053-11.17,0.296c-3.801,0.247-7.635-0.045-11.454-0.041c-2.182,0.003-4.364,0.108-6.544,0.199
		c-2.681,0.112-5.351,0.474-8.05,0.193c-0.904-0.094-1.839,0.102-2.759,0.176c-0.303,0.024-0.674,0.217-0.893,0.102
		c-2.239-1.182-4.594-0.629-6.917-0.511c-0.208,0.011-0.43,0.069-0.62,0.016c-3.083-0.865-6.175-0.166-9.263-0.065
		c-0.313,0.011-0.685,0.174-0.925,0.057c-1.972-0.97-4.054-0.32-6.077-0.44c-1.956-0.118-3.942-0.25-5.881-0.044
		c-2.017,0.213-4.088,0.349-6.003,1.209c-0.442,0.2-0.999,0.246-1.49,0.208c-1.659-0.13-3.311-0.329-4.965-0.504
		c-0.308-0.033-0.629-0.03-0.917-0.128c-2.01-0.688-3.717-4.698-2.815-6.592c0.087-0.184,0.202-0.381,0.358-0.5
		c1.221-0.935,2.345-2.1,3.715-2.707c1.479-0.655,3.182-0.878,4.813-1.11c1.118-0.158,2.281,0.015,3.422-0.006
		c0.514-0.01,1.031-0.102,1.53-0.223c0.115-0.029,0.243-0.338,0.225-0.503c-0.018-0.171-0.181-0.436-0.322-0.468
		c-0.495-0.111-1.009-0.177-1.517-0.192c-1.558-0.049-3.117-0.011-4.671-0.111c-2.114-0.137-2.109-0.178-4.179,0.832
		c-0.535-1.82-1.407-3.4-3.249-3.94c-0.896-1.81,0.521-3.535-0.315-5.068c1.128-1.389,2.658-1.359,4.222-1.587
		c-0.482-0.812-0.955-1.428-1.229-2.121c-0.299-0.746-0.415-1.565-0.632-2.445c1.438-1.173,2.864-2.336,4.265-3.479
		c-1.226-1.486-2.395-2.904-3.61-4.379c0.946-2.328,0.671-4.709,0.529-7.189c0.785-0.472,1.546-0.928,2.579-1.55
		c-2.224-0.745-4.104-1.334-6.151-1.513c-1.938-0.17-3.849-0.695-5.756-1.132c-0.341-0.079-0.603-0.494-1.21-1.023
		c1.109-0.144,1.859-0.241,2.609-0.338c0.046-1.781,2.854-2.283,1.93-4.402c1.809-0.718,1.809-0.718,2.447-2.816
		c-1.444-1.625-3.354-2.22-5.468-2.291c-0.233-0.618-0.433-1.147-0.617-1.641c-0.33,0.018-0.612-0.051-0.712,0.053
		c-0.446,0.465-0.917,0.819-1.594,0.826c-0.797,0.006-1.05-0.336-1.199-1.809c2.633-0.231,5.265-0.462,7.853-0.689
		c0.21-1.381-1.657-1.149-1.425-2.342c-0.295-0.034-0.604-0.143-0.883-0.09c-1.605,0.302-3.234,0.238-4.852,0.291
		c-0.26,0.009-0.528-0.274-0.794-0.422c0.461-0.313,0.938-0.609,1.372-0.956c0.07-0.058,0.02-0.396-0.082-0.504
		c-0.084-0.088-0.441-0.092-0.48-0.023c-0.275,0.502-0.5,1.031-0.741,1.552c-1.196-0.516-2.392-1.034-4.148-1.792
		c1.403-0.157,2.198-0.245,2.997-0.334c-0.371-1.719-2.251-0.037-2.797-1.516c0.531-0.169,1.056-0.335,1.577-0.501
		c-2.051-2.498-2.051-2.498-3.927-3.424c0.992-0.58,1.093-0.617,2.415-0.454c0.909,0.113,1.811,0.284,2.743,0.433
		c0.351-0.887,0.332-1.399-0.567-1.81c-1.376-0.625-2.674-1.419-3.991-2.136c0.012-0.755,0.564-0.787,1.055-0.853
		c0.715-0.095,1.438-0.149,2.406-0.246c-0.533-0.796-0.986-1.521-1.489-2.209c-0.525-0.719-0.776-1.46-0.408-2.324l-0.066,0.065
		c0.276-0.098,0.667-0.11,0.814-0.307c1.605-2.125,2.923-3.13,4.869-3.766c0.548-0.179,0.991-0.204,1.441,0.161
		c0.388,0.313,0.739,0.264,1.048-0.127c0.369-0.468,0.406-0.932-0.027-1.38c-0.345-0.359-0.713-0.295-1.109-0.066
		c-0.262,0.152-0.557,0.245-0.938,0.407c-0.305-0.236-0.645-0.461-0.932-0.739c-0.212-0.203-0.354-0.474-0.495-0.669
		c0.374-1.866,1.979-0.626,2.961-1.296c0.371-2.599,0.278-5.221-0.59-8.052c0.18-0.306,0.692-0.798,0.749-1.338
		c0.25-2.356,0.639-4.749,0.44-7.082c-0.14-1.644,0.4-2.666,1.551-3.408c1.375-0.889,2.84-1.658,4.588-1.737
		c1.383-0.063,1.377-0.18,2.673-1.357c-0.292-0.133-0.557-0.252-0.819-0.375c-0.167-0.077-0.329-0.161-0.599-0.292
		c1.188-0.397,2.303-0.771,3.442-1.151c0.205-0.822,0.406-1.636,0.609-2.448c-0.416-0.1-0.78-0.187-1.244-0.297
		c0.142-0.324,0.208-0.775,0.38-0.821c1.396-0.37,2.801-0.763,4.23-0.958c2.564-0.35,5.173-0.434,7.716-0.891
		c1.494-0.269,2.935-0.97,4.339-1.606c2.096-0.949,4.238-1.547,6.547-1.503c0.1,0.612,0.178,1.101,0.314,1.944
		c0.541-0.93,0.93-1.598,1.46-2.514c-1.503-0.206-2.958-0.054-3.658-1.563c0.888-0.944,1.769-1.453,3.238-0.927
		c0.834,0.298,1.875-0.569,2.9-0.237c0.276,0.09,0.578,0.1,0.997,0.168c-0.215,0.751-0.405,1.417-0.651,2.283
		c0.958,0.168,1.812,0.317,2.695,0.473c-0.149,1.036-0.979,0.496-1.45,0.711c-0.551,0.251-1.128,0.446-1.892,0.742
		c0.871,0.752,1.703,0.516,2.42,0.437c2.758-0.299,5.533-0.41,8.28-0.832c0.701-0.108,1.439,0.037,2.156-0.003
		c1.014-0.057,2.031,0.092,2.892-0.83c0.424-0.456,1.298-0.604,1.99-0.675c1.849-0.191,3.668-0.595,5.574-0.364
		c0.968,0.118,1.999-0.47,3.017-0.559c3.621-0.316,7.245-0.617,10.875-0.795c1.631-0.08,3.215-0.324,4.799-0.658
		C95.074,8,95.386,7.899,95.675,7.937c1.911,0.253,3.857,0.719,5.302-1.154c0.181,0.243,0.363,0.486,0.622,0.83
		c1.691-0.496,3.583-0.059,5.442-0.854c-1.253-1.341-2.496,0.033-3.6-0.414c0.179-1.092,0.359-1.301,1.09-1.259
		c1.237,0.073,2.473,0.169,3.717,0.256c1.807,2.07,2.972,1.684,5.644-0.482c0.304,0.364,0.612,0.729,0.916,1.092
		c1.39-1.211,1.39-1.211,2.274-3.037c1.059-0.145,2.254-0.308,3.602-0.493c0.309,0.825,0.574,1.536,0.829,2.219
		c1.343-0.232,1.099-1.449,1.614-2.178c1.205-0.12,1.217,0.81,1.427,1.595c0.032,0.12,0.332,0.243,0.498,0.232
		c0.175-0.011,0.447-0.149,0.489-0.289c0.142-0.481,0.203-0.987,0.3-1.506c1.526-0.168,3.028-0.333,4.532-0.499
		c0.32,0.855,0.754,1.502,1.858,0.977c0.075-0.364,0.155-0.753,0.235-1.142c0.168-0.101,0.328-0.263,0.508-0.291
		c1.466-0.226,3.057,0.583,4.415-0.543c0.99,0.409,1.947,0.303,2.971,0.011c0.345-0.099,0.888,0.396,1.306,0.672
		c0.404,0.268,0.721,0.74,1.154,0.88c0.665,0.214,0.801-0.351,0.969-0.877c0.066-0.206,0.464-0.389,0.736-0.434
		c3.036-0.506,6.072-1.056,9.168-0.871c0.31,0.389,0.607,0.762,0.934,1.174c0.318-0.349,0.588-0.646,0.985-1.082
		c0.573,0.264,1.2,0.554,1.828,0.842L157.358,1.237z M45.162,119.433c-1.108,0.795-1.941,1.639-1.537,3.049
		c2.473,1.422,5.19-0.17,7.617,0.901c0.187,0.082,0.562-0.211,0.824-0.37c0.416-0.249,0.811-0.529,1.174-0.771
		c0.438,0.399,0.73,0.666,0.939,0.856c0.938-0.424,1.74-0.978,2.615-1.129c0.876-0.153,1.84,0.012,2.734,0.188
		c0.857,0.169,1.675,0.534,2.496,0.807c0.815-1.453,0.796-1.459,0.726-3.022C56.9,119.428,51.007,119.806,45.162,119.433z
		 M14.894,56.334c-1.632,0.067-2.077,1.332-2.974,1.88c-0.959-0.109-1.89-0.44-2.825,0.424c1.308,0.975,2.659,1.556,4.274,1.239
		c0.242-0.047,0.643-0.509,0.6-0.593C13.359,58.078,14.783,57.51,14.894,56.334z M8.943,54.405c0.865,0,1.676-0.092,2.454,0.027
		c0.739,0.113,1.443,0.448,2.208,0.7c0.115-1.46,0.115-1.46-2.343-2.885C10.237,52.586,8.701,52.336,8.943,54.405z M126.027,120.431
		c0.164,0.665,0.227,1.185,0.432,1.642c0.095,0.215,0.53,0.485,0.688,0.421c0.324-0.13,0.753-0.434,0.805-0.727
		c0.186-1.049-0.123-1.997-0.813-2.732c-1.151-0.153-2.141-0.112-3.036,0.75C124.741,119.999,125.302,120.187,126.027,120.431z
		 M265.32,108.894c-0.785-0.062-1.601-0.008-2.349-0.208c-1.927-0.517-3.849-0.127-5.771-0.089c-0.19,0.004-0.374,0.343-0.69,0.654
		C259.626,110.26,262.518,109.245,265.32,108.894z M145.275,127.146c-0.255-0.194-0.48-0.514-0.688-0.502
		c-1.929,0.11-3.856,0.263-5.778,0.452c-0.191,0.02-0.351,0.365-0.696,0.75c1.365,0.121,2.433,0.186,3.521-0.333
		C142.75,126.982,144.069,128.096,145.275,127.146z M349.546,35.125c0.844-0.66,1.451-1.448,2.556-1.544
		c0.146-0.012,0.241-0.622,0.398-1.063c-1.012-0.11-1.792-0.196-2.72-0.298C349.697,33.237,349.622,34.181,349.546,35.125z
		 M347.288,62.272c0.838,0.626,1.411,0.748,2.961,0.462c0.295-0.053,0.529-0.436,1.245-1.064
		C349.647,61.654,348.39,61.22,347.288,62.272z M39.817,120.159c-1.056-0.062-2.112-0.123-3.224-0.187
		C36.973,121.325,37.82,121.458,39.817,120.159z M112.588,121.037c-0.473-0.603-0.721-1.033-1.074-1.345
		c-0.598-0.528-1.201-0.224-1.647,0.236c-0.233,0.244-0.438,0.75-0.343,1.032c0.197,0.589,0.803,0.554,1.323,0.468
		C111.328,121.349,111.801,121.217,112.588,121.037z M73.721,122.638c-0.025,0.173-0.052,0.346-0.078,0.519
		c1.205,0,2.42,0.082,3.615-0.032c0.654-0.063,0.729-0.59,0.23-1.15C76.254,122.193,74.987,122.416,73.721,122.638z
		 M101.194,121.526c0.204,2.091,0.204,2.091,0.733,1.997c0.306-0.554,0.641-1.16,0.939-1.701
		C102.296,121.02,101.766,121.081,101.194,121.526z M350.528,43.49c1.056,0.694,2.017,0.239,2.973,0.139
		C352.556,43.251,351.608,43.013,350.528,43.49z M18.084,58.661c1.069,0.44,1.833,0.839,2.762,0.595
		c0.154-0.041,0.329-0.263,0.357-0.424c0.025-0.152-0.095-0.45-0.212-0.486C20.12,58.077,19.247,58.029,18.084,58.661z
		 M145.996,126.872c2.034,0.638,2.034,0.638,2.578-0.26C147.846,126.079,147.143,126.083,145.996,126.872z M133.781,126.755
		c-0.184,0.32-0.462,0.592-0.415,0.783c0.054,0.217,0.379,0.461,0.623,0.515c0.434,0.093,0.824-0.444,0.583-0.779
		C134.421,127.063,134.115,126.964,133.781,126.755z M347.949,35.42c0.252-0.425,0.433-0.632,0.493-0.87
		c0.036-0.148-0.111-0.343-0.175-0.516c-0.205,0.137-0.53,0.239-0.583,0.42C347.624,34.662,347.804,34.94,347.949,35.42z
		 M18.014,67.371c0.009-0.089,0.018-0.178,0.027-0.268c-0.343-0.059-0.688-0.169-1.033-0.163c-0.37,0.007-0.737,0.123-1.106,0.192
		c0.018,0.079,0.036,0.159,0.054,0.238C16.643,67.371,17.327,67.371,18.014,67.371z M113.189,127.255
		c-0.35,0.198-0.59,0.334-0.831,0.472c0.169,0.209,0.315,0.561,0.512,0.59c0.23,0.035,0.503-0.209,0.757-0.332
		C113.492,127.764,113.36,127.543,113.189,127.255z M98.297,128.471c-0.069-0.165-0.137-0.329-0.206-0.494
		c-0.146,0.083-0.388,0.144-0.41,0.254c-0.032,0.147,0.103,0.331,0.165,0.499C97.996,128.643,98.147,128.558,98.297,128.471z
		 M26.396,91.184c-0.161,0.042-0.417,0.041-0.456,0.134c-0.061,0.139,0.03,0.345,0.057,0.522c0.223-0.066,0.446-0.132,0.668-0.198
		C26.574,91.49,26.485,91.338,26.396,91.184z M352.39,39.558c-0.116-0.268-0.186-0.43-0.255-0.591
		c-0.206,0.141-0.438,0.259-0.601,0.44c-0.041,0.046,0.168,0.43,0.212,0.42C351.969,39.78,352.178,39.656,352.39,39.558z
		 M351.291,41.85c0.099,0.158,0.174,0.42,0.301,0.449c0.15,0.034,0.348-0.132,0.524-0.212c-0.167-0.216-0.334-0.431-0.502-0.646
		C351.508,41.577,351.399,41.713,351.291,41.85z M52.096,10.048C51.914,9.813,51.792,9.657,51.67,9.5
		c-0.158,0.228-0.426,0.448-0.441,0.684c-0.01,0.177,0.305,0.374,0.477,0.561C51.842,10.501,51.979,10.258,52.096,10.048z
		 M350.491,39.38c-0.15-0.265-0.241-0.542-0.316-0.538c-0.238,0.012-0.469,0.13-0.703,0.207c0.099,0.147,0.175,0.391,0.298,0.418
		C349.978,39.514,350.216,39.422,350.491,39.38z M64.968,122.712c0.081,0.03,0.183,0.104,0.238,0.079
		c0.063-0.03,0.086-0.147,0.127-0.227c-0.079-0.029-0.18-0.101-0.236-0.075C65.033,122.52,65.009,122.634,64.968,122.712z
		 M15.841,61.563c0.425,0.09,0.667,0.185,0.9,0.166c0.077-0.006,0.204-0.313,0.179-0.46c-0.023-0.129-0.293-0.344-0.338-0.318
		C16.36,61.075,16.179,61.269,15.841,61.563z M12.229,66.254c0.152,0.21,0.248,0.452,0.342,0.451
		c0.166-0.001,0.41-0.113,0.472-0.247c0.062-0.132-0.064-0.35-0.108-0.529C12.705,66.034,12.477,66.14,12.229,66.254z
		 M51.491,12.469c-0.106,0.121-0.221,0.254-0.335,0.385c0.072,0.052,0.158,0.157,0.218,0.144c0.163-0.036,0.317-0.123,0.473-0.188
		C51.729,12.697,51.611,12.582,51.491,12.469z M139.245,2.326c-0.236,0.175-0.49,0.285-0.485,0.373
		c0.021,0.257,0.145,0.506,0.23,0.758c0.129-0.104,0.357-0.198,0.369-0.313C139.385,2.896,139.296,2.638,139.245,2.326z
		 M119.965,4.481c-0.132,0.075-0.262,0.149-0.394,0.225c0.044,0.077,0.12,0.225,0.128,0.221c0.146-0.066,0.285-0.149,0.426-0.229
		C120.072,4.626,120.018,4.554,119.965,4.481z M66.684,122.712c0.029-0.078,0.06-0.157,0.092-0.235
		c-0.069-0.026-0.181-0.091-0.196-0.071c-0.054,0.057-0.087,0.149-0.087,0.227C66.492,122.66,66.616,122.686,66.684,122.712z
		 M351.494,35.098c-0.063,0.069-0.173,0.135-0.176,0.206c-0.002,0.07,0.104,0.145,0.162,0.217c0.091-0.107,0.184-0.213,0.276-0.319
		C351.669,35.167,351.583,35.133,351.494,35.098z M350.712,24.68c-0.038-0.065-0.065-0.166-0.123-0.187
		c-0.066-0.025-0.159,0.018-0.242,0.031c0.058,0.098,0.113,0.196,0.17,0.294C350.581,24.771,350.646,24.726,350.712,24.68z
		 M348.352,66.512c0.068,0.055,0.14,0.16,0.204,0.155c0.327-0.026,0.343-0.134,0.039-0.248
		C348.532,66.396,348.435,66.478,348.352,66.512z M345.379,34.252l-0.194-0.011l0.084,0.211L345.379,34.252z M191.316,118.783
		c-0.078,0.057-0.156,0.114-0.234,0.171c0.06,0.073,0.12,0.146,0.181,0.22c0.103-0.096,0.206-0.191,0.306-0.287
		C191.484,118.852,191.4,118.817,191.316,118.783z M183.812,118.211c-0.069,0.061-0.137,0.12-0.204,0.18
		c0.14,0.087,0.275,0.188,0.426,0.25c0.028,0.013,0.119-0.121,0.182-0.188C184.08,118.373,183.946,118.291,183.812,118.211z"/>
	<path fill-rule="evenodd" clip-rule="evenodd" d="M93.071,136.085c-0.603,0-1.207,0.001-1.81,0
		c-0.304-0.001-0.789-0.133-0.883,0.006c-1.594,2.327-3.951,0.631-5.896,1.103c-1.25,0.304-2.635,0.042-3.959,0.054
		c-0.411,0.003-0.841,0.178-1.231,0.103c-2.649-0.502-5.331-0.078-7.998-0.333c-3.069-0.295-6.174-0.148-9.257-0.3
		c-1.605-0.078-3.211-0.314-4.821-0.417c-0.515-0.033-1.088-0.261-1.533-0.108c-3.565,1.231-7.162-0.295-10.727,0.187
		c-2.034-1.073-4.152-0.564-6.291-0.474c-1.724,0.073-3.374-0.695-5.206-1.334c0.371-0.389,0.54-0.729,0.749-0.756
		c0.709-0.092,1.488-0.254,2.14-0.057c1.162,0.354,2.229,0.177,3.363-0.044c1.001-0.196,2.041-0.226,3.066-0.261
		c1.443-0.051,2.89-0.037,4.334-0.053c0.313-0.003,0.622-0.006,0.931-0.028c1.005-0.072,1.67,1.089,2.849,0.648
		c0.839-0.314,1.824-0.292,2.746-0.319c1.034-0.028,2.071,0.063,3.106,0.095c0.519,0.015,1.241-0.203,1.521,0.059
		c1.538,1.435,3.239,0.416,4.71,0.187c2.241-0.35,4.395-0.075,6.455,0.434c1.235,0.304,2.402,0.309,3.609,0.437
		c3.073,0.325,6.189-0.273,9.237,0.499c0.278,0.07,0.611-0.075,0.922-0.121c1.293-0.191,2.537-0.694,3.899-0.47
		c1.223,0.202,2.474,0.232,3.7,0.411c0.807,0.116,1.594,0.362,2.39,0.55C93.148,135.884,93.109,135.984,93.071,136.085z"/>
	<path fill-rule="evenodd" clip-rule="evenodd" d="M142.336,134.879c1.068-0.951,2.189-1.189,3.328-1.261
		c3.621-0.229,7.246-0.42,10.872-0.592c1.124-0.054,1.153,0.022,1.472,1.595c-1.831,0.258-3.648,0.624-5.484,0.749
		c-2.881,0.196-5.773,0.222-8.662,0.334c-2.734,0.105-5.469,0.204-8.203,0.35c-2.674,0.142-5.297,0.716-8.016,0.579
		c-3.24-0.164-6.507-0.132-9.743,0.096c-2.467,0.175-4.913,0.649-7.408,0.598c-2.139-0.045-4.224-0.33-6.237-0.808
		c-0.048-0.919,0.427-1.189,0.953-1.218c2.271-0.123,4.543-0.239,6.817-0.26c3.73-0.036,7.465,0.052,11.194-0.005
		c1.652-0.026,3.301-0.333,4.952-0.417c3.003-0.15,6.007-0.233,9.011-0.335c0.51-0.018,1.1,0.186,1.517-0.008
		C140.008,133.666,141.098,134.097,142.336,134.879z"/>
	<path fill-rule="evenodd" clip-rule="evenodd" d="M224.206,130.355c-1.718,0.456-3.216,0.738-4.751,0.655
		c-3.465-0.188-6.9-0.03-10.33,0.542c-0.893,0.149-1.897,0.139-2.753-0.125c-1.269-0.394-2.397-0.41-3.567,0.223
		c-0.225,0.122-0.65,0.053-0.889-0.087c-0.214-0.126-0.354-0.461-0.411-0.729c-0.028-0.131,0.179-0.443,0.308-0.461
		c0.599-0.082,1.237-0.228,1.805-0.098c3.104,0.706,6.15,0.466,9.188-0.368c0.583-0.16,1.211-0.299,1.803-0.255
		c3.052,0.227,6.107,0.083,9.161,0.162C223.83,129.813,223.889,129.954,224.206,130.355z"/>
	<path fill-rule="evenodd" clip-rule="evenodd" d="M180.698,131.802c0.521-0.129,1.077-0.35,1.649-0.394
		c1.644-0.125,3.294-0.248,4.939-0.231c0.781,0.008,1.586,0.552,2.33,0.458c0.74-0.094,1.292-0.854,2.225-0.827
		c2.168,0.06,4.338-0.041,6.506-0.06c0.306-0.003,0.662,0.011,0.903,0.162c0.206,0.131,0.434,0.51,0.38,0.705
		c-0.057,0.205-0.488,0.491-0.666,0.438c-0.377-0.114-0.67-0.487-1.044-0.636c-0.369-0.145-1.026-0.337-1.16-0.177
		c-1.146,1.373-2.724,0.381-4.056,0.798c-1.348,0.424-2.853,0.367-4.292,0.47c-2.229,0.161-4.46,0.299-6.692,0.4
		C181.188,132.931,180.722,132.688,180.698,131.802z"/>
	<path fill-rule="evenodd" clip-rule="evenodd" d="M9.442,46.871c-0.491,0.3-0.984,0.601-1.531,0.936
		C7.893,48.53,8.3,48.444,8.863,48.251c0.196-0.068,0.482,0.129,0.728,0.205c-0.114,0.267-0.154,0.654-0.357,0.777
		c-0.512,0.312-1.127,0.456-1.644,0.763c-0.434,0.258-0.785,0.653-1.252,1.054c-0.707-0.198-1.393-0.391-2.176-0.61
		c0-0.434-0.172-1.03,0.029-1.21c1.253-1.121,1.612-3.554,4.108-2.902l-0.129-0.079c0.199,0.705,0.871,0.509,1.342,0.701
		L9.442,46.871z"/>
	<path fill-rule="evenodd" clip-rule="evenodd" d="M6.712,84.511c-0.354-1.273-0.6-2.147-0.839-3.008
		c1.265-0.555,1.33-0.552,1.645,0.268c0.14,0.364,0.202,0.758,0.314,1.196c1.02-0.048,1.995-0.33,2.791-0.065
		c0.795,0.263,1.406,1.073,2.227,1.749C10.649,85.447,8.834,83.765,6.712,84.511z"/>
	<path fill-rule="evenodd" clip-rule="evenodd" d="M25.705,134.423c1.941-0.977,3.342-0.859,4.725-0.589
		c0.348,0.718,0.416,1.392-0.418,1.541c-0.897,0.161-1.848,0.153-2.757,0.054C26.843,135.383,26.475,134.942,25.705,134.423z"/>
	<path fill-rule="evenodd" clip-rule="evenodd" d="M58.969,6.63c0.269,1.19,0.583,2.373,0.769,3.576
		c0.038,0.265-0.327,0.724-0.619,0.877c-0.451,0.236-1.009-0.227-0.985-0.795c0.049-1.225,0.149-2.448,0.23-3.672
		C58.565,6.621,58.768,6.625,58.969,6.63z"/>
	<path fill-rule="evenodd" clip-rule="evenodd" d="M376.489,38.975c-0.179,0.093-0.359,0.271-0.532,0.264
		c-1.115-0.038-2.227-0.116-3.372-0.182c0-0.397,0-0.676,0-1.114c1.376,0.189,2.655,0.366,3.936,0.541
		C376.508,38.648,376.5,38.812,376.489,38.975z"/>
	<path fill-rule="evenodd" clip-rule="evenodd" d="M62.564,10.387c-0.182-0.56-0.336-0.836-0.348-1.12
		c-0.022-0.499,0.042-1.002,0.091-1.858c0.867,0.675,1.471,1.145,2.029,1.579C64.318,10.152,63.365,9.95,62.564,10.387z"/>
	<path fill-rule="evenodd" clip-rule="evenodd" d="M165.435,133.344c0.563,0.372,0.677-0.209,0.929-0.454
		c0.68-0.662,1.451-0.587,2.426-0.407c-0.066,0.492-0.006,0.955-0.203,1.233c-0.202,0.281-0.641,0.451-1.008,0.546
		c-0.938,0.245-1.536-0.349-2.105-0.963L165.435,133.344z"/>
	<path fill-rule="evenodd" clip-rule="evenodd" d="M8.3,46.328c-0.168-0.254-0.332-0.508-0.648-0.988
		c0.32-0.247,0.653-0.693,1.062-0.779c0.659-0.137,1.369-0.037,2.071-0.037c0.303,1.346-1.227,0.987-1.348,1.791l0.084-0.07
		c-0.45,0.001-0.899,0.003-1.35,0.004L8.3,46.328z"/>
	<path fill-rule="evenodd" clip-rule="evenodd" d="M165.473,133.299c-0.427,0.21-0.86,0.411-1.281,0.634
		c-0.605,0.32-1.089,0.196-1.472-0.372c-0.002-0.003-0.018,0.091-0.018,0.091c0.139-0.853,0.647-1.202,1.461-0.95
		c0.439,0.137,0.829,0.441,1.257,0.655C165.435,133.344,165.473,133.299,165.473,133.299z"/>
	<path fill-rule="evenodd" clip-rule="evenodd" d="M23.858,90.243c-1.116,0.079-1.706,0.12-2.687,0.189
		C22.08,89.457,22.667,89.383,23.858,90.243z"/>
	<path fill-rule="evenodd" clip-rule="evenodd" d="M177.812,131.72c0.125,0.144,0.487,0.458,0.446,0.529
		c-0.243,0.402-0.562,0.771-0.912,1.086c-0.052,0.047-0.543-0.209-0.616-0.405C176.507,132.326,176.946,131.815,177.812,131.72z"/>
	<path fill-rule="evenodd" clip-rule="evenodd" d="M7.825,75.896c-0.393,0.065-0.786,0.181-1.179,0.179
		c-0.27-0.002-0.538-0.168-0.851-0.275c1.145-0.982,1.07-0.838,2.015,0.055L7.825,75.896z"/>
	<path fill-rule="evenodd" clip-rule="evenodd" d="M102.57,136.188c-1.332-0.091-2.027-0.138-3.125-0.213
		C100.596,135.207,101.271,135.581,102.57,136.188z"/>
	<path fill-rule="evenodd" clip-rule="evenodd" d="M173.701,131.938c0.521,1.133,0.521,1.133-0.521,1.752
		C173.365,133.069,173.517,132.562,173.701,131.938z"/>
	<path fill-rule="evenodd" clip-rule="evenodd" d="M343.227,82.23c-0.486,0-0.973,0-1.46,0c0.001-0.017,0.001-0.033,0.002-0.05
		c0.487,0,0.974,0,1.46,0C343.228,82.198,343.228,82.214,343.227,82.23z"/>
	<path fill-rule="evenodd" clip-rule="evenodd" d="M0.245,68.456C0.104,68.686,0.074,68.809,0,68.843
		c-0.326,0.153-0.667,0.28-1.001,0.417c-0.058-0.239-0.207-0.658-0.153-0.686c0.313-0.163,0.672-0.245,1.02-0.327
		C-0.067,68.231,0.028,68.332,0.245,68.456z"/>
	<path fill-rule="evenodd" clip-rule="evenodd" d="M362.53,42.917c-0.97,0.151-1.604,0.25-2.58,0.403
		C360.83,42.392,361.515,42.711,362.53,42.917z"/>
	<path fill-rule="evenodd" clip-rule="evenodd" d="M227.767,130.126c0.282-0.016,0.565-0.032,0.849-0.046
		c-0.019,0.081-0.027,0.228-0.057,0.232c-0.256,0.038-0.516,0.051-0.773,0.071C227.778,130.297,227.772,130.211,227.767,130.126z"/>
	<path fill-rule="evenodd" clip-rule="evenodd" d="M363.401,48.638c-0.54,0.03-1.078,0.061-1.617,0.092
		c-0.003-0.123-0.005-0.245-0.007-0.367c0.537,0,1.073,0,1.61,0C363.392,48.455,363.396,48.546,363.401,48.638z"/>
	<path fill-rule="evenodd" clip-rule="evenodd" d="M354.285,11.022c-0.31,0-0.581,0-0.853,0c0.118-0.049,0.236-0.143,0.354-0.14
		C353.941,10.887,354.094,10.966,354.285,11.022z"/>
	<path fill-rule="evenodd" clip-rule="evenodd" d="M69.152,8.491c0.108,0.123,0.217,0.247,0.323,0.37
		c-0.199,0.126-0.398,0.253-0.599,0.38c-0.06-0.152-0.203-0.346-0.155-0.447C68.787,8.656,69.001,8.588,69.152,8.491z"/>
	<path fill-rule="evenodd" clip-rule="evenodd" d="M241.395,1.223c-0.099,0.14-0.197,0.279-0.295,0.418
		c-0.104-0.134-0.227-0.257-0.301-0.405c-0.023-0.047,0.113-0.236,0.131-0.23C241.09,1.061,241.242,1.146,241.395,1.223z"/>
	<path fill-rule="evenodd" clip-rule="evenodd" d="M241.789,119.398c0.027,0.174,0.063,0.349,0.064,0.524
		c0,0.023-0.176,0.049-0.271,0.073c-0.023-0.181-0.054-0.363-0.061-0.546C241.521,119.436,241.694,119.416,241.789,119.398z"/>
	<path fill-rule="evenodd" clip-rule="evenodd" d="M372.279,43.52c0.173,0.078,0.407,0.116,0.49,0.249
		c0.057,0.089-0.106,0.313-0.171,0.476c-0.175-0.073-0.422-0.103-0.501-0.233C372.041,43.918,372.212,43.688,372.279,43.52z"/>
	<path fill-rule="evenodd" clip-rule="evenodd" d="M356.669,26.034c0.134-0.284,0.214-0.459,0.296-0.634
		c0.209,0.188,0.456,0.349,0.604,0.576c0.048,0.071-0.174,0.317-0.272,0.483C357.082,26.314,356.868,26.169,356.669,26.034z"/>
	<path fill-rule="evenodd" clip-rule="evenodd" d="M357.023,40.069c0.123,0.174,0.368,0.371,0.36,0.556
		c-0.008,0.146-0.326,0.279-0.506,0.418c-0.16-0.23-0.32-0.459-0.48-0.687C356.57,40.277,356.741,40.198,357.023,40.069z"/>
	<path fill-rule="evenodd" clip-rule="evenodd" d="M350.873,10.814c0.04-0.083,0.062-0.212,0.125-0.236
		c0.062-0.025,0.165,0.057,0.251,0.092c-0.04,0.084-0.063,0.214-0.127,0.239C351.062,10.935,350.957,10.85,350.873,10.814z"/>
	<path fill-rule="evenodd" clip-rule="evenodd" d="M3.221,65.71c0.097,0.27,0.182,0.503,0.266,0.736
		c-0.177,0.059-0.407,0.212-0.517,0.15c-0.135-0.076-0.229-0.335-0.22-0.508C2.756,65.979,2.991,65.885,3.221,65.71z"/>
	<path fill-rule="evenodd" clip-rule="evenodd" d="M55.719,8.468c0.133-0.119,0.267-0.237,0.401-0.356
		c0.05,0.084,0.158,0.182,0.143,0.249c-0.044,0.178-0.139,0.342-0.214,0.512C55.939,8.738,55.828,8.603,55.719,8.468z"/>
	<path fill-rule="evenodd" clip-rule="evenodd" d="M368.08,30.042c0.099,0.146,0.195,0.292,0.292,0.437
		c-0.164,0.025-0.331,0.074-0.493,0.061c-0.072-0.004-0.135-0.132-0.201-0.204C367.812,30.238,367.946,30.141,368.08,30.042z"/>
	<path fill-rule="evenodd" clip-rule="evenodd" d="M367.022,50.816c0.057,0.063,0.114,0.126,0.172,0.189
		c-0.135,0.109-0.27,0.218-0.402,0.328c-0.095-0.121-0.188-0.241-0.281-0.362C366.681,50.919,366.853,50.868,367.022,50.816z"/>
	<path fill-rule="evenodd" clip-rule="evenodd" d="M359.652,26.069c-0.181,0.015-0.365,0.03-0.549,0.044
		c0.004-0.151,0.008-0.301,0.013-0.452c0.179,0.041,0.362,0.069,0.532,0.135C359.679,25.809,359.652,25.974,359.652,26.069z"/>
	<path fill-rule="evenodd" clip-rule="evenodd" d="M342.112,80.84c0.078,0.05,0.155,0.1,0.231,0.149
		c-0.092,0.029-0.188,0.089-0.273,0.079c-0.082-0.011-0.157-0.093-0.235-0.144C341.927,80.897,342.02,80.868,342.112,80.84z"/>
	<path fill-rule="evenodd" clip-rule="evenodd" d="M23.907,18.553c-0.021-0.075-0.076-0.166-0.051-0.221
		c0.032-0.07,0.126-0.112,0.196-0.166c0.035,0.122,0.07,0.245,0.105,0.367C24.073,18.54,23.989,18.546,23.907,18.553z"/>
	<path fill-rule="evenodd" clip-rule="evenodd" d="M17.096,81.48c0.097,0.133,0.191,0.266,0.288,0.399
		c-0.076,0.053-0.212,0.161-0.222,0.15c-0.121-0.13-0.228-0.276-0.335-0.419C16.915,81.567,17.006,81.523,17.096,81.48z"/>
	<path fill-rule="evenodd" clip-rule="evenodd" d="M7.811,75.854c0.202,0.02,0.403,0.05,0.605,0.057c0.1,0.003,0.2-0.038,0.301-0.06
		c-0.102-0.032-0.208-0.099-0.307-0.09c-0.196,0.021-0.39,0.082-0.585,0.13C7.825,75.896,7.811,75.854,7.811,75.854z"/>
	<path fill-rule="evenodd" clip-rule="evenodd" d="M7.241,52.297c-0.272,0.046-0.544,0.123-0.814,0.121
		c-0.093-0.001-0.182-0.205-0.271-0.316c0.083-0.03,0.186-0.106,0.248-0.081c0.257,0.103,0.504,0.237,0.761,0.35
		C7.175,52.362,7.241,52.297,7.241,52.297z"/>
	<path fill-rule="evenodd" clip-rule="evenodd" d="M3.937,81.524c0.172-0.055,0.343-0.128,0.52-0.147
		c0.03-0.003,0.085,0.222,0.128,0.342c-0.181,0.004-0.366,0.02-0.546,0.002C3.998,81.717,3.969,81.593,3.937,81.524z"/>
	<path fill-rule="evenodd" clip-rule="evenodd" d="M0.289,60.592c0.061-0.054,0.12-0.109,0.182-0.163
		c0.104,0.16,0.209,0.321,0.313,0.482c-0.084,0.045-0.167,0.09-0.25,0.135C0.452,60.895,0.371,60.743,0.289,60.592z"/>
	<path fill-rule="evenodd" clip-rule="evenodd" d="M39.458,7.217c0.084,0.023,0.169,0.048,0.253,0.072
		c-0.06,0.158-0.084,0.353-0.193,0.457c-0.053,0.05-0.268-0.069-0.409-0.11C39.225,7.496,39.341,7.356,39.458,7.217z"/>
	<path fill-rule="evenodd" clip-rule="evenodd" d="M162.702,133.652c0,0,0.016-0.095,0.018-0.091
		c-0.252-0.068-0.505-0.139-0.332-0.091C162.237,133.383,162.47,133.518,162.702,133.652z"/>
	<path fill-rule="evenodd" clip-rule="evenodd" d="M103.928,3.485c0.077-0.048,0.209-0.151,0.225-0.136
		c0.109,0.108,0.197,0.241,0.293,0.365c-0.157,0.018-0.313,0.044-0.469,0.038C103.957,3.75,103.944,3.578,103.928,3.485z"/>
	<path fill-rule="evenodd" clip-rule="evenodd" d="M368.717,43.437c0.085,0.033,0.208,0.045,0.245,0.107
		c0.028,0.047-0.05,0.16-0.081,0.242c-0.083-0.038-0.192-0.057-0.24-0.122C368.613,43.626,368.688,43.515,368.717,43.437z"/>
	<path fill-rule="evenodd" clip-rule="evenodd" d="M109.981,5.314c0.083-0.038,0.164-0.076,0.247-0.114
		c0.027,0.124,0.057,0.248,0.086,0.372c-0.09-0.016-0.195-0.011-0.269-0.056C110.002,5.487,110.002,5.384,109.981,5.314z"/>
	<path fill-rule="evenodd" clip-rule="evenodd" d="M157.44,1.315c0.125-0.133,0.253-0.267,0.38-0.4
		c-0.152,0.109-0.304,0.217-0.46,0.324C157.358,1.237,157.44,1.315,157.44,1.315z"/>
	<path fill-rule="evenodd" clip-rule="evenodd" d="M22.949,120.714c-0.069-0.024-0.139-0.047-0.207-0.07
		c0.095-0.055,0.19-0.109,0.287-0.163C23.003,120.559,22.977,120.637,22.949,120.714z"/>
	<path fill-rule="evenodd" clip-rule="evenodd" d="M14.033,75.604c0.058-0.021,0.112-0.041,0.168-0.061
		c0.019,0.075,0.051,0.151,0.048,0.225c-0.003,0.023-0.106,0.039-0.163,0.059C14.067,75.753,14.051,75.677,14.033,75.604z"/>
	<path fill-rule="evenodd" clip-rule="evenodd" d="M9.437,46.314c0.185,0.154,0.37,0.309,0.555,0.464
		c-0.183,0.03-0.366,0.062-0.549,0.093l0.07,0.079c0.002-0.235,0.006-0.47,0.008-0.706L9.437,46.314z"/>
	<polygon fill-rule="evenodd" clip-rule="evenodd" points="66.297,9.22 66.071,9.099 66.322,9.031 	"/>
	<path fill-rule="evenodd" clip-rule="evenodd" d="M358.395,34.094c-0.136,0.036-0.205,0.056-0.275,0.075
		c-0.017-0.063-0.032-0.127-0.049-0.19C358.16,34.01,358.253,34.043,358.395,34.094z"/>
	<path fill-rule="evenodd" clip-rule="evenodd" d="M370.059,67.811c-0.026,0.065-0.054,0.129-0.079,0.193
		c-0.055-0.091-0.11-0.182-0.165-0.273C369.896,67.757,369.978,67.784,370.059,67.811z"/>
	<path fill-rule="evenodd" clip-rule="evenodd" d="M372.906,52.843c0.078-0.039,0.157-0.108,0.234-0.105
		c0.067,0.003,0.132,0.086,0.197,0.134C373.194,52.863,373.05,52.854,372.906,52.843z"/>
	<path fill-rule="evenodd" clip-rule="evenodd" d="M359.586,74.104c-0.073-0.029-0.146-0.057-0.22-0.086
		c0.035-0.078,0.056-0.172,0.112-0.225c0.021-0.021,0.185,0.045,0.188,0.083C359.675,73.947,359.615,74.027,359.586,74.104z"/>
	<polygon fill-rule="evenodd" clip-rule="evenodd" points="337.499,87.68 337.503,87.884 337.27,87.782 	"/>
	<path fill-rule="evenodd" clip-rule="evenodd" d="M331.833,79.114c-0.07,0.021-0.142,0.057-0.212,0.055
		c-0.022-0.001-0.043-0.1-0.065-0.153c0.07-0.019,0.142-0.054,0.211-0.048C331.792,78.969,331.811,79.062,331.833,79.114z"/>
	<path fill-rule="evenodd" clip-rule="evenodd" d="M45.826,121.362c0.086,0.158,0.26,0.335,0.231,0.468
		c-0.029,0.134-0.262,0.224-0.404,0.333c-0.089-0.155-0.276-0.337-0.244-0.46C45.446,121.563,45.679,121.474,45.826,121.362z"/>
</g>
</svg>
