<?xml version="1.0" encoding="utf-8"?>
<!-- Generator: Adobe Illustrator 16.0.0, SVG Export Plug-In . SVG Version: 6.00 Build 0)  -->
<!DOCTYPE svg PUBLIC "-//W3C//DTD SVG 1.1//EN" "http://www.w3.org/Graphics/SVG/1.1/DTD/svg11.dtd">
<svg version="1.1" id="圖層_1" xmlns="http://www.w3.org/2000/svg" xmlns:xlink="http://www.w3.org/1999/xlink" x="0px" y="0px"
	 width="245.021px" height="121.359px" viewBox="0 0 245.021 121.359" enable-background="new 0 0 245.021 121.359"
	 xml:space="preserve">
<g>
	<path fill="#FFFFFF" d="M101.437,119.877c-0.049-0.603-0.097-1.206-0.153-1.939c-1.214,0.248-2.506,0.287-2.646,1.927
		c-3.104,0.583-6.072,0.436-9.019,0.557c-2.151,0.09-4.304-0.062-6.453,0.333c-1.205,0.222-2.479,0.031-3.716,0.123
		c-4.338,0.324-8.68,0.531-13.03,0.475c-3.1-0.04-6.198-0.12-9.299-0.147c-2.09-0.019-4.182,0.064-6.272,0.031
		c-1.081-0.017-2.16-0.191-3.24-0.287c-0.542-0.047-1.114-0.204-1.618-0.083c-0.935,0.223-1.652,0.099-2.29-0.669
		c-0.359-0.433-0.857-0.19-1.283,0.005c-0.014-0.161-0.035-0.313-0.057-0.468c0.031,0.143,0.061,0.287,0.09,0.429
		c-0.027,0.195-0.031,0.552-0.084,0.559c-0.379,0.053-0.785,0.109-1.147,0.021c-0.672-0.167-1.318-0.434-2.002-0.666
		c-0.299,0.206-0.61,0.422-0.948,0.655c-0.397-0.203-0.79-0.406-1.251-0.646c-0.283,0.335-0.525,0.621-0.828,0.979
		c-0.542-0.146-1.123-0.307-1.681-0.456c-0.274-1.533-0.258-1.56,0.972-1.391c-0.043-0.891-0.361-1.478-1.502-1.535
		c-0.127,0.873-0.224,1.693-0.388,2.502c-0.027,0.141-0.355,0.328-0.524,0.309c-0.184-0.021-0.4-0.229-0.491-0.41
		c-0.097-0.193-0.075-0.453-0.086-0.684c-0.011-0.281-0.003-0.562-0.304-0.914c-0.254,0.488-0.509,0.977-0.881,1.69
		c-0.587-0.809-1.021-1.409-1.466-2.021c0.24-0.488,0.443-0.899,0.711-1.44c-0.271-0.433-0.579-0.932-0.896-1.439
		c-0.232,0.173-0.436,0.245-0.456,0.353c-0.117,0.601-0.192,1.209-0.279,1.789c-0.593,0.121-0.545-0.252-0.569-0.547
		c-0.031-0.376-0.027-0.756-0.089-1.126c-0.013-0.075-0.248-0.126-0.389-0.157c-0.058-0.012-0.175,0.041-0.192,0.093
		c-0.159,0.423-0.303,0.852-0.439,1.25c-0.612,0.278-0.854-0.277-1.242-0.467l0.01,0.037c0.382-0.933,0.787-1.855,1.133-2.802
		c0.208-0.572-0.054-1.057-0.577-1.569c-0.275,0.282-0.548,0.563-0.845,0.868c-0.313-1.397-0.24-1.476-1.22-2.397
		c-0.71-0.669-0.438-1.632-0.905-2.244c-0.555-0.406-0.725,0.183-1.141,0.295c-0.32-0.334-0.652-0.715-1.021-1.055
		c-0.379-0.349-0.792-0.656-1.193-0.982c-0.242,0.184-0.484,0.367-0.749,0.568c-0.672-0.569-1.11-1.238-0.924-2.177
		c0.194-0.984-0.077-1.999,0.297-2.997c0.156-0.416-0.157-1.009-0.278-1.631c-0.575,0.036-1.021,0.063-1.539,0.096
		c0-0.201,0.033-0.421-0.009-0.622c-0.041-0.198-0.16-0.382-0.244-0.57c-0.197,0.093-0.503,0.137-0.572,0.289
		c-0.256,0.549-0.432,1.135-0.6,1.603c-0.92,0.85-1.621-0.358-2.445-0.162c0.232,2.861,0.232,2.861-0.484,4.812
		c-0.585-0.381-1.15-0.748-1.717-1.118l0.017,0.032c0.451-0.193,0.743-0.496,0.877-0.997c0.113-0.425,0.342-0.819,0.564-1.333
		c-0.259-0.325-0.729-0.688-0.865-1.149c-0.14-0.478,0.043-1.052,0.092-1.583c0.015-0.151,0.059-0.303,0.078-0.457
		c0.176-1.331-0.152-1.698-1.616-1.822c-0.14-0.012-0.278-0.046-0.555-0.095c0.628-0.82,1.195-1.563,2.179-1.915
		c0.344-0.125,0.61-0.461,0.915-0.698c0.011,0.698,0.007,1.399,0.039,2.098c0.032,0.704-0.288,1.463,0.435,2.538
		c0.086-1.577,0.164-2.716,0.202-3.856c0.017-0.466-0.308-0.67-0.741-0.721c0.56-0.357,1.115-0.717,1.68-1.086
		c1.041-0.006,1.566,0.5,1.563,1.547c-0.002,0.461-0.033,0.932,0.049,1.379c0.063,0.34,0.282,0.65,0.421,0.946
		c0.805-0.154,1.141-0.741,0.987-1.192c-0.381-1.133,0.172-2.102,0.297-3.147c-0.011-1.367,0.971-2.646,0.438-4.138
		c-1.275,1.367-0.973,2.756-0.426,4.162c-0.541-0.271-1.085-0.543-1.679-0.839c-0.601,0.483-1.14,0.917-1.68,1.353
		c0.471-1.048,0.627-2.309,2.078-2.581c-0.687-0.896-0.687-0.896-1.822-1.3c-0.348,1.011-0.692,2.021-1.025,2.987
		c-0.877,0.227-1.368-0.148-1.465-0.841c-0.138-0.992-0.135-2.006-0.154-3.01c-0.009-0.453,0.149-0.924-0.347-1.313
		c-0.408,0.725-0.448,1.659-1.338,2.293c-0.29-0.978,0.431-1.751,0.194-2.561c-1.166,0.942-1.246,1.064-2.537,3.866
		c-0.297-0.843-0.565-1.603-0.883-2.497c-0.536,0.276-0.919,0.478-1.301,0.674c-1.787-1.646-1.739-1.88,0.719-2.842
		c0.039-0.533,0.083-1.128,0.127-1.735c-0.582-0.299-1.1-0.495-1.535-0.807c-0.906-0.646-1.521-1.406-1.637-2.661
		c-0.131-1.445,0.065-2.872-0.014-4.313c-0.061-1.099,0.442-2.25,0.801-3.344s1.339-1.438,2.362-1.633
		c0.144-0.027,0.325,0.12,0.453,0.078c2.08-0.674,4.262-0.765,6.389-1.151c0.433-0.079,0.867-0.358,1.201-0.657
		c0.154-0.139,0.142-0.564,0.064-0.821c-0.041-0.14-0.482-0.324-0.555-0.265c-0.895,0.745-2.187-0.11-3.025,0.771
		c-0.83,0.018-1.664,0.083-2.491,0.037c-0.819-0.047-1.22-0.823-0.779-1.521c0.493-0.784,1.083-1.511,1.586-2.202
		c0.965-0.282,1.833-0.539,2.856-0.839c-1.566-0.55-1.563-0.527-2.733-0.28c-0.351,0.074-0.82,0.119-1.083-0.053
		c-0.479-0.313-0.282-0.813-0.053-1.248c0.105-0.201,0.178-0.418,0.289-0.685c-1.028-0.82-2.022-1.653-3.063-2.427
		c-0.65-0.484-1.159-1.028-1.354-1.835c-0.053-0.227-0.129-0.465-0.26-0.649c-1.075-1.514-1.077-3.204-0.86-4.943
		c0.125-1.002,0.301-2.011-0.126-3.032c-0.092-0.084-0.193-0.207-0.321-0.291c-1.688-1.1-1.688-1.098-0.588-2.901
		c-0.466-0.328-0.97-0.684-1.416-1c0.242-0.859,0.65-1.544,0.547-2.139C1.036,43.437,0.436,42.903,0,42.257
		c0.255-0.47,0.647-0.968,0.795-1.53c0.13-0.502,0.044-1.084-0.049-1.612c-0.101-0.581,0.013-1.066,0.305-1.559
		c0.193-0.326,0.317-0.693,0.434-0.954c-0.048-0.196-0.048-0.284-0.088-0.348c-1.273-1.931-1.32-1.971-0.497-4.221
		c0.272-0.745,0.051-1.739,0.979-2.223c0.065-0.034,0.017-0.461-0.096-0.63c-0.265-0.396-0.261-0.673,0.141-0.974
		c0.112-0.084,0.176-0.46,0.098-0.54c-0.883-0.891-0.709-1.973-0.63-3.057c0.062-0.846,0.051-1.697,0.068-2.545
		c0.01-0.387-0.023-0.777,0.021-1.159c0.164-1.348,0.877-2.625,0.517-4.039c0.6-1.612,0.78-3.287,0.909-4.991
		c0.049-0.637,0.455-1.357,0.912-1.833C6.1,7.671,8.56,5.689,12.055,5.215c3.621-0.49,7.217-1.22,10.858-1.576
		c2.325-0.229,4.66-0.355,6.992-0.479c4.663-0.248,9.324-0.526,13.99-0.676c5.996-0.193,11.996-0.281,17.993-0.392
		c1.068-0.02,2.091-0.001,3.167,0.463c1.016,0.436,2.284,0.386,3.44,0.368c1.705-0.024,3.419,0.291,5.123-0.136
		c0.433-0.107,0.928,0.072,1.394,0.055c1.161-0.044,2.323-0.152,3.486-0.186c2.258-0.063,4.518-0.12,6.775-0.126
		c2.004-0.006,4.011,0.046,6.015,0.1c0.527,0.015,1.077,0.054,1.571,0.219c0.424,0.142,0.7,0.078,1.063-0.144
		c0.381-0.23,0.929-0.559,1.255-0.438c1.036,0.379,1.986,0.103,2.978-0.08c0.376-0.07,0.777-0.04,1.166-0.021
		c1.779,0.1,3.547,0.278,5.347,0.167c0.768-0.047,1.653,0.063,2.484,0.416c0.649,0.275,1.572,0.238,2.264,0.009
		c1.486-0.493,2.868-0.679,4.46-0.301c1.32,0.313,2.813,0.19,4.181-0.036c3.024-0.5,6.071-0.274,9.104-0.482
		c4.258-0.292,8.523-0.479,12.787-0.699c4.729-0.243,9.459-0.529,14.192-0.669c1.151-0.034,2.327,0.299,3.442-0.18
		c0.896-0.384,1.757,0.43,2.737-0.126c0.675-0.38,1.676-0.25,2.529-0.234c0.918,0.017,1.837,0.14,2.75,0.271
		c0.288,0.042,0.551,0.259,0.977,0.471c-0.356,0.462-0.661,0.854-0.957,1.238c0.238,0.57,0.73,0.643,1.176,0.494
		c1.595-0.531,3.24-0.347,4.861-0.384c3.194-0.074,6.396,0.05,9.586-0.085c3.269-0.139,6.533,0.161,9.797-0.087
		c0.326-0.025,0.671,0.196,1.103,0.333c-1.4,1.146-3.287,0.593-4.517,1.724c0.383,0.801,0.986,0.834,1.629,0.831
		c2.261-0.01,4.52-0.003,6.828-0.003c0.062,0.289,0.119,0.567,0.202,0.965c0.657,0.021,1.343,0.024,2.027,0.065
		c0.462,0.028,1.021-0.042,1.359,0.191c1.117,0.769,2.353,0.683,3.597,0.748c1.166,0.061,2.323,0.255,3.485,0.392
		c0.154,0.018,0.343,0.001,0.455,0.083c1.479,1.071,3.256,0.888,5.021,1.144c0.213,0.478,0.43,0.958,0.692,1.55
		c0.521,0.116,1.113,0.25,1.732,0.389c0.083,0.221,0.179,0.429,0.24,0.646c0.237,0.834-0.508,1.188-0.888,1.719
		c0.429,1.062,1.396,0.361,2.069,0.646c0.688,0.291,1.511,0.265,2.38,0.392c0.744,0.463,1.252,1.456,2.321,1.658l-0.046-0.033
		c-0.232,0.188-0.487,0.56-0.695,0.534c-1.412-0.168-2.68,0.564-4.071,0.573c-1.387,0.01-2.781,0.163-4.153,0.379
		c-1.104,0.177-2.229,0.418-3.146,1.197c0.508,0.656,1.062,0.417,1.574,0.39c1.621-0.087,3.24-0.167,4.861-0.263
		c0.565-0.033,0.981,0.181,1.475,0.492c1.171,0.74,2.453,1.308,3.703,1.919c0.457,0.223,0.979,0.15,1.312-0.195
		c0.608-0.635,1.354-0.58,2.2-0.598c-0.087,0.391-0.168,0.76-0.27,1.219c-1.797,0.333-3.592,0.705-5.402,0.978
		c-0.633,0.097-1.104,0.311-1.649,0.666c-1.452,0.945-3.128,1.324-4.875,1.25c-1.187-0.054-2.313,0.124-3.41,0.635
		c0.823,0.75,1.444,1.01,2.616,0.756c0.763-0.165,1.466-0.212,2.345-0.033c-0.992,1.075-1.9,2.061-2.917,3.16
		c1.47,0.631,3.036-0.006,4.562,0.8c-1.325,0.362-2.388,0.651-3.387,0.927c-0.149,0.679,0.231,0.843,0.604,0.878
		c1.618,0.153,3.243,0.234,4.861,0.396c1.91,0.191,3.835,0.246,5.744,0.37c1.537,0.1,3.044,0.247,4.566,0.423
		c0.313,0.938,0.069,1.61-0.618,2.125c-0.487,0.365-1.014,0.678-1.439,0.96c-0.104,1.27,1.271,1.142,1.533,1.951
		c-0.653,0.541-0.653,0.541-2.496-0.037c-0.281,0.916-0.563,1.837-0.849,2.755c-0.053-0.133-0.096-0.268-0.155-0.394
		c-0.028-0.06-0.082-0.12-0.14-0.147c-0.048-0.02-0.117,0.006-0.178,0.012c0.045,0.105,0.064,0.245,0.144,0.312
		c0.104,0.084,0.258,0.109,0.389,0.159c0.223,0.593,0.496,1.232-0.104,1.722c-0.677,0.547-1.443,0.955-2.359,0.514
		c-0.396-0.189-0.721-0.643-1.346-0.26c-0.002,1.762,1.762,1.816,2.754,2.898c0.316-0.586,0.561-1.033,0.804-1.48
		c0.095,0.084,0.28,0.187,0.27,0.246c-0.144,0.688-0.304,1.366-0.026,2.063c1.997-0.771,3.858-0.131,5.729,0.383
		c0.45-0.134,0.697-1.113,1.304-0.444c0.432,0.476,0.034,1.021-0.312,1.46c-0.218,0.276-0.746,0.313-0.643,0.907
		c0.391,0.119,0.807,0.248,1.38,0.424c-0.245,0.532-0.46,1-0.679,1.477c-0.306-0.192-0.539-0.341-0.771-0.484
		c-1.014,0.867,0.197,1.485,0.299,2.354c-0.459,0.124-0.883,0.237-1.424,0.385c-0.118-0.711-0.217-1.305-0.32-1.928
		c-0.135,0.065-0.305,0.096-0.325,0.167c-0.086,0.298-0.093,0.619-0.189,0.91c-0.174,0.508-0.604,0.902-1.027,0.467
		c-0.522-0.537-0.836,0.127-1.237,0.026c-0.492-1.493-0.492-1.493-0.291-3.435c0.435,0.186,0.836,0.356,1.383,0.59
		c0.291-0.646,0.318-1.273,0.094-1.938c-0.625-0.357-1.156-0.333-1.674,0.223c-0.96,1.026-0.943,2.395-1.311,3.623
		c-0.05,0.161,0.178,0.403,0.311,0.68c-0.781,0.664-1.631,1.008-2.653,0.864c-0.71,0.798-1.757,0.478-2.747,0.794
		c-0.033,0.57,0.076,1.224-0.146,1.729c-0.189,0.435-0.76,0.7-1.244,1.111c0.029,1.219,0.246,2.549-0.453,3.841
		c-1.94,0.091-3.873,0.192-5.805,0.267c-1.459,0.058-2.922,0.045-4.38,0.138c-0.608,0.039-1.222,0.227-1.804,0.43
		c-1.406,0.488-2.83,0.705-4.33,0.738c-2.314,0.053-4.617,0.188-6.896,0.834c-1.623,0.459-3.381,0.438-5.074,0.663
		c-0.427,0.056-0.838,0.233-1.258,0.355c0.215,0.861,0.872,0.713,1.346,0.879c0.354,0.123,0.771,0.143,1.063,0.347
		c0.971,0.674,1.19,0.771,2.139,0.597c0,0.771,0,1.521,0,2.271c0.09,0.019,0.181,0.037,0.27,0.058
		c0.206-0.775,0.411-1.551,0.646-2.438c0.976-0.129,1.92-0.255,2.974-0.395c0.104,0.842,0.188,1.517,0.271,2.19l0.051-0.063
		c-0.278,0.551-0.51,1.135-0.849,1.647c-0.396,0.604-0.913,0.425-1.493,0c-1.248,1.64-3.146,2.062-5.018,2.297
		c-2.849,0.356-5.727,0.472-8.591,0.699c-1.934,0.154-3.865,0.334-5.799,0.493c-0.541,0.044-1.086,0.052-1.627,0.087
		c-1.154,0.08-2.319,0.104-3.464,0.265c-1.882,0.264-1.876,0.303-2.573,1.993c-0.648,0.632-1.191-0.643-1.926-0.063
		c-0.44,0.349-1.127,0.371-1.677,0.604c-0.992,0.422-1.797-0.189-2.565-0.459c-0.655,0.2-1.067,0.922-1.778,0.446
		c-0.058-0.039-0.168-0.059-0.225-0.029c-1.648,0.861-3.529,0.171-5.218,0.787c-0.279,0.103-0.646,0.207-0.896,0.113
		c-1.908-0.717-3.851,0.227-5.771-0.145c-0.402-0.076-0.871,0.305-1.326,0.37c-0.981,0.143-1.975,0.218-3.063,0.328
		c-0.367,0.396-0.229,0.765,0.352,0.935c0.753,0.223,1.527,0.311,2.291,0.041c-0.158,0.584-0.313,1.164-0.449,1.676
		c-0.232,0.041-0.316,0.082-0.379,0.061c-0.354-0.123-0.715-0.373-1.067-0.033c-0.158,0.152-0.359,0.37-0.359,0.558
		c-0.002,0.775,0.589,0.828,1.148,0.783c0.877-0.068,0.349,0.524,0.442,0.912c0.353,0.02,0.725,0.04,0.994,0.055
		c0.531-0.697,0.979-1.287,1.47-1.931c-0.718-0.686-1.855-0.887-1.808-2.058c1.167-0.007,2.334-0.025,3.502-0.012
		c0.323,0.003,0.652,0.159,0.6,0.549c-0.021,0.155-0.288,0.374-0.465,0.397c-1.038,0.137-0.975,0.809-0.785,1.694
		c0.579,0,1.195-0.075,1.782,0.021c0.707,0.115,1.591-0.227,2.052,0.727c0.089,0.188,0.552,0.215,0.851,0.27
		c0.227,0.042,0.467,0.022,0.699,0.005c1.239-0.09,2.478-0.207,3.719-0.281c1.146-0.07,2.285,0.405,3.457-0.028
		c0.387-0.144,0.906,0.058,1.362,0.116c1.732,0.229,3.466,0.465,5.357,0.72c0.266,0.173,0.139,1.285,1.137,0.72
		c0.07-0.04,0.484,0.522,0.731,0.799c-0.132,0.504-0.288,0.983-0.376,1.474c-0.091,0.515-0.118,1.039-0.17,1.525
		c-1.769,0.234-1.769,0.234-3.127-0.159c-0.633,0.333-1.31,0.686-1.979,1.046c-0.061,0.031-0.09,0.123-0.135,0.189
		c-0.031,0.823,0.751,0.281,1.172,0.92c0.03,0.189,0.113,0.714,0.226,1.418c0.287-0.435,0.506-0.764,0.722-1.09
		c0.732-0.134,0.476,0.688,0.864,0.882c0.139-0.017,0.381,0.004,0.403-0.058c0.523-1.4,1.661-1.45,2.912-1.34
		c0.256,0.594,0.521,1.198,0.76,1.758c-0.59,1.006-1.512-0.796-2.019,0.354c-0.841,0.123-1.712,0.149-2.513,0.402
		c-0.683,0.213-1.599,0.085-2.016,1.008c0.823,0.672,1.72,0.652,2.661,0.517c0.385-0.055,0.892,0.065,0.832,0.546
		c-0.036,0.283-0.463,0.699-0.752,0.736c-1.153,0.144-2.32,0.209-3.481,0.205c-1.154-0.002-2.31-0.121-3.806-0.209
		c-0.094,0.043-0.504,0.281-0.945,0.407c-0.346,0.099-0.739,0.122-1.097,0.067c-1.21-0.184-2.409-0.438-3.601,0.097
		c-0.522,0.232-1.021,0.109-1.576-0.024c-1.326-0.322-2.553,0.127-3.662,0.844c-0.197,0.127-0.229,0.508-0.315,0.726
		c0.682,0.662,1.038-0.203,1.52-0.138c0.53,0.071,1.047,0.25,1.58,0.386c0.324,0.561,0.633,1.091,1.015,1.746
		c0.132-0.226,0.246-0.368,0.309-0.531c0.344-0.918,0.491-1.006,1.262-0.727c0.277,0.102,0.758,0.331,0.807,0.264
		c0.765-1.076,1.72-0.285,2.58-0.311c0.467-0.013,0.938-0.045,1.4,0.005c2.089,0.228,4.145-0.053,6.225-0.207
		c2.125-0.155,4.332-0.538,6.467,0.154c0.281,0.09,0.548,0.226,0.908,0.377c-0.213,0.873-0.456,1.647-1.438,1.584
		c-0.923-0.059-0.965,0.577-1.166,1.148c-1.385,0.422-2.879-0.146-4.271,0.593c-0.494,0.263-1.321-0.104-2.119-0.196
		c-0.197-0.422-0.439-0.938-0.78-1.664c-0.444,0.634-0.74,1.056-1.104,1.572c-0.553,0.026-1.171,0.096-1.785,0.074
		c-1.086-0.037-2.168-0.156-3.254-0.193c-1.681-0.061-3.365-0.162-5.043-0.1c-3.391,0.123-6.774,0.373-10.166,0.52
		c-1.924,0.084-3.854,0.039-5.778,0.107c-0.599,0.021-1.188,0.229-1.851,0.367c0.488,0.637,0.551,1.133,0.338,1.791
		c-0.223,0.69,0.441,1.172,1.129,0.879c0.339-0.146,0.66-0.394,0.908-0.668c0.248-0.273,0.394-0.64,0.593-0.981
		c0.544,0.062,1,0.11,1.414,0.155c0.746,1.386,0.746,1.386,2.397,2.541c0.087-0.861,0.169-1.688,0.271-2.717
		c0.449,0.52,0.711,0.928,1.071,1.21c0.498,0.39,0.237,0.827,0.232,1.273c-0.006,0.535,0.073,1.072,0.112,1.566
		c0.615,0.311,0.854-0.041,0.871-0.441c0.03-0.692-0.137-1.397-0.075-2.086c0.062-0.664,0.548-0.885,1.354-0.673
		c0.392,1.245,0.572,2.565,0.411,4.102c-1.092-0.134-2.19,0.463-3.311-0.104c-0.068-0.036-0.165-0.118-0.206-0.097
		c-2.008,1.008-4.104,0.063-6.133,0.299c-1.664,0.195-3.313,0.514-4.994,0.602c-1.389,0.07-2.774,0.193-4.166,0.23
		c-2.02,0.055-4.043,0.027-6.063,0.088c-0.606,0.018-1.207,0.205-1.81,0.326c-0.145,0.028-0.303,0.178-0.415,0.143
		c-1.974-0.596-3.97,0.475-5.966-0.119c-0.785-0.232-1.685-0.093-2.53-0.084c-0.207,0.002-0.463,0.105-0.61,0.25
		c-0.616,0.588-1.229,0.441-1.938,0.167c-0.483-0.188-1.087-0.279-1.583-0.173c-0.766,0.168-1.471,0.277-2.262,0.082
		c-0.494-0.121-1.126-0.059-1.594,0.149c-1.637,0.729-3.278,0.892-4.995,0.372c-0.213-0.063-0.48-0.105-0.679-0.036
		c-2.057,0.719-4.168,0.123-6.243,0.296c-0.766,0.063-1.523,0.185-2.283,0.294c-0.382,0.055-0.758,0.19-1.14,0.205
		c-1.379,0.056-2.76,0.091-4.139,0.104c-1.39,0.014-2.797-0.188-4.133,0.392c-1.027-0.351-1.241,0.673-1.904,1.186
		c-0.381-0.119-0.941-0.124-1.218-0.408c-1.201-1.241-2.267-0.814-3.353,0.117c-0.048,0.042-0.147,0.025-0.398,0.06
		c-0.27-0.175-0.676-0.394-1.029-0.679c-0.401-0.323-0.847-0.44-1.306-0.271c-0.479,0.178-0.875,0.159-1.309-0.124
		c-0.148-0.098-0.506-0.083-0.634,0.03c-0.646,0.57-1.454,0.419-2.173,0.62c-0.794,0.223-1.508,0.01-2.222,0.071
		c-0.771,0.068-1.593,0.041-2.421,0.377c-0.808,0.328-1.906-0.076-2.877-0.138c-4.785-0.305-9.572-0.488-14.366-0.433
		c-0.827,0.01-1.703,0.059-2.392,0.548c-0.095,0.474,0.143,0.771,0.445,0.728c0.986-0.141,1.909,0.396,2.975,0.041
		c0.678-0.225,1.631,0.201,2.399,0.496c0.604,0.232,1.146,0.385,1.8,0.264c0.347-0.063,0.772,0.031,1.1,0.188
		c0.594,0.284,1.114,0.383,1.779,0.146c0.469-0.168,1.056,0,1.589,0.002c1.153,0.002,2.311-0.043,3.464-0.005
		c1.352,0.044,2.701,0.157,4.115,0.243c0.174,0.523,0.34,1.02,0.498,1.494c0.921-0.08,0.791-0.897,1.107-1.496
		c1.224-0.065,2.45-0.225,3.668-0.177c1.44,0.058,2.899,0.099,4.299-0.095c1.985-0.276,3.981,0.063,5.963-0.351
		c1.036-0.218,2.161-0.01,3.246-0.008c0.926,0,1.878,0.116,2.77-0.063c2.086-0.419,4.185-0.291,6.279-0.361
		c0.873-0.028,1.678,0.111,2.225,0.916c0.57-0.65,1.166-1.138,1.892-0.918c0.949,0.287,1.909,0.127,2.706-0.146
		c0.847-0.291,1.563,0.488,2.247,0.027c0.741-0.497,1.608-0.463,2.242-0.217c0.864,0.34,1.661,0.188,2.493,0.236
		c0.645,0.038,1.195-0.089,1.78-0.343c0.542-0.234,1.151-0.387,1.74-0.422c0.678-0.04,1.425-0.06,2.029,0.187
		c0.757,0.308,1.729-0.448,2.314,0.521c0.043,0.071,0.291,0.054,0.434,0.027c1.354-0.251,2.693-0.644,4.057-0.741
		c1.779-0.129,3.574-0.045,5.362-0.021c0.85,0.013,1.696,0.221,2.489-0.327c0.218-0.152,0.634-0.169,0.897-0.074
		c0.597,0.211,1.146,0.336,1.796,0.177c0.413-0.103,0.756,0.283,0.748,0.703c-0.011,0.685-0.138,1.368-0.215,2.044
		c0.514,0.295,0.546-0.148,0.6-0.382c0.146-0.684,0.236-1.377,0.352-2.073c1.179-0.832,2.601-0.784,3.795-0.555
		c1.549,0.299,2.931-0.086,4.358-0.338c1.007-0.179,1.979-0.408,3.15-0.002c0.082,0.527,0.174,1.12,0.265,1.712l0.065-0.075
		c-0.409,0.188-0.818,0.376-1.272,0.583c-0.037,1.556-0.14,3.064-2.291,3.103c-0.217-0.286-0.443-0.587-0.673-0.89
		c0.699-0.231,1.214-0.693,1.546-1.337c0.266-0.515,0.313-1.068-0.094-1.528c-0.187-0.212-0.515-0.442-0.757-0.423
		c-0.219,0.02-0.567,0.356-0.586,0.576c-0.069,0.919-0.039,1.846-0.045,2.771c-1.078,0.625-2.15,1.259-3.475,1.12
		c-0.953-1.401-0.953-1.401-0.976-3.59c-0.438-0.207-0.561,0.146-0.604,0.418c-0.15,0.914-0.174,1.834-0.559,2.724
		c-0.179,0.411,0.059,0.997,0.104,1.496c-0.799,0.234-0.912-0.442-1.171-0.915c-0.731,0.941-1.386,1.782-2.054,2.643
		c-0.55,0.032-0.584-0.386-0.578-0.776c0.008-0.383,0.121-0.764,0.131-1.146c0.01-0.371-0.548-0.688-0.864-0.515
		c-0.79,0.434-1.376,1.012-1.366,2.017c0.316,0.291,0.634,0.582,0.942,0.868c-0.153,0.199-0.233,0.406-0.334,0.419
		c-0.77,0.088-1.55,0.099-2.313,0.209c-1.193,0.174-2.128-0.153-2.768-1.22c-0.062-0.103-0.27-0.116-0.42-0.176
		c-0.752,0.159-0.471,0.863-0.677,1.31c-0.63,0.159-1.257,0.318-2.053,0.521c-0.088-1.192,0.513-2.016,0.881-2.956
		c-0.419-0.793-1.106-0.608-1.846-0.444c-0.286,0.662-0.582,1.346-0.86,1.989c-0.877,0.056-1.093-0.4-1.047-1.015
		c0.026-0.373,0.185-0.735,0.275-1.075c-0.53-0.508-0.855-0.365-1.074,0.197c-0.024,0.065-0.008,0.153,0.008,0.229
		c0.109,0.625,0.26,1.302-0.484,1.623c-0.753,0.324-1.52,0.394-2.07-0.428c-0.037-0.053-0.132-0.064-0.283-0.136
		c-0.267,0.521-0.532,1.05-0.834,1.638c-0.588-0.046-1.167-0.09-1.737-0.139c0.507-0.72,0.507-0.72,0.27-1.486
		c-0.105,0.624-0.18,1.055-0.252,1.484c-0.057,0.625-0.395,0.936-1.023,0.938c-0.523,0.003-1.047,0.011-1.569,0.018L101.437,119.877
		z M27.882,72.952c0.017,0.068,0.028,0.137,0.047,0.203c0.013,0.051,0.029,0.1,0.045,0.15c-0.035-0.137-0.07-0.271-0.105-0.407
		c0.056-0.022,0.111-0.046,0.166-0.069C27.979,72.864,27.923,72.897,27.882,72.952z M63.456,71.536
		c0.01,0.125,0.021,0.25,0.031,0.375c-0.012-0.139-0.021-0.279-0.032-0.418C63.682,71.55,63.489,71.517,63.456,71.536z
		 M77.005,40.761c0.087,0.108,0.158,0.235,0.264,0.323c0.096,0.08,0.226,0.117,0.34,0.172c0.052-0.108,0.175-0.254,0.141-0.321
		c-0.049-0.101-0.202-0.179-0.324-0.2c-0.132-0.027-0.276,0.02-0.418,0.03c0.038-0.532,0.076-1.063,0.114-1.595
		c-0.038-0.002-0.076-0.002-0.115-0.002C77.005,39.7,77.005,40.229,77.005,40.761z M51.243,38.341
		c-0.01-0.139-0.021-0.275-0.032-0.413c0.011,0.149,0.021,0.301,0.029,0.449c-0.563,0.356-0.762,0.813-0.352,1.85
		C51.06,39.339,51.153,38.849,51.243,38.341z M54.981,43.466c0.254-0.806-0.156-1.401-0.619-1.984
		c0.21-0.199,0.419-0.401,0.669-0.638c-0.512-0.7-0.957-1.31-1.491-2.041c-0.219,0.817-0.197,1.444,0.463,1.93
		c0.259,0.189,0.505,0.375,0.367,0.756c0.036,0.356,0.014,0.73,0.119,1.063c0.102,0.314,0.337,0.589,0.499,0.896
		c-0.005,0.159-0.011,0.316-0.016,0.475C54.976,43.77,54.978,43.617,54.981,43.466z M93.357,42.074
		c0.132,0.038,0.265,0.075,0.396,0.114c-0.125-0.04-0.252-0.079-0.377-0.119c-0.879,1.451-0.896,1.777-0.099,2.926
		C93.682,43.99,93.664,43.034,93.357,42.074z M42.856,74.377l-0.036,0.012c-0.354-1.865-0.638-2.131-2.321-2.117
		c-0.235-0.359-0.451-0.775-0.756-1.11c-0.176-0.191-0.496-0.252-0.753-0.374c-0.113,0.258-0.394,0.604-0.313,0.755
		c0.408,0.765,0.246,1.51,0.095,2.275c-0.09,0.454-0.18,0.917-0.201,1.378c-0.027,0.574,0.337,0.785,1.254,0.786
		c-0.188-1.182-0.188-1.182,0.396-1.917c0.313,0.563,0.595,1.174,0.973,1.721c0.379,0.548,0.854,1.031,1.299,1.559
		C42.615,76.325,42.735,75.352,42.856,74.377z M112.126,81.34c0.24,0.452,0.283,0.612,0.386,0.708
		c0.545,0.519,1.215,0.599,1.941,0.591c1.082-0.009,2.204-0.097,3.239,0.147c1.207,0.285,2.204-0.516,3.374-0.338
		c1.075,0.162,2.169-0.031,3.186-0.471c0.526-0.228,1.01-0.283,1.562-0.023c0.211,0.1,0.555-0.085,0.839-0.138
		c0.369-0.071,0.738-0.184,1.111-0.202c2.42-0.131,4.885,0.16,7.211-0.819c0.202-0.085,0.489-0.113,0.688-0.038
		c0.989,0.372,2.013-0.057,2.959,0.105c1.157,0.199,1.88-0.357,2.772-0.854c-0.126-0.288-0.158-0.579-0.313-0.68
		c-0.585-0.371-1.2-0.669-1.943-0.606c-2,0.166-4.015,0.211-6.003,0.468c-2.78,0.359-5.569,0.652-8.358,0.928
		c-1.31,0.13-2.616,0.118-3.942-0.101c-1.746-0.289-3.523-0.404-5.212,0.43c-0.33,0.166-0.762,0.113-1.135,0.21
		C113.747,80.85,113.018,81.079,112.126,81.34z M127.554,99.82c-1.344-0.126-2.569-0.089-3.8-0.094
		c-3.026-0.015-6.049,0.371-9.08,0.104c-0.454-0.039-0.911,0.207-0.685,0.947c0.892,0.106,1.843,0.104,2.721,0.361
		c0.956,0.275,1.853-0.111,2.719-0.036c1.088,0.097,2.096,0.031,3.159-0.13c1.063-0.159,2.164-0.028,3.247-0.076
		c0.456-0.021,0.923-0.127,1.354-0.283C127.331,100.563,127.372,100.235,127.554,99.82z M18.015,97.97
		c1.298,0.036,2.552,0.046,3.8-0.862c-0.896-1.056-1.329-2.184-1.413-3.455c-0.05-0.747-0.787-0.13-1.078-0.438
		c-0.089-0.885-0.178-1.762-0.266-2.637c-0.416,1.234-0.791,2.477-0.681,3.672C18.495,95.511,17.439,96.602,18.015,97.97z
		 M132.858,102.659c-0.439-0.521-0.664-0.77-0.868-1.034c-0.251-0.325-0.485-0.663-0.724-0.99c-0.5,0.325-0.873,0.76-1.254,0.77
		c-0.49,0.012-0.988-0.316-1.455-0.488c-0.846,0.873-1.929,0.963-3.136,1.233c0.229,0.267,0.396,0.634,0.576,0.642
		c0.778,0.031,1.478,0.082,2.116,0.675c0.229,0.215,1.003,0.174,1.276-0.054C130.323,102.636,131.362,102.449,132.858,102.659z
		 M52.886,102.239c-0.598,0.094-1.205,0.156-1.794,0.303c-0.163,0.041-0.407,0.373-0.368,0.49c0.085,0.258,0.319,0.469,0.51,0.685
		c0.036,0.042,0.144,0.028,0.217,0.03c1.448,0.032,2.896,0.076,4.344,0.072c0.128,0,0.354-0.303,0.359-0.473
		c0.006-0.182-0.164-0.499-0.309-0.532C54.876,102.594,53.895,102.428,52.886,102.239z M29.583,75.729
		c0.062-0.048,0.156-0.084,0.18-0.146c0.61-1.741,0.104-3.534,0.203-5.301c0.016-0.256-0.435-0.408-0.688-0.131
		c-0.062,0.979-0.113,1.903-0.178,2.828C28.972,74.81,28.985,74.907,29.583,75.729z M56.427,39.352
		c-0.842,0.855-0.521,1.454-0.463,2.046c0.067,0.69,0.042,1.391,0.062,2.085c0.017,0.54-0.371,1.111,0.082,1.812
		C57.303,43.344,56.597,41.524,56.427,39.352z M221.399,49.147c0.352-1.363,0.131-2.479-0.127-3.613
		c-0.263,0.455-0.334,0.961-0.558,1.391c-0.271,0.523-0.67,0.98-1.039,1.503c0.258,0.17,0.433,0.323,0.639,0.407
		C220.595,48.948,220.896,49.008,221.399,49.147z M59.877,68.129c1.605-1.324,1.636-1.423,1.03-3.354
		C60.671,65.918,59.417,66.598,59.877,68.129z M47.898,69.528c-0.503,0.25-0.882,0.313-0.97,0.509
		c-0.216,0.479-0.359,1.015-0.4,1.536c-0.02,0.225,0.238,0.551,0.459,0.692c0.28,0.177,0.882-0.169,0.9-0.497
		C47.924,71.161,47.898,70.55,47.898,69.528z M37.165,106.12c-0.416,0.115-0.944,0.224-1.434,0.424
		c-0.156,0.063-0.284,0.385-0.281,0.583c0.004,0.2,0.149,0.521,0.303,0.571c0.84,0.271,1.667,0.264,2.375-0.38
		c0.291-0.265,0.188-0.827-0.178-0.951C37.73,106.292,37.508,106.228,37.165,106.12z M24.026,77.666
		c1.012-1.604,1.012-1.604,0-4.855C24.026,74.312,24.026,75.743,24.026,77.666z M37.677,72.876
		c-1.105,1.325-1.105,1.325,0.212,2.955C37.524,74.907,38.648,74.012,37.677,72.876z M47.801,103.007
		c-0.683-0.894-1.44-1.051-2.28-0.827c-0.226,0.06-0.448,0.393-0.532,0.646c-0.096,0.286,0.416,0.754,0.74,0.69
		C46.365,103.389,46.993,103.209,47.801,103.007z M9.684,72.726c0.587,0.504,1.033,0.889,1.465,1.26
		c0.548-0.422,0.53-0.908,0.21-1.27C10.969,72.278,10.425,72.219,9.684,72.726z M31.808,101.28c-0.591,1.139-1.88,0.973-1.725,2.377
		c0.438-0.142,0.774-0.264,1.12-0.359c0.352-0.097,0.707-0.167,1.198-0.28C32.231,102.519,32.118,102.188,31.808,101.28z
		 M129.233,114.337c1.182-0.106,1.82-0.495,1.734-1.567c-0.009-0.114-0.104-0.222-0.17-0.352c-0.265,0.874-0.867,0.552-1.488,0.421
		C129.286,113.293,129.265,113.733,129.233,114.337z M80.218,42.476c-0.014,1.462-0.805,2.483,0.101,3.868
		c0.159-1.301,0.285-2.313,0.399-3.323C80.723,42.974,80.626,42.915,80.218,42.476z M219.351,50.71
		c-0.148-0.733-0.484-1.18-1.095-1.491c-0.477,2.08-0.477,2.08-0.169,2.331C218.501,51.274,218.94,50.983,219.351,50.71z
		 M20.804,100.63c-0.159-0.01-0.318-0.018-0.479-0.025c-0.146,0.659-0.307,1.313-0.43,1.979c-0.021,0.106,0.118,0.243,0.254,0.501
		C20.813,102.296,20.962,101.5,20.804,100.63z M90.712,101.778c-0.374-0.072-0.756-0.272-1.017-0.168
		c-0.544,0.218-0.688,0.85-0.429,1.598c0.059,0.172,0.325,0.396,0.481,0.386c0.591-0.037,0.618-0.582,0.761-1.003
		C90.581,102.382,90.618,102.161,90.712,101.778z M21.206,91.7c-0.133,1.332-0.016,1.979,0.489,2.5
		c0.075,0.077,0.295,0.1,0.395,0.047c0.11-0.059,0.252-0.273,0.219-0.348C22.038,93.304,21.729,92.728,21.206,91.7z M58.135,102.871
		c0.318,0.283,0.538,0.628,0.708,0.604c0.724-0.1,1.647,0.348,2.208-0.67C60.058,102.394,59.202,102.463,58.135,102.871z
		 M145.963,93.776c-0.158,0.083-0.404,0.139-0.521,0.292c-0.311,0.398-0.346,0.893-0.047,1.283c0.125,0.165,0.602,0.267,0.77,0.159
		c0.447-0.283,0.509-0.925,0.219-1.442C146.319,93.953,146.146,93.898,145.963,93.776z M26.414,96.005
		c-0.155,0.818-0.318,1.636-0.453,2.457c-0.012,0.068,0.173,0.169,0.362,0.347C26.718,97.861,26.525,96.89,26.414,96.005z
		 M79.708,81.854c-0.151,0.154-0.532,0.362-0.608,0.65c-0.123,0.466,0.479,1.048,0.984,1.056c0.452,0.008,0.698-0.307,0.801-0.688
		C81.017,82.382,80.51,81.891,79.708,81.854z M188.325,65.82c-0.504,0.092-0.953,0.308-1.09,0.901
		c-0.025,0.114,0.055,0.34,0.147,0.386c0.515,0.244,0.83-0.158,1.146-0.442c0.134-0.12,0.182-0.377,0.188-0.576
		C188.722,66.016,188.499,65.933,188.325,65.82z M52.065,41.04c0.447-1.094,0.311-1.862,0.21-3.02
		C51.603,39.132,51.539,39.89,52.065,41.04z M119.294,95.18c0.204-0.023,0.418-0.051,0.631-0.067
		c0.365-0.031,0.569-0.242,0.449-0.58c-0.053-0.143-0.35-0.276-0.535-0.277c-0.7,0-1.133,0.459-1.314,1.062
		c-0.128,0.424-0.082,0.936,0.663,0.943C119.222,95.916,119.255,95.576,119.294,95.18z M28.212,39.95
		c1.151-1.008,1.151-1.008,0-1.641C28.212,38.79,28.212,39.223,28.212,39.95z M14.828,100.501c0.753-0.592,0.57-1.18,0.36-1.935
		C14.435,99.135,14.495,99.698,14.828,100.501z M69.293,60.061c0.055,0.732,0.104,1.466,0.172,2.199
		c0.002,0.026,0.136,0.044,0.379,0.119C69.833,61.548,69.878,60.772,69.293,60.061z M218.027,47.237
		c0.207-0.813,0.207-0.813-0.038-1.736C217.427,46.543,217.427,46.543,218.027,47.237z M82.089,120.347
		c1.401-0.563,1.401-0.563,0.977-1.925C82.79,118.962,82.529,119.478,82.089,120.347z M125.172,48.474
		c0.938-0.929,0.938-0.929,0-1.662C125.172,47.349,125.172,47.858,125.172,48.474z M22.294,78.933
		c-0.191,0.381-0.384,0.621-0.413,0.879c-0.013,0.111,0.306,0.264,0.473,0.396c0.162-0.229,0.378-0.442,0.461-0.697
		C22.844,79.416,22.563,79.22,22.294,78.933z M36.557,116.397c0.031,0.16,0.044,0.396,0.135,0.598
		c0.047,0.103,0.232,0.154,0.366,0.195c0.041,0.014,0.173-0.094,0.166-0.129c-0.076-0.433-0.171-0.86-0.262-1.289
		c-0.111,0.035-0.28,0.037-0.32,0.11C36.573,116.01,36.586,116.179,36.557,116.397z M37.113,110.16
		c-0.139-0.068-0.274-0.188-0.407-0.187c-0.229,0.003-0.509,0.018-0.665,0.147c-0.199,0.167-0.414,0.455-0.411,0.689
		c0.004,0.373,0.58,0.645,0.893,0.453C36.918,111.021,37.289,110.726,37.113,110.16z M129.762,94.38
		c-0.165,0.013-0.331,0.024-0.496,0.037c-0.102,0.357-0.253,0.711-0.278,1.074c-0.01,0.146,0.244,0.42,0.4,0.439
		c0.178,0.021,0.547-0.179,0.547-0.281C129.937,95.226,129.829,94.803,129.762,94.38z M57.61,66.746
		c0.137,0.206,0.202,0.333,0.296,0.427c0.035,0.035,0.153,0.021,0.213-0.012c0.438-0.229,0.637-0.59,0.55-1.086
		c-0.012-0.063-0.066-0.159-0.117-0.17c-0.127-0.025-0.329-0.067-0.381-0.004C57.952,66.177,57.777,66.486,57.61,66.746z
		 M71.896,68.54c0.286-0.842,0.455-1.24,0.535-1.655c0.016-0.079-0.312-0.265-0.503-0.321c-0.081-0.024-0.327,0.161-0.319,0.234
		C71.647,67.226,71.739,67.649,71.896,68.54z M72.449,44.677c0.058-0.039,0.132-0.066,0.172-0.121
		c0.313-0.412,0.317-0.977,0.008-1.187c-0.05-0.035-0.161-0.036-0.212-0.004c-0.252,0.168-0.319,0.892-0.12,1.216
		C72.325,44.628,72.397,44.646,72.449,44.677z M70.153,40.231c-0.123-0.035-0.246-0.068-0.369-0.104
		c-0.1,0.434-0.234,0.86-0.278,1.298c-0.013,0.143,0.22,0.309,0.337,0.463c0.104-0.098,0.288-0.188,0.297-0.293
		C70.171,41.143,70.153,40.687,70.153,40.231z M215.586,48.591c0.141,0.104,0.313,0.272,0.348,0.25
		c0.179-0.129,0.396-0.281,0.451-0.471c0.051-0.164-0.099-0.387-0.157-0.582c-0.128,0.063-0.303,0.092-0.37,0.192
		C215.731,48.164,215.671,48.39,215.586,48.591z M53.076,115.831c-0.351,1.291-0.351,1.291,0.506,1.722
		C53.42,116.999,53.287,116.549,53.076,115.831z M64.467,65.976c-0.084-0.023-0.167-0.045-0.252-0.068
		c-0.117,0.255-0.27,0.5-0.342,0.769c-0.027,0.104,0.116,0.258,0.183,0.388c0.119-0.073,0.322-0.129,0.345-0.227
		C64.46,66.559,64.45,66.265,64.467,65.976z M105.645,55.329c-0.063,0.002-0.128,0.004-0.192,0.006c0,0.623,0,1.248,0,1.873
		c0.064-0.001,0.129-0.001,0.192-0.002C105.645,56.579,105.645,55.955,105.645,55.329z M208.59,10.09
		c0.027-0.169,0.056-0.339,0.081-0.508c-0.583-0.366-1.262-0.162-2.483,0.156C207.331,9.905,207.96,9.998,208.59,10.09z
		 M19.373,34.485c-0.243,0.469-0.403,0.655-0.427,0.856c-0.021,0.193,0.066,0.427,0.176,0.598c0.05,0.077,0.373,0.092,0.394,0.052
		c0.083-0.182,0.146-0.396,0.134-0.594C19.635,35.186,19.529,34.981,19.373,34.485z M24.956,107.39
		c-0.109,0.399-0.422,0.763,0.031,1.142c0.098,0.083,0.492,0.009,0.564-0.108C25.872,107.912,25.572,107.623,24.956,107.39z
		 M8.045,57.526c0.277-0.951,0.041-1.339-0.134-1.731c-0.021-0.047-0.125-0.103-0.168-0.087c-0.055,0.021-0.131,0.115-0.12,0.162
		C7.715,56.272,7.822,56.67,8.045,57.526z M101.548,96.167c0.108-0.379,0.333-0.731,0.259-1.004
		c-0.136-0.489-0.528-0.367-0.877-0.143c-0.207,0.135-0.636-0.041-0.604,0.483c0.151,0.099,0.323,0.222,0.507,0.323
		C101.016,95.929,101.212,96.01,101.548,96.167z M24.05,79.139c-0.069,0-0.148-0.022-0.201,0.003
		c-0.314,0.164-0.465,0.68-0.278,0.963c0.033,0.051,0.166,0.104,0.171,0.096c0.158-0.22,0.335-0.434,0.441-0.678
		C24.222,79.429,24.097,79.265,24.05,79.139z M27.188,75.929c0.25,0.172,0.415,0.284,0.58,0.396
		c0.074-0.117,0.232-0.261,0.207-0.349c-0.056-0.182-0.209-0.331-0.322-0.495C27.521,75.61,27.39,75.737,27.188,75.929z
		 M46.169,55.766c-0.086-0.04-0.172-0.079-0.259-0.118c-0.104,0.188-0.245,0.367-0.3,0.57c-0.031,0.11,0.08,0.263,0.128,0.396
		c0.12-0.061,0.313-0.096,0.345-0.187C46.153,56.222,46.145,55.987,46.169,55.766z M45.747,70.776
		c-0.348,0.604-0.52,0.785-0.545,0.984c-0.022,0.185,0.113,0.388,0.179,0.581c0.146-0.141,0.362-0.258,0.422-0.429
		C45.868,71.724,45.792,71.483,45.747,70.776z M45.341,117.996c-0.099-0.003-0.196-0.007-0.295-0.01
		c-0.037,0.331-0.097,0.662-0.1,0.995c-0.002,0.117,0.135,0.235,0.21,0.354c0.089-0.103,0.254-0.204,0.257-0.31
		C45.421,118.684,45.369,118.339,45.341,117.996z M55.661,67.882c-0.188,0.22-0.361,0.343-0.342,0.408
		c0.057,0.191,0.177,0.372,0.304,0.529c0.021,0.025,0.317-0.117,0.313-0.139C55.872,68.435,55.777,68.196,55.661,67.882z
		 M34.966,37.146c-0.343-0.426-0.412-0.585-0.532-0.646c-0.164-0.082-0.365-0.09-0.552-0.131c0.048,0.197,0.033,0.461,0.156,0.572
		C34.173,37.063,34.436,37.042,34.966,37.146z M145.045,40.163c-0.1,0.016-0.199,0.029-0.3,0.043
		c0.03,0.334,0.063,0.668,0.092,1.004c0.129-0.02,0.256-0.041,0.384-0.062C145.162,40.821,145.104,40.493,145.045,40.163z
		 M49.34,41.312c0.194-0.381,0.604-0.824-0.183-1.047C49.225,40.648,49.282,40.979,49.34,41.312z M50.943,70.41
		c-0.12-0.163-0.237-0.322-0.354-0.48c-0.127,0.123-0.379,0.284-0.354,0.36c0.053,0.168,0.242,0.293,0.377,0.437
		C50.706,70.637,50.8,70.546,50.943,70.41z M68.474,47.751c0.063,0.117,0.124,0.234,0.187,0.354
		c0.102-0.175,0.217-0.344,0.283-0.531c0.011-0.03-0.196-0.139-0.303-0.212C68.585,47.491,68.53,47.62,68.474,47.751z
		 M84.231,47.885c-0.079,0.099-0.219,0.196-0.224,0.298c0,0.1,0.137,0.203,0.213,0.304c0.105-0.132,0.212-0.264,0.318-0.397
		C84.437,48.021,84.335,47.952,84.231,47.885z M41.84,66.969c-0.193,0.731-0.277,1.047-0.465,1.754
		C42.025,68.196,42.144,67.905,41.84,66.969z M22.765,105.388c0.075,0.108,0.151,0.221,0.229,0.33
		c0.074-0.154,0.186-0.304,0.207-0.464c0.009-0.063-0.184-0.151-0.284-0.229C22.865,105.146,22.815,105.267,22.765,105.388z
		 M159.068,97.329c-0.087,0.029-0.173,0.06-0.26,0.087c0.056,0.265,0.104,0.528,0.173,0.788c0.014,0.047,0.159,0.109,0.168,0.102
		c0.076-0.092,0.207-0.212,0.188-0.292C159.28,97.776,159.162,97.556,159.068,97.329z M7.936,59.642
		c-0.048,0.135-0.097,0.269-0.145,0.401c0.129,0.006,0.262,0.025,0.389,0.009c0.029-0.005,0.083-0.171,0.057-0.197
		C8.153,59.767,8.038,59.71,7.936,59.642z M146.425,91.01c-0.103-0.195-0.169-0.32-0.233-0.447
		c-0.167,0.115-0.394,0.197-0.476,0.355c-0.043,0.083,0.166,0.297,0.261,0.452C146.13,91.247,146.282,91.124,146.425,91.01z
		 M132.667,45.423c0,0.224-0.004,0.439,0.006,0.656c0.002,0.015,0.104,0.023,0.156,0.035c0.013-0.219,0.027-0.434,0.029-0.651
		C132.858,45.452,132.753,45.44,132.667,45.423z M128.97,42.056c-0.066-0.103-0.134-0.204-0.198-0.308
		c-0.052,0.041-0.151,0.105-0.146,0.117c0.055,0.108,0.126,0.208,0.194,0.312C128.87,42.138,128.92,42.097,128.97,42.056z
		 M68.003,40.237c0.107,0.081,0.215,0.162,0.322,0.242c0.074-0.104,0.23-0.24,0.205-0.308c-0.042-0.106-0.201-0.171-0.313-0.252
		C68.147,40.026,68.075,40.131,68.003,40.237z M64.352,38.719c0.122-0.603,0.174-0.812,0.202-1.023
		c0.01-0.065-0.048-0.139-0.072-0.207c-0.087,0.07-0.242,0.137-0.246,0.213C64.222,37.907,64.274,38.116,64.352,38.719z
		 M62.527,66.107c0.102,0.06,0.204,0.119,0.306,0.179c0.06-0.113,0.161-0.229,0.156-0.338c-0.004-0.063-0.184-0.118-0.283-0.177
		C62.647,65.885,62.587,65.995,62.527,66.107z M61.662,34.141c-0.083,0.107-0.16,0.167-0.153,0.211
		c0.025,0.163,0.077,0.321,0.121,0.48C61.64,34.624,61.648,34.411,61.662,34.141z M46.609,119.802
		c-0.067-0.112-0.136-0.225-0.203-0.336c-0.082,0.174-0.179,0.343-0.229,0.522c-0.009,0.03,0.187,0.117,0.285,0.178
		C46.512,120.044,46.561,119.923,46.609,119.802z M54.035,70.262c0.075,0.081,0.157,0.171,0.241,0.261
		c0.088-0.088,0.236-0.17,0.247-0.269c0.009-0.08-0.146-0.177-0.228-0.268C54.21,70.079,54.123,70.17,54.035,70.262z M45.988,37.833
		c0.376-0.518,0.292-0.801,0.223-1.074c-0.009-0.035-0.089-0.053-0.137-0.075c-0.028,0.067-0.079,0.135-0.083,0.205
		C45.979,37.099,45.988,37.314,45.988,37.833z M46.694,39.584c-0.038,0.077-0.106,0.175-0.134,0.284
		c-0.011,0.039,0.102,0.156,0.113,0.15c0.104-0.054,0.197-0.124,0.294-0.191C46.876,39.745,46.782,39.661,46.694,39.584z
		 M103.694,81.835c-0.293-0.025-0.511-0.078-0.718-0.051c-0.107,0.015-0.193,0.174-0.29,0.269c0.107,0.036,0.231,0.129,0.318,0.103
		C103.218,82.091,103.41,81.972,103.694,81.835z M89.218,54.312c-0.068,0.262-0.141,0.453-0.155,0.649
		c-0.003,0.052,0.176,0.116,0.271,0.176c0.048-0.143,0.133-0.282,0.128-0.422C89.456,54.606,89.339,54.502,89.218,54.312z
		 M87.485,38.663c-0.064,0.026-0.129,0.056-0.191,0.081c0.056,0.116,0.106,0.234,0.174,0.343c0.006,0.009,0.121-0.052,0.187-0.08
		C87.597,38.892,87.542,38.778,87.485,38.663z M41.115,115.712c-0.044,0.123-0.097,0.246-0.122,0.373
		c-0.005,0.023,0.138,0.112,0.16,0.099c0.099-0.072,0.18-0.171,0.267-0.261C41.318,115.853,41.218,115.781,41.115,115.712z
		 M41.513,47.345c-0.038,0.121-0.078,0.245-0.117,0.366c0.11,0.007,0.227,0.025,0.335,0.008c0.031-0.006,0.08-0.152,0.059-0.176
		C41.712,47.464,41.608,47.408,41.513,47.345z M75.247,38.94c-0.06-0.005-0.121-0.008-0.181-0.012
		c-0.01,0.211-0.024,0.422-0.023,0.632c0,0.023,0.096,0.048,0.146,0.071C75.208,39.401,75.228,39.171,75.247,38.94z M12.021,48.292
		c-0.045,0.131-0.09,0.263-0.134,0.394c0.126,0.008,0.255,0.026,0.378,0.012c0.031-0.004,0.087-0.167,0.063-0.189
		C12.241,48.419,12.127,48.36,12.021,48.292z M215.226,45.214c0,0.125-0.004,0.25,0.009,0.375c0.001,0.01,0.125,0.007,0.189,0.008
		c-0.003-0.124-0.002-0.251-0.021-0.372C215.401,45.211,215.28,45.216,215.226,45.214z M23.923,94.913
		c-0.196-0.046-0.389-0.094-0.583-0.127c-0.008-0.002-0.056,0.164-0.053,0.166c0.185,0.07,0.37,0.132,0.561,0.187
		C23.85,95.138,23.885,95.024,23.923,94.913z M221.265,50.47c-0.066,0.014-0.134,0.026-0.199,0.039
		c0.042,0.118,0.076,0.241,0.135,0.354c0.008,0.016,0.125-0.023,0.189-0.037C221.349,50.706,221.308,50.588,221.265,50.47z
		 M105.435,114.679c-0.07-0.106-0.142-0.214-0.211-0.32c-0.079,0.101-0.175,0.19-0.23,0.302c-0.019,0.036,0.082,0.18,0.096,0.174
		C105.207,114.796,105.32,114.735,105.435,114.679z M42.308,70.274c-0.068,0.021-0.138,0.045-0.206,0.065
		c0.049,0.131,0.095,0.263,0.153,0.386c0.004,0.009,0.126-0.041,0.192-0.063C42.401,70.532,42.354,70.403,42.308,70.274z
		 M101.462,112.544c-0.063-0.091-0.127-0.181-0.19-0.27c-0.039,0.12-0.095,0.238-0.114,0.363c-0.007,0.05,0.063,0.11,0.098,0.168
		C101.322,112.719,101.392,112.631,101.462,112.544z M50.851,34.657c-0.021-0.072-0.043-0.146-0.064-0.218
		c-0.061,0.04-0.179,0.095-0.173,0.12c0.024,0.104,0.087,0.198,0.135,0.299C50.782,34.791,50.817,34.724,50.851,34.657z
		 M98.817,42.867c0.041,0.06,0.082,0.118,0.124,0.175c0.083-0.092,0.227-0.182,0.232-0.28c0.008-0.093-0.13-0.193-0.202-0.293
		C98.92,42.601,98.868,42.734,98.817,42.867z M96.739,118.363c-0.059,0.019-0.162,0.03-0.165,0.053
		c-0.014,0.137-0.003,0.273,0,0.409c0.095-0.029,0.19-0.06,0.286-0.09C96.819,118.612,96.78,118.488,96.739,118.363z
		 M214.894,55.896c0.09-0.079,0.188-0.15,0.262-0.242c0.014-0.018-0.068-0.165-0.107-0.166c-0.114-0.002-0.231,0.039-0.348,0.063
		C214.765,55.665,214.828,55.78,214.894,55.896z M113.138,111.04c-0.063,0.105-0.188,0.222-0.177,0.314
		c0.015,0.087,0.177,0.15,0.271,0.225c0.07-0.102,0.211-0.221,0.19-0.304C113.403,111.181,113.241,111.116,113.138,111.04z
		 M112.683,100.575c-0.056-0.05-0.12-0.147-0.161-0.14c-0.249,0.054-0.505,0.107-0.726,0.228c-0.038,0.021,0.086,0.342,0.137,0.525
		c0.186-0.075,0.391-0.123,0.548-0.236C112.584,100.876,112.618,100.704,112.683,100.575z M35.682,61.37
		c0.011,0.07,0.021,0.142,0.032,0.211c0.063-0.069,0.141-0.135,0.176-0.217c0.016-0.035-0.064-0.109-0.104-0.165
		C35.752,61.256,35.717,61.313,35.682,61.37z M39.309,102.587c-0.199,0.271-0.35,0.402-0.396,0.563
		c-0.025,0.098,0.106,0.24,0.167,0.362c0.171-0.099,0.405-0.158,0.489-0.305C39.622,103.116,39.446,102.894,39.309,102.587z
		 M63.536,32.979c-0.018-0.07-0.034-0.141-0.052-0.209c-0.017,0.127-0.031,0.256-0.047,0.384
		C63.47,33.097,63.504,33.036,63.536,32.979z M67.062,58.206c0.034,0.064,0.065,0.127,0.1,0.189
		c0.036-0.062,0.111-0.135,0.097-0.183c-0.025-0.084-0.104-0.152-0.16-0.229C67.085,58.06,67.073,58.133,67.062,58.206z
		 M80.934,116.142c-0.024,0.051-0.075,0.108-0.063,0.147c0.012,0.037,0.092,0.051,0.144,0.075c0.022-0.05,0.075-0.11,0.063-0.148
		C81.063,116.179,80.983,116.165,80.934,116.142z M78.466,47.17c0.023,0.061,0.048,0.12,0.068,0.18
		c0.107-0.06,0.217-0.113,0.313-0.188c0.014-0.011-0.041-0.113-0.065-0.173C78.677,47.049,78.571,47.109,78.466,47.17z
		 M74.453,57.655c0.061,0.115,0.12,0.23,0.181,0.346c0.09-0.151,0.204-0.301,0.251-0.466c0.016-0.048-0.162-0.152-0.254-0.23
		C74.572,57.421,74.513,57.538,74.453,57.655z M190.241,66.793c-0.027,0.13-0.053,0.262-0.079,0.392
		c0.103,0.011,0.204,0.021,0.306,0.031c-0.012-0.134-0.015-0.27-0.042-0.399C190.422,66.796,190.306,66.799,190.241,66.793z
		 M55.669,119.001c0.025,0.066,0.051,0.134,0.074,0.198c0.096-0.079,0.201-0.146,0.276-0.241c0.021-0.03-0.042-0.129-0.065-0.196
		C55.858,118.842,55.764,118.922,55.669,119.001z M90.456,44.166c0.023,0.063,0.045,0.124,0.068,0.188
		c0.065-0.08,0.149-0.151,0.192-0.241c0.021-0.043-0.04-0.122-0.063-0.185C90.589,44.007,90.522,44.086,90.456,44.166z
		 M57.501,69.573c0.06-0.004,0.117-0.007,0.176-0.011c-0.032-0.089-0.064-0.18-0.098-0.268c-0.047,0.035-0.121,0.064-0.132,0.107
		C57.435,69.454,57.48,69.517,57.501,69.573z M57.681,45.678c0.021,0.059,0.045,0.115,0.068,0.175
		c0.058-0.077,0.132-0.148,0.165-0.236c0.019-0.045-0.038-0.117-0.06-0.178C57.796,45.519,57.738,45.599,57.681,45.678z
		 M59.11,37.23c0.026,0.06,0.051,0.119,0.076,0.178c0.064-0.08,0.146-0.153,0.188-0.245c0.019-0.041-0.045-0.119-0.072-0.182
		C59.239,37.065,59.175,37.148,59.11,37.23z M62.981,69.631c-0.05,0.053-0.139,0.104-0.134,0.146c0.014,0.132,0.063,0.258,0.1,0.387
		c0.047-0.047,0.141-0.098,0.136-0.141C63.069,69.892,63.019,69.766,62.981,69.631z M128.326,44.913
		c-0.067-0.1-0.126-0.207-0.208-0.291c-0.016-0.018-0.169,0.045-0.17,0.072c-0.003,0.123,0.027,0.248,0.045,0.372
		C128.104,45.017,128.214,44.965,128.326,44.913z M137.484,41.241c-0.054,0-0.146-0.015-0.151,0.004
		c-0.026,0.066-0.045,0.148-0.028,0.219c0.012,0.066,0.069,0.121,0.108,0.181C137.437,41.51,137.46,41.376,137.484,41.241z
		 M161.985,73.937c-0.051,0.033-0.104,0.067-0.154,0.102c0.064,0.085,0.124,0.174,0.197,0.248c0.01,0.01,0.098-0.063,0.147-0.095
		C162.114,74.105,162.05,74.021,161.985,73.937z M18.585,75.622c-0.006-0.063-0.01-0.129-0.016-0.192
		c-0.057,0.058-0.133,0.106-0.162,0.178c-0.017,0.038,0.045,0.107,0.071,0.165C18.515,75.722,18.55,75.671,18.585,75.622z
		 M20.626,104.129c-0.078,0.094-0.156,0.188-0.235,0.279c0.05,0.038,0.138,0.112,0.145,0.106c0.087-0.085,0.163-0.183,0.24-0.275
		C20.726,104.202,20.677,104.166,20.626,104.129z M125.313,41.507c-0.062-0.008-0.176-0.026-0.18-0.019
		c-0.033,0.128-0.052,0.259-0.074,0.39c0.063,0.008,0.18,0.026,0.184,0.018C125.276,41.769,125.294,41.636,125.313,41.507z
		 M116.278,110.997c-0.137,0.047-0.314,0.058-0.396,0.15c-0.051,0.057,0.052,0.244,0.084,0.373c0.179-0.059,0.356-0.115,0.534-0.172
		C116.427,111.231,116.354,111.115,116.278,110.997z M143.104,53.69c-0.055,0.02-0.152,0.033-0.155,0.061
		c-0.021,0.133-0.016,0.271-0.02,0.406c0.09-0.033,0.254-0.063,0.256-0.097C143.187,53.938,143.136,53.813,143.104,53.69z
		 M148.87,45.832c0.025,0.065,0.037,0.164,0.085,0.188c0.044,0.021,0.126-0.041,0.19-0.066c-0.025-0.066-0.053-0.133-0.078-0.199
		C149.001,45.779,148.935,45.806,148.87,45.832z M150.075,40.456c-0.039,0.045-0.107,0.089-0.112,0.14
		c-0.006,0.053,0.046,0.111,0.073,0.169c0.042-0.046,0.109-0.091,0.115-0.141C150.157,40.571,150.103,40.513,150.075,40.456z
		 M169.259,42.844c-0.01,0.109-0.021,0.222-0.03,0.333c0.043-0.052,0.119-0.101,0.123-0.154
		C169.356,42.966,169.294,42.903,169.259,42.844z M160.567,44.743l0.162,0.027l-0.039-0.153L160.567,44.743z M210.507,9.353
		c-0.037,0.051-0.074,0.103-0.112,0.154c0.08,0.036,0.162,0.072,0.242,0.107c0.014-0.063,0.053-0.137,0.03-0.185
		C210.65,9.389,210.563,9.377,210.507,9.353z M217.007,44.054l0.093-0.165l-0.142-0.023L217.007,44.054z M215.261,58.069
		c0-0.07,0-0.139,0-0.207c-0.091,0.045-0.18,0.089-0.271,0.133c0.038,0.058,0.065,0.135,0.117,0.156
		C215.142,58.167,215.21,58.099,215.261,58.069z M213.522,43.515l-0.028,0.172l0.159-0.048L213.522,43.515z M211.513,57.167
		c0-0.063,0-0.131,0-0.196c-0.085,0.043-0.171,0.084-0.256,0.126c0.034,0.055,0.059,0.128,0.107,0.154
		C211.392,57.267,211.462,57.198,211.513,57.167z M38.519,68.456c-0.063,0.027-0.127,0.058-0.189,0.083
		c0.085,0.036,0.172,0.073,0.258,0.108C38.564,68.583,38.542,68.52,38.519,68.456z M34.376,39.835l0.103-0.17l-0.16-0.021
		L34.376,39.835z M33.877,115.464c0,0.063,0,0.122,0,0.183c0.053-0.002,0.104-0.003,0.155-0.004
		c-0.002-0.062,0.01-0.125-0.014-0.176C34.01,115.447,33.923,115.464,33.877,115.464z M31.872,116.339
		c-0.063-0.032-0.127-0.065-0.189-0.1c-0.033,0.063-0.065,0.126-0.099,0.189c0.063,0.03,0.136,0.096,0.188,0.082
		C31.817,116.502,31.84,116.399,31.872,116.339z M27.553,70.851l0.023-0.166l-0.15,0.067L27.553,70.851z M53.591,45.568
		c-0.049,0.053-0.129,0.103-0.135,0.159c-0.006,0.059,0.062,0.125,0.095,0.188c0.048-0.052,0.128-0.1,0.134-0.155
		C53.688,45.699,53.624,45.632,53.591,45.568z M53.394,72.899l0.144-0.113l-0.151-0.063L53.394,72.899z M49.124,70.135
		c0.023-0.062,0.082-0.14,0.063-0.181c-0.022-0.046-0.113-0.061-0.174-0.088c-0.023,0.063-0.081,0.139-0.063,0.18
		C48.972,70.094,49.064,70.105,49.124,70.135z M48.09,37.952c-0.029-0.063-0.059-0.123-0.087-0.184
		c-0.043,0.05-0.113,0.096-0.121,0.149c-0.007,0.055,0.05,0.119,0.077,0.181C48.002,38.052,48.046,38.001,48.09,37.952z
		 M47.748,117.722c-0.027-0.054-0.056-0.107-0.081-0.16c-0.06,0.063-0.117,0.129-0.176,0.194c0.051,0.029,0.104,0.08,0.153,0.079
		C47.679,117.835,47.712,117.763,47.748,117.722z M44.231,73.777c-0.104-0.036-0.177-0.062-0.25-0.087
		c0.017,0.053,0.033,0.106,0.049,0.16C44.083,73.831,44.138,73.812,44.231,73.777z M40.833,118.39
		c0.034,0.052,0.067,0.104,0.103,0.153c0.034-0.05,0.094-0.102,0.096-0.151c0-0.052-0.059-0.104-0.092-0.155
		C40.903,118.287,40.868,118.339,40.833,118.39z M40.474,37.003l0.069-0.131l-0.1-0.022L40.474,37.003z M39.981,40.452
		c-0.035,0.06-0.072,0.116-0.108,0.174c0.091,0.035,0.182,0.07,0.271,0.105c0.001-0.068,0.021-0.148-0.005-0.203
		C40.119,40.487,40.036,40.476,39.981,40.452z M9.956,62.919c0,0.111-0.002,0.224,0.008,0.334c0,0.006,0.155,0.006,0.155,0.002
		c0.011-0.11,0.01-0.225,0.011-0.336C10.073,62.919,10.018,62.919,9.956,62.919z M9.84,76.522l0.09,0.131l0.077-0.15L9.84,76.522z
		 M20.623,79.421c0.061,0.107,0.115,0.221,0.188,0.32c0.008,0.01,0.166-0.051,0.166-0.079c0.002-0.126-0.029-0.252-0.049-0.377
		C20.825,79.329,20.725,79.374,20.623,79.421z M13.915,73.455c-0.028-0.047-0.058-0.094-0.087-0.142
		c-0.037,0.039-0.103,0.074-0.105,0.115c-0.005,0.045,0.051,0.094,0.077,0.142C13.838,73.531,13.876,73.493,13.915,73.455z
		 M13.878,86.849c-0.061,0.012-0.151,0.002-0.175,0.038c-0.034,0.052-0.016,0.134-0.021,0.203c0.091-0.02,0.183-0.039,0.274-0.06
		C13.931,86.97,13.905,86.909,13.878,86.849z M12.811,72.942c-0.059,0.005-0.113,0.01-0.171,0.014
		c0.036,0.086,0.072,0.172,0.108,0.256c0.043-0.034,0.113-0.065,0.121-0.108C12.88,73.056,12.833,72.996,12.811,72.942z
		 M117.165,116.857c-0.021,0.063-0.042,0.126-0.063,0.188c0.096,0.009,0.19,0.018,0.287,0.025c-0.013-0.066-0.005-0.15-0.043-0.191
		C117.315,116.847,117.228,116.864,117.165,116.857z M106.497,115.661c0.021,0.063,0.04,0.125,0.06,0.188
		c0.062-0.026,0.149-0.039,0.174-0.084c0.021-0.041-0.03-0.118-0.05-0.181C106.618,115.61,106.558,115.636,106.497,115.661z
		 M101.461,42.003l-0.13,0.029l0.073,0.135L101.461,42.003z M93.774,50.329c0,0.115-0.002,0.233,0.007,0.351
		c0,0.004,0.099,0.001,0.151,0.002c0-0.117,0-0.234,0-0.353C93.88,50.329,93.827,50.329,93.774,50.329z M90.044,60.128
		c-0.021,0.064-0.041,0.129-0.062,0.193c0.09,0.009,0.181,0.018,0.271,0.029c-0.009-0.068,0.001-0.149-0.035-0.196
		C90.192,60.12,90.104,60.135,90.044,60.128z M142.003,64.988l0.117,0.095l0.003-0.188L142.003,64.988z M136.782,102.703
		c-0.055,0.119-0.111,0.238-0.168,0.358c0.125,0.053,0.277,0.177,0.365,0.142c0.09-0.037,0.118-0.229,0.174-0.353
		C137.03,102.802,136.907,102.752,136.782,102.703z M130.774,47.927c0.023-0.06,0.08-0.132,0.063-0.175
		c-0.019-0.043-0.106-0.058-0.166-0.084c-0.023,0.06-0.081,0.131-0.063,0.168C130.631,47.884,130.717,47.897,130.774,47.927z
		 M128.899,47.159l0.047,0.172l0.09-0.128L128.899,47.159z M129.019,49.372l0.092,0.113l0.045-0.115L129.019,49.372z
		 M126.048,43.054c0.123-0.027,0.193-0.042,0.263-0.06c-0.035-0.051-0.072-0.102-0.108-0.151
		C126.165,42.894,126.128,42.944,126.048,43.054z M125.968,94.307c-0.122,0.042-0.246,0.082-0.369,0.123
		c0.046,0.117,0.093,0.232,0.139,0.351c0.122-0.052,0.265-0.08,0.353-0.166C126.12,94.584,126.014,94.414,125.968,94.307z
		 M121.671,110.899c-0.062,0.007-0.141-0.009-0.178,0.023c-0.042,0.037-0.047,0.118-0.067,0.182
		c0.103-0.007,0.201-0.015,0.303-0.021C121.708,111.024,121.689,110.963,121.671,110.899z M67.752,36.534
		c0.006-0.068,0.029-0.143,0.008-0.203c-0.008-0.021-0.111-0.015-0.172-0.021c-0.005,0.069-0.023,0.145-0.006,0.206
		C67.59,36.537,67.692,36.53,67.752,36.534z M66.19,39.853c-0.047-0.028-0.098-0.058-0.146-0.083
		c-0.021,0.048-0.072,0.109-0.061,0.144c0.019,0.041,0.091,0.06,0.14,0.086C66.146,39.949,66.169,39.9,66.19,39.853z M62.733,40.081
		l-0.104-0.147l-0.069,0.146L62.733,40.081z M61.64,39.415c0.005-0.067,0.022-0.14,0.008-0.203
		c-0.006-0.018-0.107-0.014-0.164-0.018c-0.005,0.066-0.026,0.139-0.009,0.2C61.479,39.415,61.581,39.409,61.64,39.415z
		 M60.327,45.295c-0.045-0.048-0.091-0.097-0.137-0.145c-0.056,0.104-0.125,0.204-0.158,0.313c-0.01,0.035,0.081,0.1,0.125,0.148
		C60.215,45.507,60.271,45.401,60.327,45.295z M59.584,63.567c0.031-0.06,0.063-0.117,0.096-0.177
		c-0.06-0.026-0.135-0.087-0.174-0.069c-0.049,0.022-0.065,0.109-0.098,0.168C59.467,63.515,59.525,63.541,59.584,63.567z
		 M58.836,117.95c-0.025-0.05-0.051-0.101-0.076-0.15c-0.011,0.092-0.021,0.183-0.033,0.272
		C58.763,118.032,58.8,117.992,58.836,117.95z M57.841,40.909c-0.049,0.046-0.136,0.09-0.143,0.143
		c-0.006,0.056,0.065,0.119,0.104,0.181c0.05-0.051,0.134-0.096,0.139-0.152C57.944,41.024,57.873,40.961,57.841,40.909z
		 M58.218,116.068c-0.061,0.021-0.119,0.04-0.18,0.06c0.023,0.063,0.031,0.15,0.075,0.178c0.035,0.021,0.115-0.032,0.175-0.053
		C58.265,116.19,58.241,116.128,58.218,116.068z M56.115,35.442l0.03-0.181l-0.167,0.05L56.115,35.442z M86.439,40.585
		c0.052,0.039,0.104,0.078,0.157,0.119c0.047-0.096,0.094-0.19,0.142-0.287c-0.066-0.004-0.147-0.035-0.194-0.008
		C86.492,40.44,86.473,40.524,86.439,40.585z M83.992,56.76c-0.038,0.114-0.079,0.229-0.104,0.348
		c-0.004,0.009,0.105,0.043,0.162,0.064c0.036-0.114,0.077-0.229,0.103-0.344C84.155,56.817,84.048,56.782,83.992,56.76z
		 M82.119,66.003l0.154-0.037l-0.091-0.153L82.119,66.003z M80.369,61.833c0.034-0.055,0.069-0.108,0.104-0.165
		c-0.089-0.034-0.177-0.066-0.265-0.103c0,0.065-0.021,0.145,0.006,0.198C80.235,61.802,80.316,61.81,80.369,61.833z
		 M78.623,119.478c-0.03,0.102-0.052,0.172-0.073,0.244c0.052-0.02,0.104-0.036,0.153-0.056
		C78.682,119.616,78.659,119.565,78.623,119.478z M76.615,68.157c-0.054,0.012-0.138,0.006-0.154,0.037
		c-0.026,0.053-0.011,0.127-0.014,0.191c0.079-0.02,0.157-0.037,0.235-0.056C76.66,68.272,76.638,68.215,76.615,68.157z
		 M75.969,44.854c0.024-0.051,0.053-0.103,0.077-0.152c-0.05-0.021-0.112-0.076-0.147-0.061c-0.039,0.018-0.055,0.093-0.079,0.145
		C75.868,44.809,75.919,44.831,75.969,44.854z M70.099,67.536l-0.031,0.187l0.174-0.049L70.099,67.536z M69.302,45.511
		c-0.026-0.059-0.042-0.146-0.087-0.166c-0.042-0.02-0.116,0.03-0.178,0.051c0.049,0.087,0.098,0.174,0.147,0.262
		C69.224,45.608,69.263,45.56,69.302,45.511z M68.626,42.803c-0.055,0.031-0.108,0.064-0.162,0.098
		c0.06,0.085,0.118,0.17,0.179,0.255c0.032-0.059,0.091-0.121,0.088-0.18C68.726,42.916,68.662,42.86,68.626,42.803z M68.021,68.188
		l0.052,0.19l0.101-0.143L68.021,68.188z M64.31,42.778l0.071,0.148l0.071-0.148H64.31z M59.324,41.89l-0.077-0.156l-0.076,0.156
		H59.324z M57.83,34.63l-0.091,0.154l0.143,0.021L57.83,34.63z M83.022,39.915l0.064,0.132l0.067-0.13L83.022,39.915z M82.13,61.007
		l0.11-0.149l-0.163-0.033L82.13,61.007z M102.808,114.885l-0.122-0.019l0.045,0.135L102.808,114.885z M69.575,38.493l-0.14-0.015
		l0.058,0.152L69.575,38.493z M76.536,47.548l0.104-0.159l-0.171-0.022L76.536,47.548z M13.292,62.89l0.086-0.111l-0.127-0.026
		L13.292,62.89z M22.025,106.733l0.014-0.139l-0.142,0.059L22.025,106.733z M36.339,112.944c-0.055,0.012-0.133,0.01-0.155,0.044
		c-0.035,0.05-0.029,0.127-0.041,0.193c0.093-0.021,0.186-0.043,0.278-0.063C36.394,113.06,36.366,113.002,36.339,112.944z
		 M35.767,34.694c-0.021,0.051-0.04,0.103-0.06,0.154c0.065-0.035,0.132-0.07,0.197-0.107C35.858,34.727,35.813,34.71,35.767,34.694
		z M35.513,102.34c-0.052-0.048-0.104-0.097-0.152-0.144c-0.072,0.102-0.151,0.201-0.207,0.311
		c-0.008,0.018,0.098,0.091,0.149,0.136C35.373,102.542,35.443,102.44,35.513,102.34z M51.646,117.288l0.152,0.011l-0.065-0.163
		L51.646,117.288z M50.388,53.752c-0.04,0.11-0.065,0.181-0.091,0.249c0.048-0.012,0.134-0.019,0.136-0.037
		C50.44,53.912,50.413,53.856,50.388,53.752z M49.453,72.221l-0.139-0.016l0.057,0.146L49.453,72.221z M34.335,34.64
		c-0.021,0.051-0.041,0.101-0.062,0.15c0.047,0.019,0.116,0.062,0.136,0.045c0.036-0.029,0.044-0.096,0.063-0.145
		C34.427,34.674,34.381,34.656,34.335,34.64z M140.609,52.193l0.136,0.011l-0.058-0.145L140.609,52.193z M129.442,59.181
		l0.081-0.114l-0.12-0.026L129.442,59.181z M149.052,51.646l0.168,0.018l-0.067-0.174L149.052,51.646z M143.569,52.157l-0.126-0.019
		l0.045,0.138L143.569,52.157z M147.593,80.698l0.14,0.016l-0.055-0.145L147.593,80.698z M109.345,46.391l-0.086,0.122l0.133,0.021
		L109.345,46.391z M127.577,47.416l-0.09,0.119l0.137,0.025L127.577,47.416z M121.446,94.802l0.092-0.137l-0.139-0.023
		L121.446,94.802z M161.711,55.141c0.091,0.015,0.184,0.027,0.273,0.042c-0.04-0.042-0.075-0.111-0.12-0.119
		C161.817,55.057,161.763,55.11,161.711,55.141z"/>
	<path fill="#FFFFFF" d="M136.198,111.227c0.268-0.448,0.535-0.896,0.89-1.492c0.174,0.312,0.396,0.54,0.417,0.785
		c0.058,0.689,0.125,1.404,0.011,2.079c-0.113,0.674-0.537,1.294-0.65,1.967c-0.113,0.664,0.307,1.374-0.092,2.045l0.043-0.057
		c-1.363-0.76-0.629-2.353-1.343-3.401c-0.313-0.46,0.173-0.975,0.493-1.399c0.133-0.178,0.2-0.4,0.299-0.604
		C136.265,111.151,136.198,111.227,136.198,111.227z"/>
	<path fill="#FFFFFF" d="M140.278,112.827c0.042,0.924-0.084,1.658-1.313,1.607c-0.257-0.011-0.531,0.442-0.856,0.734
		c-0.028-0.29-0.123-0.532-0.059-0.724c0.195-0.566,0.601-1.1,0.646-1.668c0.044-0.563-0.322-1.148-0.366-1.733
		c-0.022-0.324,0.177-0.729,0.403-0.988c0.154-0.178,0.522-0.169,1.004-0.302c0,0.771,0.016,1.362-0.006,1.955
		c-0.018,0.513,0.201,0.879,0.599,1.168L140.278,112.827z"/>
	<path fill="#FFFFFF" d="M233.763,39.282c-0.063,0.043-0.12,0.106-0.188,0.125c-0.065,0.017-0.19,0.012-0.208-0.025
		c-0.453-0.877-0.895-1.76-1.408-2.782c1.06-0.377,2.056-0.082,3.185-0.406c-0.188,1.335-0.086,2.508-1.379,3.097
		c0.123-0.23,0.245-0.458,0.368-0.687c-0.053-0.023-0.104-0.048-0.157-0.07C233.903,38.782,233.833,39.031,233.763,39.282z"/>
	<path fill="#FFFFFF" d="M242.863,37.401c0.292-0.999,0.454-1.549,0.631-2.156c-0.267-0.162-0.56-0.34-0.851-0.519
		c0.041-0.078,0.069-0.192,0.104-0.193c0.682-0.028,1.394-0.201,1.984,0.294c0.336,0.279,0.354,0.654,0.184,1.05
		C244.616,36.573,243.979,36.836,242.863,37.401z"/>
	<path fill="#FFFFFF" d="M145.79,110.495c-0.25,1.187-0.09,2.409-0.587,3.571C143.831,112.747,143.915,112.194,145.79,110.495z"/>
	<path fill="#FFFFFF" d="M17.2,106.068c-0.762-1.317-1.419-2.585-0.609-4.116c0.625,0.262,0.886,0.773,0.863,1.382
		C17.423,104.247,17.289,105.157,17.2,106.068z"/>
	<path fill="#FFFFFF" d="M227.812,40.139c0.791,0.931,0.648,1.884,0.303,2.826c-0.146,0.398-0.486,0.611-0.908,0.467
		c-0.135-0.046-0.192-0.317-0.286-0.484c0.701-0.151,0.688-0.698,0.719-1.247C227.667,41.179,227.751,40.659,227.812,40.139z"/>
	<path fill="#FFFFFF" d="M140.33,112.878c0.863-0.777,1.591-1.619,1.384-2.911c-0.002-0.011,0.261-0.064,0.541-0.135
		c0.251,1.054,0.007,2.046-0.147,2.966c-0.688,0.552-1.251,0.158-1.824,0.032C140.278,112.827,140.33,112.878,140.33,112.878z"/>
	<path fill="#FFFFFF" d="M195.577,66.76c0.49-0.336,0.98-0.671,1.523-1.041c0.17,0.645,0.336,1.271,0.531,2.005
		c-1.056,0.328-1.504-0.401-2.001-1.031C195.628,66.696,195.577,66.76,195.577,66.76z"/>
	<path fill="#FFFFFF" d="M156.534,111.978c-0.024-0.228-0.065-0.453-0.063-0.683c0.001-0.147,0.063-0.297,0.098-0.445
		c1.404-0.335,1.404-0.335,2.348,0.181C158.179,111.594,156.88,110.704,156.534,111.978z"/>
	<path fill="#FFFFFF" d="M233.97,33.806c0.554-0.144,0.813-0.275,1.063-0.259c0.471,0.031,0.809,0.442,0.611,0.726
		c-0.144,0.203-0.52,0.426-0.709,0.369C234.651,34.556,234.438,34.233,233.97,33.806z"/>
	<path fill="#FFFFFF" d="M10.973,102.882c-0.656,0.175-1.313,0.35-1.971,0.521c-0.43-0.86,0.169-1.257,0.468-1.764
		c0.113,0.067,0.237,0.115,0.329,0.198c0.394,0.354,0.775,0.72,1.162,1.079L10.973,102.882z"/>
	<path fill="#FFFFFF" d="M172.951,111.755c-0.851-1.423-0.011-2.034,0.278-2.769C173.153,109.741,173.077,110.495,172.951,111.755z"
		/>
	<path fill="#FFFFFF" d="M146.314,102.319c0.089,0.653,0.195,0.938,0.142,1.188c-0.055,0.253-0.231,0.521-0.436,0.685
		c-0.086,0.068-0.525-0.086-0.539-0.178c-0.039-0.265,0.018-0.563,0.115-0.816C145.669,103.006,145.862,102.858,146.314,102.319z"/>
	<path fill="#FFFFFF" d="M14.263,109.96c0.109-0.699,0.222-1.399,0.332-2.1C14.836,108.609,15.224,109.355,14.263,109.96z"/>
	<path fill="#FFFFFF" d="M159.202,108.982c-0.546,0.135-1.091,0.269-1.834,0.452c0.135-0.381,0.147-0.618,0.271-0.716
		c0.164-0.131,0.41-0.186,0.629-0.211c0.285-0.034,0.577-0.008,0.865-0.008C159.155,108.66,159.179,108.821,159.202,108.982z"/>
	<path fill="#FFFFFF" d="M167.525,108.956c0.693,0.386,0.242,0.979,0.232,1.477c-0.002,0.132-0.322,0.377-0.481,0.365
		c-0.383-0.028-0.528-0.38-0.409-0.69c0.163-0.427,0.442-0.811,0.672-1.211L167.525,108.956z"/>
	<path fill="#FFFFFF" d="M24.636,111.966c0.054,0.45,0.087,0.903,0.169,1.35c0.063,0.353,0.188,0.694,0.391,1.407
		C24.175,113.763,24.571,112.853,24.636,111.966z"/>
	<path fill="#FFFFFF" d="M220.785,15.427c0.397-0.192,0.777-0.48,1.194-0.556c0.536-0.095,0.744,0.283,0.776,0.779
		c-0.792,0.379-1.366-0.146-2.01-0.251C220.739,15.392,220.785,15.427,220.785,15.427z"/>
	<path fill="#FFFFFF" d="M12.497,109.826c-0.817-0.487-0.996-1.099-0.574-1.83c0.185,0.064,0.305,0.079,0.311,0.112
		C12.329,108.681,12.411,109.254,12.497,109.826z"/>
	<path fill="#FFFFFF" d="M10.967,104.697c0.21,0.673,0.376,1.356,0.057,2.028c-0.066,0.141-0.359,0.175-0.547,0.26
		c-0.078-0.194-0.269-0.43-0.215-0.576c0.203-0.568,0.483-1.106,0.729-1.668C10.983,104.729,10.967,104.697,10.967,104.697z"/>
	<path fill="#FFFFFF" d="M163.128,112.02c-0.686-0.591-0.968-0.785-1.178-1.038c-0.098-0.116-0.057-0.35-0.08-0.529
		c0.146,0.041,0.355,0.035,0.425,0.131C162.509,110.878,162.667,111.21,163.128,112.02z"/>
	<path fill="#FFFFFF" d="M222.046,58.816c-0.334,0.239-0.521,0.407-0.737,0.51c-0.064,0.03-0.32-0.173-0.313-0.188
		c0.111-0.243,0.252-0.474,0.387-0.707C221.541,58.524,221.7,58.616,222.046,58.816z"/>
	<path fill="#FFFFFF" d="M233.448,48.174c0.243-0.503,0.701-0.585,1.169-0.511c0.596,0.095,0.427,0.484,0.246,0.857
		c-0.598,0.303-0.979-0.207-1.448-0.392L233.448,48.174z"/>
	<path fill="#FFFFFF" d="M233.415,48.13c0.228,0.649,0.254,1.277-0.223,2.097c-0.454-0.914,0.149-1.441,0.263-2.043
		C233.448,48.174,233.415,48.13,233.415,48.13z"/>
	<path fill="#FFFFFF" d="M16.538,109.13c0.898,0.58,1.004,0.98,0.566,1.879C16.877,110.255,16.759,109.864,16.538,109.13z"/>
	<path fill="#FFFFFF" d="M14.145,105.543c-0.048-0.671-0.126-0.911-0.063-1.103c0.062-0.173,0.275-0.295,0.422-0.438
		c0.063,0.19,0.195,0.393,0.17,0.57C14.646,104.776,14.477,104.959,14.145,105.543z"/>
	<path fill="#FFFFFF" d="M107.46,119.419c0.459-0.344,0.617-0.555,0.795-0.571c0.251-0.028,0.52,0.083,0.775,0.153
		c0.023,0.005,0.045,0.18,0.017,0.196c-0.171,0.109-0.347,0.241-0.538,0.279C108.306,119.518,108.084,119.461,107.46,119.419z"/>
	<path fill="#FFFFFF" d="M223.354,10.338c-0.145,0.156-0.252,0.341-0.313,0.326c-0.182-0.042-0.344-0.163-0.514-0.253
		c0.084-0.091,0.176-0.262,0.254-0.256C222.963,10.167,223.14,10.264,223.354,10.338z"/>
	<path fill="#FFFFFF" d="M101.411,119.849c-0.562-0.035-1.123-0.068-2.06-0.127c0.991-0.386,0.991-0.386,2.074,0.146
		C101.437,119.877,101.411,119.849,101.411,119.849z"/>
	<path fill="#FFFFFF" d="M23.885,116.274c0.145,0.154,0.329,0.303,0.311,0.339c-0.095,0.173-0.247,0.316-0.377,0.47
		c-0.089-0.095-0.271-0.219-0.25-0.276C23.63,116.62,23.767,116.46,23.885,116.274z"/>
	<path fill="#FFFFFF" d="M228.648,37.587c0.03-0.438,0.019-0.646,0.074-0.835c0.017-0.056,0.226-0.063,0.349-0.068
		c0.016-0.002,0.077,0.146,0.053,0.188C229.024,37.052,228.899,37.217,228.648,37.587z"/>
	<path fill="#FFFFFF" d="M218.852,58.94c0.185,0.104,0.31,0.177,0.435,0.248c-0.228,0.102-0.45,0.223-0.688,0.288
		c-0.057,0.015-0.165-0.163-0.251-0.253C218.525,59.124,218.704,59.023,218.852,58.94z"/>
	<path fill="#FFFFFF" d="M171.595,109.901c0.044,0.132,0.139,0.275,0.112,0.392c-0.021,0.101-0.181,0.171-0.278,0.255
		c-0.046-0.127-0.148-0.269-0.121-0.377C171.335,110.063,171.493,109.99,171.595,109.901z"/>
	<path fill="#FFFFFF" d="M165.016,109.404c0.103-0.071,0.206-0.144,0.31-0.216c0.037,0.061,0.119,0.139,0.104,0.177
		c-0.051,0.12-0.138,0.226-0.21,0.336C165.151,109.602,165.083,109.503,165.016,109.404z"/>
	<path fill="#FFFFFF" d="M155.122,109.333c0.035,0.06,0.114,0.152,0.101,0.17c-0.078,0.097-0.179,0.172-0.271,0.254
		c-0.039-0.058-0.119-0.151-0.104-0.168C154.926,109.493,155.026,109.415,155.122,109.333z"/>
	<path fill="#FFFFFF" d="M230.424,34.332c-0.027,0.11-0.058,0.218-0.087,0.327c-0.059-0.016-0.17-0.039-0.169-0.047
		c0.018-0.111,0.048-0.221,0.076-0.33C230.304,34.3,230.364,34.315,230.424,34.332z"/>
	<path fill="#FFFFFF" d="M241.19,36.749c0.043,0.116,0.092,0.23,0.118,0.351c0.003,0.015-0.12,0.057-0.185,0.086
		c-0.044-0.114-0.093-0.228-0.118-0.346C241.003,36.823,241.125,36.779,241.19,36.749z"/>
	<path fill="#FFFFFF" d="M219.034,10.501c0.018,0.107,0.041,0.216,0.045,0.324c0,0.011-0.114,0.025-0.176,0.039
		c-0.019-0.111-0.037-0.223-0.043-0.335C218.858,10.523,218.974,10.511,219.034,10.501z"/>
	<path fill="#FFFFFF" d="M174.323,109.431c0.039-0.055,0.078-0.107,0.115-0.16c0.084,0.08,0.172,0.156,0.242,0.247
		c0.01,0.014-0.074,0.099-0.113,0.148C174.485,109.589,174.404,109.511,174.323,109.431z"/>
	<path fill="#FFFFFF" d="M225.723,10.107c0.072,0.014,0.146,0.025,0.218,0.04c-0.063,0.105-0.11,0.223-0.191,0.311
		c-0.025,0.029-0.134-0.016-0.205-0.026C225.604,10.322,225.663,10.214,225.723,10.107z"/>
	<path fill="#FFFFFF" d="M222.321,13.597c0.063,0.029,0.128,0.06,0.193,0.089c-0.031,0.064-0.049,0.166-0.098,0.185
		c-0.046,0.019-0.126-0.049-0.189-0.08C222.259,13.728,222.29,13.663,222.321,13.597z"/>
	<path fill="#FFFFFF" d="M153.132,113.1c0.021-0.055,0.041-0.107,0.062-0.161c0.049,0.033,0.142,0.08,0.137,0.1
		c-0.022,0.082-0.076,0.154-0.118,0.232C153.184,113.214,153.157,113.156,153.132,113.1z"/>
	<path fill="#FFFFFF" d="M151.798,103.105c0.034-0.054,0.068-0.106,0.102-0.16c0.036,0.052,0.113,0.122,0.1,0.151
		c-0.034,0.075-0.107,0.137-0.166,0.201C151.821,103.233,151.81,103.17,151.798,103.105z"/>
	<path fill="#FFFFFF" d="M234.984,41.431c0.032,0.055,0.063,0.11,0.099,0.168c-0.094,0.025-0.188,0.053-0.281,0.08
		c0.003-0.065-0.018-0.146,0.013-0.193C234.84,41.446,234.925,41.447,234.984,41.431z"/>
	<path fill="#FFFFFF" d="M161.345,112.715c0.016,0.135,0.034,0.27,0.036,0.404c0,0.011-0.112,0.025-0.174,0.039
		c-0.018-0.138-0.038-0.272-0.045-0.41C161.163,112.739,161.282,112.726,161.345,112.715z"/>
	<polygon fill="#FFFFFF" points="149.238,104.25 149.222,104.071 149.377,104.151 	"/>
	<path fill="#FFFFFF" d="M154.829,111.911c-0.059-0.006-0.155,0.004-0.164-0.019c-0.021-0.055,0.001-0.126,0.006-0.188
		c0.06,0.005,0.154-0.006,0.166,0.021C154.859,111.775,154.835,111.847,154.829,111.911z"/>
	<path fill="#FFFFFF" d="M232.722,9.91c0.063,0.03,0.125,0.062,0.188,0.09c-0.035,0.063-0.057,0.159-0.108,0.181
		c-0.044,0.019-0.123-0.05-0.187-0.08C232.649,10.037,232.686,9.974,232.722,9.91z"/>
	<path fill="#FFFFFF" d="M220.279,54.916c0.028-0.063,0.042-0.155,0.091-0.181c0.041-0.021,0.121,0.038,0.187,0.063
		c-0.029,0.063-0.043,0.154-0.093,0.181C220.423,54.997,220.342,54.938,220.279,54.916z"/>
	<path fill="#FFFFFF" d="M217.634,10.666c-0.043,0.049-0.088,0.099-0.132,0.147c-0.066-0.089-0.146-0.174-0.193-0.272
		c-0.012-0.021,0.08-0.095,0.123-0.144C217.499,10.486,217.567,10.575,217.634,10.666z"/>
	<polygon fill="#FFFFFF" points="216.989,29.532 217.122,29.394 217.177,29.56 	"/>
	<path fill="#FFFFFF" d="M13.233,108.376c0.063,0,0.123,0,0.184,0c-0.001,0.117,0,0.233-0.011,0.349
		c-0.001,0.006-0.165,0.006-0.166,0C13.23,108.609,13.233,108.492,13.233,108.376z"/>
	<polygon fill="#FFFFFF" points="146.736,113.729 146.78,113.594 146.845,113.704 	"/>
	<polygon fill="#FFFFFF" points="139.319,116.39 139.425,116.265 139.487,116.419 	"/>
	<path fill="#FFFFFF" d="M136.772,116.61c0.079,0.117,0.162,0.229,0.235,0.35c0.035,0.06,0.058,0.128,0.086,0.191
		c-0.09-0.055-0.227-0.092-0.256-0.17c-0.047-0.126-0.023-0.276-0.026-0.423C136.815,116.554,136.772,116.61,136.772,116.61z"/>
	<polygon fill="#FFFFFF" points="134.194,116.524 134.077,116.479 134.15,116.358 	"/>
	<polygon fill="#FFFFFF" points="128.845,117.363 128.722,117.26 128.872,117.201 	"/>
	<path fill="#FFFFFF" d="M10.961,102.918c-0.005,0.136-0.011,0.27-0.017,0.403c0.006-0.141,0.012-0.281,0.022-0.432
		C10.973,102.882,10.962,102.918,10.961,102.918z"/>
	<path fill="#FFFFFF" d="M25.993,116.459c0.038,0.132,0.076,0.266,0.114,0.396c-0.021-0.044-0.043-0.089-0.057-0.137
		c-0.016-0.066-0.021-0.135-0.041-0.213C26.003,116.496,25.993,116.459,25.993,116.459z"/>
	<polygon fill="#FFFFFF" points="147.324,110.613 147.236,110.755 147.177,110.599 	"/>
	<path fill="#FFFFFF" d="M167.539,108.896c0.016-0.062,0.031-0.121,0.046-0.183c-0.018,0.076-0.034,0.153-0.057,0.236
		C167.525,108.956,167.539,108.896,167.539,108.896z"/>
	<path fill="#FFFFFF" d="M42.856,74.377c-0.127,0.042-0.254,0.081-0.38,0.122c0.042-0.02,0.084-0.043,0.13-0.057
		c0.063-0.019,0.129-0.026,0.204-0.048C42.82,74.388,42.856,74.377,42.856,74.377z"/>
</g>
</svg>
