<?xml version="1.0" encoding="utf-8"?>
<!-- Generator: Adobe Illustrator 16.0.0, SVG Export Plug-In . SVG Version: 6.00 Build 0)  -->
<!DOCTYPE svg PUBLIC "-//W3C//DTD SVG 1.1//EN" "http://www.w3.org/Graphics/SVG/1.1/DTD/svg11.dtd">
<svg version="1.1" id="圖層_1" xmlns="http://www.w3.org/2000/svg" xmlns:xlink="http://www.w3.org/1999/xlink" x="0px" y="0px"
	 width="524.41px" height="69.459px" viewBox="0 0 524.41 69.459" enable-background="new 0 0 524.41 69.459" xml:space="preserve">
<g>
	<path fill="#FFFFFF" d="M497.421,15.911c-2.576,0.352-5.15,0.451-7.76,0.348c-3.09-0.123-6.189,0.042-9.297,0.083
		c-0.078,0.764,0.426,0.62,0.754,0.633c4.033,0.148,8.07,0.251,12.102,0.449c0.83,0.041,1.91-0.196,2.291,1.072
		c0.063,0.211,0.721,0.289,1.113,0.347c0.803,0.119,1.617,0.181,2.717,0.297c-3.053,1.398-3.477,1.653-5.998,1.376
		c-3.738-0.412-7.449,0.177-11.174,0.085c-0.801-0.021-1.604,0.383-2.418,0.505c-0.801,0.119-1.619,0.128-2.482,0.188
		c1.215,0.927,1.545,0.991,6.322,1.266c0.318,0.414,0.672,0.874,1.016,1.318c0.26-0.121,0.469-0.163,0.6-0.289
		c1.096-1.057,1.158-1.146,2.23-0.394c0.559,0.394,1.02,0.612,1.682,0.49c1.848-0.342,3.672-0.207,5.527,0.104
		c2.693,0.45,5.42,0.698,7.871,0.999c-5.482,0.274-11.229,0.561-17.07,0.853c0.156,0.313,0.193,0.479,0.252,0.488
		c1.42,0.205,2.838,0.453,4.268,0.569c1.338,0.11,2.688,0.084,4.033,0.105c0.938,0.017,1.777,0.188,2.662,0.643
		c0.971,0.499,2.156,0.629,3.268,0.785c1.529,0.213,3.115-0.179,4.621,0.435c0.254,0.104,0.607-0.004,0.91-0.053
		c2.055-0.327,4.051-0.559,5.779,1.091c0.367,0.349,1.178,0.264,1.789,0.323c2.477,0.239,4.957,0.448,7.434,0.688
		c0.498,0.048,0.99,0.184,1.438,0.271c0.109,0.73-0.297,0.843-0.715,0.844c-1.869,0.004-3.736-0.059-5.604-0.018
		c-0.699,0.017-1.564,0.036-2.057,0.429c-1.016,0.807-2.076,0.817-3.23,0.725c-0.609-0.047-1.229-0.113-1.832-0.056
		c-3.088,0.297-6.172,0.629-9.41,0.966c1.785,1.404,3.756,1.713,5.809,1.834c2.676,0.156,5.346,0.376,7.941,0.563
		c0.225,0.797-0.174,0.984-0.582,0.961c-1.754-0.103-3.508-0.239-5.26-0.406c-1.455-0.137-2.877-0.227-4.285,0.363
		c-0.646,0.271-1.398,0.383-2.105,0.393c-1.301,0.02-2.428,0.396-3.406,1.244c1.738,0.602,1.738,0.609,3.074,0.465
		c1.023-0.111,2.045-0.253,3.158-0.393c0.979,1.455,2.445,1.857,4.033,2.014c1.445,0.141,2.889,0.32,4.33,0.494
		c1.211,0.146,2.42,0.31,3.594,0.889c-0.482,0-0.967,0.014-1.449-0.002c-3.084-0.107-6.17-0.221-9.254-0.339
		c-0.625-0.022-1.27-0.116-1.514,0.866c0.748,0.474,1.535,0.684,2.506,0.656c3.1-0.088,6.166,0.403,9.24,0.705
		c0.25,0.025,0.475,0.311,0.932,0.627c-2.008,0.398-3.752,0.012-5.488-0.06c-1.346-0.054-2.682-0.308-4.025-0.381
		c-0.996-0.056-2.074-0.323-2.813,0.794c-0.156,0.234-0.754,0.245-1.148,0.24c-0.932-0.012-1.881-0.004-2.793-0.166
		c-1.693-0.303-3.266,0.002-5.104,0.754c0.492,0.302,0.775,0.605,1.092,0.646c1.33,0.172,2.67,0.266,3.988,0.387
		c0.236,0.529,0.438,0.978,0.641,1.424c1.74,0.316,3.455,0.625,5.123,0.927c0.016,0.778-0.42,0.933-0.813,0.882
		c-4.02-0.51-8.049-0.357-12.08-0.369c-3.496-0.014-7.008-0.146-10.443-1.012c-0.74-0.186-1.568-0.027-2.563-0.027
		c1.396,1.135,1.396,1.135,3.973,1.748c-0.98,0.135-1.457,0.275-1.924,0.25c-1.334-0.07-2.691-0.439-3.99-0.281
		c-3.746,0.457-7.43,0.01-11.123-0.443c-1.645-0.203-3.283-0.232-4.947-0.223c-2.674,0.021-5.398,0.305-8.025-0.578
		c-0.377-0.127-0.82-0.069-1.234-0.073c-4.971-0.052-9.918-0.345-14.854-1.036c-1.316-0.186-2.828-0.086-4.184,0.54
		c-1.439,0.668-2.947,0.75-4.533,0.435c-2.754-0.551-5.521-0.43-8.309-0.047c-1.42,0.192-2.926,0.187-4.34-0.054
		c-3.824-0.646-7.666-0.147-11.496-0.356c-1.951-0.105-3.922,0.211-5.883,0.194c-1.338-0.013-2.699-0.157-4.006-0.442
		c-1.766-0.385-3.494-0.213-5.26-0.114c-2.652,0.146-5.318,0.185-7.979,0.146c-1.232-0.019-2.559-0.086-3.666-0.551
		c-2.189-0.916-4.174-0.898-6.111,0.628c-2.576-1.325-5.176-1.563-7.84-0.515c-0.188,0.074-0.459,0.167-0.604,0.091
		c-2.002-1.062-4.037-0.019-6.055-0.095c-1.963-0.074-3.939,0.205-5.906,0.162c-2.07-0.045-4.135-0.365-6.207-0.426
		c-2.477-0.07-4.957,0.045-7.436,0.008c-1.234-0.018-2.465-0.211-3.699-0.287c-0.602-0.035-1.242-0.104-1.805,0.056
		c-1.119,0.315-2.184,0.595-3.291-0.028c-0.242-0.136-0.646-0.184-0.893-0.078c-1.895,0.806-3.881,0.141-5.82,0.387
		c-1.811,0.232-3.693-0.153-5.547-0.199c-4.332-0.107-8.666-0.146-12.998-0.268c-2.689-0.076-5.375-0.264-8.064-0.367
		c-0.721-0.027-1.447,0.097-2.17,0.101c-2.174,0.011-4.348,0.019-6.521-0.014c-1.234-0.019-2.47-0.166-3.705-0.169
		c-2.884-0.006-5.767,0.023-8.648,0.076c-1.34,0.023-2.68,0.14-4.018,0.205c-2.369,0.117-4.736,0.183-7.113,0.187
		c-4.764,0.011-9.529,0.198-14.285,0.478c-1.589,0.094-3.306-0.527-4.806,0.609c-0.238,0.182-0.792-0.046-1.198-0.096
		c-1.027-0.127-2.052-0.29-3.083-0.377c-0.857-0.071-1.658,0.105-2.354,1.023c0.38,0.25,0.743,0.688,1.114,0.693
		c1.322,0.021,2.602,0.352,3.994-0.041c1.113-0.313,2.433,0.176,3.664,0.21c3.385,0.089,6.765-0.302,10.153-0.179
		c0.207,0.007,0.458,0.09,0.612,0.002c2.121-1.201,4.5-0.764,6.688-0.706c2.871,0.075,5.772-0.591,8.623,0.19
		c0.196,0.053,0.426,0.092,0.619,0.049c2.475-0.565,4.92,0.115,7.381,0.129c0.606,0.004,1.269-0.004,1.809-0.231
		c0.926-0.39,1.734-0.558,2.627,0.083c0.301,0.215,0.861,0.32,1.195,0.193c2.375-0.898,4.926,0.244,7.334-0.799
		c1.217,0.887,2.513,1.185,4.055,1.027c1.527-0.154,3.09,0.241,4.443,1.096c-1.512,0.094-3.033,0.094-4.51,0.338
		c-0.716,0.119-1.646,0.338-1.822,1.334c-0.096,0.537,0.484,0.533,2.084,0.379c1.705-0.166,3.217-0.541,4.176-2.105
		c0.357-0.343,0.666-0.89,1.08-0.982c0.682-0.154,1.469-0.162,2.137,0.033c1.152,0.336,2.207,0.338,3.332-0.111
		c0.711-0.282,1.432-0.15,1.707,0.779c-0.832,0.629-2.359-0.336-2.898,1.453c1.197,0,2.195-0.021,3.191,0.004
		c1.15,0.027,1.264-0.83,1.441-1.641c1.225-0.111,2.443-0.188,3.65-0.344c1.021-0.133,2.336-1.027,2.338,1.061
		c0,0.075,0.105,0.188,0.188,0.219c1.688,0.627,3.336,0.373,5.332,0.105c-0.949-1.229-2.02-0.65-2.941-1.21c1.848,0,3.508,0,5.225,0
		c-0.385,1.478,0.697,1.282,1.596,1.438c-0.23,0.658-0.418,1.189-0.672,1.91c0.402,0.078,0.836,0.312,1.117,0.189
		c1.094-0.475,2.229-0.355,3.357-0.398c1.717-0.064,3.402,0.438,5.176-0.205c0.975-0.353,2.354-0.187,3.344,0.234
		c1.455,0.618,2.758,0.464,4.172,0.111c0.795-0.197,1.635-0.336,2.449-0.309c0.982,0.032,1.566,1.248,2.813,0.909
		c0.965-0.262,2.043-0.128,3.068-0.129c1.029,0,2.061,0.088,3.088,0.063c0.486-0.014,0.971-0.199,1.453-0.313
		c0.5-0.115,1.104-0.473,1.486-0.313c2.033,0.852,4.076-0.084,6.119,0.147c1.738,0.198,3.502-0.125,4.734-1.664
		c0.125-0.157,0.289-0.292,0.453-0.411c0.709-0.516,1.191-0.26,1.787,1.09c1.547,0.069,3.191,0.145,4.734,0.215
		c-0.725,0.338-1.605,0.608-2.309,1.121c-0.969,0.703-2.031,0.203-3.006,0.483c-0.15,0.044-0.373,0.341-0.338,0.433
		c0.094,0.242,0.346,0.635,0.48,0.613c1.416-0.227,2.822-0.514,4.229-0.8c0.303-0.062,0.605-0.295,0.883-0.261
		c4.203,0.515,8.49,0.035,12.646,1.059c0.143,0.034,0.225,0.307,0.475,0.668c-0.531,0.154-0.98,0.379-1.443,0.405
		c-2.791,0.171-5.568,0.202-8.373-0.084c-2.461-0.251-4.973-0.072-7.459-0.04c-2.373,0.029-4.748,0.154-7.121,0.166
		c-1.445,0.007-2.896-0.219-4.338-0.176c-4.969,0.15-9.945-0.512-14.91,0.232c-0.781,0.116-1.645-0.045-2.428-0.246
		c-1.293-0.334-2.457-0.193-3.602,0.588c-2.334-1.903-4.629-0.65-6.766,0.155c-0.992-0.344-1.824-0.843-2.686-0.896
		c-3.604-0.215-7.168-1.09-10.814-0.646c-0.816,0.1-1.654,0.014-2.447,0.014c-0.389-0.521-0.643-1.211-1.102-1.396
		c-0.621-0.252-1.436-0.259-2.094-0.091c-0.365,0.093-0.584,0.757-0.979,1.319c-3.721-0.555-7.654,0.338-11.521-0.57
		c-1.965,0.298-3.903,0.339-5.803-0.398c-0.26-0.101-0.668-0.063-0.91,0.079c-1.655,0.974-3.437,0.522-5.182,0.511
		c-2.798-0.018-5.598,0.012-8.396-0.039c-1.229-0.021-2.452-0.224-3.684-0.279c-0.484-0.021-0.988,0.084-1.463,0.207
		c-1.626,0.422-3.268,0.469-4.93,0.334c-3.93-0.316-7.857-0.377-11.783,0.064c-2.017,0.227-4.037,0.088-6.226,0.19
		c0.471-0.786,0.854-0.386,1.205-0.38c0.978,0.021,1.345-0.328,1.313-1.229c-0.025-0.725-0.431-0.99-1.26-0.797
		c-0.283,0.066-0.555,0.188-0.865,0.297c-0.242-0.508-0.455-0.955-0.671-1.408c-2.146-0.209-4.284-0.472-6.622,0.397
		c0.685,0.608,1.191,1.043,1.679,1.5c0.503,0.472,0.985,0.964,1.546,1.515c-2.018,0.242-3.859,0.473-5.703,0.68
		c-0.41,0.047-0.84,0.08-1.242,0.014c-3.613-0.607-7.23-0.316-10.848-0.09c-0.08,0.004-0.169-0.11-0.427-0.29
		c0.885-0.563,1.817-0.403,2.671-0.578c0.459-0.095,0.896-0.423,1.279-0.726c0.295-0.233,0.029-0.989-0.331-0.975
		c-2.115,0.098-4.168-0.572-6.294-0.438c-2.158,0.135-4.326,0.156-6.49,0.146c-1.963-0.007-3.883,0.351-5.82,0.511
		c-1.936,0.158-3.932,0.086-5.854-0.205c-2.065-0.313-4.098-0.332-6.158-0.187c-1.246,0.088-2.498,0.123-3.326-0.985
		c-1.665,1.146-3.406,1.293-5.159,1.262c-1.657-0.028-3.312-0.182-4.967-0.277l0.067,0.076c-1.336-1.411-1.385-1.42-2.738-0.414
		c-1.459,1.083-1.451,1.07-3.113-0.037c-0.309-0.205-0.767-0.445-1.063-0.357c-0.93,0.272-1.797,0.371-2.728-0.008
		c-0.331-0.137-0.89-0.129-1.163,0.068c-1.408,1.013-2.991,0.725-4.506,0.625c-1.336-0.087-2.65-0.145-3.992-0.107
		c-1.34,0.035-2.654-0.029-3.963,0.367c-0.581,0.178-1.227,0.137-1.84,0.213c-1.314,0.162-2.452-0.837-3.926-0.309
		c-1.195,0.429-2.647,0.191-3.984,0.167c-1.961-0.037-1.959-0.068-3.555-1.599c-0.688,0.631-1.313,1.362-2.479,1.299
		c-2.789-0.151-5.588-0.135-8.385-0.17c-2.905-0.037-5.784,0.149-8.607,0.932c-0.686,0.191-1.42,0.248-2.137,0.29
		c-4.333,0.259-8.669,0.677-12.999-0.054c-2.448,0.479-4.923-0.344-7.374,0.146c-0.399,0.081-0.827,0.004-1.241,0.016
		c-2.044,0.051-4.06-0.397-6.131-0.195c-2.048,0.199-4.132,0.105-6.198,0.035c-2.572-0.084-5.14-0.301-7.711-0.409
		c-1.234-0.052-2.475,0.041-3.71,0.017c-1.551-0.031-3.103-0.082-4.649-0.188c-1.422-0.096-2.746-0.364-4.255,0.146
		c-1.382,0.467-3.054,0.069-4.598,0.057c-0.499-0.004-0.999,0-1.486,0c-0.044,0.645-0.077,1.104-0.129,1.832
		c-0.671-0.297-1.178-0.418-1.558-0.707c-2.104-1.603-2.094-1.616-4.449-0.366c-0.039,0.616,0.24,0.989,0.864,1.016
		c0.479,0.021,0.96-0.036,1.453,0.138c-1.548,0.918-3.399-0.026-4.957,0.896c0.12,0.485,0.243,0.981,0.42,1.692
		c0.784,0.037,1.714,0.363,2.341,0.061c2.07-1.002,4.321-0.074,6.391-0.811c1.016-0.36,1.354,0.721,2.107,1.193
		c0.607-0.172,1.334-0.623,1.953-0.508c2.481,0.465,4.916-0.417,7.313-0.216c2.795,0.233,5.572-0.015,8.352,0.196
		c0.803,0.061,1.622-0.071,2.433-0.144c1.226-0.106,2.38-1.085,3.718-0.013c0.416,0.334,1.419,0.046,2.117-0.112
		c0.815-0.185,1.55-0.418,2.4-0.011c0.412,0.199,1.121,0.206,1.504-0.023c2.053-1.24,3.94-0.438,5.928,0.348
		c0.692-0.328,1.433-0.68,2.231-1.059c0.606,0.201,1.239,0.491,1.901,0.607c0.792,0.138,1.607,0.158,2.414,0.169
		c0.724,0.01,1.496,0.086,2.163-0.128c1.438-0.461,2.858-0.338,4.308-0.217c0.684,0.058,1.42,0.238,1.963-0.525
		c0.143-0.2,0.738-0.182,1.095-0.109c2.117,0.43,4.226,0.902,6.338,1.362l-0.063-0.071c0.481,0.119,0.96,0.334,1.441,0.34
		c2.327,0.037,4.654,0.021,6.98,0.019c0.202-0.001,0.448,0.024,0.595-0.078c0.304-0.211,0.555-0.499,0.827-0.756
		c-0.287-0.235-0.572-0.474-0.861-0.708l0.01-0.012c1.145-1.504,2.326-1.91,3.205-0.816c1.463,1.816,3.338,2.275,5.477,2.305
		c0.618,0.008,1.256,0.172,1.854,0.073c2.543-0.42,4.981,0.035,7.316,0.943c1.469,0.569,2.826,0.632,4.182-0.093
		c0.873-0.467,1.704-0.604,2.684-0.393c0.682,0.146,1.428-0.045,2.135,0.02c0.803,0.072,1.648,0.158,2.028,1.08
		c-0.171,0.168-0.304,0.416-0.462,0.434c-1.514,0.174-3.066-0.048-4.548,0.46c-2.376-0.998-4.677,0.224-7.019,0.243
		c-0.51,0.004-1.02,0.162-1.527,0.15c-3.086-0.068-6.163-0.324-9.256-0.289c-3.301,0.037-6.604-0.055-9.906-0.127
		c-1.133-0.024-2.265-0.162-3.396-0.252c-0.102-0.009-0.221-0.101-0.299-0.07c-2.544,0.979-5.111,0.142-7.643-0.002
		c-3.793-0.217-7.551,0.238-11.326,0.213c-0.718-0.006-1.473-0.055-2.143-0.283c-1.236-0.42-2.479-0.406-3.677-0.086
		c-2.647,0.705-5.341,0.598-8.028,0.615c-2.383,0.018-4.748,0.066-7.135,0.328c-2.34,0.26-4.756-0.055-7.127-0.258
		c-1.342-0.117-2.578-0.344-3.928,0.272c-0.867,0.397-2.022,0.175-3.048,0.215c-3.612,0.14-7.226,0.3-10.841,0.397
		c-2.679,0.074-5.385,0.3-8.032,0.017c-1.977-0.211-3.84-0.011-5.772,0.14c-1.646,0.127-3.273,0.254-4.916,0.477
		c-1.509,0.205-3.122,0.137-4.611-0.18c-1.496-0.317-2.839-0.304-4.248,0.244c-1.484,0.578-2.894,0.74-4.443-0.203
		c-0.742-0.453-2.148-0.422-2.97-0.023c-2.883,1.396-5.868,0.932-9.068,0.964c0.526-0.417,1.14-0.669,1.17-0.978
		c0.068-0.705-0.546-1.18-1.184-1.151c-1.638,0.067-3.269,0.278-4.901,0.446c-0.061,0.006-0.107,0.158-0.17,0.258
		c-0.188,1.074,1.202,0.625,1.357,1.373c-0.094,0.166-0.182,0.469-0.285,0.475c-0.816,0.047-1.636,0.034-2.455,0.04l0.082,0.063
		c0.155-0.604-0.035-1.008-0.684-1.096c-1.937-0.264-3.88-0.484-5.811-0.783c-0.673-0.104-1.469-0.168-1.69-1.23
		c2.022-0.841,3.932-0.336,5.818,0.419c0.11,0.043,0.095,0.356,0.172,0.53c0.291,0.654,0.909,0.666,1.208,0.23
		c1.177-1.716,3.014-1.572,4.709-1.818c0.495-0.071,1.022,0.117,1.531,0.094c0.66-0.027,0.774-0.563,0.847-1.075
		c1.391,1.534,3.311,1.539,5.123,1.798c1.114,0.159,2.279,0.041,3.365,0.291c1.8,0.413,3.049-0.52,4.535-1.308
		c-0.488-0.792-1.146-0.95-1.702-0.964c-1.641-0.043-3.355-0.233-4.908,0.156c-2.181,0.547-4.27,0.293-6.405,0.061
		c-2.689-0.118-5.378-0.26-8.067-0.34c-0.921-0.027-1.88-0.033-2.76,0.189c-0.978,0.248-1.803,0.143-2.691-0.281
		c-1.725-0.818-3.462-1.598-4.774-3.063c0.62-1.128,2.596-0.104,2.524-2.089c-0.612-0.245-1.44-0.396-2.013-0.861
		c-0.528-0.431-0.746-1.227-1.17-1.811c-0.233-0.323-0.603-0.551-0.924-0.805c-0.805-0.635-1.616-1.26-2.413-1.879
		c1.021-1.765,1.039-1.861,0.055-3.037c-0.395-0.473-0.908-0.846-1.323-1.301c-0.808-0.89-1.064-2.021-0.237-2.816
		c1.901-1.83,2.452-4.196,3.102-6.566c0.135-0.488,0.416-0.937,0.68-1.514c-0.326-0.475-0.707-0.956-1.003-1.485
		c-0.198-0.355-0.496-0.88-0.369-1.156c0.951-2.08-0.36-3.968-0.381-5.943c-0.007-0.634,0.518-1.271,0.83-1.979
		c-0.256-1.289-1.699-0.847-2.541-1.582c-0.071-0.688-0.152-1.477-0.25-2.415c0.991-0.402,1.925-0.781,3.097-1.256
		c-0.023-0.554-0.225-1.276-0.036-1.876c0.204-0.646,0.775-1.175,1.301-1.917c-0.855-0.983-1.156-2.241-1.604-3.442
		C2.729,8.528,3.232,7.182,4.885,6.772C7.195,6.2,9.52,5.487,11.87,5.329c2.404-0.161,4.693-0.766,7.037-1.139
		c3.072-0.485,6.113-1.09,9.24-1.26c2.473-0.135,4.921-0.699,7.387-1.027c1.842-0.246,3.69-0.484,5.542-0.608
		c2.166-0.143,4.316-0.063,6.47-0.689c1.549-0.45,3.281-0.351,4.932-0.357c4.659-0.019,9.318,0.032,13.978,0.06
		c0.411,0.002,0.833,0.086,1.234,0.025c3.72-0.564,7.465-0.231,11.195-0.271c7.058-0.074,14.118-0.055,21.175,0.021
		c8.086,0.086,16.18-0.39,24.255,0.401c0.997,0.098,2.029-0.137,3.044-0.24c2.58-0.266,5.135,0.438,7.727,0.171
		c0.646-0.067,1.479,0.229,1.998,0.644c1.057,0.843,2.305,1.038,3.504,1.125c2.156,0.156,4.332,0.05,6.498,0.051
		c0.402,0,0.805-0.035,1.207-0.015c2.787,0.142,5.575,0.394,8.365,0.423c5.184,0.053,10.368-0.019,15.551-0.045
		c4.35-0.021,8.698-0.039,13.047-0.087c0.722-0.008,1.439-0.196,2.162-0.236c1.631-0.09,3.248-0.563,4.904-0.022
		c0.555,0.181,1.218,0.024,1.83,0.03c1.861,0.02,3.725,0.037,5.586,0.069c0.308,0.005,0.639,0.178,0.916,0.106
		c4.08-1.044,8.24-0.072,12.346-0.512c1.748-0.188,3.515-0.243,5.275-0.277c4.445-0.086,8.883-0.476,13.346-0.152
		c1.801,0.13,3.639-0.428,5.468-0.521c2.585-0.132,5.176-0.131,7.765-0.176c6.017-0.105,12.031-0.211,18.047-0.3
		c1.453-0.021,2.905,0.022,4.356,0.039c9.644,0.103,19.283,0.21,28.927,0.307c3.825,0.038,7.663-0.446,11.474,0.285
		c2.775-0.592,5.564-0.007,8.348-0.069c0.711-0.015,1.424,0.061,2.137,0.082c2.48,0.073,4.967,0.253,7.441,0.175
		c1.971-0.062,3.92-0.242,5.834,0.393c0.289,0.096,0.693,0.263,0.893,0.144c1.678-1.004,3.213-0.108,4.777,0.305
		c0.822,0.217,1.572,0.161,2.422-0.042c2.127-0.512,4.299-0.693,6.422,0.157c0.281,0.112,0.607,0.185,0.908,0.172
		c3.809-0.158,7.633,0.36,11.432-0.24c0.102-0.016,0.209-0.036,0.309-0.022c3.605,0.485,7.225-0.278,10.83,0.12
		c0.404,0.044,0.822,0.063,1.225,0.024c3.623-0.356,7.238-0.325,10.865-0.019c1.613,0.137,3.256-0.107,4.885-0.12
		c3.613-0.028,7.227-0.415,10.838,0.238c1.289,0.233,2.666-0.031,4.002-0.046c3.809-0.042,7.613-0.096,11.424-0.099
		c2.162-0.002,4.328,0.069,6.49,0.135c3.105,0.095,6.211,0.212,9.314,0.326c0.518,0.018,1.053-0.012,1.549,0.104
		c3.564,0.834,7.203,0.818,10.822,1.021c3.932,0.22,7.863,0.442,11.799,0.608c2.07,0.087,4.15,0.159,6.217,0.052
		c2.188-0.113,4.334-0.198,6.496,0.305c0.764,0.177,1.631-0.113,2.453-0.153c1.424-0.07,2.855,0.589,4.252,0.162
		c1.477-0.453,2.869,0.055,4.295,0.108c1.238,0.047,2.475,0.236,3.711,0.363l-0.043-0.051c-0.82,0.76-1.637,1.52-2.391,2.218
		c-2.369,0.008-4.57-0.248-6.768,0.782c-1.217,0.57-2.826,0.304-4.258,0.415c-1.719-1.127-3.646,0.42-5.389-0.42
		c-1.85,0.475-3.666-0.033-5.5-0.137c-1.855-0.104-3.725,0.002-5.584-0.059c-1.641-0.053-3.311,0.177-4.896-0.561
		c-0.434-0.203-1.02-0.095-1.537-0.096c-2.672-0.002-5.338-0.057-7.992-0.422c-0.693-0.096-1.541-0.115-2.119,0.198
		c-2.445,1.324-5.064,0.722-7.611,0.843c-0.459,0.021-0.93-0.378-1.412-0.526c-0.266-0.083-0.695-0.181-0.83-0.047
		c-0.615,0.601-1.338,0.61-2.025,0.375c-0.566-0.192-1.053-0.618-1.721-1.031c-0.422,0.392-0.828,0.771-1.225,1.138
		c0.234,0.306,0.332,0.571,0.473,0.598c1.701,0.316,3.35,0.771,5.158,0.396c1.719-0.354,3.531-0.178,5.191,0.506
		c0.82,0.338,1.561,0.393,2.391,0.133c0.484-0.151,1.049-0.313,1.512-0.203c2.654,0.629,5.303,0.093,8.021-0.046
		c0.342,0.561,0.652,1.073,0.967,1.587c0.184,0.09,0.363,0.25,0.549,0.258c4.646,0.205,9.25,0.948,13.939,0.675
		c3.184-0.187,6.396,0.169,9.598,0.297c0.398,0.016,0.836,0.029,1.184,0.197c1.645,0.794,3.393,0.843,5.152,0.77
		c1.125-0.046,2.25-0.327,3.363-0.271c1.107,0.058,2.195,0.438,3.301,0.614c0.715,0.115,1.463,0.251,2.166,0.154
		c4.059-0.558,8.053,0.146,12.07,0.493c0.504,0.044,1.018-0.003,1.525,0.002c1.008,0.011,2.014,0.028,3.365,0.048
		c-0.574,0.776-0.92,1.246-1.266,1.714L497.421,15.911z M193.661,48.653c-0.429-0.309-0.572-0.502-0.711-0.498
		c-6.215,0.207-12.438-0.354-18.65,0.215c-0.617,0.057-1.24,0.035-1.861,0.039c-4.857,0.027-9.715,0.014-14.57,0.102
		c-1.752,0.032-3.483,0.274-5.248-0.068c-0.861-0.168-1.811,0.006-2.699,0.152c-0.334,0.055-0.812,0.43-0.862,0.721
		c-0.08,0.457,0.372,0.662,0.834,0.611c0.922-0.104,1.841-0.225,2.763-0.33c0.5-0.058,1.08-0.281,1.491-0.109
		c1.815,0.757,3.68,0.423,5.522,0.365c4.239-0.133,8.476-0.393,12.717-0.506c4.965-0.134,9.938,0.112,14.9-0.265
		C189.319,48.929,191.354,48.808,193.661,48.653z M276.279,52.717c-0.273-0.335-0.374-0.581-0.533-0.632
		c-2.277-0.717-4.632-0.52-6.965-0.542c-0.258-0.003-0.613,0.249-0.752,0.483c-0.186,0.318-0.29,0.744-0.253,1.104
		c0.017,0.152,0.504,0.394,0.745,0.36C271.044,53.151,273.643,53.601,276.279,52.717z M39.441,60.081
		c0.563,0.883,1.364,0.902,2.179,0.725c2.818-0.613,5.639-0.943,8.52-0.408c0.405,0.076,1.022-0.188,0.714-0.949
		c-3.58,0-7.152-0.01-10.723,0.025C39.916,59.476,39.703,59.841,39.441,60.081z M290.058,52.017
		c3.322,1.459,3.479,1.412,4.904-1.397c-1.521-0.694-2.998-0.058-4.512-0.063C290.316,51.058,290.212,51.442,290.058,52.017z
		 M288.071,52.821c-1.331-0.369-0.752-1.426-1.053-2.137c-1.968-0.267-1.968-0.267-2.833,0.354
		c-0.659,0.476-0.568,1.315,0.169,1.698C285.513,53.338,286.687,53.104,288.071,52.821z M53.024,55.64
		c-0.049,0.271-0.1,0.541-0.148,0.813c1.9-0.477,3.232,0.365,4.418,1.703c0.291-0.436,0.545-0.654,0.578-0.902
		c0.053-0.406-0.039-0.805,0.524-0.938c0.2-0.047,0.353-0.291,0.786-0.676C56.89,55.64,54.958,55.64,53.024,55.64z M7.622,53.047
		c1.207,0.028,2.228-0.319,3.266-0.961c-0.539-1.048-1.352-1.638-2.485-1.233C7.525,51.166,7.379,51.996,7.622,53.047z
		 M145.862,49.923c-1.264-1.068-2.34-1.546-3.559-1.48c-0.33,0.021-0.738,0.654-0.906,1.086c-0.156,0.4,0.494,0.916,1.041,0.857
		C143.433,50.278,144.423,50.121,145.862,49.923z M92.192,51.608c0.906,0,1.813,0.035,2.713-0.03
		c0.178-0.013,0.479-0.445,0.448-0.638c-0.04-0.24-0.355-0.596-0.575-0.615C93.798,50.243,92.843,50.367,92.192,51.608z
		 M244.237,52.069c-1.623,0-2.574-0.016-3.522,0.022c-0.11,0.005-0.271,0.294-0.294,0.468c-0.023,0.164,0.051,0.446,0.171,0.512
		C241.837,53.743,242.819,53.267,244.237,52.069z M99.37,52.257c0.281-1.464-0.525-1.645-1.357-1.723
		c-0.527-0.051-1.272-0.342-1.254,0.77C97.565,51.599,98.394,51.899,99.37,52.257z M494.316,39.097
		c-1.311-1.066-1.311-1.066-2.783-0.488C492.595,38.795,493.457,38.946,494.316,39.097z M16.314,55.211
		c-1.165-0.56-1.667-0.618-2.074-0.229c-0.07,0.066-0.167,0.178-0.152,0.246c0.081,0.399,1.329,0.547,2.09,0.239
		C16.247,55.438,16.27,55.299,16.314,55.211z M107.612,51.511c-0.412-0.136-0.507-0.185-0.604-0.195
		c-0.458-0.053-0.978-0.358-1.283,0.272c-0.03,0.063,0.049,0.263,0.07,0.261c0.452-0.025,0.905-0.065,1.356-0.119
		C107.243,51.72,107.327,51.647,107.612,51.511z M262.765,51.962c0.07,0.232,0.074,0.35,0.133,0.415
		c0.46,0.495,1.193,0.638,1.533,0.271c0.105-0.11,0.125-0.502,0.094-0.514c-0.443-0.158-0.9-0.281-1.361-0.389
		C263.096,51.729,263.001,51.829,262.765,51.962z M414.39,8.437c-0.484-0.606-0.986-0.495-1.498-0.032
		C413.38,8.99,413.878,8.913,414.39,8.437z M112.495,50.769c-0.803-0.22-0.803-0.22-1.312,0.191
		C111.655,51.144,112.13,51.354,112.495,50.769z M281.055,51.679c0.132-0.234,0.294-0.438,0.345-0.662
		c0.02-0.082-0.227-0.225-0.352-0.338c-0.166,0.193-0.334,0.389-0.5,0.582C280.683,51.372,280.816,51.481,281.055,51.679z
		 M241.608,55.188c0.172-0.082,0.426-0.125,0.491-0.26c0.059-0.117-0.091-0.34-0.15-0.517c-0.173,0.083-0.424,0.126-0.495,0.263
		C241.395,54.789,241.548,55.015,241.608,55.188z M103.933,51.472l0.051-0.221l-0.217,0.1L103.933,51.472z M114.81,50.638
		c-0.172,0.077-0.345,0.155-0.518,0.234c0.055,0.076,0.105,0.215,0.166,0.218c0.186,0.011,0.375-0.026,0.563-0.048
		C114.95,50.907,114.881,50.772,114.81,50.638z M280.158,52.872c0.086,0.15,0.139,0.373,0.266,0.432
		c0.103,0.045,0.295-0.109,0.447-0.175c-0.115-0.192-0.231-0.383-0.349-0.573C280.4,52.661,280.278,52.767,280.158,52.872z
		 M121.204,58.163c-0.305-0.061-0.559-0.152-0.801-0.139c-0.111,0.01-0.205,0.238-0.307,0.365c0.243,0.086,0.482,0.213,0.73,0.234
		C120.916,58.634,121.026,58.39,121.204,58.163z M199.724,48.374c-0.803-0.133-1.068-0.178-1.334-0.223
		c0.002,0.146,0.004,0.291,0.006,0.436C198.66,48.544,198.925,48.503,199.724,48.374z M119.526,50.384
		c-0.051-0.07-0.103-0.145-0.154-0.215c-0.122,0.105-0.257,0.199-0.355,0.323c-0.023,0.028,0.077,0.155,0.121,0.239
		C119.268,50.614,119.397,50.5,119.526,50.384z M121.881,50.946l0.027-0.164l-0.224,0.055L121.881,50.946z M118.826,52.595
		c-0.069,0.041-0.14,0.08-0.209,0.122c0.044,0.058,0.114,0.167,0.124,0.161c0.109-0.057,0.207-0.132,0.309-0.203
		C118.974,52.647,118.9,52.621,118.826,52.595z M146.243,59.425c-0.078,0.021-0.157,0.042-0.236,0.063
		c0.02,0.068,0.031,0.191,0.057,0.195c0.075,0.006,0.155-0.033,0.234-0.054C146.278,59.562,146.262,59.493,146.243,59.425z
		 M322.994,52.666c-0.02,0.149-0.037,0.296-0.059,0.442c0.064-0.066,0.164-0.127,0.176-0.199
		C323.121,52.837,323.039,52.75,322.994,52.666z M236.448,54.044l0.247-0.107l-0.241-0.123L236.448,54.044z M327.794,54.521
		c-0.176-0.047-0.328-0.106-0.484-0.115c-0.055-0.002-0.115,0.129-0.174,0.197c0.141,0.084,0.273,0.205,0.424,0.229
		C327.617,54.843,327.71,54.638,327.794,54.521z M367.496,55.142c-0.064-0.022-0.139-0.049-0.211-0.074
		c-0.006,0.113-0.01,0.227-0.016,0.338c0.074-0.02,0.166-0.024,0.221-0.072C367.523,55.306,367.496,55.21,367.496,55.142z"/>
	<path fill="#FFFFFF" d="M171.104,60.554c0.908-0.611,1.232-1.013,1.576-1.029c1.836-0.098,3.581-0.744,5.5-0.494
		c2.65,0.343,5.363,0.168,8.024,0.451c2.356,0.25,4.636,0.418,7.015-0.055c1.777-0.354,3.648,0.432,5.521,0.229
		c1.331-0.145,2.692-0.021,4.024-0.163c1.423-0.149,2.662,0.153,3.706,1.118c1.278-0.394,2.457-0.756,3.804-1.168
		c1.517,1.021,3.356,1.131,5.241,1.068c0.854-0.029,1.628-0.057,2.251-0.785c0.367-0.43,0.952-0.469,1.394-0.061
		c0.7,0.65,1.346-0.116,2.189,0.008c-0.472,0.59-0.885,1.104-1.32,1.648c-1.369,0.094-2.787,0.218-4.209,0.281
		c-0.723,0.033-1.486,0.092-2.17-0.094c-3.054-0.83-6.117-0.457-9.186-0.216c-0.305,0.022-0.619,0.034-0.92-0.008
		c-2.787-0.382-5.578-0.334-8.383-0.185c-2.376,0.127-4.748,0.18-7.139-0.193c-1.918-0.301-3.931,0.359-5.844-0.389
		c-2.199,0.939-4.506,0.112-6.748,0.401C174.206,61.08,172.977,60.931,171.104,60.554z"/>
	<path fill="#FFFFFF" d="M177.197,55.72c0.922,0,1.843-0.005,2.765,0.002c3.109,0.021,6.225,0.172,9.324,0.016
		c1.428-0.072,2.741-0.352,4.211,0.13c0.983,0.321,2.234-0.115,3.352-0.291c0.92-0.146,1.832-0.368,2.727-0.628
		c1.228-0.354,2.229-0.08,3.031,0.912c1.088-0.278,2.172-0.58,3.266-0.83c0.389-0.088,0.888-0.217,1.197-0.057
		c2.396,1.237,4.644,0.344,6.892-0.389c0.948,0.398,1.847,0.955,2.815,1.135c0.947,0.176,1.965-0.031,3.154-0.08
		c-0.725,1.019-1.541,1.01-2.346,1.006c-4.973-0.008-9.955-0.231-14.912,0.039c-3.308,0.184-6.611-0.314-9.91,0.194
		c-1.41,0.22-2.857,0.011-4.297-0.09c-3.301-0.229-6.622-0.177-9.936-0.251c-0.473-0.012-0.945-0.098-1.418-0.148
		C177.14,56.165,177.169,55.942,177.197,55.72z"/>
	<path fill="#FFFFFF" d="M328.679,52.16c0.367-0.812,0.566-1.257,0.844-1.865c1.625-0.173,3.303-0.7,5.055-0.012
		c0.428,0.169,0.979,0.065,1.469,0.028c0.803-0.062,1.602-0.172,2.729-0.295c-1.658,1.479-3.182,1.894-5.064,1.694
		C332.232,51.556,330.695,51.956,328.679,52.16z"/>
	<path fill="#FFFFFF" d="M500.021,60.492c-2.037-0.185-4.068-0.425-6.107-0.532c-1.928-0.102-3.861-0.061-5.711-0.08
		c-0.432-1.168,0.354-1.367,0.869-1.328c2.85,0.217,5.697,0.494,8.531,0.854c0.889,0.113,1.738,0.541,2.605,0.824
		C500.146,60.317,500.083,60.405,500.021,60.492z"/>
	<path fill="#FFFFFF" d="M224.628,60.547c3.314,0.034,6.58-0.437,9.857-0.464c-0.138,1.205-0.33,1.494-1.031,1.445
		c-2.789-0.2-5.578-0.416-8.365-0.647C224.927,60.866,224.78,60.662,224.628,60.547z"/>
	<path fill="#FFFFFF" d="M18.111,64.006c0.303,0.411,0.607,0.822,1.039,1.409c0.412-0.133,0.846-0.296,1.292-0.409
		c0.817-0.208,1.655-0.248,2.337,0.317c0.359,0.297,0.686,0.734,0.821,1.174c0.131,0.422-0.723,0.893-1.472,0.67
		c-1.694-0.505-3.703-0.303-4.997-2.182c0.363-0.303,0.724-0.602,1.071-0.908C18.193,64.067,18.111,64.006,18.111,64.006z"/>
	<path fill="#FFFFFF" d="M356.818,50.856c-1.938,0-3.873,0-6.061,0c1.035-0.76,1.035-0.767,1.926-0.765
		c0.727,0,1.451-0.01,2.176,0.031c0.682,0.038,1.355,0.138,2.035,0.21C356.869,50.507,356.843,50.683,356.818,50.856z"/>
	<path fill="#FFFFFF" d="M159.808,56.597c2.512-1.533,4.294-0.646,6.207-0.316C164.127,57.771,162.31,56.591,159.808,56.597z"/>
	<path fill="#FFFFFF" d="M517.611,25.328c-2.883,0-5.766,0-8.865,0c0.889-0.62,1.602-0.636,4.252-0.38
		c1.533,0.148,3.072,0.208,4.609,0.309C517.607,25.281,517.609,25.305,517.611,25.328z"/>
	<path fill="#FFFFFF" d="M261.229,60.291c1.608-0.356,3.201-1.172,5.388-0.505C264.587,60.785,262.852,59.97,261.229,60.291z"/>
	<path fill="#FFFFFF" d="M0.576,59.015c0.997-0.119,1.784-0.213,2.535-0.304c0.127,0.291,0.271,0.463,0.261,0.626
		c-0.042,0.65-0.264,1.303-0.964,1.414C1.459,60.897,0.875,60.366,0.576,59.015z"/>
	<path fill="#FFFFFF" d="M386.625,52.337c-2.307,0.044-3.959,1.271-5.854,0.164C382.398,51.589,382.398,51.589,386.625,52.337z"/>
	<path fill="#FFFFFF" d="M68.616,68.243c1.579,0,3.158,0,4.76,0c-0.035,0.654-0.508,0.551-0.83,0.445
		c-0.846-0.277-1.544-0.01-2.32,0.313c-0.461,0.189-1.1-0.053-1.657-0.102C68.585,68.681,68.601,68.462,68.616,68.243z"/>
	<path fill="#FFFFFF" d="M238.208,60.237c2.171-0.377,3.563-0.049,5.082,0.057C242.347,61.144,241.239,61.155,238.208,60.237z"/>
	<path fill="#FFFFFF" d="M507.351,22.974c2.066-0.461,4.17-0.413,6.27,0C511.531,22.974,509.439,22.974,507.351,22.974z"/>
	<path fill="#FFFFFF" d="M155.454,56.396c0.736-0.811,1.565-0.652,2.367-0.521c0.154,0.026,0.273,0.269,0.408,0.41
		c-0.207,0.183-0.432,0.536-0.621,0.521C156.912,56.739,156.228,56.554,155.454,56.396z"/>
	<path fill="#FFFFFF" d="M132.139,58.296c-0.158-0.371-0.315-0.742-0.567-1.333c0.432-0.353,0.915-0.81,1.469-1.155
		c0.174-0.109,0.742,0.029,0.771,0.146c0.092,0.358,0.166,0.921-0.035,1.112c-0.488,0.468-1.135,0.771-1.709,1.151
		C132.075,58.226,132.139,58.296,132.139,58.296z"/>
	<path fill="#FFFFFF" d="M171.063,56.149c1.615-0.612,1.615-0.612,3.104,0.134C173.19,56.793,172.36,56.606,171.063,56.149z"/>
	<path fill="#FFFFFF" d="M402.5,56.55c-0.188,0.061-0.379,0.182-0.561,0.17c-0.588-0.039-1.295,0.049-1.348-0.828
		c-0.01-0.152,0.178-0.395,0.334-0.465c0.672-0.313,1.188-0.058,1.523,0.559C402.533,56.138,402.486,56.36,402.5,56.55z"/>
	<path fill="#FFFFFF" d="M53.466,68.209c1.201-0.085,2.402-0.168,3.604-0.252C55.912,68.628,54.673,68.198,53.466,68.209z"/>
	<path fill="#FFFFFF" d="M344.138,50.506c-1.035,0.122-2.07,0.244-3.572,0.421c0.457-0.502,0.594-0.785,0.74-0.791
		c0.939-0.041,1.883-0.021,2.822-0.021C344.13,50.244,344.136,50.375,344.138,50.506z"/>
	<path fill="#FFFFFF" d="M306.14,57.862c0.467-0.1,0.93-0.232,1.402-0.279c0.145-0.014,0.391,0.186,0.439,0.335
		c0.039,0.12-0.137,0.435-0.25,0.453c-0.48,0.081-0.977,0.083-1.465,0.114C306.224,58.278,306.183,58.069,306.14,57.862z"/>
	<path fill="#FFFFFF" d="M314.273,57.624c0.838-0.115,1.676-0.23,2.547-0.352c-0.236,0.705-0.811,0.459-1.246,0.506
		c-0.432,0.047-0.869,0.011-1.305,0.011C314.271,57.733,314.273,57.679,314.273,57.624z"/>
	<path fill="#FFFFFF" d="M480.044,5.334c1.168-0.29,2.334-0.496,3.611,0.074c-1.313,0.454-2.486,0.648-3.645-0.112
		C480.001,5.283,480.044,5.334,480.044,5.334z"/>
	<path fill="#FFFFFF" d="M248.269,60.22c0.656,0,1.311,0,2.064,0c-0.887,0.898-0.887,0.898-2.045,0.012L248.269,60.22z"/>
	<path fill="#FFFFFF" d="M222.505,55.761c0.791,0,1.583,0,2.375,0c-0.003,0.049-0.005,0.1-0.007,0.15c-0.792,0-1.583,0-2.376,0
		C222.5,55.86,222.502,55.81,222.505,55.761z"/>
	<path fill="#FFFFFF" d="M21.782,68.935c1.061-0.123,2.116-0.597,3.487,0.022C23.913,69.46,22.846,69.123,21.782,68.935z"/>
	<path fill="#FFFFFF" d="M62.459,68.337c0.22-0.076,0.318-0.148,0.398-0.132c0.354,0.075,0.706,0.175,1.054,0.278
		c0.008,0.002-0.033,0.244-0.055,0.244c-0.354,0.01-0.709,0.01-1.061-0.02C62.726,68.703,62.665,68.571,62.459,68.337z"/>
	<path fill="#FFFFFF" d="M44.765,68.203c-0.286-0.204-0.487-0.272-0.552-0.407c-0.211-0.436,0.254-0.88,0.875-0.82
		c0.165,0.019,0.318,0.168,0.477,0.256C45.295,67.56,45.026,67.886,44.765,68.203z"/>
	<path fill="#FFFFFF" d="M17.6,68.963c0.039-0.095,0.055-0.248,0.122-0.274c0.444-0.176,0.895-0.344,1.357-0.457
		c0.069-0.018,0.332,0.303,0.305,0.42c-0.161,0.697-0.761,0.504-1.23,0.521C17.971,69.177,17.785,69.037,17.6,68.963z"/>
	<path fill="#FFFFFF" d="M295.026,58.965c0.367-0.823,0.92-0.683,1.378-0.704c0.135-0.008,0.365,0.205,0.395,0.35
		c0.022,0.119-0.176,0.402-0.291,0.408C296.054,59.046,295.595,58.993,295.026,58.965z"/>
	<path fill="#FFFFFF" d="M413.789,56.979c-0.459,0.076-0.916,0.15-1.375,0.226c-0.029-0.087-0.057-0.175-0.086-0.263
		c0.455-0.135,0.91-0.271,1.365-0.406C413.724,56.685,413.757,56.833,413.789,56.979z"/>
	<path fill="#FFFFFF" d="M503.335,47.671c0.496,0,0.99,0,1.482,0c-0.002,0.066-0.006,0.135-0.008,0.201
		c-0.494-0.027-0.986-0.055-1.482-0.08C503.333,47.752,503.335,47.712,503.335,47.671z"/>
	<path fill="#FFFFFF" d="M520.66,23.514c-0.469,0.028-0.938,0.057-1.404,0.085c-0.004-0.086-0.006-0.17-0.008-0.255
		c0.469,0,0.939,0,1.41,0C520.658,23.4,520.658,23.457,520.66,23.514z"/>
	<path fill="#FFFFFF" d="M169.413,56.265c-0.168,0.07-0.336,0.141-0.504,0.211c-0.031-0.16-0.085-0.318-0.082-0.479
		c0.002-0.049,0.213-0.15,0.24-0.128C169.198,55.979,169.302,56.128,169.413,56.265z"/>
	<path fill="#FFFFFF" d="M148.005,56.214c-0.126,0.082-0.242,0.184-0.379,0.232c-0.054,0.02-0.221-0.102-0.216-0.115
		c0.046-0.137,0.12-0.262,0.186-0.389C147.731,56.032,147.866,56.122,148.005,56.214z"/>
	<path fill="#FFFFFF" d="M33.339,66.631c0.171,0.054,0.343,0.104,0.513,0.156c-0.063,0.129-0.115,0.358-0.188,0.364
		c-0.181,0.02-0.371-0.067-0.557-0.11C33.184,66.905,33.261,66.769,33.339,66.631z"/>
	<path fill="#FFFFFF" d="M285.128,59.284c-0.039,0.076-0.104,0.224-0.117,0.22c-0.151-0.054-0.299-0.129-0.445-0.198
		c0.04-0.076,0.105-0.226,0.117-0.222C284.837,59.138,284.981,59.213,285.128,59.284z"/>
	<path fill="#FFFFFF" d="M500.826,14.59c0.283,0,0.566,0,0.85,0c0,0.034,0,0.069,0,0.104c-0.283,0-0.566,0-0.85,0
		C500.826,14.659,500.826,14.624,500.826,14.59z"/>
	<path fill="#FFFFFF" d="M13.726,68.716c0.32-0.115,0.637-0.24,0.966-0.322c0.023-0.006,0.128,0.319,0.195,0.492
		c-0.354,0.064-0.708,0.129-1.062,0.194C13.792,68.958,13.759,68.837,13.726,68.716z"/>
	<path fill="#FFFFFF" d="M115.618,67.517c0.312,0.07,0.621,0.143,0.932,0.213c-0.293,0.025-0.584,0.053-0.877,0.078
		C115.655,67.71,115.636,67.612,115.618,67.517z"/>
	<path fill="#FFFFFF" d="M138.968,57.073c-0.182-0.047-0.389-0.051-0.533-0.149c-0.11-0.075-0.139-0.271-0.205-0.411
		c0.164,0.016,0.377-0.025,0.48,0.063c0.125,0.107,0.158,0.32,0.234,0.488L138.968,57.073z"/>
	<path fill="#FFFFFF" d="M397.837,56.354c-0.01,0.086-0.006,0.24-0.033,0.244c-0.189,0.039-0.387,0.049-0.584,0.066
		c0.018-0.135,0.035-0.268,0.053-0.4C397.46,56.295,397.648,56.325,397.837,56.354z"/>
	<polygon fill="#FFFFFF" points="404.828,57.024 405.097,57 405.05,57.103 	"/>
	<path fill="#FFFFFF" d="M289.427,58.343c0.074,0.034,0.15,0.068,0.227,0.104c-0.1,0.061-0.195,0.136-0.307,0.166
		c-0.027,0.01-0.096-0.112-0.145-0.176C289.276,58.403,289.352,58.373,289.427,58.343z"/>
	<path fill="#FFFFFF" d="M484.986,58.472c-0.121,0.1-0.234,0.217-0.371,0.283c-0.047,0.023-0.229-0.086-0.225-0.115
		c0.021-0.131,0.088-0.254,0.139-0.379C484.681,58.33,484.833,58.401,484.986,58.472z"/>
	<path fill="#FFFFFF" d="M276.847,58.919c0.087,0.145,0.174,0.288,0.26,0.432c-0.173,0.045-0.342,0.107-0.518,0.123
		c-0.039,0.004-0.153-0.211-0.133-0.234C276.568,59.114,276.712,59.022,276.847,58.919z"/>
	<path fill="#FFFFFF" d="M409.902,59.03c-0.1,0-0.195,0-0.295,0c0.02-0.053,0.029-0.146,0.057-0.149
		c0.096-0.014,0.195,0.001,0.293,0.005C409.939,58.935,409.919,58.981,409.902,59.03z"/>
	<path fill="#FFFFFF" d="M133.108,67.405c-0.166-0.064-0.332-0.129-0.498-0.193c0.121-0.079,0.252-0.232,0.361-0.219
		c0.134,0.018,0.25,0.175,0.375,0.271C133.267,67.312,133.188,67.358,133.108,67.405z"/>
	<path fill="#FFFFFF" d="M102.372,68.276c-0.193,0.037-0.388,0.074-0.582,0.113C101.984,68.353,102.179,68.313,102.372,68.276z"/>
	<path fill="#FFFFFF" d="M524.148,31.332c0.088,0.034,0.174,0.069,0.262,0.104c-0.102,0.083-0.191,0.191-0.309,0.238
		c-0.063,0.024-0.17-0.056-0.258-0.089C523.945,31.5,524.046,31.416,524.148,31.332z"/>
	<path fill="#FFFFFF" d="M80.378,55.81c-0.495,0.155-0.752,0.282-1.017,0.299c-0.13,0.009-0.271-0.188-0.407-0.295
		c0.152-0.099,0.307-0.28,0.456-0.277C79.659,55.541,79.905,55.667,80.378,55.81z"/>
	<path fill="#FFFFFF" d="M250.738,53.272c-0.028-0.082-0.056-0.162-0.085-0.244c0.078-0.023,0.186-0.09,0.229-0.062
		c0.057,0.037,0.066,0.149,0.096,0.229C250.897,53.224,250.818,53.247,250.738,53.272z"/>
	<path fill="#FFFFFF" d="M1.932,54.38c0.099,0.001,0.199,0.001,0.298,0.001c-0.05,0.126-0.1,0.252-0.151,0.38
		c-0.084-0.05-0.196-0.08-0.242-0.154C1.812,54.567,1.897,54.458,1.932,54.38z"/>
	<path fill="#FFFFFF" d="M301.128,58.099c0.078,0.051,0.158,0.103,0.238,0.152c-0.053,0.068-0.141,0.203-0.15,0.197
		c-0.123-0.068-0.234-0.158-0.352-0.241C300.953,58.171,301.041,58.134,301.128,58.099z"/>
	<path fill="#FFFFFF" d="M281.763,59.61c-0.167-0.196-0.334-0.394-0.504-0.59c0.084,0.016,0.217,0.002,0.244,0.047
		c0.097,0.17,0.158,0.359,0.231,0.541L281.763,59.61z"/>
	<path fill="#FFFFFF" d="M413.964,58.845c0.084,0.043,0.166,0.086,0.252,0.129c-0.086,0.043-0.17,0.116-0.252,0.115
		c-0.086-0.002-0.17-0.078-0.252-0.122C413.796,58.927,413.88,58.886,413.964,58.845z"/>
	<path fill="#FFFFFF" d="M252.57,60.103c0.085,0.029,0.171,0.06,0.258,0.088c-0.06,0.049-0.128,0.146-0.174,0.135
		c-0.122-0.027-0.231-0.1-0.347-0.156C252.396,60.146,252.481,60.124,252.57,60.103z"/>
	<path fill="#FFFFFF" d="M257.529,60.282c0.078-0.03,0.157-0.063,0.235-0.094c0.006,0.131,0.012,0.26,0.016,0.39
		c-0.08-0.021-0.186-0.015-0.232-0.063C257.507,60.47,257.532,60.362,257.529,60.282z"/>
	<polygon fill="#FFFFFF" points="487.816,5.833 487.951,5.701 487.988,5.861 	"/>
	<path fill="#FFFFFF" d="M516.333,23.509c-0.07-0.043-0.139-0.088-0.207-0.132c0.08-0.029,0.162-0.088,0.24-0.08
		c0.076,0.008,0.145,0.084,0.215,0.13C516.498,23.454,516.416,23.482,516.333,23.509z"/>
	<polygon fill="#FFFFFF" points="107.978,67.647 107.92,67.808 107.728,67.705 	"/>
	<path fill="#FFFFFF" d="M82.392,68.467c0.137-0.103,0.277-0.286,0.389-0.271c0.117,0.018,0.221,0.219,0.297,0.357
		c0.015,0.028-0.152,0.213-0.186,0.2C82.724,68.687,82.571,68.577,82.392,68.467z"/>
	<path fill="#FFFFFF" d="M86.808,68.239c-0.008,0.058-0.017,0.115-0.025,0.173c-0.078-0.063-0.156-0.126-0.234-0.188
		C86.636,68.229,86.722,68.233,86.808,68.239z"/>
	<path fill="#FFFFFF" d="M27.113,69.347c-0.077,0.037-0.154,0.075-0.231,0.112c-0.055-0.153-0.117-0.306-0.155-0.464
		c-0.004-0.018,0.14-0.066,0.215-0.102C26.999,69.046,27.056,69.194,27.113,69.347z"/>
	<path fill="#FFFFFF" d="M497.404,15.875c0.098,0.009,0.191,0.019,0.291,0.027c-0.09,0.001-0.182,0.003-0.273,0.006
		C497.421,15.911,497.404,15.875,497.404,15.875z"/>
	<path fill="#FFFFFF" d="M362.123,51.999c0.02,0.059,0.041,0.115,0.063,0.173c-0.07,0.021-0.145,0.06-0.213,0.052
		c-0.027-0.002-0.045-0.104-0.066-0.16C361.978,52.04,362.05,52.021,362.123,51.999z"/>
	<path fill="#FFFFFF" d="M281.735,59.608c0.19-0.075,0.384-0.15,0.575-0.227c-0.075,0.045-0.146,0.096-0.229,0.126
		c-0.095,0.039-0.195,0.06-0.307,0.095C281.763,59.61,281.735,59.608,281.735,59.608z"/>
	<path fill="#FFFFFF" d="M248.288,60.229c-0.199,0.01-0.4,0.021-0.599,0.028c0.188-0.014,0.38-0.026,0.574-0.04
		C248.269,60.22,248.288,60.229,248.288,60.229z"/>
	<polygon fill="#FFFFFF" points="275.128,60.11 275.333,60.045 275.296,60.233 	"/>
	<path fill="#FFFFFF" d="M189.988,53.126c-0.153,0.088-0.307,0.176-0.46,0.266c0.173-0.066,0.346-0.134,0.521-0.195
		C190.056,53.202,189.988,53.126,189.988,53.126z"/>
	<path fill="#FFFFFF" d="M385.312,53.371c-0.176,0.05-0.266,0.094-0.354,0.088c-0.027-0.002-0.045-0.138-0.068-0.212
		C385.005,53.282,385.125,53.315,385.312,53.371z"/>
	<polygon fill="#FFFFFF" points="279.257,59.271 279.5,59.274 279.378,59.522 	"/>
	<path fill="#FFFFFF" d="M138.944,57.063c0.707-0.012,1.414-0.022,2.122-0.035c0.001,0-0.009,0.012-0.009,0.012
		c-0.688,0.009-1.377,0.02-2.079,0.031C138.968,57.073,138.944,57.063,138.944,57.063z"/>
	<polygon fill="#FFFFFF" points="392.292,55.875 392.537,55.794 392.505,56.007 	"/>
</g>
</svg>
