<?xml version="1.0" encoding="utf-8"?>
<!-- Generator: Adobe Illustrator 16.0.0, SVG Export Plug-In . SVG Version: 6.00 Build 0)  -->
<!DOCTYPE svg PUBLIC "-//W3C//DTD SVG 1.1//EN" "http://www.w3.org/Graphics/SVG/1.1/DTD/svg11.dtd">
<svg version="1.1" id="圖層_1" xmlns="http://www.w3.org/2000/svg" xmlns:xlink="http://www.w3.org/1999/xlink" x="0px" y="0px"
	 width="379.144px" height="63.26px" viewBox="0 0 379.144 63.26" enable-background="new 0 0 379.144 63.26" xml:space="preserve">
<g>
	<path fill="#FFFFFF" d="M253.053,45.469c-1.103-1.055-2.392-0.299-3.593-0.348c-0.321-0.014-0.836,0.358-0.947,0.246
		c-1.016-1.031-1.564-0.311-2.025,0.567c-1.066-0.127-2.082,0.037-2.84-0.666c-1.72,0.592-3.416,1.174-5.205,1.788
		c0.543,0.659,1.135,0.895,1.887,0.874c4.311-0.115,8.621-0.217,12.933-0.316c2.79-0.063,5.581-0.133,8.37-0.174
		c0.63-0.009,1.39-0.115,1.861,0.184c1.232,0.774,2.346,0.353,3.567,0.089c1.036-0.224,2.14-0.133,3.837-0.209
		c-1.047,0.311-1.5,0.446-2.503,0.743c0.856,0.139,1.171,0.236,1.483,0.23c1.981-0.031,3.91,0.156,5.879,0.563
		c1.711,0.351,3.594,0.086,5.365-0.158c0.813-0.112,1.59-0.156,2.389-0.092c0.9,0.07,1.799,0.147,2.695,0.234
		c0.442,0.042,0.896,0.071,1.324,0.186c0.424,0.108,0.821,0.316,1.461,0.573c-1.938,0.481-3.578,1.109-5.425,0.439
		c-1.42-0.515-2.834,0.354-4.247,0.353c-1.419-0.005-2.804-0.513-4.249,0.124c-0.977,0.431-2.073,0.6-3.129,0.828
		c-0.428,0.095-0.985,0.216-1.315,0.026c-1.31-0.755-2.348-0.085-3.565,0.303c-1.231,0.393-2.651,0.387-3.966,0.279
		c-1.975-0.16-3.926-0.438-5.871,0.153c-1.121-0.507-2.236,0.037-3.354,0.032c-0.771-0.004-1.629-0.211-2.052,0.817
		c-0.08,0.192-0.634,0.257-0.971,0.267c-2.695,0.075-5.392,0.141-8.084-0.083c-0.628-0.051-1.339-0.227-1.877-0.011
		c-1.357,0.542-2.688,0.629-4.146,0.591c-1.353-0.035-2.678-0.018-4.015-0.302c-0.587-0.125-1.237,0.066-1.858,0.088
		c-3.063,0.099-6.127,0.146-9.188,0.3c-1.585,0.08-3.211,0.035-4.662,0.945c-0.429,0.27-1.04,0.242-1.724,0.382
		c-0.197-0.396-0.383-0.771-0.658-1.321c-2.866,0.09-5.818,0.147-8.768,0.288c-2.037,0.096-4.072,0.246-6.097,0.492
		c-0.742,0.093-1.403,0.019-2.121-0.11c-1.215-0.221-2.457-0.29-3.911-0.448c-0.404,0.259-0.955,0.813-1.602,0.966
		c-0.756,0.178-1.608,0.092-2.39-0.046c-0.73-0.129-1.415-0.198-2.125,0.038c-0.697,0.231-1.389,0.269-2.125,0.049
		c-0.398-0.12-0.876,0.024-1.318,0.042c-2.971,0.113-5.943,0.215-8.913,0.343c-2.433,0.105-4.861,0.266-7.294,0.356
		c-1.074,0.042-2.154-0.05-3.232-0.036c-3.336,0.044-6.674,0.042-10.006,0.197c-1.508,0.068-3.002,0.361-4.527,0.181
		c-0.258-0.03-0.553,0.252-1.369,0.658c1.24,0.202,1.896,0.309,2.698,0.438c-0.222,0.282-0.448,0.635-0.489,0.613
		c-1.553-0.769-3.17-0.167-4.729-0.134c-1.018,0.021-1.702-0.305-2.439-0.853c0.191-0.591,0.675-0.442,1.092-0.412
		c0.448,0.03,0.896,0.162,1.342,0.146c0.855-0.031,1.307-0.487,1.229-1.546c-0.307-0.046-0.638-0.146-0.963-0.13
		c-0.355,0.015-0.747,0.277-1.051,0.188c-2.224-0.652-4.527,0.077-6.721-0.38c-1.482-0.311-2.837-0.272-4.229,0.193
		c-0.086-0.147-0.163-0.301-0.267-0.435c-0.022-0.027-0.145,0.023-0.222,0.037c0.186,0.107,0.372,0.215,0.558,0.322
		c1.417,0.17,2.835,0.342,4.253,0.511c0.802,0.097,1.615,0.138,2.401,0.303c0.81,0.172,1.31,0.786,1.119,1.266
		c-0.268,0.675-0.947,0.621-1.377,0.446c-1.476-0.601-2.999-0.309-4.499-0.391c-0.258-0.015-0.521,0.087-0.766,0.133
		c-0.25,0.591-0.033,0.843,0.528,0.938c1.83,0.31,3.657,0.639,5.483,0.968c0.063,0.014,0.109,0.127,0.272,0.33
		c-0.78,0.705-1.994-0.021-2.606,0.928c-0.572-0.378-0.998-0.693-1.453-0.953c-0.536-0.309-1.037-0.521-1.754-0.342
		c-0.488,0.123-1.116-0.309-1.793-0.526c-0.219,0.329-0.454,0.685-0.691,1.042c-0.176,0.03-0.355,0.105-0.526,0.086
		c-1.701-0.204-3.36-0.475-4.823-1.527c-0.924-0.666-2.079-0.372-3.191-0.416c-0.25,0.414-0.48,0.795-0.711,1.175l0.059-0.014
		c-2.937-0.997-5.872-1.39-9.027-0.958c-2.729,0.374-5.555,0.453-8.32-0.264c-0.943-0.246-1.957-0.189-2.926,0.216
		c-0.344,0.143-0.809-0.001-1.234-0.206c1.084-0.715,2.352-0.442,3.502-0.734c1.123-0.283,2.262-0.497,3.645-0.796
		c0.564,0.233,1.38,0.572,2.234,0.927c0.015-1.238,0.02-1.284-0.441-1.627c-0.785-0.579-1.588-1.135-2.34-1.671
		c0.094-0.355,0.15-0.579,0.23-0.89c-2.33-0.163-4.605-0.574-6.965,0.011c-0.965,0.239-2.104-0.231-3.277-0.396
		c-2.806,1.716-5.857,2.016-9.014,0.573c-0.818-0.373-1.584-0.446-2.27,0.151c-0.6,0.524-1.262,0.567-2.006,0.601
		c-2.158,0.094-4.268,0.136-6.398-0.534c-1.322-0.415-2.813-0.663-4.228,0.109c-0.421,0.231-1.034,0.186-1.551,0.152
		c-0.9-0.059-1.793-0.229-2.692-0.305c-1.94-0.161-3.895-0.858-5.819,0.092c-0.075,0.037-0.181,0.032-0.269,0.023
		c-2.671-0.249-5.346,0.146-8.016-0.04c-0.445-0.029-0.908-0.068-1.324-0.216c-1.603-0.563-3.221-0.4-4.811-0.052
		c-0.82,0.179-1.535,0.153-2.363-0.021c-1.125-0.235-2.352-0.289-3.482-0.103c-0.822,0.139-1.559,0.793-2.381,1.244
		c-0.545-0.15-1.159-0.303-1.762-0.49c-1.051-0.328-2.085-0.618-3.115,0.092c-0.205,0.143-0.532,0.213-0.778,0.171
		c-2.705-0.459-5.339,0.893-8.048,0.313c-0.135-0.028-0.31,0.148-0.655,0.326c0.313,0.247,0.541,0.574,0.803,0.604
		c0.705,0.082,1.424,0.039,2.137,0.039c1.611,0,3.224-0.016,4.835,0.005c0.329,0.005,0.655,0.138,1.32,0.285
		c-0.479,0.436-0.684,0.78-0.937,0.819c-0.708,0.104-1.436,0.084-2.155,0.113c-0.705,0.025-1.41,0.055-2.58,0.1
		c1.185,0.864,2.128,1.023,3.073,1.001c2.783-0.066,5.578-0.414,8.343-0.246c2.785,0.169,5.556-0.111,8.309,0.05
		c1.939,0.111,3.965-0.162,5.869,0.607c0.232,0.096,0.691-0.37,1.038-0.573c0.546,0.471,0.378,0.968,0.165,1.471l0.031,0.032
		c-0.612-0.045-1.252-0.222-1.832-0.107c-1.521,0.3-3.02,0.187-4.553,0.168c-2.283-0.025-4.69-0.116-6.776,1.246
		c-0.356,0.23-0.821,0.529-1.189,0.477c-2.505-0.366-4.987,0.241-7.495,0.087c-2.512-0.156-5.043,0.025-7.566,0.02
		c-1.097-0.004-2.151,0.092-3.17,0.551c-0.999,0.451-2.073,0.505-3.165,0.562c-1.616,0.084-3.227,0.33-4.835,0.543
		c-0.709,0.095-1.332,0.281-2.039-0.251c-0.418-0.313-1.186-0.239-1.791-0.214c-0.976,0.042-1.925,0.057-2.811-0.422
		c0.262-0.739,1.371-0.85,1.005-1.801c0.525-0.439,1.049-0.882,1.646-1.383c-0.331-0.104-0.779-0.135-1.037-0.369
		c-0.158-0.147-0.15-0.72,0.01-0.903c0.203-0.233,0.628-0.342,0.971-0.374c1.145-0.109,1.428-0.929,1.645-1.817
		c-0.552-0.867-1.096,0.235-1.687-0.049c-0.547-0.261-1.197-0.298-1.784-0.486c-1.164-0.374-2.193-0.24-3.381,0.208
		c-1.529,0.578-3.163,0.4-4.376-1.028c-0.211-0.248-0.559-0.383-0.87-0.588c0.183-0.269,0.333-0.488,0.482-0.706
		c0.307,0.16,0.633,0.291,0.911,0.489c0.187,0.133,0.304,0.361,0.451,0.541c0.279-0.373,1.008,0.17,1.241-0.525
		c-0.685-0.196-0.924,0.247-1.238,0.546c-0.207-0.568,0.351-1.478-0.736-1.654c0.298-0.742,0.476-1.536,1.389-1.88
		c0.468-0.176,0.833-0.619,1.415-1.074c-1.59-1.18-3.498-0.195-5.024-1.311c-0.246-1.257,0.838-1.955,1.624-2.62
		c0.406-0.344,0.688-0.591,0.943-1.08c0.378-0.723,1.141-1.1,1.997-1.253c0.514-0.091,1.017-0.309,1.49-0.54
		c0.391-0.189,0.429-0.967,0.049-1.142c-1.14-0.522-2.299-1.006-3.465-1.467c-0.5-0.197-1.048-0.272-1.558-0.449
		c-1.734-0.598-2.128-1.711-1.278-3.511c0.113-0.238,0.148-0.512,0.244-0.758c0.263-0.68,0.737-1,1.479-0.831
		c0.177,0.04,0.351,0.091,0.525,0.138c0.479,0.13,0.916,0.103,1.084-0.452c0.168-0.553-0.268-0.851-0.641-1.047
		c-0.545-0.291-1.141-0.511-1.74-0.674c-0.509-0.141-1.052-0.16-1.594-0.234c0.003-0.641,0.479-0.529,0.727-0.508
		c2.017,0.17,3.188-0.779,3.707-2.848c-1.053-0.455-2.535,0.131-3.431-1.232c0.931-0.628,1.862-1.256,2.874-1.938
		c-0.283-0.603-0.734-1.185-0.804-1.81c-0.074-0.664,0.299-1.329,0.32-2.066c0.016-0.588,0.693-1.16,1.171-1.881
		c0.607-0.082,1.351-0.181,2.094-0.279c-3.893-0.363-3.893-0.363-5.448-2.441c0.997-0.456,2.038-0.78,2.896-1.371
		c0.799-0.552,1.326-1.492,2.111-2.075c1.044-0.772,2.285-0.927,3.605-0.772c1.219,0.14,1.266,0.014,1.624-1.527
		c0.543,0.342,1.064,0.668,1.703,1.068c0.594-1.193,1.552-1.566,2.86-1.196c0.497,0.141,1.078,0.084,1.604,0.009
		c1.774-0.258,2.479-0.252,4.302,0.285c0.815,0.24,1.394-0.211,1.985-0.594c0.157-0.101,0.201-0.452,0.195-0.688
		c-0.003-0.106-0.234-0.257-0.388-0.304c-0.337-0.104-0.69-0.156-1.051-0.231c1.221-1.826,1.542-1.995,3.233-1.668
		c0.531,0.104,1.048,0.305,1.582,0.367c1.213,0.147,1.647-0.075,2.754-1.291c-0.613-0.831-1.491-1.181-2.321-0.63
		C28.845,6.56,27.949,6.46,26.8,6.263c-0.045-0.375-0.288-0.918-0.112-1.186c0.547-0.83,0.02-1.536-0.105-2.288
		c0.531-0.082,1.27,0.02,1.478-0.267c0.684-0.938,1.488-1.229,2.571-1.003c0.783,0.165,1.37-0.26,1.982-0.663
		c0.918-0.603,1.834-0.72,2.688,0.178c0.582,0.609,1.252,1.007,2.17,0.825c0.337-0.063,0.75-0.022,1.065,0.113
		c1.99,0.862,4.069,0.557,6.129,0.535c3.338-0.033,6.676-0.061,10.013-0.082c0.36-0.002,0.724,0.017,1.079,0.062
		c3.76,0.474,7.514,0.977,11.275,1.418c1.248,0.146,2.515,0.156,3.773,0.201c1.439,0.054,2.928-0.138,4.304,0.179
		c1.25,0.286,2.261,0.02,3.315-0.514c0.598,0.829,1.272,1.291,2.291,1.281c2.078-0.018,4.156,0.135,6.232,0.092
		c1.154-0.023,2.32-0.084,3.422-0.661c0.692-0.361,1.582-0.611,2.336-0.521c0.858,0.103,1.701-0.213,2.611,0.166
		c0.572,0.235,1.439-0.319,2.188-0.405c0.879-0.102,1.789-0.194,2.657-0.079c0.825,0.11,1.821-0.101,2.403,0.803
		c1.883,0.681,3.773,1.134,5.773,0.197c0.854,0.92,2.16,1.478,3.107,0.777c0.877-0.647,1.271-0.273,2.039-0.145
		c1.202,0.203,2.527,0.078,3.727-0.213c0.916-0.221,1.686-0.394,2.588,0.003c0.459,0.203,1.058,0.102,1.594,0.115
		c3.049,0.069,6.066-0.727,9.129-0.329c1.973-0.585,3.904-0.308,5.834,0.24c0.32,0.091,0.781,0.084,1.041-0.087
		c1.375-0.904,2.805-0.389,4.188-0.162c0.725,0.12,1.36,0.133,2.096,0.025c1.039-0.154,2.137,0.019,3.203,0.119
		c0.559,0.055,0.973,0.059,1.447-0.396c0.438-0.421,3.306-0.63,3.844-0.322c0.809,0.463,1.468,0.242,2.294,0.035
		c1.79-0.45,3.615-1.146,5.507-0.363c-0.73,1.168-0.73,1.168-2.284,1.922c0.435,0.875,1.212,0.999,2.022,0.833
		c2.938-0.601,5.92-0.47,8.886-0.603c4.77-0.215,9.542-0.363,14.312-0.571c5.496-0.238,10.99-0.58,16.488-0.751
		c4.693-0.146,9.391-0.12,14.088-0.16c3.973-0.032,7.953,0.108,11.912-0.131c3.143-0.19,6.281-0.183,9.42-0.255
		c1.068-0.023,2.168,0.371,3.207,0.229c2.99-0.402,5.918,0.433,8.896,0.265c2.596-0.146,5.203-0.034,7.781,0.441
		c0.477,0.089,0.983,0.013,1.559,0.013c-0.156,0.3-0.221,0.564-0.307,0.572c-0.961,0.079-1.931,0.188-2.892,0.154
		c-2.343-0.082-4.69-0.152-7.021-0.382c-2.246-0.222-4.485,0.06-6.729-0.104c-3.233-0.234-6.474,0.031-9.709,0.098
		c-1.078,0.022-2.168-0.056-3.237-0.189c-1.024-0.131-1.873,0.285-2.779,0.851c2.654,0.353,5.301,0.768,7.965,1.021
		c0.847,0.081,1.732-0.372,2.604-0.386c0.879-0.016,1.801,0.438,2.631,0.285c1.545-0.285,3.023-0.008,4.531,0.092
		c1.784,0.117,3.572,0.176,5.57,0.271c-0.436,0.276-0.721,0.459-1.205,0.768c2.484,0.55,4.794,0.543,7.098,0.581
		c4.232,0.068,8.463,0.097,12.689,0.409c2.964,0.219,5.949,0.119,8.92,0.25c2.971,0.132,5.939,0.037,8.912,0.393
		c2.945,0.353,5.938,0.312,8.908,0.471c5.672,0.307,11.342,0.634,17.014,0.95c0.451,0.024,0.904,0.061,1.354,0.038
		c0.795-0.038,1.414,0.156,2.117,0.654c0.65,0.463,1.563,0.83,2.545,0.605c0.49-0.111,1.057,0.07,1.582,0.16
		c1.045,0.179,2.021,0.627,3.164,0.175c0.48-0.19,1.191,0.24,1.811,0.318c0.475,0.062,0.963,0.014,1.787,0.014
		c-1.797,1.301-3.711,0.008-5.328,1.119c0.797,0.672,1.645,0.946,2.484,0.781c2.383-0.468,4.668,0.265,6.979,0.506
		c1.449,0.151,2.805,0.45,4.229-0.133c0.58-0.236,1.305-0.146,1.314,0.813l0.031-0.038c-2.088,0.461-4.313,0.609-6.23,1.457
		c-2.545,1.122-5.113,0.514-7.654,0.765c-0.678,0.066-1.395-0.271-2.096-0.419c-1.184-0.25-2.063,0.161-2.84,1.372
		c1.566,0.124,2.982,0.102,4.336,0.38c1.441,0.298,2.846,0.063,4.248,0.11c1.961,0.065,3.928,0.188,5.896,0.191
		c1.246,0.003,2.492-0.021,3.738-0.036c0.178-0.002,0.408-0.104,0.523-0.023c1.223,0.842,2.57,0.437,3.893,0.505
		c2.238,0.117,4.471,0.451,6.691,0.771c1.152,0.166,2.277,0.499,3.416,0.756c0.432,0.097,0.896,0.341,1.287,0.255
		c1.482-0.326,2.83,0.068,4.205,0.527c0.582,0.195,1.244,0.144,1.871,0.208c5.285,0.555,10.57,1.1,15.855,1.674
		c0.875,0.096,1.738,0.313,2.598,0.784c-0.457,0.054-0.914,0.129-1.373,0.153c-0.441,0.022-0.887,0.002-1.328-0.019
		c-3.326-0.15-6.652-0.305-9.979-0.457c-0.541-0.025-1.08-0.071-1.621-0.082c-2.146-0.039-2.146-0.035-3.727,1.545
		c-2.207,0.453-4.455-0.567-6.646,0.207c-0.061,0.021-0.082,0.145-0.119,0.218c0.203,0.562,0.699,0.444,1.127,0.505
		c1.795,0.252,3.559,0.385,5.359-0.141c0.828-0.242,1.785-0.15,2.67-0.063c2.939,0.291,5.877,0.627,8.809,1.001
		c0.693,0.088,1.361,0.391,2.043,0.594l0.066-0.066c-1.834,0.892-3.729,1.109-5.748,0.721c-1.051-0.204-2.162-0.041-3.242-0.12
		c-2.082-0.152-3.881,0.428-5.406,1.989c2.742,0.826,5.547,0.689,8.311,0.916c1.701,0.141,3.406,0.277,5.104,0.474
		c0.297,0.035,0.563,0.354,1.211,0.787c-1.457,0.12-2.49,0.276-3.523,0.273c-1.893-0.007-3.787-0.198-5.68-0.155
		c-4.709,0.107-9.354-0.58-14.029-0.932c-3.592-0.273-7.195-0.389-10.797-0.517c-0.602-0.021-1.271,0.135-1.809,0.406
		c-1.176,0.598-2.381,0.681-3.666,0.646c-2.164-0.061-4.33-0.013-6.492,0.044c-0.371,0.009-0.732,0.272-1.508,0.584
		c2.209,0.813,4.061,1.027,5.916,0.946c2.701-0.122,5.369,0.137,8.043,0.407c0.627,0.063,1.26,0.051,1.889,0.107
		c0.719,0.064,1.492,0.018,2.137,0.281c3.027,1.245,6.104,1.102,9.217,0.494c0.354-0.067,0.717-0.071,1.074-0.106
		c0.836-0.078,1.563,0.359,2.322,0.485c0.518,0.083,1.063-0.635,1.893-0.559c1.307,0.12,2.521,0.39,3.51,1.215
		c0.693,0.58,1.383,0.801,2.232,0.672c1.018-0.154,1.877,0.33,3.158,0.459c-1.002,0.861-1.82,0.785-2.59,0.74
		c-1.467-0.084-2.869,0.004-4.186,0.756c-0.842,0.479-1.734,0.419-2.59-0.032c-0.523-0.275-1.088-0.308-1.545,0.014
		c-0.752,0.527-1.518,0.352-2.332,0.311c-2.229-0.11-4.455-0.112-6.695,0.002c-3.242,0.17-6.5,0.053-9.75,0.055
		c-2.074,0.003-4.15-0.005-6.225,0.011c-0.965,0.007-1.916-0.66-2.883-0.063c-0.121,0.464,0.121,0.702,0.521,0.729
		c0.617,0.041,1.238,0.012,1.816,0.012c0.436,0.482,0.828,0.914,1.15,1.271c-1.113,0.197-2.264,0.37-3.4,0.611
		c-1.977,0.422-3.955,0.201-5.926,0.034c-1.258-0.108-2.482-0.142-3.754,0.004c-1.775,0.204-3.586,0.068-5.379,0.135
		c-0.385,0.015-0.76,0.263-1.574,0.563c0.975,0.419,1.512,0.65,2.307,0.992c-3.357,0.202-6.436,0.814-9.73,0.396
		c2.07-0.945,4.162-0.876,6.18-0.854c0.146-0.762-0.289-0.771-0.613-0.762c-1.35,0.044-2.703,0.249-4.041,0.169
		c-2.334-0.141-4.637,0.406-6.964,0.223c-0.09-0.008-0.183-0.008-0.271,0.011c-1.265,0.27-2.219,1.374-3.824,0.879
		c-1.208-0.371-2.657,0.052-4,0.11c-1.324,0.06-2.703-0.213-3.85,0.811c-0.224,0.201-0.688,0.175-1.041,0.18
		c-1.711,0.027-3.422,0.059-5.131,0.027c-0.707-0.014-1.41-0.178-2.115-0.275c-1.322-0.186-2.621-0.386-3.988-0.229
		c-1.201,0.137-2.416-0.276-3.656-0.28c-3.873-0.007-7.744-0.121-11.616-0.185c-0.63-0.012-1.282-0.042-1.708,0.576L253.053,45.469z
		 M93.089,52.521c-0.17,0-0.342-0.007-0.511,0.005c-0.071,0.006-0.138,0.056-0.206,0.084c0.125,0.057,0.274,0.183,0.37,0.15
		c0.151-0.052,0.267-0.209,0.396-0.32c-0.1,0.964,0.436,0.994,1.199,0.752C93.906,52.942,93.509,52.715,93.089,52.521z
		 M215.193,5.832c-0.16,0.071-0.346,0.233-0.48,0.198c-1.557-0.39-3.127,0.211-4.719-0.155c-1.15-0.266-2.412-0.053-3.789-0.053
		c0.269,0.206,0.367,0.323,0.494,0.37c2.531,0.949,5.119,0.387,7.686,0.239c0.275-0.017,0.529-0.429,0.806-0.634
		c0.263,0.235,0.5,0.518,0.804,0.676c0.094,0.047,0.364-0.25,0.555-0.389c-0.096-0.114-0.189-0.32-0.291-0.324
		C215.904,5.747,215.548,5.803,215.193,5.832z M38.908,3.687c-0.699-0.289-0.928-0.441-1.171-0.475
		c-1.581-0.202-3.152-0.396-4.642-1.045c-0.636-0.278-1.365-0.423-2.059-0.456c-0.373-0.019-0.836,0.255-1.118,0.537
		c-0.188,0.186-0.128,0.621-0.177,0.924C32.482,4.05,35.764,4.264,38.908,3.687z M147.06,9.267c-0.605-0.16-0.891-0.341-1.078-0.267
		c-0.951,0.373-1.854,0.59-2.771-0.113c-0.177-0.137-0.552-0.133-0.786-0.053c-1.515,0.518-3.021,0.068-4.532,0.026
		c-0.364-0.012-0.733,0.104-1.099,0.161c2.893,1.096,5.834,0.798,8.753,0.789C145.944,9.811,146.338,9.535,147.06,9.267z
		 M229.869,46.139c-2.242-0.31-6.289,0.105-8.05,0.633c0.099,0.12,0.216,0.354,0.292,0.34c0.977-0.169,1.912-0.11,2.91,0.063
		C226.716,47.467,228.314,46.785,229.869,46.139z M343.429,26.835c-0.123-0.23-0.152-0.35-0.193-0.353
		c-2.41-0.167-4.822-0.333-7.236-0.467c-0.143-0.008-0.299,0.255-0.555,0.487C338.197,27.377,340.765,27.191,343.429,26.835z
		 M121.49,52.505c0.787,0.326,1.18,0.605,1.592,0.638c1.25,0.093,2.51,0.146,3.762,0.093c0.467-0.021,1.107,0.216,1.509-0.562
		c-1.714-0.671-3.533,0.019-5.218-0.492C122.779,52.072,122.314,52.329,121.49,52.505z M350.308,25.823
		c-0.865-1.094-1.783-1.24-2.787-1.16c-0.545,0.045-1.232-0.384-1.635,0.52C347.152,26.115,348.525,26.069,350.308,25.823z
		 M150.835,9.779c0.002-0.184,0.004-0.366,0.006-0.551c-0.864-0.085-1.726-0.19-2.591-0.229c-0.118-0.007-0.251,0.316-0.447,0.586
		C148.91,9.985,149.875,9.861,150.835,9.779z M20.559,11.872c-0.776-0.38-1.55-0.626-2.516-0.053
		c0.539,0.441,0.91,0.812,1.343,1.083C20.054,13.323,20.426,12.994,20.559,11.872z M221.434,6.012
		c-1.616-0.535-1.616-0.535-3.153,0.057C219.376,6.787,220.395,6.254,221.434,6.012z M336.871,36.766
		c0.971,0.514,1.627,0.221,2.533-0.124C338.281,35.549,337.718,36.452,336.871,36.766z M135.511,6.087
		c0.021-0.096,0.043-0.19,0.064-0.286c-0.545-0.252-1.076-0.545-1.645-0.73c-0.15-0.05-0.55,0.206-0.582,0.369
		c-0.037,0.188,0.191,0.601,0.34,0.618C134.289,6.13,134.902,6.087,135.511,6.087z M152.509,5.793
		c0.055,0.171,0.111,0.34,0.168,0.511c0.342,0.036,0.685,0.103,1.027,0.101c0.389,0,0.794-0.17,0.657-0.605
		c-0.079-0.252-0.523-0.565-0.774-0.542C153.214,5.291,152.867,5.6,152.509,5.793z M148.744,6.609
		c0.779,0.177,1.62,0.756,2.379-0.178C150.205,5.698,149.457,6.055,148.744,6.609z M165.929,53.48
		c0.256,0.805,0.627,0.931,1.088,0.882c0.154-0.017,0.299-0.123,0.448-0.188c-0.13-0.111-0.243-0.266-0.393-0.329
		C166.785,53.722,166.475,53.649,165.929,53.48z M24.292,11.896c0.871,0.276,0.871,0.276,1.618-0.223
		C25.375,11.789,24.77,11.079,24.292,11.896z M19.729,54.198c-0.154,0-0.316-0.012-0.474,0.005
		c-0.069,0.008-0.131,0.074-0.195,0.116c0.202-0.014,0.405-0.024,0.607-0.045C19.692,54.273,19.712,54.221,19.729,54.198z
		 M15.557,17.075c0.098-0.133,0.196-0.262,0.295-0.392c-0.338-0.233-0.663-0.492-1.023-0.686c-0.093-0.051-0.343,0.065-0.432,0.178
		c-0.064,0.081-0.032,0.368,0.041,0.408C14.796,16.776,15.182,16.916,15.557,17.075z M220.648,46.631
		c-0.252-0.075-0.479-0.18-0.714-0.193c-0.075-0.004-0.165,0.229-0.248,0.353c0.235,0.086,0.466,0.193,0.708,0.239
		C220.442,47.038,220.535,46.813,220.648,46.631z M8.76,45.461c0.438,0.342,0.694,0.69,0.88,0.658
		c0.347-0.064,0.847-0.211,0.591-0.938C9.841,45.255,9.453,45.329,8.76,45.461z M345.123,27c0,0.086,0,0.17,0,0.255
		c0.512,0,1.023,0,1.533,0c-0.002-0.085-0.004-0.169-0.004-0.255C346.14,27,345.63,27,345.123,27z M353.015,25.592
		c-0.141-0.176-0.227-0.385-0.324-0.39c-0.234-0.018-0.475,0.066-0.709,0.107c0.088,0.132,0.166,0.363,0.268,0.376
		C352.486,25.713,352.732,25.634,353.015,25.592z M162.71,53.729c-0.225,0.108-0.369,0.178-0.512,0.246
		c0.146,0.143,0.271,0.336,0.447,0.404c0.117,0.046,0.303-0.087,0.459-0.141C162.97,54.064,162.834,53.89,162.71,53.729z
		 M349.593,36.891c0.066-0.032,0.131-0.063,0.195-0.093c-0.115-0.014-0.23-0.028-0.346-0.04
		C349.496,36.802,349.544,36.846,349.593,36.891z M236.958,45.656c0.076-0.007,0.151-0.013,0.229-0.019
		c-0.048-0.082-0.084-0.176-0.15-0.237c-0.02-0.018-0.125,0.057-0.188,0.088C236.884,45.544,236.921,45.6,236.958,45.656z
		 M159.154,9.329c-0.012-0.112-0.022-0.226-0.033-0.338c-0.316,0.031-0.632,0.063-0.947,0.094c0.012,0.113,0.023,0.228,0.035,0.342
		C158.523,9.395,158.838,9.361,159.154,9.329z M15.906,13.073c0.083-0.024,0.166-0.052,0.25-0.075
		c-0.101-0.082-0.201-0.163-0.302-0.245c-0.052,0.068-0.104,0.139-0.157,0.208C15.767,12.998,15.837,13.036,15.906,13.073z
		 M18.373,16.732c-0.139-0.063-0.273-0.146-0.419-0.184c-0.047-0.012-0.124,0.1-0.187,0.155c0.092,0.101,0.188,0.285,0.274,0.279
		C18.156,16.979,18.263,16.825,18.373,16.732z M339.71,24.387c-0.063-0.045-0.123-0.117-0.189-0.122
		c-0.064-0.005-0.135,0.061-0.203,0.093c0.063,0.043,0.121,0.117,0.184,0.121C339.57,24.482,339.64,24.42,339.71,24.387z
		 M131.113,58.596c-0.125-0.018-0.248-0.034-0.37-0.051c0.056,0.05,0.104,0.133,0.167,0.142
		C130.97,58.695,131.042,58.631,131.113,58.596z M98.128,52.674c-0.114-0.074-0.22-0.161-0.342-0.212
		c-0.028-0.012-0.145,0.097-0.152,0.159c-0.008,0.062,0.084,0.194,0.109,0.188C97.875,52.785,97.999,52.724,98.128,52.674z"/>
	<path fill="#FFFFFF" d="M60.554,57.85c0.916-0.292,1.234-0.489,1.547-0.479c6.145,0.187,12.308-0.253,18.443,0.72
		c-0.869,0.018-1.738,0.032-2.606,0.055c-0.806,0.021-1.614,0.018-2.417,0.083c-0.885,0.072-1.822,0.06-2.637,0.357
		c-1.227,0.449-2.424,0.535-3.699,0.403c-1.598-0.162-3.188-0.4-4.811,0.029C63.173,59.336,62.138,58.698,60.554,57.85z"/>
	<path fill="#FFFFFF" d="M238.644,2.192c-1.706,0.771-3.467,0.438-5.211,0.489c-1.703,0.052-3.409,0.061-5.113,0.061
		c-1.797,0-3.594-0.016-5.391-0.06c-1.663-0.042-3.325-0.13-4.979-0.198c-0.063-0.707,0.354-0.658,0.66-0.635
		c2.572,0.192,5.153-0.292,7.723,0.104c2.051-0.577,4.094,0.124,6.146,0.043c1.969-0.076,3.944,0.048,5.917,0.089
		C238.479,2.088,238.562,2.155,238.644,2.192z"/>
	<path fill="#FFFFFF" d="M89.358,58.271c-4.125,0.407-5.142,0.329-6.8-0.554C84.851,57.611,86.9,56.951,89.358,58.271z"/>
	<path fill="#FFFFFF" d="M353.058,17.535c-0.66,0.284-3.814,0.543-5.033,0.382c-0.096-0.014-0.16-0.266-0.236-0.405
		C349.798,17.051,350.898,17.057,353.058,17.535z"/>
	<path fill="#FFFFFF" d="M379.144,29.645c-1.752,1.375-3.5,0.482-5.861,0.424c1.42-0.672,2.348-0.373,3.229-0.414
		C377.384,29.614,378.265,29.645,379.144,29.645z"/>
	<path fill="#FFFFFF" d="M144.726,1.479c-1.443,1.276-2.951,0.799-4.467,0.725c0.121-0.255,0.171-0.528,0.272-0.55
		c1.19-0.24,2.388-0.455,3.589-0.64C144.238,0.996,144.392,1.215,144.726,1.479z"/>
	<path fill="#FFFFFF" d="M214.644,54.954c-1.809,0.509-3.049,0.877-4.305,1.19c-0.226,0.059-0.519-0.079-0.756-0.183
		c-0.133-0.058-0.215-0.229-0.318-0.349C211.847,54.636,212.931,54.453,214.644,54.954z"/>
	<path fill="#FFFFFF" d="M227.125,62.267c-0.696-0.467-1.34-0.262-2.028,0.083c-1.388,0.688-1.396,0.685-3.375,0.375
		c1.69-0.792,3.122-1.329,4.745-0.925c0.23,0.058,0.402,0.342,0.602,0.521L227.125,62.267z"/>
	<path fill="#FFFFFF" d="M358.531,17.936c-0.906,0.01-2.387,0.064-3.813-0.384C356.292,16.643,357.558,18.544,358.531,17.936z"/>
	<path fill="#FFFFFF" d="M45.625,55.804c4.101-0.666,4.101-0.666,5.932,0.04c-0.418-0.141-0.848-0.416-1.254-0.387
		c-0.508,0.038-0.986,0.396-1.501,0.494C47.85,56.137,46.894,56.073,45.625,55.804z"/>
	<path fill="#FFFFFF" d="M130.757,2.193c-2.828,0.381-2.828,0.381-3.496,0.056C128.369,1.097,128.626,1.084,130.757,2.193z"/>
	<path fill="#FFFFFF" d="M159.182,58.596c-2.001,0.388-3.272-0.623-5.065-0.517C156.613,57.638,156.613,57.638,159.182,58.596z"/>
	<path fill="#FFFFFF" d="M55.061,0.946c3.147-0.419,3.147-0.419,4.119,0.324c-0.948,0.067-1.704,0.056-2.454,0.003
		C56.316,1.244,55.914,1.119,55.061,0.946z"/>
	<path fill="#FFFFFF" d="M164.831,3.756c1.378,0.063,2.72-0.713,4.179-0.275c-0.198,0.729-0.741,0.455-1.102,0.531
		c-0.521,0.111-1.073,0.074-1.596,0.182c-0.407,0.085-0.789,0.293-1.251,0.474c-0.099-0.405-0.158-0.654-0.22-0.904
		C164.84,3.76,164.831,3.756,164.831,3.756z"/>
	<path fill="#FFFFFF" d="M245.056,2.736c-1.406,0-2.469,0-4.129,0C242.603,2.096,243.69,1.839,245.056,2.736z"/>
	<path fill="#FFFFFF" d="M39.148,55.663c1.354,0,2.707,0,4.053,0c0.038,0.13,0.109,0.266,0.081,0.293
		C42.812,56.392,41.379,56.34,39.148,55.663z"/>
	<path fill="#FFFFFF" d="M94.994,58.403c-0.66-0.068-1.32-0.164-1.982-0.201c-0.615-0.034-1.234-0.007-2.041-0.007
		C92.162,57.711,94.042,57.642,94.994,58.403z"/>
	<path fill="#FFFFFF" d="M354.617,20.933c-1.318,0.479-2.627,0.297-3.934,0C351.996,20.933,353.306,20.933,354.617,20.933z"/>
	<path fill="#FFFFFF" d="M149.503,60.073c1.053-0.196,2.081-0.084,3.433,0.688c-0.718,0.044-1.073,0.134-1.397,0.07
		c-0.6-0.117-1.182-0.325-1.771-0.491c-0.166-0.048-0.336-0.083-0.504-0.123C149.333,60.175,149.402,60.134,149.503,60.073z"/>
	<path fill="#FFFFFF" d="M15.989,9.809c-0.896,0.316-1.317-0.238-1.537-0.94c-0.074-0.234,0.133-0.716,0.35-0.837
		c0.221-0.123,0.671-0.036,0.917,0.119C16.381,8.571,15.982,9.233,15.989,9.809z"/>
	<path fill="#FFFFFF" d="M122.695,2.938c-0.745,0.518-1.425,0.373-2.224-0.217C121.355,1.938,122.024,2.444,122.695,2.938z"/>
	<path fill="#FFFFFF" d="M124.517,58.985c1.175,0.088,2.422-0.273,3.66,0.507c-1.5,0.907-2.43-0.439-3.59-0.526
		C124.576,58.972,124.517,58.985,124.517,58.985z"/>
	<path fill="#FFFFFF" d="M368.253,29.038c0.957,0.064,1.912,0.13,3.18,0.217c-1.221,0.547-1.906,0.759-2.148,0.596
		c-0.357-0.239-0.645-0.584-0.963-0.882C368.322,28.971,368.253,29.038,368.253,29.038z"/>
	<path fill="#FFFFFF" d="M212.593,2.184c-0.997,0-1.992,0-2.987,0c0.002-0.051,0.003-0.104,0.005-0.153c0.995,0,1.99,0,2.984,0
		C212.595,2.08,212.593,2.133,212.593,2.184z"/>
	<path fill="#FFFFFF" d="M145.218,59.506c1.587,0.003,1.587,0.003,1.583,1.264c-0.25-0.076-0.526-0.088-0.698-0.228
		C145.843,60.332,145.657,60.033,145.218,59.506z"/>
	<path fill="#FFFFFF" d="M1.175,24.808c1.015,0,2.028,0,3.551,0c-1.48,0.505-2.518,0.447-3.537,0.553
		C1.185,25.176,1.18,24.992,1.175,24.808z"/>
	<path fill="#FFFFFF" d="M2.764,21.395C1.859,21.956,1.095,21.549,0,21.241C1.669,20.985,1.669,20.983,2.764,21.395z"/>
	<path fill="#FFFFFF" d="M231.403,63.243c-0.329-0.345-0.542-0.564-0.754-0.783c0.265-0.193,0.522-0.523,0.794-0.536
		c0.225-0.009,0.467,0.354,0.701,0.556C231.935,62.693,231.728,62.908,231.403,63.243z"/>
	<path fill="#FFFFFF" d="M215.371,62.095c0.629-0.045,1.256-0.108,1.885-0.127c0.488-0.015,0.604,0.37,0.385,1.183
		c-0.585,0.371-0.719-0.307-1.068-0.476c-0.39-0.188-0.754-0.43-1.13-0.648L215.371,62.095z"/>
	<path fill="#FFFFFF" d="M179.693,3.197c-0.916,0.063-1.59,0.107-2.244,0.15c-0.053-0.097-0.117-0.187-0.104-0.2
		c0.055-0.059,0.137-0.134,0.204-0.129C178.184,3.063,178.817,3.121,179.693,3.197z"/>
	<path fill="#FFFFFF" d="M340.337,19.928c-0.721,0.176-1.316,0.401-1.793-0.22c0.215-0.548,0.535-0.238,0.834-0.125
		C339.664,19.692,339.953,19.79,340.337,19.928z"/>
	<path fill="#FFFFFF" d="M9.949,7.232c-0.941,0-1.573,0-2.205,0C8.375,6.779,9.005,6.512,9.949,7.232z"/>
	<path fill="#FFFFFF" d="M333.269,16.337c0.738-0.239,1.465-0.526,2.219-0.688c0.213-0.045,0.502,0.273,0.65,0.753
		c-0.936-0.043-1.873-0.085-2.822-0.114C333.3,16.299,333.269,16.337,333.269,16.337z"/>
	<path fill="#FFFFFF" d="M170.972,62.021c-0.658,0.129-1.318,0.257-1.97,0.384c-0.241-0.551,0.122-0.727,0.437-0.694
		c0.494,0.049,0.977,0.25,1.463,0.386L170.972,62.021z"/>
	<path fill="#FFFFFF" d="M172.197,0.038c-0.443,0.649-0.97,0.804-1.875,0.188c0.799-0.095,1.347-0.161,1.896-0.226L172.197,0.038z"
		/>
	<path fill="#FFFFFF" d="M161.683,57.853c0.271,0.3,0.525,0.5,0.646,0.761c0.04,0.089-0.331,0.505-0.397,0.478
		c-0.298-0.118-0.554-0.342-0.825-0.528C161.258,58.375,161.41,58.189,161.683,57.853z"/>
	<path fill="#FFFFFF" d="M191.473,2.825c-0.493-0.024-0.986-0.048-1.48-0.069c0.001-0.058,0.002-0.115,0.003-0.174
		c0.491-0.022,0.982-0.045,1.475-0.068C191.47,2.618,191.472,2.721,191.473,2.825z"/>
	<path fill="#FFFFFF" d="M24.686,4.433c0.17-0.035,0.348-0.12,0.507-0.094c0.227,0.04,0.44,0.159,0.66,0.245
		c-0.104,0.209-0.16,0.478-0.325,0.61c-0.183,0.146-0.464,0.169-0.706,0.247c-0.084-0.373,0.599-0.801-0.151-1.022L24.686,4.433z"/>
	<path fill="#FFFFFF" d="M162.941,3.768c-0.184,0.976-0.703,0.729-1.293,0.377c0.318-0.661,0.804-0.56,1.309-0.383L162.941,3.768z"
		/>
	<path fill="#FFFFFF" d="M155.083,61.139c-0.194,0.183-0.3,0.363-0.438,0.393c-0.297,0.063-0.687-0.521-0.502-0.751
		c0.086-0.108,0.361-0.193,0.47-0.136C154.804,60.748,154.931,60.967,155.083,61.139z"/>
	<path fill="#FFFFFF" d="M212.515,61.732c0.121,0.172,0.254,0.357,0.387,0.543c-0.154,0.063-0.357,0.224-0.453,0.173
		c-0.188-0.099-0.316-0.313-0.471-0.478C212.126,61.905,212.277,61.839,212.515,61.732z"/>
	<path fill="#FFFFFF" d="M64.718,55.128c0.355,0.023,0.713,0.048,1.069,0.07c-0.003,0.079-0.006,0.157-0.009,0.236
		c-0.36,0-0.721,0-1.08,0C64.705,55.334,64.711,55.23,64.718,55.128z"/>
	<path fill="#FFFFFF" d="M244.697,54.231c-0.313,0-0.627,0-0.939,0c0.005-0.081,0.01-0.161,0.015-0.242
		c0.31,0.024,0.618,0.051,0.929,0.074C244.699,54.119,244.697,54.174,244.697,54.231z"/>
	<path fill="#FFFFFF" d="M170.902,62.095c0.425-0.045,0.883-0.111,1.06,0.398c0.034,0.098-0.282,0.458-0.425,0.449
		c-0.571-0.027-0.602-0.473-0.564-0.923L170.902,62.095z"/>
	<path fill="#FFFFFF" d="M227.067,62.32c0.491-0.222,0.993-0.418,1.489-0.056c0.1,0.072,0.145,0.331,0.096,0.459
		c-0.042,0.109-0.303,0.249-0.383,0.209c-0.391-0.199-0.75-0.452-1.133-0.677C227.125,62.267,227.067,62.32,227.067,62.32z"/>
	<path fill="#FFFFFF" d="M247.333,62.163c-0.146,0.159-0.244,0.346-0.326,0.341c-0.234-0.019-0.463-0.114-0.693-0.181
		c0.089-0.127,0.182-0.361,0.266-0.357C246.814,61.974,247.044,62.079,247.333,62.163z"/>
	<path fill="#FFFFFF" d="M370.986,34.045c0.26,0,0.516,0,0.771,0c0,0.023,0,0.048,0,0.072c-0.256,0-0.512,0-0.768,0
		C370.99,34.093,370.99,34.069,370.986,34.045z"/>
	<path fill="#FFFFFF" d="M205.442,2.178c-0.384,0-0.769,0-1.151,0c0-0.065,0-0.13,0-0.194c0.385,0,0.769,0,1.151,0
		C205.442,2.048,205.442,2.112,205.442,2.178z"/>
	<path fill="#FFFFFF" d="M214.664,2.034c0.582,0,0.832-0.012,1.08,0.008c0.057,0.004,0.154,0.158,0.147,0.166
		c-0.101,0.114-0.241,0.32-0.323,0.302C215.351,2.457,215.156,2.305,214.664,2.034z"/>
	<path fill="#FFFFFF" d="M259.417,5.645c-0.256-0.013-0.5-0.019-0.74-0.053c-0.02-0.003-0.012-0.203-0.016-0.313
		c0.252,0.026,0.504,0.052,0.754,0.091C259.427,5.372,259.417,5.513,259.417,5.645z"/>
	<path fill="#FFFFFF" d="M183.306,3.024c-0.441,0.026-0.742,0.068-1.039,0.044c-0.052-0.004-0.08-0.279-0.119-0.431
		c0.255-0.049,0.51-0.131,0.764-0.129C182.999,2.51,183.083,2.725,183.306,3.024z"/>
	<path fill="#FFFFFF" d="M200.994,2.2c-0.07,0.024-0.147,0.086-0.205,0.068c-0.086-0.023-0.152-0.104-0.229-0.16
		c0.08-0.005,0.162-0.023,0.238-0.01C200.869,2.112,200.929,2.164,200.994,2.2z"/>
	<path fill="#FFFFFF" d="M115.355,2.152c-0.153,0.228-0.308,0.454-0.463,0.682c-0.065-0.052-0.132-0.104-0.197-0.155
		c0.234-0.159,0.472-0.319,0.707-0.48L115.355,2.152z"/>
	<path fill="#FFFFFF" d="M171.912,3.559c0.149-0.063,0.299-0.127,0.447-0.19c0.041,0.125,0.081,0.252,0.121,0.377
		c-0.169,0.007-0.338,0.022-0.506,0.014C171.949,3.757,171.932,3.629,171.912,3.559z"/>
	<path fill="#FFFFFF" d="M98.541,57.471c-0.23,0.209-0.463,0.418-0.693,0.628c-0.043-0.047-0.085-0.094-0.127-0.141
		c0.289-0.146,0.578-0.292,0.866-0.438L98.541,57.471z"/>
	<path fill="#FFFFFF" d="M243.306,61.779c0.262,0.213,0.438,0.355,0.615,0.5c-0.188,0.121-0.365,0.294-0.57,0.345
		c-0.13,0.03-0.305-0.121-0.458-0.192C243.015,62.238,243.136,62.047,243.306,61.779z"/>
	<path fill="#FFFFFF" d="M210.265,62.748c0.098-0.097,0.197-0.19,0.297-0.285c0.088,0.109,0.18,0.219,0.25,0.336
		c0.008,0.013-0.124,0.151-0.162,0.14C210.514,62.896,210.392,62.814,210.265,62.748z"/>
	<path fill="#FFFFFF" d="M234.591,62.641c-0.176,0.188-0.252,0.342-0.354,0.359c-0.155,0.028-0.327-0.037-0.493-0.063
		c0.024-0.131,0.049-0.372,0.075-0.374C234.044,62.561,234.269,62.601,234.591,62.641z"/>
	<path fill="#FFFFFF" d="M240.934,62.512c-0.245,0-0.481,0.008-0.716-0.017c-0.02-0.001-0.018-0.222-0.025-0.337
		c0.236,0.026,0.473,0.049,0.707,0.087C240.917,62.248,240.917,62.367,240.934,62.512z"/>
	<path fill="#FFFFFF" d="M4.178,29.001c-0.152,0.029-0.337,0.129-0.444,0.074c-0.135-0.069-0.207-0.264-0.304-0.403
		c0.161-0.034,0.355-0.142,0.474-0.086C4.031,28.643,4.089,28.854,4.178,29.001z"/>
	<path fill="#FFFFFF" d="M104.773,53.725c-0.185,0-0.261,0.008-0.332-0.007c-0.014-0.004-0.009-0.096-0.012-0.147
		C104.511,53.607,104.595,53.645,104.773,53.725z"/>
	<path fill="#FFFFFF" d="M215.441,62.026c-0.158-0.009-0.35,0.034-0.465-0.04c-0.102-0.063-0.137-0.258-0.16-0.401
		c-0.008-0.048,0.121-0.179,0.152-0.167c0.137,0.047,0.316,0.101,0.375,0.208c0.068,0.126,0.023,0.312,0.027,0.47L215.441,62.026z"
		/>
	<path fill="#FFFFFF" d="M158.839,62.488c-0.045,0.066-0.09,0.132-0.133,0.196c-0.111-0.099-0.221-0.195-0.332-0.293
		c0.051-0.055,0.134-0.16,0.146-0.153C158.633,62.311,158.734,62.402,158.839,62.488z"/>
	<path fill="#FFFFFF" d="M125.071,2.469c0.063-0.021,0.138-0.069,0.188-0.054c0.055,0.018,0.089,0.099,0.132,0.15
		c-0.099,0.034-0.2,0.07-0.301,0.104C125.083,2.604,125.078,2.537,125.071,2.469z"/>
	<path fill="#FFFFFF" d="M196.152,2.354c-0.063,0.022-0.146,0.078-0.186,0.058c-0.045-0.026-0.053-0.12-0.076-0.186
		c0.064-0.021,0.131-0.045,0.195-0.066C196.109,2.225,196.13,2.289,196.152,2.354z"/>
	<path fill="#FFFFFF" d="M12.917,7.029c-0.08,0.11-0.15,0.229-0.247,0.319c-0.02,0.02-0.19-0.056-0.197-0.102
		c-0.018-0.121,0.016-0.25,0.028-0.376C12.639,6.924,12.778,6.977,12.917,7.029z"/>
	<path fill="#FFFFFF" d="M1.804,15.198c-0.098,0.08-0.196,0.16-0.295,0.239c-0.087-0.116-0.174-0.229-0.261-0.346
		c0.063-0.044,0.148-0.139,0.187-0.122C1.567,15.024,1.683,15.119,1.804,15.198z"/>
	<path fill="#FFFFFF" d="M339.107,16.48c-0.09-0.104-0.178-0.208-0.268-0.313c0.164-0.022,0.332-0.063,0.496-0.06
		c0.061,0.002,0.119,0.109,0.178,0.169C339.378,16.345,339.244,16.413,339.107,16.48z"/>
	<polygon fill="#FFFFFF" points="343.322,16.803 343.144,16.754 343.283,16.744 	"/>
	<path fill="#FFFFFF" d="M162.957,3.762c0.622-0.002,1.246-0.005,1.871-0.007c0.003,0.001,0.013,0.005,0.014,0.007
		c-0.63,0.002-1.261,0.003-1.896,0.006C162.941,3.768,162.957,3.762,162.957,3.762z"/>
	<path fill="#FFFFFF" d="M18.52,5.964c0.018-0.051,0.032-0.142,0.053-0.144c0.059-0.003,0.122,0.028,0.183,0.048
		c-0.017,0.052-0.033,0.146-0.05,0.146C18.644,6.016,18.582,5.983,18.52,5.964z"/>
	<polygon fill="#FFFFFF" points="14.211,7.073 14.039,6.98 14.229,6.915 	"/>
	<path fill="#FFFFFF" d="M172.217,0c0.11,0.029,0.22,0.063,0.329,0.093c-0.049-0.028-0.096-0.073-0.148-0.079
		c-0.064-0.008-0.132,0.016-0.199,0.025C172.197,0.038,172.217,0,172.217,0z"/>
	<path fill="#FFFFFF" d="M115.402,2.197c0.182,0.015,0.363,0.028,0.545,0.041c-0.056,0.034-0.123,0.109-0.166,0.098
		c-0.141-0.038-0.273-0.108-0.418-0.175C115.355,2.152,115.402,2.197,115.402,2.197z"/>
	<polygon fill="#FFFFFF" points="187.599,2.682 187.81,2.623 187.783,2.792 	"/>
	<path fill="#FFFFFF" d="M24.671,4.419c0.018-0.152,0.044-0.307,0.05-0.458c0.002-0.082-0.032-0.166-0.049-0.249
		c0.059,0.085,0.171,0.176,0.163,0.255c-0.015,0.158-0.097,0.309-0.15,0.465C24.686,4.433,24.671,4.419,24.671,4.419z"/>
	<path fill="#FFFFFF" d="M72.292,55.373c-0.076,0.021-0.154,0.059-0.229,0.054c-0.025-0.003-0.044-0.11-0.065-0.17
		c0.076-0.021,0.154-0.057,0.229-0.049C72.253,55.209,72.271,55.315,72.292,55.373z"/>
	<polygon fill="#FFFFFF" points="204.285,55.296 204.35,55.482 204.195,55.461 	"/>
	<path fill="#FFFFFF" d="M98.586,57.52c0.149-0.025,0.3-0.063,0.45-0.073c0.031-0.004,0.068,0.079,0.104,0.121
		c-0.195-0.025-0.39-0.052-0.593-0.088C98.541,57.471,98.586,57.52,98.586,57.52z"/>
	<path fill="#FFFFFF" d="M58.896,58.95c0.141-0.021,0.283-0.04,0.426-0.06c-0.06-0.011-0.124-0.041-0.176-0.026
		c-0.076,0.021-0.143,0.074-0.217,0.115C58.927,58.982,58.896,58.95,58.896,58.95z"/>
	<path fill="#FFFFFF" d="M156.759,61.368c-0.068-0.025-0.135-0.052-0.202-0.076c0.079-0.067,0.151-0.146,0.241-0.192
		c0.02-0.01,0.102,0.099,0.154,0.152C156.888,61.291,156.824,61.329,156.759,61.368z"/>
	<polygon fill="#FFFFFF" points="164.771,61.78 164.961,61.732 164.937,61.875 	"/>
	<polygon fill="#FFFFFF" points="335.125,33.488 335.287,33.568 335.117,33.637 	"/>
	<polygon fill="#FFFFFF" points="345.152,34.168 344.941,34.207 344.98,34.059 	"/>
	<path fill="#FFFFFF" d="M253.031,45.426c0.139-0.021,0.277-0.041,0.414-0.062c-0.061-0.012-0.13-0.046-0.184-0.028
		c-0.074,0.021-0.137,0.081-0.207,0.129C253.053,45.469,253.031,45.426,253.031,45.426z"/>
	<path fill="#FFFFFF" d="M107.752,53.705c-0.159,0.043-0.239,0.08-0.317,0.075c-0.023-0.001-0.039-0.12-0.059-0.184
		C107.48,53.627,107.582,53.656,107.752,53.705z"/>
	<polygon fill="#FFFFFF" points="3.308,49.215 3.312,49.367 3.124,49.297 	"/>
</g>
</svg>
