<?xml version="1.0" encoding="utf-8"?>
<!-- Generator: Adobe Illustrator 16.0.0, SVG Export Plug-In . SVG Version: 6.00 Build 0)  -->
<!DOCTYPE svg PUBLIC "-//W3C//DTD SVG 1.1//EN" "http://www.w3.org/Graphics/SVG/1.1/DTD/svg11.dtd">
<svg version="1.1" id="圖層_1" xmlns="http://www.w3.org/2000/svg" xmlns:xlink="http://www.w3.org/1999/xlink" x="0px" y="0px"
	 width="376.52px" height="137.33px" viewBox="0 0 376.52 137.33" enable-background="new 0 0 376.52 137.33" xml:space="preserve">
<g>
	<path fill="#FFFFFF" d="M157.358,1.237c0.31,0.599,0.739,0.998,1.474,0.849c0.509-0.104,1.014-0.23,1.614-0.368
		c-0.209-0.323-0.398-0.618-0.647-1.004c2.074-0.941,4.253-0.772,6.354-0.5c1.218,0.157,2.426,0.322,3.654,0.407
		c0.682,0.047,1.486,0.199,1.991,0.607c1.267,1.029,2.514,0.928,3.704,0.106c1.447-1,2.955-1.393,4.641-1.103
		c0.307,0.499,0.565,0.922,0.818,1.332c0.541-0.029,1.051-0.056,1.62-0.085c0.297,0.52,0.581,1.016,1.043,1.827
		c0.244-1.063,0.417-1.809,0.646-2.805c0.682,0.442,1.129,0.868,1.662,1.052c1.756,0.609,3.474,1.132,5.451,0.716
		c2.299-0.482,4.68-0.581,7.029-0.774c1.746-0.144,3.504-0.106,5.252-0.117c1.635-0.009,3.254-0.056,4.889,0.128
		c1.436,0.163,2.902,0.414,4.271-0.339c0.424-0.233,0.691,0.019,1.077,0.156c0.838,0.299,1.868,0.662,2.644,0.424
		c2.523-0.778,5.086-0.217,7.613-0.462c0.68-0.065,1.5,0.092,2.077,0.442c2.134,1.293,4.263,1.584,6.771,1.1
		c2.066-0.399,4.295-0.634,6.447-0.02c0.278,0.08,0.68,0.139,0.883,0c1.103-0.751,1.395,0.427,2.147,0.862
		c0.956-0.18,1.888-0.729,3.151-0.422c1.181,0.287,2.58-0.327,4.016-0.565c0.1,0.167,0.307,0.51,0.549,0.915
		c0.961-0.043,1.908-0.25,2.965-0.098c3.277,0.469,6.596-0.049,9.899-0.049c1.128,0,2.259,0.082,3.39,0.084
		c1.648,0.004,3.301-0.051,4.951-0.044c1.746,0.006,3.508-0.076,5.236,0.118c2.417,0.271,4.93-0.173,7.242,1.07
		c0.662,0.354,1.636,0.216,2.457,0.163c3.621-0.231,7.201,0.06,10.785,0.573c1.619,0.232,3.275-0.042,4.93,0.257
		c1.691,0.305,3.313,0.946,5.115,0.831c1.855-0.118,3.736,0.152,5.607,0.25c1.758,0.092,3.518,0.18,5.668,0.289
		c-1.822,1.335-3.707,1.042-5.369,1.657c3.318,0.079,6.643,0.093,9.957,0.251c4.563,0.219,9.119,0.584,13.682,0.815
		c3.408,0.172,6.822,0.216,10.232,0.352c0.768,0.031,1.527,0.209,2.549,0.357c-1.613,1.028-3.082,0.38-4.451,0.596
		c-1.305,0.205-2.563,0.68-3.863,1.042c-0.168,0.502,0.17,0.708,0.588,0.789c0.896,0.175,1.85,0.224,2.215,1.31
		c-1.285,0.232-2.674-0.221-3.967,0.475c0.234,0.298,0.363,0.585,0.469,0.575c1.709-0.158,3.051,1.194,4.797,1.07
		c1.852-0.131,3.746-0.042,5.672,1.27c-2.303,0.254-4.336,0.695-6.355,0.645c-2.289-0.057-4.127,0.814-6.006,1.954
		c0.393,0.803,1.102,0.324,1.615,0.471c0.576,0.164,1.215,0.1,1.805,0.232c0.561,0.125,0.879,0.743,1.67,0.533
		c1.287-0.341,2.16,0.366,2.666,1.622c2.236,0.186,4.498,0.373,6.74,0.56c0.424,0.828-0.654,0.583-0.705,1.058
		c1.445,1.088,1.445,1.088,2.762-0.711c0.32,0.443,0.697,0.796,0.861,1.23c0.221,0.583-0.27,1.374-0.832,1.418
		c-0.502,0.04-1.014-0.077-1.518-0.051c-0.148,0.007-0.424,0.299-0.398,0.399c0.066,0.262,0.229,0.533,0.428,0.717
		c0.131,0.119,0.396,0.133,0.598,0.123c2.125-0.108,3.883,1.184,5.891,1.559c0.395,0.074,0.646,0.911,1.033,1.503
		c0.213-0.174,0.549-0.312,0.584-0.504c0.107-0.575,0.283-1.079,0.955-0.843c0.727,0.256-0.08,0.617-0.031,0.935
		c0.047,0.298,0.059,0.641,0.211,0.877c0.582,0.883,0.086,1.544-0.432,2.313c-0.244-0.552-0.467-1.056-0.736-1.669
		c-0.553,0.105-1.041,0.199-1.637,0.313c-0.189-0.521-0.383-1.06-0.602-1.663c-0.391,0.713-0.721,1.318-0.947,1.729
		c-1.137,0.701-2.949-0.957-3.156,1.437c-0.318-0.495-0.504-0.996-0.861-1.272c-0.283-0.217-0.859-0.319-1.16-0.172
		c-0.246,0.123-0.422,0.702-0.377,1.044c0.096,0.702,0.359,1.381,0.563,2.096c1.744,0.357,3.52,0.729,5.299,1.074
		c0.285,0.055,0.75,0.116,0.869-0.034c0.666-0.833,1.531-0.167,2.238-0.378c1.145-0.343,0.658,0.765,1.055,1.049
		c2.535,0.572,5.184,0.009,7.682,0.822c0.139,0.045,0.203,0.309,0.43,0.676c-0.879,0.079-1.654,0.206-2.428,0.207
		c-4.357,0.003-8.717-0.034-13.072-0.032c-0.611,0-1.238,0.075-1.826,0.233c-0.199,0.053-0.449,0.673-0.424,0.691
		c1.25,0.917-0.334,1.626-0.189,2.603c1.408,0.155,2.936-0.305,4.422,0.696c-0.619,0.325-1.117,0.588-1.617,0.852
		c0.105,0.154,0.209,0.438,0.32,0.442c1.34,0.041,2.682,0.033,4.021,0.054c0.482,0.008,0.965,0.06,1.52,0.097
		c-0.484,0.961-1.229,0.777-1.91,0.867c-0.799,0.105-1.621,0.105-2.305,0.765c-0.445,0.43-1.146,0.592-1.814,0.913
		c1.412,1.169,3.068,0.546,4.584,1.077c0,0.646,0,1.332,0,1.885c0.727,1.113,1.801-0.121,2.326,0.492
		c0.613,0.711,1.371,0.172,1.969,0.52c-0.063,0.387-0.127,0.772-0.219,1.322c1.873,0.114,3.691,0.226,5.508,0.338
		c0.016,0.089,0.027,0.179,0.041,0.268c-0.447,0.104-0.961,0.107-1.322,0.341c-0.4,0.262-0.664,0.736-1.02,1.155
		c-0.418-0.381-0.709-0.65-1.002-0.918c-1.016,1.39-3.254-0.784-4.037,1.588c1.156,0.823,2.654,0.456,3.982,1
		c-2.986,0.335-5.973,0.671-8.852,0.994c-0.529,1.114,0.619,0.98,0.818,1.517c0.178,0.483-0.605,0.947,0.043,1.391
		c0.139,0.095,0.197,0.31,0.357,0.576c-1.07,0.865-2.375,0.522-3.559,0.648c-1.1,0.118-2.221,0.055-3.664,0.718
		c0.729,0.361,1.047,0.639,1.385,0.665c0.711,0.057,1.441-0.104,2.137,0.003c0.277,0.043,0.516,0.545,0.701,0.878
		c0.076,0.142,0.014,0.533-0.063,0.556c-0.248,0.074-0.551,0.093-0.793,0.012c-0.158-0.053-0.217-0.414-0.371-0.461
		c-0.25-0.076-0.564-0.064-0.813,0.024c-0.139,0.049-0.309,0.376-0.26,0.494c0.105,0.252,0.314,0.61,0.527,0.645
		c1.121,0.184,2.256,0.28,3.426,0.411c-1.604,1.21-3.607,0.395-5.48,1.275c1.441,0.876,2.885,0.252,4.213,0.449
		c1.541,0.227,3.08,0.502,4.631,0.639c1.443,0.127,2.9,0.102,4.348,0.355c-2.971,0.081-5.949,0.047-8.908,0.276
		c-2.93,0.226-5.895-0.083-9.014,0.528c0.406,0.664,0.779,1.126,0.99,1.654c0.227,0.559,0.301,1.178,0.463,1.854
		c2.408,0.31,4.725,0.606,7.266,0.935c-0.119,0.512-0.225,0.959-0.322,1.373c-0.324,0.016-0.604,0.112-0.699,0.021
		c-0.533-0.511-1.041-0.954-1.881-0.845c-0.717,0.092-1.467-0.045-2.178,0.074c-2.277,0.379-4.523,0.192-6.781-0.14
		c-0.818-0.121-1.66-0.112-2.492-0.121c-0.631-0.007-1.283,0.048-1.582,0.739c-0.248,0.574-0.68,0.643-1.236,0.686
		c-2.588,0.191-5.18,0.362-7.754,0.682c-1.639,0.205-3.256,0.619-4.857,1.035c-0.258,0.066-0.484,0.621-0.533,0.976
		c-0.023,0.185,0.344,0.565,0.586,0.618c1.096,0.24,2.207,0.395,3.348,0.586c-0.223,0.443-0.385,0.766-0.588,1.17
		c2.254,1.395,4.801,0.037,7.23,1.111c0.33,0.441,0.424,0.961-0.395,1.547c-0.785,0.563-1.518,0.984-2.537,0.943
		c-2.32-0.093-4.361,0.772-6.461,1.963c1.762,0.846,1.762,0.84,4.27,0.817c1.439-0.013,2.881-0.002,4.541-0.002
		c-0.074,0.864-0.129,1.524-0.186,2.172c-3.604-0.116-6.879,1.063-10.279,1.054c-0.102,0-0.236,0.002-0.301,0.062
		c-2.072,1.896-4.727,1.057-7.104,1.517c-0.305,0.059-0.602,0.146-0.873,0.215c-0.338,0.721,0.088,1.006,0.635,1.088
		c0.711,0.106,1.475,0.258,2.156,0.11c2.73-0.588,5.361-0.106,7.992,0.565c0.283,0.072,0.604,0.01,1.004,0.01
		c-0.084,0.32-0.291,0.727-0.195,0.82c0.561,0.549,0.877-0.137,1.381-0.358c0.674,0.446,1.393,0.921,2.178,1.44
		c-0.266,0.344-0.426,0.752-0.621,0.771c-1.758,0.163-3.521,0.257-5.281,0.372c-1.24,0.082-2.479,0.152-3.717,0.256
		c-1.02,0.084-1.418,0.739-1.459,1.689c0.846,1.531,2.27,1.986,3.859,1.9c1.387-0.074,2.605,0.396,3.887,0.819
		c-2.18,0.78-4.492,0.22-6.629,0.683c-2.313,0.498-4.551-0.025-6.818,0.172c-2.17,0.188-4.357,0.16-6.537,0.194
		c-2.244,0.036-4.486,0.035-6.803,0.052c0,0.5-0.018,0.782,0.006,1.062c0.023,0.296,0.088,0.589,0.135,0.87
		c-0.564,0.291-1.068,0.55-1.609,0.826c0.727,0.806,2.027,0.211,2.395,1.387c-0.787,0.744-1.773,0.453-2.658,0.466
		c-3.715,0.052-7.43,0.046-11.146,0.028c-0.822-0.004-1.645-0.184-2.469-0.204c-0.816-0.021-1.637,0.036-2.453,0.108
		c-0.502,0.045-1.074,0.396-1.48,0.246c-1.356-0.502-2.658-0.375-3.938,0.113c-2.403,0.92-4.923,0.622-7.388,0.676
		c-1.545,0.034-2.834,0.381-4.266,1.522c0.572,0.153,0.992,0.423,1.25,0.313c2.01-0.865,4.12-0.234,6.163-0.486
		c0.288-0.035,0.652,0.051,0.896,0.211c1.67,1.119,3.539,0.965,5.414,0.984c2.783,0.027,5.563,0.187,8.66,0.301
		c-0.408,0.373-0.565,0.637-0.771,0.685c-3.679,0.847-7.419,0.487-11.14,0.562c-3,0.06-5.979-0.067-8.979,0.604
		c-1.728,0.387-3.665-0.07-5.491-0.273c-0.601-0.068-0.918,0-1.3,0.461c-0.207,0.25-0.685,0.342-1.051,0.375
		c-0.396,0.037-0.808-0.125-1.209-0.119c-7.972,0.119-15.94,0.271-23.911,0.371c-5.404,0.067-10.77,0.699-16.15,1.111
		c-5.697,0.438-11.395,0.922-17.09,1.4c-0.263,0.021-0.512,0.205-0.929,0.38c0.296,0.302,0.479,0.653,0.672,0.657
		c1.405,0.025,2.669,1.25,4.183,0.494c0.139-0.069,0.481,0.306,0.744,0.444c1.096,0.577,2.118,0.873,3.489,0.612
		c1.8-0.342,3.724-0.186,5.58-0.047c3.636,0.27,7.26-0.166,10.894-0.035c1.762,0.063,3.533-0.023,5.299-0.002
		c0.726,0.008,1.547-0.074,2.152,0.229c0.994,0.498,1.875,0.307,2.836,0.074c0.486-0.117,1.079-0.22,1.387,0.346
		c0.371,0.68-0.053,1.158-0.512,1.623c-0.555,0.562-1.175,0.715-1.971,0.676c-3.468-0.166-6.945-0.621-10.4,0.146
		c-1.674-0.449-3.468,0.342-5.138-0.604c-0.595-0.338-1.666-0.443-2.217-0.127c-1.761,1.009-3.573,0.813-5.427,0.693
		c-0.397-0.027-0.883-0.043-1.193,0.15c-1.266,0.777-2.654,0.595-3.967,0.468c-3.023-0.293-6.025-0.013-9.029,0.153
		c-2.556,0.143-5.124,0.08-7.667,0.427c-1.332,0.181-2.657,0.416-3.99,0.584c-0.502,0.063-1.039,0.097-1.526-0.011
		c-0.802-0.176-1.511-0.057-1.895,0.654c-0.436,0.803-1.255,1.012-1.844,0.85c-1.643-0.452-3.232,0.123-4.853,0.044
		c-1.604-0.077-3.229,0.665-4.867,0.849c-2.054,0.232-4.171,0.563-6.184,0.295c-1.987-0.268-3.866,0.006-5.789,0.16
		c-0.411,0.033-0.939,0.309-1.205,0.143c-1.372-0.863-2.246,0.346-3.885,0.57c0.776,0.469,1.086,0.815,1.402,0.82
		c2.277,0.039,4.539,0.246,6.836-0.107c2.244-0.349,4.554-0.264,6.832-0.395c1.342-0.077,2.682-0.199,4.021-0.307
		c1.865-0.15,3.729-0.322,5.594-0.453c2.169-0.153,4.346-0.232,6.511-0.42c1.127-0.098,2.245-0.328,3.354-0.562
		c1.323-0.278,2.635-0.394,4.002-0.381c2.752,0.026,5.517,0.34,8.262-0.169c0.71-0.131,1.449-0.12,2.177-0.129
		c1.17-0.016,2.217-0.115,2.966-1.281c0.598-0.932,1.629-0.656,2.538-0.449c0.067,0.332,0.126,0.627,0.183,0.922
		c0.178,0.098,0.354,0.276,0.528,0.276c2.704,0.002,5.405-0.034,8.108-0.026c1.662,0.004,3.322,0.103,4.984,0.096
		c1.03-0.004,2.092,0.008,3.084-0.219c2.991-0.682,6.008-0.418,9.02-0.403c0.256,0.001,0.51,0.231,0.793,0.37
		c-0.362,0.84-1.064,0.588-1.602,0.609c-5.289,0.211-10.578,0.362-15.867,0.584c-4.557,0.19-9.129,0.252-13.65,0.756
		c-2.557,0.287-5.217-0.254-7.689,0.83c-0.248,0.107-0.619,0.002-0.912-0.08c-1.586-0.438-3.112-0.094-4.571,0.453
		c-1.606,0.602-3.259,0.689-4.914,0.598c-2.281-0.125-4.537-0.186-6.756,0.475c-0.195,0.059-0.411,0.055-0.617,0.068
		c-5.795,0.42-11.592,0.835-17.387,1.259c-1.036,0.076-2.029,0.167-3.026-0.392c-0.751-0.422-1.583-0.092-2.401,0.162
		c-1.273,0.395-2.593,0.756-3.912,0.867c-3.522,0.293-7.057,0.446-10.584,0.655c-3.623,0.214-7.253,0.677-10.867,0.58
		c-4.849-0.132-9.677,0.144-14.514,0.211c-3.102,0.044-6.207-0.087-9.306,0.019c-3.723,0.125-7.443,0.053-11.17,0.295
		c-3.801,0.248-7.635-0.045-11.454-0.041c-2.182,0.004-4.364,0.108-6.544,0.199c-2.681,0.112-5.351,0.475-8.05,0.193
		c-0.904-0.094-1.839,0.102-2.759,0.176c-0.303,0.023-0.674,0.217-0.893,0.102c-2.239-1.182-4.594-0.629-6.917-0.51
		c-0.208,0.01-0.43,0.068-0.62,0.016c-3.083-0.865-6.175-0.166-9.263-0.065c-0.313,0.011-0.685,0.175-0.925,0.058
		c-1.972-0.971-4.054-0.32-6.077-0.44c-1.956-0.118-3.942-0.25-5.881-0.044c-2.017,0.213-4.088,0.35-6.003,1.209
		c-0.442,0.199-0.999,0.246-1.49,0.208c-1.659-0.13-3.311-0.329-4.965-0.504c-0.308-0.033-0.629-0.03-0.917-0.128
		c-2.01-0.688-3.717-4.698-2.815-6.592c0.087-0.185,0.202-0.381,0.358-0.5c1.221-0.936,2.345-2.101,3.715-2.707
		c1.479-0.655,3.182-0.879,4.813-1.11c1.118-0.158,2.281,0.015,3.422-0.006c0.514-0.011,1.031-0.103,1.53-0.224
		c0.115-0.029,0.243-0.338,0.225-0.502c-0.018-0.172-0.181-0.437-0.322-0.469c-0.495-0.111-1.009-0.177-1.517-0.191
		c-1.558-0.049-3.117-0.012-4.671-0.111c-2.114-0.137-2.109-0.178-4.179,0.832c-0.535-1.82-1.407-3.4-3.249-3.939
		c-0.896-1.811,0.521-3.535-0.315-5.068c1.128-1.389,2.658-1.359,4.222-1.588c-0.482-0.812-0.955-1.428-1.229-2.121
		c-0.299-0.746-0.415-1.564-0.632-2.444c1.438-1.173,2.864-2.336,4.265-3.479c-1.226-1.485-2.395-2.904-3.61-4.379
		c0.946-2.328,0.671-4.709,0.529-7.188c0.785-0.472,1.546-0.929,2.579-1.55c-2.224-0.746-4.104-1.334-6.151-1.514
		c-1.938-0.17-3.849-0.695-5.756-1.132c-0.341-0.079-0.603-0.493-1.21-1.022c1.109-0.145,1.859-0.241,2.609-0.338
		c0.046-1.781,2.854-2.283,1.93-4.402c1.809-0.719,1.809-0.719,2.447-2.816c-1.444-1.625-3.354-2.22-5.468-2.291
		c-0.233-0.617-0.433-1.146-0.617-1.641c-0.33,0.018-0.612-0.051-0.712,0.053c-0.446,0.465-0.917,0.819-1.594,0.826
		c-0.797,0.006-1.05-0.336-1.199-1.809c2.633-0.231,5.265-0.463,7.853-0.689c0.21-1.381-1.657-1.148-1.425-2.342
		c-0.295-0.034-0.604-0.143-0.883-0.09c-1.605,0.302-3.234,0.238-4.852,0.291c-0.26,0.009-0.528-0.274-0.794-0.422
		c0.461-0.313,0.938-0.609,1.372-0.957c0.07-0.058,0.02-0.396-0.082-0.504c-0.084-0.088-0.441-0.092-0.48-0.023
		c-0.275,0.502-0.5,1.031-0.741,1.552c-1.196-0.516-2.392-1.034-4.148-1.792c1.403-0.157,2.198-0.245,2.997-0.334
		c-0.371-1.719-2.251-0.037-2.797-1.516c0.531-0.169,1.056-0.335,1.577-0.501c-2.051-2.498-2.051-2.498-3.927-3.424
		c0.992-0.58,1.093-0.617,2.415-0.454c0.909,0.113,1.811,0.284,2.743,0.433c0.351-0.887,0.332-1.399-0.567-1.81
		c-1.376-0.625-2.674-1.419-3.991-2.136c0.012-0.755,0.564-0.787,1.055-0.853c0.715-0.095,1.438-0.149,2.406-0.246
		c-0.533-0.796-0.986-1.521-1.489-2.209c-0.525-0.719-0.776-1.46-0.408-2.324l-0.066,0.065c0.276-0.098,0.667-0.11,0.814-0.307
		c1.605-2.125,2.923-3.13,4.869-3.766c0.548-0.179,0.991-0.204,1.441,0.161c0.388,0.313,0.739,0.264,1.048-0.127
		c0.369-0.468,0.406-0.932-0.027-1.38c-0.345-0.359-0.713-0.295-1.109-0.066c-0.262,0.152-0.557,0.245-0.938,0.407
		c-0.305-0.236-0.645-0.461-0.932-0.739c-0.212-0.203-0.354-0.474-0.495-0.669c0.374-1.866,1.979-0.626,2.961-1.296
		c0.371-2.599,0.278-5.221-0.59-8.052c0.18-0.306,0.692-0.798,0.749-1.338c0.25-2.356,0.639-4.749,0.44-7.082
		c-0.14-1.644,0.4-2.666,1.551-3.408c1.375-0.889,2.84-1.658,4.588-1.737c1.383-0.063,1.377-0.18,2.673-1.357
		c-0.292-0.133-0.557-0.252-0.819-0.375c-0.167-0.077-0.329-0.161-0.599-0.292c1.188-0.397,2.303-0.771,3.442-1.151
		c0.205-0.822,0.406-1.636,0.609-2.448c-0.416-0.1-0.78-0.188-1.244-0.297c0.142-0.324,0.208-0.775,0.38-0.821
		c1.396-0.37,2.801-0.763,4.23-0.958c2.564-0.35,5.173-0.434,7.716-0.891c1.494-0.269,2.935-0.97,4.339-1.606
		c2.096-0.949,4.238-1.547,6.547-1.503c0.1,0.612,0.178,1.101,0.314,1.944c0.541-0.93,0.93-1.598,1.46-2.514
		c-1.503-0.206-2.958-0.054-3.658-1.563c0.888-0.944,1.769-1.453,3.238-0.927c0.834,0.298,1.875-0.569,2.9-0.237
		c0.276,0.09,0.578,0.1,0.997,0.168c-0.215,0.751-0.405,1.417-0.651,2.283c0.958,0.168,1.812,0.317,2.695,0.473
		c-0.149,1.036-0.979,0.496-1.45,0.711c-0.551,0.251-1.128,0.446-1.892,0.742c0.871,0.752,1.703,0.516,2.42,0.437
		c2.758-0.299,5.533-0.41,8.28-0.832c0.701-0.108,1.439,0.037,2.156-0.003c1.014-0.057,2.031,0.092,2.892-0.83
		c0.424-0.456,1.298-0.604,1.99-0.675c1.849-0.191,3.668-0.595,5.574-0.364c0.968,0.118,1.999-0.47,3.017-0.559
		c3.621-0.316,7.245-0.617,10.875-0.795c1.631-0.08,3.215-0.324,4.799-0.658c0.292-0.07,0.604-0.171,0.893-0.133
		c1.911,0.253,3.857,0.719,5.302-1.154c0.181,0.243,0.363,0.486,0.622,0.83c1.691-0.496,3.583-0.059,5.442-0.854
		c-1.253-1.341-2.496,0.033-3.6-0.414c0.179-1.092,0.359-1.301,1.09-1.259c1.237,0.073,2.473,0.169,3.717,0.256
		c1.807,2.07,2.972,1.684,5.644-0.482c0.304,0.364,0.612,0.729,0.916,1.092c1.39-1.211,1.39-1.211,2.274-3.037
		c1.059-0.145,2.254-0.308,3.602-0.493c0.309,0.825,0.574,1.536,0.829,2.219c1.343-0.232,1.099-1.449,1.614-2.178
		c1.205-0.12,1.217,0.81,1.427,1.595c0.032,0.12,0.332,0.243,0.498,0.232c0.175-0.011,0.447-0.149,0.489-0.289
		c0.142-0.481,0.203-0.987,0.3-1.506c1.526-0.168,3.028-0.333,4.532-0.499c0.32,0.855,0.754,1.502,1.858,0.977
		c0.075-0.364,0.155-0.753,0.235-1.142c0.168-0.101,0.328-0.263,0.508-0.291c1.466-0.226,3.057,0.583,4.415-0.543
		c0.99,0.409,1.947,0.303,2.971,0.011c0.345-0.099,0.888,0.396,1.306,0.672c0.404,0.268,0.721,0.74,1.154,0.88
		c0.665,0.214,0.801-0.351,0.969-0.877c0.066-0.206,0.464-0.389,0.736-0.434c3.036-0.506,6.072-1.056,9.168-0.871
		c0.31,0.389,0.607,0.762,0.934,1.174c0.318-0.349,0.588-0.646,0.985-1.082c0.573,0.264,1.2,0.554,1.828,0.842L157.358,1.237z
		 M45.162,119.433c-1.108,0.795-1.941,1.639-1.537,3.049c2.473,1.422,5.19-0.17,7.617,0.901c0.187,0.082,0.562-0.211,0.824-0.37
		c0.416-0.248,0.811-0.529,1.174-0.771c0.438,0.399,0.73,0.666,0.939,0.856c0.938-0.425,1.74-0.979,2.615-1.129
		c0.876-0.154,1.84,0.012,2.734,0.188c0.857,0.169,1.675,0.533,2.496,0.807c0.815-1.453,0.796-1.459,0.726-3.021
		C56.9,119.429,51.007,119.806,45.162,119.433z M14.894,56.334c-1.632,0.067-2.077,1.332-2.974,1.88
		c-0.959-0.109-1.89-0.44-2.825,0.424c1.308,0.975,2.659,1.556,4.274,1.239c0.242-0.047,0.643-0.509,0.6-0.593
		C13.359,58.078,14.783,57.51,14.894,56.334z M8.943,54.405c0.865,0,1.676-0.092,2.454,0.027c0.739,0.113,1.443,0.448,2.208,0.7
		c0.115-1.46,0.115-1.46-2.343-2.885C10.237,52.586,8.701,52.336,8.943,54.405z M126.027,120.431
		c0.164,0.666,0.227,1.186,0.432,1.643c0.095,0.215,0.53,0.484,0.688,0.421c0.324-0.13,0.753-0.435,0.805-0.728
		c0.186-1.049-0.123-1.996-0.813-2.731c-1.151-0.153-2.141-0.112-3.036,0.75C124.741,119.999,125.302,120.187,126.027,120.431z
		 M265.32,108.894c-0.784-0.062-1.601-0.008-2.349-0.207c-1.928-0.518-3.85-0.127-5.771-0.09c-0.189,0.004-0.373,0.344-0.689,0.654
		C259.625,110.261,262.518,109.245,265.32,108.894z M145.275,127.146c-0.255-0.193-0.48-0.514-0.688-0.502
		c-1.929,0.11-3.856,0.264-5.778,0.453c-0.191,0.02-0.351,0.364-0.696,0.75c1.365,0.121,2.433,0.186,3.521-0.334
		C142.75,126.981,144.069,128.097,145.275,127.146z M349.545,35.125c0.844-0.66,1.451-1.448,2.557-1.544
		c0.146-0.012,0.24-0.622,0.398-1.063c-1.012-0.11-1.793-0.196-2.721-0.298C349.698,33.237,349.622,34.181,349.545,35.125z
		 M347.288,62.272c0.838,0.626,1.412,0.748,2.961,0.462c0.295-0.053,0.529-0.436,1.246-1.064
		C349.647,61.654,348.389,61.22,347.288,62.272z M39.817,120.159c-1.056-0.063-2.112-0.123-3.224-0.188
		C36.973,121.325,37.82,121.458,39.817,120.159z M112.588,121.037c-0.473-0.603-0.721-1.033-1.074-1.345
		c-0.598-0.528-1.201-0.225-1.647,0.236c-0.233,0.243-0.438,0.75-0.343,1.031c0.197,0.589,0.803,0.555,1.323,0.469
		C111.328,121.349,111.801,121.217,112.588,121.037z M73.721,122.638c-0.025,0.174-0.052,0.346-0.078,0.52
		c1.205,0,2.42,0.082,3.615-0.032c0.654-0.063,0.729-0.59,0.23-1.149C76.254,122.192,74.987,122.416,73.721,122.638z
		 M101.194,121.526c0.204,2.091,0.204,2.091,0.733,1.996c0.306-0.553,0.641-1.16,0.939-1.701
		C102.296,121.021,101.766,121.081,101.194,121.526z M350.528,43.49c1.057,0.694,2.018,0.239,2.973,0.139
		C352.555,43.251,351.608,43.013,350.528,43.49z M18.084,58.661c1.069,0.44,1.833,0.839,2.762,0.595
		c0.154-0.041,0.329-0.263,0.357-0.424c0.025-0.152-0.095-0.45-0.212-0.486C20.12,58.077,19.247,58.029,18.084,58.661z
		 M145.996,126.872c2.034,0.639,2.034,0.639,2.578-0.26C147.846,126.079,147.143,126.083,145.996,126.872z M133.781,126.755
		c-0.184,0.32-0.462,0.592-0.415,0.783c0.054,0.217,0.379,0.461,0.623,0.516c0.434,0.092,0.824-0.445,0.583-0.779
		C134.421,127.063,134.115,126.964,133.781,126.755z M347.95,35.42c0.252-0.425,0.432-0.632,0.492-0.87
		c0.035-0.148-0.111-0.343-0.176-0.516c-0.203,0.137-0.529,0.239-0.582,0.42C347.624,34.662,347.803,34.94,347.95,35.42z
		 M18.014,67.371c0.009-0.089,0.018-0.178,0.027-0.268c-0.343-0.059-0.688-0.169-1.033-0.163c-0.37,0.007-0.737,0.123-1.106,0.192
		c0.018,0.079,0.036,0.159,0.054,0.238C16.643,67.371,17.327,67.371,18.014,67.371z M113.189,127.255
		c-0.35,0.198-0.59,0.334-0.831,0.473c0.169,0.209,0.315,0.561,0.512,0.59c0.23,0.035,0.503-0.209,0.757-0.332
		C113.492,127.765,113.36,127.543,113.189,127.255z M98.297,128.472c-0.069-0.166-0.137-0.33-0.206-0.494
		c-0.146,0.082-0.388,0.144-0.41,0.254c-0.032,0.146,0.103,0.33,0.165,0.498C97.996,128.644,98.147,128.558,98.297,128.472z
		 M26.396,91.185c-0.161,0.041-0.417,0.041-0.456,0.133c-0.061,0.14,0.03,0.346,0.057,0.522c0.223-0.065,0.446-0.132,0.668-0.198
		C26.574,91.489,26.485,91.338,26.396,91.185z M352.389,39.558c-0.115-0.268-0.186-0.43-0.254-0.591
		c-0.207,0.141-0.438,0.259-0.602,0.44c-0.041,0.046,0.168,0.43,0.213,0.42C351.969,39.78,352.178,39.656,352.389,39.558z
		 M351.292,41.85c0.098,0.158,0.174,0.42,0.301,0.449c0.15,0.034,0.348-0.132,0.523-0.212c-0.166-0.216-0.334-0.431-0.502-0.646
		C351.508,41.577,351.399,41.713,351.292,41.85z M52.096,10.048C51.914,9.813,51.792,9.657,51.67,9.5
		c-0.158,0.228-0.426,0.448-0.441,0.684c-0.01,0.177,0.305,0.374,0.477,0.561C51.842,10.501,51.979,10.258,52.096,10.048z
		 M350.491,39.38c-0.15-0.265-0.24-0.542-0.316-0.538c-0.238,0.012-0.469,0.13-0.703,0.207c0.1,0.147,0.176,0.391,0.299,0.418
		C349.977,39.514,350.215,39.422,350.491,39.38z M64.968,122.712c0.081,0.03,0.183,0.104,0.238,0.079
		c0.063-0.03,0.086-0.147,0.127-0.228c-0.079-0.028-0.18-0.101-0.236-0.074C65.033,122.521,65.009,122.634,64.968,122.712z
		 M15.841,61.563c0.425,0.09,0.667,0.185,0.9,0.166c0.077-0.006,0.204-0.313,0.179-0.46c-0.023-0.129-0.293-0.344-0.338-0.318
		C16.36,61.075,16.179,61.269,15.841,61.563z M12.229,66.254c0.152,0.21,0.248,0.452,0.342,0.451
		c0.166-0.001,0.41-0.113,0.472-0.247c0.062-0.132-0.064-0.35-0.108-0.529C12.705,66.034,12.477,66.14,12.229,66.254z
		 M51.491,12.469c-0.106,0.121-0.221,0.254-0.335,0.385c0.072,0.052,0.158,0.157,0.218,0.144c0.163-0.036,0.317-0.123,0.473-0.188
		C51.729,12.697,51.611,12.582,51.491,12.469z M139.245,2.326c-0.236,0.175-0.49,0.285-0.485,0.373
		c0.021,0.257,0.145,0.506,0.23,0.758c0.129-0.104,0.357-0.198,0.369-0.313C139.385,2.896,139.296,2.638,139.245,2.326z
		 M119.965,4.481c-0.132,0.075-0.262,0.149-0.394,0.225c0.044,0.077,0.12,0.225,0.128,0.221c0.146-0.066,0.285-0.149,0.426-0.229
		C120.072,4.626,120.018,4.554,119.965,4.481z M66.684,122.712c0.029-0.078,0.06-0.156,0.092-0.234
		c-0.069-0.026-0.181-0.092-0.196-0.072c-0.054,0.058-0.087,0.15-0.087,0.228C66.492,122.66,66.616,122.687,66.684,122.712z
		 M351.495,35.098c-0.064,0.069-0.174,0.135-0.176,0.206c-0.002,0.07,0.104,0.145,0.16,0.217c0.092-0.107,0.186-0.213,0.277-0.319
		C351.668,35.167,351.583,35.133,351.495,35.098z M350.711,24.68c-0.037-0.065-0.064-0.166-0.123-0.187
		c-0.064-0.025-0.158,0.018-0.242,0.031c0.059,0.098,0.113,0.196,0.17,0.294C350.581,24.771,350.645,24.726,350.711,24.68z
		 M348.352,66.512c0.068,0.055,0.141,0.16,0.203,0.155c0.328-0.026,0.344-0.134,0.039-0.248
		C348.532,66.396,348.434,66.478,348.352,66.512z M345.379,34.252l-0.195-0.011l0.084,0.211L345.379,34.252z M191.316,118.783
		c-0.078,0.057-0.155,0.114-0.233,0.171c0.06,0.072,0.119,0.146,0.181,0.22c0.103-0.096,0.206-0.19,0.306-0.286
		C191.484,118.853,191.4,118.817,191.316,118.783z M183.812,118.211c-0.069,0.062-0.137,0.12-0.204,0.181
		c0.14,0.086,0.275,0.188,0.426,0.25c0.028,0.012,0.119-0.121,0.182-0.188C184.08,118.373,183.946,118.291,183.812,118.211z"/>
	<path fill="#FFFFFF" d="M93.071,136.085c-0.603,0-1.207,0.001-1.81,0c-0.304-0.001-0.789-0.133-0.883,0.006
		c-1.594,2.327-3.951,0.631-5.896,1.104c-1.25,0.304-2.635,0.041-3.959,0.054c-0.411,0.003-0.841,0.179-1.231,0.103
		c-2.649-0.502-5.331-0.078-7.998-0.332c-3.069-0.295-6.174-0.148-9.257-0.301c-1.605-0.078-3.211-0.314-4.821-0.416
		c-0.515-0.033-1.088-0.262-1.533-0.109c-3.565,1.231-7.162-0.295-10.727,0.188c-2.034-1.072-4.152-0.564-6.291-0.475
		c-1.724,0.074-3.374-0.694-5.206-1.334c0.371-0.389,0.54-0.729,0.749-0.756c0.709-0.092,1.488-0.254,2.14-0.057
		c1.162,0.354,2.229,0.178,3.363-0.044c1.001-0.196,2.041-0.226,3.066-0.261c1.443-0.051,2.89-0.037,4.334-0.053
		c0.313-0.004,0.622-0.006,0.931-0.028c1.005-0.072,1.67,1.089,2.849,0.647c0.839-0.313,1.824-0.291,2.746-0.318
		c1.034-0.028,2.071,0.063,3.106,0.095c0.519,0.015,1.241-0.202,1.521,0.06c1.538,1.435,3.239,0.416,4.71,0.187
		c2.241-0.351,4.395-0.075,6.455,0.435c1.235,0.303,2.402,0.309,3.609,0.437c3.073,0.325,6.189-0.272,9.237,0.499
		c0.278,0.07,0.611-0.075,0.922-0.121c1.293-0.191,2.537-0.693,3.899-0.471c1.223,0.203,2.474,0.232,3.7,0.412
		c0.807,0.115,1.594,0.361,2.39,0.549C93.148,135.884,93.109,135.983,93.071,136.085z"/>
	<path fill="#FFFFFF" d="M142.336,134.879c1.068-0.95,2.189-1.188,3.328-1.261c3.621-0.229,7.246-0.42,10.872-0.592
		c1.124-0.055,1.153,0.021,1.472,1.595c-1.831,0.258-3.648,0.624-5.484,0.749c-2.881,0.195-5.773,0.222-8.662,0.334
		c-2.734,0.105-5.469,0.203-8.203,0.35c-2.674,0.143-5.297,0.717-8.016,0.579c-3.24-0.163-6.507-0.132-9.743,0.097
		c-2.467,0.174-4.913,0.648-7.408,0.598c-2.139-0.045-4.224-0.33-6.237-0.809c-0.048-0.918,0.427-1.188,0.953-1.217
		c2.271-0.123,4.543-0.24,6.817-0.261c3.73-0.036,7.465,0.052,11.194-0.005c1.652-0.025,3.301-0.333,4.952-0.417
		c3.003-0.149,6.007-0.233,9.011-0.335c0.51-0.018,1.1,0.186,1.517-0.008C140.008,133.666,141.098,134.097,142.336,134.879z"/>
	<path fill="#FFFFFF" d="M224.206,130.354c-1.718,0.457-3.215,0.738-4.75,0.656c-3.465-0.189-6.9-0.031-10.33,0.541
		c-0.894,0.149-1.897,0.139-2.754-0.125c-1.269-0.394-2.396-0.41-3.566,0.223c-0.225,0.123-0.65,0.054-0.889-0.086
		c-0.215-0.127-0.354-0.461-0.412-0.729c-0.027-0.131,0.18-0.442,0.309-0.461c0.6-0.082,1.236-0.228,1.805-0.099
		c3.104,0.707,6.15,0.467,9.188-0.367c0.583-0.16,1.211-0.299,1.803-0.256c3.052,0.228,6.106,0.084,9.161,0.162
		C223.831,129.813,223.889,129.954,224.206,130.354z"/>
	<path fill="#FFFFFF" d="M180.698,131.802c0.521-0.129,1.077-0.35,1.649-0.394c1.644-0.125,3.294-0.248,4.939-0.231
		c0.781,0.008,1.585,0.553,2.33,0.459c0.74-0.095,1.293-0.855,2.225-0.828c2.168,0.061,4.339-0.041,6.507-0.06
		c0.306-0.003,0.661,0.011,0.903,0.162c0.205,0.131,0.434,0.51,0.379,0.704c-0.057,0.205-0.487,0.492-0.666,0.439
		c-0.377-0.115-0.67-0.488-1.043-0.637c-0.369-0.145-1.026-0.337-1.16-0.178c-1.146,1.373-2.725,0.382-4.057,0.799
		c-1.348,0.424-2.853,0.367-4.292,0.47c-2.229,0.161-4.46,0.3-6.692,0.4C181.188,132.931,180.722,132.688,180.698,131.802z"/>
	<path fill="#FFFFFF" d="M9.442,46.871c-0.491,0.3-0.984,0.601-1.531,0.936C7.893,48.53,8.3,48.444,8.863,48.251
		c0.196-0.068,0.482,0.129,0.728,0.205c-0.114,0.267-0.154,0.654-0.357,0.777c-0.512,0.312-1.127,0.456-1.644,0.763
		c-0.434,0.258-0.785,0.653-1.252,1.054c-0.707-0.198-1.393-0.391-2.176-0.61c0-0.434-0.172-1.03,0.029-1.21
		c1.253-1.121,1.612-3.554,4.108-2.902L8.17,46.249c0.199,0.705,0.871,0.509,1.342,0.701L9.442,46.871z"/>
	<path fill="#FFFFFF" d="M6.712,84.511c-0.354-1.273-0.6-2.146-0.839-3.008c1.265-0.555,1.33-0.552,1.645,0.268
		c0.14,0.365,0.202,0.758,0.314,1.196c1.02-0.048,1.995-0.329,2.791-0.065c0.795,0.264,1.406,1.074,2.227,1.75
		C10.649,85.446,8.834,83.765,6.712,84.511z"/>
	<path fill="#FFFFFF" d="M25.705,134.423c1.941-0.977,3.342-0.859,4.725-0.589c0.348,0.718,0.416,1.392-0.418,1.541
		c-0.897,0.161-1.848,0.153-2.757,0.054C26.843,135.383,26.475,134.942,25.705,134.423z"/>
	<path fill="#FFFFFF" d="M58.969,6.63c0.269,1.19,0.583,2.373,0.769,3.576c0.038,0.265-0.327,0.724-0.619,0.877
		c-0.451,0.236-1.009-0.227-0.985-0.795c0.049-1.225,0.149-2.448,0.23-3.672C58.565,6.621,58.768,6.625,58.969,6.63z"/>
	<path fill="#FFFFFF" d="M376.489,38.975c-0.18,0.093-0.359,0.271-0.531,0.264c-1.115-0.038-2.227-0.116-3.373-0.182
		c0-0.397,0-0.676,0-1.114c1.377,0.189,2.656,0.366,3.936,0.541C376.508,38.648,376.5,38.812,376.489,38.975z"/>
	<path fill="#FFFFFF" d="M62.564,10.387c-0.182-0.56-0.336-0.836-0.348-1.12c-0.022-0.499,0.042-1.002,0.091-1.858
		c0.867,0.675,1.471,1.145,2.029,1.579C64.318,10.152,63.365,9.95,62.564,10.387z"/>
	<path fill="#FFFFFF" d="M165.435,133.345c0.563,0.371,0.677-0.209,0.929-0.455c0.68-0.662,1.451-0.586,2.426-0.406
		c-0.066,0.492-0.006,0.955-0.203,1.232c-0.202,0.281-0.641,0.451-1.008,0.547c-0.938,0.244-1.536-0.35-2.105-0.964L165.435,133.345
		z"/>
	<path fill="#FFFFFF" d="M8.3,46.328c-0.168-0.254-0.332-0.508-0.648-0.988c0.32-0.247,0.653-0.693,1.062-0.779
		c0.659-0.137,1.369-0.037,2.071-0.037c0.303,1.346-1.227,0.987-1.348,1.791l0.084-0.07c-0.45,0.001-0.899,0.003-1.35,0.004
		L8.3,46.328z"/>
	<path fill="#FFFFFF" d="M165.473,133.299c-0.427,0.21-0.86,0.411-1.281,0.634c-0.605,0.32-1.089,0.196-1.472-0.371
		c-0.002-0.004-0.018,0.09-0.018,0.09c0.139-0.853,0.647-1.201,1.461-0.949c0.439,0.137,0.829,0.441,1.257,0.654
		C165.435,133.345,165.473,133.299,165.473,133.299z"/>
	<path fill="#FFFFFF" d="M23.858,90.243c-1.116,0.078-1.706,0.119-2.687,0.189C22.08,89.457,22.667,89.383,23.858,90.243z"/>
	<path fill="#FFFFFF" d="M177.812,131.72c0.125,0.145,0.487,0.459,0.446,0.529c-0.243,0.402-0.562,0.771-0.912,1.086
		c-0.052,0.047-0.543-0.209-0.616-0.404C176.507,132.326,176.946,131.815,177.812,131.72z"/>
	<path fill="#FFFFFF" d="M7.825,75.896c-0.393,0.065-0.786,0.182-1.179,0.18c-0.27-0.002-0.538-0.168-0.851-0.275
		c1.145-0.982,1.07-0.838,2.015,0.055L7.825,75.896z"/>
	<path fill="#FFFFFF" d="M102.57,136.188c-1.332-0.092-2.027-0.139-3.125-0.213C100.596,135.207,101.271,135.581,102.57,136.188z"/>
	<path fill="#FFFFFF" d="M173.701,131.938c0.521,1.133,0.521,1.133-0.521,1.752C173.365,133.069,173.517,132.562,173.701,131.938z"
		/>
	<path fill="#FFFFFF" d="M343.227,82.229c-0.486,0-0.973,0-1.461,0c0.002-0.017,0.002-0.033,0.002-0.049c0.488,0,0.975,0,1.461,0
		C343.227,82.198,343.227,82.214,343.227,82.229z"/>
	<path fill="#FFFFFF" d="M0.245,68.456C0.104,68.686,0.074,68.809,0,68.843c-0.326,0.153-0.667,0.28-1.001,0.417
		c-0.058-0.24-0.207-0.659-0.153-0.687c0.313-0.163,0.672-0.245,1.02-0.327C-0.067,68.231,0.028,68.332,0.245,68.456z"/>
	<path fill="#FFFFFF" d="M362.53,42.917c-0.971,0.151-1.604,0.25-2.58,0.403C360.831,42.392,361.514,42.711,362.53,42.917z"/>
	<path fill="#FFFFFF" d="M227.767,130.126c0.282-0.016,0.565-0.031,0.849-0.046c-0.019,0.081-0.027,0.228-0.057,0.231
		c-0.256,0.039-0.516,0.051-0.773,0.071C227.778,130.297,227.772,130.211,227.767,130.126z"/>
	<path fill="#FFFFFF" d="M363.401,48.638c-0.539,0.03-1.078,0.061-1.617,0.092c-0.002-0.123-0.004-0.245-0.006-0.367
		c0.537,0,1.072,0,1.609,0C363.391,48.455,363.395,48.546,363.401,48.638z"/>
	<path fill="#FFFFFF" d="M354.286,11.022c-0.311,0-0.582,0-0.854,0c0.117-0.049,0.236-0.143,0.354-0.14
		C353.942,10.887,354.094,10.966,354.286,11.022z"/>
	<path fill="#FFFFFF" d="M69.152,8.491c0.108,0.123,0.217,0.247,0.323,0.37c-0.199,0.126-0.398,0.253-0.599,0.38
		c-0.06-0.152-0.203-0.346-0.155-0.447C68.787,8.656,69.001,8.588,69.152,8.491z"/>
	<path fill="#FFFFFF" d="M241.395,1.223c-0.1,0.14-0.197,0.279-0.295,0.418c-0.104-0.134-0.227-0.257-0.301-0.405
		c-0.023-0.047,0.113-0.236,0.131-0.23C241.09,1.061,241.243,1.146,241.395,1.223z"/>
	<path fill="#FFFFFF" d="M241.79,119.397c0.026,0.174,0.063,0.35,0.063,0.524c0,0.022-0.177,0.05-0.271,0.073
		c-0.023-0.182-0.055-0.363-0.062-0.547C241.521,119.437,241.694,119.416,241.79,119.397z"/>
	<path fill="#FFFFFF" d="M372.28,43.52c0.172,0.078,0.406,0.116,0.488,0.249c0.059,0.089-0.105,0.313-0.17,0.476
		c-0.176-0.073-0.422-0.103-0.502-0.233C372.042,43.918,372.211,43.688,372.28,43.52z"/>
	<path fill="#FFFFFF" d="M356.668,26.034c0.135-0.284,0.215-0.459,0.297-0.634c0.209,0.188,0.455,0.349,0.604,0.576
		c0.049,0.071-0.174,0.317-0.271,0.483C357.083,26.314,356.868,26.169,356.668,26.034z"/>
	<path fill="#FFFFFF" d="M357.024,40.069c0.121,0.174,0.367,0.371,0.359,0.556c-0.008,0.146-0.326,0.279-0.506,0.418
		c-0.16-0.23-0.32-0.459-0.48-0.687C356.571,40.277,356.741,40.198,357.024,40.069z"/>
	<path fill="#FFFFFF" d="M350.874,10.814c0.039-0.083,0.061-0.212,0.125-0.236c0.061-0.025,0.164,0.057,0.25,0.092
		c-0.039,0.084-0.063,0.214-0.127,0.239C351.061,10.935,350.958,10.85,350.874,10.814z"/>
	<path fill="#FFFFFF" d="M3.221,65.71c0.097,0.27,0.182,0.503,0.266,0.736c-0.177,0.059-0.407,0.212-0.517,0.15
		c-0.135-0.076-0.229-0.335-0.22-0.508C2.756,65.979,2.991,65.885,3.221,65.71z"/>
	<path fill="#FFFFFF" d="M55.719,8.468c0.133-0.119,0.267-0.237,0.401-0.356c0.05,0.084,0.158,0.182,0.143,0.249
		c-0.044,0.178-0.139,0.342-0.214,0.512C55.939,8.738,55.828,8.603,55.719,8.468z"/>
	<path fill="#FFFFFF" d="M368.081,30.042c0.098,0.146,0.195,0.292,0.291,0.437c-0.164,0.025-0.33,0.074-0.492,0.061
		c-0.072-0.004-0.135-0.132-0.201-0.204C367.811,30.238,367.946,30.141,368.081,30.042z"/>
	<path fill="#FFFFFF" d="M367.022,50.816c0.057,0.063,0.113,0.126,0.172,0.189c-0.135,0.109-0.27,0.218-0.402,0.328
		c-0.094-0.121-0.188-0.241-0.281-0.362C366.68,50.919,366.852,50.868,367.022,50.816z"/>
	<path fill="#FFFFFF" d="M359.653,26.069c-0.182,0.015-0.365,0.03-0.551,0.044c0.006-0.151,0.01-0.301,0.014-0.452
		c0.18,0.041,0.361,0.069,0.533,0.135C359.678,25.809,359.653,25.974,359.653,26.069z"/>
	<path fill="#FFFFFF" d="M342.112,80.84c0.078,0.05,0.154,0.101,0.23,0.149c-0.092,0.029-0.188,0.089-0.271,0.078
		c-0.082-0.01-0.158-0.092-0.236-0.144C341.926,80.897,342.02,80.868,342.112,80.84z"/>
	<path fill="#FFFFFF" d="M23.907,18.553c-0.021-0.075-0.076-0.166-0.051-0.221c0.032-0.07,0.126-0.112,0.196-0.166
		c0.035,0.122,0.07,0.245,0.105,0.367C24.073,18.54,23.989,18.546,23.907,18.553z"/>
	<path fill="#FFFFFF" d="M17.096,81.479c0.097,0.133,0.191,0.267,0.288,0.399c-0.076,0.054-0.212,0.161-0.222,0.149
		c-0.121-0.129-0.228-0.275-0.335-0.418C16.915,81.567,17.006,81.522,17.096,81.479z"/>
	<path fill="#FFFFFF" d="M7.811,75.854c0.202,0.02,0.403,0.049,0.605,0.057c0.1,0.003,0.2-0.038,0.301-0.061
		c-0.102-0.031-0.208-0.099-0.307-0.09c-0.196,0.021-0.39,0.082-0.585,0.131C7.825,75.896,7.811,75.854,7.811,75.854z"/>
	<path fill="#FFFFFF" d="M7.241,52.297c-0.272,0.046-0.544,0.123-0.814,0.121c-0.093-0.001-0.182-0.205-0.271-0.316
		c0.083-0.03,0.186-0.106,0.248-0.081c0.257,0.103,0.504,0.237,0.761,0.35C7.175,52.362,7.241,52.297,7.241,52.297z"/>
	<path fill="#FFFFFF" d="M3.937,81.524c0.172-0.055,0.343-0.129,0.52-0.147c0.03-0.003,0.085,0.222,0.128,0.343
		c-0.181,0.004-0.366,0.02-0.546,0.002C3.998,81.717,3.969,81.593,3.937,81.524z"/>
	<path fill="#FFFFFF" d="M0.289,60.592c0.061-0.054,0.12-0.109,0.182-0.163c0.104,0.16,0.209,0.321,0.313,0.482
		c-0.084,0.045-0.167,0.09-0.25,0.135C0.452,60.895,0.371,60.743,0.289,60.592z"/>
	<path fill="#FFFFFF" d="M39.458,7.217c0.084,0.023,0.169,0.048,0.253,0.072c-0.06,0.158-0.084,0.353-0.193,0.457
		c-0.053,0.05-0.268-0.069-0.409-0.11C39.225,7.496,39.341,7.356,39.458,7.217z"/>
	<path fill="#FFFFFF" d="M162.702,133.651c0,0,0.016-0.094,0.018-0.09c-0.252-0.068-0.505-0.14-0.332-0.092
		C162.237,133.383,162.47,133.519,162.702,133.651z"/>
	<path fill="#FFFFFF" d="M103.928,3.485c0.077-0.048,0.209-0.151,0.225-0.136c0.109,0.108,0.197,0.241,0.293,0.365
		c-0.157,0.018-0.313,0.044-0.469,0.038C103.957,3.75,103.944,3.578,103.928,3.485z"/>
	<path fill="#FFFFFF" d="M368.717,43.437c0.084,0.033,0.207,0.045,0.244,0.107c0.029,0.047-0.049,0.16-0.08,0.242
		c-0.084-0.038-0.191-0.057-0.24-0.122C368.614,43.626,368.688,43.515,368.717,43.437z"/>
	<path fill="#FFFFFF" d="M109.981,5.314c0.083-0.038,0.164-0.076,0.247-0.114c0.027,0.124,0.057,0.248,0.086,0.372
		c-0.09-0.016-0.195-0.011-0.269-0.056C110.002,5.487,110.002,5.384,109.981,5.314z"/>
	<path fill="#FFFFFF" d="M157.44,1.315c0.125-0.133,0.253-0.267,0.38-0.4c-0.152,0.109-0.304,0.217-0.46,0.324
		C157.358,1.237,157.44,1.315,157.44,1.315z"/>
	<path fill="#FFFFFF" d="M22.949,120.714c-0.069-0.023-0.139-0.047-0.207-0.07c0.095-0.055,0.19-0.108,0.287-0.162
		C23.003,120.56,22.977,120.638,22.949,120.714z"/>
	<path fill="#FFFFFF" d="M14.033,75.604c0.058-0.021,0.112-0.041,0.168-0.062c0.019,0.075,0.051,0.151,0.048,0.226
		c-0.003,0.022-0.106,0.039-0.163,0.059C14.067,75.753,14.051,75.677,14.033,75.604z"/>
	<path fill="#FFFFFF" d="M9.437,46.314c0.185,0.154,0.37,0.309,0.555,0.464c-0.183,0.03-0.366,0.062-0.549,0.093l0.07,0.079
		c0.002-0.235,0.006-0.47,0.008-0.706L9.437,46.314z"/>
	<polygon fill="#FFFFFF" points="66.297,9.22 66.071,9.099 66.322,9.031 	"/>
	<path fill="#FFFFFF" d="M358.395,34.094c-0.137,0.036-0.205,0.056-0.275,0.075c-0.018-0.063-0.031-0.127-0.049-0.19
		C358.161,34.01,358.252,34.043,358.395,34.094z"/>
	<path fill="#FFFFFF" d="M370.059,67.811c-0.025,0.065-0.055,0.129-0.08,0.193c-0.055-0.091-0.109-0.182-0.164-0.273
		C369.895,67.757,369.977,67.784,370.059,67.811z"/>
	<path fill="#FFFFFF" d="M372.907,52.843c0.078-0.039,0.156-0.108,0.232-0.105c0.068,0.003,0.133,0.086,0.197,0.134
		C373.194,52.863,373.049,52.854,372.907,52.843z"/>
	<path fill="#FFFFFF" d="M359.586,74.104c-0.074-0.029-0.146-0.058-0.221-0.086c0.035-0.078,0.057-0.172,0.111-0.226
		c0.021-0.021,0.186,0.045,0.189,0.083C359.674,73.946,359.616,74.026,359.586,74.104z"/>
	<polygon fill="#FFFFFF" points="337.499,87.681 337.502,87.884 337.27,87.782 	"/>
	<path fill="#FFFFFF" d="M331.833,79.114c-0.07,0.021-0.141,0.057-0.211,0.055c-0.023-0.001-0.043-0.1-0.066-0.152
		c0.07-0.02,0.143-0.055,0.211-0.049C331.792,78.97,331.811,79.062,331.833,79.114z"/>
	<path fill="#FFFFFF" d="M45.826,121.362c0.086,0.158,0.26,0.334,0.231,0.468c-0.029,0.134-0.262,0.224-0.404,0.333
		c-0.089-0.155-0.276-0.337-0.244-0.46C45.446,121.563,45.679,121.474,45.826,121.362z"/>
</g>
</svg>
