<?xml version="1.0" encoding="utf-8"?>
<!-- Generator: Adobe Illustrator 16.0.0, SVG Export Plug-In . SVG Version: 6.00 Build 0)  -->
<!DOCTYPE svg PUBLIC "-//W3C//DTD SVG 1.1//EN" "http://www.w3.org/Graphics/SVG/1.1/DTD/svg11.dtd">
<svg version="1.1" id="圖層_1" xmlns="http://www.w3.org/2000/svg" xmlns:xlink="http://www.w3.org/1999/xlink" x="0px" y="0px"
	 width="524.409px" height="69.459px" viewBox="0 0 524.409 69.459" enable-background="new 0 0 524.409 69.459"
	 xml:space="preserve">
<g>
	<path fill-rule="evenodd" clip-rule="evenodd" d="M497.422,15.911c-2.577,0.352-5.151,0.451-7.761,0.348
		c-3.089-0.123-6.188,0.042-9.297,0.083c-0.078,0.764,0.426,0.62,0.754,0.633c4.034,0.148,8.07,0.251,12.102,0.449
		c0.83,0.041,1.911-0.196,2.291,1.072c0.063,0.211,0.721,0.289,1.113,0.347c0.804,0.119,1.617,0.181,2.717,0.297
		c-3.052,1.398-3.477,1.653-5.997,1.376c-3.739-0.412-7.45,0.177-11.175,0.085c-0.801-0.021-1.604,0.383-2.418,0.505
		c-0.801,0.119-1.619,0.128-2.482,0.188c1.214,0.927,1.544,0.991,6.323,1.266c0.318,0.414,0.672,0.874,1.014,1.318
		c0.261-0.121,0.47-0.163,0.6-0.289c1.097-1.057,1.159-1.146,2.23-0.394c0.56,0.394,1.021,0.612,1.682,0.49
		c1.849-0.342,3.672-0.207,5.528,0.104c2.693,0.45,5.42,0.698,7.871,0.999c-5.482,0.274-11.229,0.561-17.071,0.853
		c0.157,0.313,0.194,0.479,0.252,0.488c1.421,0.205,2.838,0.453,4.268,0.569c1.338,0.11,2.688,0.084,4.034,0.105
		c0.937,0.017,1.776,0.188,2.662,0.643c0.97,0.499,2.156,0.629,3.268,0.785c1.529,0.213,3.115-0.179,4.621,0.435
		c0.254,0.104,0.607-0.004,0.909-0.053c2.056-0.327,4.052-0.559,5.78,1.091c0.367,0.349,1.178,0.264,1.788,0.323
		c2.478,0.239,4.958,0.448,7.434,0.688c0.499,0.048,0.991,0.184,1.438,0.271c0.11,0.73-0.298,0.843-0.715,0.844
		c-1.869,0.004-3.737-0.059-5.604-0.018c-0.699,0.017-1.564,0.036-2.057,0.429c-1.014,0.807-2.076,0.817-3.229,0.725
		c-0.61-0.047-1.229-0.113-1.833-0.056c-3.087,0.297-6.172,0.629-9.409,0.966c1.784,1.404,3.755,1.713,5.808,1.834
		c2.676,0.156,5.346,0.376,7.941,0.563c0.225,0.797-0.174,0.984-0.581,0.96c-1.755-0.102-3.509-0.239-5.261-0.406
		c-1.455-0.137-2.876-0.227-4.285,0.364c-0.646,0.271-1.399,0.382-2.105,0.392c-1.301,0.019-2.428,0.397-3.406,1.244
		c1.737,0.601,1.738,0.609,3.074,0.465c1.023-0.112,2.044-0.253,3.158-0.392c0.979,1.455,2.445,1.857,4.034,2.013
		c1.445,0.141,2.888,0.32,4.329,0.494c1.211,0.146,2.42,0.31,3.594,0.889c-0.483,0-0.967,0.014-1.449-0.002
		c-3.085-0.108-6.17-0.221-9.254-0.339c-0.625-0.023-1.27-0.116-1.513,0.867c0.747,0.473,1.534,0.683,2.505,0.655
		c3.1-0.087,6.165,0.404,9.24,0.706c0.25,0.025,0.475,0.31,0.931,0.627c-2.007,0.398-3.751,0.012-5.488-0.06
		c-1.345-0.054-2.681-0.307-4.024-0.381c-0.997-0.055-2.076-0.323-2.814,0.794c-0.155,0.235-0.754,0.245-1.147,0.24
		c-0.933-0.012-1.881-0.003-2.793-0.166c-1.694-0.303-3.267,0.003-5.104,0.754c0.491,0.302,0.775,0.605,1.091,0.646
		c1.33,0.173,2.671,0.267,3.988,0.388c0.238,0.528,0.439,0.977,0.641,1.424c1.74,0.315,3.456,0.624,5.123,0.926
		c0.016,0.779-0.42,0.932-0.813,0.882c-4.018-0.51-8.048-0.357-12.08-0.37c-3.495-0.013-7.007-0.145-10.442-1.011
		c-0.74-0.186-1.568-0.027-2.563-0.027c1.397,1.134,1.397,1.134,3.972,1.748c-0.979,0.135-1.456,0.275-1.923,0.25
		c-1.334-0.071-2.692-0.44-3.99-0.281c-3.747,0.457-7.43,0.009-11.124-0.444c-1.644-0.203-3.282-0.233-4.947-0.222
		c-2.673,0.021-5.399,0.304-8.026-0.578c-0.376-0.127-0.82-0.07-1.233-0.074c-4.972-0.052-9.918-0.345-14.854-1.036
		c-1.316-0.185-2.829-0.086-4.184,0.54c-1.44,0.668-2.946,0.75-4.533,0.434c-2.753-0.551-5.521-0.429-8.309-0.047
		c-1.42,0.193-2.926,0.187-4.339-0.053c-3.824-0.645-7.667-0.147-11.497-0.356c-1.95-0.106-3.922,0.21-5.883,0.194
		c-1.337-0.013-2.698-0.157-4.005-0.443c-1.765-0.385-3.495-0.212-5.259-0.114c-2.654,0.146-5.32,0.184-7.979,0.146
		c-1.232-0.019-2.558-0.087-3.666-0.551c-2.189-0.916-4.174-0.898-6.111,0.628c-2.576-1.325-5.177-1.564-7.841-0.515
		c-0.188,0.075-0.458,0.167-0.603,0.091c-2.003-1.062-4.038-0.019-6.055-0.095c-1.963-0.074-3.939,0.206-5.906,0.162
		c-2.07-0.045-4.135-0.365-6.207-0.425c-2.477-0.071-4.957,0.044-7.436,0.007c-1.234-0.017-2.465-0.211-3.699-0.286
		c-0.602-0.036-1.242-0.104-1.805,0.055c-1.119,0.315-2.184,0.594-3.291-0.028c-0.241-0.136-0.646-0.184-0.893-0.078
		c-1.893,0.805-3.879,0.14-5.819,0.387c-1.81,0.231-3.694-0.154-5.548-0.2c-4.332-0.107-8.666-0.146-12.997-0.268
		c-2.69-0.075-5.376-0.263-8.065-0.367c-0.721-0.027-1.447,0.097-2.17,0.101c-2.174,0.011-4.348,0.019-6.521-0.014
		c-1.235-0.018-2.47-0.166-3.705-0.168c-2.884-0.006-5.767,0.022-8.649,0.075c-1.34,0.024-2.679,0.14-4.018,0.206
		c-2.369,0.116-4.736,0.182-7.113,0.186c-4.763,0.011-9.529,0.199-14.284,0.478c-1.589,0.094-3.306-0.528-4.806,0.609
		c-0.238,0.181-0.792-0.046-1.198-0.096c-1.027-0.126-2.052-0.29-3.083-0.377c-0.857-0.071-1.658,0.106-2.354,1.024
		c0.38,0.249,0.743,0.688,1.114,0.693c1.322,0.021,2.602,0.351,3.994-0.041c1.113-0.313,2.433,0.176,3.664,0.21
		c3.385,0.089,6.765-0.302,10.153-0.179c0.207,0.007,0.458,0.09,0.612,0.003c2.121-1.202,4.5-0.765,6.688-0.707
		c2.871,0.076,5.773-0.591,8.624,0.19c0.196,0.054,0.425,0.093,0.618,0.049c2.475-0.565,4.921,0.116,7.381,0.13
		c0.607,0.004,1.269-0.004,1.809-0.232c0.926-0.389,1.734-0.558,2.627,0.083c0.301,0.215,0.861,0.321,1.196,0.194
		c2.374-0.899,4.925,0.244,7.333-0.799c1.217,0.886,2.513,1.184,4.055,1.027c1.527-0.154,3.09,0.241,4.443,1.096
		c-1.512,0.094-3.032,0.093-4.51,0.338c-0.715,0.119-1.646,0.338-1.821,1.333c-0.096,0.538,0.483,0.533,2.083,0.379
		c1.705-0.165,3.217-0.541,4.176-2.105c0.357-0.343,0.667-0.89,1.08-0.983c0.681-0.154,1.469-0.161,2.136,0.034
		c1.153,0.336,2.208,0.337,3.333-0.111c0.711-0.283,1.432-0.151,1.707,0.778c-0.833,0.63-2.359-0.336-2.898,1.453
		c1.197,0,2.195-0.02,3.191,0.005c1.15,0.027,1.264-0.831,1.441-1.641c1.225-0.111,2.443-0.188,3.651-0.344
		c1.022-0.132,2.335-1.027,2.337,1.061c0,0.075,0.107,0.188,0.188,0.219c1.687,0.627,3.337,0.372,5.333,0.105
		c-0.951-1.228-2.02-0.65-2.943-1.21c1.848,0,3.509,0,5.225,0c-0.384,1.477,0.697,1.282,1.596,1.438
		c-0.23,0.659-0.418,1.19-0.672,1.911c0.402,0.078,0.837,0.311,1.117,0.189c1.094-0.475,2.229-0.356,3.357-0.399
		c1.717-0.064,3.404,0.438,5.176-0.204c0.975-0.353,2.354-0.187,3.344,0.234c1.455,0.618,2.758,0.464,4.172,0.112
		c0.795-0.198,1.635-0.337,2.449-0.309c0.983,0.032,1.566,1.247,2.813,0.909c0.965-0.262,2.042-0.128,3.069-0.129
		c1.028,0,2.059,0.088,3.087,0.063c0.487-0.013,0.97-0.199,1.454-0.312c0.5-0.115,1.102-0.473,1.486-0.313
		c2.033,0.852,4.076-0.083,6.118,0.148c1.739,0.198,3.503-0.125,4.735-1.664c0.126-0.158,0.289-0.292,0.453-0.412
		c0.709-0.515,1.191-0.259,1.787,1.09c1.547,0.07,3.191,0.145,4.734,0.215c-0.723,0.339-1.604,0.609-2.308,1.121
		c-0.968,0.704-2.032,0.203-3.006,0.484c-0.151,0.044-0.372,0.341-0.337,0.433c0.094,0.241,0.346,0.635,0.479,0.613
		c1.416-0.227,2.824-0.514,4.23-0.8c0.302-0.062,0.604-0.295,0.882-0.261c4.204,0.515,8.491,0.035,12.647,1.059
		c0.142,0.034,0.225,0.306,0.475,0.668c-0.531,0.154-0.982,0.378-1.445,0.405c-2.791,0.171-5.568,0.202-8.373-0.084
		c-2.461-0.251-4.971-0.072-7.458-0.04c-2.374,0.03-4.748,0.155-7.122,0.166c-1.445,0.007-2.895-0.218-4.337-0.175
		c-4.968,0.15-9.946-0.513-14.91,0.232c-0.782,0.116-1.645-0.045-2.427-0.247c-1.293-0.333-2.458-0.192-3.602,0.588
		c-2.334-1.903-4.629-0.65-6.766,0.156c-0.992-0.344-1.825-0.843-2.685-0.895c-3.604-0.215-7.169-1.09-10.815-0.647
		c-0.816,0.099-1.654,0.014-2.447,0.014c-0.389-0.522-0.643-1.211-1.102-1.397c-0.621-0.252-1.435-0.259-2.094-0.091
		c-0.365,0.093-0.584,0.757-0.979,1.319c-3.719-0.554-7.654,0.339-11.52-0.57c-1.965,0.298-3.904,0.339-5.803-0.398
		c-0.26-0.101-0.669-0.063-0.91,0.079c-1.656,0.973-3.437,0.522-5.182,0.511c-2.798-0.018-5.598,0.012-8.396-0.039
		c-1.229-0.022-2.453-0.224-3.684-0.28c-0.485-0.022-0.988,0.084-1.463,0.207c-1.626,0.422-3.268,0.469-4.93,0.335
		c-3.93-0.317-7.857-0.377-11.783,0.063c-2.017,0.227-4.037,0.089-6.226,0.191c0.471-0.786,0.854-0.386,1.205-0.379
		c0.978,0.021,1.345-0.329,1.313-1.229c-0.025-0.725-0.431-0.99-1.26-0.797c-0.283,0.066-0.555,0.188-0.865,0.297
		c-0.242-0.508-0.455-0.955-0.671-1.408c-2.146-0.209-4.284-0.472-6.622,0.397c0.685,0.608,1.191,1.043,1.679,1.5
		c0.503,0.472,0.985,0.964,1.546,1.515c-2.018,0.242-3.859,0.472-5.703,0.68c-0.41,0.046-0.84,0.08-1.242,0.013
		c-3.613-0.607-7.23-0.317-10.848-0.09c-0.08,0.004-0.169-0.11-0.427-0.29c0.885-0.563,1.817-0.403,2.671-0.578
		c0.459-0.094,0.896-0.423,1.279-0.726c0.295-0.233,0.029-0.989-0.331-0.974c-2.115,0.097-4.168-0.572-6.294-0.438
		c-2.158,0.135-4.326,0.156-6.49,0.146c-1.963-0.007-3.883,0.35-5.82,0.51c-1.936,0.159-3.932,0.086-5.854-0.205
		c-2.065-0.313-4.098-0.332-6.158-0.186c-1.246,0.088-2.498,0.123-3.326-0.985c-1.665,1.145-3.406,1.292-5.159,1.262
		c-1.657-0.029-3.312-0.182-4.967-0.278l0.067,0.076c-1.336-1.411-1.385-1.42-2.738-0.414c-1.459,1.083-1.451,1.071-3.113-0.037
		c-0.309-0.205-0.767-0.446-1.063-0.358c-0.93,0.273-1.797,0.372-2.728-0.008c-0.331-0.136-0.89-0.128-1.163,0.069
		c-1.408,1.013-2.991,0.725-4.506,0.625c-1.336-0.087-2.65-0.144-3.992-0.107c-1.34,0.035-2.654-0.03-3.963,0.367
		c-0.581,0.177-1.227,0.137-1.84,0.213c-1.314,0.162-2.452-0.837-3.926-0.309c-1.195,0.429-2.647,0.191-3.984,0.167
		c-1.961-0.037-1.959-0.068-3.555-1.599c-0.688,0.631-1.313,1.363-2.479,1.299c-2.789-0.151-5.588-0.134-8.385-0.169
		c-2.905-0.037-5.784,0.149-8.607,0.931c-0.686,0.191-1.42,0.248-2.137,0.29c-4.333,0.259-8.669,0.677-12.999-0.054
		c-2.448,0.48-4.923-0.344-7.374,0.147c-0.399,0.081-0.827,0.004-1.241,0.015c-2.044,0.051-4.06-0.397-6.131-0.195
		c-2.048,0.199-4.132,0.105-6.198,0.036c-2.572-0.085-5.14-0.302-7.711-0.41c-1.234-0.052-2.475,0.041-3.71,0.017
		c-1.551-0.031-3.103-0.083-4.649-0.188c-1.422-0.096-2.746-0.364-4.255,0.146c-1.382,0.467-3.054,0.07-4.598,0.058
		c-0.499-0.004-0.999-0.001-1.486-0.001c-0.044,0.645-0.077,1.104-0.129,1.832c-0.671-0.296-1.178-0.418-1.558-0.706
		c-2.104-1.603-2.094-1.617-4.449-0.367c-0.039,0.617,0.24,0.99,0.864,1.016c0.479,0.02,0.96-0.037,1.453,0.137
		c-1.548,0.919-3.399-0.026-4.957,0.896c0.12,0.485,0.243,0.982,0.42,1.692c0.784,0.038,1.714,0.363,2.341,0.061
		c2.07-1.002,4.321-0.075,6.391-0.81c1.016-0.361,1.354,0.72,2.107,1.192c0.607-0.171,1.334-0.623,1.953-0.507
		c2.481,0.465,4.916-0.417,7.313-0.216c2.795,0.234,5.572-0.015,8.352,0.196c0.803,0.061,1.622-0.071,2.433-0.143
		c1.226-0.107,2.38-1.085,3.718-0.013c0.416,0.334,1.419,0.046,2.117-0.112c0.815-0.185,1.55-0.418,2.4-0.011
		c0.412,0.199,1.121,0.206,1.504-0.024c2.053-1.239,3.94-0.437,5.928,0.348c0.692-0.328,1.433-0.679,2.231-1.058
		c0.606,0.201,1.239,0.491,1.901,0.607c0.792,0.138,1.607,0.158,2.414,0.169c0.724,0.01,1.496,0.086,2.163-0.128
		c1.438-0.46,2.858-0.337,4.308-0.216c0.684,0.057,1.42,0.237,1.963-0.526c0.143-0.2,0.738-0.182,1.095-0.11
		c2.117,0.43,4.226,0.903,6.338,1.363l-0.063-0.071c0.481,0.119,0.96,0.333,1.441,0.34c2.327,0.037,4.654,0.021,6.98,0.018
		c0.202-0.001,0.448,0.024,0.595-0.078c0.304-0.211,0.555-0.499,0.827-0.756c-0.287-0.236-0.572-0.473-0.861-0.708l0.01-0.012
		c1.145-1.503,2.326-1.91,3.205-0.816c1.463,1.816,3.338,2.276,5.477,2.304c0.618,0.008,1.256,0.172,1.854,0.074
		c2.543-0.42,4.981,0.035,7.316,0.943c1.469,0.57,2.826,0.632,4.182-0.093c0.873-0.467,1.704-0.604,2.684-0.392
		c0.682,0.146,1.428-0.045,2.135,0.019c0.803,0.072,1.648,0.159,2.028,1.081c-0.171,0.167-0.304,0.415-0.462,0.433
		c-1.514,0.174-3.066-0.048-4.548,0.46c-2.376-0.998-4.677,0.223-7.019,0.243c-0.51,0.004-1.02,0.162-1.527,0.151
		c-3.086-0.069-6.163-0.324-9.256-0.289c-3.301,0.037-6.604-0.055-9.906-0.127c-1.133-0.025-2.265-0.162-3.396-0.253
		c-0.102-0.008-0.221-0.1-0.299-0.069c-2.544,0.978-5.111,0.141-7.643-0.003c-3.793-0.217-7.551,0.239-11.326,0.213
		c-0.718-0.005-1.473-0.055-2.143-0.283c-1.236-0.42-2.479-0.406-3.677-0.086c-2.647,0.705-5.341,0.598-8.028,0.616
		c-2.383,0.017-4.748,0.065-7.135,0.328c-2.34,0.259-4.756-0.056-7.127-0.259c-1.342-0.116-2.578-0.343-3.928,0.273
		c-0.867,0.398-2.022,0.175-3.048,0.215c-3.612,0.139-7.226,0.299-10.841,0.398c-2.679,0.073-5.385,0.299-8.032,0.016
		c-1.977-0.211-3.84-0.01-5.772,0.139c-1.646,0.127-3.273,0.254-4.916,0.477c-1.509,0.205-3.122,0.137-4.611-0.18
		c-1.496-0.317-2.839-0.303-4.248,0.244c-1.484,0.579-2.894,0.741-4.443-0.202c-0.742-0.453-2.148-0.422-2.97-0.024
		c-2.883,1.396-5.868,0.932-9.068,0.964c0.526-0.417,1.14-0.669,1.17-0.977c0.068-0.705-0.546-1.18-1.184-1.152
		c-1.638,0.067-3.269,0.278-4.901,0.446c-0.061,0.006-0.107,0.158-0.17,0.258c-0.188,1.075,1.202,0.625,1.357,1.373
		c-0.094,0.166-0.182,0.469-0.285,0.475c-0.816,0.046-1.636,0.034-2.455,0.04l0.082,0.063c0.155-0.604-0.035-1.008-0.684-1.096
		c-1.937-0.263-3.88-0.483-5.811-0.783c-0.673-0.104-1.469-0.168-1.69-1.23c2.022-0.841,3.932-0.336,5.818,0.419
		c0.11,0.043,0.095,0.356,0.172,0.53c0.291,0.655,0.909,0.666,1.208,0.23c1.177-1.715,3.014-1.571,4.709-1.818
		c0.495-0.071,1.022,0.117,1.531,0.094c0.66-0.028,0.774-0.562,0.847-1.075c1.391,1.534,3.311,1.539,5.123,1.797
		c1.114,0.16,2.279,0.041,3.365,0.291c1.8,0.414,3.049-0.519,4.535-1.307c-0.488-0.792-1.146-0.95-1.702-0.964
		c-1.641-0.043-3.355-0.233-4.908,0.157c-2.181,0.547-4.27,0.293-6.405,0.06c-2.689-0.118-5.378-0.26-8.067-0.34
		c-0.921-0.027-1.88-0.033-2.76,0.189c-0.978,0.248-1.803,0.143-2.691-0.28c-1.725-0.819-3.462-1.598-4.774-3.064
		c0.62-1.128,2.596-0.104,2.524-2.089c-0.612-0.245-1.44-0.396-2.013-0.861c-0.528-0.431-0.746-1.227-1.17-1.811
		c-0.233-0.323-0.603-0.55-0.924-0.804c-0.805-0.635-1.616-1.26-2.413-1.879c1.021-1.765,1.039-1.861,0.055-3.037
		c-0.395-0.473-0.908-0.846-1.323-1.302c-0.808-0.889-1.064-2.021-0.237-2.815c1.901-1.831,2.452-4.197,3.102-6.567
		c0.135-0.488,0.416-0.937,0.68-1.514c-0.326-0.475-0.707-0.956-1.003-1.485c-0.198-0.355-0.496-0.88-0.369-1.156
		c0.951-2.08-0.36-3.968-0.381-5.943c-0.007-0.634,0.518-1.271,0.83-1.979c-0.256-1.289-1.699-0.847-2.541-1.582
		c-0.071-0.688-0.152-1.477-0.25-2.415c0.991-0.402,1.925-0.781,3.097-1.256c-0.023-0.554-0.225-1.276-0.036-1.876
		c0.204-0.646,0.775-1.175,1.301-1.917c-0.855-0.983-1.156-2.241-1.604-3.442C2.729,8.528,3.232,7.182,4.885,6.772
		C7.195,6.2,9.52,5.487,11.87,5.329c2.404-0.161,4.693-0.766,7.037-1.139c3.072-0.485,6.113-1.09,9.24-1.26
		c2.473-0.135,4.921-0.699,7.387-1.027c1.842-0.246,3.69-0.484,5.542-0.608c2.166-0.143,4.316-0.063,6.47-0.689
		c1.549-0.45,3.281-0.351,4.932-0.357c4.659-0.019,9.318,0.032,13.978,0.06c0.411,0.002,0.833,0.086,1.234,0.025
		c3.72-0.564,7.465-0.231,11.195-0.271c7.058-0.074,14.118-0.055,21.175,0.021c8.086,0.086,16.18-0.39,24.255,0.401
		c0.997,0.098,2.029-0.137,3.044-0.24c2.58-0.266,5.135,0.438,7.727,0.171c0.646-0.067,1.479,0.229,1.998,0.644
		c1.057,0.843,2.305,1.038,3.504,1.125c2.156,0.156,4.332,0.05,6.498,0.051c0.402,0,0.805-0.035,1.207-0.015
		c2.787,0.142,5.575,0.394,8.365,0.423c5.184,0.053,10.368-0.019,15.551-0.045c4.35-0.021,8.698-0.039,13.047-0.087
		c0.722-0.008,1.439-0.196,2.162-0.236c1.631-0.09,3.248-0.563,4.904-0.022c0.555,0.181,1.218,0.024,1.83,0.03
		c1.861,0.02,3.725,0.037,5.586,0.069c0.308,0.005,0.639,0.178,0.916,0.106c4.08-1.044,8.24-0.072,12.346-0.512
		c1.748-0.188,3.515-0.243,5.275-0.277c4.445-0.086,8.883-0.476,13.346-0.152c1.801,0.13,3.639-0.428,5.468-0.521
		c2.585-0.132,5.176-0.131,7.765-0.176c6.017-0.105,12.031-0.211,18.047-0.3c1.453-0.021,2.905,0.022,4.357,0.039
		c9.643,0.103,19.283,0.21,28.926,0.307c3.825,0.038,7.664-0.446,11.473,0.285c2.777-0.592,5.565-0.007,8.348-0.069
		c0.711-0.015,1.424,0.061,2.137,0.082c2.48,0.073,4.966,0.253,7.441,0.175c1.972-0.062,3.92-0.242,5.834,0.393
		c0.289,0.096,0.693,0.263,0.893,0.144c1.678-1.004,3.213-0.108,4.777,0.305c0.823,0.217,1.572,0.161,2.423-0.042
		c2.126-0.512,4.298-0.693,6.421,0.157c0.282,0.112,0.607,0.185,0.909,0.172c3.808-0.158,7.632,0.36,11.431-0.24
		c0.102-0.016,0.209-0.036,0.309-0.022c3.605,0.485,7.225-0.278,10.83,0.12c0.404,0.044,0.821,0.063,1.225,0.024
		c3.623-0.356,7.238-0.325,10.865-0.019c1.613,0.137,3.256-0.107,4.885-0.12c3.613-0.028,7.225-0.415,10.838,0.238
		c1.289,0.233,2.665-0.031,4.002-0.046c3.808-0.042,7.613-0.096,11.422-0.099c2.163-0.002,4.329,0.069,6.492,0.135
		c3.105,0.095,6.21,0.212,9.314,0.326c0.518,0.018,1.052-0.012,1.549,0.104c3.563,0.834,7.202,0.818,10.822,1.021
		c3.931,0.22,7.863,0.442,11.798,0.608c2.07,0.087,4.151,0.159,6.218,0.052c2.186-0.113,4.333-0.198,6.496,0.305
		c0.764,0.177,1.631-0.113,2.452-0.153c1.425-0.07,2.857,0.589,4.253,0.162c1.477-0.453,2.868,0.055,4.294,0.108
		c1.239,0.047,2.476,0.236,3.712,0.363l-0.043-0.051c-0.82,0.76-1.638,1.52-2.391,2.218c-2.369,0.008-4.571-0.248-6.768,0.782
		c-1.216,0.57-2.826,0.304-4.257,0.415c-1.72-1.127-3.647,0.42-5.39-0.42c-1.848,0.475-3.665-0.033-5.499-0.137
		c-1.855-0.104-3.724,0.002-5.584-0.059c-1.64-0.053-3.311,0.177-4.896-0.561c-0.434-0.203-1.021-0.095-1.537-0.096
		c-2.672-0.002-5.338-0.057-7.994-0.422c-0.692-0.096-1.54-0.115-2.118,0.198c-2.445,1.324-5.064,0.722-7.611,0.843
		c-0.46,0.021-0.931-0.378-1.413-0.526c-0.266-0.083-0.694-0.181-0.83-0.047c-0.614,0.601-1.337,0.61-2.026,0.375
		c-0.565-0.192-1.052-0.618-1.72-1.031c-0.421,0.392-0.828,0.771-1.224,1.138c0.233,0.306,0.331,0.571,0.473,0.598
		c1.7,0.316,3.348,0.771,5.157,0.396c1.72-0.354,3.531-0.178,5.191,0.506c0.822,0.338,1.562,0.393,2.392,0.133
		c0.483-0.151,1.048-0.313,1.512-0.203c2.653,0.629,5.302,0.093,8.021-0.046c0.342,0.561,0.652,1.073,0.967,1.587
		c0.184,0.09,0.362,0.25,0.549,0.258c4.645,0.205,9.249,0.948,13.938,0.675c3.184-0.187,6.397,0.169,9.598,0.297
		c0.398,0.016,0.837,0.029,1.183,0.197c1.646,0.794,3.394,0.843,5.153,0.77c1.125-0.046,2.251-0.327,3.364-0.271
		c1.107,0.058,2.195,0.438,3.301,0.614c0.714,0.115,1.463,0.251,2.165,0.154c4.059-0.558,8.054,0.146,12.07,0.493
		c0.504,0.044,1.018-0.003,1.527,0.002c1.007,0.011,2.012,0.028,3.365,0.048c-0.574,0.776-0.92,1.246-1.266,1.714L497.422,15.911z
		 M193.661,48.654c-0.429-0.309-0.572-0.503-0.711-0.499c-6.215,0.207-12.438-0.353-18.65,0.215
		c-0.617,0.057-1.24,0.035-1.861,0.039c-4.857,0.028-9.715,0.014-14.57,0.102c-1.752,0.032-3.483,0.274-5.248-0.069
		c-0.861-0.168-1.811,0.007-2.699,0.152c-0.334,0.055-0.812,0.431-0.862,0.722c-0.08,0.456,0.372,0.661,0.834,0.61
		c0.922-0.102,1.841-0.224,2.763-0.329c0.5-0.058,1.08-0.281,1.491-0.11c1.815,0.757,3.68,0.423,5.522,0.365
		c4.239-0.133,8.476-0.392,12.717-0.506c4.965-0.133,9.938,0.113,14.9-0.264C189.319,48.928,191.354,48.808,193.661,48.654z
		 M276.279,52.717c-0.274-0.335-0.374-0.581-0.534-0.632c-2.277-0.717-4.631-0.519-6.964-0.542
		c-0.258-0.003-0.614,0.249-0.752,0.484c-0.186,0.317-0.29,0.743-0.253,1.104c0.016,0.152,0.504,0.393,0.745,0.36
		C271.044,53.151,273.643,53.601,276.279,52.717z M39.441,60.081c0.563,0.883,1.364,0.902,2.179,0.725
		c2.818-0.614,5.639-0.944,8.52-0.408c0.405,0.075,1.022-0.188,0.714-0.949c-3.58,0-7.152-0.011-10.723,0.025
		C39.916,59.476,39.703,59.841,39.441,60.081z M290.058,52.017c3.322,1.459,3.478,1.412,4.905-1.398
		c-1.521-0.694-2.998-0.057-4.512-0.063C290.316,51.058,290.212,51.443,290.058,52.017z M288.071,52.822
		c-1.331-0.37-0.752-1.427-1.053-2.138c-1.968-0.266-1.968-0.266-2.833,0.355c-0.659,0.476-0.568,1.315,0.169,1.698
		C285.513,53.338,286.687,53.104,288.071,52.822z M53.024,55.64c-0.049,0.271-0.1,0.541-0.148,0.812
		c1.9-0.477,3.232,0.366,4.418,1.704c0.291-0.436,0.545-0.655,0.578-0.903c0.053-0.406-0.039-0.804,0.524-0.937
		c0.2-0.047,0.353-0.292,0.786-0.676C56.89,55.64,54.958,55.64,53.024,55.64z M7.622,53.047c1.207,0.028,2.228-0.32,3.266-0.961
		c-0.539-1.048-1.352-1.638-2.485-1.233C7.525,51.166,7.379,51.996,7.622,53.047z M145.862,49.923
		c-1.264-1.068-2.34-1.546-3.559-1.48c-0.33,0.02-0.738,0.653-0.906,1.086c-0.156,0.4,0.494,0.915,1.041,0.856
		C143.433,50.278,144.423,50.121,145.862,49.923z M92.192,51.609c0.906,0,1.813,0.035,2.713-0.031
		c0.178-0.013,0.479-0.445,0.448-0.638c-0.04-0.24-0.355-0.596-0.575-0.615C93.798,50.243,92.843,50.367,92.192,51.609z
		 M244.237,52.07c-1.623,0-2.574-0.016-3.522,0.022c-0.11,0.004-0.271,0.293-0.294,0.467c-0.023,0.164,0.051,0.447,0.171,0.513
		C241.837,53.743,242.819,53.267,244.237,52.07z M99.37,52.257c0.281-1.464-0.525-1.644-1.357-1.723
		c-0.527-0.051-1.272-0.342-1.254,0.77C97.565,51.598,98.394,51.9,99.37,52.257z M494.316,39.097
		c-1.311-1.066-1.311-1.066-2.784-0.488C492.596,38.795,493.456,38.946,494.316,39.097z M16.314,55.211
		c-1.165-0.56-1.667-0.618-2.074-0.229c-0.07,0.066-0.167,0.177-0.152,0.246c0.081,0.399,1.329,0.546,2.09,0.239
		C16.247,55.439,16.27,55.299,16.314,55.211z M107.612,51.51c-0.412-0.135-0.507-0.184-0.604-0.195
		c-0.458-0.053-0.978-0.358-1.283,0.273c-0.03,0.064,0.049,0.262,0.07,0.261c0.452-0.026,0.905-0.066,1.356-0.119
		C107.243,51.72,107.327,51.648,107.612,51.51z M262.765,51.962c0.071,0.232,0.074,0.35,0.133,0.415
		c0.46,0.495,1.193,0.638,1.533,0.271c0.105-0.111,0.125-0.503,0.094-0.514c-0.443-0.159-0.9-0.281-1.361-0.389
		C263.096,51.729,263.001,51.829,262.765,51.962z M414.391,8.437c-0.486-0.606-0.987-0.495-1.498-0.032
		C413.381,8.99,413.879,8.913,414.391,8.437z M112.495,50.769c-0.803-0.22-0.803-0.22-1.312,0.191
		C111.655,51.144,112.13,51.355,112.495,50.769z M281.055,51.679c0.132-0.235,0.294-0.438,0.345-0.663
		c0.019-0.081-0.227-0.224-0.351-0.338c-0.167,0.194-0.334,0.389-0.501,0.583C280.683,51.372,280.816,51.482,281.055,51.679z
		 M241.608,55.189c0.172-0.083,0.426-0.125,0.491-0.26c0.059-0.118-0.091-0.34-0.15-0.517c-0.173,0.083-0.424,0.126-0.495,0.263
		C241.395,54.789,241.548,55.014,241.608,55.189z M103.933,51.471l0.051-0.22l-0.217,0.1L103.933,51.471z M114.81,50.637
		c-0.172,0.078-0.345,0.156-0.518,0.235c0.055,0.076,0.105,0.215,0.166,0.218c0.186,0.011,0.375-0.027,0.563-0.048
		C114.95,50.907,114.881,50.772,114.81,50.637z M280.157,52.872c0.086,0.151,0.139,0.373,0.267,0.432
		c0.102,0.045,0.294-0.109,0.446-0.175c-0.115-0.192-0.231-0.383-0.348-0.573C280.4,52.661,280.278,52.766,280.157,52.872z
		 M121.204,58.163c-0.305-0.061-0.559-0.153-0.801-0.138c-0.111,0.009-0.205,0.237-0.307,0.365c0.243,0.086,0.482,0.212,0.73,0.234
		C120.916,58.634,121.026,58.389,121.204,58.163z M199.724,48.374c-0.803-0.133-1.068-0.177-1.334-0.222
		c0.002,0.146,0.004,0.29,0.006,0.435C198.66,48.544,198.925,48.503,199.724,48.374z M119.526,50.384
		c-0.051-0.071-0.103-0.144-0.154-0.215c-0.122,0.105-0.257,0.199-0.355,0.323c-0.023,0.028,0.077,0.156,0.121,0.239
		C119.268,50.614,119.397,50.5,119.526,50.384z M121.881,50.947l0.027-0.165l-0.224,0.055L121.881,50.947z M118.826,52.594
		c-0.069,0.041-0.14,0.081-0.209,0.123c0.044,0.057,0.114,0.167,0.124,0.161c0.109-0.057,0.207-0.132,0.309-0.203
		C118.974,52.648,118.9,52.621,118.826,52.594z M146.243,59.425c-0.078,0.021-0.157,0.042-0.236,0.062
		c0.02,0.068,0.031,0.191,0.057,0.195c0.075,0.007,0.155-0.032,0.234-0.053C146.278,59.561,146.262,59.493,146.243,59.425z
		 M322.993,52.666c-0.019,0.15-0.037,0.296-0.057,0.442c0.063-0.066,0.164-0.126,0.174-0.199
		C323.12,52.837,323.038,52.75,322.993,52.666z M236.448,54.044l0.247-0.107l-0.241-0.124L236.448,54.044z M327.794,54.521
		c-0.176-0.047-0.328-0.107-0.483-0.115c-0.055-0.002-0.116,0.128-0.174,0.197c0.14,0.083,0.272,0.204,0.423,0.229
		C327.616,54.843,327.711,54.637,327.794,54.521z M367.496,55.142c-0.065-0.023-0.139-0.049-0.212-0.074
		c-0.005,0.112-0.01,0.226-0.014,0.338c0.074-0.021,0.166-0.025,0.22-0.073C367.522,55.305,367.496,55.21,367.496,55.142z"/>
	<path fill-rule="evenodd" clip-rule="evenodd" d="M171.104,60.553c0.908-0.61,1.232-1.012,1.576-1.029
		c1.836-0.097,3.581-0.743,5.5-0.494c2.65,0.343,5.363,0.169,8.024,0.451c2.356,0.251,4.636,0.418,7.015-0.054
		c1.777-0.354,3.648,0.432,5.521,0.229c1.331-0.145,2.692-0.022,4.024-0.164c1.423-0.149,2.662,0.153,3.706,1.119
		c1.278-0.394,2.457-0.756,3.804-1.169c1.517,1.021,3.356,1.132,5.241,1.069c0.854-0.03,1.628-0.057,2.251-0.785
		c0.367-0.43,0.952-0.469,1.394-0.061c0.7,0.651,1.346-0.116,2.189,0.008c-0.472,0.589-0.885,1.104-1.32,1.648
		c-1.369,0.094-2.787,0.218-4.209,0.281c-0.723,0.033-1.486,0.092-2.17-0.093c-3.054-0.83-6.117-0.458-9.186-0.216
		c-0.305,0.022-0.619,0.034-0.92-0.008c-2.787-0.381-5.578-0.334-8.383-0.185c-2.376,0.128-4.748,0.18-7.139-0.193
		c-1.918-0.3-3.931,0.36-5.844-0.389c-2.199,0.94-4.506,0.113-6.748,0.402C174.206,61.08,172.977,60.931,171.104,60.553z"/>
	<path fill-rule="evenodd" clip-rule="evenodd" d="M177.197,55.72c0.922,0,1.843-0.005,2.765,0.001
		c3.109,0.021,6.225,0.173,9.324,0.016c1.428-0.072,2.741-0.352,4.211,0.13c0.983,0.321,2.234-0.115,3.352-0.291
		c0.92-0.145,1.832-0.368,2.727-0.628c1.228-0.354,2.229-0.08,3.031,0.913c1.088-0.279,2.172-0.58,3.266-0.83
		c0.389-0.089,0.888-0.217,1.197-0.058c2.396,1.238,4.644,0.344,6.892-0.388c0.948,0.399,1.847,0.955,2.815,1.135
		c0.947,0.176,1.965-0.032,3.154-0.081c-0.725,1.019-1.541,1.01-2.346,1.007c-4.973-0.009-9.955-0.232-14.912,0.039
		c-3.308,0.183-6.611-0.315-9.91,0.194c-1.41,0.22-2.857,0.01-4.297-0.09c-3.301-0.229-6.622-0.176-9.936-0.251
		c-0.473-0.011-0.945-0.098-1.418-0.149C177.14,56.165,177.169,55.942,177.197,55.72z"/>
	<path fill-rule="evenodd" clip-rule="evenodd" d="M328.679,52.16c0.367-0.812,0.567-1.257,0.844-1.865
		c1.625-0.173,3.303-0.7,5.054-0.012c0.429,0.169,0.979,0.065,1.47,0.028c0.803-0.061,1.601-0.171,2.727-0.295
		c-1.658,1.48-3.18,1.894-5.063,1.695C332.231,51.556,330.694,51.956,328.679,52.16z"/>
	<path fill-rule="evenodd" clip-rule="evenodd" d="M500.021,60.492c-2.037-0.184-4.068-0.425-6.107-0.532
		c-1.928-0.101-3.862-0.06-5.711-0.08c-0.432-1.168,0.354-1.368,0.869-1.328c2.85,0.217,5.697,0.494,8.531,0.854
		c0.889,0.113,1.738,0.541,2.605,0.824C500.146,60.317,500.083,60.405,500.021,60.492z"/>
	<path fill-rule="evenodd" clip-rule="evenodd" d="M224.628,60.547c3.314,0.034,6.58-0.437,9.857-0.464
		c-0.138,1.205-0.33,1.494-1.031,1.445c-2.789-0.2-5.578-0.416-8.365-0.647C224.927,60.866,224.78,60.662,224.628,60.547z"/>
	<path fill-rule="evenodd" clip-rule="evenodd" d="M18.111,64.006c0.303,0.411,0.607,0.822,1.039,1.409
		c0.412-0.132,0.846-0.296,1.292-0.409c0.817-0.208,1.655-0.248,2.337,0.317c0.359,0.297,0.686,0.735,0.821,1.174
		c0.131,0.422-0.723,0.893-1.472,0.67c-1.694-0.505-3.703-0.302-4.997-2.182c0.363-0.303,0.724-0.601,1.071-0.908
		C18.193,64.068,18.111,64.006,18.111,64.006z"/>
	<path fill-rule="evenodd" clip-rule="evenodd" d="M356.818,50.856c-1.938,0-3.874,0-6.061,0c1.036-0.76,1.036-0.766,1.926-0.764
		c0.726,0,1.452-0.01,2.176,0.031c0.681,0.038,1.356,0.138,2.036,0.21C356.869,50.507,356.844,50.682,356.818,50.856z"/>
	<path fill-rule="evenodd" clip-rule="evenodd" d="M159.808,56.596c2.512-1.533,4.294-0.646,6.207-0.315
		C164.127,57.77,162.31,56.591,159.808,56.596z"/>
	<path fill-rule="evenodd" clip-rule="evenodd" d="M517.61,25.328c-2.882,0-5.764,0-8.865,0c0.889-0.62,1.603-0.636,4.253-0.38
		c1.532,0.148,3.071,0.208,4.608,0.309C517.607,25.281,517.608,25.305,517.61,25.328z"/>
	<path fill-rule="evenodd" clip-rule="evenodd" d="M261.229,60.291c1.609-0.357,3.201-1.172,5.387-0.505
		C264.587,60.785,262.852,59.97,261.229,60.291z"/>
	<path fill-rule="evenodd" clip-rule="evenodd" d="M0.576,59.014c0.997-0.119,1.784-0.213,2.535-0.303
		c0.127,0.291,0.271,0.463,0.261,0.626c-0.042,0.65-0.264,1.303-0.964,1.414C1.459,60.898,0.875,60.366,0.576,59.014z"/>
	<path fill-rule="evenodd" clip-rule="evenodd" d="M386.625,52.337c-2.308,0.044-3.96,1.271-5.854,0.164
		C382.398,51.589,382.398,51.589,386.625,52.337z"/>
	<path fill-rule="evenodd" clip-rule="evenodd" d="M68.616,68.243c1.579,0,3.158,0,4.76,0c-0.035,0.654-0.508,0.551-0.83,0.445
		c-0.846-0.277-1.544-0.01-2.32,0.313c-0.461,0.189-1.1-0.053-1.657-0.101C68.585,68.681,68.601,68.462,68.616,68.243z"/>
	<path fill-rule="evenodd" clip-rule="evenodd" d="M238.208,60.238c2.171-0.378,3.563-0.049,5.082,0.056
		C242.347,61.143,241.239,61.156,238.208,60.238z"/>
	<path fill-rule="evenodd" clip-rule="evenodd" d="M507.351,22.974c2.066-0.461,4.169-0.413,6.269,0
		C511.53,22.974,509.439,22.974,507.351,22.974z"/>
	<path fill-rule="evenodd" clip-rule="evenodd" d="M155.454,56.395c0.736-0.81,1.565-0.652,2.367-0.52
		c0.154,0.026,0.273,0.268,0.408,0.41c-0.207,0.183-0.432,0.536-0.621,0.52C156.912,56.739,156.228,56.553,155.454,56.395z"/>
	<path fill-rule="evenodd" clip-rule="evenodd" d="M132.139,58.296c-0.158-0.371-0.315-0.742-0.567-1.333
		c0.432-0.352,0.915-0.809,1.469-1.155c0.174-0.109,0.742,0.029,0.771,0.145c0.092,0.358,0.166,0.921-0.035,1.113
		c-0.488,0.467-1.135,0.771-1.709,1.151C132.075,58.225,132.139,58.296,132.139,58.296z"/>
	<path fill-rule="evenodd" clip-rule="evenodd" d="M171.063,56.149c1.615-0.612,1.615-0.612,3.104,0.134
		C173.19,56.793,172.36,56.606,171.063,56.149z"/>
	<path fill-rule="evenodd" clip-rule="evenodd" d="M402.499,56.55c-0.187,0.06-0.379,0.182-0.56,0.169
		c-0.587-0.038-1.294,0.049-1.347-0.827c-0.01-0.152,0.177-0.395,0.333-0.466c0.672-0.312,1.188-0.057,1.523,0.56
		C402.532,56.138,402.486,56.36,402.499,56.55z"/>
	<path fill-rule="evenodd" clip-rule="evenodd" d="M53.466,68.209c1.201-0.085,2.402-0.168,3.604-0.252
		C55.912,68.628,54.673,68.199,53.466,68.209z"/>
	<path fill-rule="evenodd" clip-rule="evenodd" d="M344.138,50.506c-1.035,0.122-2.07,0.244-3.572,0.42
		c0.456-0.501,0.594-0.784,0.741-0.791c0.939-0.04,1.881-0.021,2.821-0.021C344.131,50.244,344.136,50.375,344.138,50.506z"/>
	<path fill-rule="evenodd" clip-rule="evenodd" d="M306.14,57.863c0.467-0.101,0.93-0.233,1.402-0.28
		c0.144-0.014,0.391,0.186,0.439,0.335c0.039,0.12-0.135,0.434-0.249,0.453c-0.481,0.081-0.976,0.083-1.465,0.114
		C306.225,58.278,306.183,58.07,306.14,57.863z"/>
	<path fill-rule="evenodd" clip-rule="evenodd" d="M314.272,57.624c0.838-0.115,1.676-0.231,2.547-0.352
		c-0.235,0.705-0.809,0.46-1.246,0.507c-0.43,0.046-0.868,0.01-1.303,0.01C314.271,57.733,314.272,57.679,314.272,57.624z"/>
	<path fill-rule="evenodd" clip-rule="evenodd" d="M480.044,5.334c1.169-0.29,2.334-0.496,3.612,0.074
		c-1.313,0.454-2.487,0.648-3.645-0.112C480.001,5.283,480.044,5.334,480.044,5.334z"/>
	<path fill-rule="evenodd" clip-rule="evenodd" d="M248.269,60.219c0.656,0,1.311,0,2.064,0c-0.887,0.899-0.887,0.899-2.045,0.012
		L248.269,60.219z"/>
	<path fill-rule="evenodd" clip-rule="evenodd" d="M222.505,55.76c0.791,0,1.583,0,2.375,0c-0.003,0.05-0.005,0.101-0.007,0.151
		c-0.792,0-1.583,0-2.376,0C222.5,55.86,222.502,55.81,222.505,55.76z"/>
	<path fill-rule="evenodd" clip-rule="evenodd" d="M21.782,68.935c1.061-0.123,2.116-0.597,3.487,0.022
		C23.913,69.46,22.846,69.123,21.782,68.935z"/>
	<path fill-rule="evenodd" clip-rule="evenodd" d="M62.459,68.337c0.22-0.076,0.318-0.148,0.398-0.132
		c0.354,0.075,0.706,0.175,1.054,0.278c0.008,0.002-0.033,0.245-0.055,0.245c-0.354,0.01-0.709,0.01-1.061-0.02
		C62.726,68.703,62.665,68.572,62.459,68.337z"/>
	<path fill-rule="evenodd" clip-rule="evenodd" d="M44.765,68.203c-0.286-0.204-0.487-0.273-0.552-0.407
		c-0.211-0.436,0.254-0.88,0.875-0.82c0.165,0.018,0.318,0.168,0.477,0.256C45.295,67.56,45.026,67.886,44.765,68.203z"/>
	<path fill-rule="evenodd" clip-rule="evenodd" d="M17.6,68.963c0.039-0.095,0.055-0.248,0.122-0.274
		c0.444-0.176,0.895-0.345,1.357-0.458c0.069-0.017,0.332,0.303,0.305,0.42c-0.161,0.697-0.761,0.504-1.23,0.521
		C17.971,69.177,17.785,69.037,17.6,68.963z"/>
	<path fill-rule="evenodd" clip-rule="evenodd" d="M295.026,58.965c0.367-0.823,0.92-0.683,1.378-0.705
		c0.134-0.007,0.365,0.206,0.394,0.35c0.023,0.12-0.176,0.403-0.29,0.409C296.054,59.046,295.595,58.993,295.026,58.965z"/>
	<path fill-rule="evenodd" clip-rule="evenodd" d="M413.789,56.98c-0.459,0.075-0.916,0.15-1.375,0.225
		c-0.029-0.087-0.058-0.175-0.087-0.262c0.456-0.136,0.91-0.271,1.365-0.407C413.725,56.685,413.757,56.833,413.789,56.98z"/>
	<path fill-rule="evenodd" clip-rule="evenodd" d="M503.336,47.671c0.495,0,0.989,0,1.481,0c-0.002,0.067-0.005,0.135-0.007,0.201
		c-0.494-0.027-0.987-0.054-1.482-0.08C503.333,47.752,503.335,47.712,503.336,47.671z"/>
	<path fill-rule="evenodd" clip-rule="evenodd" d="M520.659,23.514c-0.468,0.028-0.937,0.057-1.404,0.085
		c-0.003-0.086-0.006-0.17-0.008-0.255c0.47,0,0.94,0,1.41,0C520.658,23.4,520.658,23.457,520.659,23.514z"/>
	<path fill-rule="evenodd" clip-rule="evenodd" d="M169.413,56.264c-0.168,0.071-0.336,0.142-0.504,0.212
		c-0.031-0.16-0.085-0.319-0.082-0.479c0.002-0.048,0.213-0.151,0.24-0.128C169.198,55.98,169.302,56.128,169.413,56.264z"/>
	<path fill-rule="evenodd" clip-rule="evenodd" d="M148.005,56.214c-0.126,0.082-0.242,0.184-0.379,0.232
		c-0.054,0.02-0.221-0.101-0.216-0.115c0.046-0.136,0.12-0.262,0.186-0.389C147.731,56.032,147.866,56.122,148.005,56.214z"/>
	<path fill-rule="evenodd" clip-rule="evenodd" d="M33.339,66.631c0.171,0.053,0.343,0.104,0.513,0.156
		c-0.063,0.129-0.115,0.358-0.188,0.365c-0.181,0.019-0.371-0.068-0.557-0.111C33.184,66.905,33.261,66.768,33.339,66.631z"/>
	<path fill-rule="evenodd" clip-rule="evenodd" d="M285.129,59.284c-0.04,0.076-0.104,0.224-0.118,0.22
		c-0.151-0.054-0.298-0.129-0.445-0.198c0.04-0.077,0.105-0.226,0.117-0.222C284.837,59.138,284.981,59.213,285.129,59.284z"/>
	<path fill-rule="evenodd" clip-rule="evenodd" d="M500.825,14.59c0.284,0,0.567,0,0.851,0c0,0.034,0,0.069,0,0.104
		c-0.283,0-0.567,0-0.851,0C500.825,14.659,500.825,14.624,500.825,14.59z"/>
	<path fill-rule="evenodd" clip-rule="evenodd" d="M13.726,68.716c0.32-0.115,0.637-0.24,0.966-0.322
		c0.023-0.006,0.128,0.319,0.195,0.491c-0.354,0.065-0.708,0.13-1.062,0.195C13.792,68.958,13.759,68.837,13.726,68.716z"/>
	<path fill-rule="evenodd" clip-rule="evenodd" d="M115.618,67.516c0.312,0.071,0.621,0.143,0.932,0.214
		c-0.293,0.025-0.584,0.052-0.877,0.078C115.655,67.71,115.636,67.613,115.618,67.516z"/>
	<path fill-rule="evenodd" clip-rule="evenodd" d="M138.968,57.074c-0.182-0.047-0.389-0.051-0.533-0.15
		c-0.11-0.076-0.139-0.27-0.205-0.412c0.164,0.017,0.377-0.024,0.48,0.063c0.125,0.107,0.158,0.321,0.234,0.488L138.968,57.074z"/>
	<path fill-rule="evenodd" clip-rule="evenodd" d="M397.837,56.355c-0.01,0.086-0.006,0.239-0.032,0.244
		c-0.19,0.039-0.388,0.049-0.585,0.066c0.018-0.134,0.035-0.268,0.053-0.401C397.461,56.295,397.648,56.325,397.837,56.355z"/>
	<polygon fill-rule="evenodd" clip-rule="evenodd" points="404.827,57.024 405.098,57 405.051,57.102 	"/>
	<path fill-rule="evenodd" clip-rule="evenodd" d="M289.427,58.343c0.074,0.034,0.15,0.068,0.227,0.104
		c-0.1,0.06-0.196,0.135-0.307,0.166c-0.027,0.009-0.095-0.113-0.145-0.177C289.276,58.404,289.352,58.373,289.427,58.343z"/>
	<path fill-rule="evenodd" clip-rule="evenodd" d="M484.985,58.472c-0.121,0.099-0.233,0.217-0.37,0.283
		c-0.048,0.023-0.228-0.086-0.224-0.116c0.021-0.13,0.087-0.253,0.137-0.379C484.681,58.33,484.833,58.401,484.985,58.472z"/>
	<path fill-rule="evenodd" clip-rule="evenodd" d="M276.847,58.919c0.087,0.144,0.174,0.288,0.26,0.431
		c-0.173,0.046-0.342,0.108-0.517,0.123c-0.04,0.004-0.154-0.211-0.133-0.234C276.568,59.115,276.712,59.022,276.847,58.919z"/>
	<path fill-rule="evenodd" clip-rule="evenodd" d="M409.901,59.03c-0.099,0.001-0.195,0.001-0.294,0.001
		c0.019-0.053,0.03-0.147,0.057-0.15c0.095-0.014,0.195,0.001,0.292,0.004C409.938,58.935,409.92,58.982,409.901,59.03z"/>
	<path fill-rule="evenodd" clip-rule="evenodd" d="M133.108,67.405c-0.166-0.064-0.332-0.128-0.498-0.193
		c0.121-0.079,0.252-0.232,0.361-0.219c0.134,0.018,0.25,0.175,0.375,0.271C133.267,67.311,133.188,67.358,133.108,67.405z"/>
	<path fill-rule="evenodd" clip-rule="evenodd" d="M102.372,68.276c-0.193,0.037-0.388,0.075-0.582,0.113
		C101.984,68.352,102.179,68.313,102.372,68.276z"/>
	<path fill-rule="evenodd" clip-rule="evenodd" d="M524.147,31.332c0.088,0.034,0.174,0.069,0.262,0.104
		c-0.101,0.083-0.19,0.191-0.307,0.238c-0.064,0.024-0.171-0.056-0.258-0.089C523.945,31.5,524.047,31.416,524.147,31.332z"/>
	<path fill-rule="evenodd" clip-rule="evenodd" d="M80.378,55.81c-0.495,0.155-0.752,0.282-1.017,0.299
		c-0.13,0.008-0.271-0.189-0.407-0.295c0.152-0.099,0.307-0.281,0.456-0.278C79.659,55.541,79.905,55.667,80.378,55.81z"/>
	<path fill-rule="evenodd" clip-rule="evenodd" d="M250.738,53.272c-0.028-0.081-0.056-0.162-0.085-0.243
		c0.078-0.024,0.186-0.091,0.229-0.062c0.057,0.037,0.066,0.149,0.096,0.229C250.897,53.223,250.818,53.247,250.738,53.272z"/>
	<path fill-rule="evenodd" clip-rule="evenodd" d="M1.932,54.38c0.099,0.001,0.199,0.001,0.298,0.001
		c-0.05,0.126-0.1,0.252-0.151,0.379c-0.084-0.049-0.196-0.08-0.242-0.153C1.812,54.567,1.897,54.458,1.932,54.38z"/>
	<path fill-rule="evenodd" clip-rule="evenodd" d="M301.128,58.099c0.079,0.051,0.158,0.102,0.238,0.152
		c-0.052,0.069-0.139,0.203-0.15,0.197c-0.123-0.068-0.234-0.158-0.351-0.241C300.952,58.171,301.04,58.134,301.128,58.099z"/>
	<path fill-rule="evenodd" clip-rule="evenodd" d="M281.763,59.61c-0.167-0.196-0.334-0.393-0.503-0.59
		c0.083,0.016,0.216,0.002,0.243,0.048c0.097,0.17,0.158,0.358,0.232,0.54L281.763,59.61z"/>
	<path fill-rule="evenodd" clip-rule="evenodd" d="M413.965,58.845c0.083,0.043,0.166,0.086,0.251,0.129
		c-0.085,0.042-0.17,0.116-0.252,0.115c-0.085-0.002-0.169-0.078-0.252-0.122C413.796,58.927,413.881,58.885,413.965,58.845z"/>
	<path fill-rule="evenodd" clip-rule="evenodd" d="M252.57,60.102c0.085,0.03,0.171,0.06,0.258,0.089
		c-0.06,0.048-0.128,0.145-0.174,0.134c-0.122-0.027-0.231-0.1-0.347-0.156C252.396,60.146,252.481,60.124,252.57,60.102z"/>
	<path fill-rule="evenodd" clip-rule="evenodd" d="M257.529,60.282c0.078-0.03,0.157-0.062,0.235-0.093
		c0.006,0.13,0.012,0.259,0.016,0.389c-0.08-0.02-0.186-0.015-0.232-0.064C257.507,60.469,257.532,60.362,257.529,60.282z"/>
	<polygon fill-rule="evenodd" clip-rule="evenodd" points="487.816,5.833 487.951,5.701 487.987,5.861 	"/>
	<path fill-rule="evenodd" clip-rule="evenodd" d="M516.333,23.509c-0.07-0.043-0.139-0.088-0.207-0.132
		c0.08-0.029,0.163-0.088,0.24-0.08c0.076,0.008,0.145,0.084,0.216,0.13C516.498,23.454,516.415,23.482,516.333,23.509z"/>
	<polygon fill-rule="evenodd" clip-rule="evenodd" points="107.978,67.647 107.92,67.808 107.728,67.705 	"/>
	<path fill-rule="evenodd" clip-rule="evenodd" d="M82.392,68.467c0.137-0.102,0.277-0.286,0.389-0.27
		c0.117,0.017,0.221,0.218,0.297,0.357c0.015,0.028-0.152,0.213-0.186,0.2C82.724,68.687,82.571,68.577,82.392,68.467z"/>
	<path fill-rule="evenodd" clip-rule="evenodd" d="M86.808,68.239c-0.008,0.058-0.017,0.115-0.025,0.173
		c-0.078-0.063-0.156-0.126-0.234-0.188C86.636,68.229,86.722,68.233,86.808,68.239z"/>
	<path fill-rule="evenodd" clip-rule="evenodd" d="M27.113,69.347c-0.077,0.037-0.154,0.075-0.231,0.112
		c-0.055-0.154-0.117-0.306-0.155-0.464c-0.004-0.017,0.14-0.067,0.215-0.101C26.999,69.046,27.056,69.195,27.113,69.347z"/>
	<path fill-rule="evenodd" clip-rule="evenodd" d="M497.403,15.875c0.098,0.009,0.193,0.019,0.291,0.027
		c-0.09,0.001-0.18,0.003-0.272,0.006C497.422,15.911,497.403,15.875,497.403,15.875z"/>
	<path fill-rule="evenodd" clip-rule="evenodd" d="M362.122,51.999c0.021,0.058,0.042,0.115,0.063,0.173
		c-0.071,0.021-0.145,0.059-0.213,0.052c-0.027-0.002-0.044-0.104-0.066-0.161C361.978,52.04,362.05,52.02,362.122,51.999z"/>
	<path fill-rule="evenodd" clip-rule="evenodd" d="M281.735,59.608c0.191-0.075,0.384-0.15,0.575-0.226
		c-0.075,0.044-0.147,0.095-0.228,0.126c-0.095,0.039-0.196,0.059-0.307,0.095C281.763,59.61,281.735,59.608,281.735,59.608z"/>
	<path fill-rule="evenodd" clip-rule="evenodd" d="M248.288,60.23c-0.199,0.009-0.4,0.02-0.599,0.028
		c0.188-0.014,0.38-0.026,0.574-0.04C248.269,60.219,248.288,60.23,248.288,60.23z"/>
	<polygon fill-rule="evenodd" clip-rule="evenodd" points="275.129,60.11 275.334,60.045 275.296,60.233 	"/>
	<path fill-rule="evenodd" clip-rule="evenodd" d="M189.988,53.126c-0.153,0.088-0.307,0.176-0.46,0.266
		c0.173-0.067,0.346-0.134,0.521-0.195C190.056,53.202,189.988,53.126,189.988,53.126z"/>
	<path fill-rule="evenodd" clip-rule="evenodd" d="M385.312,53.371c-0.175,0.05-0.266,0.094-0.353,0.088
		c-0.027-0.002-0.046-0.137-0.069-0.212C385.006,53.282,385.124,53.316,385.312,53.371z"/>
	<polygon fill-rule="evenodd" clip-rule="evenodd" points="279.257,59.27 279.499,59.275 279.378,59.523 	"/>
	<path fill-rule="evenodd" clip-rule="evenodd" d="M138.944,57.063c0.707-0.011,1.414-0.022,2.122-0.034
		c0.001-0.001-0.009,0.011-0.009,0.011c-0.688,0.009-1.377,0.02-2.079,0.032C138.968,57.074,138.944,57.063,138.944,57.063z"/>
	<polygon fill-rule="evenodd" clip-rule="evenodd" points="392.293,55.875 392.536,55.794 392.506,56.007 	"/>
</g>
</svg>
