<?xml version="1.0" encoding="utf-8"?>
<!-- Generator: Adobe Illustrator 16.0.0, SVG Export Plug-In . SVG Version: 6.00 Build 0)  -->
<!DOCTYPE svg PUBLIC "-//W3C//DTD SVG 1.1//EN" "http://www.w3.org/Graphics/SVG/1.1/DTD/svg11.dtd">
<svg version="1.1" id="圖層_1" xmlns="http://www.w3.org/2000/svg" xmlns:xlink="http://www.w3.org/1999/xlink" x="0px" y="0px"
	 width="382.678px" height="149.451px" viewBox="0 0 382.678 149.451" enable-background="new 0 0 382.678 149.451"
	 xml:space="preserve">
<g>
	<path fill="#FFFFFF" d="M294.271,70.998c-0.174,0.118-0.482,0.224-0.498,0.359c-0.078,0.717-0.09,1.44-0.094,2.164
		c0,0.08,0.188,0.198,0.311,0.238c0.352,0.115,0.496,0.326,0.199,0.588c-0.104,0.091-0.442,0.012-0.613-0.093
		c-0.166-0.103-0.271-0.323-0.371-0.51c-0.375-0.698-0.997-0.978-1.723-0.92c-0.758,0.063-1.519-0.003-2.178,0.513
		c-0.066,0.053-0.356-0.176-0.513-0.258c-0.25-1.031,1.157-1.457,0.879-2.284c-0.336-0.998,1.655-1.069,0.687-2.142
		c-0.483-0.077-0.531,0.399-0.789,0.617c-0.605,0.516-0.496,1.512-1.357,1.883c-0.374,0.16-0.242,0.629-0.143,1.002
		c0.201,0.762-0.205,1.186-0.967,1.666c-0.115-1.633-0.463-3.037,0.396-4.387c0.248-0.389,0.419-0.675,0.938-0.783
		c0.383-0.08,0.67-0.55,1.043-0.771c0.73-0.433,1.338-1.102,2.364-0.956c0.425,0.062,0.912-0.333,1.38-0.522
		c-0.248-0.661-0.662-0.242-0.938-0.349c-0.332-0.126-0.632-0.339-0.933-0.507c-1.271,0.832-2.514,1.68-3.8,2.46
		c-0.265,0.16-0.682,0.087-1.028,0.089c-0.445,0-0.724,0.244-0.576,0.589c0.238,0.558,1.195,1.166-0.17,1.539
		c-0.104,0.8-0.211,1.601-0.336,2.55c-0.358,0.195-0.826,0.397-1.231,0.686c-0.336,0.238-0.603,0.578-1.039,1.012
		c0.031-0.65,0.058-1.152,0.088-1.803c-1.476,0.68-0.521,1.959-1.042,2.86c-0.229,0-0.514,0.045-0.781-0.012
		c-0.203-0.043-0.483-0.354-0.554-0.305c-1.125,0.833-1.721,0.027-2.342-0.709c1.038,0.34,1.603,0.215,2.024-0.533
		c0.263-0.465,0.209-0.924-0.321-1.38c-0.658,0.679-0.647,1.814-1.695,1.938c-0.009,0.551-0.526,0.668-0.726,0.438
		c-0.619-0.726-1.329-0.979-2.141-0.555c0-1.77,0-3.288,0-4.841c0.698,0.109,0.504,0.598,0.543,0.883
		c0.06,0.419-0.064,0.861-0.07,1.294c-0.002,0.345,0.058,0.69,0.086,1.002c1.297,0.251,1.162-0.983,1.723-1.454
		c0.621-0.522,0.542-1.43,0.635-2.27c0.674,0.252-0.097,0.756,0.229,1.066c0.305,0.289,0.507,0.682,0.759,1.033
		c0.678-0.021,0.588-0.609,0.588-0.968c0-0.798-0.207-1.578,0.357-2.318c0.15-0.196,0.053-0.856-0.146-0.995
		c-0.936-0.65-1.171-1.789-1.884-2.581c-1.008,0.261-0.369,1.378-1.013,1.809c-0.619,0.065-0.161-0.62-0.661-0.724
		c0.042-0.012-0.15-0.004-0.167,0.053c-0.182,0.624-0.333,1.256-0.523,1.998c-0.732,0.066-1.506,0.137-2.353,0.215
		c-0.146,0.217-0.347,0.516-0.558,0.832c-0.838-0.348-0.05-1.066-0.359-1.529c-0.102-0.094-0.194-0.228-0.322-0.287
		c-0.865-0.398-0.917-0.349-1.279,0.681c-0.078,0.221-0.369,0.364-0.561,0.539c0.018-0.14,0.053-0.278,0.033-0.409
		c-0.012-0.097-0.092-0.186-0.144-0.275c-0.032,0.104-0.112,0.225-0.087,0.31c0.04,0.12,0.16,0.214,0.245,0.319
		c0.037,0.36,0.134,0.857-0.431,0.736c-0.424-0.092-0.894,0.063-1.174-0.051c-0.683-0.277-0.89,0.106-1.198,0.504
		c-0.071,0.092-0.272,0.082-0.414,0.117c-0.776-0.709,0.136-1.209,0.228-1.82c-0.219,0-0.435,0-0.809,0
		c-0.061,0.331-0.132,0.664-0.184,1c-0.043,0.277-0.06,0.56-0.1,0.947c-0.9-0.555-1.729-0.146-2.55-0.17
		c-0.208-0.528-0.366-1.104-1.2-1.244c-0.043,0.381-0.079,0.703-0.132,1.187c0.532,0,0.959,0,1.386,0
		c-0.101,0.435-0.165,0.888-0.729,0.987c-0.166,0.029-0.687-0.125-1.184-0.399c-0.302,0.251-0.578,0.64-0.927,0.718
		c-0.282,0.063-0.647-0.247-1.011-0.408c-0.146,0.133-0.316,0.268-0.467,0.423c-0.147,0.156-0.273,0.331-0.406,0.493
		c-0.729-0.633-0.729-0.633-1.184-1.9c-0.068,1.602-1.525,2.176-1.377,3.644c-0.621-0.034-1.094-0.058-1.599-0.085
		c-0.38-0.536-0.741-1.084-0.354-1.873c0.455-0.092,0.971-0.131,1.424-0.318c0.195-0.082,0.26-0.479,0.383-0.732
		c-0.245-0.105-0.51-0.327-0.73-0.291c-0.352,0.06-0.673,0.289-1.021,0.455c-0.153-0.303-0.313-0.613-0.555-1.09
		c-0.321,0.388-0.553,0.72-0.84,0.996c-0.382,0.371-0.611,0.299-1.328-0.422c-0.338,0.305-0.646,0.686-1.041,0.909
		c-0.367,0.208-0.83,0.249-1.371,0.396c-0.197,0.626-0.414,1.313-0.614,1.957c-0.945,0.785-2.535-0.538-3.091,0.966
		c-0.45-0.227-0.896-0.451-1.344-0.681c0.08-0.813,1.135-0.614,1.399-1.493c-0.745,0.262-1.385,0.477-2.013,0.725
		c-0.064,0.025-0.1,0.273-0.055,0.381c0.039,0.098,0.196,0.162,0.313,0.21c0.132,0.056,0.276,0.075,0.416,0.11
		c-0.024,0.199-0.052,0.398-0.075,0.597c-0.888-0.146-1.074,0.525-1.343,1.128c-0.048,0.107-0.231,0.152-0.367,0.234
		c-0.467-0.139-0.378-0.569-0.431-0.902c-0.059-0.365-0.016-0.745-0.084-1.105c-0.107-0.553-0.5-0.665-1.075-0.519
		c-0.06,0.957-0.121,1.938-0.183,2.921c-0.086,0.012-0.172,0.023-0.258,0.034c-0.218-0.747-0.432-1.493-0.648-2.242
		c-0.797,0.075-0.797,0.075-0.569,1.226c-0.241,0.527-0.971-0.055-1.261,0.597c-0.156,0.349-0.694,0.388-1.182,0.162
		c-0.572-0.266-1.064-0.077-1.158,0.367c-0.178,0.854-0.506,1.716,0.019,2.582c0.226,0.371,0.142,0.698-0.51,0.827
		c-0.104-0.975-0.21-1.938-0.324-2.998c-0.598,0.105-1.124,0.365-1.526,0.236c-0.771-0.244-0.729,0.668-1.235,0.699
		c-0.22,0.012-0.44,0.008-0.659,0.012l0.066,0.088c-0.101-0.277-0.258-0.529-0.586-0.389c-0.138,0.061-0.231,0.299-0.275,0.475
		c-0.064,0.268-0.068,0.55-0.1,0.826l0.017-0.049c-0.618-0.037-1.226,0.67-1.868,0.009c-0.113-0.114-0.434-0.122-0.613-0.058
		c-0.822,0.287-1.588,0.723-2.504,0.742c-0.174,0.002-0.337,0.438-0.513,0.682c-0.28-0.182-0.56-0.365-0.976-0.639
		c-0.256,0.815-0.489,1.559-0.742,2.366c-1.539-0.31-0.815-1.782-1.479-2.438c-0.831,0.816,0.099,2.398-1.407,3.143
		c-0.108-0.609-0.193-1.076-0.316-1.75c-0.291,0.242-0.6,0.369-0.646,0.559c-0.102,0.416-0.07,0.863-0.099,1.391
		c-0.465,0.384-0.974,0.803-1.454,1.197c-0.633-0.041-1.247-0.502-1.688,0.397c-0.196,0.396-0.928,0.093-0.946-0.401
		c-0.017-0.434,0.067-0.871,0.11-1.314c0.563-0.291,1.082-0.561,1.599-0.836c0.169-0.813,0.338-1.617,0.563-2.688
		c-1.146,0.938-0.846,1.824-0.563,2.706c-0.636-0.288-1.271-0.577-1.963-0.894c-0.75,0.74-1.539,1.516-2.326,2.293l0.053,0.054
		c-0.259-1.468,0.003-2.788,1.241-3.749c-0.292-0.604-0.511-1.059-0.742-1.539c-0.552,0.131-1.148,0.148-1.438,0.73
		c-0.129,0.262-0.127,0.423-0.559,0.455c-1.273,0.094-2.104,0.996-1.941,2.363c0.932,0.219,1.642-0.945,2.742-0.384
		c-0.162,0.3-0.254,0.687-0.5,0.871c-0.363,0.274-0.56,0.631-0.287,0.916c0.436,0.455,0.256,0.744-0.063,1.09
		c-0.271,0.298,0.016,0.498,0.104,0.757c0.199,0.588-0.213,0.555-0.613,0.514c-0.521-0.875,0.104-2.08-0.807-2.83
		c-0.096-0.078-0.281-0.043-0.496-0.067c-0.602,0.915-0.311,1.913-0.09,2.88c-0.367,0.155-0.631,0.268-1.031,0.436
		c-0.491-1.473-0.008-3.065-0.764-4.422c-0.324-0.102-0.613-0.018-0.509,0.379c0.386,1.437,0.405,1.438-0.745,1.92
		c-0.137,0.058-0.277,0.101-0.408,0.164c-1.754,0.854-1.754,0.854-1.211,2.771c-0.121,0.143-0.23,0.354-0.404,0.458
		c-0.234,0.142-0.596,0.354-0.766,0.269c-0.399-0.207-0.279-0.479-0.02-0.86c0.41-0.604-0.305-1.16-0.126-1.776
		c-1.004-0.017-0.736,1.811-2.058,0.961c-0.264,0.592-0.496,1.114-0.731,1.645c-0.481,0.105-0.697-0.039-0.547-0.566
		c0.228-0.607,0.461-1.199,0.69-1.779c-0.549-0.312-0.854-0.065-0.873,0.317c-0.026,0.497,0.129,1.005,0.205,1.507
		c-0.623-0.185-1.207-0.09-1.633,0.404c-1.082,1.254-2.597,1.877-3.958,2.704c-0.848,0.515-1.86,0.817-2.838,1.034
		c-0.603,0.134-1.281-0.072-2.049-0.137c-1.302,1.522-3.055,2.537-5.046,3.096c-0.965,0.27-1.997,0.482-2.98,0.422
		c-0.556-0.034-1.073-0.678-1.656-1.08c-0.602,0.373-1.252,0.83-1.955,1.189c-0.352,0.182-0.674,0.332-0.72,0.746
		c-0.126,1.133-1.073,1.424-1.883,1.822c-0.648,0.32-1.345,0.54-2.021,0.805c-0.84-0.582-1.094,0.498-1.699,0.602
		c-0.868,0.15-1.723,0.396-2.595,0.51c-1.121,0.148-2.337-0.125-3.247,0.846c-0.086,0.094-0.288,0.158-0.408,0.127
		c-1.408-0.375-2.537,0.569-3.814,0.801c-1.303,0.236-2.64,0.428-3.869,0.886c-1.664,0.619-3.313,1.248-5.066,1.563
		c-0.357,0.063-0.711,0.219-1.067,0.222c-1.635,0.013-3.19,0.302-4.643,1.097c-0.242,0.131-0.593,0.049-0.862,0.15
		c-1.164,0.435-2.38,0.748-3.271,1.748c-0.699,0.785-0.806,0.738-1.89-0.061c-0.437-0.324-1.073-0.111-1.132,0.479
		c-0.041,0.416-0.01,0.773-0.504,0.695c-0.221-0.035-0.39-0.391-0.684-0.711c-0.467,0.229-1.028,0.405-1.477,0.738
		c-0.553,0.411-0.896,0.979-0.42,1.691l0.002-0.012c0.051,0.279,0.242,0.67,0.126,0.818c-0.255,0.324-0.727,0.792-1.004,0.73
		c-1.071-0.237-1.612,0.518-2.259,1.035c-0.642,0.514-1.379,0.664-2.183,0.574c0.081,0.879,0.139,1.499,0.198,2.163
		c-0.488,0-0.841,0-1.125,0c-0.476,0.3,0.006,1.388-1.042,1.076c-0.084-0.024-0.289,0.278-0.407,0.454
		c-0.32,0.468-0.624,0.951-0.944,1.443c-0.171-0.138-0.328-0.199-0.358-0.299c-0.113-0.377-0.289-0.763-0.709-0.724
		c-0.551,0.05-0.604,0.55-0.648,1.004c-0.028,0.274-0.079,0.547-0.145,0.992c-1.088-1.265-2.264-1.009-3.397-0.517
		c-0.797,0.348-1.471,0.967-2.441,0.864c-0.126-0.013-0.366,0.39-0.431,0.63c-0.137,0.508-0.433,0.512-0.869,0.363
		c0.018-0.732,0.371-1.46,0.226-2.579c-0.36,0.576-0.529,0.847-0.717,1.146c-0.297-0.149-0.597-0.299-0.884-0.443
		c-0.131,0.115-0.309,0.195-0.321,0.296c-0.052,0.438-0.017,0.89-0.097,1.319c-0.03,0.166-0.284,0.287-0.419,0.416
		c-0.644-0.215-0.26-0.799-0.522-1.176c-0.808,0.658-2.01,0.729-2.576,1.758c-1.162,0.298-2.149,0.918-3.068,1.666
		c-1.413-0.215-2.268,0.74-3.205,1.525c-1.437-0.533-1.958,0.959-2.972,1.422c-0.265-0.199-0.489-0.367-0.84-0.631
		c-0.834,0.918-2.146,1.315-2.899,2.352c-0.715,0.98-2.037,0.681-2.761,1.529c-1.055-0.394-1.561,0.568-2.313,0.926
		c-0.244,0.115-0.526,0.154-0.803,0.232c-0.135-0.035-0.259-0.072-0.383-0.113c0.146,0.045,0.291,0.088,0.436,0.131
		c-0.287,0.412-0.575,0.82-0.827,1.182c-0.975,0.436-1.899,0.249-2.856-0.012c0.227,0.808,0.187,1.396-0.561,1.77
		c-0.241,0.12-0.417,0.366-0.623,0.555l0.021-0.004c0-0.435,0-0.867,0-1.303c-0.537-0.096-1.063-0.189-1.718-0.309
		c-0.063,0.131-0.208,0.377-0.303,0.641c-0.223,0.617,0.514,1.404-0.171,1.868c-0.439,0.297-1.11,0.237-1.663,0.394
		c-0.259,0.072-0.48,0.277-0.713,0.418c-0.205-0.295-0.33-0.474-0.454-0.647c-0.764,0.438-1.53,0.881-2.452,1.411
		c-0.068,0.201-0.231,0.613-0.346,1.039c-0.206,0.763-0.54,1.361-1.409,1.535c-0.256,0.051-0.512,0.287-0.687,0.504
		c-0.342,0.424-0.693,0.4-1.173,0.252c-0.669-0.211-1.327-0.1-1.778,0.511c-0.397,0.534-0.769,0.008-1.149,0.012
		c-0.821,3.772-0.857,3.853-1.849,3.86c0.072-0.414,0.144-0.82,0.213-1.213c-0.179-0.077-0.361-0.221-0.426-0.178
		c-0.584,0.371-1.211,0.379-1.955,0.237c-0.068,0.38-0.129,0.724-0.191,1.07c0.202,0.065,0.345,0.169,0.434,0.134
		c0.261-0.104,0.49-0.288,0.752-0.379c0.075-0.025,0.302,0.146,0.32,0.25c0.033,0.191,0.02,0.544-0.073,0.58
		c-0.404,0.16-0.843,0.23-1.364,0.355c-0.197,0.28-0.438,0.642-0.7,0.983c-0.266,0.351-0.552,0.683-0.891,1.101
		c-1.044-0.238-2.108-0.438-3.149,0.07c-0.127-0.341-0.202-0.544-0.303-0.813c-0.292,0.525-0.57,1.027-1.018,1.834
		c-0.172-0.729-0.267-1.139-0.408-1.738c-0.734,1.355-0.002,3.061-1.596,4.08c-0.071-0.467-0.094-0.748-0.159-1.018
		c-0.168-0.703-0.905-1.018-1.257-0.465c-0.435,0.682-0.937,0.825-1.648,0.85c-0.65,0.023-1.298,0.186-2.043,0.301
		c-0.296-0.365-0.605-0.748-0.986-1.219c-0.275,0.332-0.538,0.648-0.812,0.979c-1.026-0.287-2.061-0.578-3.175-0.891
		c-0.059-0.469-0.122-0.971-0.187-1.477c-0.439-0.434-0.979-0.513-1.362-0.058c-0.476,0.562-1.077,0.255-1.658,0.421
		c0,0.506,0,1.018,0,1.398c-1.057,0.521-2.018,0.992-3.154,1.556c-0.198-0.011-0.329-0.868-0.818-0.462
		c-0.27,0.221-0.285,0.748-0.465,1.287c-1.022-0.711-2.187-1.147-2.919-2.182c-0.287-0.406-0.452-0.9-0.677-1.35
		c-0.128-0.255-0.271-0.725-0.395-0.721c-0.94,0.033-1.006-1.01-1.646-1.271c-0.814-0.335-1.283-0.908-1.621-1.701
		c-0.161-0.377-0.585-0.644-0.889-0.959c-0.298-0.311-0.598-0.617-0.985-1.021c0.34-0.318,0.628-0.527,0.84-0.795
		c0.361-0.457,0.072-1.321-0.469-1.442c-0.133-0.03-0.313,0.099-0.432,0.05c-0.701-0.275-1.433,0.135-2.102-0.068
		c-0.62-0.184-1.2-0.528-1.767-0.856c-0.303-0.175-0.67-0.413-0.78-0.711c-0.194-0.526-0.271-1.022-0.84-1.376
		c-0.387-0.238-0.575-0.799-0.856-1.223c0.156-0.475,0.488-0.461,0.875-0.316c0.865,0.326,1.596,0.807,1.837,1.664
		c0.822,0.432,1.851-0.082,2.322,0.866c0.021,0.043,0.335,0.024,0.38-0.048c0.105-0.174,0.24-0.44,0.175-0.586
		c-0.329-0.729-0.956-0.992-2.079-0.885c-0.507-0.732-1.268-1.445-1.537-2.309c-0.386-1.24-1.712-0.954-2.289-1.757
		c-0.134,0.168-0.267,0.336-0.44,0.553c-0.218-0.075-0.47-0.188-0.733-0.247c-0.354-0.078-0.687-0.095-0.914-0.49
		c-0.291-0.511-0.385,0.155-0.714,0.155c-0.122-0.437-0.255-0.905-0.438-1.553c-0.755,0.628-1.405,1.172-2.135,1.78
		c-0.177-0.229-0.377-0.43-0.511-0.668c-0.172-0.309-0.206-0.762-0.453-0.945c-0.47-0.348-0.518,0.404-0.79,0.445
		c-0.572,0.088-1.167,0.027-1.879,0.027c-0.122-0.543-0.246-1.096-0.39-1.732c-0.448-0.268-0.916-0.715-1.452-0.822
		c-1.104-0.225-1.43-0.918-1.48-1.895c-0.011-0.215-0.02-0.433-0.032-0.711c0.263-0.135,0.594-0.438,0.759-0.365
		c1.095,0.488,1.82,0.008,2.569-0.85c-0.231-0.443-0.457-0.88-0.683-1.313c0.2-0.454,0.488-0.711,1.034-0.614
		c0.316,0.054,0.649-0.128,0.584-0.466c-0.038-0.2-0.393-0.34-0.604-0.51c-0.058-0.047-0.11-0.1-0.164-0.149
		c0.405-0.878,1.413-0.291,1.885-0.728c0.586-0.541,1.292-0.228,1.991-0.598c-0.229-0.22-0.463-0.581-0.602-0.548
		c-0.797,0.188-1.47,0.026-2.118-0.451c-0.085-0.063-0.382,0.16-0.646,0.279c-0.605-0.894-1.205-1.78-1.795-2.649
		c-1.811-0.369-1.811-0.369-2.795-0.029c-0.104-1.094-0.896-1.494-1.883-1.777c-0.293,0.257-0.616,0.539-0.936,0.816
		c-0.11-0.09-0.192-0.155-0.273-0.222c0.521-0.509,0.356-1.006,0.088-1.6c-0.297-0.657-0.979-0.194-1.43-0.714
		c0.143-0.245,0.271-0.568,0.492-0.807c0.194-0.211,0.492-0.324,0.742-0.482c0.436-0.28,1.072-0.467,1.262-0.863
		c0.414-0.87,1.204-1.384,1.754-2.113c0.579-0.768,0.052-1.602,0.504-2.285c-0.095-1.697-0.095-1.697,0.386-2.502
		c-0.18-0.412-0.427-0.787-0.499-1.193c-0.107-0.598-0.367-0.918-0.986-0.992c-0.276-0.032-0.617-0.154-0.778-0.354
		c-0.206-0.258-0.457-0.756-0.345-0.945c0.493-0.826,0.058-1.691,0.341-2.401c-0.984-0.63-1.841-1.178-2.614-1.672
		c0.083-1.61,1.413-1.188,2.056-1.51c0.176-0.259,0.305-0.369,0.334-0.503c0.133-0.566,0.235-1.141,0.35-1.719
		c-1.175-0.02-1.98-0.242-2.231-0.602c-0.296-0.42-0.268-0.883,0.148-2.342c-0.537-0.34-1.098-0.605-1.2-1.4
		c-0.1-0.775-0.524-1.324-1.49-1.307c-0.681,0.014-0.969-1.252-1.885-0.473c-0.099-1.17-0.155-2.115-0.263-3.055
		C9.47,81.985,9.315,81.638,9.2,81.248c-0.418-0.151-0.843-0.47-1.222-0.42c-2.131,0.276-3.307-1.115-4.537-2.455
		c-0.233-0.255-0.527-0.456-0.852-0.729c0.121-0.588,0.16-1.264,0.406-1.854c0.244-0.58,0.697-1.072,1.15-1.74
		c-1.029-0.16-1.919-0.351-2.305-1.43c0.527-0.804,0.944-1.728,0.97-2.774c-0.921-0.262-0.921-0.262-2.266,0.056
		c0.309-1.216,0.309-1.216,2.208-2.403c0-0.802,0-1.665,0-2.495c-0.706-0.762-1.4,0.027-2.171-0.08
		C0.43,64.67,0.244,64.362,0,63.964c0.438-0.368,0.867-0.644,1.184-1.018c0.384-0.453,0.657-0.953,0.232-1.597
		c-0.413-0.63-0.505-1.328-0.356-2.115c0.103-0.543-0.106-1.146-0.188-1.827c0.485-0.271,0.976-0.544,1.505-0.839
		c-0.238-0.416-0.442-0.768-0.661-1.146c1.029-0.239,1.127-0.22,1.244,0.337c0.104,0.496,0.153,1.005,0.239,1.598
		C4.696,57.16,5.922,56.422,7,55.439c0.366-0.332,0.6-0.832,0.831-1.287c0.223-0.435,0.119-0.842-0.251-1.199
		c-0.302-0.29-0.556-0.633-0.798-0.914c0.31-0.658,0.832-0.357,1.245-0.49c0.148,0.314,0.233,0.692,0.462,0.938
		c0.686,0.734,1.761,0.469,2.043-0.496c0.404-1.384,0.862-2.729,2.043-3.678l-0.042,0.023c0.993,0.537,1.103,1.645,1.608,2.497
		c0.345,0.581,0.717,0.569,1.333-0.05c0.053-0.053,0.102-0.107,0.217-0.231c0.551,0.694,1.088,1.369,1.673,2.106
		c0.356-0.145,0.688-0.277,1.019-0.41c-0.152,0.31-0.495,0.629,0.092,1.014c-0.04-0.415-0.069-0.714-0.099-1.014
		c-1.006-1.229-0.976-1.244,0.303-2.145c0.292-0.205,0.367-0.721,0.591-1.201c0.362-0.264,0.747,0.797,1.262,0.17
		c0.025-0.031,0.372,0.139,0.51,0.275c0.439,0.438,0.854,0.902,1.276,1.36c0.686,0.747,0.681,0.743,1.674,0.342
		c0.338-0.137,0.696-0.338,1.038-0.329c1.221,0.034,2.323-0.428,3.382-0.879c2.182-0.929,4.483-1.528,6.656-2.438
		c1.413-0.592,2.85-1.096,4.279-1.63c1.385-0.519,2.795-0.971,4.187-1.471c5.574-2.005,11.192-3.876,16.878-5.541
		c1.418-0.415,2.818-0.88,4.236-1.287c0.774-0.223,1.566-0.379,2.398-0.46c-0.629,0.438-1.121,1.062-2.017,1.028
		c0.533,0.94,0.922,1.185,1.33,0.74c0.549-0.596,1.282-0.676,1.91-0.818c0.589-0.136,1.285,0.395,1.788-0.441
		c0.114-0.188,0.743-0.229,1.049-0.112c1.22,0.463,2.311,0.021,3.435-0.281c0.116-0.471,0.219-0.883,0.317-1.285
		c0.329,0.033,0.62,0.063,0.976,0.099c0.386-0.603,0.78-1.223,1.239-1.942c0.487-0.118,1.106-0.268,1.666-0.404
		c0.594,0.597-0.037,1.035-0.006,1.512c0.008,0.133,0.076,0.34,0.167,0.371c0.188,0.064,0.472,0.121,0.603,0.025
		c0.223-0.164,0.369-0.438,0.529-0.682c0.239-0.362,0.501-0.438,0.93-0.262c0.195,0.08,0.505-0.121,0.764-0.191
		c0.202-0.057,0.5-0.228,0.595-0.15c1.383,1.119,2.481,0.134,3.633-0.457c0.054-0.025,0.082-0.105,0.12-0.158
		c-0.32-0.823-0.973-0.178-1.449-0.324c0.621-0.734,0.626-0.718,2.357-1.256c0.836-0.26,1.647-0.596,2.552-0.928
		c0.341,0.451,0.725,0.961,1.155,1.533c7.479-0.998,14.734-2.964,22.003-4.484c0.575,0.641,1.044,1.164,1.55,1.728
		c0.943-0.552,1.173-1.694,2.148-2.004c0.521-1.21,1.543-1.194,2.656-1.112c0.24,0.533,0.473,1.045,0.762,1.686
		c0.809-0.49,1.119-1.199,1.473-1.881c0.224-0.431,0.246-0.416,1.281-0.539c0.379,1.478,0.379,1.478,2.07,2.427
		c0.355-0.231,0.762-0.525,1.195-0.771c0.233-0.133,0.559-0.32,0.765-0.25c0.988,0.333,1.495-0.239,1.997-0.918
		c0.24-0.325,0.541-0.607,0.828-0.922c0.729,0.506,0.037,1.264,0.604,1.734c0.457-0.354,1.034-0.648,1.379-1.113
		c0.324-0.434,0.403-1.051,0.63-1.699c0.364,0.044,0.747,0.092,1.431,0.176c-0.523,0.59-0.949,0.906-1.133,1.328
		c-0.156,0.355-0.033,0.832-0.033,1.224c0.591,0.183,0.656-0.215,0.863-0.513c0.496-0.713,0.808-0.626,1.316,0.352
		c0.185,0.014,0.41,0.084,0.607,0.035c0.493-0.123,0.973-0.303,1.426-0.448c0.057-0.637-0.263-1.233,0.472-1.632
		c0.465-0.256,0.671,0.135,1.099,0.155c0.176-0.222,0.389-0.491,0.613-0.776c0.275,0.057,0.56,0.117,0.951,0.199
		c0,0.462,0,0.932,0,1.547c0.435-0.063,0.807-0.051,1.12-0.176c0.89-0.355,1.804-0.646,2.754-0.54
		c0.785,0.089,1.079-0.716,1.685-0.763c-0.191-0.83-0.385-1.662-0.609-2.635c0.513-0.157,0.885-0.271,1.668-0.51
		c-0.432,0.718-0.641,1.066-0.883,1.467c0.01,0.053-0.006,0.219,0.068,0.313c0.081,0.102,0.269,0.107,0.373,0.199
		c0.392,0.342-0.221,1.409,0.791,1.249c0.683-0.109,0.344-0.866,0.512-1.314c0.071-0.192,0.248-0.345,0.385-0.525
		c0.107,0.148,0.193,0.259,0.269,0.376c0.142,0.221,0.255,0.616,0.418,0.639c0.555,0.07,0.463-0.418,0.517-0.766
		c0.021-0.141,0.078-0.279,0.12-0.426c0.976-0.264,0.355,0.996,1.169,1.063c0.164-0.369,0.354-0.792,0.542-1.214
		c0.102,0.069,0.235,0.12,0.301,0.216c0.552,0.797,1.462,0.894,1.576,0.125c0.163-1.094,1.437-1.233,1.58-2.262
		c0.023-0.168,0.703-0.457,0.903-0.352c0.629,0.329,0.9-0.416,1.398-0.342c0.229,1.194,0.228,1.194-0.795,1.707
		c-0.563,0.281-0.719,0.689-0.373,1.331c0.794,0.089,1.333-0.44,1.995-0.893c0.2-0.937,0.411-1.923,0.648-3.024
		c1.308,0.818,0.429,2.105,0.894,3.134c0.868-0.069,1.715-0.403,2.087-1.189c0.379-0.796,0.983-1.042,1.69-1.253
		c0.553-0.162,1.116-0.289,1.74-0.449c0.037,0.439,0.072,0.865,0.108,1.28c1.052,0.458,0.528-0.844,1.086-0.926
		c2.344,1.097,2.809,1.008,4.439-0.848c0.103,0.188,0.202,0.377,0.311,0.577c0.636-0.029,1.277-0.063,1.919-0.086
		c0.945-0.038,2.232-0.745,2.891-1.504c0.202-0.23,0.571-0.316,0.947-0.515c0.089,0.511,0.149,0.852,0.225,1.275
		c1.24,0.108,2.062-0.497,2.569-1.56c0.191-0.4,0.382-0.454,0.813-0.481c0.916-0.058,1.872-0.208,2.173-1.34
		c0.017-0.057,0.104-0.11,0.172-0.134c0.138-0.051,0.283-0.08,0.468-0.13c0.084,0.245,0.166,0.489,0.283,0.838
		c0.553-0.116,1.119-0.235,1.684-0.354l-0.061-0.068c-0.172,0.463-0.342,0.925-0.556,1.496c1.112-0.074,2.161-0.489,3.248-0.248
		c0.158,0.035,0.515-0.167,0.543-0.307c0.198-1.002,1.109-1.053,1.783-1.431c0.37-0.208,0.705-0.484,1.045-0.743
		c0.648-0.492,1.393-0.648,2.183-0.609c0.1,0.005,0.188,0.208,0.284,0.319l0.055-0.065c-0.43,0.431-0.922,0.696-1.54,0.806
		c-0.297,0.052-0.542,0.388-1.146,0.854c1.043,0.061,1.709,0.255,2.27,0.093c0.709-0.207,1.386-0.382,2.13-0.446
		c0.53-0.047,1.038-0.361,1.356-0.978c0.428-0.822,0.517-0.774,1.387-0.028c0.054,0.045,0.138,0.053,0.261,0.096
		c0.338-0.521,0.684-1.055,1.037-1.599c0.781,0.154,1.483,0.292,2.186,0.43c0.316,1.013,1.035,0.45,1.635,0.53
		c0.174-0.5,0.314-0.901,0.461-1.318c0.665-0.112,1.35-0.496,1.926-0.041c0.502,0.397,1.297-0.365,1.633,0.518
		c0.045,0.119,0.553,0.146,0.812,0.082c0.707-0.174,1.396-0.42,2.099-0.639c0.189,0.16,0.385,0.279,0.516,0.447
		c0.072,0.095,0.045,0.27,0.072,0.508c-0.91,0.156-1.84,0.282-2.752,0.483c-1.005,0.222-2.046,0.398-2.976,0.81
		c-0.74,0.328-1.417,0.724-2.412,0.462c0.043,0.702,0.072,1.175,0.113,1.814c0.562-0.186,0.952-0.374,1.36-0.429
		c0.342-0.045,0.724,0.162,1.051,0.091c0.361-0.078,0.494,0.075,0.725,0.276c0.189,0.164,0.581,0.304,0.779,0.218
		c1.011-0.441,2.074-0.651,3.125-0.946c0.941-0.264,1.801-0.812,2.359-1.791c0.127,0.297,0.242,0.436,0.221,0.548
		c-0.08,0.434-0.282,0.896,0.174,1.219c0.531,0.378,0.74-0.16,1.08-0.402c0.273-0.194,0.769-0.407,0.982-0.287
		c0.768,0.422,1.422,0.226,2.09-0.146c0.767-0.424,1.83,0.181,2.451-0.721c0.854-0.081,1.706-0.16,2.657-0.25
		c-0.274-0.402-0.47-0.686-0.657-0.96c0.356-0.907,0.778-0.31,1.273-0.017c0.625-0.4,1.273-0.861,1.968-1.246
		c0.789-0.436,1.004-1.18,1.056-1.925c0.916-0.392,1.672-0.322,2.405,0.056c0.038,0.728-0.661,0.464-1.017,0.86
		c-0.236,0.78-0.32,1.622,0.479,2.322c1.917-0.622,2.789-1.815,2.641-3.685c0.877-0.754,1.891-0.373,2.971-0.396
		c-0.368,1.318-1.578,0.23-2.268,1.324c-0.604,1.076,0.647,1.846,1.373,2.934c0.938-0.462,1.758-1.223,2.916-1.328
		c0.982-0.09,1.936-0.507,2.93-0.787c0.102-0.618,0.18-1.111,0.248-1.539c-0.516-0.549-1.021-0.722-1.66-0.5
		c-0.699,0.242-1.408,0.464-2.129,0.63c-0.285,0.065-0.58-0.075-0.54-0.571c0.137-0.063,0.307-0.195,0.489-0.215
		c1.096-0.116,2.172-0.321,3.229-0.627c0.498-0.144,1.024-0.393,1.509-0.338c1.758,0.198,3.346-0.428,4.991-0.82
		c0.549-0.131,1.149-0.057,1.728-0.04c0.088,0.003,0.215,0.202,0.236,0.325c0.021,0.118-0.033,0.34-0.113,0.373
		c-0.4,0.162-0.82,0.391-1.232,0.391c-2.012-0.003-3.895,0.533-5.738,1.16c-0.262,0.635-0.298,1.162,0.057,1.74
		c0.242,0.395,0.308,0.898,0.494,1.498c0.123-0.365,0.192-0.572,0.275-0.821c0.393-0.028,0.221,0.364,0.338,0.529
		c0.545,0.765,0.934,0.815,1.579,0.156c0.151-0.154,0.245-0.363,0.364-0.546c1.272,0.495,1.289,0.542,2.307,0.199
		c1.379-0.465,2.893-0.397,4.204-1.185c0.435-0.26,1.161,0.057,1.513-0.61c0.266-0.506,0.153-0.955,0.006-1.469
		c-0.104-0.365,0.154-0.686,0.614-0.71c0.353-0.017,0.708-0.093,1.054-0.062c0.529,0.049,1.055,0.167,1.768,0.287
		c-0.284,0.32-0.442,0.549-0.653,0.711c-0.084,0.063-0.288,0-0.426-0.04c-0.558-0.16-1.187-0.501-1.565,0.19
		c-0.287,0.517-0.029,1,0.832,2.017c0.651-0.19,1.313-0.786,2.157-0.483c0.149,0.053,0.452-0.322,0.937-0.689
		c0.207-0.02,0.58,0.786,1.232,0.392c0.653-0.394,0.854,0.306,1.229,0.589c0.203-0.209,0.398-0.414,0.628-0.656
		c0.309,0.138,0.633,0.283,1.087,0.485c1.066-1.065,2.378-1.761,4.07-1.668c0.131,0.529,0.248,1.001,0.412,1.655
		c0.473-0.295,0.871-0.464,1.166-0.746c0.516-0.494,0.765,0.002,1.217,0.303c0.326-0.428,0.658-0.859,1.039-1.357
		c0.426,0.07,0.856,0.143,1.289,0.211c-0.098,0.329-0.192,0.66-0.299,1.018c0.588,0.143,1.033,0.032,1.407-0.37
		c-0.306-0.369-0.542-0.867-1.172-0.587c1.012-1.109,2.362-1.363,3.758-1.477c0.945-0.076,1.894-0.105,2.984-0.162
		c0.127,0.217,0.34,0.586,0.588,1.011c0.153-0.192,0.29-0.345,0.405-0.513c0.558-0.794,1.244-0.849,2.134-0.555
		c0.44,0.146,0.724,0.627,1.396,0.438c0.527-0.147,1.226,0.437,1.715-0.337c0.09-0.142,0.42-0.241,0.601-0.199
		c1.149,0.278,2.153-0.371,3.241-0.494c0.671-0.077,1.379-0.26,1.955,0.002c0.789,0.355,1.445,0.057,2.129-0.121
		c0.828-0.216,1.625-0.545,2.437-0.814c0.136-0.045,0.388-0.093,0.421-0.039c0.656,1.087,1.603,0.18,2.396,0.312
		c0.817,0.138,1.7-0.126,2.558-0.204c1.012-0.092,2.02-0.214,3.032-0.24c0.606-0.016,1.358-0.377,1.748,0.475
		c0.946,0.022,1.898,0.128,2.835,0.043c0.725-0.067,1.469-0.287,2.126-0.602c0.499-0.24,0.901-0.279,1.437-0.18
		c0.384,0.072,0.896-0.068,1.23-0.294c1.02-0.686,1.885-0.935,2.969,0.017c0.694,0.609,1.543,0.164,2.111-0.5
		c1.24,0.725,2.448,1.179,3.783,0.369c0.293,0.464,0.52,0.822,0.728,1.15c0.922-0.347,1.8-0.785,2.729-0.994
		c0.79-0.176,1.334-0.534,1.687-1.283c0.354,1.018,1.226,0.767,1.903,0.937c0.954-0.685,1.823,0.646,2.771,0.116
		c0.695,0.76,1.572-0.211,2.301,0.241c1.522-0.781,3.187-0.161,4.813-0.479c0.509,0.907-0.785,2.51,1.147,2.945
		c1.701-1.32,3.658-1.809,5.909-1.158c0.027,0.611,0.059,1.242,0.085,1.875c0.082,0.013,0.163,0.025,0.244,0.041
		c0.125-0.291,0.249-0.583,0.373-0.873c1.214-0.221,2.322-0.1,3.249,0.85c0.163,0.168,0.555,0.115,0.856,0.166
		c-0.146,0.656-0.241,1.307,0.317,1.838c0.292,0.022,0.58,0.044,0.885,0.064c0.433-0.791,1.01-1.338,2.051-1.174
		c0.604,0.098,1.135-0.137,1.605-0.55c0.099-0.085,0.404,0.069,0.618,0.118c0.031,0.061,0.073,0.114,0.083,0.174
		c0.005,0.035-0.044,0.077-0.07,0.117c-0.004-0.115-0.004-0.232-0.008-0.346c0.17-0.105,0.454-0.179,0.495-0.32
		c0.203-0.711,0.326-1.443,0.521-2.156c0.046-0.166,0.261-0.286,0.438-0.468c0.565,0.517-0.296,1.666,1.075,1.79
		c0.496-0.529,0.266-1.701,1.2-2.037c0.301,0.404,0.593,0.802,0.946,1.28c0.651-0.606,1.063-0.989,1.45-1.349
		c1.011,0.436,1.941,0.837,2.774,1.195c0.881-0.5,1.568-0.895,1.41-1.93c-0.03-0.183,0.302-0.425,0.477-0.633
		c0.043-0.055,2.024-0.693,2.104-0.718c0.116-0.038,0.229-0.1,0.345-0.152c0.353,1.829,0.353,1.829-0.367,4.499
		c-1.018,0.463-1.079,0.6-0.542,1.318c0.164,0.219,0.375,0.405,0.564,0.607c0.129-0.054,0.268-0.097,0.387-0.166
		c0.124-0.07,0.233-0.17,0.371-0.272c1.139,0.171,1.055,1.479,1.894,2.054c0.126-0.45,0.24-0.87,0.311-1.114
		c0.383,0.276,0.813,0.587,1.312,0.946c-0.114,0.156-0.219,0.323-0.347,0.471c-0.378,0.438-0.405,1.14,0.012,1.252
		c0.87,0.234,1.705,0.463,2.154,1.346c0.172-0.113,0.344-0.229,0.518-0.343c0.209,0.565,1.401,0.288,1.115,1.31
		c-0.034,0.118,0.188,0.403,0.346,0.463c0.582,0.219,0.592,0.721,0.423,1.096c-0.521,1.158,0.189,2.098,0.472,3.098
		c0.188,0.677,0.753,1.077,1.491,1.153c0.366,0.036,0.731,0.083,1.146,0.13c0.2,0.361,0.354,1.012,0.639,1.079
		c0.929,0.215,0.282,0.802,0.403,1.188c1.442,1.507,1.442,1.507,3.143,1.795c0.905,1.23,1.345,2.552,0.604,4.072
		c-0.06,0.125-0.119,0.356-0.057,0.422c1.11,1.164-0.045,2.542,0.433,3.816c0.021,0.061,0.705-0.121,1.194-0.211
		c-0.158,0.738-0.206,1.409-0.456,1.991c-0.221,0.509-0.868,0.906-0.295,1.521c0.325,0.348,0.753,0.602,1.149,0.911
		c-1.222,0.358-2.123,1.036-2.392,2.369c-0.36,0-0.716,0-1.196,0c-0.087,0.966,0.017,1.86,0.688,2.634l0.034-0.015
		c-0.413,0.302-0.238,1.118-0.987,1.125c-0.079,0.582-0.101,1.181-0.253,1.744c-0.35,1.28-0.881,2.462-2.231,3.264
		c0.131,0.144,0.32,0.301,0.439,0.5c0.149,0.246,0.241,0.528,0.412,0.919c0.247-0.131,0.473-0.313,0.726-0.371
		c0.424-0.095,0.493,0.015,0.66,0.828c-0.484,0.048-1.154-0.085-1.405,0.181c-0.472,0.495-1.063-0.351-1.444,0.376
		c0.512,0.252,1.021,0.504,1.655,0.818c0.063,0.48,0.056,1.079,0.23,1.617c0.179,0.537,0.537,1.014,0.885,1.637
		c-0.329,0.338-0.723,0.662-1.012,1.063c-0.297,0.41-0.49,0.893-0.754,1.393c0.489,0.142,0.911,0.262,1.354,0.389
		c0.031,0.713,0.063,1.422,0.098,2.2c-1.043,0.813-1.322,2.451-2.863,2.677c-0.06,0.493-0.103,0.85-0.152,1.268
		c-0.653-0.063-1.329,0.009-1.884-0.218c-0.611-0.249-1.173-0.601-1.84-0.666c-0.503,1.442-0.482,2.044,0.121,3.546
		c-0.626,0.522-1.719,0.529-1.963,1.588c0.159,0.211,0.337,0.439,0.537,0.703c-0.239,0.491-0.488,1.002-0.747,1.527
		c0.21,0.557,0.414,1.096,0.616,1.633l-0.027-0.051c-0.074,0.657-0.147,1.313-0.226,1.972c-0.551,0.122-1.021,0.224-1.563,0.343
		c-0.443,0.846-0.912,1.734-1.388,2.637c-0.262-0.352-0.521-0.697-0.813-1.092c-1.764,0.418-0.917,1.955-1.367,2.998
		c-0.374-0.104-0.795-0.352-1.164-0.287c-0.4,0.068-0.987,0.35-1.089,0.67c-0.479,1.5-1.87,1.445-3.014,2.076
		c-0.065-0.342-0.093-0.531-0.14-0.713c-0.054-0.203-0.126-0.4-0.195-0.622c-0.135,0.116-0.279,0.181-0.313,0.28
		c-0.293,0.924-0.857,1.298-1.312,0.724c-0.614-0.78-1.638-0.002-2.111-0.813c-0.026-0.041-0.351-0.002-0.384,0.07
		c-0.428,0.934-1.273-0.293-1.837,0.4c-0.482,0.594-1.254,0.041-1.897,0.094c-0.963,0.08-1.922-0.07-2.701-0.785
		c-0.199-0.185-0.53-0.311-0.805-0.314c-0.88-0.016-1.507-0.538-2.113-1.008c-1.42,0.631-1.42,0.631-2.312-0.926
		c-1.069,0.074-0.56,1.021-0.839,1.527c-0.571,0.223-1.253-0.148-1.3-0.736c-0.028-0.367,0.074-0.75,0-1.101
		c-0.081-0.396-0.382-0.616-0.981-0.465c-0.098,0.413-0.134,0.931-0.353,1.356c-0.14,0.271-0.521,0.5-0.837,0.582
		c-0.438,0.113-0.676-0.256-0.757-0.629c-0.11-0.502-0.148-1.021-0.211-1.464c-0.669-0.18-1.279-0.342-1.896-0.506
		c-0.07-0.78-0.128-1.429-0.186-2.049c-1.223,0.25-2.345,0.519-3.479,0.696c-0.567,0.088-1.253,0.199-1.721-0.033
		c-0.721-0.358-1.345-0.421-2.091-0.205c-0.185,0.054-0.471-0.241-0.798-0.424c-0.2,0.431-0.377,0.808-0.552,1.181
		c-0.8,0.015-0.586-0.821-0.993-1.168c-0.108,0.25-0.214,0.491-0.32,0.733c-0.376-0.287-0.258-1.245-1.153-0.807
		c-0.603,0.293-0.314-0.502-0.639-0.563c-0.494-0.093-1.061-0.372-1.476-0.226c-1.144,0.401-2.168-0.188-3.231-0.28
		c-0.992-0.087-1.848-0.022-2.656,0.437c-0.681-0.413-1.267-0.853-1.923-1.137c-0.448-0.194-0.704-0.439-0.915-0.865
		c-0.049-0.1-0.644,0.154-0.9,0.045c-0.211-0.09-0.296-0.479-0.441-0.745c-0.501-0.009-0.468,0.388-0.607,0.718
		c-0.333,0.781-0.555,0.831-1.354,0.537c-0.339-0.123-0.684-0.266-1.035-0.304c-0.176-0.021-0.546,0.241-0.536,0.262
		c0.224,0.567-0.143,0.9-0.549,0.991c-0.301,0.065-0.679-0.194-1.018-0.322c-0.132-0.051-0.249-0.14-0.397-0.225
		c-0.17-0.543-0.347-1.105-0.537-1.719c0.342-0.542,0.691-1.104,1.04-1.66c-0.067-0.574-0.141-1.141-0.213-1.712
		c1.38-0.981,3.51-0.738,4.094-2.745c-1.227-0.553-2.102-0.602-2.554,0.256c-0.52,0.982-1.211,0.844-1.99,0.875
		c-0.204,0.009-0.401,0.166-0.681,0.289c-0.137,0.734-0.277,1.498-0.431,2.316c-0.89-0.068-1.646-0.125-2.622-0.199
		c-0.088-0.135-0.317-0.494-0.609-0.946c-0.146,0.399-0.264,0.722-0.395,1.079c-0.33,0-0.672,0-1.116,0
		c-0.105,0.787-0.207,1.555-0.324,2.43c-0.499-0.117-0.901-0.213-1.324-0.313c-0.227,0.267-0.447,0.532-0.676,0.798
		c-0.197-0.211-0.373-0.399-0.558-0.596c-0.15,0.215-0.268,0.385-0.456,0.656c-0.085-0.639-0.156-1.193-0.228-1.748
		c0.319-0.094,0.641-0.188,0.959-0.283c0.133-0.057,0.338-0.078,0.386-0.175c0.185-0.38,0.26-0.823,0.488-1.169
		c0.25-0.377,0.626-0.673,1.087-1.147c-0.723-0.06-1.224-0.101-1.867-0.153c-0.028,0.988-0.054,1.842-0.079,2.693
		c-0.486-0.435-0.333-1.307-1.247-1.744c0.134,0.816,0.232,1.426,0.332,2.035c-0.506,0.066-0.973,0.182-1.232,0.701
		c-0.179,0.361-0.412,0.695-0.621,1.037c-0.707-0.23-1.309-0.428-1.523-1.147c0.095-0.098,0.229-0.171,0.291-0.284
		c0.089-0.159,0.128-0.346,0.188-0.521c-0.183-0.047-0.396-0.178-0.543-0.123c-0.329,0.123-0.297,0.402-0.13,0.661
		C294.077,70.8,294.179,70.895,294.271,70.998z M220.063,75.797c-0.129-0.062-0.25-0.164-0.383-0.176
		c-0.164-0.017-0.336,0.039-0.498,0.077c-0.014,0.004-0.023,0.171,0.012,0.197c0.104,0.076,0.252,0.189,0.344,0.158
		c0.177-0.057,0.326-0.199,0.486-0.309c0.139-0.145,0.306-0.27,0.404-0.438c0.043-0.072-0.057-0.229-0.091-0.348
		c-0.097,0.067-0.269,0.122-0.28,0.202C220.021,75.369,220.058,75.588,220.063,75.797z M326.558,67.281
		c-0.208,0.018-0.418,0.025-0.624,0.063c-0.045,0.008-0.071,0.119-0.106,0.184c0.117,0.058,0.301,0.193,0.341,0.16
		c0.141-0.123,0.235-0.299,0.347-0.455c0.135,0.016,0.301,0.091,0.393,0.036c0.145-0.087,0.239-0.259,0.354-0.396
		c-0.18-0.033-0.399-0.144-0.525-0.076C326.621,66.855,326.613,67.112,326.558,67.281z M222.967,74.58
		c0.024-0.196,0.116-0.422,0.054-0.582c-0.063-0.15-0.289-0.23-0.444-0.344c-0.062,0.17-0.188,0.342-0.177,0.506
		c0.023,0.359,0.302,0.408,0.613,0.356c0.182,0.107,0.356,0.28,0.551,0.306c0.162,0.02,0.367-0.104,0.508-0.221
		c0.058-0.049,0.017-0.348-0.029-0.359c-0.175-0.049-0.387-0.08-0.551-0.021C223.297,74.289,223.14,74.455,222.967,74.58z
		 M82.301,76.655c-0.136,0.005-0.271,0.011-0.407,0.017c0.049,0.081,0.099,0.162,0.147,0.243c0.071-0.104,0.144-0.208,0.215-0.313
		c0.546,0.074,1.053,0.024,1.7-0.476C83.141,76.088,82.58,75.978,82.301,76.655z M311.848,69.454
		c-0.362,0.236-0.676,0.515-0.954,0.969c0.935,0.028,0.789-0.589,0.903-1.019c0.642-0.121,0.456-0.639,0.445-1.021
		c-0.011-0.408-0.202-0.688-0.703-0.389C311.643,68.481,311.744,68.967,311.848,69.454z M130.866,109.599
		c-0.25-0.123-0.584-0.41-0.735-0.336c-0.356,0.18-0.632,0.527-0.929,0.818c-0.035,0.033-0.021,0.188,0.01,0.205
		c0.188,0.091,0.469,0.277,0.568,0.212c0.41-0.274,0.768-0.632,1.141-0.957c0.037,0.261,0.064,0.521,0.125,0.772
		c0.006,0.017,0.314,0.026,0.375-0.047c0.121-0.149,0.167-0.358,0.244-0.543C131.398,109.683,131.133,109.642,130.866,109.599z
		 M69.455,73.154c-0.411-0.119-0.814-0.279-1.233-0.347c-0.438-0.071-0.582,0.405-0.286,1.114c0.499-0.274,0.988-0.542,1.478-0.813
		c0.766-0.176,1.551-0.326,1.833-1.275c-1.036-0.083-1.071-0.104-1.237,0.177C69.794,72.375,69.642,72.775,69.455,73.154z
		 M303.48,38.52l-0.015-0.047c-1.297-0.014-1.297-0.014-1.801,1.294c0.453,0.298,0.911,0.6,1.372,0.901
		c0.409-0.26,0.829-0.529,1.294-0.827c-0.087-0.401-0.147-0.827-0.294-1.224C304.005,38.528,303.676,38.55,303.48,38.52z
		 M196.128,84.03c0.114,0.402,0.229,0.808,0.325,1.146c0.78-0.221,1.547-0.439,2.472-0.701c-0.16-1.014,1.588-1.476,0.9-2.818
		c-0.518,0.121-1.031,0.244-1.543,0.363c-0.059-0.227-0.071-0.297-0.096-0.363c-0.069-0.188-0.146-0.371-0.22-0.559
		c-0.184,0.082-0.464,0.116-0.53,0.254c-0.153,0.318-0.203,0.688-0.305,1.064c-0.387-0.352-0.729-0.66-1.091-0.988
		c-0.99,1.579-0.985,1.633,0.144,2.631L196.128,84.03z M281.719,70.167l0.056,0.027c1.312,0.04,2.166-0.693,2.858-1.692
		c0.407-0.585,0.8-1.18,1.21-1.793c0.588-0.146,1.206-0.299,1.861-0.463c0.05-0.764,0.092-1.408,0.133-2.029
		c-2.355-0.717-2.355-0.717-3.328,1.664c-0.548,0.282-1.039,0.621-1.58,0.789c-0.525,0.162-1.104,0.148-1.611,0.207
		c-0.26,1.063-0.532,1.979-0.683,2.91c-0.05,0.301,0.149,0.719,0.373,0.956c0.121,0.131,0.525-0.002,0.804-0.015
		C281.78,70.541,281.75,70.354,281.719,70.167z M301.767,35.771l-0.01-0.012c-0.23,0.423-0.463,0.844-0.729,1.326
		c1.396,0.631,2.746-0.432,3.957,0.25c0.1,0.754-0.038,1.56,0.904,1.859c0.403-0.523,0.275-1.517,1.334-1.545
		c0.111,0.232,0.235,0.488,0.36,0.744c1.078,0.187,2.179,0.162,3.181-0.221c0.585-0.225,1.01-0.348,1.647-0.146
		c0.896,0.283,1.023,0.134,1.731-0.817c-0.32-0.065-0.67-0.259-0.863-0.158c-1.054,0.55-1.983,0.06-2.943-0.243
		c-0.838-0.266-1.693-0.484-2.511-0.801c-0.9-0.348-1.89,0.359-2.761-0.284c-0.098-0.073-0.384,0.117-0.584,0.175
		c-0.407,0.116-0.817,0.225-1.212,0.332c-0.211-0.473-0.372-0.838-0.54-1.218C302.342,35.318,302.054,35.545,301.767,35.771z
		 M222.065,72.447c0.34,0.154,0.646,0.393,0.971,0.42c0.641,0.051,0.963-0.939,1.77-0.618c0.043,0.017,0.326-0.597,0.521-0.9
		c0.064-0.101,0.209-0.151,0.32-0.226c0.129,0.396,0.256,0.795,0.389,1.2c0.624-0.096,1.131-0.146,1.625-0.26
		c0.201-0.046,0.367-0.235,0.559-0.345c1.047-0.601,1.35-1.193,1.023-2.33c-0.123-0.431-0.314-0.781-0.096-1.25
		c0.166-0.353-0.196-0.578-0.451-0.531c-0.211,0.039-0.469,0.339-0.523,0.568c-0.078,0.326,0.01,0.692,0.033,1.236
		c-1.354-0.299-2.445,0.311-3.625,0.475c-0.693,0.098-1.578,0.002-2.061,0.363c-0.728,0.542-1.521,0.455-2.263,0.657
		c-0.543,0.15-0.938,0.327-1.226,0.794c-0.368,0.602-0.483,1.193-0.038,1.814c0.914-0.055,1.778-0.107,2.591-0.156
		C221.76,73.027,221.892,72.779,222.065,72.447z M44.244,138.364c-0.337,0.382-0.529,0.695-0.806,0.888
		c-0.348,0.24-0.751,0.437-1.159,0.558c-0.819,0.24-1.474,0.707-2.221,1.285c0.896,0.368,1.616,0.663,2.262,0.93
		c0.255,0.599-0.441,1.283,0.417,1.697c0.529-0.293,1.088-0.851,1.656-0.854c0.877-0.011,1.224-0.574,1.71-1.046
		c0.896-0.877,0.907-1.112,0.132-2.293c-0.419,0.037-0.84,0.076-1.207,0.111C44.751,139.187,44.53,138.827,44.244,138.364z
		 M286.812,40.041c-2.047,0-3.695,0-5.295,0c-0.14,0.424-0.229,0.696-0.313,0.953c-3.31,0.083-5.652,0.621-7.167,1.698
		c1.584,0.093,3.027,0.026,4.434-0.37c0.693-0.195,1.249-0.448,2.075-0.188c0.953,0.299,2.077-0.025,2.968-0.561
		c0.725-0.435,1.432-0.693,2.268-0.75C286.038,40.807,286.272,40.465,286.812,40.041z M292.562,43.374
		c1.371-0.194,2.586-0.306,3.771-0.56c0.708-0.151,1.442-0.42,2.021-0.839c0.328-0.238,0.36-0.884,0.547-1.338
		c0.063-0.156,0.188-0.286,0.27-0.405c-0.299-0.268-0.514-0.459-0.751-0.67c-0.582,0.497-0.314,1.575-1.292,1.879
		c-0.057-0.449-0.109-0.871-0.163-1.286c-0.997,0.011-1.094-0.042-1.44,0.605c-0.438,0.822-1.047,1.073-1.965,1.021
		c0.17-0.447,0.31-0.818,0.496-1.313c-0.352,0.06-0.67,0.027-0.732,0.139C292.888,41.37,292.575,42.182,292.562,43.374z
		 M88.067,75.31c4.34-0.579,7.98-2.271,11.667-3.87c-0.721-0.195-1.389-0.11-2.097,0.051c-1.927,0.437-3.593,1.693-5.631,1.742
		c-1.083,0.662-2.312,0.877-3.516,1.178C88.347,74.447,88.287,74.822,88.067,75.31z M298.175,65.731
		c0.379-0.028,0.777,0.065,0.945-0.091c0.731-0.688,1.415-1.369,2.492-1.54c0.445-0.069,0.487-0.843,0.072-1.061
		c-0.496-0.262-1.045-0.425-1.658-0.665c-0.399,1.658-1.692,0.488-2.455,0.957C297.754,64.059,297.937,64.787,298.175,65.731z
		 M315.562,66.408c-0.152-0.639-0.248-1.188-0.427-1.709c-0.081-0.238-0.285-0.525-0.501-0.607
		c-0.436-0.162-0.959-0.099-1.162,0.359c-0.389,0.875-0.617,1.799-0.168,2.865C314.08,67.004,314.807,66.713,315.562,66.408z
		 M188.765,83.731c-0.424,1.447-0.424,1.447,0.763,2.168c0.603-0.559,1.048-1.313,2.128-1.272c0.77,0.026,1.133-0.985,0.823-1.981
		c-0.242,0.217-0.453,0.401-0.66,0.594c-0.215,0.199-0.411,0.421-0.638,0.602C190.264,84.576,190.081,84.569,188.765,83.731z
		 M196.981,16.289c0.416,0.908,1.506,0.678,2.153,1.2c0.062,0.051,0.642-0.326,0.618-0.419c-0.152-0.64,0.645-0.794,0.62-1.331
		c-0.599-0.745-0.86-0.915-1.354-0.708C198.294,15.336,197.494,15.538,196.981,16.289z M308.405,62.046
		c-0.767,0.612-1.772-0.222-2.041,0.481c-0.324,0.848-1.846-0.192-1.514,1.308c0.663,0.038,1.369,0.077,2.078,0.116
		c0.202-0.756,1.122-0.513,1.467-1.055C308.46,62.795,308.405,62.615,308.405,62.046z M182.866,18.563
		c0.084,0.584,0.147,1.232,0.287,1.863c0.037,0.167,0.327,0.41,0.472,0.391c0.25-0.031,0.587-0.184,0.694-0.387
		c0.36-0.683,0.637-1.411,0.939-2.109C184.301,17.69,184.301,17.69,182.866,18.563z M287.39,41.261
		c0.615,0.249,1.112,0.644,1.553,0.586c0.912-0.12,1.8-0.466,2.681-0.765c0.097-0.032,0.168-0.414,0.101-0.568
		c-0.063-0.144-0.34-0.296-0.498-0.276c-0.932,0.116-1.859,0.253-2.775,0.449C288.115,40.758,287.824,41.018,287.39,41.261z
		 M207.058,80.502c-0.812-0.571-1.396-0.212-2.041-0.024c-0.656,0.188-1.373,0.174-2.078,0.248c-0.023,0.104-0.103,0.246-0.08,0.373
		c0.05,0.278,0.147,0.551,0.22,0.803C204.588,81.89,205.634,81.526,207.058,80.502z M32.278,126.789
		c-0.469,0.086-0.938,0.172-1.311,0.239c-0.419-0.365,0.086-1.09-0.71-1.084c-0.134,0.311-0.188,0.744-0.431,0.934
		c-0.643,0.502-0.243,0.878,0.032,1.299C32.183,128.255,32.304,128.187,32.278,126.789z M216.499,77.367
		c0.436-1.245,0.436-1.245,0.006-2.465c-1.38,0.296-1.236,1.375-1.361,2.465C215.676,77.367,216.095,77.367,216.499,77.367z
		 M44.808,144.655c0.814,0.695,2.034,0.101,2.58,1.127c0.322-0.387,0.637-0.768,1.058-1.27c-0.334-0.223-0.789-0.584-0.831-0.543
		c-0.564,0.574-1.271-0.023-1.851,0.27C45.473,144.39,45.165,144.501,44.808,144.655z M215.46,71.848
		c-0.482,0.264-1,0.482-1.443,0.801c-0.492,0.352-0.559,0.948-0.524,1.494c0.012,0.188,0.362,0.355,0.612,0.574
		c0.433-0.746,0.434-1.664,1.5-1.777C216.071,72.889,216.017,72.436,215.46,71.848z M19.884,104.819
		c-0.342,0.195-0.654,0.267-0.691,0.41c-0.241,0.935,0.691,2.043,1.616,1.969c0.272-0.021,0.592-0.643,0.41-0.868
		C20.823,105.84,20.388,105.386,19.884,104.819z M18.305,111.739c0.425-0.283,0.762-0.51,1.181-0.791
		c-0.64-0.959-1.694-0.907-2.309-1.5c-0.648,0.406-0.674,0.886-0.248,1.316C17.279,111.12,17.749,111.354,18.305,111.739z
		 M90.785,67.288c1.014-0.825,2.331-1.072,3.364-2.182c-1.322-0.031-2.223,0.393-2.991,1.028
		C90.896,66.352,90.9,66.895,90.785,67.288z M242.728,67.737c1.154-0.542,1.914-1.194,2.672-1.922
		c-0.19-0.147-0.258-0.24-0.305-0.229c-0.641,0.121-1.277,0.257-1.902,0.387C243.051,66.51,242.916,67.018,242.728,67.737z
		 M63.434,78.101c-0.998-0.427-1.673,0.34-2.444,0.619c-0.12,0.043-0.093,0.495-0.16,0.926C61.896,79.242,63.1,79.521,63.434,78.101
		z M48.234,146.524c1.74-0.229,1.74-0.229,2.054-0.688c0.295-0.433,0.083-0.931-0.43-0.928c-0.274,0.001-0.63,0.063-0.798,0.241
		C48.779,145.451,48.617,145.862,48.234,146.524z M63.49,47.637c-1.279,0.988-1.279,0.988-0.554,2.915
		C63.546,49.32,63.554,49.32,63.49,47.637z M37.6,135.53c0.285,0.23,0.458,0.48,0.669,0.519c0.813,0.147,1.541-0.032,2.15-0.724
		C39.476,135.054,39.476,135.054,37.6,135.53z M294.913,68.534c0.104-0.473,0.25-0.884,0.264-1.298
		c0.012-0.231-0.144-0.606-0.322-0.678c-0.383-0.156-0.737,0.077-0.814,0.48c-0.091,0.473-0.072,0.966-0.104,1.495
		C294.362,68.534,294.642,68.534,294.913,68.534z M17.947,89.354c-0.06-0.58-0.423-1.026-0.757-1.467
		c-0.076-0.1-0.54-0.08-0.572-0.007c-0.189,0.445-0.308,0.923-0.439,1.39c-0.004,0.012,0.104,0.058,0.191,0.103
		c0.219-0.205,0.447-0.418,0.677-0.631C17.307,89.045,17.231,89.746,17.947,89.354z M272.804,42.029
		c-0.93,0.094-1.494,0.094-2.025,0.225c-0.375,0.093-0.519,0.422-0.25,0.867C271.248,43.063,272.051,43.272,272.804,42.029z
		 M181.752,21.113c0.129-1.235,0.062-1.699-0.546-3.004C181.284,19.382,180.396,20.373,181.752,21.113z M143.687,26.563
		c0.03,0.977,0.031,0.971,0.304,1.094c0.581,0.264,1.096,0.309,1.447-0.47C144.908,26.998,144.399,26.816,143.687,26.563z
		 M195.757,16.49c-1.789,0.727-1.789,0.727-1.84,1.402C194.651,17.676,195.69,17.958,195.757,16.49z M51.862,80.489
		c0-0.336,0-0.686,0-1.068c-0.565,0.135-1.052,0.221-1.516,0.37c-0.479,0.155-0.739,0.459-0.44,0.955
		C50.565,80.661,51.204,80.578,51.862,80.489z M46.06,82.604c0.629-0.231,1.109-0.408,1.59-0.584c0.404-0.148,0.65-0.57,0.416-0.779
		c-0.169-0.149-0.529-0.256-0.72-0.176c-0.387,0.16-0.754,0.422-1.051,0.722C46.138,81.944,46.147,82.269,46.06,82.604z
		 M257.129,40.033c1.044,0.422,1.672,0.498,2.214-0.018c0.131-0.125,0.207-0.433,0.146-0.593c-0.055-0.138-0.383-0.302-0.516-0.253
		C258.461,39.357,257.976,39.623,257.129,40.033z M293.047,63.223c-0.487,0.893-1.016,1.314-0.571,2.125
		c0.36-0.307,0.78-0.513,0.938-0.844C293.521,64.281,293.252,63.881,293.047,63.223z M18.81,113.892
		c0.231-0.988-0.326-1.184-0.758-1.385c-0.36-0.167-0.819-0.324-1.205,0.303C17.467,113.151,18.072,113.483,18.81,113.892z
		 M183.271,79.03c1.011,0.584,1.442,0.105,1.884-0.184c0.193-0.129,0.492-0.363,0.101-0.769
		C184.721,78.335,184.162,78.604,183.271,79.03z M176.12,85.729c-0.932,0.344-1.47,0.545-2.387,0.883
		c0.815,0.244,1.248,0.373,1.75,0.525C175.646,86.774,175.788,86.462,176.12,85.729z M236.506,69.37
		c0.244-0.015,0.57,0.044,0.625-0.051c0.206-0.363,0.423-0.772,0.442-1.173c0.013-0.277-0.277-0.807-0.453-0.816
		c-0.621-0.037-0.407,0.418-0.246,0.715C237.167,68.592,236.551,68.869,236.506,69.37z M56.475,76.858
		c-0.522,0.846-0.769,1.293-0.434,1.797c0.108,0.16,0.33,0.246,0.499,0.367c0.131-0.209,0.381-0.426,0.366-0.623
		C56.876,78.006,56.702,77.625,56.475,76.858z M295.522,64.279c-0.031,0.146-0.062,0.292-0.094,0.438
		c0.346,0.202,0.692,0.404,1.069,0.625c0.289-0.414,0.521-0.742,0.935-1.334C296.597,64.127,296.06,64.203,295.522,64.279z
		 M52.341,140.536c-0.783,0.367-1.025,0.841-0.822,1.443c0.036,0.109,0.172,0.244,0.278,0.262c0.106,0.017,0.322-0.086,0.336-0.164
		C52.225,141.567,52.276,141.05,52.341,140.536z M50.517,143.183c0.029-0.252,0.096-0.521,0.079-0.787
		c-0.013-0.188-0.142-0.367-0.292-0.728c-0.315,0.308-0.728,0.524-0.734,0.753C49.559,142.87,49.846,143.241,50.517,143.183z
		 M191.196,88.013c0.482-0.302,0.605-0.758,0.488-1.268c-0.03-0.133-0.28-0.217-0.43-0.321
		C190.877,86.989,190.675,87.489,191.196,88.013z M188.566,88.778c0.687-0.816,1.667-0.604,2.045-1.584
		c-0.667-0.158-0.803,0.406-1.145,0.545C189.138,87.873,188.56,87.554,188.566,88.778z M118.175,113.833
		c0.649-0.141,1.166-0.234,1.669-0.373c0.085-0.023,0.165-0.243,0.156-0.367c-0.007-0.105-0.205-0.299-0.21-0.296
		C119.315,113.131,118.483,112.862,118.175,113.833z M231.806,74.24c0.019,0.08,0.034,0.164,0.051,0.246
		c0.641-0.064,1.279-0.127,2.035-0.201c-0.172-0.336-0.307-0.666-0.338-0.656C232.963,73.808,232.386,74.029,231.806,74.24z
		 M296.834,36.632c-1.127-0.138-1.127-0.138-1.349,1.148C295.976,37.364,296.383,37.018,296.834,36.632z M300.424,41.732
		c0.276-0.711,0.864-1.104,0.393-1.751c-0.026-0.035-0.161-0.044-0.196-0.011C300.129,40.426,300.318,40.965,300.424,41.732z
		 M324.542,69.25c0.179-1.68,0.179-1.68-0.344-2.27C324.32,67.67,323.938,68.29,324.542,69.25z M74.758,47.342
		c0.811-0.437,1.184-0.64,1.581-0.854c-0.385-0.17-0.754-0.332-1.234-0.543C75.009,46.329,74.931,46.645,74.758,47.342z
		 M107.005,62.362c-0.418-0.31-0.663-0.571-0.962-0.691c-0.249-0.099-0.661,0.435-0.605,0.747c0.081,0.467,0.454,0.543,0.812,0.467
		C106.474,62.837,106.661,62.609,107.005,62.362z M187.08,19.856c-0.106-0.511,0.002-1.122-0.707-0.921
		c-0.175,0.049-0.382,0.49-0.337,0.703C186.136,20.12,186.541,20.031,187.08,19.856z M300.454,36.391
		c-0.241,0.932-0.671,1.49-0.513,2.256C300.925,38.43,300.925,38.43,300.454,36.391z M297.532,35.282
		c-0.875-0.021-1.338,0.091-1.738,0.567C296.515,36.27,296.963,36.068,297.532,35.282z M173.229,87.545
		c-0.051-0.121-0.102-0.241-0.151-0.362c-0.331,0.053-0.681,0.053-0.986,0.17c-0.33,0.129-0.44,0.771-0.168,0.891
		c0.193,0.082,0.517,0,0.723-0.115C172.874,87.996,173.037,87.744,173.229,87.545z M262.153,13.861
		c0.238-0.278,0.465-0.5,0.632-0.759c0.044-0.071-0.052-0.323-0.146-0.376c-0.388-0.221-0.672,0.039-0.92,0.295
		c-0.086,0.091-0.162,0.309-0.115,0.385C261.702,13.558,261.89,13.652,262.153,13.861z M194.062,83.121
		c-0.761,0.491-0.761,0.491-0.748,1.342C194.226,83.992,194.226,83.992,194.062,83.121z M48.912,133.478
		c0.739-0.22,0.822-0.688,0.708-1.235c-0.021-0.101-0.174-0.239-0.27-0.242c-0.113-0.005-0.316,0.108-0.329,0.192
		C48.958,132.604,48.946,133.021,48.912,133.478z M69.695,142.313c-0.18,0.092-0.251,0.11-0.299,0.154
		c-0.448,0.432-0.583,0.889-0.323,1.09c0.047,0.037,0.122,0.063,0.178,0.057c0.394-0.045,0.624-0.444,0.569-0.989
		C69.814,142.558,69.771,142.496,69.695,142.313z M71.212,141.94c0.196-0.119,0.292-0.144,0.309-0.192
		c0.081-0.25,0.143-0.506,0.211-0.759c-0.188-0.041-0.378-0.084-0.566-0.127c-0.049,0.265-0.107,0.527-0.145,0.791
		C71.013,141.708,71.096,141.772,71.212,141.94z M182.404,83.961c-0.915-0.153-1.085-0.032-1.267,0.937
		c-0.027,0.147,0.158,0.334,0.361,0.727C181.858,84.963,182.123,84.478,182.404,83.961z M82.099,133.71
		c-0.772,0.689-0.93,1.262-0.569,2.081C82.054,135.174,82.136,134.583,82.099,133.71z M82.982,69.396
		c0.332-0.529,0.931-0.787,0.325-1.404C82.851,68.279,82.5,68.584,82.982,69.396z M99.554,32.627c1.16,0.355,1.292,0.238,1.217-1.02
		C100.349,31.962,99.989,32.264,99.554,32.627z M107.79,31.918c0.084-0.349,0.169-0.652,0.214-0.963
		c0.004-0.033-0.239-0.158-0.355-0.143c-0.361,0.051-0.524,0.459-0.33,0.844C107.364,31.748,107.532,31.78,107.79,31.918z
		 M113.639,34.131c-0.624-0.855-0.672-0.854-1.422,0.104C112.754,34.196,113.165,34.166,113.639,34.131z M117.457,33.313
		c0.129-0.289,0.298-0.487,0.263-0.638c-0.032-0.142-0.282-0.233-0.436-0.347c-0.108,0.168-0.307,0.343-0.295,0.503
		C116.998,32.973,117.239,33.102,117.457,33.313z M121.698,30.884c-0.225,0.38-0.392,0.552-0.421,0.745
		c-0.027,0.184,0.062,0.406,0.163,0.576c0.038,0.066,0.314,0.095,0.358,0.04c0.161-0.201,0.345-0.437,0.372-0.676
		C122.188,31.414,121.949,31.23,121.698,30.884z M296.252,67.658c0.099,0.029,0.192,0.058,0.29,0.087
		c0.154-0.358,0.324-0.71,0.446-1.077c0.022-0.068-0.126-0.262-0.226-0.285c-0.106-0.027-0.343,0.055-0.355,0.123
		C296.327,66.885,296.299,67.273,296.252,67.658z M28.077,111.761c-0.042,0.063-0.094,0.112-0.108,0.17
		c-0.068,0.26-0.14,0.52-0.168,0.782c-0.003,0.037,0.229,0.099,0.354,0.149c0.019-0.26,0.055-0.518,0.054-0.776
		C28.206,111.979,28.125,111.873,28.077,111.761z M238.056,69.534c0.31,0.211,0.469,0.411,0.627,0.409
		c0.437-0.006,0.646-0.32,0.602-0.724c-0.018-0.149-0.354-0.409-0.395-0.384C238.618,69.006,238.392,69.24,238.056,69.534z
		 M282.243,64.797c-0.749-0.246-1.141,0.071-1.516,0.385c-0.063,0.054-0.049,0.29,0.015,0.385c0.058,0.086,0.28,0.17,0.347,0.127
		C281.438,65.455,281.761,65.18,282.243,64.797z M140.683,27.408c-0.136,0-0.271,0-0.406,0c-0.07,0.393-0.155,0.784-0.196,1.18
		c-0.007,0.066,0.185,0.211,0.283,0.213c0.106,0,0.298-0.123,0.305-0.201C140.7,28.203,140.683,27.805,140.683,27.408z
		 M103.356,63.055c0.117,0.238,0.151,0.441,0.239,0.468c0.39,0.114,0.49-0.192,0.538-0.473c0.021-0.118-0.094-0.259-0.146-0.39
		C103.772,62.793,103.56,62.928,103.356,63.055z M107.454,34.008c-0.066,0.023-0.15,0.029-0.193,0.074
		c-0.233,0.246-0.48,0.5-0.239,0.875c0.026,0.04,0.117,0.066,0.167,0.055c0.469-0.117,0.398-0.475,0.351-0.816
		C107.529,34.129,107.483,34.069,107.454,34.008z M11.714,81.25c-0.115,0.015-0.227,0-0.247,0.036
		c-0.1,0.171-0.265,0.376-0.228,0.525c0.039,0.164,0.273,0.279,0.424,0.416c0.046-0.129,0.129-0.256,0.132-0.388
		C11.797,81.646,11.743,81.446,11.714,81.25z M117.774,30.131c0-0.654,0-1.002,0-1.382
		C117.404,29.078,117.114,29.385,117.774,30.131z M255.243,40.323c0.346,0.122,0.546,0.247,0.742,0.245
		c0.185-0.002,0.386-0.113,0.535-0.232c0.045-0.037-0.006-0.313-0.09-0.375c-0.152-0.114-0.402-0.251-0.539-0.197
		C255.67,39.854,255.504,40.086,255.243,40.323z M352.943,79.856c0.138,0.084,0.286,0.195,0.451,0.261
		c0.026,0.01,0.188-0.187,0.191-0.289c0.013-0.3-0.339-0.572-0.51-0.414C352.998,79.487,353,79.653,352.943,79.856z M254.692,66.25
		c-0.652,0.112-0.868,0.114-1.049,0.195c-0.084,0.037-0.099,0.225-0.144,0.346c0.104,0.031,0.235,0.117,0.31,0.082
		C253.991,66.787,254.147,66.645,254.692,66.25z M299.591,35.586c0.023,0.121,0.046,0.242,0.068,0.363
		c0.266-0.045,0.534-0.088,0.8-0.133c-0.049-0.121-0.102-0.351-0.148-0.35C300.069,35.475,299.832,35.541,299.591,35.586z
		 M300.799,67.904c0.063-0.009,0.169,0.004,0.187-0.029c0.148-0.296,0.294-0.598,0.405-0.91c0.014-0.037-0.188-0.228-0.257-0.211
		c-0.4,0.102-0.537,0.422-0.532,0.798C300.603,67.67,300.729,67.786,300.799,67.904z M291.621,69.877
		c0.142-0.807,0.446-1.287-0.067-1.809C291.134,68.57,291.131,69.023,291.621,69.877z M201.896,76.269
		c-0.035,0.062-0.082,0.117-0.102,0.182c-0.098,0.33-0.17,0.662,0.195,0.885c0.049,0.029,0.16,0.027,0.201-0.01
		c0.313-0.273,0.307-0.592,0.056-0.895C202.173,76.339,202.015,76.319,201.896,76.269z M304.073,67.836
		c0.312-0.449,0.793-0.752,0.301-1.519C304.006,66.82,303.728,67.186,304.073,67.836z M283.876,72.521
		c0.086-0.029,0.172-0.061,0.258-0.089c-0.056-0.304-0.088-0.614-0.179-0.905c-0.026-0.082-0.25-0.173-0.347-0.141
		c-0.096,0.029-0.231,0.242-0.201,0.311C283.533,71.985,283.716,72.249,283.876,72.521z M313.77,68.455
		c-0.428,0.488-0.436,0.913,0.035,1.465C314.229,69.35,314.352,68.923,313.77,68.455z M234.752,73.274
		c0.052,0.13,0.101,0.261,0.151,0.39c0.111-0.059,0.324-0.152,0.318-0.171c-0.063-0.185-0.164-0.358-0.254-0.533
		C234.896,73.063,234.823,73.169,234.752,73.274z M33.524,122.067c-0.124,0.291-0.216,0.445-0.242,0.611
		c-0.007,0.041,0.206,0.166,0.316,0.161c0.103-0.007,0.298-0.169,0.289-0.19C33.814,122.487,33.704,122.34,33.524,122.067z
		 M54.749,77.985c0.168,0.109,0.322,0.232,0.497,0.305c0.033,0.014,0.23-0.244,0.213-0.268c-0.119-0.149-0.275-0.272-0.421-0.401
		C54.959,77.722,54.88,77.819,54.749,77.985z M239.698,66.44c-0.139,0.255-0.258,0.468-0.365,0.688
		c-0.004,0.012,0.102,0.108,0.159,0.111c0.306,0.014,0.534-0.096,0.505-0.446C239.987,66.701,239.856,66.621,239.698,66.44z
		 M247.25,71.053c-0.108,0.063-0.272,0.104-0.312,0.194c-0.031,0.076,0.084,0.214,0.137,0.323c0.142-0.08,0.285-0.16,0.428-0.241
		C247.419,71.238,247.335,71.146,247.25,71.053z M252.462,67.178c0.203-0.248,0.424-0.398,0.424-0.55
		c0.002-0.14-0.236-0.278-0.367-0.418c-0.11,0.142-0.289,0.274-0.312,0.431C252.187,66.777,252.341,66.938,252.462,67.178z
		 M274.401,9.701c-0.088-0.181-0.133-0.369-0.191-0.373c-0.113-0.011-0.285,0.051-0.346,0.141c-0.051,0.074,0.023,0.232,0.044,0.354
		C274.065,9.783,274.226,9.744,274.401,9.701z M315.877,68.914c0.181-0.139,0.369-0.215,0.376-0.305
		c0.013-0.193-0.066-0.393-0.107-0.59c-0.105,0.083-0.279,0.152-0.302,0.251C315.807,68.459,315.857,68.664,315.877,68.914z
		 M308.854,68.406c0.16,0.24,0.313,0.471,0.477,0.695c0.017,0.02,0.145,0,0.156-0.027c0.056-0.128,0.155-0.289,0.119-0.395
		c-0.062-0.175-0.198-0.338-0.343-0.46C309.222,68.186,309.042,68.317,308.854,68.406z M211.781,74.48
		c0.122-0.181,0.272-0.334,0.331-0.517c0.031-0.095-0.067-0.291-0.166-0.356c-0.225-0.149-0.514,0.168-0.453,0.523
		C211.511,74.238,211.649,74.327,211.781,74.48z M203.69,13.398c0.088-0.432,0.146-0.648,0.16-0.868
		c0.002-0.029-0.261-0.139-0.316-0.097c-0.145,0.104-0.313,0.264-0.333,0.42C203.188,12.959,203.407,13.096,203.69,13.398z
		 M193.999,87.258c0.027-0.098,0.059-0.192,0.086-0.291c-0.225-0.083-0.447-0.178-0.682-0.231c-0.022-0.004-0.104,0.231-0.157,0.359
		C193.496,87.147,193.747,87.202,193.999,87.258z M121.967,116.211c0.094-0.181,0.188-0.334,0.253-0.499
		c0.013-0.033-0.083-0.107-0.129-0.16c-0.146,0.125-0.291,0.247-0.436,0.373C121.739,116,121.823,116.078,121.967,116.211z
		 M187.749,85.763c-0.207,0.25-0.326,0.348-0.378,0.471c-0.063,0.149-0.069,0.324-0.101,0.486c0.159-0.095,0.351-0.162,0.465-0.298
		C187.803,86.345,187.749,86.162,187.749,85.763z M154.042,22.755c0.11,0.022,0.22,0.042,0.329,0.063c0-0.302,0-0.603,0-0.904
		c-0.072-0.007-0.146-0.015-0.219-0.021C154.116,22.181,154.081,22.469,154.042,22.755z M85.871,75.854
		c-0.093-0.172-0.157-0.289-0.22-0.406c-0.155,0.136-0.369,0.244-0.439,0.416c-0.033,0.082,0.2,0.277,0.313,0.421
		C85.645,76.138,85.766,75.985,85.871,75.854z M126.187,38.92c-0.152-0.19-0.268-0.334-0.382-0.479
		c-0.116,0.138-0.312,0.268-0.325,0.414c-0.014,0.15,0.149,0.318,0.236,0.479C125.858,39.208,126.001,39.083,126.187,38.92z
		 M142.62,28.416c0.11-0.979,0.11-0.979-0.556-1.073C142.246,27.691,142.399,27.988,142.62,28.416z M183.18,79.394
		c-0.263-0.291-0.336-0.447-0.438-0.473c-0.272-0.061-0.595,0.34-0.453,0.559c0.062,0.094,0.256,0.172,0.366,0.148
		C182.851,79.588,183.03,79.463,183.18,79.394z M146.558,26.838c-0.006-0.064-0.012-0.13-0.02-0.193
		c-0.112,0.012-0.227,0.021-0.336,0.047c-0.009,0.002,0.012,0.122,0.019,0.188C146.333,26.865,146.446,26.852,146.558,26.838z
		 M118.156,40.583c0.105-0.049,0.218-0.091,0.313-0.155c0.021-0.014-0.006-0.163-0.03-0.169c-0.112-0.026-0.23-0.025-0.347-0.034
		C118.113,40.345,118.134,40.463,118.156,40.583z M287.59,42.723c0.104-0.076,0.207-0.152,0.312-0.229
		c-0.106-0.073-0.213-0.201-0.321-0.204c-0.099-0.003-0.196,0.135-0.296,0.21C287.385,42.574,287.487,42.648,287.59,42.723z
		 M374.163,60.379c-0.188-0.088-0.352-0.175-0.521-0.232c-0.042-0.014-0.116,0.072-0.175,0.113c0.134,0.146,0.27,0.293,0.404,0.438
		C373.948,60.611,374.027,60.527,374.163,60.379z M109.648,30.844c0.04-0.122,0.086-0.242,0.114-0.366
		c0.003-0.011-0.103-0.046-0.158-0.069c-0.042,0.121-0.09,0.238-0.121,0.362C109.481,30.781,109.591,30.818,109.648,30.844z
		 M112.75,116.347c0.08-0.101,0.218-0.195,0.224-0.297c0.006-0.105-0.117-0.221-0.184-0.33c-0.08,0.102-0.215,0.2-0.226,0.309
		C112.556,116.126,112.682,116.237,112.75,116.347z M291.56,43.309c0.1-0.07,0.203-0.131,0.287-0.211
		c0.021-0.018-0.021-0.102-0.035-0.156c-0.103,0.055-0.211,0.104-0.3,0.175C291.49,43.133,291.538,43.234,291.56,43.309z
		 M318.969,69.1c0.052,0.107,0.085,0.291,0.157,0.309c0.113,0.027,0.254-0.059,0.38-0.096c-0.059-0.113-0.096-0.281-0.188-0.322
		C319.232,68.954,319.087,69.058,318.969,69.1z M339.865,10.493c0.108-0.155,0.219-0.313,0.331-0.472
		c-0.167-0.083-0.329-0.168-0.494-0.252c-0.069,0.166-0.163,0.33-0.193,0.504C339.502,10.317,339.703,10.396,339.865,10.493z
		 M125.567,113.125c0.064-0.101,0.131-0.198,0.196-0.298c-0.063-0.029-0.143-0.096-0.184-0.077
		c-0.114,0.052-0.213,0.138-0.316,0.212C125.365,113.017,125.466,113.069,125.567,113.125z M122.887,39.532
		c-0.079,0.105-0.154,0.211-0.232,0.314c0.062,0.036,0.136,0.114,0.181,0.1c0.109-0.034,0.203-0.114,0.304-0.173
		C123.055,39.693,122.972,39.611,122.887,39.532z M121.886,112.478c0.117-0.162,0.239-0.313,0.33-0.479
		c0.008-0.015-0.246-0.22-0.271-0.196c-0.141,0.108-0.257,0.254-0.354,0.405C121.58,112.224,121.749,112.354,121.886,112.478z
		 M133.304,37.291c0.11-0.068,0.267-0.113,0.317-0.213c0.046-0.089-0.024-0.237-0.045-0.361c-0.138,0.078-0.3,0.133-0.397,0.244
		C133.142,37.001,133.255,37.177,133.304,37.291z M128.935,113.575c0.095-0.086,0.19-0.168,0.285-0.254
		c-0.054-0.034-0.117-0.109-0.16-0.1c-0.115,0.029-0.223,0.094-0.335,0.146C128.795,113.438,128.864,113.507,128.935,113.575z
		 M310.034,61.275c0.065,0.219,0.106,0.352,0.146,0.482c0.146-0.121,0.317-0.227,0.427-0.377c0.036-0.054-0.085-0.221-0.132-0.335
		C310.324,61.124,310.171,61.204,310.034,61.275z M74.808,139.474c0.036-0.043,0.1-0.082,0.102-0.127s-0.051-0.098-0.082-0.146
		c-0.061,0.065-0.121,0.132-0.182,0.196C74.699,139.422,74.753,139.448,74.808,139.474z M238.199,67.074
		c0.044-0.102,0.101-0.199,0.122-0.305c0.006-0.03-0.112-0.123-0.123-0.115c-0.084,0.059-0.154,0.135-0.229,0.205
		C238.046,66.932,238.121,67.002,238.199,67.074z M254.312,40.543c-0.047-0.12-0.064-0.298-0.143-0.329
		c-0.088-0.038-0.229,0.06-0.345,0.098c0.081,0.153,0.163,0.31,0.245,0.464C254.149,40.697,254.231,40.619,254.312,40.543z
		 M174.519,21.428c-0.064-0.133-0.118-0.244-0.172-0.354c-0.109,0.054-0.217,0.107-0.325,0.162c0.083,0.138,0.167,0.276,0.249,0.414
		C174.355,21.573,174.44,21.497,174.519,21.428z M29.391,111.013c0,0.063,0,0.123,0,0.188c0.038-0.057,0.076-0.111,0.113-0.168
		C29.467,111.024,29.431,111.019,29.391,111.013z M29.04,128.644c0-0.065,0-0.131,0-0.197c-0.048,0.008-0.136,0.004-0.138,0.016
		c-0.01,0.063,0.002,0.128,0.006,0.191C28.952,128.649,28.997,128.646,29.04,128.644z M240.69,67.33
		c0.063-0.109,0.177-0.217,0.183-0.328c0.005-0.113-0.097-0.232-0.151-0.349c-0.065,0.108-0.18,0.216-0.185,0.327
		C240.532,67.094,240.635,67.213,240.69,67.33z M22.399,122.66c0.03-0.237,0.064-0.412,0.068-0.591
		c0.001-0.045-0.089-0.094-0.138-0.141c-0.084,0.155-0.19,0.305-0.24,0.467C22.078,122.438,22.243,122.53,22.399,122.66z
		 M172.793,85.953c-0.121,0.039-0.243,0.077-0.364,0.116c0.039,0.097,0.074,0.269,0.118,0.271c0.122,0.007,0.246-0.06,0.369-0.097
		C172.875,86.146,172.834,86.049,172.793,85.953z M61.354,39.984c0.102-0.047,0.21-0.08,0.298-0.145
		c0.023-0.017-0.008-0.175-0.035-0.181c-0.1-0.023-0.208-0.011-0.314-0.013C61.318,39.759,61.337,39.871,61.354,39.984z
		 M51.033,143.5c0.131,0.129,0.25,0.302,0.414,0.379c0.083,0.038,0.248-0.095,0.376-0.147c-0.17-0.203-0.34-0.403-0.511-0.605
		C51.236,143.228,51.158,143.331,51.033,143.5z M66.675,76.992c0.052,0,0.108,0,0.163,0c-0.041-0.068-0.075-0.146-0.13-0.201
		c-0.013-0.015-0.093,0.037-0.142,0.06C66.601,76.896,66.637,76.94,66.675,76.992z M180.331,84.783
		c0.064,0.118,0.127,0.237,0.191,0.358c0.091-0.094,0.27-0.203,0.255-0.277c-0.028-0.157-0.158-0.297-0.247-0.442
		C180.464,84.541,180.397,84.663,180.331,84.783z M339.586,7.506l0.147,0.021l-0.052-0.193L339.586,7.506z M150.398,33.245
		c0.06-0.022,0.117-0.044,0.175-0.065c-0.049-0.038-0.094-0.098-0.145-0.105c-0.054-0.007-0.115,0.039-0.172,0.061
		C150.305,33.172,150.353,33.209,150.398,33.245z M366.584,74.596c-0.102-0.068-0.197-0.145-0.307-0.195
		c-0.021-0.008-0.091,0.091-0.139,0.14c0.104,0.069,0.2,0.146,0.313,0.198C366.468,74.748,366.539,74.646,366.584,74.596z
		 M185.46,86.547c-0.06-0.019-0.119-0.036-0.179-0.055c-0.015,0.084-0.028,0.166-0.044,0.247c0.065-0.01,0.143-0.008,0.193-0.041
		C185.46,86.681,185.452,86.601,185.46,86.547z M167.146,22.971c-0.068,0.178-0.126,0.293-0.151,0.415
		c-0.006,0.024,0.139,0.115,0.151,0.103c0.081-0.07,0.191-0.158,0.195-0.244C167.345,23.162,167.228,23.075,167.146,22.971z
		 M380.207,33.162c-0.016,0.049-0.033,0.1-0.051,0.147c0.059-0.03,0.116-0.061,0.175-0.091
		C380.29,33.2,380.248,33.182,380.207,33.162z M380.286,28.203c0.036-0.137,0.081-0.254,0.09-0.371
		c0.002-0.043-0.088-0.092-0.137-0.139c-0.06,0.107-0.146,0.209-0.162,0.322C380.069,28.064,380.207,28.136,380.286,28.203z
		 M376.173,60.998c0.047-0.053,0.094-0.105,0.144-0.156c-0.116-0.051-0.228-0.117-0.349-0.145c-0.037-0.008-0.099,0.09-0.146,0.14
		C375.938,60.89,376.056,60.943,376.173,60.998z M164.483,24.053c0.042-0.033,0.103-0.06,0.116-0.103
		c0.019-0.052-0.005-0.117-0.009-0.177c-0.068,0.042-0.137,0.084-0.205,0.127C164.419,23.951,164.451,24.002,164.483,24.053z
		 M376.73,46.299c-0.042,0.016-0.104,0.018-0.121,0.047c-0.029,0.051-0.029,0.117-0.042,0.176c0.078-0.02,0.156-0.041,0.234-0.063
		C376.778,46.406,376.755,46.352,376.73,46.299z M377.607,31.616l-0.101,0.128l0.132,0.045L377.607,31.616z M183.656,83.114
		c0.058,0.02,0.117,0.058,0.173,0.051c0.027-0.003,0.046-0.084,0.068-0.129c-0.058-0.021-0.117-0.063-0.175-0.061
		C183.699,82.976,183.679,83.065,183.656,83.114z M158.253,92.913c0.057-0.121,0.129-0.238,0.163-0.364
		c0.011-0.041-0.085-0.106-0.132-0.161c-0.059,0.12-0.13,0.237-0.164,0.364C158.109,92.79,158.205,92.856,158.253,92.913z
		 M364.243,77.455l-0.142-0.013l0.059,0.164L364.243,77.455z M178.194,22.115c0.046,0.12,0.09,0.24,0.135,0.358
		c0.05-0.044,0.148-0.099,0.143-0.134c-0.023-0.123-0.08-0.24-0.126-0.359C178.296,22.024,178.246,22.071,178.194,22.115z
		 M90.697,34.62c0.053-0.032,0.106-0.065,0.161-0.099c-0.045-0.043-0.111-0.133-0.129-0.125c-0.074,0.038-0.135,0.105-0.202,0.16
		C90.584,34.578,90.64,34.599,90.697,34.62z M88.623,35.573c0.035,0.063,0.071,0.122,0.107,0.183
		c0.047-0.051,0.143-0.126,0.132-0.148c-0.043-0.084-0.119-0.15-0.184-0.223C88.66,35.447,88.642,35.51,88.623,35.573z
		 M97.697,33.369c-0.049,0.014-0.097,0.029-0.144,0.046c0.042,0.087,0.086,0.175,0.129,0.262c0.033-0.048,0.094-0.095,0.094-0.142
		C97.776,33.479,97.726,33.424,97.697,33.369z M96.322,33.302c-0.045,0.017-0.114,0.017-0.132,0.049
		c-0.03,0.054-0.03,0.126-0.044,0.19c0.082-0.02,0.166-0.041,0.249-0.061C96.371,33.422,96.347,33.361,96.322,33.302z M32.2,124.813
		c-0.014-0.06-0.029-0.113-0.043-0.172c-0.041,0.018-0.12,0.028-0.12,0.047c-0.003,0.058,0.023,0.113,0.036,0.17
		C32.116,124.842,32.157,124.827,32.2,124.813z M72.717,71.551c0.046-0.127,0.103-0.24,0.12-0.356
		c0.008-0.044-0.077-0.103-0.12-0.153c-0.066,0.09-0.177,0.174-0.185,0.268C72.523,71.382,72.646,71.467,72.717,71.551z
		 M237.224,73.551c0.051-0.125,0.109-0.246,0.145-0.374c0.005-0.017-0.15-0.113-0.172-0.097c-0.092,0.072-0.16,0.172-0.237,0.262
		C237.046,73.411,237.134,73.481,237.224,73.551z M27.198,106.771c-0.047,0.012-0.115,0.008-0.136,0.037
		c-0.029,0.047-0.029,0.114-0.042,0.176c0.079-0.018,0.158-0.032,0.237-0.047C27.238,106.879,27.218,106.823,27.198,106.771z
		 M27.17,111.528c0.05-0.014,0.124-0.012,0.143-0.045c0.029-0.053,0.021-0.127,0.03-0.191c-0.079,0.02-0.158,0.035-0.237,0.053
		C27.128,111.405,27.148,111.467,27.17,111.528z M77.94,71.145c0.086-0.07,0.23-0.136,0.238-0.213
		c0.011-0.113-0.073-0.239-0.117-0.359c-0.083,0.07-0.225,0.133-0.234,0.211C77.813,70.895,77.896,71.018,77.94,71.145z
		 M20.84,86.625c0.05,0.054,0.094,0.138,0.144,0.142c0.046,0.004,0.099-0.08,0.148-0.125c-0.078-0.064-0.155-0.133-0.232-0.197
		C20.879,86.507,20.857,86.569,20.84,86.625z M20.994,114.313c0.051-0.137,0.112-0.256,0.135-0.385
		c0.008-0.041-0.087-0.101-0.135-0.152c-0.069,0.095-0.182,0.187-0.192,0.287C20.794,114.138,20.921,114.228,20.994,114.313z
		 M54.413,79.543c0.021-0.046,0.041-0.095,0.062-0.142c-0.074-0.012-0.149-0.024-0.226-0.037c0.003,0.052-0.012,0.119,0.015,0.148
		C54.292,79.543,54.361,79.535,54.413,79.543z M53.458,59.451c0.05-0.012,0.1-0.025,0.148-0.038
		c-0.018-0.059-0.033-0.12-0.051-0.179c-0.045,0.016-0.121,0.025-0.125,0.046C53.422,59.336,53.446,59.395,53.458,59.451z
		 M53.679,142.208c-0.087-0.119-0.156-0.214-0.225-0.311c-0.047,0.054-0.139,0.11-0.133,0.158c0.016,0.125,0.073,0.244,0.114,0.364
		C53.517,142.351,53.6,142.276,53.679,142.208z M229.853,69.696c0.053,0.05,0.104,0.1,0.157,0.15
		c0.054-0.12,0.121-0.237,0.147-0.363c0.01-0.042-0.086-0.107-0.133-0.162C229.967,69.445,229.909,69.57,229.853,69.696z
		 M230.39,74.318l0.117,0.023l-0.039-0.147L230.39,74.318z M48.725,78.649c0.029,0.049,0.05,0.125,0.092,0.143
		c0.052,0.02,0.121-0.016,0.184-0.023c-0.042-0.076-0.084-0.15-0.128-0.225C48.823,78.578,48.774,78.614,48.725,78.649z
		 M47.645,141.095c0.059-0.039,0.171-0.091,0.166-0.111c-0.031-0.125-0.09-0.242-0.142-0.362c-0.055,0.043-0.162,0.095-0.156,0.123
		C47.537,140.862,47.598,140.978,47.645,141.095z M78.035,73.313c0.057,0.008,0.111,0.017,0.167,0.025
		c-0.012-0.072-0.022-0.144-0.032-0.216c-0.054,0.017-0.118,0.021-0.153,0.055C77.998,73.195,78.028,73.266,78.035,73.313z
		 M80.266,49.072c0.053-0.117,0.116-0.23,0.15-0.352c0.007-0.022-0.101-0.077-0.155-0.117c-0.048,0.109-0.11,0.217-0.134,0.331
		C80.119,48.969,80.217,49.025,80.266,49.072z M249.621,67.352c0.047-0.016,0.116-0.018,0.136-0.049
		c0.032-0.053,0.032-0.127,0.047-0.19c-0.082,0.02-0.164,0.038-0.246,0.06C249.579,67.232,249.601,67.292,249.621,67.352z
		 M81,69.104c0.034,0.05,0.067,0.101,0.101,0.151c0.042-0.043,0.127-0.109,0.117-0.129c-0.034-0.072-0.101-0.131-0.155-0.193
		C81.041,68.99,81.021,69.047,81,69.104z M128.319,114.644c0.047-0.015,0.117-0.015,0.135-0.045
		c0.031-0.054,0.029-0.123,0.042-0.188c-0.078,0.019-0.156,0.036-0.235,0.054C128.281,114.524,128.3,114.583,128.319,114.644z
		 M198.84,14.028c0.017-0.095,0.033-0.19,0.05-0.284c-0.041,0.039-0.107,0.076-0.117,0.123
		C198.765,13.914,198.813,13.974,198.84,14.028z M134.565,107.942c0.05-0.016,0.126-0.019,0.146-0.053
		c0.034-0.057,0.034-0.137,0.049-0.207c-0.089,0.022-0.178,0.045-0.266,0.066C134.519,107.813,134.541,107.879,134.565,107.942z
		 M322.79,5.481l0.146,0.082l0.02-0.138L322.79,5.481z M111.419,116.776c0.05-0.108,0.11-0.215,0.143-0.33
		c0.005-0.02-0.098-0.071-0.15-0.109c-0.048,0.105-0.107,0.21-0.138,0.321C111.267,116.683,111.366,116.735,111.419,116.776z
		 M291.106,64.755c-0.049-0.02-0.097-0.038-0.146-0.058c-0.012,0.074-0.023,0.147-0.034,0.221c0.054-0.006,0.119,0.004,0.154-0.024
		C291.108,64.873,291.101,64.803,291.106,64.755z M105.569,31.301c-0.057-0.021-0.111-0.054-0.168-0.056
		c-0.018-0.002-0.039,0.079-0.058,0.124c0.056,0.02,0.11,0.051,0.169,0.053C105.529,31.422,105.551,31.344,105.569,31.301z
		 M124.01,114.854c0.056-0.037,0.112-0.074,0.169-0.11c-0.043-0.054-0.084-0.104-0.127-0.158c-0.07,0.063-0.144,0.131-0.215,0.197
		C123.895,114.808,123.951,114.831,124.01,114.854z M125.317,114.718c0.02-0.054,0.055-0.109,0.048-0.164
		c-0.003-0.023-0.079-0.043-0.122-0.066c-0.021,0.057-0.058,0.111-0.056,0.168C125.188,114.675,125.272,114.696,125.317,114.718z
		 M303.2,64.008c0.052-0.019,0.104-0.039,0.161-0.06c-0.041-0.038-0.074-0.101-0.12-0.109c-0.049-0.008-0.105,0.034-0.158,0.056
		C303.122,63.932,303.16,63.969,303.2,64.008z"/>
	<path fill="#FFFFFF" d="M30.118,132.55c0.162,0.686,0.326,0.979,0.278,1.236c-0.259,1.404-0.063,2.775,0.159,4.162
		c0.12,0.757-0.682,1.738-1.498,1.912c-0.141,0.031-0.367-0.336-0.554-0.519c0.839-0.848-0.066-2.03,0.569-2.952
		c0.158-0.229,0.033-0.734-0.094-1.063C28.556,134.215,29.156,133.548,30.118,132.55z"/>
	<path fill="#FFFFFF" d="M23.548,132.987c0.352,0.809,0.638,1.467,0.919,2.113c-0.732,0.158-1.754,0.188-2.307,0.08
		c-0.789-0.147-1.583-0.283-2.294-0.408c0.599-0.289,1.553-0.002,2.088-0.902c-0.904-0.605-1.846-0.016-2.701-0.084
		c-0.343-0.512-0.042-0.801,0.293-0.893c0.483-0.133,1.01-0.172,1.515-0.147C21.869,132.78,22.673,132.899,23.548,132.987z"/>
	<path fill="#FFFFFF" d="M370.009,72.779c0.519-0.235,0.441-0.646,0.382-1.107c-0.143-1.09-0.118-1.094,1.253-1.701
		c0.379,0.353,0.789,0.736,1.268,1.18c-0.188,0.175-0.34,0.289-0.459,0.434c-0.45,0.541-0.91,1.074-1.315,1.648
		c-0.094,0.133-0.035,0.436,0.046,0.618c0.143,0.312,0.194,0.571-0.218,0.616c-0.099,0.012-0.353-0.305-0.328-0.432
		c0.117-0.615-0.175-0.986-0.647-1.297C369.98,72.729,370.009,72.779,370.009,72.779z M371.304,72.074
		c-0.021,0.064-0.053,0.129-0.051,0.193c0.002,0.021,0.092,0.041,0.142,0.061c0.018-0.064,0.05-0.129,0.044-0.19
		C371.434,72.112,371.35,72.095,371.304,72.074z"/>
	<path fill="#FFFFFF" d="M216.328,11.91c-0.907,0.334-1.695,0.989-2.726,1.023c-0.929,0.029-1.855,0.129-2.869,0.205
		c0.082-0.243,0.092-0.529,0.217-0.596C212.626,11.662,214.411,11.463,216.328,11.91z"/>
	<path fill="#FFFFFF" d="M234.185,79.546c0.461,0.821,1.16,0.409,1.803,0.51c-0.045,0.521-0.088,1.021-0.133,1.534
		c-1,0.673-1.824,0.072-2.658-0.213C233.513,80.789,233.812,80.235,234.185,79.546z"/>
	<path fill="#FFFFFF" d="M16.378,48.863c-0.548-0.128-1.095-0.256-1.842-0.431c0.826-0.769-0.152-1.863,0.806-2.478
		c1.702,1.271,1.702,1.271,1.033,2.916L16.378,48.863z"/>
	<path fill="#FFFFFF" d="M15.229,125.81c-0.341-1.181,0.497-1.568,1.122-1.979c0.261-0.172,0.777,0.048,1.353,0.106
		c-0.325,0.719-0.579,1.281-0.846,1.873C16.313,125.81,15.815,125.81,15.229,125.81z"/>
	<path fill="#FFFFFF" d="M241.577,77.373c0,0.707,0,1.258,0,1.866c-0.372,0-0.715,0-1.129,0c-0.176,0.328-0.368,0.689-0.621,1.162
		c-0.669-0.575-0.25-1.213-0.275-1.771C240.188,78.235,240.813,77.849,241.577,77.373z"/>
	<path fill="#FFFFFF" d="M136.921,111.16c0.408,0.75,0.053,1.356-0.184,1.925c-0.084,0.202-0.723,0.645-0.815,0.23
		c-0.165-0.732-0.971-0.151-1.114-0.854C135.476,112.052,136.186,111.614,136.921,111.16z"/>
	<path fill="#FFFFFF" d="M137.708,111.446c0.775-0.401,1.193-0.643,1.634-0.84c0.546-0.246,0.97,0.029,1.346,0.396
		c0.263,0.255,0.151,0.858-0.173,0.908C139.678,112.037,138.832,112.177,137.708,111.446z"/>
	<path fill="#FFFFFF" d="M287.679,5.331c-0.505,0-0.791,0.007-1.078-0.007c-0.056-0.002-0.106-0.092-0.16-0.141
		c-0.063-0.403,0.896-0.76,0.063-1.192c-0.298-0.153-0.479-0.36-0.29-0.657c0.1-0.15,0.387-0.292,0.553-0.26
		c0.252,0.051,0.563,0.203,0.682,0.409c0.125,0.216,0.039,0.544,0.068,0.822C287.545,4.587,287.603,4.865,287.679,5.331z"/>
	<path fill="#FFFFFF" d="M17.852,136.756c1.03,0.608,0.805,1.127,0.445,1.711c-0.445,0-0.923,0-1.388,0
		C16.743,137.507,17.648,137.437,17.852,136.756z"/>
	<path fill="#FFFFFF" d="M274.345,74.318c0.451,0.771,0.479,1.33-0.221,1.777c-0.321,0.207-0.688,0.412-0.915-0.002
		c-0.146-0.27-0.207-0.785-0.048-0.98C273.444,74.77,273.925,74.584,274.345,74.318z"/>
	<path fill="#FFFFFF" d="M54.476,147.675c0.278,0.477,0.455,0.777,0.663,1.135c-0.585,0.393-1.131,0.555-1.693,0.354
		c-0.212-0.073-0.396-0.396-0.462-0.641c-0.035-0.131,0.168-0.414,0.329-0.492C53.639,147.873,54.01,147.81,54.476,147.675z"/>
	<path fill="#FFFFFF" d="M270.64,5.186c0.414-0.283,0.75-0.547,1.117-0.756c0.342-0.193,0.771,0,0.854,0.365
		c0.08,0.363,0.087,0.74-0.336,0.914C271.7,5.943,271.147,5.998,270.64,5.186z"/>
	<path fill="#FFFFFF" d="M245.128,78.028c-0.124-0.793-0.25-1.588-0.396-2.521c0.269-0.224,0.592-0.491,0.918-0.764
		c0.145,0.182,0.313,0.299,0.3,0.391c-0.108,0.723-0.222,1.447-0.401,2.156c-0.064,0.258-0.311,0.47-0.475,0.703L245.128,78.028z"/>
	<path fill="#FFFFFF" d="M304.075,0.672c-0.162,0.844-0.239,1.244-0.331,1.723c-0.495,0.068-0.949,0.133-1.886,0.262
		C302.729,1.878,303.235,1.423,304.075,0.672z"/>
	<path fill="#FFFFFF" d="M346.939,4.772c-0.902-0.696-0.589-1.407-0.585-2.026c0-0.126,0.418-0.252,0.898-0.52
		C347.135,3.196,347.05,3.883,346.939,4.772z"/>
	<path fill="#FFFFFF" d="M230.987,82.313c-0.797-0.758,0.031-1.406-0.033-2.092C231.63,80.978,231.63,80.978,230.987,82.313z"/>
	<path fill="#FFFFFF" d="M361.631,0c0.23,0.33,0.458,0.654,0.774,1.109c-0.548,0.27-0.951,0.469-1.433,0.705
		C360.844,1.028,360.812,0.412,361.631,0z"/>
	<path fill="#FFFFFF" d="M283.547,4.318c-0.073-0.164-0.264-0.461-0.22-0.5c0.447-0.4,0.912-0.85,1.73-0.364
		C284.61,3.947,284.187,4.242,283.547,4.318z"/>
	<path fill="#FFFFFF" d="M245.073,77.994c-0.471,0.321-0.934,0.655-1.416,0.957c-0.094,0.06-0.27,0.006-0.398-0.024
		c-0.054-0.014-0.138-0.132-0.121-0.162c0.078-0.177,0.158-0.461,0.287-0.49c0.557-0.125,1.127-0.174,1.699-0.248
		C245.128,78.028,245.073,77.994,245.073,77.994z"/>
	<path fill="#FFFFFF" d="M19.017,120.5c0.49,0.521,0.761,0.929,0.294,1.392c-0.091,0.09-0.468,0.06-0.56-0.047
		C18.262,121.271,18.979,121.041,19.017,120.5z"/>
	<path fill="#FFFFFF" d="M372.056,67.007c0.361,0.142,0.553,1.292,0.461,1.467c-0.028,0.055-0.254,0.008-0.461,0.008
		C372.056,67.994,372.056,67.501,372.056,67.007z"/>
	<path fill="#FFFFFF" d="M290.944,2.922c0.714-0.127,0.984-0.219,1.25-0.204c0.137,0.006,0.261,0.204,0.391,0.316
		c-0.162,0.095-0.329,0.272-0.484,0.265C291.851,3.285,291.606,3.15,290.944,2.922z"/>
	<path fill="#FFFFFF" d="M4.856,82.351c0.157-0.236,0.248-0.437,0.395-0.576c0.212-0.203,0.467-0.361,0.703-0.012
		c0.186,0.274,0.188,0.547-0.107,0.74c-0.169,0.111-0.384,0.24-0.565,0.225C5.133,82.712,5.005,82.489,4.856,82.351z"/>
	<path fill="#FFFFFF" d="M145.988,105.295c0.501-0.253,1.001-0.506,1.688-0.853c-0.068,0.354-0.05,0.619-0.142,0.664
		c-0.434,0.213-0.898,0.367-1.351,0.543C146.118,105.53,146.054,105.414,145.988,105.295z"/>
	<path fill="#FFFFFF" d="M137.22,107.819c0.585,0.465,0.818-0.586,1.482-0.202c0.324,0.54-0.086,0.757-0.676,0.915
		c-0.256-0.229-0.529-0.473-0.803-0.721C137.222,107.81,137.22,107.819,137.22,107.819z"/>
	<path fill="#FFFFFF" d="M270.576,71.381c-0.062-0.01-0.134-0.002-0.183-0.034c-0.205-0.142-0.634-0.104-0.478-0.538
		c0.039-0.11,0.209-0.258,0.31-0.248c0.357,0.037,0.451,0.309,0.434,0.628C270.655,71.254,270.604,71.316,270.576,71.381z"/>
	<path fill="#FFFFFF" d="M249.146,77.756c0-0.34-0.069-0.586,0.02-0.737c0.089-0.15,0.338-0.207,0.52-0.306
		c-0.009,0.185,0.037,0.394-0.037,0.543C249.567,77.422,249.377,77.535,249.146,77.756z"/>
	<path fill="#FFFFFF" d="M22.267,131.644c-0.303-0.176-0.6-0.351-0.884-0.514c-0.001-0.402,0.274-0.561,0.534-0.458
		C22.329,130.836,22.608,131.155,22.267,131.644z"/>
	<path fill="#FFFFFF" d="M17.888,121.694c-0.346-0.356-0.577-0.527-0.692-0.758c-0.036-0.072,0.217-0.377,0.386-0.435
		c0.128-0.044,0.463,0.12,0.476,0.222C18.087,120.967,17.981,121.226,17.888,121.694z"/>
	<path fill="#FFFFFF" d="M192.742,13.847c0.293-0.079,0.616-0.471,0.854,0.026c0.059,0.121-0.08,0.486-0.186,0.512
		c-0.467,0.111-0.559-0.246-0.613-0.604C192.797,13.781,192.742,13.847,192.742,13.847z"/>
	<path fill="#FFFFFF" d="M350.313,7.9c-0.088,0.264-0.127,0.48-0.232,0.658c-0.047,0.078-0.27,0.139-0.346,0.095
		c-0.296-0.171-0.183-0.964,0.171-1.078C349.995,7.547,350.171,7.782,350.313,7.9z"/>
	<path fill="#FFFFFF" d="M302.188,72.498c-0.148-0.289-0.344-0.5-0.297-0.607c0.092-0.215,0.316-0.375,0.486-0.557
		c0.039,0.189,0.124,0.385,0.104,0.568C302.465,72.068,302.333,72.222,302.188,72.498z"/>
	<path fill="#FFFFFF" d="M304.645,76.054c-0.548,0.741-0.548,0.741-1.172,0.258C303.868,76.224,304.177,76.155,304.645,76.054z"/>
	<path fill="#FFFFFF" d="M313.699,73.833c-0.206,0.144-0.402,0.37-0.503,0.335c-0.154-0.057-0.354-0.31-0.333-0.451
		c0.021-0.153,0.27-0.275,0.42-0.412C313.402,73.459,313.523,73.612,313.699,73.833z"/>
	<path fill="#FFFFFF" d="M237.174,80.132c0.14-0.115,0.234-0.195,0.329-0.275c0.109,0.154,0.307,0.311,0.303,0.459
		c-0.006,0.176-0.187,0.345-0.291,0.516C237.397,80.595,237.283,80.356,237.174,80.132z"/>
	<path fill="#FFFFFF" d="M216.312,83.881c-0.028,0.513-0.014,0.769-0.072,1.005c-0.02,0.074-0.237,0.1-0.364,0.146
		c-0.022-0.118-0.099-0.26-0.058-0.354C215.897,84.483,216.038,84.312,216.312,83.881z"/>
	<path fill="#FFFFFF" d="M229.601,78.774c-0.022,0.23-0.045,0.463-0.067,0.695c-0.048-0.1-0.126-0.197-0.136-0.301
		c-0.01-0.133,0.037-0.27,0.061-0.406C229.504,78.769,229.551,78.771,229.601,78.774z"/>
	<path fill="#FFFFFF" d="M232.007,76.533c-0.011,0.206-0.015,0.413-0.035,0.618c-0.068,0.642-0.412,0.595-0.842,0.332
		c-0.001,0-0.018,0.05-0.018,0.05c0.32-0.304,0.641-0.606,0.961-0.912L232.007,76.533z"/>
	<path fill="#FFFFFF" d="M247.63,78.377c-0.189-0.162-0.363-0.269-0.352-0.304c0.088-0.232,0.217-0.45,0.33-0.674
		c0.101,0.066,0.293,0.154,0.285,0.199C247.839,77.845,247.737,78.079,247.63,78.377z"/>
	<path fill="#FFFFFF" d="M12.575,48.313c-0.073,0.012-0.145,0.033-0.218,0.035c-0.323,0.008-0.726,0.291-0.897-0.244
		c-0.018-0.057,0.01-0.164,0.053-0.196c0.498-0.371,0.514,0.266,0.784,0.379c0.066,0.028,0.139,0.045,0.223,0.058
		C12.533,48.336,12.575,48.313,12.575,48.313z"/>
	<path fill="#FFFFFF" d="M274.71,70.132c0,0.487,0,0.879,0,1.48C274.351,71.007,274.19,70.611,274.71,70.132z"/>
	<path fill="#FFFFFF" d="M273.358,73.007c0.242,0.313,0.297,0.616-0.096,0.833c-0.084,0.047-0.352-0.036-0.361-0.093
		C272.835,73.385,272.94,73.094,273.358,73.007z"/>
	<path fill="#FFFFFF" d="M272.042,71.089c-0.021-0.108-0.04-0.217-0.061-0.325c0.125,0.01,0.25,0.007,0.367,0.038
		c0.032,0.011,0.06,0.176,0.051,0.179C272.284,71.025,272.163,71.056,272.042,71.089z"/>
	<path fill="#FFFFFF" d="M28.024,135.25c-0.264,0.2-0.528,0.399-0.81,0.608c-0.111-0.807-0.111-0.807,0.776-0.586L28.024,135.25z"/>
	<path fill="#FFFFFF" d="M313.701,3.803c-0.154-0.083-0.26-0.14-0.365-0.197c0.108-0.151,0.203-0.32,0.339-0.441
		c0.033-0.031,0.205,0.094,0.313,0.146C313.892,3.475,313.796,3.639,313.701,3.803z"/>
	<path fill="#FFFFFF" d="M304.581,75.102c-0.139-0.363-0.271-0.547-0.257-0.72c0.013-0.146,0.183-0.376,0.305-0.39
		c0.13-0.016,0.381,0.157,0.405,0.282C305.06,74.407,304.882,74.578,304.581,75.102z"/>
	<path fill="#FFFFFF" d="M325.264,1.908c-0.227,0.162-0.385,0.363-0.517,0.348c-0.163-0.021-0.305-0.222-0.454-0.346
		c0.151-0.125,0.292-0.328,0.458-0.353C324.879,1.539,325.039,1.744,325.264,1.908z"/>
	<path fill="#FFFFFF" d="M112.665,124.12c-0.095-0.176-0.188-0.348-0.281-0.521c0.161-0.082,0.32-0.166,0.481-0.252
		c0.058,0.188,0.14,0.375,0.153,0.565C113.021,123.967,112.819,124.033,112.665,124.12z"/>
	<path fill="#FFFFFF" d="M161.927,18.238c0.105,0.166,0.227,0.269,0.224,0.369c-0.006,0.301-0.376,0.525-0.567,0.353
		c-0.068-0.063-0.101-0.264-0.053-0.34C161.622,18.473,161.783,18.369,161.927,18.238z"/>
	<path fill="#FFFFFF" d="M184.272,15.438c0.129-0.205,0.26-0.411,0.391-0.617c0.182,0.237,0.363,0.473,0.574,0.748
		c-0.534,0.297-0.737-0.084-1.021-0.195C184.212,15.369,184.272,15.438,184.272,15.438z"/>
	<path fill="#FFFFFF" d="M172.71,17.943c-0.11-0.062-0.291-0.105-0.312-0.189c-0.027-0.119,0.063-0.265,0.103-0.399
		c0.12,0.065,0.312,0.109,0.34,0.204C172.874,17.663,172.761,17.813,172.71,17.943z"/>
	<path fill="#FFFFFF" d="M142.118,107.951c-0.214-0.216-0.385-0.322-0.453-0.478c-0.037-0.08,0.113-0.349,0.163-0.345
		c0.173,0.015,0.438,0.073,0.481,0.185C142.36,107.448,142.217,107.657,142.118,107.951z"/>
	<path fill="#FFFFFF" d="M142.349,22.842c0.346-0.045,0.523-0.104,0.683-0.07c0.069,0.014,0.158,0.229,0.134,0.327
		c-0.024,0.097-0.229,0.249-0.269,0.226C142.74,23.237,142.617,23.09,142.349,22.842z"/>
	<path fill="#FFFFFF" d="M68.515,146.864c-0.244,0.188-0.392,0.377-0.558,0.395c-0.108,0.012-0.245-0.226-0.369-0.354
		c0.134-0.115,0.259-0.309,0.404-0.326C68.13,146.563,68.29,146.733,68.515,146.864z"/>
	<path fill="#FFFFFF" d="M207.552,84.558c-0.129-0.041-0.256-0.082-0.384-0.123c0.054-0.123,0.106-0.248,0.161-0.371
		c0.125,0.061,0.266,0.104,0.361,0.192C207.717,84.278,207.604,84.452,207.552,84.558z"/>
	<path fill="#FFFFFF" d="M373.255,74.137c-0.079,0.055-0.161,0.107-0.241,0.162c-0.009-0.141-0.031-0.279-0.021-0.416
		c0.005-0.045,0.092-0.084,0.143-0.126C373.176,73.884,373.215,74.011,373.255,74.137z"/>
	<path fill="#FFFFFF" d="M303.671,72.131c-0.188,0.062-0.362,0.118-0.537,0.174c-0.023-0.132-0.108-0.307-0.056-0.385
		c0.067-0.099,0.252-0.16,0.383-0.154C303.524,71.769,303.579,71.962,303.671,72.131z"/>
	<path fill="#FFFFFF" d="M135.11,26.328c-0.074-0.107-0.207-0.215-0.206-0.321c0.001-0.112,0.131-0.223,0.204-0.335
		c0.075,0.107,0.209,0.213,0.207,0.318C135.313,26.104,135.185,26.217,135.11,26.328z"/>
	<path fill="#FFFFFF" d="M134.503,23.904c-0.092,0.095-0.182,0.189-0.271,0.283c-0.036-0.102-0.128-0.243-0.093-0.295
		c0.055-0.078,0.199-0.094,0.307-0.136C134.464,23.805,134.483,23.855,134.503,23.904z"/>
	<path fill="#FFFFFF" d="M142.451,109.829c-0.147,0.068-0.296,0.175-0.455,0.197c-0.075,0.011-0.173-0.144-0.261-0.223
		c0.186-0.141,0.369-0.281,0.553-0.424C142.333,109.505,142.378,109.629,142.451,109.829z"/>
	<path fill="#FFFFFF" d="M122.732,118.873c0.082,0.067,0.165,0.136,0.248,0.205c-0.114,0.075-0.221,0.163-0.344,0.218
		c-0.035,0.016-0.115-0.068-0.174-0.109C122.553,119.08,122.642,118.978,122.732,118.873z"/>
	<path fill="#FFFFFF" d="M214.337,82.965c0.131-0.038,0.287-0.135,0.389-0.094c0.094,0.037,0.127,0.224,0.186,0.342
		c-0.128,0.033-0.28,0.125-0.375,0.084C214.438,83.256,214.399,83.081,214.337,82.965z"/>
	<path fill="#FFFFFF" d="M232.551,79.045c0.074,0.085,0.162,0.16,0.216,0.257c0.021,0.038-0.033,0.12-0.054,0.184
		c-0.104-0.039-0.208-0.078-0.312-0.117C232.451,79.261,232.5,79.153,232.551,79.045z"/>
	<path fill="#FFFFFF" d="M31.612,138.907c-0.155-0.207-0.271-0.365-0.386-0.52c0.097-0.066,0.252-0.201,0.281-0.18
		c0.134,0.107,0.255,0.247,0.334,0.398C31.862,138.649,31.717,138.776,31.612,138.907z"/>
	<polygon fill="#FFFFFF" points="272.127,76 272.026,76.095 272.013,75.979 	"/>
	<path fill="#FFFFFF" d="M229.839,81.431c-0.113,0.016-0.227,0.039-0.336,0.036c-0.016,0-0.053-0.137-0.033-0.192
		c0.021-0.049,0.143-0.116,0.153-0.105C229.704,81.246,229.769,81.34,229.839,81.431z"/>
	<path fill="#FFFFFF" d="M268.853,5.4c-0.052-0.123-0.103-0.246-0.153-0.369c0.138-0.042,0.282-0.127,0.409-0.107
		c0.063,0.009,0.1,0.209,0.147,0.323C269.122,5.298,268.985,5.348,268.853,5.4z"/>
	<path fill="#FFFFFF" d="M273.181,71.703c0-0.205,0-0.383,0-0.561c0.113,0.014,0.266-0.012,0.328,0.053
		c0.079,0.08,0.156,0.279,0.112,0.343C273.563,71.625,273.388,71.633,273.181,71.703z"/>
	<path fill="#FFFFFF" d="M346.832,9.908c-0.068-0.095-0.178-0.186-0.188-0.285c-0.008-0.066,0.13-0.147,0.199-0.223
		c0.044,0.049,0.13,0.105,0.122,0.143C346.939,9.668,346.879,9.787,346.832,9.908z"/>
	<polygon fill="#FFFFFF" points="150.808,103.66 150.687,103.58 150.834,103.538 	"/>
	<path fill="#FFFFFF" d="M159.862,20.55c0.055-0.116,0.111-0.233,0.168-0.349c0.043,0.054,0.132,0.119,0.122,0.16
		c-0.03,0.121-0.099,0.231-0.153,0.347C159.953,20.655,159.907,20.603,159.862,20.55z"/>
	<polygon fill="#FFFFFF" points="379.321,55.827 379.274,55.676 379.394,55.695 	"/>
	<path fill="#FFFFFF" d="M379.777,43.055c-0.007-0.123-0.014-0.244-0.02-0.366c0.018,0.118,0.031,0.234,0.05,0.352
		C379.812,43.04,379.777,43.055,379.777,43.055z"/>
	<path fill="#FFFFFF" d="M172.919,16.725c-0.024-0.059-0.083-0.134-0.065-0.176c0.092-0.219,0.171-0.202,0.184,0.039
		C173.04,16.631,172.961,16.68,172.919,16.725z"/>
	<path fill="#FFFFFF" d="M170.967,17.958c-0.065,0.113-0.13,0.226-0.194,0.339c-0.056-0.045-0.166-0.111-0.157-0.133
		c0.043-0.117,0.115-0.223,0.176-0.334C170.851,17.873,170.907,17.916,170.967,17.958z"/>
	<path fill="#FFFFFF" d="M267.979,73.658c0.016,0.055,0.033,0.109,0.047,0.162c-0.076,0.01-0.153,0.02-0.229,0.027
		c0.009-0.057,0.003-0.127,0.035-0.168C267.854,73.651,267.931,73.664,267.979,73.658z"/>
	<path fill="#FFFFFF" d="M213.298,81.951c-0.081,0.149-0.163,0.303-0.242,0.452c-0.041-0.053-0.08-0.105-0.121-0.159
		c0.141-0.08,0.275-0.16,0.416-0.239L213.298,81.951z"/>
	<path fill="#FFFFFF" d="M268.683,75.751c0.018-0.059,0.036-0.113,0.055-0.173c0.056,0.067,0.123,0.129,0.158,0.205
		c0.01,0.021-0.076,0.086-0.119,0.132C268.745,75.86,268.713,75.806,268.683,75.751z"/>
	<path fill="#FFFFFF" d="M269.745,76.763c-0.043-0.005-0.109,0.004-0.12-0.019c-0.024-0.046-0.021-0.106-0.028-0.162
		c0.067,0.008,0.137,0.017,0.204,0.022C269.78,76.658,269.763,76.71,269.745,76.763z"/>
	<path fill="#FFFFFF" d="M90.597,131.688c-0.139-0.004-0.277-0.008-0.417-0.006c-0.071,0-0.144,0.014-0.216,0.022
		c0.076-0.058,0.154-0.162,0.224-0.156c0.142,0.013,0.277,0.084,0.423,0.134C90.617,131.687,90.597,131.688,90.597,131.688z"/>
	<path fill="#FFFFFF" d="M276.169,2.556c-0.05-0.053-0.098-0.106-0.146-0.159c0.121-0.061,0.24-0.13,0.367-0.17
		c0.024-0.008,0.084,0.105,0.129,0.162C276.401,2.445,276.286,2.5,276.169,2.556z"/>
	<path fill="#FFFFFF" d="M277.426,69.307c-0.073,0.082-0.143,0.16-0.213,0.24c-0.04-0.122-0.094-0.242-0.11-0.365
		c-0.006-0.035,0.096-0.086,0.148-0.128C277.313,69.146,277.377,69.237,277.426,69.307z"/>
	<path fill="#FFFFFF" d="M278.526,7.217c0.035-0.051,0.067-0.1,0.104-0.15c0.026,0.055,0.077,0.109,0.077,0.162
		c-0.002,0.048-0.063,0.094-0.096,0.141C278.583,7.318,278.556,7.268,278.526,7.217z"/>
	<path fill="#FFFFFF" d="M211.771,85.823c-0.039-0.077-0.088-0.131-0.08-0.174c0.006-0.043,0.072-0.076,0.113-0.111
		C211.793,85.625,211.783,85.711,211.771,85.823z"/>
	<path fill="#FFFFFF" d="M274.676,2.769c-0.038-0.019-0.11-0.034-0.11-0.055c0-0.049,0.029-0.098,0.047-0.146
		c0.041,0.018,0.119,0.036,0.119,0.053C274.729,2.671,274.694,2.719,274.676,2.769z"/>
	<path fill="#FFFFFF" d="M27.991,135.272c-0.005-0.115-0.012-0.229-0.016-0.342c-0.013,0.045-0.042,0.096-0.034,0.137
		c0.012,0.062,0.051,0.119,0.081,0.181C28.024,135.25,27.991,135.272,27.991,135.272z"/>
	<path fill="#FFFFFF" d="M243.204,76.658c0.012,0.071,0.061,0.168,0.031,0.209c-0.103,0.146-0.231,0.272-0.351,0.405
		c-0.04-0.059-0.127-0.141-0.11-0.176c0.072-0.16,0.166-0.313,0.271-0.455c0.015-0.02,0.132,0.035,0.2,0.057L243.204,76.658z"/>
	<path fill="#FFFFFF" d="M243.245,76.698c-0.012-0.145-0.049-0.293-0.023-0.432c0.016-0.1,0.11-0.186,0.17-0.277
		c0.025,0.113,0.103,0.242,0.068,0.334c-0.044,0.125-0.169,0.223-0.258,0.334C243.204,76.658,243.245,76.698,243.245,76.698z"/>
	<path fill="#FFFFFF" d="M252.651,71.905c-0.021,0.048-0.041,0.095-0.063,0.142c-0.043-0.064-0.085-0.131-0.128-0.196
		C252.526,71.869,252.589,71.887,252.651,71.905z"/>
	<polygon fill="#FFFFFF" points="254.157,76.491 254.093,76.628 254.041,76.483 	"/>
	<path fill="#FFFFFF" d="M16.375,48.871c0.277-0.098,0.554-0.194,0.833-0.291c0.018,0.072,0.036,0.145,0.055,0.217
		c-0.295,0.02-0.588,0.038-0.885,0.062C16.378,48.863,16.375,48.871,16.375,48.871z"/>
	<path fill="#FFFFFF" d="M13.441,89.737c-0.042-0.021-0.085-0.041-0.126-0.061c0.061-0.031,0.122-0.064,0.184-0.096
		C13.479,89.636,13.462,89.687,13.441,89.737z"/>
	<polygon fill="#FFFFFF" points="318.658,1.895 318.745,1.72 318.822,1.896 	"/>
	<path fill="#FFFFFF" d="M145.065,105.856c-0.049,0.111-0.098,0.225-0.146,0.336c-0.075-0.07-0.206-0.137-0.213-0.213
		c-0.011-0.104,0.075-0.215,0.12-0.324C144.905,105.724,144.985,105.79,145.065,105.856z"/>
	<path fill="#FFFFFF" d="M331.748,1.795c-0.047,0.018-0.095,0.034-0.146,0.053c-0.017-0.064-0.045-0.131-0.041-0.193
		c0.003-0.021,0.093-0.036,0.141-0.053C331.718,1.665,331.732,1.73,331.748,1.795z"/>
	<path fill="#FFFFFF" d="M301.767,35.771c-0.025,0.116-0.057,0.234-0.083,0.35c0.025-0.119,0.05-0.238,0.073-0.359
		C301.757,35.76,301.767,35.771,301.767,35.771z"/>
	<path fill="#FFFFFF" d="M281.719,70.167c0.065-0.079,0.13-0.16,0.193-0.24c-0.056-0.019-0.113-0.036-0.17-0.055
		c0.012,0.106,0.026,0.216,0.034,0.322C281.774,70.194,281.719,70.167,281.719,70.167z"/>
	<path fill="#FFFFFF" d="M196.185,84.062c0.428-0.17,0.854-0.34,1.281-0.508c-0.295,0.666-0.828,0.502-1.328,0.48
		C196.128,84.03,196.185,84.062,196.185,84.062z"/>
	<path fill="#FFFFFF" d="M303.48,38.52c-0.003,0.1-0.003,0.199-0.003,0.3c-0.005-0.11-0.01-0.222-0.012-0.339
		C303.467,38.473,303.48,38.52,303.48,38.52z"/>
</g>
</svg>
