<?xml version="1.0" encoding="utf-8"?>
<!-- Generator: Adobe Illustrator 16.0.0, SVG Export Plug-In . SVG Version: 6.00 Build 0)  -->
<!DOCTYPE svg PUBLIC "-//W3C//DTD SVG 1.1//EN" "http://www.w3.org/Graphics/SVG/1.1/DTD/svg11.dtd">
<svg version="1.1" id="圖層_1" xmlns="http://www.w3.org/2000/svg" xmlns:xlink="http://www.w3.org/1999/xlink" x="0px" y="0px"
	 width="381.286px" height="151.469px" viewBox="0 0 381.286 151.469" enable-background="new 0 0 381.286 151.469"
	 xml:space="preserve">
<g>
	<path fill="#FFFFFF" d="M307.729,96.909c-0.137,0.236-0.305,0.691-0.406,0.679c-1.064-0.148-2.273-0.096-2.627-1.518
		c-0.023-0.097-0.348-0.117-0.717-0.23c-0.176,0.539-0.354,1.082-0.582,1.781c-0.859,0.284-1.807,0.6-2.84,0.94
		c1.482,1.155,3.146,0.795,4.941,0.955c-0.104,0.58-0.203,1.128-0.324,1.793c-1.523,0.16-2.92,0.367-4.311-0.203
		c-0.273-0.11-0.563-0.188-0.848-0.267c-1.336-0.36-2.766,0.815-4.061-0.245c-1.336,0.715-2.789,0.111-4.174,0.375
		c-1.472,0.278-1.602,0.27-3.029,1.248c-0.232-0.567-0.457-1.109-0.676-1.634c-0.188,0-0.416-0.07-0.539,0.014
		c-0.373,0.26-0.897,0.899-1.027,0.822c-1.024-0.61-2.264,0.8-3.18-0.38c-0.236-0.309-0.531-0.57-0.785-0.837
		c-0.592,0.387-1.082,0.977-1.547,0.957c-1.158-0.051-2.311,1.143-3.391-0.036c-0.596,0.504-1.051,1.078-1.645,1.34
		c-0.531,0.231-1.215,0.176-1.828,0.151c-1.84-0.072-3.676-0.218-5.516-0.271c-0.369-0.012-0.748,0.252-1.132,0.405
		c-0.409,0.036-0.845,0.168-1.209,0.06c-2.396-0.711-4.776-0.028-7.519-0.207c0.352,0.714,0.515,1.448,0.757,1.476
		c1.473,0.161,2.737,1.331,4.36,0.842c0.304-0.092,0.785,0.406,1.015,0.534c0.946-1.006,1.776-1.885,2.606-2.765
		c0,0.483,0,0.967,0,1.407c3.42,0.68,5.297,1.558,5.883,2.838c-0.98,0.16-1.776,0.748-2.862,0.569
		c-0.66-0.108-1.438-0.048-2.048,0.21c-0.902,0.383-1.51,0.656-2.586,0.034c-1.272-0.737-2.196,0.302-1.926,1.876
		c0.033,0.193,0.031,0.395,0.045,0.592c-0.058,0.086-0.104,0.237-0.17,0.244c-0.602,0.063-1.203,0.1-2.008,0.158
		c-0.146-0.636-0.302-1.294-0.455-1.952c-0.379,0.51-0.775,1.045-1.156,1.556c-1.084-0.26-0.487-1.244-0.973-1.871
		c-2.354-0.557-4.65,0.219-7,0.703c-0.902,1.836-1.145,3.773-1.588,5.645c-0.3-0.272-0.885-0.619-0.838-0.788
		c0.378-1.354-0.063-2.867,0.842-4.117c0.197-0.273,0.188-0.695,0.286-1.102c-0.843-0.143-1.057,0.307-1.354,0.718
		c-0.211,0.287-0.57,0.643-0.871,0.646c-0.48,0.01-1.18-0.094-1.409-0.418c-0.509-0.717-0.964-0.935-1.779-0.558
		c-0.321,0.148-0.807,0.163-1.141,0.035c-1.212-0.456-1.527,0.408-1.761,1.146c-0.524-0.137-0.905-0.234-1.297-0.326
		c-0.418-0.078-0.826-0.162-1.234-0.248c-0.006,0.113-0.01,0.229-0.016,0.342c0.44-0.043,0.881-0.086,1.319-0.129
		c-0.346,1.164-0.69,2.33-1.073,3.615c-0.984,0.09-1.891,0.197-2.801,0.25c-1.18,0.068-1.264,0.072-2.449,0.707
		c1.825,0.205,3.519,0.455,5.33,0.272c2.545-0.257,2.563-0.047,3.387-2.245c0.063-0.168,0.275-0.278,0.562-0.552
		c0.331,0.367,1.065-0.188,1.367,0.603c-0.529,0.492-1.207,0.874-1.486,1.45c-0.284,0.585-0.176,1.361-0.262,2.296
		c1.366-1.579,1.366-1.579,4.235-1.979c-0.698,0.609-1.147,1.004-1.766,1.544c1.895,0.555,3.012-0.378,4.151-1.229
		c0.257,0.477,0.513,0.953,0.771,1.43l-0.063-0.046c-0.175,0.24-0.335,0.677-0.527,0.691c-2.938,0.226-5.854,0.632-8.805,0.813
		c-3.017,0.188-6.123,0.193-9.093,1.049c-0.1,0.027-0.196,0.095-0.295,0.093c-1.099-0.021-2.209-0.173-3.291-0.044
		c-0.985,0.116-1.881,0.753-2.971,0.359c-0.896-0.322-1.902,0.7-2.842-0.137c-0.061-0.053-0.752,0.35-0.859,0.646
		c-0.541,1.49-1.715,1.6-2.961,1.371c-1.631-0.297-3.219-0.619-4.865-0.033c-0.435,0.154-1.002-0.1-1.51-0.118
		c-0.717-0.029-1.574-0.273-2.127,0.024c-2.119,1.145-4.394,0.388-6.568,0.725c-1.516,0.234-3.082,0.185-4.627,0.194
		c-4.213,0.03-8.428-0.007-12.64,0.05c-1.912,0.025-3.822,0.212-5.732,0.324c-0.402,0.023-0.836,0.16-1.197,0.054
		c-2.367-0.707-4.709-0.107-7.039,0.147c-1.738,0.19-3.416,0.5-5.201,0.185c-1.174-0.208-2.475-0.029-3.658,0.24
		c-0.965,0.221-1.747,0.604-2.813,0.069c-0.522-0.262-1.475,0.333-2.308,0.561c-0.313-0.284-0.681-0.622-1.077-0.983
		c-0.525,0.295-1.062,0.594-1.633,0.913c-1.075-0.497-2.15-1.21-3.293,0.009c-0.307,0.326-0.916,0.479-1.399,0.508
		c-1.224,0.07-2.455,0.023-3.666,0.023c-0.173-0.763-0.302-1.32-0.425-1.859c-1.182,0.025-0.857,1.096-1.437,1.657
		c-1.705,0.089-3.532,0.116-5.346,0.298c-1.392,0.141-2.694-0.173-4.044-0.346c-1.396-0.183-2.863,0.11-4.292,0.267
		c-0.688,0.074-1.388,0.23-2.03,0.482c-1.02,0.399-1.915,0.579-2.844-0.272c-0.324-0.299-0.967-0.354-1.461-0.348
		c-3.893,0.065-7.787,0.129-11.678,0.303c-0.996,0.045-1.938,0.19-2.975,0.043c-0.936-0.135-1.98,0.388-2.957,0.688
		c-1.087,0.336-2.094-0.001-2.965-0.494c-1.309-0.741-2.293-0.661-3.149,0.606c-0.093,0.139-0.368,0.151-0.742,0.292
		c-0.278-0.311-0.604-0.674-1.073-1.194c-0.872,0.52-2.3-0.208-2.978,1.225c-1.134-0.006-2.24,0.91-3.409-0.01
		c-0.989-0.778-2.135-0.705-3.37-0.666c-1.146,0.036-2.353,0.74-3.533-0.064c-0.271-0.185-0.808,0.066-1.211,0.021
		c-0.96-0.111-1.332,1.289-2.497,0.843c-0.728-0.278-1.628-0.243-2.431-0.154c-0.861,0.096-1.901-0.385-2.552,0.615
		c-0.956-0.196-1.932-0.606-2.866-0.526c-0.849,0.072-1.628,0.783-2.491,0.991c-0.304,0.073-0.896-0.435-1.121-0.814
		c-0.277-0.468,0.15-1.279-0.906-1.584c-0.223,0.631-0.449,1.271-0.753,2.128c-0.495-0.208-1.009-0.423-1.567-0.656
		c-0.445,0.165-1.068,0.26-1.5,0.599c-0.357,0.281-0.697,0.876-0.651,1.288c0.042,0.394,0.548,0.973,0.932,1.044
		c0.898,0.17,1.913,1.06,2.755-0.145c1.42,0.423,3.021-0.175,4.771,0.819c-1.288,0.447-2.22,1.047-3.149,1.042
		c-2.864-0.013-5.617,1.067-8.472,0.832c-2.54-0.21-5.04,0.02-7.551,0.302c-1.388,0.154-2.798-0.165-4.171,0.49
		c-0.867,0.414-1.782-0.063-2.719-0.584c0.391-1.056,0.771-2.084,1.146-3.103c-1.156-0.46-1.59-0.392-1.697,0.286
		c-0.063,0.395,0.043,0.813,0.013,1.215c-0.077,1.018-0.798,0.978-1.567,1.031c0.141-0.78,0.256-1.416,0.417-2.316
		c-0.938,0.244-1.648,0.333-2.276,0.611c-1.544,0.686-3.172,0.338-4.758,0.471c-0.352,0.027-0.757-0.233-1.094-0.436
		c-0.986-0.593-1.805-0.05-2.592,0.4c-0.689,0.396-0.53,1.018-0.339,1.731c-0.178-0.242-0.359-0.482-0.534-0.729
		c-0.166-0.23-0.326-0.467-0.6-0.859c-0.341,0.615-0.601,1.086-0.942,1.703c-1.514-1.074-3.06-0.559-4.636-0.326
		c0.681,2.639,0.681,2.639,1.782,3.793c-1.457,1.274-3.016,2.293-5.357,2.447c2.542,2.024,5.137,0.061,7.555,1.006
		c-0.457,0.957-1.434,0.859-2.045,1.299c-0.72,0.52-1.487,0.24-2.329,0.086c-2.192-0.4-4.438-0.508-6.653-0.799
		c-0.313-0.041-0.579-0.451-1.014-0.814c0.857-0.563,1.601-0.934,2.174-1.479c0.314-0.302,0.611-1.158,0.453-1.326
		c-0.976-1.031-0.884-2.45-1.329-3.58c-0.349-0.045-0.643-0.166-0.731-0.08c-1.65,1.635-3.511,1.109-5.377,0.565
		c-0.196-0.059-0.396-0.112-0.579-0.196c-0.084-0.04-0.137-0.15-0.234-0.264c0.039-0.271-0.019-0.763,0.138-0.847
		c1.562-0.823,2.707-2.438,4.848-2.205c0.912,0.101,1.907-0.555,2.799-0.846c0.236-0.721-0.065-1.166-0.574-1.326
		c-0.869-0.271-1.774-0.473-2.678-0.581c-0.793-0.094-1.606-0.019-2.634-0.019c0.065-0.813,0.125-1.562,0.185-2.313
		c-0.655-0.056-1.027,0.65-1.938,0.138c-1.209-0.683-2.515,0.198-3.574,1.092c-0.045,0.562,0.117,1.313-0.186,1.665
		c-0.48,0.557-1.008,0.98-0.982,1.802c0.003,0.069-0.494,0.108-0.707,0.243c-0.308,0.197-0.776,0.455-0.796,0.715
		c-0.024,0.325,0.256,0.829,0.549,0.99c0.703,0.385,1.406,0.854,2.307,0.713c0.369-0.059,0.77,0.09,1.19,0.147
		c-0.182,1.031-1.014,0.55-1.47,0.829c-0.509,0.313-1.115,0.464-1.636,0.762c-0.524,0.299-0.997,0.69-1.526,1.065
		c-0.495-1.558-0.495-1.558-1.742-2.85c-1.176-1.222-1.184-1.845-0.024-3.127c0.135-0.151,0.345-0.236,0.479-0.391
		c0.486-0.556,0.39-1.242-0.231-1.544c-0.823-0.397-1.672-0.744-2.494-1.146c-0.242-0.118-0.428-0.352-0.766-0.64
		c1.478-0.837,2.119,1.58,3.64,0.417c0.12-0.59,0.298-1.463,0.484-2.381c0.25-0.131,0.51-0.364,0.79-0.394
		c0.937-0.093,1.847-0.209,2.548-0.93l-0.015-0.012c0.39-0.416,0.781-0.832,1.142-1.218c-0.793-1.22-1.859-0.459-2.911-0.854
		c-0.113-0.415-0.265-0.97-0.41-1.492c-0.778,0.793-2.173-0.598-2.717,0.746c-0.618-0.398-1.127-0.7-1.609-1.043
		c-1.097-0.78-1.068-1.054-0.251-2.365c0.285-0.46,0.251-1.118,0.401-1.884c0.394-0.049,0.877-0.146,1.362-0.159
		c1.542-0.045,3.087-0.001,4.623-0.111c0.562-0.041,1.099-0.422,1.755-0.689c-0.235-0.782-0.432-1.438-0.681-2.268
		c0.702-0.397,1.418-0.803,2.127-1.204c-0.2-0.253-0.315-0.535-0.444-0.54c-1.94-0.081-3.84-0.6-5.82-0.358
		c-0.876,0.104-1.851-0.179-2.705-0.49c-0.487-0.178-0.824-0.768-1.524-1.469c0.9-0.68,1.633-1.232,2.315-1.746
		c0.149-1.058-0.886-2.078,0.22-2.978c0.171-0.141-0.083-0.744-0.037-1.121c0.034-0.282,0.169-0.704,0.375-0.793
		c1.184-0.502,2.309-1.356,3.725-0.827c0.276,0.104,0.586,0.379,0.811,0.317c1.355-0.371,2.692-0.807,4.023-1.258
		c0.087-0.029,0.068-0.375,0.117-0.688c-1.367-0.91-2.851-1.56-4.547-1.023c-1.021,0.321-1.851,0.297-2.405-0.666
		c-0.563-0.979-0.438-1.984,0.213-2.894c1.534-2.139,3.781-3.063,6.236-3.632c0.879-0.202,1.756-0.413,2.515-0.593
		c0.277-0.887-0.072-1.312-0.65-1.229c-2.286,0.322-3.718-0.696-4.496-2.84c-1.653,0.887-1.047,2.019-0.571,3.064
		c-1.851,1.963-2.482,2.111-4.569,0.996c1.049-1.908,3.372-3.027,3.357-5.467c2.958,0.063,3.212-0.015,4.886-1.42
		c-0.289-2.31-2.756-1.343-3.961-2.632c0.145-0.412,0.175-1.01,0.488-1.291c0.584-0.524,1.188-1.121,2.12-1.073
		c0.821,0.042,1.657,0.051,2.465-0.066c0.553-0.079,1.072-0.396,1.75-0.666c-0.466-0.805-0.814-1.406-1.25-2.158
		c-0.64,0.076-1.447-0.037-2.001,0.285c-0.99,0.578-1.949,0.592-2.974,0.354c-0.848-0.199-1.458-0.729-1.714-1.565
		c-0.625-2.051-2.147-2.946-4.305-3.324c0.691-0.789,1.608-0.266,2.279-0.604c0.722-0.367,1.5-0.623,2.317-0.955
		c0-0.609,0-1.197,0-1.991c-2.489,1.2-4.604,0.483-6.664-0.824c-0.589-0.374-1.329-0.51-2.075-0.781
		c0.465-0.408,1.112-0.707,1.206-1.131c0.118-0.523-0.222-1.15-0.376-1.781c0.013-0.021,0.072-0.176,0.111-0.17
		c0.785,0.095,1.569,0.209,2.283,0.309c0.405,1.344-1.052,0.728-1.215,1.408c0.337,0.768,1.016,0.967,1.761,1.01
		c1.421,0.084,2.848,0.086,4.261,0.227c1.124,0.109,1.931-0.389,2.906-0.961c-1.702-2.721-3.859-4.123-6.899-3.729
		c-0.282-0.504-0.331-0.863,0.226-1.013c0.192-0.053,0.407-0.013,0.611-0.025c1.606-0.112,1.606-0.112,2.006-2.047
		c-0.184-0.172-0.38-0.399-0.62-0.565c-0.248-0.171-0.54-0.28-0.787-0.403c-0.819,0.194-0.332,0.873-0.714,1.481
		c-0.889-0.119-1.89,0.074-2.926-0.67c-0.751-0.539-1.837-0.612-2.955-0.947c0.798-0.346,1.503-0.651,2.481-1.076
		c-0.853-0.733-1.527-1.313-2.144-1.842c0.424-0.914,0.847-1.828,1.365-2.942c-0.98-0.896-1.876-1.713-2.811-2.566
		c1.049-1.004,2.782-1.188,3.056-2.92c-0.383-0.892-1.805-1.094-1.658-2.615c1.082-0.942,2.304-1.953,3.87-2.518
		c0.283-0.103,0.503-0.599,0.583-0.952c0.036-0.161-0.323-0.579-0.53-0.601c-0.826-0.082-1.173-0.744-1.71-1.197
		c-0.539-0.453-1.196-0.771-1.882-1.195c0.503-0.78,0.88-1.491,1.378-2.107c0.376-0.466,0.847-1.036,1.373-1.166
		c1.883-0.466,3.583-1.414,5.565-1.688c3.358-0.465,6.663-1.306,9.986-2.012c0.135-0.029,0.221-0.295,0.333-0.455
		c-0.035-0.566-0.488-0.614-0.878-0.621c-2.171-0.032-4.291,0.328-6.384,0.879c-1.679,0.442-3.36,0.877-5.107,1.332
		c-0.712-0.897-1.294-1.72-1.967-2.457C5.72,24.296,4.74,24.673,3.657,24.7c1.474-1.672,3.311-2.031,5.103-2.372
		c2.922-0.556,5.875-0.941,8.801-1.479c3.028-0.556,6.017-1.383,9.064-1.751c1.844-0.223,3.742-0.833,5.645-0.201
		c0.176,0.06,0.438,0.092,0.575,0.004c2.238-1.438,4.699-0.932,7.116-0.861c1.029,0.028,2.06-0.051,3.09-0.087
		c1.166-0.041,2.219-0.376,2.964-1.259c0.789,0.267,1.468,0.725,2.106,0.673c2.552-0.206,5.119,0.014,7.667-0.511
		c2.108-0.434,4.289-0.571,6.444-0.715c5.412-0.356,10.817-0.744,16.214-1.344c4.384-0.488,8.809-0.599,13.211-0.93
		c1.828-0.138,3.643-0.437,5.467-0.625c2.249-0.232,4.496-0.512,6.754,0.026c0.463,0.109,1.015-0.042,1.503-0.163
		c2.698-0.669,5.376-1.142,8.186-0.503c1.269,0.289,2.591-0.042,3.907-0.389c1.97-0.521,4.023-0.758,6.058-0.973
		c0.54-0.057,1.146,0.381,1.699,0.643c0.78,0.367,1.513,0.424,2.38,0.171c1.646-0.481,3.287-0.707,5.086-0.534
		c2.102,0.202,4.317-0.006,6.383-0.65c1.176-0.368,2.202-0.378,3.261,0.216c1.067,0.599,2.136,0.492,3.265,0.083
		c1.722-0.625,3.677-0.087,5.355-1.009c1.296,0.508,2.637,0.181,3.958,0.235c2.987,0.123,5.908-0.689,8.907-0.461
		c1.633,0.125,1.646-0.043,3.73-1.212c1.237,0.546,2.48,0.7,3.875,0.511c2.321-0.315,4.682-0.349,7.024-0.518
		c0.513-0.037,1.044-0.074,1.524-0.24c1.555-0.537,3.082-1.185,4.764-0.47c0.17,0.071,0.439,0.051,0.605-0.037
		c2.287-1.206,4.843-0.726,7.254-1.142c1.404-0.242,2.873-0.103,4.313-0.168c1.742-0.081,3.482-0.201,5.226-0.302
		c1.952-0.109,3.905-0.234,5.862-0.315c3.179-0.132,6.356-0.274,9.537-0.33c1.541-0.028,3.086,0.199,4.627,0.188
		c3.176-0.023,6.353-0.132,9.527-0.204c0.104-0.003,0.237-0.047,0.303,0.001c0.303,0.228,0.748,0.43,0.838,0.73
		c0.164,0.544-0.16,1.046-0.729,1.15c-0.938,0.173-1.843,0.02-2.637-0.583c-0.854-0.647-1.77-0.724-2.483,0.108
		c-0.55,0.642-1.192,0.772-1.918,0.756c-1.237-0.026-2.549,0.129-3.687-0.235c-0.981-0.315-1.828,0.157-2.711-0.043
		c-0.965-0.22-1.271,0.539-1.635,1.111c-0.428,0.678,0.006,1.585,0.768,1.645c0.921,0.07,1.962,0.309,2.753-0.016
		c1.967-0.8,3.836,0.034,5.741,0.032c0.597,0,1.192,0.217,1.789,0.334c-0.086,0.387-0.166,0.747-0.248,1.111
		c1.24,0.306,2.459-0.459,3.636,0.262c0.196,0.121,0.813-0.439,1.228-0.685c-0.287-0.521-0.521-0.944-0.869-1.573
		c1.471-0.009,1.532,1.166,2.18,1.868c1.102,0.159,2.285,0.786,3.438,0.044c0.448-0.288,0.686-0.565,1.307-0.357
		c1.969,0.655,4.002,0.578,6.033,0.304c1.479-0.199,2.875-0.111,3.65,0.878c1.77-0.122,3.188-0.224,4.604-0.316
		c0.309-0.021,0.719-0.14,0.912,0.007c2.099,1.583,4.563,0.537,6.895,1.021c0.094,0.479,0.041,1.119,0.336,1.465
		c0.275,0.323,0.91,0.377,1.4,0.467c0.399,0.072,0.824,0.033,1.235,0.027c8.96-0.135,17.918,0.07,26.878,0.073
		c1.428,0.002,2.854-0.199,4.446-0.319c0.144,0.643,0.285,1.287,0.455,2.054c4.315,0.078,8.632,0.155,13.517,0.243
		c-1.242,0.837-2.195,0.76-2.961,0.68c-1.271-0.135-2.438-0.014-3.639,0.359c-0.674,0.209-1.422,0.232-2.139,0.242
		c-1.006,0.012-1.988-0.138-2.649,0.963c-0.179,0.294-0.878,0.271-1.603,0.466c1.69,0.796,3.23,0.384,4.695,0.564
		c1.516,0.188,3.041,0.287,4.508,0.423c0.162,0.766-0.277,0.954-0.676,0.899c-1.213-0.162-2.402,0.451-3.662-0.11
		c-0.828-0.368-1.707,0.19-3.127,0.835c1.334,0.183,2.021,0.381,2.703,0.351c2.164-0.094,4.328,0.214,6.449,0.173
		c2.178-0.042,4.25,0.298,6.367,0.503c2.141,0.207,4.305,0.449,6.439,0.334c1.932-0.104,3.563,0.916,5.406,1.019
		c0.186,0.01,0.494,0.442,0.48,0.666c-0.012,0.216-0.346,0.565-0.568,0.594c-2.045,0.244-4.092,0.457-6.145,0.621
		c-1.189,0.094-2.371,0.162-3.836,0.504c0.492,0.425,0.684,0.737,0.904,0.76c1.844,0.184,3.689,0.423,5.537,0.437
		c5.055,0.035,10.109-0.049,15.164-0.047c1.422,0,2.779,0.214,4.195,0.666c1.596,0.509,3.467,0.406,5.182,0.224
		c3.594-0.384,7.225-0.455,10.758-0.085c4.717,0.496,9.455,0.223,14.158,0.826c3.457,0.442,6.963,0.521,10.441,0.854
		c-3.6,0.61-7.213,0.169-10.816,0.237c-1.328,0.024-2.652,0.218-3.982,0.292c-0.814,0.045-1.645,0.089-2.449,0
		c-3.684-0.408-7.328-0.448-10.998,0.304c-1.688,0.346-3.494,0.208-5.24,0.127c-3.621-0.165-7.211,0.21-10.795,0.567
		c-1.641,0.162-3.273-0.484-4.895,0.114c-0.477,0.176-1.105,0.082-1.48,0.357c-1.002,0.742-2.07,0.847-3.225,0.643
		c-1.162-0.208-2.01,0.131-2.496,1.271c-0.105,0.245-0.412,0.405-0.791,0.76c1.285,0.47,2.406,0.876,3.678,1.338
		c-0.08,0.47-0.158,0.929-0.236,1.396c-7.148-0.24-14.117-0.455-21.092-0.271c-0.602,0.017-1.199,0.216-1.916,0.353
		c-0.17,1.033-0.328,1.998-0.5,3.031c1.15,0.438,2.139,0.602,3.154,0.291c1.926-0.586,3.877-0.39,5.83-0.261
		c2.568,0.172,5.135,0.396,7.705,0.459c4.512,0.109,9.029,0.043,13.539,0.194c2.148,0.072,4.283,0.479,6.654,0.762
		c0.131,0.317,0.314,0.765,0.496,1.204c2.848,1.01,2.848,1.01,3.434,2.537c0.881,0.824,2.502,0.066,3.352,1.617
		c-1.406,0.393-2.654,0.548-3.959,0.501c-1.441-0.052-2.893,0.056-4.33-0.044c-3.729-0.258-7.393,0.502-11.096,0.647
		c-0.291,0.014-0.578,0.193-0.93,0.318c0.049,0.387,0.096,0.758,0.168,1.338c-0.873,0.105-1.771,0.128-2.621,0.34
		c-0.869,0.218-1.693,0.619-2.773,1.031c2.055,2.236,4.807,1.151,6.945,2.121c-0.1,0.604-0.57,0.355-0.898,0.375
		c-1.844,0.111-3.689,0.205-5.535,0.309c-0.203,0.013-0.477-0.025-0.604,0.086c-1.656,1.468-3.707,0.9-5.604,1.125
		c-2.412,0.285-4.818,0.611-7.568,0.965c0.959,0.837,1.91,0.849,2.738,1.05c0.779,0.188,1.629,0.256,2.428,0.178
		c1.762-0.174,3.426-0.281,4.961,0.949c0.484,0.389,1.387,0.281,2.104,0.346c1.336,0.12,2.678,0.167,4.012,0.313
		c0.488,0.053,1.029,0.205,1.17,1.073c-2.072,0.513-4.16,1.028-6.221,1.537c-0.039,0.612,0.23,0.785,0.719,0.833
		c1.826,0.178,3.664,0.301,5.471,0.611c1.598,0.276,3.135,0.917,4.736,1.144c1.619,0.229,3.285,0.142,4.932,0.201
		c0.361,0.015,0.723,0.063,1.129,0.472c-0.346,0.125-0.684,0.327-1.039,0.36c-1.35,0.126-2.582,0.431-3.76,1.23
		c-0.707,0.479-1.744,0.548-2.652,0.649c-1.432,0.163-2.883,0.172-4.32,0.303c-0.691,0.063-1.371,0.253-2.18,0.407
		c0.719,1.247,1.855,0.432,2.766,1.023c0.047,0.341,0.107,0.811,0.191,1.441c4.496,0.542,9.119,0.148,13.813,1.017
		c-1.139,0.97-2.299,0.827-3.416,0.867c-1.648,0.059-3.299,0.066-4.941,0.193c-0.896,0.069-1.889,0.022-2.654,0.997
		c0.318,0.229,0.604,0.585,0.941,0.647c1.713,0.314,3.438,0.603,5.166,0.808c1.723,0.203,3.494,0.096,4.871,1.504
		c0.303,0.312,1.012,0.182,1.453,0.406c0.531,0.271,1.277,0.628,1.395,1.084c0.221,0.868,0.678,1.168,1.443,1.32
		c0.283,0.055,0.748,0.221,0.773,0.391c0.133,0.844,0.844,1.171,1.318,1.707c0.088,0.101-0.039,0.392-0.096,0.809
		c-1.865,0.104-3.777,0.21-5.947,0.33c0.984,1.019,2.063,0.757,2.977,0.968c0.895,0.207,1.842,0.201,2.764,0.303
		c1.025,0.113,2.051,0.232,3.074,0.369c0.881,0.119,1.758,0.267,2.68,0.805c-0.914,0.31-1.828,0.623-2.744,0.926
		c-0.957,0.315-1.918,0.619-3.115,1.007c1.264,0.77,2.523,0.844,3.764,0.975c0.818,0.087,1.65,0.105,2.453,0.271
		c0.338,0.07,0.811,0.394,0.877,0.681c0.162,0.688-0.469,0.849-0.969,0.889c-1.732,0.14-3.471,0.236-5.207,0.316
		c-1.217,0.056-2.479-0.162-3.676,0.824c1.482,1.282,3.641,1.126,5.137,2.655c-4.441-0.094-8.725-0.188-13.006-0.272
		c-2.973-0.06-5.947-0.166-8.916-0.118c-1.107,0.017-2.207,0.417-3.309,0.636c-0.5,0.1-1.016,0.301-1.498,0.244
		c-0.984-0.116-1.855-1.401-2.957-0.25c-1.023-0.034-2.051-0.146-3.068-0.081c-1.506,0.099-3.051-0.134-4.451,0.858
		c-0.615,0.434-1.584,0.342-2.365,0.575c-0.564,0.17-1.086,0.484-1.627,0.73c0.037-0.244,0.074-0.482,0.113-0.723
		c-0.02-0.004-0.037-0.007-0.055-0.009C307.778,96.432,307.752,96.671,307.729,96.909z M194.929,112.879
		c0.021-0.187,0.043-0.371,0.058-0.558c0.008-0.085-0.006-0.173-0.01-0.26c-0.07,0.127-0.207,0.259-0.197,0.378
		c0.016,0.179,0.137,0.348,0.213,0.52c-0.096-0.016-0.199-0.06-0.283-0.037c-0.162,0.043-0.338,0.098-0.457,0.204
		c-0.037,0.034,0.082,0.247,0.131,0.378c0.134-0.121,0.271-0.237,0.4-0.365C194.85,113.072,194.899,112.986,194.929,112.879z
		 M164.155,113.701c-0.127,0.146-0.27,0.282-0.371,0.444c-0.029,0.048,0.059,0.17,0.092,0.258c0.137-0.08,0.387-0.16,0.386-0.237
		c-0.005-0.182-0.128-0.359-0.2-0.541c0.65,0.746,1.434,1.127,2.424,0.817c0.133-0.04,0.26-0.314,0.264-0.483
		c0.004-0.17-0.157-0.496-0.23-0.492C165.724,113.512,164.934,113.608,164.155,113.701z M220.551,111.186
		c0.589,0.257,1.177,0.516,2.134,0.935c-0.279-0.693-0.331-1.281-0.624-1.451c-0.596-0.348-1.113,0.022-1.453,0.59
		c-0.447-0.162-0.896-0.322-1.597-0.576c-0.058,0.854-0.099,1.463-0.147,2.191C219.806,112.448,220.674,112.269,220.551,111.186z
		 M7.432,41.184c2.275,0.314,4.036,0.185,5.696-0.707c0.146-0.079,0.203-0.324,0.314-0.516c-0.265-0.606-0.536-1.228-0.781-1.787
		c-1.129-0.447-2.049-0.408-2.842,0.52C9.189,39.432,8.477,40.102,7.432,41.184z M221.724,115.323
		c1.454,1.849,2.569,0.665,3.618-0.184c0.773,0.815,1.486,1.333,2.488,0.725c0.426-0.26,0.869-0.491,1.297-0.75
		c0.33-0.198,0.932,0.367,1.188-0.617c-1.509,0.438-2.792-0.908-4.141-0.176C224.792,115.073,223.075,113.939,221.724,115.323z
		 M298.459,96.098c-2.6,0.87-4.873-0.213-7.055,0.679c-0.179,0.592-0.427,1.178,0.551,1.338c0.558,0.093,1.09,0.329,1.629,0.499
		c0.735-0.918,1.438-1.557,2.795-0.87C297.065,98.087,297.913,97.6,298.459,96.098z M60.059,127.396
		c1.193,0.066,1.677,0.103,2.161,0.117c0.501,0.016,1.033,0.117,1.496-0.015c0.404-0.115,0.731-0.503,1.075-0.758
		c0.918,1.779-0.771,1.743-1.861,2.551c1.08-0.063,1.754-0.102,2.39-0.138c0.485-1.428,0.757-2.698,0.106-4.189
		c-0.639,0.087-1.668-0.055-1.905,0.313C62.831,126.35,61.651,126.56,60.059,127.396z M211.75,112.82
		c1.256,0,2.045-0.049,2.822,0.015c0.756,0.06,1.499,0.233,2.249,0.36c0.847-1.394,0.744-1.655-0.698-1.854
		c-0.396-0.055-0.775-0.196-1.168-0.26C213.754,110.884,212.793,111.24,211.75,112.82z M190.061,111.758
		c-2.604,0.13-4.623,0.223-6.639,0.349c-0.146,0.011-0.349,0.237-0.398,0.399c-0.045,0.152,0.021,0.423,0.139,0.524
		c1.391,1.212,2.953-0.104,4.412,0.28c0.814,0.214,1.359-0.291,1.877-0.809C189.518,112.437,189.573,112.357,190.061,111.758z
		 M12.59,51.078c-1.521-1.882-3.514-0.843-5.748-1.271c0.925,0.81,1.454,1.289,2.006,1.743c0.146,0.12,0.36,0.165,0.547,0.229
		c0.094,0.031,0.203,0.048,0.3,0.035c0.705-0.078,1.415-0.132,2.11-0.267C12.074,51.498,12.307,51.256,12.59,51.078z
		 M227.635,112.635c-0.311-2.104-0.309-2.088-2.133-1.928c-0.375,0.032-0.767-0.146-1.15-0.146c-0.129,0.001-0.258,0.26-0.387,0.403
		c0.229,0.454,0.455,0.909,0.738,1.478C225.625,112.504,226.61,112.568,227.635,112.635z M55.151,128.21
		c-1.395-0.273-2.344-0.459-3.491-0.684c-0.077,0.834-0.136,1.478-0.202,2.194C52.948,129.939,54.134,129.934,55.151,128.21z
		 M297.184,22.489c-0.813-1.362-1.986-0.466-2.964-0.485c-0.571-0.012-0.917,0.349-0.779,0.993
		C295.607,23.289,295.607,23.289,297.184,22.489z M302.592,96.955c-0.014-0.193-0.027-0.388-0.043-0.579
		c-0.738-0.243-1.465-0.528-2.219-0.704c-0.209-0.047-0.676,0.205-0.705,0.371c-0.057,0.35,0.018,0.783,0.199,1.084
		c0.121,0.203,0.539,0.366,0.789,0.328C301.284,97.352,301.934,97.129,302.592,96.955z M220.543,115.604
		c-0.051-0.177-0.103-0.354-0.152-0.531c-0.792,0.047-1.59,0.18-2.371,0.114c-0.77-0.063-1.525-0.325-2.553-0.561
		c0.091,0.641,0.152,1.083,0.221,1.563c1.355-0.342,2.559-0.877,3.861-0.229C219.768,116.071,220.208,115.736,220.543,115.604z
		 M146.633,116.291c1.067,0,1.92,0,2.939,0c-0.046-0.595-0.083-1.06-0.114-1.459c-0.952-0.072-1.694-0.129-2.515-0.191
		C146.836,115.211,146.749,115.684,146.633,116.291z M59.041,129.082c-0.985-0.556-1.704-1.202-2.587-0.347
		c-0.305,0.295-0.369,0.686,0.238,1.044C57.323,129.593,58.061,129.373,59.041,129.082z M172.028,113.119
		c0.666,0.482,0.773,1.319,1.779,0.939c0.069-0.319,0.162-0.743,0.308-1.409C173.29,112.836,172.752,112.957,172.028,113.119z
		 M198.928,112.823c0.611-0.43,1.087-0.764,1.586-1.112c-0.508-1.088-1.146-0.812-1.779-0.359
		C198.2,111.73,198.243,112.169,198.928,112.823z M20.228,121.064c0.87,0.229,1.145,0.349,1.425,0.361
		c0.396,0.021,0.9-0.043,0.762-0.576c-0.067-0.259-0.552-0.567-0.847-0.567C21.256,120.281,20.945,120.623,20.228,121.064z
		 M182.393,10.448c-0.345,0.256-0.633,0.468-0.922,0.681c0.229,0.144,0.485,0.434,0.682,0.397c0.331-0.061,0.625-0.329,0.934-0.509
		C182.885,10.853,182.686,10.688,182.393,10.448z M156.297,114.304c0,0.173,0,0.345,0.002,0.517c0.359,0.146,0.711,0.38,1.083,0.423
		c0.825,0.093,0.669-0.445,0.491-1.089C157.356,114.203,156.826,114.254,156.297,114.304z M162.606,113.104
		c-0.275,0.512-0.481,0.814-0.594,1.149c-0.032,0.099,0.181,0.39,0.313,0.413c0.471,0.082,0.732-0.203,0.707-0.648
		C163.018,113.784,162.829,113.561,162.606,113.104z M181.436,112.648c-0.225-0.217-0.41-0.539-0.615-0.551
		c-0.18-0.011-0.57,0.379-0.536,0.495c0.092,0.313,0.36,0.574,0.56,0.855C181.02,113.212,181.196,112.975,181.436,112.648z
		 M175.639,113.844c0.61-0.32,1.098-0.561,1.561-0.843c0.043-0.026-0.033-0.434-0.129-0.471
		C176.465,112.295,175.805,112.822,175.639,113.844z M300.432,40.924c1.383,0.505,1.383,0.505,1.85,0
		C301.67,40.924,301.106,40.924,300.432,40.924z M231.26,115.16c1.182-0.091,1.662-0.06,2.089-0.193
		c0.157-0.05,0.305-0.525,0.241-0.744c-0.043-0.152-0.519-0.34-0.688-0.264C232.511,114.133,232.188,114.46,231.26,115.16z
		 M144.401,114.33c-0.174,0.58-0.338,0.896-0.325,1.207c0.005,0.106,0.515,0.334,0.671,0.258c0.183-0.09,0.321-0.459,0.305-0.695
		C145.04,114.911,144.764,114.74,144.401,114.33z M230.075,111.814c-0.117-0.342-0.209-0.612-0.303-0.886
		c-0.188,0.302-0.441,0.585-0.535,0.915c-0.042,0.146,0.24,0.385,0.375,0.582C229.768,112.221,229.922,112.015,230.075,111.814z
		 M17.167,107.006c-0.212,0.173-0.466,0.313-0.607,0.527c-0.065,0.1,0.041,0.413,0.165,0.512c0.32,0.254,0.866-0.101,0.819-0.535
		C17.527,107.358,17.337,107.225,17.167,107.006z M258.418,13.883c-0.33,0.313-0.646,0.479-0.656,0.664
		c-0.012,0.198,0.225,0.522,0.422,0.59c0.201,0.068,0.486-0.111,0.734-0.182C258.774,14.644,258.627,14.333,258.418,13.883z
		 M257.42,103.209c-0.164,0.047-0.328,0.094-0.492,0.143c0.055,0.162,0.064,0.401,0.176,0.466c0.104,0.062,0.313-0.064,0.479-0.109
		C257.528,103.541,257.475,103.375,257.42,103.209z M53.934,126.727c0.233,0.125,0.377,0.201,0.52,0.277
		c0.086-0.172,0.236-0.346,0.234-0.518c-0.002-0.135-0.193-0.267-0.301-0.399C54.239,126.297,54.09,126.506,53.934,126.727z
		 M231.817,106.168c-0.232-0.129-0.436-0.293-0.664-0.343c-0.086-0.02-0.229,0.23-0.346,0.357c0.199,0.175,0.4,0.349,0.6,0.523
		C231.515,106.564,231.624,106.422,231.817,106.168z M239.868,110.967c-0.146,0.069-0.384,0.111-0.416,0.216
		c-0.043,0.138,0.076,0.325,0.127,0.491c0.15-0.074,0.385-0.115,0.43-0.23C240.055,111.321,239.922,111.129,239.868,110.967z
		 M170.432,113.044c-0.153,0.076-0.381,0.116-0.437,0.236c-0.05,0.11,0.085,0.308,0.138,0.466c0.162-0.076,0.391-0.113,0.463-0.24
		C170.648,113.412,170.495,113.203,170.432,113.044z M208.72,112.319c0.147,0.237,0.265,0.525,0.331,0.516
		c0.257-0.045,0.496-0.185,0.744-0.287c-0.133-0.191-0.25-0.524-0.401-0.541C209.185,111.983,208.952,112.201,208.72,112.319z
		 M202.124,110.961c-0.156,0.054-0.401,0.069-0.442,0.172c-0.052,0.122,0.069,0.315,0.116,0.479
		c0.201-0.071,0.402-0.145,0.604-0.217C202.308,111.25,202.215,111.105,202.124,110.961z M205.11,108.264
		c0.016-0.137,0.027-0.273,0.042-0.41c-0.319-0.063-0.638-0.168-0.958-0.178c-0.166-0.006-0.335,0.158-0.502,0.246
		c0.123,0.113,0.234,0.309,0.371,0.327C204.407,108.296,204.76,108.264,205.11,108.264z M213.684,106.99
		c-0.125,0.167-0.266,0.355-0.406,0.544c0.157,0.09,0.37,0.29,0.461,0.245c0.219-0.104,0.377-0.328,0.559-0.506
		C214.131,107.197,213.965,107.119,213.684,106.99z M153.879,114.895c0.307,0.139,0.563,0.253,0.818,0.367
		c0.041-0.178,0.168-0.409,0.1-0.52c-0.076-0.123-0.332-0.189-0.505-0.183C154.171,114.566,154.059,114.74,153.879,114.895z
		 M26.777,132.521c-0.188,0.012-0.377,0.024-0.565,0.037c0.057,0.133,0.092,0.361,0.177,0.383c0.177,0.043,0.38-0.022,0.573-0.045
		C26.9,132.771,26.839,132.646,26.777,132.521z M159.698,114.889c0.469-0.617,0.448-1.113-0.044-1.611
		C159.347,114.039,159.347,114.039,159.698,114.889z M219.389,107.244c0.18,0.195,0.295,0.321,0.41,0.446
		c0.102-0.147,0.277-0.294,0.283-0.444c0.004-0.148-0.164-0.304-0.256-0.454C219.672,106.951,219.518,107.111,219.389,107.244z
		 M225.735,11.602c0.116,0.104,0.234,0.209,0.352,0.313c0.063-0.076,0.187-0.163,0.175-0.228c-0.027-0.164-0.117-0.315-0.181-0.474
		C225.963,11.344,225.849,11.473,225.735,11.602z M231.499,110.849c0,0.161-0.002,0.325,0.008,0.49
		c0.002,0.005,0.195,0.007,0.195,0.001c0.014-0.164,0.014-0.326,0.016-0.491C231.647,110.849,231.577,110.849,231.499,110.849z
		 M237.168,104.231c0.115-0.139,0.223-0.265,0.315-0.4c0.005-0.01-0.123-0.105-0.188-0.16c-0.098,0.127-0.205,0.248-0.287,0.385
		C236.999,104.075,237.112,104.17,237.168,104.231z M237.633,111.293c-0.077,0.125-0.25,0.28-0.254,0.44
		c-0.002,0.164,0.162,0.33,0.254,0.494c0.131-0.194,0.306-0.377,0.365-0.592C238.022,111.562,237.76,111.406,237.633,111.293z
		 M294.079,19.649c-0.08,0.165-0.16,0.329-0.238,0.493c0.166,0.076,0.363,0.247,0.486,0.204c0.129-0.046,0.187-0.296,0.273-0.458
		C294.426,19.809,294.252,19.729,294.079,19.649z M324.729,71.082c-0.168,0.088-0.336,0.177-0.504,0.266
		c0.15,0.105,0.297,0.288,0.449,0.293c0.168,0.006,0.34-0.156,0.51-0.245C325.034,71.291,324.881,71.186,324.729,71.082z
		 M288.309,96.594c-0.17,0.055-0.344,0.111-0.514,0.166c0.061,0.067,0.115,0.184,0.182,0.193c0.168,0.02,0.342-0.011,0.514-0.021
		C288.43,96.82,288.372,96.707,288.309,96.594z M28.291,134.401c0.027,0.068,0.071,0.198,0.079,0.196
		c0.143-0.041,0.283-0.097,0.423-0.149c-0.028-0.072-0.055-0.146-0.083-0.22C28.57,134.285,28.43,134.344,28.291,134.401z
		 M126.793,116.664c-0.02,0.157-0.036,0.313-0.053,0.473c0.055-0.072,0.145-0.141,0.152-0.219
		C126.902,116.838,126.831,116.749,126.793,116.664z M30.305,127.008c-0.068,0.055-0.137,0.106-0.206,0.16
		c0.062,0.061,0.165,0.18,0.177,0.171c0.1-0.071,0.182-0.166,0.269-0.254C30.465,127.061,30.384,127.034,30.305,127.008z
		 M14.46,101.873l0.219-0.115l-0.23-0.09L14.46,101.873z M8.479,39.048l0.119-0.208L8.4,38.813L8.479,39.048z M57.638,126.529
		c-0.14-0.069-0.276-0.159-0.425-0.2c-0.047-0.014-0.193,0.143-0.186,0.155c0.072,0.119,0.185,0.324,0.254,0.313
		C57.411,126.776,57.521,126.628,57.638,126.529z M286.682,18.658c-0.072,0.052-0.209,0.114-0.202,0.151
		c0.03,0.156,0.104,0.305,0.161,0.457c0.068-0.055,0.201-0.121,0.193-0.164C286.81,18.951,286.737,18.805,286.682,18.658z
		 M279.913,96.567c-0.062,0.065-0.166,0.128-0.172,0.194c-0.002,0.066,0.1,0.139,0.154,0.208c0.09-0.101,0.18-0.202,0.27-0.302
		C280.081,96.634,279.997,96.601,279.913,96.567z M343.145,46.596l0.164,0.101l0.023-0.163L343.145,46.596z M321.967,52.799
		c0.074-0.012,0.184,0.004,0.221-0.039c0.049-0.062,0.043-0.166,0.061-0.252c-0.123,0.02-0.248,0.038-0.373,0.057
		C321.907,52.643,321.936,52.721,321.967,52.799z M178.249,112.91c0.077,0.028,0.154,0.059,0.231,0.087
		c0.015-0.11,0.026-0.223,0.041-0.333c-0.083,0.014-0.179,0.002-0.241,0.045C178.241,112.734,178.256,112.841,178.249,112.91z
		 M199.872,107.921c0.125,0.021,0.25,0.043,0.377,0.063c-0.054-0.053-0.104-0.14-0.164-0.148
		C200.019,107.823,199.942,107.889,199.872,107.921z M169.474,11.826c-0.031,0.066-0.062,0.135-0.093,0.201
		c0.111,0.02,0.223,0.037,0.332,0.058c-0.01-0.075,0.005-0.169-0.035-0.217C169.641,11.826,169.545,11.839,169.474,11.826z
		 M235.514,113.002l0.025-0.212l-0.252,0.083L235.514,113.002z M225.958,107.086c-0.063,0.067-0.172,0.136-0.174,0.205
		c-0.003,0.069,0.104,0.143,0.162,0.213c0.092-0.105,0.182-0.211,0.271-0.317C226.129,107.152,226.045,107.119,225.958,107.086z
		 M246.524,105.572c0.193,0.053,0.363,0.12,0.535,0.132c0.055,0.003,0.119-0.148,0.178-0.229c-0.148-0.091-0.291-0.229-0.449-0.25
		C246.717,105.216,246.618,105.443,246.524,105.572z M204.258,111.639c-0.074-0.029-0.157-0.092-0.221-0.075
		c-0.043,0.012-0.103,0.163-0.078,0.196c0.041,0.057,0.143,0.07,0.219,0.104C204.206,111.788,204.232,111.714,204.258,111.639z
		 M205.463,112.779c0.065-0.02,0.164-0.018,0.189-0.061c0.047-0.072,0.044-0.172,0.063-0.26c-0.112,0.024-0.225,0.051-0.338,0.076
		C205.407,112.615,205.435,112.697,205.463,112.779z"/>
	<path fill="#FFFFFF" d="M328.875,123.971c1.217,0.738,2.027,1.527,2.955,1.707s1.971-0.262,2.965-0.412
		c1.813-0.272,3.621-0.58,5.441-0.778c0.99-0.106,2-0.02,3.191-0.02c0.066,0.716,0.121,1.298,0.174,1.884
		c-0.168,0.129-0.316,0.346-0.471,0.349c-2.143,0.034-4.379,0.438-6.408-0.039c-3.072-0.726-6.098-0.382-9.146-0.422
		c-0.477-0.007-1.025,0.417-1.422,0.284c-2.455-0.828-5.082,0.14-7.51-0.786c-0.164-0.063-0.295-0.214-0.529-0.392
		c1.063-1.301,2.84,0.607,3.908-1.02c1.096,0.512,1.973,1.879,3.469,1.33C326.633,125.239,328.223,125.941,328.875,123.971z"/>
	<path fill="#FFFFFF" d="M205.938,0.268c-3.275,1.271-6.619,1.398-9.977,1.523c-3.265,0.123-6.525,0.375-9.729,0.566
		c-0.529-0.711-0.083-1.029,0.368-1.268c1.248-0.658,2.619-0.559,3.926-0.356c0.725,0.111,1.385,0.047,2.09,0.029
		c3.994-0.1,7.965-0.58,11.955-0.678C205.024,0.075,205.483,0.205,205.938,0.268z"/>
	<path fill="#FFFFFF" d="M74.049,10.605c1.738-1.453,3.707-1.331,5.616-1.289c2.038,0.045,4.011-0.016,6.026-0.487
		c2.07-0.484,4.236-0.552,6.364-0.771c0.128-0.014,0.399,0.248,0.401,0.385c0.005,0.264-0.062,0.611-0.237,0.771
		c-0.199,0.18-0.593,0.324-0.831,0.252c-1.33-0.396-2.583-0.32-3.893,0.175c-0.498,0.188-1.291-0.354-1.759-0.142
		c-2.831,1.279-5.83,0.32-8.711,0.777C76.042,10.433,75.042,10.498,74.049,10.605z"/>
	<path fill="#FFFFFF" d="M296.542,105.481c-0.528-0.313-0.888-0.455-1.146-0.702c-0.192-0.186-0.386-0.526-0.345-0.76
		c0.039-0.219,0.355-0.49,0.597-0.549c0.481-0.119,0.996-0.107,1.412-0.143c0.853,0.778-0.228,1.379,0.056,2.168
		c0.297,0.22,0.692,0.513,1.26,0.934c-1.506,0.516-2.715,1.373-4.396,0.607c-0.72-0.329-1.771,0.12-2.666,0.102
		c-0.524-0.012-0.979-0.307-0.765-1.209C292.372,105.716,294.36,107.325,296.542,105.481z"/>
	<path fill="#FFFFFF" d="M33.993,11.557c-0.696,0.898-0.877,1.382-1.134,1.426c-2.885,0.499-5.782,0.931-8.675,1.378
		c-0.381-0.827,0.274-0.973,0.654-1.096c1.16-0.378,2.337-0.734,3.535-0.953C29.963,12.023,31.577,11.873,33.993,11.557z"/>
	<path fill="#FFFFFF" d="M122.33,7.02c-0.712,0.032-1.425,0.066-2.138,0.097c-0.922,0.037-1.914-0.136-2.752,0.148
		c-2.229,0.755-4.479,0.343-6.723,0.389c-0.055,0.001-0.113-0.16-0.223-0.328c0.204-0.164,0.403-0.472,0.627-0.488
		c3.561-0.285,7.121-0.625,10.7-0.51c0.173,0.006,0.333,0.451,0.5,0.692H122.33z"/>
	<path fill="#FFFFFF" d="M18.976,15.273c-0.176,0.107-0.34,0.275-0.529,0.313c-1.982,0.387-3.964,0.768-5.957,1.096
		c-0.193,0.031-0.446-0.311-0.901-0.65c1.276-0.607,2.32-1.267,3.458-1.6c1.051-0.308,2.202-0.264,3.522-0.395
		c0.115,0.348,0.265,0.805,0.416,1.262L18.976,15.273z"/>
	<path fill="#FFFFFF" d="M49.717,133.252c-0.168,0.328-0.259,0.852-0.518,0.955c-1.691,0.676-3.589,0.758-5.16,1.821
		c-0.208,0.142-0.629,0.078-0.906-0.02c-0.258-0.092-0.574-0.32-0.646-0.556c-0.075-0.243,0.026-0.739,0.201-0.826
		c0.713-0.356,1.488-0.85,2.231-0.832c1.545,0.034,3.071,0.275,4.309-1.28C49.391,132.762,49.554,133.007,49.717,133.252z"/>
	<path fill="#FFFFFF" d="M312.536,102.404c-1.24-1.354-2.164-0.945-3.158-0.813c-0.848,0.115-1.764-0.281-2.76-0.472
		c-0.09-0.165-0.291-0.407-0.361-0.684c-0.127-0.509-0.137-1.074,0.477-1.269c0.609-0.194,0.904,0.232,1.08,0.765
		c0.061,0.186,0.178,0.35,0.361,0.704c0.371-0.498,0.693-0.927,1.068-1.427C310.928,99.129,312.094,99.746,312.536,102.404z"/>
	<path fill="#FFFFFF" d="M256.295,113.73c1.354-1.549,1.354-1.549,1.563-3.231c0.981,0.178,0.445,1.879,1.685,1.698
		c0.474-0.068,0.985,0.136,1.481,0.216c0.373,0.061,0.746,0.123,1.198,0.196C260.609,114.5,258.682,113.083,256.295,113.73z"/>
	<path fill="#FFFFFF" d="M57.583,11.823c-0.026-0.925,0.578-1.146,0.992-1.154c1.516-0.029,3.034,0.079,4.552,0.147
		c0.045,0.002,0.083,0.161,0.124,0.248C61.85,11.761,61.028,11.875,57.583,11.823z"/>
	<path fill="#FFFFFF" d="M103.125,8.479c-1.52,1.073-2.975,0.22-4.301,0.333c-0.34-0.705,0.024-0.982,0.41-1.06
		C100.741,7.453,101.379,7.588,103.125,8.479z"/>
	<path fill="#FFFFFF" d="M27.257,145.932c-1.27,0.039-1.836-0.979-2.519-1.764c-0.109-0.127,0.035-0.605,0.201-0.81
		c0.322-0.397,0.691-0.321,0.873,0.166c0.196,0.527,0.53,0.687,1.087,0.81C27.625,144.494,27.599,144.615,27.257,145.932z"/>
	<path fill="#FFFFFF" d="M168.596,3.242c1.256-0.288,2.506-0.605,3.771-0.844c0.336-0.063,0.775,0.024,1.062,0.208
		c0.294,0.188-0.294,0.844-0.878,0.904c-1.285,0.136-2.57,0.26-3.855,0.388C168.663,3.68,168.629,3.461,168.596,3.242z"/>
	<path fill="#FFFFFF" d="M301.854,107.488c-1.348-1.175-0.156-2.033-0.805-2.758c-0.625-0.594-2.135,0.56-2.408-1.087
		c1.039-0.853,1.85,0.632,2.982,0.223C301.69,104.902,301.75,105.873,301.854,107.488z"/>
	<path fill="#FFFFFF" d="M127.904,5.687c1.238-0.003,2.522-0.268,3.994,0.052c-1.474,0.793-2.109,0.867-3.997,0.535
		c-0.064-0.011-0.152-0.135-0.154-0.209C127.744,5.973,127.819,5.878,127.904,5.687z"/>
	<path fill="#FFFFFF" d="M53.542,11.924c-0.89,0.999-1.81,0.792-2.945,0.153c1.832-0.741,1.832-0.741,2.955-0.161L53.542,11.924z"/>
	<path fill="#FFFFFF" d="M41.127,149.534c-0.225,0.192-0.425,0.511-0.677,0.562c-1.845,0.365-3.702,0.679-5.554,1.008l0.064,0.079
		c1.565-0.898,2.854-1.321,4.114-1.411c0.689-0.049,1.373-0.17,2.058-0.259L41.127,149.534z"/>
	<path fill="#FFFFFF" d="M141.317,4.893c-1.396,1.146-2.693,1.317-4.094,1.094C138.698,4.97,138.868,4.921,141.317,4.893z"/>
	<path fill="#FFFFFF" d="M26.506,148.52c-0.741,1.668-0.906,1.846-1.708,1.552c-0.283-0.103-0.516-0.5-0.631-0.813
		c-0.04-0.107,0.325-0.489,0.55-0.541C25.273,148.591,25.856,148.583,26.506,148.52z"/>
	<path fill="#FFFFFF" d="M159.027,4.396c-1.135,0.729-2.231,0.474-3.579-0.188c1.234-0.792,2.413-0.029,3.457-0.335
		C158.945,4.047,158.987,4.223,159.027,4.396z"/>
	<path fill="#FFFFFF" d="M106.788,7.83c1.17-0.972,1.715-1.095,2.141-0.477c0.053,0.076,0.079,0.205,0.057,0.294
		C108.805,8.339,108.155,8.39,106.788,7.83z"/>
	<path fill="#FFFFFF" d="M182.077,2.018c0.508-0.215,1.004-0.49,1.533-0.612c0.167-0.037,0.544,0.305,0.606,0.532
		c0.046,0.17-0.244,0.617-0.407,0.628c-0.554,0.04-1.117-0.06-1.678-0.105C182.113,2.312,182.094,2.165,182.077,2.018z"/>
	<path fill="#FFFFFF" d="M322.93,127.205c0.313,0.467,0.646,0.739,0.643,1.01c-0.006,0.565-0.422,0.828-0.998,0.81
		c-0.449-0.015-0.861-0.247-0.723-0.664C321.981,127.978,322.44,127.707,322.93,127.205z"/>
	<path fill="#FFFFFF" d="M122.322,7.02c0.934-0.396,1.851-0.84,2.808-1.167c0.311-0.104,0.723,0.091,1.344,0.189
		c-1.307,1.666-2.917,0.417-4.143,0.978C122.33,7.02,122.322,7.02,122.322,7.02z"/>
	<path fill="#FFFFFF" d="M18.985,15.299c0.462-0.509,0.894-1.052,1.407-1.502c0.129-0.112,0.545,0.025,0.781,0.145
		c0.116,0.06,0.188,0.35,0.159,0.513c-0.03,0.171-0.182,0.422-0.321,0.454c-0.669,0.148-1.354,0.235-2.034,0.355
		C18.976,15.273,18.985,15.299,18.985,15.299z"/>
	<path fill="#FFFFFF" d="M287.032,106.969c0.439-0.736,0.828-1.386,1.225-2.047c0.695,1.231,0.691,1.283,0.259,1.916
		C288.352,107.076,288.357,107.08,287.032,106.969z"/>
	<path fill="#FFFFFF" d="M309.235,128.219c1.723-0.877,1.723-0.877,3.322-0.269C311.338,128.757,310.233,127.402,309.235,128.219z"
		/>
	<path fill="#FFFFFF" d="M310.231,108.512c-0.92,0.521-1.609,0.516-2.365-0.426c0.74-0.271,1.275-0.467,1.928-0.707
		C309.969,107.832,310.102,108.18,310.231,108.512z"/>
	<path fill="#FFFFFF" d="M68.108,9.902c-0.4,1.385-0.948,1.757-1.634,1.414c-0.31-0.153-0.392-0.852-0.052-1.021
		C66.829,10.095,67.323,10.073,68.108,9.902z"/>
	<path fill="#FFFFFF" d="M292.978,104.716c-0.649-0.141-1.312-0.284-1.985-0.429c0.09-0.295,0.104-0.581,0.199-0.613
		c0.479-0.155,0.975-0.277,1.473-0.349C293.213,103.248,293.317,103.641,292.978,104.716z"/>
	<path fill="#FFFFFF" d="M311.321,110.141c0.852,0.082,1.688,0.162,2.977,0.286c-1.004,0.413-1.535,0.729-2.105,0.841
		C311.567,111.389,311.282,110.969,311.321,110.141z"/>
	<path fill="#FFFFFF" d="M251.372,116.063c0.385-0.287,0.769-0.571,1.148-0.855c0.596,0.363,1.182,0.724,1.809,1.105
		c-0.142,0.122-0.27,0.312-0.354,0.293c-0.886-0.17-1.763-0.375-2.654-0.58C251.307,116.017,251.372,116.063,251.372,116.063z"/>
	<path fill="#FFFFFF" d="M4.964,56.539c0.225,0.397,0.475,0.634,0.456,0.847c-0.041,0.483-0.152,1.011-0.805,1.062
		c-0.489,0.037-1.054-0.604-0.805-0.977C4.048,57.114,4.499,56.9,4.964,56.539z"/>
	<path fill="#FFFFFF" d="M266.698,112.231c0.77,0,1.539,0,2.668,0c-0.371,0.512-0.559,0.772-0.748,1.033
		C268.137,112.484,267.161,113.027,266.698,112.231z"/>
	<path fill="#FFFFFF" d="M14.686,133.484c0.882-0.016,1.492,0.449,1.258,0.773c-0.189,0.263-0.632,0.486-0.951,0.471
		c-0.31-0.014-0.604-0.354-0.905-0.549C14.322,133.906,14.557,133.633,14.686,133.484z"/>
	<path fill="#FFFFFF" d="M160.903,3.731c0.4-0.805,0.973-0.652,1.511-0.313c0.204,0.129,0.28,0.455,0.415,0.691
		c-0.234,0.092-0.51,0.309-0.697,0.247C161.701,4.221,161.311,3.948,160.903,3.731z"/>
	<path fill="#FFFFFF" d="M66.074,134.597c0.624,0,1.245,0,2.221,0C67.425,135.541,66.775,135.506,66.074,134.597z"/>
	<path fill="#FFFFFF" d="M79.18,128.293c-0.32,0.797-0.656,1.446-1.526,0.876c-0.272-0.18-0.36-0.64-0.533-0.971
		c0.331-0.13,0.669-0.378,0.992-0.356C78.473,127.863,78.817,128.129,79.18,128.293z"/>
	<path fill="#FFFFFF" d="M209.624,0.43c0.853-0.563,1.433-0.59,2.049,0.023C211.022,1.091,210.438,1.027,209.624,0.43z"/>
	<path fill="#FFFFFF" d="M316.069,112.822c0.486-0.279,0.963-0.582,1.471-0.817c0.096-0.045,0.416,0.146,0.449,0.276
		c0.037,0.148-0.098,0.47-0.219,0.505c-0.521,0.151-1.064,0.226-1.602,0.326C316.135,113.016,316.102,112.918,316.069,112.822z"/>
	<path fill="#FFFFFF" d="M285.269,105.09c0.698,0.846,0.698,0.846,0,1.852C285.269,106.229,285.269,105.66,285.269,105.09z"/>
	<path fill="#FFFFFF" d="M15.278,138.123c0.455-0.43,0.782-0.738,1.11-1.047c0.148,0.225,0.466,0.514,0.41,0.659
		c-0.123,0.323-0.399,0.624-0.688,0.826C16.019,138.627,15.688,138.349,15.278,138.123z"/>
	<path fill="#FFFFFF" d="M45.234,148.521c0.435-0.401,0.749-0.692,1.064-0.983c0.165,0.209,0.512,0.488,0.464,0.612
		c-0.133,0.334-0.402,0.642-0.69,0.866C46.001,149.072,45.656,148.778,45.234,148.521z"/>
	<path fill="#FFFFFF" d="M166.502,3.758c-0.555-0.024-1.109-0.049-1.702-0.076c0.159-0.809,0.643-0.596,0.991-0.602
		c0.27-0.007,0.541,0.107,0.811,0.17C166.569,3.419,166.536,3.59,166.502,3.758z"/>
	<path fill="#FFFFFF" d="M337.899,116.066c0.275,0.03,0.432,0.004,0.471,0.06c0.105,0.156,0.268,0.467,0.225,0.504
		c-0.277,0.24-0.604,0.43-0.926,0.617c-0.02,0.012-0.213-0.166-0.197-0.205C337.604,116.693,337.766,116.357,337.899,116.066z"/>
	<path fill="#FFFFFF" d="M145.4,5.027c0.292-0.209,0.438-0.381,0.618-0.431c0.449-0.124,0.941-0.438,1.333,0.113
		c0.046,0.065,0.046,0.206,0.009,0.286c-0.266,0.567-0.83,0.707-1.556,0.387C145.718,5.345,145.656,5.257,145.4,5.027z"/>
	<path fill="#FFFFFF" d="M271.282,110.051c-0.673,0-1.345,0-2.018,0c-0.008-0.092-0.016-0.184-0.025-0.275
		c0.691-0.071,1.383-0.145,2.074-0.217C271.301,109.723,271.292,109.887,271.282,110.051z"/>
	<path fill="#FFFFFF" d="M179.004,2.348c0.344-0.276,0.624-0.5,0.904-0.725c0.098,0.137,0.308,0.341,0.271,0.399
		c-0.139,0.234-0.332,0.457-0.555,0.611C179.555,2.684,179.329,2.504,179.004,2.348z"/>
	<path fill="#FFFFFF" d="M54.643,147.537c0.092-0.173,0.207-0.48,0.262-0.472c0.363,0.069,0.715,0.195,1.059,0.336
		c0.032,0.015-0.029,0.371-0.047,0.371C55.481,147.771,54.967,148.115,54.643,147.537z"/>
	<path fill="#FFFFFF" d="M8.532,82.543c0.085-0.166,0.134-0.426,0.263-0.478c0.339-0.133,0.714-0.176,1.075-0.254
		c-0.005,0.175,0.05,0.463-0.024,0.502c-0.339,0.176-0.71,0.292-1.078,0.401C8.712,82.732,8.612,82.604,8.532,82.543z"/>
	<path fill="#FFFFFF" d="M275.176,105.521c0.201,0.297,0.408,0.559,0.388,0.579c-0.253,0.239-0.538,0.444-0.815,0.658
		c-0.147-0.206-0.299-0.413-0.447-0.619C274.59,105.935,274.881,105.729,275.176,105.521z"/>
	<path fill="#FFFFFF" d="M274.665,111.301c0.188,0.259,0.396,0.539,0.604,0.82c-0.221,0.105-0.453,0.319-0.657,0.296
		c-0.438-0.053-0.661-0.38-0.534-0.822C274.107,111.485,274.368,111.441,274.665,111.301z"/>
	<path fill="#FFFFFF" d="M327.243,128.314c-1.152,0.228-1.494,0.369-1.811,0.326c-0.178-0.022-0.465-0.387-0.434-0.544
		c0.088-0.448,0.459-0.575,0.885-0.424C326.149,127.768,326.397,127.912,327.243,128.314z"/>
	<path fill="#FFFFFF" d="M262.674,13.69c0.699-0.163,1.01-0.269,1.326-0.297c0.149-0.014,0.313,0.118,0.471,0.185
		c-0.18,0.121-0.35,0.326-0.537,0.345C263.667,13.945,263.383,13.831,262.674,13.69z"/>
	<path fill="#FFFFFF" d="M303.055,104.359c0.307-0.297,0.498-0.481,0.689-0.668c0.164,0.201,0.391,0.383,0.467,0.613
		c0.037,0.111-0.225,0.467-0.313,0.453C303.651,104.718,303.422,104.547,303.055,104.359z"/>
	<path fill="#FFFFFF" d="M303.334,124.754c0.146,0.197,0.381,0.412,0.346,0.481c-0.127,0.234-0.35,0.416-0.535,0.618
		c-0.172-0.187-0.344-0.372-0.516-0.56C302.864,125.115,303.096,124.936,303.334,124.754z"/>
	<path fill="#FFFFFF" d="M297.249,124.342c0.232,0.266,0.541,0.456,0.572,0.684c0.079,0.584-0.415,0.587-0.771,0.494
		c-0.188-0.05-0.457-0.418-0.418-0.572C296.688,124.729,296.995,124.573,297.249,124.342z"/>
	<path fill="#FFFFFF" d="M310.967,125.938c0.18-0.313,0.305-0.693,0.564-0.916c0.145-0.124,0.672-0.081,0.756,0.056
		c0.303,0.487-0.092,0.683-0.496,0.782c-0.275,0.068-0.564,0.082-0.848,0.12L310.967,125.938z"/>
	<path fill="#FFFFFF" d="M343.614,42.922c0.066,0.127,0.133,0.256,0.199,0.383c-0.166,0.008-0.332,0.033-0.494,0.014
		c-0.047-0.006-0.08-0.138-0.119-0.213C343.336,43.045,343.475,42.982,343.614,42.922z"/>
	<path fill="#FFFFFF" d="M34.329,11.778c0.219-0.134,0.442-0.269,0.666-0.403c0.078,0.175,0.265,0.409,0.209,0.512
		c-0.113,0.204-0.357,0.337-0.546,0.499C34.566,12.217,34.475,12.048,34.329,11.778z"/>
	<path fill="#FFFFFF" d="M41.133,149.513c0.744-0.042,1.488-0.083,2.233-0.126c0,0.05,0,0.1,0,0.148c-0.746,0-1.492,0-2.239-0.001
		L41.133,149.513z"/>
	<path fill="#FFFFFF" d="M53.551,11.916c0.527-0.073,1.054-0.147,1.58-0.222c0.002,0.076,0.004,0.151,0.006,0.228
		c-0.53,0-1.062,0-1.594,0.001C53.542,11.924,53.551,11.916,53.551,11.916z"/>
	<path fill="#FFFFFF" d="M17.078,148.723c0.163,0.187,0.349,0.302,0.372,0.443c0.081,0.487-0.302,0.9-0.632,0.706
		c-0.137-0.082-0.294-0.363-0.249-0.475C16.671,149.15,16.895,148.953,17.078,148.723z"/>
	<path fill="#FFFFFF" d="M266.813,109.613c0.109,0.134,0.219,0.265,0.328,0.396c-0.152,0.098-0.314,0.285-0.453,0.268
		c-0.13-0.016-0.232-0.249-0.348-0.387C266.499,109.799,266.655,109.705,266.813,109.613z"/>
	<path fill="#FFFFFF" d="M257.6,116.006c-0.33,0.269-0.532,0.556-0.75,0.567c-0.156,0.011-0.335-0.348-0.504-0.54
		c0.142-0.115,0.287-0.33,0.423-0.324C257.004,115.721,257.235,115.865,257.6,116.006z"/>
	<path fill="#FFFFFF" d="M323.504,110.352c0.152,0.18,0.254,0.301,0.355,0.422c-0.248,0.203-0.496,0.406-0.744,0.611
		c-0.066-0.164-0.234-0.389-0.182-0.479C323.071,110.689,323.307,110.535,323.504,110.352z"/>
	<path fill="#FFFFFF" d="M299.395,106.755c0.105-0.122,0.211-0.243,0.316-0.364c0.057,0.168,0.17,0.34,0.156,0.502
		c-0.01,0.135-0.168,0.258-0.26,0.386C299.538,107.104,299.465,106.93,299.395,106.755z"/>
	<path fill="#FFFFFF" d="M47.252,138.334c-0.163,0.052-0.33,0.15-0.488,0.141c-0.119-0.008-0.227-0.158-0.34-0.245
		c0.249-0.032,0.497-0.068,0.746-0.085C47.192,138.143,47.225,138.268,47.252,138.334z"/>
	<path fill="#FFFFFF" d="M94.573,8.354c-0.02,0.156-0.038,0.313-0.059,0.467c-0.084-0.02-0.24-0.041-0.242-0.063
		c0-0.154,0.029-0.312,0.05-0.467C94.406,8.312,94.489,8.332,94.573,8.354z"/>
	<path fill="#FFFFFF" d="M323.348,102.314c0.123,0.103,0.246,0.201,0.369,0.304c-0.107,0.097-0.207,0.205-0.33,0.278
		c-0.023,0.018-0.191-0.104-0.184-0.145C323.225,102.603,323.295,102.459,323.348,102.314z"/>
	<path fill="#FFFFFF" d="M321.606,110.604c0.027,0.174,0.055,0.349,0.082,0.521c-0.242,0.017-0.486,0.034-0.729,0.052
		c0.039-0.167,0.025-0.396,0.131-0.484C321.206,110.596,321.428,110.627,321.606,110.604z"/>
	<path fill="#FFFFFF" d="M316.075,124.686c0.27,0.27,0.443,0.442,0.619,0.615c-0.221,0.147-0.428,0.348-0.672,0.419
		c-0.109,0.032-0.438-0.248-0.424-0.283C315.698,125.205,315.864,125,316.075,124.686z"/>
	<path fill="#FFFFFF" d="M332.514,116.147c-0.617,0.2-0.988,0.321-1.359,0.442c-0.029-0.088-0.1-0.189-0.078-0.264
		C331.272,115.605,331.727,115.777,332.514,116.147z"/>
	<path fill="#FFFFFF" d="M350.315,48.102c0.064,0.06,0.131,0.117,0.197,0.174c-0.143,0.07-0.279,0.156-0.43,0.2
		c-0.041,0.013-0.119-0.103-0.18-0.159C350.04,48.244,350.176,48.173,350.315,48.102z"/>
	<path fill="#FFFFFF" d="M215.211,0.149c0.016,0.149,0.035,0.298,0.033,0.446c0,0.014-0.158,0.021-0.244,0.032
		c-0.017-0.149-0.037-0.298-0.035-0.448C214.965,0.169,215.125,0.16,215.211,0.149z"/>
	<path fill="#FFFFFF" d="M313.797,101.993c-0.041-0.446-0.082-0.723-0.072-0.996c0.002-0.034,0.283-0.059,0.436-0.085
		c0.018,0.189,0.08,0.393,0.039,0.567C314.167,101.623,314.008,101.736,313.797,101.993z"/>
	<path fill="#FFFFFF" d="M313.485,98.131c0.033,0.067,0.113,0.185,0.098,0.199c-0.084,0.078-0.191,0.131-0.293,0.192
		c0-0.086-0.023-0.184,0.01-0.254C313.329,98.207,313.42,98.176,313.485,98.131z"/>
	<path fill="#FFFFFF" d="M310.944,125.979c-0.26-0.054-0.52-0.109-0.781-0.155c-0.092-0.016-0.189-0.002-0.283,0
		c0.102-0.038,0.211-0.122,0.303-0.105c0.266,0.05,0.523,0.141,0.785,0.218C310.967,125.938,310.944,125.979,310.944,125.979z"/>
	<path fill="#FFFFFF" d="M307.737,125.067c0.156,0,0.32-0.021,0.477,0.012c0.051,0.012,0.076,0.151,0.113,0.233
		c-0.17-0.004-0.346,0.008-0.512-0.021C307.774,125.283,307.758,125.139,307.737,125.067z"/>
	<path fill="#FFFFFF" d="M307.11,128.162c-0.068-0.185-0.131-0.353-0.193-0.521c0.145-0.041,0.287-0.1,0.436-0.111
		c0.031-0.003,0.137,0.203,0.104,0.25C307.37,127.924,307.233,128.034,307.11,128.162z"/>
	<path fill="#FFFFFF" d="M341.864,116.727c-0.063-0.045-0.154-0.076-0.174-0.135c-0.031-0.09-0.014-0.197-0.016-0.297
		c0.1,0.051,0.229,0.081,0.283,0.162C341.989,116.505,341.899,116.634,341.864,116.727z"/>
	<polygon fill="#FFFFFF" points="340.407,104.746 340.352,104.888 340.182,104.796 	"/>
	<path fill="#FFFFFF" d="M334.092,128.156c0.066,0.138,0.129,0.273,0.191,0.41c-0.17,0.063-0.355,0.197-0.502,0.164
		c-0.098-0.021-0.139-0.287-0.203-0.442C333.75,128.243,333.92,128.198,334.092,128.156z"/>
	<path fill="#FFFFFF" d="M321.096,107.055c0.166,0.066,0.33,0.134,0.496,0.2c-0.121,0.12-0.227,0.259-0.367,0.347
		c-0.045,0.029-0.254-0.078-0.252-0.108C320.989,107.344,321.049,107.201,321.096,107.055z"/>
	<path fill="#FFFFFF" d="M320.129,127.511c0.258,0.135,0.418,0.218,0.576,0.301c-0.146,0.208-0.283,0.429-0.459,0.61
		c-0.021,0.022-0.383-0.18-0.373-0.248C319.903,127.948,320.034,127.738,320.129,127.511z"/>
	<path fill="#FFFFFF" d="M319.129,101.418c0.07-0.058,0.141-0.113,0.209-0.172c0.088,0.126,0.186,0.248,0.254,0.383
		c0.01,0.02-0.119,0.108-0.186,0.168C319.315,101.671,319.221,101.545,319.129,101.418z"/>
	<path fill="#FFFFFF" d="M277.073,105.928c0.137,0.1,0.27,0.197,0.404,0.297c-0.137,0.087-0.264,0.198-0.412,0.252
		c-0.053,0.019-0.232-0.136-0.225-0.157C276.897,106.18,276.991,106.057,277.073,105.928z"/>
	<path fill="#FFFFFF" d="M272.435,112.795c0.032,0.074,0.095,0.149,0.089,0.221c-0.006,0.068-0.082,0.129-0.127,0.193
		C272.409,113.07,272.422,112.934,272.435,112.795z"/>
	<path fill="#FFFFFF" d="M254.622,110.4c0.002,0.162,0.019,0.326-0.01,0.482c-0.008,0.045-0.146,0.065-0.225,0.098
		c0-0.171-0.01-0.344,0.014-0.512C254.407,110.436,254.543,110.424,254.622,110.4z"/>
	<path fill="#FFFFFF" d="M284.271,102.791c0.054-0.063,0.146-0.185,0.157-0.177c0.135,0.082,0.258,0.185,0.383,0.281
		c-0.057,0.057-0.145,0.17-0.163,0.16C284.515,102.982,284.396,102.883,284.271,102.791z"/>
	<path fill="#FFFFFF" d="M281.179,106.828c0.038,0.182,0.071,0.344,0.104,0.504c-0.14,0.011-0.277,0.028-0.416,0.02
		c-0.017-0.002-0.06-0.195-0.021-0.247C280.931,106.996,281.061,106.922,281.179,106.828z"/>
	<path fill="#FFFFFF" d="M49.795,135.775c0.061-0.043,0.121-0.119,0.182-0.119c0.061-0.001,0.121,0.075,0.182,0.117
		c-0.061,0.042-0.121,0.115-0.182,0.116S49.856,135.816,49.795,135.775z"/>
	<path fill="#FFFFFF" d="M50.032,148.038c0.089,0.107,0.178,0.218,0.268,0.326c-0.166,0.029-0.332,0.077-0.497,0.076
		c-0.065-0.001-0.13-0.113-0.194-0.176C49.749,148.189,49.89,148.113,50.032,148.038z"/>
	<path fill="#FFFFFF" d="M42.221,138.004c0.083-0.042,0.173-0.125,0.251-0.115c0.059,0.008,0.103,0.135,0.153,0.209
		c-0.135,0.057-0.27,0.113-0.405,0.17C42.221,138.18,42.221,138.092,42.221,138.004z"/>
	<path fill="#FFFFFF" d="M71.678,133.977c0.076,0.057,0.154,0.111,0.232,0.166c-0.084,0.109-0.169,0.217-0.252,0.326
		c-0.039-0.088-0.107-0.176-0.105-0.264C71.554,134.129,71.633,134.053,71.678,133.977z"/>
	<polygon fill="#FFFFFF" points="70.121,134.356 70.258,134.223 70.303,134.392 	"/>
	<path fill="#FFFFFF" d="M52.668,147.877c0.085,0.115,0.171,0.231,0.256,0.348c-0.166,0.037-0.332,0.092-0.5,0.103
		c-0.05,0.003-0.106-0.122-0.16-0.189C52.4,148.05,52.534,147.963,52.668,147.877z"/>
	<path fill="#FFFFFF" d="M15.874,125.568c0.03,0.154,0.06,0.31,0.089,0.462c-0.094,0.007-0.26,0.039-0.27,0.014
		c-0.056-0.144-0.071-0.3-0.101-0.452C15.686,125.583,15.779,125.576,15.874,125.568z"/>
	<path fill="#FFFFFF" d="M12.16,138.464c0.026,0.083,0.094,0.224,0.073,0.238c-0.124,0.084-0.267,0.14-0.403,0.203
		c0.025-0.15,0.042-0.305,0.089-0.448C11.925,138.436,12.076,138.461,12.16,138.464z"/>
	<path fill="#FFFFFF" d="M6.784,60.804c0.709-0.11,0.98-0.165,1.254-0.185c0.077-0.007,0.161,0.094,0.241,0.145
		c-0.088,0.113-0.183,0.328-0.263,0.322C7.746,61.068,7.48,60.974,6.784,60.804z"/>
	<path fill="#FFFFFF" d="M3.458,113.098c-0.055,0.062-0.104,0.166-0.165,0.172c-0.077,0.008-0.161-0.064-0.243-0.104
		c0.092-0.101,0.183-0.199,0.274-0.299C3.37,112.943,3.414,113.021,3.458,113.098z"/>
	<path fill="#FFFFFF" d="M20.941,133.41c0.007,0.163,0.017,0.339,0.025,0.512c-0.068,0.002-0.196,0.014-0.197,0.005
		c-0.027-0.171-0.039-0.343-0.054-0.517C20.79,133.41,20.865,133.41,20.941,133.41z"/>
	<path fill="#FFFFFF" d="M150.063,5.146c-0.073-0.041-0.146-0.082-0.219-0.123c0.107-0.102,0.207-0.217,0.33-0.3
		c0.025-0.017,0.131,0.083,0.197,0.129C150.269,4.951,150.167,5.048,150.063,5.146z"/>
	<path fill="#FFFFFF" d="M97.198,8.382c-0.111,0.091-0.225,0.182-0.338,0.271c-0.045-0.074-0.145-0.197-0.127-0.217
		c0.099-0.109,0.225-0.195,0.343-0.291C97.116,8.225,97.157,8.303,97.198,8.382z"/>
	<polygon fill="#FFFFFF" points="352.985,48.504 352.79,48.451 352.952,48.393 	"/>
	<polygon fill="#FFFFFF" points="82.545,128.238 82.769,128.368 82.516,128.446 	"/>
	<path fill="#FFFFFF" d="M25.226,140.148c0.152-0.063,0.303-0.141,0.462-0.178c0.037-0.008,0.107,0.123,0.162,0.191
		c-0.151,0.061-0.298,0.139-0.455,0.171C25.353,140.342,25.283,140.214,25.226,140.148z"/>
	<polygon fill="#FFFFFF" points="5.19,118.531 4.974,118.592 5.007,118.41 	"/>
	<path fill="#FFFFFF" d="M12.309,120.29c-0.222,0.063-0.442,0.128-0.664,0.189c-0.006-0.02-0.012-0.039-0.017-0.059
		c0.22-0.047,0.439-0.095,0.662-0.144C12.293,120.279,12.309,120.29,12.309,120.29z"/>
	<path fill="#FFFFFF" d="M39.369,137.656c0.023,0.195,0.046,0.392,0.071,0.587c-0.007-0.187-0.013-0.371-0.019-0.558L39.369,137.656
		z"/>
	<path fill="#FFFFFF" d="M37.004,134.443c0.073,0.025,0.148,0.053,0.222,0.076c-0.079,0.088-0.156,0.176-0.235,0.265
		c-0.054-0.06-0.151-0.119-0.147-0.175C36.848,134.551,36.947,134.498,37.004,134.443z"/>
	<path fill="#FFFFFF" d="M34.897,151.104c-0.146,0.121-0.282,0.26-0.442,0.355c-0.058,0.035-0.174-0.031-0.265-0.051
		c0.074-0.136,0.137-0.369,0.224-0.38c0.174-0.018,0.359,0.09,0.543,0.148C34.961,151.183,34.897,151.104,34.897,151.104z"/>
	<polygon fill="#FFFFFF" points="44.63,130.354 44.417,130.225 44.659,130.156 	"/>
	<path fill="#FFFFFF" d="M39.42,137.686c0.248,0.027,0.496,0.053,0.012,0.002c0.461,0.111,0.213,0.051-0.049-0.02
		C39.369,137.656,39.42,137.686,39.42,137.686z"/>
	<path fill="#FFFFFF" d="M292.64,112.629c0.063,0.077,0.123,0.154,0.185,0.23c-0.164,0.075-0.324,0.163-0.496,0.21
		c-0.033,0.011-0.111-0.146-0.17-0.227C292.32,112.771,292.48,112.698,292.64,112.629z"/>
	<path fill="#FFFFFF" d="M304.057,112.801c0.047,0.068,0.094,0.137,0.141,0.205c-0.107,0.052-0.215,0.104-0.322,0.156
		c-0.014-0.087-0.064-0.188-0.033-0.256C303.866,112.852,303.983,112.836,304.057,112.801z"/>
	<path fill="#FFFFFF" d="M302.561,127.575c0.064,0.063,0.131,0.123,0.197,0.187c-0.158,0.066-0.311,0.152-0.475,0.189
		c-0.047,0.01-0.123-0.119-0.189-0.185C302.25,127.703,302.405,127.639,302.561,127.575z"/>
	<path fill="#FFFFFF" d="M297.211,127.555c0.151,0.074,0.303,0.148,0.453,0.225c-0.064,0.063-0.146,0.188-0.192,0.177
		c-0.152-0.039-0.292-0.127-0.438-0.195C297.092,127.691,297.151,127.623,297.211,127.555z"/>
	<path fill="#FFFFFF" d="M277.327,111.643c0.067,0.009,0.172-0.004,0.194,0.032c0.04,0.067,0.03,0.163,0.042,0.247
		c-0.105-0.017-0.211-0.029-0.316-0.045C277.273,111.799,277.299,111.721,277.327,111.643z"/>
	<path fill="#FFFFFF" d="M278.995,127.015c0.021,0.058,0.043,0.114,0.063,0.172c-0.077,0.02-0.156,0.054-0.229,0.048
		c-0.025-0.002-0.043-0.106-0.064-0.164C278.84,127.051,278.917,127.033,278.995,127.015z"/>
	<polygon fill="#FFFFFF" points="281.249,111.573 281.424,111.664 281.239,111.73 	"/>
	<path fill="#FFFFFF" d="M329.565,107.865c-0.063,0.057-0.125,0.111-0.189,0.166c-0.043-0.075-0.125-0.159-0.113-0.223
		c0.018-0.072,0.119-0.127,0.186-0.188C329.485,107.703,329.526,107.784,329.565,107.865z"/>
	<path fill="#FFFFFF" d="M328.77,111.266c0.057,0.023,0.16,0.044,0.16,0.07c0.004,0.07-0.035,0.145-0.057,0.217
		c-0.059-0.021-0.164-0.043-0.164-0.067C328.708,111.412,328.747,111.34,328.77,111.266z"/>
	<path fill="#FFFFFF" d="M345.833,126.259c0.045,0.118,0.09,0.235,0.133,0.353c-0.154,0.013-0.309,0.037-0.461,0.023
		c-0.043-0.004-0.074-0.125-0.111-0.191C345.54,126.381,345.686,126.32,345.833,126.259z"/>
	<polygon fill="#FFFFFF" points="339.975,116.031 340.182,115.955 340.163,116.14 	"/>
	<path fill="#FFFFFF" d="M336.26,128.219c0.088,0.029,0.166,0.057,0.244,0.083c-0.082,0.095-0.164,0.19-0.248,0.285
		c-0.055-0.063-0.158-0.127-0.156-0.188C336.102,128.337,336.206,128.277,336.26,128.219z"/>
	<polygon fill="#FFFFFF" points="350.834,121.467 350.838,121.619 350.645,121.545 	"/>
	<polygon fill="#FFFFFF" points="336.252,117.076 336.159,116.809 336.393,116.841 	"/>
	<path fill="#FFFFFF" d="M313.95,113.781c-0.059-0.02-0.164-0.034-0.166-0.057c-0.004-0.068,0.02-0.147,0.061-0.199
		c0.018-0.02,0.115,0.029,0.176,0.049C313.997,113.643,313.973,113.711,313.95,113.781z"/>
	<polygon fill="#FFFFFF" points="314.116,127.848 314.12,127.666 314.35,127.76 	"/>
	<polygon fill="#FFFFFF" points="307.301,105.43 307.506,105.381 307.475,105.539 	"/>
	<path fill="#FFFFFF" d="M317.711,110.434c0.029,0.084,0.059,0.168,0.09,0.252c-0.115,0.021-0.229,0.044-0.342,0.066
		c0.012-0.09,0.002-0.193,0.045-0.266C317.53,110.443,317.639,110.448,317.711,110.434z"/>
	<path fill="#FFFFFF" d="M318.014,127.812c0.021-0.06,0.031-0.159,0.063-0.167c0.063-0.016,0.137,0.023,0.205,0.039
		c-0.018,0.064-0.033,0.128-0.053,0.191C318.159,127.854,318.086,127.832,318.014,127.812z"/>
	<path fill="#FFFFFF" d="M316.561,117.334c0.006-0.069-0.012-0.178,0.023-0.197c0.078-0.048,0.182-0.052,0.275-0.073
		c-0.012,0.118-0.021,0.235-0.029,0.354C316.741,117.389,316.651,117.361,316.561,117.334z"/>
	<path fill="#FFFFFF" d="M316.295,101.54c-0.037-0.088-0.072-0.177-0.109-0.265c0.123-0.028,0.248-0.059,0.371-0.087
		c-0.016,0.097-0.012,0.203-0.057,0.282C316.473,101.519,316.366,101.519,316.295,101.54z"/>
	<path fill="#FFFFFF" d="M249.104,137.57c0.02,0.063,0.038,0.127,0.057,0.19c-0.096-0.046-0.19-0.091-0.287-0.136
		C248.95,137.607,249.027,137.588,249.104,137.57z"/>
</g>
</svg>
