<?xml version="1.0" encoding="utf-8"?>
<!-- Generator: Adobe Illustrator 16.0.0, SVG Export Plug-In . SVG Version: 6.00 Build 0)  -->
<!DOCTYPE svg PUBLIC "-//W3C//DTD SVG 1.1//EN" "http://www.w3.org/Graphics/SVG/1.1/DTD/svg11.dtd">
<svg version="1.1" id="圖層_1" xmlns="http://www.w3.org/2000/svg" xmlns:xlink="http://www.w3.org/1999/xlink" x="0px" y="0px"
	 width="382.678px" height="86.734px" viewBox="0 0 382.678 86.734" enable-background="new 0 0 382.678 86.734"
	 xml:space="preserve">
<g>
	<path fill-rule="evenodd" clip-rule="evenodd" d="M221.805,15.355c1.695,0.466,1.865,0.546,1.229,1.898
		c-0.478,1.014,0.493,1.483,0.127,2.432c2.728-1.184,5.332-1.2,8.106-1.291c0.172-0.563,0.34-1.117,0.539-1.773
		c1.189-1.057,2.717-0.688,4.398-0.649c0.049,0.349,0.09,0.702,0.148,1.054c0.236,1.435,0.588,1.69,2.023,1.488
		c0.479-0.066,0.959-0.132,1.419-0.195c0.515-1.284-0.536-1.342-1.396-1.736c0.029-0.625,0.063-1.313,0.094-1.981
		c1.141-0.425,0.629,0.888,1.211,1.14c1.312,0,2.623,0,3.802,0c0.755,0.902-0.274,1.188-0.346,2.035
		c0.392,0.422,0.915,0.99,1.462,1.584c2.391-1.148,4.891-1.04,7.266-1.563l-0.014,0.005c0.285,0.482,0.687,0.422,0.988,0.1
		c0.184-0.197,0.182-0.566,0.273-0.855c0.398-1.271,0.534-1.389,1.619-1.408c1.637-0.029,3.273-0.056,4.418-0.075
		c1.16-0.561,0.338-1.818,1.488-1.848c0.771,1.435,0.771,1.435,2.265,2.407c-0.37,0.445-0.729,0.877-1.086,1.307
		c0.667,0.701,1.258,0.789,1.538,0.177c0.205-0.449,0.255-0.971,0.369-1.44c3.232-0.834,6.457-0.684,9.77-0.449
		c0,0.721,0,1.312,0,1.838c0.238,0.187,0.393,0.414,0.551,0.415c1.93,0.022,3.859,0.035,5.789,0.001
		c1.223-0.021,2.555-0.461,3.635-0.104c1.218,0.402,2.425,0.257,3.57,0.527c1.813,0.429,3.531,0.635,5.3-0.039
		c0.174-0.066,0.41-0.019,0.606,0.026c2.064,0.474,4.125,0.958,6.191,1.44c-0.078,0.862-0.725,0.788-1.135,0.674
		c-1.691-0.475-3.17,0.139-4.642,0.561c-0.145,0.882,0.354,1.168,0.837,1.238c0.807,0.118,1.651,0.17,2.455,0.066
		c0.977-0.125,1.795,0.113,2.736,0.72c-0.55,0.341-1.136,0.543-1.465,0.951c-0.391,0.486-0.168,1.685-1.25,1.296
		c-0.781-0.28-0.047-1.091-0.162-1.646c-0.037-0.185-0.176-0.348-0.268-0.521c-0.197,0.037-0.438,0.016-0.584,0.122
		c-0.463,0.339-0.889,1.097-1.488,0.324c-0.602-0.774-1.362-0.044-2.146-0.459c0.055-0.692,0.113-1.458,0.167-2.163
		c-0.298-0.177-0.462-0.354-0.638-0.365c-1.02-0.071-2.045-0.165-3.059-0.105c-0.273,0.018-0.674,0.521-0.715,0.841
		c-0.027,0.212,0.454,0.662,0.756,0.71c0.694,0.105,1.416,0.033,2.126,0.033c0.048,0.09,0.151,0.189,0.134,0.26
		c-0.135,0.58-0.293,1.156-0.487,1.896c-0.752-0.622-1.401-0.888-2.229-0.414c-0.686,0.393-1.483,0.594-2.335,0.918
		c-0.648-1.523,0.53-2.617,0.643-3.936c-0.237-0.136-0.478-0.338-0.751-0.419c-0.687-0.201-1.426-0.517-2.056,0.064
		c-0.687,0.634-0.218,1.321,0.023,1.987c0.095,0.262,0.13,0.546,0.222,0.957c-0.681,0.096-1.262,0.178-1.988,0.279
		c0-1.051,0-1.936,0-3.068c-0.904,0.313-1.674,0.582-2.576,0.896c0.31,0.691,0.551,1.226,0.875,1.95
		c-0.751,0.069-1.479-0.006-2.088,0.23c-0.672,0.262-1.09-0.078-1.646-0.182c-0.958-0.18-2.009,0.16-3.022,0.263
		c-1.81,0.183-1.811,0.177-3.428-0.537c-0.048,0.313-0.123,0.613-0.135,0.917c-0.008,0.196,0.074,0.397,0.15,0.758
		c3.025,0.344,6.016,1.104,9.212,0.771c2.286-0.236,4.646,0.238,6.974,0.396c0.708,0.049,1.416,0.146,2.123,0.146
		c1.23,0.002,2.416,0.057,3.651,0.334c1.583,0.354,3.276,0.241,4.923,0.278c0.852,0.02,0.893,0.683,1.123,1.22l-0.011-0.031
		c-0.075-0.072-0.151-0.207-0.224-0.205c-0.607,0.021-1.215,0.066-1.976,0.115c-0.35,0.755-0.726,1.566-1.077,2.328
		c-0.741,0.096-1.422-0.625-2.012,0.223c-0.107,0.154-0.726-0.109-1.084-0.047c-0.213,0.037-0.443,0.307-0.546,0.526
		c-0.059,0.126,0.101,0.515,0.196,0.526c1.33,0.18,2.652,1.447,4.02,0.076c0.082-0.082,0.418-0.066,0.498,0.024
		c1.032,1.188,2.424,0.802,3.713,0.894c1.539,0.109,3.072,0.277,4.607,0.414s3.069,0.262,4.605,0.396
		c4.301,0.375,8.599,0.81,12.907,1.105c2.649,0.182,5.319,0.286,7.968,0.166c1.498-0.067,2.852,0.148,4.287,0.7
		c-0.049,0.589-0.101,1.187-0.15,1.776c1.889,1.504,4.411,0.501,6.408,1.424c-0.07,0.963-0.865,0.593-1.279,1.096
		c1.076,0.067,2.078,0.289,3.03,0.158c2.479-0.338,4.899,0.156,7.345,0.309c2.252,0.142,4.511,0.217,6.768,0.313
		c0.309,0.013,0.622-0.059,0.928-0.028c3.591,0.364,7.182,0.737,10.77,1.122c0.188,0.021,0.361,0.182,0.541,0.277
		c-1.288,1.149-1.288,1.167-2.049,1.152c-0.619-0.012-1.252,0.004-1.852-0.123c-1.318-0.278-2.54-0.369-3.893,0.146
		c-0.887,0.338-2.029,0.019-3.057-0.025c-0.479-0.021-0.955-0.086-1.882-0.172c0.54,0.512,0.705,0.813,0.923,0.857
		c2.521,0.508,4.973,1.23,7.412,2.045c1.453,0.484,3.01,0.658,4.525,0.942c1.32,0.247,2.65,0.429,3.967,0.688
		c0.386,0.076,0.745,0.309,1.107,0.488c0.229,0.114,0.439,0.264,0.456,0.729c-1.101-0.184-2.197-0.404-3.304-0.546
		c-2.964-0.381-5.93-0.747-8.898-1.085c-2.855-0.324-5.734-0.492-8.568-0.939c-3.071-0.484-6.135-0.497-9.224-0.44
		c-1.644,0.03-3.29-0.261-4.937-0.341c-2.158-0.104-4.32-0.143-6.643-0.215c-0.111,0.755-0.197,1.317-0.289,1.934
		c0.446-0.029,0.936-0.167,1.008-0.049c0.691,1.115,1.855,0.984,2.894,1.252c0.778,0.199,1.562,0.535,2.227,0.984
		c1.699,1.147,3.605,1.521,5.57,1.528c3.112,0.013,6.132,0.685,9.187,1.101c0.703,0.096,1.412,0.146,2.122,0.328
		c-1.751-0.203-3.423,0.836-5.194,0.252c-1.669,0.896-3.617,0.568-5.328,1.183c-1.575,0.564-3.121,0.776-4.787,0.636
		c-1.604-0.135-3.24-0.512-4.832,0.106c-0.254,0.099-0.467,0.297-0.723,0.466c1.246,1.056,1.246,1.056,11.079,2.152
		c0.145,0.519,0.302,1.076,0.456,1.631c0.218-0.019,0.527,0.031,0.578-0.061c0.48-0.878,1.135-1.553,2.188-1.311
		c0.701,0.16,1.536,0.166,1.842,1.244c0.122,0.43,1.161,0.662,1.818,0.865c1.067,0.328,2.164,0.558,3.343,0.854
		c-1.979,0.42-3.845,0.816-6.271,1.331c3.24,1.201,6.08,0.823,8.828,1.401c-1.609,0.068-3.219,0.194-4.828,0.193
		c-2.576,0-5.152-0.086-7.729-0.134c-0.205-0.003-0.453-0.065-0.611,0.026c-1.215,0.697-2.49,0.496-3.809,0.456
		c-1.229-0.037-2.428,0.077-3.672-0.209c-0.945-0.218-2.012-0.063-3.001,0.091c-1.425,0.221-2.831,0.68-4.165-0.307
		c-0.133-0.099-0.432-0.116-0.576-0.035c-1.402,0.799-2.834,0.162-4.253,0.125c-2.847-0.074-5.7-0.574-8.53,0.342
		c-0.58,0.188-1.352-0.219-2.146-0.373c-0.326,0.885-0.459,2.004-1.795,1.975c-0.291-0.008-0.744,0.305-0.854,0.197
		c-0.903-0.895-2.01,0.214-2.914-0.346c-0.254-0.157-0.492-0.34-0.838-0.582c-1.998,2.102-4.094,0.919-6.207,0.144
		c-0.793,0.397-1.575,0.837-2.396,1.188c-0.92,0.394-1.811-0.034-2.709-0.206c-0.701-0.135-1.42-0.322-2.051,0.269
		c-0.119,0.109-0.514,0.144-0.569,0.064c-1.011-1.448-2.578-0.743-3.751-0.705c-2.577,0.083-5.084-0.395-7.623-0.469
		c-4.623-0.135-9.24-0.611-13.874-0.343c-1.4,0.08-2.771,0.152-4.173-0.35c-0.809-0.289-1.824,0.014-2.746,0.029
		c-1.027,0.018-2.057,0.043-3.082,0.011c-1.309-0.04-2.629-0.322-3.887,0.298c-0.092,0.045-0.196,0.096-0.293,0.092
		c-2.875-0.103-5.76-0.099-8.615-0.386c-0.924-0.093-1.765-0.368-2.676,0.017c-0.262,0.109-0.627-0.047-0.916,0.028
		c-0.885,0.233-1.389-1.109-2.517-0.429c-0.687,0.414-1.79,0.13-2.706,0.17c-0.906,0.039-1.814,0.092-2.744,0.141
		c-0.228-0.448-0.447-0.882-0.705-1.385c-0.428,0.309-0.806,0.58-1.18,0.85c-0.54-0.274-1.072-0.547-1.794-0.914
		c-0.408,0.531-0.776,1.012-1.104,1.439c-3.861-0.364-3.861-0.364-4.844-1.166c-0.275,0.292-0.549,0.584-0.998,1.061
		c-0.156-0.445-0.271-0.77-0.469-1.328c-0.367,0.025-0.847,0.057-1.374,0.092c0.061,0.16,0.101,0.301,0.165,0.43
		c0.082,0.156,0.185,0.303,0.395,0.643c-0.953,0.131-1.814,0.25-2.775,0.383c-0.195-0.733-0.346-1.293-0.486-1.826
		c-1.546-0.878-3.036,0.318-4.539,0.015l0.069,0.079c-1.351-0.611-2.753-0.43-4.221-0.417c0,0.539,0,0.931,0,1.335
		c-0.145,0.085-0.306,0.261-0.469,0.262c-3.29,0.021-6.579,0.021-9.87,0.023c-0.723,0-1.479,0.082-1.896-0.721
		c0.148-0.238,0.295-0.474,0.44-0.708c-0.374-0.153-0.751-0.308-1.126-0.46c-0.166,0.112-0.404,0.188-0.482,0.345
		c-0.227,0.454-0.303,1.003-0.595,1.397c-0.315,0.425-0.866,0.668-1.31,0.158c-0.324-0.373-0.406-0.953-1.061-0.305
		c-0.771,0.767-1.67,0.441-2.678,0.119c0.695-0.382,1.247-0.688,1.93-1.063c-1.033-0.905-2.091-0.77-2.703-0.181
		c-0.551,0.531-1.089,0.751-1.729,1.048c-0.7,0.325-1.209,0.559-1.89,0.072c-0.075-0.054-0.502,0.262-0.67,0.48
		c-1.141,1.483-1.381,1.442-2.22-0.424c-3.628-0.609-3.755-0.573-5.096,1.609c-0.573-0.226-1.181-0.465-2.118-0.834
		c-0.451,0.141-1.053,0.855-2.088,0.727c-2.516-0.317-5.029-0.638-7.602-0.096c-1.145,0.24-2.576,0.053-3.622-0.461
		c-1.069-0.525-2.063-0.293-2.963-0.177c-3.042,0.396-6.063,0.221-9.077-0.021c-2.084-0.168-4.166-0.021-6.252-0.181
		c-1.375-0.105-2.811,0.418-4.194,0.755c-0.312,0.076-0.524,0.552-0.894,0.969c-1.192-1.957-3.001-1.355-4.697-1.322
		c-0.289,0.42-0.567,0.824-0.842,1.225c-0.195-0.083-0.463-0.109-0.513-0.229c-0.192-0.47-0.265-1.009-0.89-1.134
		c-0.707-0.141-1.439-0.475-2.117-0.388c-1.99,0.252-4.014-0.4-5.979,0.302c-0.908,0.325-1.834,0.2-2.721-0.157
		c-1.133-0.457-2.314-0.658-3.467-0.24c-1.407,0.51-2.795,0.318-4.326,0.092c-0.25,0.41-0.509,0.834-0.811,1.328
		c-0.564-0.575-1.113-1.138-1.723-1.76c-1.471,0.236-2.963,0.834-4.6,0.672c-0.481-0.048-1.021,0.189-1.406-0.232
		c-0.893-0.975-1.95-0.777-2.814-0.191c-1.324,0.897-2.799,0.026-4.107,0.581c-2.609-0.856-5.314-0.336-7.972-0.526
		c-3.376-0.242-6.769-0.26-10.155-0.379c-0.099-0.004-0.197-0.053-0.293-0.084c-0.986-0.326-1.664,0.99-2.895,0.339
		c-0.873-0.463-2.185-0.071-3.298-0.122c-1.028-0.049-2.052-0.213-3.081-0.266c-1.027-0.053-2.059-0.045-3.09-0.035
		c-0.723,0.008-1.445,0.048-2.168,0.099c-0.598,0.042-1.002,0.409-0.9,0.98c0.053,0.294,0.482,0.677,0.799,0.741
		c2.7,0.551,5.42,0.954,8.193,0.713c0.079-0.007,0.168,0.102,0.475,0.301c-0.471,0.123-0.774,0.26-1.082,0.271
		c-1.732,0.068-3.501-0.398-5.191,0.4c-0.214,0.1-0.576-0.17-0.873-0.181c-0.579-0.021-1.373,0.267-1.701-0.015
		c-0.818-0.702-1.038,0.289-1.542,0.344c-0.904,0.098-1.815,0.131-2.8,0.195c0.645-1.2,0.65-1.176,1.661-1.271
		c1.263-0.119,1.262-0.13,1.171-1.816c-0.332-0.127-0.701-0.293-1.085-0.409c-1.653-0.505-1.846-0.37-2.358,1.636
		c-0.925-0.563-1.151-2.077-2.813-1.861c-0.199,0.543-0.434,1.188-0.668,1.831l0.073-0.071c-1.429-1.81-3.277-1.639-5.339-1.07
		c-0.379,1.623-0.566,3.302-0.05,4.954c-0.661,0.331-1.183,0.784-1.737,0.829c-1.057,0.084-2.031,0.127-2.76,1.068
		c-0.639,0.826-2.146,0.012-2.611,1.301c-0.053,0.146-0.333,0.282-0.518,0.297c-2.137,0.182-4.083,1.326-6.316,1.107
		c-1.531-0.15-3.161-0.281-4.618,0.086c-1.425,0.358-2.687,1.36-4.067,2.105c-0.332-0.195-0.705-0.372-1.027-0.615
		c-2.138-1.611-2.133-1.615-5.243-1.242c0.53,1.037,1.569,0.914,2.468,1.274c-0.465,0.205-0.863,0.38-1.296,0.57
		c0.72,1.043,1.536,1.707,2.845,1.974c2.195,0.447,4.384,0.512,6.598,0.467c0.395-0.008,0.791-0.001,1.393-0.001
		c0.043,0.716,0.079,1.296,0.121,1.985c-0.695,0.25-1.503,0.311-1.93,0.744c-0.67,0.684-1.309,0.301-1.975,0.296
		c-0.102-0.001-0.254,0.006-0.296,0.067c-1.038,1.561-2.051,1.346-3.167,0.052c-0.156-0.181-0.818-0.091-1.143,0.077
		c-0.523,0.268-0.949,0.432-1.288-0.174c-0.292-0.522-0.153-0.957,0.322-1.344c0.202-0.164,0.28-0.479,0.5-0.885
		c-0.988-0.313-1.842-0.608-2.71-0.844c-0.283-0.076-0.732-0.12-0.894,0.037c-1.491,1.46-3.099,0.348-4.694,0.352
		c-0.867-1.351,0.152-2.658-0.32-3.896c0.988-0.566,1.748-1.004,2.8-1.606c-0.573-0.245-0.884-0.378-1.276-0.546
		c-0.334-0.496,0.193-0.865,0.331-1.328c0.401-1.35,0.14-1.877-1.134-2.383c-0.461-0.184-0.945-0.313-1.506-0.493
		c-0.24,0.515-0.477,1.018-0.707,1.511c-1.021-2.375-2.021-4.695-3.053-7.092c-0.889,0-1.67,0-2.407,0
		c-0.389,0.572-0.73,1.07-1.099,1.611c-1.387-0.532-2.986-0.08-4.107-1.602c0.381-0.587,0.805-1.236,1.229-1.89
		c-0.059-0.187-0.062-0.479-0.188-0.551c-1.14-0.649-1.781-1.654-2.246-2.952c0.552-0.66,1.111-1.326,1.796-2.145
		c-1.396-0.596-2.57-1.096-3.811-1.625c0.371-0.506,0.657-0.895,1.076-1.465c-0.502-0.212-0.93-0.393-1.475-0.622
		c0.23-0.511,0.475-1.044,0.789-1.736c-1.073-0.963-0.9-2.917-2.877-3.368c1.627-1.539,3.527,0.418,5.087-0.871
		c-0.2-1.236-0.411-2.533-0.642-3.95c0.773-0.25,1.574-0.397,2.26-0.761c0.754-0.399,1.444-0.8,2.354-0.465
		c0.691,0.748-0.271,1.504,0.03,2.479c0.353,0.051,0.907,0.314,1.231,0.144c1.089-0.574,2.096-1.303,3.222-2.031
		c0.173-0.602,0.37-1.29,0.601-2.095c-0.475-0.572-0.978-1.179-1.502-1.81c-0.438,0.096-0.834,0.182-1.204,0.262
		c-0.136,0.551-0.255,1.029-0.394,1.586c-0.723,0-1.432,0.038-2.133-0.02c-0.275-0.021-0.665-0.188-0.773-0.405
		c-0.33-0.649-0.551-1.505-1.426-1.407c-1.207,0.134-2.388-0.445-3.625,0.077c-0.818,0.344-1.788,0.387-2.695,0.425
		c-0.277,0.012-0.738-0.396-0.824-0.694c-0.139-0.495,0.32-0.681,0.758-0.724c0.709-0.071,1.443-0.031,2.125-0.204
		c0.521-0.133,0.789-0.604,0.535-1.34c-0.595,0.078-1.166,0.153-1.74,0.228c-0.158-0.119-0.449-0.236-0.453-0.36
		c-0.035-1.322-1.908-2.489-0.138-4.142c0.603,0,1.423,0.061,2.23-0.014c1.555-0.141,3.099-0.391,4.226-1.635
		c0.604-0.666,1.346-0.871,2.207-0.938c1.018-0.08,2.066-0.128,2.893-0.77c0.486-1.344-0.227-2.445-0.523-3.605
		c0.352-0.216,0.695-0.426,1.161-0.713c0-0.729,0-1.527,0-2.35c1.187-0.33,2.261-0.651,3.347-0.916
		c0.268-0.064,0.653-0.045,0.86,0.105c1.741,1.271,3.604,0.408,5.378,0.24c1.287-0.122,2.06-1.256,2.646-2.418
		c1.099-0.227,2.181-0.45,3.476-0.717c-1.646-0.946-2.023-1.063-3.028-0.414c-1.058,0.684-1.446,0.008-2.038-0.875
		c0.453-0.477,0.927-0.975,1.388-1.459c0.567,0.241,1.067,0.555,1.607,0.652c0.476,0.085,1.003-0.034,1.494-0.129
		c1.39-0.267,2.902-0.083,4.071-1.188c0.268-0.254,0.785-0.218,1.143-0.403c1.154-0.602,2.147-0.421,2.918,0.646
		c0.958-0.671,1.791-1.252,2.656-1.855c0.323,0.447,0.611,0.849,0.885,1.229c1.527,0.09,1.143-1.772,2.26-2.26
		c0.923,0.844,1.237,1.914,1.533,2.943c0.817-0.023,0.717-0.667,0.949-1.056c0.719-1.199,1.396-1.164,2.156,0.08
		c0.154,0.252,0.353,0.479,0.552,0.699c0.061,0.067,0.188,0.075,0.378,0.145c0.145-0.204,0.391-0.409,0.449-0.659
		c0.305-1.302,0.497-1.592,1.449-1.321c0.738,0.209,1.346,0.233,2.084,0.031c0.637-0.175,1.373,0.055,2.049-0.024
		c1.215-0.143,2.477-0.703,3.611-0.496c1.184,0.215,2.2-0.338,3.342-0.155c1.178,0.188,2.41,0.054,3.619,0.005
		c0.811-0.031,1.62-0.148,2.428-0.25c1.662-0.207,3.286-0.24,4.702,0.998c0.468-0.324,0.858-0.596,1.25-0.866
		c0.136,0.266,0.272,0.53,0.403,0.784c2.238,0.117,4.47,0.234,6.736,0.353c0.161,0.633,0.331,1.305,0.529,2.087
		c1.518-0.77,0.806-2.3,1.521-3.502c0.527,0.049,1.177,0.109,1.873,0.174c-0.042,0.48-0.086,0.778-0.092,1.077
		c-0.017,0.919,0.483,1.429,1.225,1.228c0.293-0.08,0.55-0.281,0.84-0.379c0.361-0.121,0.916-0.396,1.084-0.252
		c1.242,1.07,2.057,0.051,3.004-0.675c0.498,0.871,0.932,1.632,1.486,2.601c0.979-1.23,2.08-1.708,3.424-1.525
		c0.33,0.37,0.663,0.742,0.994,1.114c1.291-0.285,0.326-1.796,1.326-2.247c0.252,0.814-0.534,1.904,0.625,2.458
		c1.689-1.017,1.689-1.017,4.76-0.756c-0.105-0.98-0.207-1.933-0.301-2.817c0.88-0.676,1.592-0.676,2.485,0.064
		c-0.356,0.401-0.681,0.76-0.997,1.125c-0.449,0.52-0.627,1.086-0.129,1.658c0.486,0.562,1.8,0.614,2.201-0.009
		c0.588-0.911,1.001-1.937,1.617-3.173c0.703,0,1.727-0.037,2.744,0.011c0.917,0.044,1.119,0.454,1.482,1.751
		c0.175,0.625,0.709,1.151,1.105,1.761c2.01-0.583,3.924-0.19,5.84-0.114c0.609,0.023,1.224-0.066,1.836-0.104l-0.047-0.02
		c1.127,1.986,2.988,1.873,4.852,1.648c0.602-0.072,1.169-0.398,1.77-0.536c0.687-0.157,1.443-0.488,2.068,0.054
		c0.805,0.697,1.286-0.756,1.868-0.27c0.498,0.416,0.95,0.826,1.595,0.744c1-0.125,1.988-0.35,3.246-0.582
		c0.932,0.943,2.132,0.934,3.264-0.217c0.799,0.377,1.494,0.907,2.25,1.009c0.969,0.131,2.005,0.018,2.975-0.176
		c1.166-0.231,2.287-0.812,3.372,0.226c0.149,0.142,0.64,0.111,0.847-0.026c1.236-0.827,1.861-0.096,2.447,0.866
		c0.084,0.135,0.313,0.183,0.505,0.287c0.241-0.303,0.485-0.608,0.851-1.064c0.558,0.38,1.125,0.768,1.694,1.156l-0.052-0.046
		c0.204,0.305,0.359,0.677,0.639,0.882c0.104,0.074,0.614-0.178,0.73-0.395c0.281-0.525,0.44-1.116,0.645-1.672
		c0.777-0.281,0.729,0.6,1.123,0.748c0.439,0.166,1.07,0.317,1.426,0.123c1.049-0.574,2.004-1.322,3.047-2.039
		c0.26,0.418,0.468,0.753,0.741,1.194c1.042,0,2.147,0.003,3.255-0.005c0.098,0,0.22-0.121,0.287-0.091
		c2.521,1.142,4.99-0.349,7.508-0.149c2.525,0.2,5.075,0.189,7.609,0.125c1.484-0.037,3.064,0.543,4.457-0.514
		c0.207-0.156,0.657-0.218,0.875-0.101c1.277,0.688,2.531-0.6,3.91,0.11c1.028,0.529,2.363,0.492,3.573,0.615
		c0.36,0.037,0.808-0.164,1.119-0.389c0.478-0.342,0.725-1.02,1.478-0.939c1.416,0.15,2.836,0.271,4.242,0.475
		c0.139,0.02,0.209,0.517,0.354,0.908c1.269,0.109,2.643,0.121,3.734,1.213c0.377,0.377,1.068,0.297,1.607-0.303
		c0.861-0.957,1.127-0.949,1.988-0.481c0.503,0.274,0.99,0.576,1.608,0.938c0.28-0.669,0.471-1.124,0.751-1.79
		c0.69,0.41,1.356,0.805,2.057,1.221c0.535-0.164,1.121-0.52,1.646-0.445c0.369,0.053,0.656,0.69,1.072,1.173
		c0.894-0.38,1.029-1.366,1.461-2.142c0.077-0.044,0.172-0.146,0.252-0.136c1.493,0.177,2.984,0.368,4.557,0.567
		c0.021,0.234,0.047,0.521,0.082,0.818c-0.687,1.392-0.681,1.395-0.697,2.76C221.896,17.277,222.162,16.387,221.805,15.355z
		 M50.074,66.171c0.551,0.281-0.31,1.605,1.193,1.298c-0.448-0.49-0.822-0.9-1.197-1.309c0.542,0,1.084,0,1.607,0
		c0.26-0.923,0.399-1.66-0.427-2.307c-0.901-0.706-1.474-0.012-2.151,0.336c-1.015,0.826-2.117,0.723-3.121,0.098
		c-0.564-0.352-0.932-0.343-1.27,0.134c-0.582,0.823-1.43-0.537-1.914,0.231c-0.484,0.77-1.16,0.696-1.885,0.71
		c-0.215,0.005-0.426,0.268-0.822,0.538c2.611,0.994,4.963-0.336,7.326-0.047c0.446,0.055,0.936-0.239,1.286-0.338
		c0.169-0.616,0.275-1.004,0.397-1.364c0.611,0.526,1.224,1.054,1.837,1.583C50.79,66.162,50.578,66.455,50.074,66.171z
		 M9.865,34.635c0.342,0.33,0.693,0.951,1.023,0.941c1.283-0.044,2.737,0.156,3.432-1.428c0.076-0.174,0.492-0.24,0.761-0.281
		c0.7-0.104,1.411-0.145,2.111-0.252c0.523-0.08,0.993-0.268,0.972-1.015c-1.158-0.063-2.324-0.127-3.493-0.191
		c0.05-0.438,0.091-0.794,0.132-1.148c-0.967,0-1.84,0.206-2.541-0.055c-0.797-0.295-1.439-1.007-2.09-1.493
		c-1.908,0.936-2.945,2.347-3.428,4.271c0.943,1.056,2.012,0.95,3.129,0.618L9.865,34.635z M232.728,20.02
		c-0.472,1.682-1.453,2.139-3.081,1.79c-1.344-0.288-2.789-0.163-4.188-0.122c-0.511,0.016-1.216-0.111-1.523,0.69
		c1.848,1.277,3.789,1.238,5.799,0.698c0.381-0.104,0.918-0.375,1.132-0.221c1.396,1,3.06-0.619,4.401,0.511
		c0.604-0.438,1.209-0.876,1.805-1.323c0.016-0.011-0.058-0.141,0.16,0.37c-0.678-1.003-1.006-1.489-1.404-2.076
		C234.994,20.252,234.083,20.158,232.728,20.02z M197.195,19.355c0.172,0.25,0.218,0.385,0.276,0.392
		c3.432,0.331,6.899-0.011,10.323,0.534c0.284,0.045,0.615-0.071,0.896-0.185c0.924-0.372,1.826-0.766,2.867-0.394
		c0.107,0.038,0.516-0.373,0.534-0.598c0.02-0.23-0.339-0.719-0.408-0.697c-1.269,0.399-2.527-0.433-3.849,0.11
		c-1.322,0.543-2.779,0.335-4.208,0.12C201.455,18.311,199.347,18.713,197.195,19.355z M262.14,21.314
		c0.144,0.557,0.289,1.127,0.433,1.69c0.686,0.088,1.275,0.163,1.871,0.239c0.111,0.539,0.207,1.01,0.336,1.637
		c0.791-0.051,1.559-0.102,2.434-0.16c0-1.498,0-2.787,0-4.161c-0.902,0.057-1.67,0.213-2.408,0.124
		C263.846,20.568,262.99,20.623,262.14,21.314z M277.664,19.92c-1.098,0.59-2.016,0.549-2.98,0.155
		c-0.243-0.1-0.752,0.192-0.998,0.442c-0.15,0.154-0.153,0.682-0.005,0.846c0.232,0.257,0.811,0.579,0.958,0.475
		c0.961-0.689,1.645-0.252,2.4,0.357c0.402,0.325,0.932,0.377,1.347-0.285C278.205,21.412,278,20.85,277.664,19.92z M16.146,49.648
		c-1.446-0.375-2.8-0.768-4.177-1.042c-0.245-0.049-0.801,0.368-0.829,0.615c-0.033,0.287,0.323,0.865,0.565,0.896
		c1.205,0.156,2.43,0.225,3.645,0.205C15.637,50.318,15.916,49.854,16.146,49.648z M14.354,59.181
		c0.941,0.22,1.863,0.451,2.797,0.64c0.167,0.033,0.475-0.054,0.535-0.176c0.115-0.237,0.188-0.561,0.124-0.809
		c-0.167-0.642-0.61-1.04-1.296-1.096C15.521,57.658,14.721,57.914,14.354,59.181z M27.488,60.066
		c-2.074-0.928-3.633-0.339-5.363,0.631c0.426,0.322,0.713,0.688,0.872,0.638C24.396,60.905,26.041,61.257,27.488,60.066z
		 M252.553,20.563c-1.252,0.145-2.107,0.244-3.065,0.354c0.046,0.591-0.046,1.06,0.142,1.35c0.186,0.287,0.676,0.582,0.988,0.539
		c0.563-0.075,1.162-0.31,1.607-0.656C252.459,21.965,252.396,21.404,252.553,20.563z M244.873,22.146
		c1.047,0.387,1.984,0.695,3.027,0.421c0.446-0.117,0.829-0.319,0.7-0.774c-0.095-0.325-0.495-0.805-0.749-0.799
		c-0.896,0.021-1.796,0.191-2.676,0.387C245.03,21.414,244.978,21.863,244.873,22.146z M18.1,40.053
		c-0.723-0.814-1.148-1.374-1.665-1.83c-0.157-0.139-0.808-0.042-0.82,0.025c-0.11,0.574-0.228,1.188-0.118,1.746
		c0.045,0.227,0.637,0.457,0.994,0.481C16.872,40.502,17.27,40.285,18.1,40.053z M25.912,71.938
		c-0.098-0.215-0.195-0.43-0.293-0.644c-0.922,0.309-1.844,0.616-3.17,1.061C24.108,73.086,25.125,73.01,25.912,71.938z
		 M195.214,19.802c0.019-0.182,0.037-0.363,0.056-0.545c-0.855-0.119-1.707-0.255-2.566-0.337c-0.109-0.01-0.321,0.258-0.35,0.421
		c-0.023,0.136,0.147,0.437,0.242,0.44C193.467,19.815,194.341,19.802,195.214,19.802z M270.027,17.119
		c0.707,0.67,1.49,0.775,2.285,0.691c0.229-0.024,0.557-0.353,0.594-0.58c0.035-0.224-0.244-0.714-0.383-0.713
		C271.693,16.525,270.72,16.124,270.027,17.119z M269.963,21.094c0.66,0.914,1.469,0.996,2.494,0.863
		c-0.08-0.484-0.154-0.933-0.234-1.412C271.371,20.752,270.668,20.923,269.963,21.094z M215.662,19.082
		c0.561,0.096,0.992,0.301,1.309,0.188c0.318-0.115,0.617-0.514,0.743-0.854c0.075-0.201-0.171-0.739-0.326-0.762
		c-0.362-0.055-0.846,0-1.12,0.215C215.992,18.086,215.912,18.55,215.662,19.082z M233.277,17.322
		c-0.011,0.183-0.021,0.366-0.033,0.549c0.391,0.086,0.777,0.222,1.172,0.246c0.72,0.047,1.295-0.421,0.996-0.721
		c-0.243-0.246-0.674-0.413-1.025-0.42C234.019,16.971,233.647,17.197,233.277,17.322z M135.681,17.592
		c-0.388-1.153-0.388-1.153-2.823-0.307C134.027,17.412,134.813,17.498,135.681,17.592z M240.468,22.571
		c0.478-0.925,0.206-1.394-0.527-1.481c-0.306-0.037-0.881,0.221-0.943,0.451c-0.232,0.85,0.483,0.912,1.067,1.027
		C240.16,22.588,240.264,22.571,240.468,22.571z M259.16,21.264c-0.661-0.044-1.018-0.117-1.361-0.078
		c-0.443,0.049-0.734,0.313-0.678,0.813c0.012,0.092,0.062,0.197,0.129,0.258c0.422,0.378,0.707,0.047,1.004-0.211
		C258.465,21.861,258.68,21.679,259.16,21.264z M260.521,23.686c0.949-0.709,0.727-1.533,0.697-2.267
		c-0.008-0.145-0.431-0.328-0.686-0.384c-0.129-0.027-0.313,0.191-0.551,0.354C260.146,22.09,260.317,22.814,260.521,23.686z
		 M22.787,56.252c-0.008-0.111-0.014-0.221-0.021-0.33c-0.352-0.022-0.703-0.056-1.055-0.057c-0.068,0-0.207,0.149-0.193,0.186
		c0.055,0.146,0.164,0.394,0.24,0.389C22.104,56.416,22.445,56.32,22.787,56.252z M243.504,20.941
		c-0.351,0.201-0.586,0.255-0.658,0.393c-0.254,0.485-0.007,1.07,0.486,1.162c0.133,0.025,0.441-0.159,0.434-0.222
		C243.718,21.848,243.607,21.428,243.504,20.941z M226.003,60.131c0.635,0.041,1.269,0.082,2.134,0.138
		C227.317,59.342,226.654,59.902,226.003,60.131z M255.6,21.027c-0.316,0.363-0.546,0.534-0.631,0.76
		c-0.051,0.131,0.131,0.35,0.207,0.529c0.248-0.129,0.575-0.203,0.713-0.406C255.969,21.789,255.754,21.467,255.6,21.027z
		 M254.016,23.408c0.218-0.963,0.337-1.321,0.362-1.686c0.011-0.148-0.182-0.311-0.282-0.466c-0.165,0.181-0.461,0.357-0.469,0.546
		C253.612,22.135,253.773,22.475,254.016,23.408z M76.229,13.391c-0.125-0.271-0.209-0.451-0.291-0.631
		c-0.223,0.176-0.535,0.314-0.633,0.546c-0.055,0.128,0.246,0.409,0.387,0.621C75.878,13.74,76.066,13.553,76.229,13.391z
		 M242.611,17.832c-0.146-0.281-0.234-0.451-0.322-0.621c-0.168,0.096-0.392,0.156-0.482,0.299c-0.076,0.12,0.005,0.339,0.018,0.514
		C242.076,17.962,242.328,17.9,242.611,17.832z M267.209,16.685c-0.254,0.162-0.543,0.258-0.549,0.368
		c-0.014,0.258,0.111,0.521,0.18,0.783c0.164-0.093,0.451-0.167,0.469-0.281C267.347,17.29,267.254,17.007,267.209,16.685z
		 M20.266,50.652c-0.137,0.104-0.359,0.189-0.387,0.316c-0.031,0.142,0.117,0.322,0.187,0.486c0.19-0.152,0.38-0.306,0.569-0.458
		C20.512,50.883,20.39,50.768,20.266,50.652z M20.633,69.295c0.332,0.174,0.549,0.336,0.786,0.379
		c0.076,0.014,0.331-0.337,0.292-0.445c-0.088-0.244-0.307-0.439-0.473-0.655C21.07,68.773,20.902,68.975,20.633,69.295z
		 M22.268,66.438c0.224,0.172,0.429,0.375,0.462,0.35c0.199-0.15,0.36-0.354,0.532-0.54c-0.129-0.09-0.302-0.283-0.381-0.251
		C22.665,66.086,22.486,66.271,22.268,66.438z M22.75,20.074c0.023,0.154,0.029,0.31,0.049,0.311
		c0.285,0.022,0.571,0.024,0.857,0.03c-0.019-0.114-0.027-0.323-0.057-0.325C23.321,20.064,23.041,20.074,22.75,20.074z
		 M9.692,49.532c-0.337-0.181-0.586-0.423-0.769-0.38c-0.178,0.041-0.408,0.386-0.389,0.575c0.018,0.171,0.37,0.456,0.522,0.427
		C9.264,50.113,9.418,49.818,9.692,49.532z M189.643,19.938c0.218-0.458,0.359-0.688,0.414-0.936
		c0.011-0.045-0.334-0.237-0.512-0.234c-0.143,0.002-0.416,0.241-0.396,0.301C189.223,19.308,189.391,19.518,189.643,19.938z
		 M223.621,59.846c-0.086,0.129-0.188,0.25-0.246,0.389c-0.014,0.033,0.14,0.191,0.163,0.18c0.147-0.071,0.28-0.174,0.419-0.267
		C223.846,60.047,223.734,59.947,223.621,59.846z M341.719,58.168c0.158,0.041,0.316,0.092,0.477,0.113
		c0.029,0.005,0.074-0.105,0.113-0.164c-0.159-0.039-0.316-0.089-0.477-0.11C341.803,58.002,341.758,58.111,341.719,58.168z
		 M258.807,17.834c0.17,0.049,0.361,0.169,0.506,0.127c0.121-0.035,0.188-0.258,0.279-0.398c-0.166-0.055-0.357-0.188-0.488-0.143
		C258.972,17.465,258.902,17.688,258.807,17.834z M289.615,31.283c0.165,0.147,0.284,0.255,0.404,0.361
		c0.096-0.146,0.261-0.291,0.266-0.441c0.006-0.165-0.135-0.336-0.214-0.504C289.926,30.886,289.78,31.072,289.615,31.283z
		 M43.688,17.919c0.352,0.044,0.62,0.091,0.89,0.1c0.065,0.002,0.136-0.125,0.205-0.192c-0.212-0.11-0.415-0.268-0.64-0.308
		C44.043,17.501,43.901,17.723,43.688,17.919z M14.911,36.505c-0.12,0.156-0.235,0.288-0.323,0.437
		c-0.014,0.021,0.133,0.182,0.153,0.171c0.143-0.072,0.272-0.173,0.406-0.264C15.07,36.736,14.993,36.624,14.911,36.505z
		 M13.156,58.311c-0.156,0.085-0.379,0.136-0.448,0.267c-0.05,0.093,0.106,0.295,0.171,0.448c0.157-0.07,0.419-0.112,0.444-0.215
		C13.36,58.668,13.221,58.48,13.156,58.311z M25.234,55.689c0.047,0.074,0.076,0.18,0.143,0.212
		c0.075,0.038,0.184,0.011,0.278,0.012c-0.06-0.123-0.12-0.245-0.181-0.368C25.396,55.594,25.316,55.641,25.234,55.689z
		 M20.131,44.316c-0.068-0.158-0.098-0.387-0.218-0.457c-0.099-0.056-0.306,0.078-0.464,0.128c0.084,0.157,0.135,0.357,0.264,0.45
		C19.787,44.49,19.986,44.365,20.131,44.316z M148.523,16.013c-0.166,0.09-0.412,0.142-0.478,0.28
		c-0.058,0.121,0.085,0.338,0.14,0.512c0.213-0.108,0.426-0.218,0.64-0.328C148.725,16.322,148.625,16.168,148.523,16.013z
		 M186.674,19.407c-0.151-0.083-0.303-0.168-0.455-0.252c-0.044,0.089-0.146,0.206-0.121,0.261c0.07,0.146,0.195,0.266,0.299,0.395
		C186.489,19.678,186.582,19.543,186.674,19.407z M82.697,11.194c-0.129,0.187-0.312,0.337-0.32,0.498
		c-0.01,0.155,0.159,0.321,0.25,0.481c0.145-0.191,0.336-0.368,0.41-0.585C83.064,11.507,82.821,11.332,82.697,11.194z
		 M77.807,12.133c-0.061,0.166-0.098,0.268-0.135,0.369c0.07-0.018,0.142-0.035,0.211-0.051
		C77.863,12.371,77.845,12.292,77.807,12.133z M25.908,64.779c-0.069,0.063-0.139,0.127-0.209,0.189
		c0.146,0.088,0.286,0.188,0.443,0.25c0.031,0.012,0.121-0.129,0.186-0.198C26.188,64.939,26.049,64.857,25.908,64.779z
		 M24.347,37.543c0.024-0.079,0.05-0.158,0.075-0.237c-0.085,0.052-0.169,0.104-0.254,0.155
		C24.228,37.488,24.287,37.517,24.347,37.543z M33.35,17.281c0.111,0.149,0.209,0.278,0.305,0.407
		c0.061-0.072,0.18-0.152,0.172-0.216c-0.023-0.164-0.104-0.32-0.16-0.479C33.561,17.09,33.454,17.188,33.35,17.281z M5.588,32.966
		c-0.027,0.082-0.057,0.163-0.083,0.245c0.112,0.006,0.224,0.012,0.334,0.02c-0.021-0.084-0.026-0.179-0.07-0.248
		C5.748,32.951,5.651,32.971,5.588,32.966z M236.502,62.378c-0.098-0.016-0.195-0.03-0.293-0.046
		c0.027,0.119,0.055,0.24,0.082,0.361c0.09-0.03,0.191-0.045,0.262-0.101C236.578,62.574,236.521,62.452,236.502,62.378z
		 M235.801,59.861c-0.068,0.043-0.138,0.088-0.207,0.133c0.043,0.059,0.086,0.116,0.129,0.175c0.098-0.075,0.197-0.151,0.296-0.226
		C235.945,59.916,235.873,59.888,235.801,59.861z M213.11,19.389c0.028-0.084,0.058-0.168,0.086-0.252
		c-0.075-0.021-0.19-0.084-0.218-0.058c-0.055,0.056-0.064,0.158-0.092,0.241C212.962,19.344,213.035,19.365,213.11,19.389z"/>
	<path fill-rule="evenodd" clip-rule="evenodd" d="M303.161,75.189c-3.757,0-7.513,0-11.269,0c-0.018,0.109-0.034,0.217-0.051,0.325
		c1.311,0.448,2.622,0.895,3.898,1.33c-3.953,1.086-8.072,1.163-10.781,0.168c-0.076,0.286-0.151,0.565-0.221,0.829
		c2.143,1.307,4.519,1.044,7.468,1.244c-2.476,0.863-4.374,1.07-6.354,0.91c-1.325-0.107-2.679-0.196-3.993-0.055
		c-2.219,0.238-4.408-0.288-6.65,0.029c-2.124,0.301-4.32,0.092-6.484,0.094c-1.136,0.001-2.277-0.109-3.404-0.02
		c-1.672,0.135-3.199-0.342-5.184-0.813c1.457-0.85,2.57-0.97,3.813-0.748c1.09,0.195,2.214,0.277,3.321,0.267
		c0.425-0.004,0.844-0.403,1.436-0.711c-1.382-0.755-2.572-0.884-3.834-0.806c-2.047,0.124-4.098,0.18-6.148,0.242
		c-0.381,0.012-0.766-0.086-1.195-0.139c0.131-0.325,0.252-0.633,0.256-0.631c1.399,0.531,2.086-0.984,3.358-1.119
		c2.869-0.306,5.72-0.45,8.599-0.367c1.025,0.029,2.058-0.129,3.087-0.197c1.126-0.075,2.253-0.152,3.38-0.219
		c0.72-0.042,1.451,0.002,2.16-0.107c5.227-0.809,10.467-0.357,15.703-0.189c1.953,0.063,3.902,0.408,5.857-0.037
		c0.387-0.088,0.822,0.02,1.232,0.068c0.674,0.08,1.348,0.185,2.02,0.279C303.176,74.941,303.168,75.066,303.161,75.189z
		 M278.21,77.283c-0.099,0.021-0.222,0.014-0.289,0.072c-0.377,0.334-0.443,1.123-0.116,1.312c0.074,0.042,0.199,0.052,0.281,0.021
		c0.444-0.17,0.595-0.761,0.318-1.245C278.365,77.374,278.275,77.335,278.21,77.283z M272.236,77.411
		c-0.086,0.012-0.202-0.007-0.25,0.042c-0.059,0.061-0.061,0.176-0.088,0.268c0.137-0.014,0.273-0.027,0.41-0.041
		C272.285,77.59,272.26,77.5,272.236,77.411z M283.013,77.153c-0.075,0.159-0.245,0.354-0.201,0.466
		c0.052,0.13,0.289,0.186,0.446,0.274c0.081-0.17,0.162-0.339,0.244-0.508C283.339,77.309,283.176,77.23,283.013,77.153z
		 M280.615,77.257c-0.072,0.03-0.144,0.062-0.217,0.091c0.053,0.055,0.098,0.143,0.158,0.153c0.061,0.012,0.137-0.052,0.206-0.083
		C280.713,77.364,280.664,77.311,280.615,77.257z"/>
	<path fill-rule="evenodd" clip-rule="evenodd" d="M56.675,1.258c0.714,0.618,0.925,1.542,1.96,1.596
		c0.635,0.033,1.406-0.457,1.964,0.316c-2.384,0.794-2.932,0.785-5.13,0.455c-1.2-0.18-2.434-0.21-3.65-0.184
		c-3.081,0.064-6.16,0.212-9.242,0.298c-0.61,0.017-1.226-0.096-1.98-0.161c-0.295-0.591-0.602-1.205-0.905-1.814
		c0.276-0.158,0.437-0.329,0.595-0.328c2.77,0.012,5.537,0.44,8.306-0.01c0.808-0.131,1.608-0.318,2.419-0.392
		c0.469-0.042,1.032-0.048,1.418,0.169C53.791,1.968,55.131,1.818,56.675,1.258z"/>
	<path fill-rule="evenodd" clip-rule="evenodd" d="M382.644,27.91c-3.482-0.251-6.967-0.485-10.446-0.758
		c-3.596-0.281-7.189-0.578-10.78-0.907c-3.44-0.315-6.885-0.634-10.214-1.718c5.242,0.242,10.486,0.103,15.703,0.975
		c5.229,0.873,10.512,1.422,15.771,2.114C382.666,27.714,382.654,27.813,382.644,27.91z"/>
	<path fill-rule="evenodd" clip-rule="evenodd" d="M309.029,29.313c0.154-0.657,0.311-1.325,0.48-2.05
		c0.352,0.057,0.641,0.155,0.922,0.137c0.721-0.045,1.753,0.571,2.228,1.176c0.282,0.359,0.812,0.78,1.206,0.757
		c2.428-0.14,4.813,0.974,7.249,0.218c2.199,0.785,4.696-0.379,6.843,1.142c-0.073,0.194-0.104,0.617-0.293,0.705
		c-0.344,0.162-0.785,0.191-1.178,0.161c-1.656-0.128-3.219-1.327-4.965-0.421c-1.508-0.932-3.213-0.553-4.833-0.696
		c-1.218-0.107-2.484-0.242-3.669-0.027C311.469,30.695,310.254,30.252,309.029,29.313z"/>
	<path fill-rule="evenodd" clip-rule="evenodd" d="M64.764,6.094c1.016-0.267,1.961-0.45,2.857-0.769
		c0.865-0.308,1.696-0.724,2.515-1.146c1.37-0.704,2.571-0.483,3.636,0.583c0.846-0.383,1.577-1.069,2.748-0.641
		c0,0.724,0,1.508,0,2.27c-1.203,0.111-2.361,0.255-3.523,0.313c-1.223,0.062-2.477-0.11-3.669,0.095
		C67.725,7.072,66.283,6.816,64.764,6.094z"/>
	<path fill-rule="evenodd" clip-rule="evenodd" d="M257.23,82.863c5.284-0.436,10.566-0.886,15.854-1.287
		c0.98-0.075,2.022-0.214,3.014,0.463c-0.559,0.679-0.824,1.318-1.916,1.255c-1.809-0.104-3.637,0.128-5.457,0.204
		c-0.508,0.021-1.033,0.074-1.521-0.026c-2.447-0.51-4.908-0.183-7.363-0.197c-0.872-0.005-1.745-0.108-2.617-0.167
		C257.225,83.025,257.229,82.944,257.23,82.863z"/>
	<path fill-rule="evenodd" clip-rule="evenodd" d="M287.022,68.297c-0.258-1.127-0.109-1.553,0.663-1.474
		c1.756,0.178,3.613-0.477,5.273,0.694c0.244,0.173,0.896-0.231,1.383-0.376c0.613,1.437-0.684,1.972-1.254,2.83l0.053-0.063
		c-0.487-0.043-1.017,0.02-1.447-0.158c-0.417-0.172-0.732-0.591-1.093-0.9c-0.423,1.037-1.415-0.252-2.038,0.515
		c-0.266,0.326-1.1,0.188-1.842,0.284c0.136-0.609,0.219-0.987,0.304-1.365L287.022,68.297z"/>
	<path fill-rule="evenodd" clip-rule="evenodd" d="M236.236,9.247c1.861-0.94,3.072-1.633,4.355-2.149
		c0.371-0.151,0.947,0.199,1.586,0.359c0.454-0.291,1.042-0.67,1.627-1.046c0.137,0.127,0.349,0.229,0.359,0.349
		c0.052,0.596,0.191,1.238,0.027,1.783c-0.158,0.526-0.658,1.373-1.261,0.971c-1.071-0.714-1.934,0.313-2.936,0.043
		C239.047,9.303,238.012,9.375,236.236,9.247z"/>
	<path fill-rule="evenodd" clip-rule="evenodd" d="M286.752,82.9c-1.928-0.014-3.268-0.395-4.688,0.181
		c-0.875,0.356-1.996,0.147-3.007,0.122c-0.616-0.016-1.113-0.573-0.89-0.955c0.176-0.297,0.573-0.656,0.875-0.658
		c2.316-0.021,4.633,0.016,6.947,0.109C286.188,81.707,286.363,82.267,286.752,82.9z"/>
	<path fill-rule="evenodd" clip-rule="evenodd" d="M265.779,8.453c1.893-0.068,3.411-2.068,5.621-0.959
		c-0.128,0.357-0.209,0.969-0.377,0.994C269.284,8.752,267.551,9.747,265.779,8.453z"/>
	<path fill-rule="evenodd" clip-rule="evenodd" d="M301.51,66.938c0,0.976,0,1.357,0,1.653c-0.953,0.08-1.82,0.186-2.693,0.216
		c-0.6,0.021-1.242,0.048-1.793-0.142c-0.367-0.125-0.604-0.627-0.967-1.037C297.91,66.671,299.629,68.201,301.51,66.938z"/>
	<path fill-rule="evenodd" clip-rule="evenodd" d="M251.889,17.796c-1.443-0.802-2.885-1.354-4.59-0.661
		c-0.35,0.143-0.978-0.398-1.977-0.852c1.382-0.481,2.068-1.09,3.211-0.611c0.666,0.279,1.547,0.051,2.543,0.051
		c0.242,0.638,0.518,1.359,0.795,2.08C251.875,17.801,251.889,17.796,251.889,17.796z"/>
	<path fill-rule="evenodd" clip-rule="evenodd" d="M188.341,10.004c0.875-0.143,1.56-0.254,2.491-0.405
		c-0.053,0.495,0.033,0.968-0.156,1.144c-0.25,0.232-0.713,0.309-1.09,0.316c-1.369,0.035-2.74,0.014-4.115,0.014
		c-0.404-0.852,0.499-0.954,0.817-1.373C187.22,8.477,187.24,8.49,188.341,10.004z"/>
	<path fill-rule="evenodd" clip-rule="evenodd" d="M322.42,6.203c-0.806,0.064-1.219,0.194-1.582,0.111
		c-1.737-0.4-3.459-0.857-5.182-1.629c0.727-0.037,1.45-0.094,2.176-0.104c0.813-0.013,1.686-0.161,2.428,0.075
		C320.951,4.875,321.508,5.523,322.42,6.203z"/>
	<path fill-rule="evenodd" clip-rule="evenodd" d="M307.285,3.521c0.371,0.063,0.742,0.126,1.113,0.186
		c0.51,0.082,1.018,0.177,1.53,0.236c0.408,0.047,0.82,0.047,1.23,0.07c0.515,0.031,1.038,0.012,1.54,0.112
		c0.346,0.069,0.661,0.302,1.014,0.474c-0.534,0.918-1.342,0.891-1.992,0.771c-0.781-0.145-1.484-0.675-2.264-0.879
		c-0.738-0.194-1.531-0.186-2.299-0.266C307.2,3.99,307.244,3.756,307.285,3.521z"/>
	<path fill-rule="evenodd" clip-rule="evenodd" d="M99.793,9.453c1.017,0.067,1.461,0.598,1.346,1.248
		c-0.113,0.643-0.623,1.064-1.293,1.07c-0.666,0.006-1.434-0.838-1.148-1.461C98.897,9.871,99.544,9.636,99.793,9.453z"/>
	<path fill-rule="evenodd" clip-rule="evenodd" d="M229.895,14.574c0.086,0.389,0.171,0.771,0.264,1.19
		c-0.918,0.354-1.801,0.694-2.635,1.017c-0.715-0.564-0.556-1.168-0.126-1.607C228.05,14.508,228.877,14.205,229.895,14.574z"/>
	<path fill-rule="evenodd" clip-rule="evenodd" d="M287.024,68.283c-1.689-0.393-3.486,0.309-5.167-0.492
		c0.039-0.846,0.715-0.439,1.084-0.582c0.477-0.182,0.971-0.318,1.622-0.527c0.749,0.49,1.603,1.05,2.456,1.611
		C287.022,68.297,287.024,68.283,287.024,68.283z"/>
	<path fill-rule="evenodd" clip-rule="evenodd" d="M222.445,9.261c-0.984,0-1.969,0.013-2.951-0.011
		c-0.176-0.004-0.349-0.154-0.522-0.236c0.188-0.182,0.37-0.372,0.569-0.544c0.283-0.247,0.573-0.49,0.877-0.714
		c0.055-0.041,0.195-0.004,0.278,0.037c0.606,0.295,1.21,0.6,1.814,0.902C222.488,8.885,222.467,9.072,222.445,9.261z"/>
	<path fill-rule="evenodd" clip-rule="evenodd" d="M317.232,21.577c0.162-0.328,0.336-0.679,0.541-1.097
		c0.496,0.301,0.898,0.602,1.347,0.8c0.353,0.155,0.763,0.185,1.18,0.276C319.293,23.443,319.221,23.442,317.232,21.577z"/>
	<path fill-rule="evenodd" clip-rule="evenodd" d="M225.229,17.065c-0.872-2.044-0.897-2.09-0.322-2.923
		c0.141-0.205,0.512-0.393,0.74-0.356c0.193,0.03,0.506,0.444,0.464,0.609C225.895,15.23,225.578,16.039,225.229,17.065z"/>
	<path fill-rule="evenodd" clip-rule="evenodd" d="M245.79,83.191c-1.143,0.502-2.292,0.553-3.688,0.336
		C243.247,82.734,243.247,82.734,245.79,83.191z"/>
	<path fill-rule="evenodd" clip-rule="evenodd" d="M58.004,64.749c0.494,0.054,1.013,0.027,1.474,0.181
		c0.72,0.24,1.299,1.127,0.977,1.583c-0.278,0.395-0.918,0.533-1.46,0.815c-0.348-1.01-0.63-1.832-0.915-2.652
		C58.077,64.678,58.004,64.749,58.004,64.749z"/>
	<path fill-rule="evenodd" clip-rule="evenodd" d="M54.107,77.381c0.929-1.135,1.699-1.255,2.527-1.073
		c0.549,0.121,1.212,0.153,1.448,1.073C56.805,77.381,55.65,77.381,54.107,77.381z"/>
	<path fill-rule="evenodd" clip-rule="evenodd" d="M230.09,9.322c0.289-0.941,1.068-0.976,1.727-1.145
		c0.672-0.174,0.893,0.248,0.771,1.402c-0.511,0.488-0.897-0.069-1.346-0.16C230.877,9.347,230.496,9.354,230.09,9.322z"/>
	<path fill-rule="evenodd" clip-rule="evenodd" d="M56.887,67.074c-0.394,1.523-1.507,1.391-2.918,1.33
		C54.829,67.29,55.898,67.32,56.887,67.074z"/>
	<path fill-rule="evenodd" clip-rule="evenodd" d="M286.365,15.217c1.082-0.238,1.976,0.308,3.459,0.773
		c-1.649,0.365-2.794,0.617-3.896,0.861c-0.531-0.906,0.299-1.186,0.508-1.697L286.365,15.217z"/>
	<path fill-rule="evenodd" clip-rule="evenodd" d="M24.172,81.359c0.543,1.121,0.244,1.898-0.442,2.57
		c-0.101,0.098-0.396,0.111-0.522,0.035c-0.139-0.083-0.309-0.378-0.26-0.475C23.305,82.805,23.713,82.145,24.172,81.359z"/>
	<path fill-rule="evenodd" clip-rule="evenodd" d="M248.724,8.638c-1.032,0.166-2.063,0.331-3.21,0.516
		C246.088,8.049,246.869,7.847,248.724,8.638z"/>
	<path fill-rule="evenodd" clip-rule="evenodd" d="M251.771,83.209c-0.172,0.102-0.346,0.293-0.516,0.29
		c-0.773-0.017-1.545-0.085-2.781-0.166C249.828,82.454,250.869,83.037,251.771,83.209z"/>
	<path fill-rule="evenodd" clip-rule="evenodd" d="M281.815,16.113c-0.954,0.533-1.877,0.484-2.817,0.368
		c-0.113-0.954,0.564-0.831,0.959-0.939C280.623,15.358,281.315,15.293,281.815,16.113z"/>
	<path fill-rule="evenodd" clip-rule="evenodd" d="M128.393,81.623c0.642,0,1.282,0,2.043,0
		C129.672,82.607,129.672,82.607,128.393,81.623z"/>
	<path fill-rule="evenodd" clip-rule="evenodd" d="M130.767,69.16c-0.536-0.117-1.067-0.299-1.608-0.332
		c-0.602-0.039-1.213,0.058-2.348,0.127C129.51,68.441,129.51,68.47,130.767,69.16z"/>
	<path fill-rule="evenodd" clip-rule="evenodd" d="M297.998,28.063c0.831-1.238,2.122-0.971,3.314-0.984
		c0.12-0.002,0.336,0.278,0.336,0.428c0.002,0.156-0.172,0.393-0.325,0.455c-0.272,0.111-0.59,0.162-0.887,0.157
		c-0.815-0.015-1.631-0.072-2.446-0.1C297.987,28.031,297.998,28.063,297.998,28.063z"/>
	<path fill-rule="evenodd" clip-rule="evenodd" d="M259.08,79.394c-0.709,0.917-1.316,0.606-2.109,0.146
		c0.203-0.389,0.406-0.775,0.695-1.323C258.246,78.699,258.66,79.043,259.08,79.394z"/>
	<path fill-rule="evenodd" clip-rule="evenodd" d="M257.976,7.314c0.592,0.748,0.938,1.184,1.341,1.692
		C257.754,8.972,257.762,8.962,257.976,7.314z"/>
	<path fill-rule="evenodd" clip-rule="evenodd" d="M33.454,0c0.952,0.162,1.905,0.324,2.909,0.496
		c-0.287,0.777-0.636,0.297-0.91,0.323c-0.395,0.036-0.793,0.074-1.186,0.051c-0.332-0.021-0.656-0.126-0.984-0.194
		C33.34,0.45,33.396,0.225,33.454,0z"/>
	<path fill-rule="evenodd" clip-rule="evenodd" d="M277.684,16.02c-1.182,1.152-1.182,1.152-2.727,0.152
		C276.068,15.563,276.068,15.563,277.684,16.02z"/>
	<path fill-rule="evenodd" clip-rule="evenodd" d="M337.107,36.443c-1.943,0.153-1.943,0.153-1.583-1.406
		C336.074,35.525,336.539,35.938,337.107,36.443z"/>
	<path fill-rule="evenodd" clip-rule="evenodd" d="M276.511,4.268c0.789-0.93,1.659-1.205,2.856-0.343
		c-0.982,0.905-1.972,0.218-2.863,0.338L276.511,4.268z"/>
	<path fill-rule="evenodd" clip-rule="evenodd" d="M277.646,66.305c0.932,0.538,1.498,0.865,2.379,1.375c-1.022,0-1.742,0-2.615,0
		C277.482,67.259,277.543,66.911,277.646,66.305z"/>
	<path fill-rule="evenodd" clip-rule="evenodd" d="M280.334,8.984c0.136-0.662,0.956-1.123,1.578-0.875
		c0.079,0.031,0.195,0.152,0.182,0.205c-0.063,0.266-0.09,0.594-0.264,0.765c-0.328,0.322-0.697,0.755-1.245,0.415
		C280.449,9.408,280.414,9.158,280.334,8.984z"/>
	<path fill-rule="evenodd" clip-rule="evenodd" d="M45.299,75.027c0.402,0.619,0.714,1.097,1.254,1.926
		c-0.831-0.074-1.396,0.044-1.655-0.184C44.387,76.319,44.489,75.724,45.299,75.027z"/>
	<path fill-rule="evenodd" clip-rule="evenodd" d="M95.137,69.508c0.83-0.561,1.631-0.264,2.455,0.11
		c-0.729,0.101-1.457,0.208-2.186,0.294C95.36,69.917,95.296,69.754,95.137,69.508z"/>
	<path fill-rule="evenodd" clip-rule="evenodd" d="M303.762,28.548c0.092,0.95,0.143,1.473,0.215,2.253
		c-0.734-0.135-1.25-0.23-2.088-0.386C302.572,29.734,303.015,29.293,303.762,28.548z"/>
	<path fill-rule="evenodd" clip-rule="evenodd" d="M278.109,7.395c0.013,1.694,0.013,1.694-1.708,1.213
		C277.044,8.15,277.566,7.779,278.109,7.395z"/>
	<path fill-rule="evenodd" clip-rule="evenodd" d="M18.774,11.586c1.312-0.363,2.052-0.568,3.38-0.936
		C21.036,11.786,20.221,11.709,18.774,11.586z"/>
	<path fill-rule="evenodd" clip-rule="evenodd" d="M134.098,82.25c-0.519,0-1.035,0-1.648,0c0.49-0.9,1.111-0.405,1.597-0.65
		C134.063,81.815,134.08,82.033,134.098,82.25z"/>
	<path fill-rule="evenodd" clip-rule="evenodd" d="M256.276,13.654c0.364-0.15,0.696-0.357,1.052-0.408
		c0.258-0.037,0.549,0.121,0.814,0.223c0.04,0.015,0.055,0.205,0.021,0.291c-0.221,0.557-0.95,0.838-1.509,0.551
		C256.515,14.238,256.465,13.992,256.276,13.654z"/>
	<path fill-rule="evenodd" clip-rule="evenodd" d="M315.418,21.711c-0.477,0-0.955,0.025-1.428-0.02
		c-0.115-0.01-0.312-0.272-0.286-0.375c0.036-0.152,0.271-0.396,0.36-0.373c0.455,0.117,0.893,0.31,1.336,0.477
		C315.406,21.516,315.412,21.613,315.418,21.711z"/>
	<path fill-rule="evenodd" clip-rule="evenodd" d="M5.597,26.627c-1.109,0.534-1.109,0.534-2.86,0.584
		c0.969-0.902,2.104-0.025,2.91-0.607L5.597,26.627z"/>
	<path fill-rule="evenodd" clip-rule="evenodd" d="M19.162,17.01c0.158,0.132,0.492,0.28,0.525,0.48
		c0.029,0.168-0.264,0.438-0.47,0.582c-0.144,0.101-0.396,0.119-0.575,0.076c-0.266-0.063-0.511-0.213-0.764-0.326
		c0.203-0.207,0.385-0.441,0.617-0.609C18.645,17.105,18.866,17.094,19.162,17.01z"/>
	<path fill-rule="evenodd" clip-rule="evenodd" d="M192.479,9.24c0.152-0.215,0.289-0.487,0.504-0.67
		c0.094-0.079,0.477-0.02,0.5,0.054c0.084,0.252,0.181,0.612,0.062,0.79c-0.136,0.198-0.492,0.271-0.767,0.33
		C192.721,9.756,192.6,9.453,192.479,9.24z"/>
	<path fill-rule="evenodd" clip-rule="evenodd" d="M303.281,70.901c-0.791-0.04-1.583-0.079-2.658-0.133
		C301.937,70.424,301.937,70.424,303.281,70.901z"/>
	<path fill-rule="evenodd" clip-rule="evenodd" d="M276.504,4.263c-0.797-0.04-1.592-0.082-2.373-0.122
		c-0.019-0.707,0.385-0.891,0.775-0.752c0.566,0.203,1.07,0.578,1.604,0.879C276.511,4.268,276.504,4.263,276.504,4.263z"/>
	<path fill-rule="evenodd" clip-rule="evenodd" d="M305.094,68.715c-0.48,0.051-0.959,0.102-1.438,0.153
		c-0.008-0.115-0.016-0.23-0.023-0.346c0.482,0,0.964,0,1.445,0C305.084,68.586,305.088,68.65,305.094,68.715z"/>
	<path fill-rule="evenodd" clip-rule="evenodd" d="M0.953,39.347c0.636,0.031,1.084,0.053,1.668,0.081
		C1.816,40.292,1.816,40.292,0.953,39.347z"/>
	<path fill-rule="evenodd" clip-rule="evenodd" d="M28.786,82.976c0.296,0.563,0.784,1.089,0.427,1.856
		c-0.789-0.555-0.713-1.18-0.41-1.846L28.786,82.976z"/>
	<path fill-rule="evenodd" clip-rule="evenodd" d="M290.418,81.589c0.275,0.149,0.438,0.237,0.599,0.325
		c-0.173,0.184-0.321,0.413-0.531,0.525c-0.088,0.047-0.31-0.158-0.47-0.248C290.152,81.988,290.287,81.784,290.418,81.589z"/>
	<path fill-rule="evenodd" clip-rule="evenodd" d="M322.063,8.586c-0.498,0-0.996,0-1.496,0c-0.004-0.049-0.009-0.098-0.014-0.146
		c0.496-0.035,0.994-0.072,1.49-0.108C322.05,8.416,322.056,8.501,322.063,8.586z"/>
	<path fill-rule="evenodd" clip-rule="evenodd" d="M218.445,63.612c-0.442-0.091-0.886-0.177-1.324-0.286
		c-0.021-0.005,0.002-0.307,0.01-0.307c0.453-0.016,0.904-0.014,1.357-0.014C218.474,63.208,218.459,63.41,218.445,63.612z"/>
	<path fill-rule="evenodd" clip-rule="evenodd" d="M215.066,61.985c0,0.306,0,0.612,0,0.894c-0.676,0.557-1.352,0.38-1.865,0.232
		c0.58-0.311,1.261-0.674,1.938-1.043C215.136,62.064,215.066,61.985,215.066,61.985z"/>
	<path fill-rule="evenodd" clip-rule="evenodd" d="M204.342,9.754c-0.121,0.143-0.226,0.381-0.366,0.404
		c-0.341,0.055-0.698,0.009-1.049,0.004c0.005-0.189-0.05-0.512,0.025-0.547c0.319-0.146,0.675-0.248,1.024-0.275
		C204.088,9.332,204.221,9.607,204.342,9.754z"/>
	<path fill-rule="evenodd" clip-rule="evenodd" d="M236.246,67.521c0.225,0.158,0.379,0.265,0.532,0.373
		c-0.306,0.098-0.606,0.224-0.919,0.274c-0.088,0.015-0.213-0.192-0.319-0.298C235.787,67.749,236.035,67.626,236.246,67.521z"/>
	<path fill-rule="evenodd" clip-rule="evenodd" d="M40.864,75.406c0.124,0.268,0.229,0.5,0.335,0.731
		c-0.154,0.052-0.354,0.188-0.453,0.136c-0.146-0.078-0.285-0.284-0.3-0.448C40.438,75.724,40.662,75.6,40.864,75.406z"/>
	<path fill-rule="evenodd" clip-rule="evenodd" d="M197.17,9.455c-0.125,0.184-0.271,0.43-0.447,0.65
		c-0.053,0.063-0.248,0.109-0.276,0.078c-0.116-0.135-0.304-0.345-0.263-0.449c0.105-0.275,0.309-0.516,0.488-0.758
		c0.057-0.075,0.165-0.111,0.25-0.166C196.992,8.992,197.062,9.174,197.17,9.455z"/>
	<path fill-rule="evenodd" clip-rule="evenodd" d="M253.992,67.734c0.201,0.189,0.415,0.295,0.445,0.439
		c0.068,0.328-0.58,0.691-0.913,0.491c-0.128-0.075-0.247-0.438-0.188-0.499C253.514,67.973,253.781,67.863,253.992,67.734z"/>
	<path fill-rule="evenodd" clip-rule="evenodd" d="M59.998,77.054c-0.137,0.073-0.271,0.146-0.408,0.218
		c-0.041-0.178-0.134-0.367-0.103-0.531c0.019-0.094,0.239-0.148,0.368-0.222C59.902,76.697,59.95,76.875,59.998,77.054z"/>
	<path fill-rule="evenodd" clip-rule="evenodd" d="M288.196,4.498c-0.099,0.131-0.196,0.26-0.294,0.389
		c-0.114-0.126-0.242-0.244-0.332-0.386c-0.019-0.029,0.119-0.218,0.148-0.209C287.885,4.339,288.039,4.424,288.196,4.498z"/>
	<path fill-rule="evenodd" clip-rule="evenodd" d="M234.109,83.217c0.095,0.109,0.195,0.226,0.297,0.341
		c-0.082,0.031-0.186,0.108-0.24,0.083c-0.117-0.057-0.209-0.166-0.311-0.254C233.928,83.338,234,83.289,234.109,83.217z"/>
	<path fill-rule="evenodd" clip-rule="evenodd" d="M306.457,28.79c0.335,0.05,0.67,0.099,1.006,0.147
		c-0.055,0.063-0.112,0.182-0.164,0.178c-0.292-0.013-0.582-0.055-0.871-0.088C306.438,28.949,306.447,28.869,306.457,28.79z"/>
	<path fill-rule="evenodd" clip-rule="evenodd" d="M302.646,20.166c0.074-0.168,0.112-0.377,0.238-0.482
		c0.057-0.049,0.379,0.078,0.414,0.184c0.044,0.123-0.059,0.415-0.154,0.444C303.004,20.354,302.814,20.223,302.646,20.166z"/>
	<path fill-rule="evenodd" clip-rule="evenodd" d="M51.071,81.481c0.128,0.111,0.257,0.223,0.385,0.334
		c-0.229,0.124-0.458,0.247-0.687,0.37c-0.078-0.164-0.157-0.327-0.236-0.49C50.713,81.624,50.893,81.553,51.071,81.481z"/>
	<path fill-rule="evenodd" clip-rule="evenodd" d="M53.248,81.053c0.125,0.419,0.315,0.723,0.231,0.863
		c-0.097,0.162-0.433,0.221-0.67,0.235c-0.066,0.005-0.259-0.354-0.208-0.453C52.705,81.493,52.934,81.351,53.248,81.053z"/>
	<path fill-rule="evenodd" clip-rule="evenodd" d="M265.945,4.024c0.039-0.078,0.098-0.227,0.118-0.222
		c0.174,0.041,0.341,0.109,0.511,0.17c-0.04,0.069-0.092,0.202-0.119,0.197C266.281,4.139,266.114,4.076,265.945,4.024z"/>
	<path fill-rule="evenodd" clip-rule="evenodd" d="M111.268,68.771c0.104,0.137,0.209,0.273,0.313,0.412
		c-0.137,0.074-0.283,0.219-0.407,0.202c-0.11-0.017-0.196-0.21-0.294-0.326C111.008,68.963,111.137,68.867,111.268,68.771z"/>
	<path fill-rule="evenodd" clip-rule="evenodd" d="M255.828,76.666c-0.217,0.119-0.447,0.314-0.514,0.27
		c-0.18-0.125-0.324-0.337-0.406-0.545c-0.02-0.053,0.338-0.334,0.363-0.314C255.475,76.244,255.64,76.456,255.828,76.666z"/>
	<path fill-rule="evenodd" clip-rule="evenodd" d="M236.863,83.299c0,0.137,0,0.271,0,0.406c-0.175-0.002-0.351-0.004-0.527-0.005
		c0.016-0.134-0.008-0.354,0.057-0.382C236.523,83.258,236.701,83.299,236.863,83.299z"/>
	<path fill-rule="evenodd" clip-rule="evenodd" d="M124.729,68.583c0.077,0.149,0.155,0.299,0.232,0.448
		c-0.209,0.09-0.419,0.182-0.628,0.271c-0.035-0.169-0.148-0.387-0.084-0.493C124.33,68.684,124.563,68.654,124.729,68.583z"/>
	<path fill-rule="evenodd" clip-rule="evenodd" d="M119.02,82.182c-0.117-0.061-0.225-0.081-0.246-0.136
		c-0.021-0.051,0.053-0.138,0.084-0.209C118.905,81.939,118.953,82.041,119.02,82.182z"/>
	<path fill-rule="evenodd" clip-rule="evenodd" d="M240.435,83.122c0.118,0.144,0.237,0.285,0.355,0.429
		c-0.149,0.071-0.31,0.213-0.447,0.194c-0.12-0.016-0.212-0.214-0.317-0.332C240.162,83.316,240.299,83.219,240.435,83.122z"/>
	<path fill-rule="evenodd" clip-rule="evenodd" d="M82.982,6.711c-0.125-0.119-0.249-0.238-0.373-0.357
		c0.141-0.096,0.273-0.209,0.428-0.274c0.037-0.017,0.217,0.149,0.205,0.181C83.18,6.42,83.074,6.563,82.982,6.711z"/>
	<path fill-rule="evenodd" clip-rule="evenodd" d="M22.02,16.535c0.15-0.094,0.299-0.193,0.457-0.27
		c0.015-0.007,0.166,0.17,0.146,0.219c-0.061,0.156-0.172,0.292-0.264,0.436C22.246,16.791,22.133,16.664,22.02,16.535z"/>
	<path fill-rule="evenodd" clip-rule="evenodd" d="M336.945,68.725c0.076,0.164,0.15,0.329,0.227,0.492
		c-0.17,0.06-0.373,0.203-0.502,0.153c-0.111-0.043-0.141-0.304-0.206-0.468C336.625,68.843,336.785,68.783,336.945,68.725z"/>
	<path fill-rule="evenodd" clip-rule="evenodd" d="M15.617,17.438c0.119-0.127,0.238-0.253,0.357-0.38
		c0.154,0.196,0.309,0.392,0.463,0.586c-0.162,0.075-0.348,0.236-0.48,0.201C15.817,17.807,15.729,17.581,15.617,17.438z"/>
	<path fill-rule="evenodd" clip-rule="evenodd" d="M42.96,76.412c-0.12,0.1-0.241,0.197-0.362,0.296
		c-0.048-0.077-0.154-0.205-0.137-0.226c0.105-0.119,0.239-0.213,0.363-0.316C42.869,76.248,42.914,76.33,42.96,76.412z"/>
	<path fill-rule="evenodd" clip-rule="evenodd" d="M36.922,81.537c0.156,0.107,0.313,0.215,0.469,0.322
		c-0.103,0.133-0.278,0.39-0.297,0.379c-0.246-0.146-0.471-0.328-0.699-0.502C36.57,81.67,36.746,81.604,36.922,81.537z"/>
	<path fill-rule="evenodd" clip-rule="evenodd" d="M37.139,85.751c0.206,0.255,0.391,0.448,0.518,0.673
		c0.02,0.035-0.275,0.334-0.332,0.309c-0.17-0.079-0.352-0.236-0.416-0.404C36.867,86.215,37.02,86.029,37.139,85.751z"/>
	<path fill-rule="evenodd" clip-rule="evenodd" d="M311.299,21.244c-0.078-0.119-0.156-0.236-0.232-0.354
		c0.093-0.011,0.189-0.039,0.279-0.025c0.092,0.014,0.176,0.066,0.264,0.104C311.506,21.061,311.402,21.152,311.299,21.244z"/>
	<path fill-rule="evenodd" clip-rule="evenodd" d="M318.082,18.344c0.094,0.006,0.188,0.014,0.28,0.021
		c-0.108,0.05-0.216,0.125-0.329,0.138c-0.07,0.009-0.152-0.076-0.229-0.119C317.896,18.37,317.988,18.356,318.082,18.344z"/>
	<path fill-rule="evenodd" clip-rule="evenodd" d="M250.467,76.559c0.043,0.068,0.09,0.143,0.139,0.218
		c-0.084,0.054-0.168,0.106-0.25,0.159c-0.064-0.125-0.129-0.251-0.193-0.377C250.262,76.559,250.362,76.559,250.467,76.559z"/>
	<path fill-rule="evenodd" clip-rule="evenodd" d="M250.195,13.82c0.16,0.085,0.322,0.169,0.482,0.254
		c-0.077,0.061-0.172,0.187-0.226,0.172c-0.167-0.05-0.32-0.152-0.478-0.234C250.049,13.948,250.121,13.885,250.195,13.82z"/>
	<path fill-rule="evenodd" clip-rule="evenodd" d="M309.785,7.576c0.156,0.108,0.313,0.215,0.469,0.322
		c-0.164,0.088-0.334,0.252-0.494,0.244c-0.162-0.009-0.318-0.186-0.476-0.289C309.451,7.762,309.619,7.669,309.785,7.576z"/>
	<path fill-rule="evenodd" clip-rule="evenodd" d="M307.98,20.693c0.078,0.03,0.158,0.06,0.238,0.089
		c-0.094,0.087-0.189,0.175-0.283,0.262c-0.056-0.065-0.111-0.131-0.167-0.196C307.84,20.797,307.909,20.745,307.98,20.693z"/>
	<path fill-rule="evenodd" clip-rule="evenodd" d="M305.176,3.695c0.033-0.063,0.065-0.125,0.097-0.188
		c0.069,0.039,0.167,0.063,0.198,0.121c0.021,0.037-0.055,0.127-0.088,0.193C305.314,3.78,305.245,3.738,305.176,3.695z"/>
	<path fill-rule="evenodd" clip-rule="evenodd" d="M298.207,70.56c0.084-0.172,0.135-0.385,0.269-0.493
		c0.06-0.049,0.389,0.088,0.419,0.193c0.041,0.138-0.094,0.325-0.152,0.492C298.563,70.688,298.386,70.624,298.207,70.56z"/>
	<path fill-rule="evenodd" clip-rule="evenodd" d="M280.959,14.16c-0.178,0.056-0.332,0.126-0.489,0.137
		c-0.032,0.002-0.079-0.222-0.119-0.341c0.084-0.023,0.187-0.089,0.247-0.061C280.727,13.955,280.832,14.064,280.959,14.16z"/>
	<path fill-rule="evenodd" clip-rule="evenodd" d="M262.328,68.451c-0.106,0.093-0.213,0.184-0.32,0.275
		c-0.035-0.084-0.092-0.165-0.1-0.251c-0.007-0.084,0.037-0.173,0.058-0.261C262.086,68.293,262.207,68.372,262.328,68.451z"/>
	<path fill-rule="evenodd" clip-rule="evenodd" d="M256.098,8.488c0.074,0.027,0.149,0.053,0.225,0.078
		c-0.069,0.127-0.129,0.261-0.215,0.375c-0.014,0.02-0.139-0.044-0.211-0.068C255.963,8.744,256.029,8.617,256.098,8.488z"/>
	<path fill-rule="evenodd" clip-rule="evenodd" d="M254.367,13.549c0.094,0.107,0.184,0.211,0.273,0.313
		c-0.137,0.096-0.265,0.207-0.413,0.274c-0.04,0.019-0.142-0.097-0.214-0.151C254.127,13.846,254.238,13.707,254.367,13.549z"/>
	<path fill-rule="evenodd" clip-rule="evenodd" d="M253.84,8.296c0.151,0.077,0.302,0.153,0.452,0.231
		c-0.068,0.063-0.157,0.188-0.205,0.174c-0.161-0.047-0.308-0.145-0.46-0.223C253.698,8.418,253.77,8.357,253.84,8.296z"/>
	<path fill-rule="evenodd" clip-rule="evenodd" d="M293.432,9.184c-0.024-0.08-0.092-0.18-0.066-0.237
		c0.033-0.075,0.141-0.118,0.217-0.175c0.043,0.133,0.086,0.266,0.128,0.398C293.617,9.175,293.525,9.18,293.432,9.184z"/>
	<path fill-rule="evenodd" clip-rule="evenodd" d="M287.826,82.832c0.041-0.088,0.063-0.201,0.129-0.254
		c0.034-0.026,0.217,0.052,0.221,0.094c0.01,0.086-0.058,0.18-0.093,0.27C287.997,82.904,287.911,82.868,287.826,82.832z"/>
	<path fill-rule="evenodd" clip-rule="evenodd" d="M285.48,8.948c0.1-0.116,0.197-0.23,0.297-0.345
		c0.092,0.142,0.194,0.277,0.264,0.43c0.012,0.028-0.145,0.185-0.172,0.172C285.73,9.14,285.607,9.037,285.48,8.948z"/>
	<path fill-rule="evenodd" clip-rule="evenodd" d="M285.287,3.971c0.021,0.143,0.044,0.285,0.064,0.427
		c-0.154-0.005-0.313,0.008-0.46-0.026c-0.038-0.009-0.075-0.229-0.058-0.238C284.978,4.063,285.133,4.021,285.287,3.971z"/>
	<path fill-rule="evenodd" clip-rule="evenodd" d="M47.676,71.775c0.08-0.041,0.164-0.121,0.237-0.113
		c0.073,0.01,0.136,0.107,0.202,0.166c-0.082,0.04-0.166,0.117-0.242,0.109C47.803,71.93,47.741,71.833,47.676,71.775z"/>
	<path fill-rule="evenodd" clip-rule="evenodd" d="M43.982,78.563c0,0.068,0,0.131,0,0.193c-0.163-0.005-0.326-0.008-0.489-0.022
		c-0.005,0-0.001-0.111-0.001-0.171C43.656,78.563,43.819,78.563,43.982,78.563z"/>
	<path fill-rule="evenodd" clip-rule="evenodd" d="M5.646,26.604c0.27-0.018,0.538-0.034,0.808-0.051
		c-0.278,0.025-0.559,0.051-0.847,0.074C5.597,26.627,5.646,26.604,5.646,26.604z"/>
	<path fill-rule="evenodd" clip-rule="evenodd" d="M139.322,69.309c0.075-0.176,0.15-0.351,0.226-0.525
		c0.142,0.063,0.39,0.111,0.401,0.194c0.023,0.17-0.077,0.358-0.127,0.54C139.656,69.448,139.489,69.379,139.322,69.309z"/>
	<path fill-rule="evenodd" clip-rule="evenodd" d="M137.137,81.521c0.16-0.041,0.352-0.155,0.467-0.102
		c0.128,0.059,0.185,0.271,0.272,0.416c-0.174,0.035-0.366,0.133-0.515,0.086C137.256,81.888,137.21,81.662,137.137,81.521z"/>
	<path fill-rule="evenodd" clip-rule="evenodd" d="M125.68,81.674c-0.02,0.144-0.035,0.29-0.068,0.432
		c-0.003,0.01-0.21-0.014-0.21-0.021c0-0.151,0.017-0.303,0.03-0.453C125.514,81.645,125.596,81.658,125.68,81.674z"/>
	<polygon fill-rule="evenodd" clip-rule="evenodd" points="125.42,80.062 125.288,80.215 125.213,80.021 	"/>
	<path fill-rule="evenodd" clip-rule="evenodd" d="M122.076,82.119c0.123-0.066,0.244-0.133,0.366-0.199
		c0.022,0.082,0.068,0.166,0.061,0.244c-0.009,0.078-0.071,0.152-0.111,0.227C122.287,82.301,122.182,82.211,122.076,82.119z"/>
	<path fill-rule="evenodd" clip-rule="evenodd" d="M183.99,10.691c-0.055,0.044-0.109,0.088-0.164,0.131
		c-0.028-0.074-0.1-0.181-0.074-0.219c0.049-0.073,0.156-0.107,0.238-0.157C183.99,10.528,183.99,10.609,183.99,10.691z"/>
	<path fill-rule="evenodd" clip-rule="evenodd" d="M172.606,69.818c0.062-0.072,0.163-0.213,0.178-0.205
		c0.161,0.093,0.31,0.21,0.46,0.32c-0.064,0.055-0.158,0.171-0.192,0.155C172.895,70.02,172.753,69.914,172.606,69.818z"/>
	<path fill-rule="evenodd" clip-rule="evenodd" d="M156.938,11.352c0.093,0,0.177,0,0.26,0c-0.004,0.168-0.004,0.336-0.021,0.502
		c0,0.008-0.229,0.006-0.229-0.002C156.934,11.688,156.938,11.522,156.938,11.352z"/>
	<path fill-rule="evenodd" clip-rule="evenodd" d="M86.201,5.928c0.074,0.054,0.146,0.108,0.222,0.164
		c-0.128,0.061-0.257,0.123-0.385,0.186C86,6.189,85.965,6.102,85.928,6.015C86.019,5.985,86.109,5.956,86.201,5.928z"/>
	<polygon fill-rule="evenodd" clip-rule="evenodd" points="79.625,6.676 79.366,6.721 79.404,6.551 	"/>
	<path fill-rule="evenodd" clip-rule="evenodd" d="M113.824,68.902c0.067,0.133,0.134,0.268,0.201,0.4
		c-0.082,0.025-0.221,0.088-0.232,0.07c-0.077-0.123-0.128-0.263-0.187-0.396C113.68,68.951,113.752,68.927,113.824,68.902z"/>
	<path fill-rule="evenodd" clip-rule="evenodd" d="M358.035,59.933c0.078-0.04,0.209-0.128,0.227-0.109
		c0.077,0.083,0.123,0.196,0.182,0.299c-0.09-0.001-0.191,0.021-0.27-0.012C358.113,60.086,358.079,59.994,358.035,59.933z"/>
	<path fill-rule="evenodd" clip-rule="evenodd" d="M78.841,65.457c0.052,0.057,0.103,0.113,0.155,0.17
		c-0.07,0.035-0.146,0.107-0.209,0.097c-0.063-0.01-0.111-0.104-0.164-0.159C78.695,65.528,78.768,65.492,78.841,65.457z"/>
	<path fill-rule="evenodd" clip-rule="evenodd" d="M120.543,12.871c0.17,0.014,0.34,0.028,0.51,0.043
		c-0.18-0.016-0.358-0.031-0.547-0.055C120.496,12.852,120.543,12.871,120.543,12.871z"/>
	<polygon fill-rule="evenodd" clip-rule="evenodd" points="121.09,68.971 121.033,68.73 121.229,68.789 	"/>
	<polygon fill-rule="evenodd" clip-rule="evenodd" points="117.356,68.854 117.531,68.859 117.437,69.051 	"/>
	<polygon fill-rule="evenodd" clip-rule="evenodd" points="116.336,79.956 116.338,79.791 116.547,79.877 	"/>
	<polygon fill-rule="evenodd" clip-rule="evenodd" points="90.023,82.529 90.182,82.534 90.098,82.704 	"/>
	<polygon fill-rule="evenodd" clip-rule="evenodd" points="102.641,69.438 102.537,69.637 102.457,69.429 	"/>
	<path fill-rule="evenodd" clip-rule="evenodd" d="M18.084,84.881c0.178-0.073,0.354-0.162,0.539-0.207
		c0.037-0.008,0.115,0.156,0.174,0.24c-0.173,0.068-0.343,0.158-0.521,0.193C18.229,85.117,18.148,84.961,18.084,84.881z"/>
	<polygon fill-rule="evenodd" clip-rule="evenodd" points="32.906,84.461 33.076,84.464 32.99,84.673 	"/>
	<path fill-rule="evenodd" clip-rule="evenodd" d="M28.803,82.986c-0.254,0.039-0.506,0.08-0.76,0.119
		c-0.004-0.021-0.007-0.043-0.011-0.064c0.247-0.021,0.493-0.044,0.747-0.066C28.786,82.976,28.803,82.986,28.803,82.986z"/>
	<polygon fill-rule="evenodd" clip-rule="evenodd" points="25.469,9.013 25.563,8.819 25.646,9.018 	"/>
	<polygon fill-rule="evenodd" clip-rule="evenodd" points="49.764,76.246 49.852,76.479 49.639,76.453 	"/>
	<path fill-rule="evenodd" clip-rule="evenodd" d="M65.139,71.381c0.062-0.023,0.125-0.045,0.188-0.068
		c0.021,0.084,0.059,0.17,0.057,0.253c-0.002,0.024-0.117,0.045-0.18,0.067C65.182,71.549,65.159,71.464,65.139,71.381z"/>
	<path fill-rule="evenodd" clip-rule="evenodd" d="M36.688,75.594c0.027-0.066,0.055-0.133,0.08-0.199
		c0.068,0.031,0.158,0.048,0.194,0.102c0.021,0.031-0.038,0.166-0.075,0.174C36.828,75.682,36.755,75.623,36.688,75.594z"/>
	<polygon fill-rule="evenodd" clip-rule="evenodd" points="296.28,4.967 296.35,5.184 296.152,5.147 	"/>
	<path fill-rule="evenodd" clip-rule="evenodd" d="M295.77,70.416c0.064,0.047,0.129,0.095,0.193,0.143
		c-0.135-0.011-0.271-0.021-0.408-0.031C295.627,70.49,295.698,70.453,295.77,70.416z"/>
	<path fill-rule="evenodd" clip-rule="evenodd" d="M293.088,69.972c0.18-0.093,0.354-0.237,0.541-0.257
		c0.107-0.01,0.234,0.185,0.354,0.287c-0.084,0.033-0.18,0.109-0.25,0.092c-0.193-0.049-0.379-0.139-0.58-0.199
		C293.141,69.908,293.088,69.972,293.088,69.972z"/>
	<polygon fill-rule="evenodd" clip-rule="evenodd" points="293.417,15.88 293.6,15.991 293.395,16.063 	"/>
	<polygon fill-rule="evenodd" clip-rule="evenodd" points="292.639,5.025 292.443,5.031 292.534,4.828 	"/>
	<polygon fill-rule="evenodd" clip-rule="evenodd" points="291.332,9.214 291.339,9.012 291.564,9.119 	"/>
	<polygon fill-rule="evenodd" clip-rule="evenodd" points="298.496,76.91 298.481,76.693 298.723,76.789 	"/>
	<path fill-rule="evenodd" clip-rule="evenodd" d="M299.957,3.094c0.043,0.079,0.123,0.16,0.119,0.236
		c-0.004,0.074-0.092,0.145-0.145,0.217c-0.044-0.078-0.125-0.158-0.121-0.232C299.814,3.238,299.904,3.167,299.957,3.094z"/>
	<path fill-rule="evenodd" clip-rule="evenodd" d="M301.2,25.209c-0.059-0.15-0.134-0.298-0.163-0.453
		c-0.009-0.041,0.119-0.108,0.186-0.164c0.057,0.148,0.13,0.293,0.158,0.447C301.389,25.083,301.264,25.151,301.2,25.209z"/>
	<polygon fill-rule="evenodd" clip-rule="evenodd" points="275.102,14.027 275.039,13.817 275.205,13.842 	"/>
	<path fill-rule="evenodd" clip-rule="evenodd" d="M267.135,14.006c0.021,0.074,0.045,0.149,0.068,0.225
		c-0.107,0.014-0.213,0.027-0.319,0.042c0.015-0.081,0.005-0.177,0.048-0.234C266.963,13.998,267.064,14.015,267.135,14.006z"/>
	<path fill-rule="evenodd" clip-rule="evenodd" d="M268.837,68.643c0.071,0.031,0.144,0.063,0.215,0.095
		c-0.036,0.081-0.071,0.161-0.108,0.242c-0.064-0.033-0.18-0.062-0.184-0.101C268.752,68.803,268.808,68.722,268.837,68.643z"/>
	<polygon fill-rule="evenodd" clip-rule="evenodd" points="287.922,72.545 287.913,72.371 288.109,72.449 	"/>
	<path fill-rule="evenodd" clip-rule="evenodd" d="M286.436,15.154c-0.075-0.16-0.16-0.316-0.219-0.482
		c-0.01-0.027,0.094-0.095,0.146-0.143c0.006,0.225,0.01,0.45,0.008,0.682C286.365,15.217,286.436,15.154,286.436,15.154z"/>
	<path fill-rule="evenodd" clip-rule="evenodd" d="M281.533,4.266c0.004-0.066-0.015-0.168,0.02-0.19
		c0.066-0.046,0.162-0.049,0.246-0.069c-0.008,0.117-0.016,0.233-0.023,0.351C281.694,4.326,281.613,4.296,281.533,4.266z"/>
	<path fill-rule="evenodd" clip-rule="evenodd" d="M283.145,14.056c0.068-0.028,0.14-0.087,0.199-0.076
		c0.057,0.01,0.102,0.092,0.15,0.142C283.377,14.1,283.262,14.078,283.145,14.056z"/>
	<polygon fill-rule="evenodd" clip-rule="evenodd" points="349.051,24.482 348.844,24.474 348.951,24.254 	"/>
	<polygon fill-rule="evenodd" clip-rule="evenodd" points="337.504,5.443 337.317,5.35 337.523,5.299 	"/>
	<polygon fill-rule="evenodd" clip-rule="evenodd" points="337.914,35.186 338.137,35.123 338.107,35.301 	"/>
	<path fill-rule="evenodd" clip-rule="evenodd" d="M311.59,24.385c0.029-0.071,0.059-0.144,0.086-0.216
		c0.069,0.101,0.139,0.202,0.207,0.302c-0.059,0.04-0.117,0.079-0.178,0.118C311.668,24.521,311.629,24.453,311.59,24.385z"/>
	<path fill-rule="evenodd" clip-rule="evenodd" d="M311.672,68.793c0.059,0.025,0.115,0.051,0.172,0.075
		c-0.082,0.046-0.163,0.092-0.246,0.138C311.623,68.936,311.648,68.864,311.672,68.793z"/>
	<polygon fill-rule="evenodd" clip-rule="evenodd" points="311.359,22.873 311.165,22.754 311.385,22.695 	"/>
	<path fill-rule="evenodd" clip-rule="evenodd" d="M188.838,79.937c0.047,0.185,0.09,0.275,0.085,0.364
		c-0.001,0.029-0.126,0.052-0.194,0.076C188.76,80.258,188.787,80.138,188.838,79.937z"/>
	<path fill-rule="evenodd" clip-rule="evenodd" d="M179.596,70.033c0.025-0.057,0.049-0.159,0.078-0.162
		c0.07-0.004,0.143,0.04,0.215,0.063c-0.025,0.06-0.05,0.166-0.077,0.168C179.74,70.104,179.667,70.06,179.596,70.033z"/>
	<path fill-rule="evenodd" clip-rule="evenodd" d="M177.682,70.033c0.01-0.061-0.002-0.154,0.031-0.175
		c0.063-0.038,0.15-0.032,0.229-0.044c-0.014,0.102-0.029,0.203-0.045,0.305C177.825,70.09,177.754,70.063,177.682,70.033z"/>
	<path fill-rule="evenodd" clip-rule="evenodd" d="M201.222,9.776c0.042,0.071,0.132,0.192,0.117,0.206
		c-0.075,0.075-0.177,0.123-0.271,0.179c-0.01-0.085-0.05-0.18-0.025-0.253C201.063,9.851,201.159,9.819,201.222,9.776z"/>
	<path fill-rule="evenodd" clip-rule="evenodd" d="M154.099,15.971c-0.062-0.252-0.124-0.503-0.185-0.755
		c0.059,0.035,0.17,0.071,0.168,0.104c-0.009,0.191-0.043,0.383-0.053,0.589C154.047,15.925,154.099,15.971,154.099,15.971z"/>
	<path fill-rule="evenodd" clip-rule="evenodd" d="M234.27,9.09c0.061-0.066,0.143-0.2,0.178-0.189
		c0.15,0.048,0.287,0.139,0.428,0.215c-0.055,0.072-0.135,0.215-0.16,0.206C234.561,9.263,234.416,9.17,234.27,9.09z"/>
	<polygon fill-rule="evenodd" clip-rule="evenodd" points="248.139,14.128 247.977,14.033 248.156,13.965 	"/>
	<path fill-rule="evenodd" clip-rule="evenodd" d="M253.447,76.501c-0.072-0.024-0.203-0.044-0.207-0.074
		c-0.007-0.081,0.041-0.168,0.066-0.252c0.073,0.024,0.203,0.043,0.207,0.073C253.521,76.33,253.473,76.416,253.447,76.501z"/>
	<polygon fill-rule="evenodd" clip-rule="evenodd" points="211.655,9.883 211.777,9.698 211.844,9.922 	"/>
	<path fill-rule="evenodd" clip-rule="evenodd" d="M209.308,14.717c-0.069-0.027-0.136-0.058-0.204-0.086
		c0.037-0.078,0.064-0.164,0.12-0.225c0.015-0.016,0.173,0.057,0.172,0.082C209.392,14.566,209.34,14.642,209.308,14.717z"/>
	<path fill-rule="evenodd" clip-rule="evenodd" d="M219.909,79.107c-0.064-0.027-0.182-0.049-0.185-0.083
		c-0.008-0.078,0.038-0.161,0.063-0.243c0.065,0.027,0.182,0.049,0.186,0.082C219.98,78.941,219.935,79.025,219.909,79.107z"/>
	<path fill-rule="evenodd" clip-rule="evenodd" d="M11.22,34.104c-0.45,0.178-0.902,0.355-1.353,0.531
		c-0.002-0.001,0.006-0.034,0.005-0.037c0.464-0.182,0.929-0.359,1.392-0.538L11.22,34.104z"/>
	<path fill-rule="evenodd" clip-rule="evenodd" d="M11.264,34.061c0.138,0.027,0.274,0.054,0.41,0.08
		c-0.065-0.029-0.13-0.078-0.196-0.082c-0.082-0.004-0.167,0.03-0.254,0.047C11.22,34.104,11.264,34.061,11.264,34.061z"/>
	<path fill-rule="evenodd" clip-rule="evenodd" d="M265.856,23.572c-0.079-0.054-0.159-0.107-0.24-0.16
		c0.104-0.133,0.202-0.271,0.322-0.387c0.013-0.013,0.15,0.105,0.231,0.163C266.065,23.316,265.961,23.444,265.856,23.572z"/>
</g>
</svg>
