<?xml version="1.0" encoding="utf-8"?>
<!-- Generator: Adobe Illustrator 16.0.0, SVG Export Plug-In . SVG Version: 6.00 Build 0)  -->
<!DOCTYPE svg PUBLIC "-//W3C//DTD SVG 1.1//EN" "http://www.w3.org/Graphics/SVG/1.1/DTD/svg11.dtd">
<svg version="1.1" id="圖層_1" xmlns="http://www.w3.org/2000/svg" xmlns:xlink="http://www.w3.org/1999/xlink" x="0px" y="0px"
	 width="45px" height="45.18px" viewBox="0 0 45 45.18" enable-background="new 0 0 45 45.18" xml:space="preserve">
<path fill-rule="evenodd" clip-rule="evenodd" d="M8.297,18.751c-0.933-0.277-1.668-0.518-2.415-0.713
	c-1.075-0.283-1.471-0.922-1.121-1.877c0.319-0.873,1.017-1.18,1.941-0.768c0.827,0.369,1.526,1.086,2.53,0.889
	c1.104-2.152,0.538-4.561-1.419-6.105C7.475,9.909,7.095,9.694,6.729,9.462c-0.73-0.459-1.023-1.178-0.704-1.914
	c0.218-0.5,0.744-1.008,1.252-1.209c0.737-0.293,1.462-0.031,1.877,0.756c0.937,1.777,2.476,2.727,4.387,3.109
	c0.435,0.088,0.912-0.037,1.652-0.082c-0.335-0.807-0.541-1.361-0.797-1.891c-0.132-0.275-0.398-0.484-0.525-0.76
	c-0.422-0.918-0.064-1.771,0.849-2.1c0.803-0.289,1.535,0.102,1.771,1.098c0.231,0.975,0.427,1.922,1.303,2.516
	c2.287-1.037,3.387-3.133,3.062-5.783c-0.053-0.426-0.233-0.838-0.272-1.266c-0.1-1.076,0.724-1.951,1.772-1.936
	c1.021,0.014,1.702,0.719,1.665,1.805c-0.016,0.488-0.218,0.971-0.244,1.459c-0.112,2.063,0.483,3.838,2.111,5.305
	c1.074-0.836,0.986-1.963,1.295-2.928c0.248-0.777,1.005-1.08,1.801-0.801c0.743,0.258,1.113,1.033,0.821,1.795
	c-0.109,0.285-0.358,0.516-0.467,0.801c-0.28,0.73-0.519,1.48-0.742,2.135c0.7,0.832,1.435,0.797,2.178,0.639
	c1.947-0.412,3.582-1.273,4.676-3.043c0.78-1.262,1.526-1.51,2.409-0.992c1.285,0.752,1.458,2.35,0.047,3.135
	c-1.505,0.838-2.391,2.131-2.877,3.719c-0.188,0.619-0.207,1.289-0.315,2.014c1.227,0.229,1.906-0.408,2.659-0.918
	c0.883-0.6,1.631-0.498,2.113,0.191c0.609,0.873,0.307,1.854-0.743,2.191c-1.053,0.34-2.165,0.535-2.999,1.785
	c0.539,0.525,1.009,1.186,1.646,1.563c1.507,0.895,3.116,1.52,4.938,1c0.294-0.084,0.612-0.109,0.921-0.113
	c1.238-0.018,1.827,0.611,1.747,1.84c-0.074,1.139-0.868,1.834-1.997,1.553c-1.988-0.496-3.803-0.18-5.5,0.908
	c-0.346,0.221-0.618,0.559-1.001,0.914c0.676,0.885,1.548,1.084,2.471,1.16c0.771,0.063,1.361,0.395,1.368,1.207
	c0.003,0.447-0.181,1.143-0.486,1.285c-0.482,0.229-1.213,0.264-1.705,0.061c-0.957-0.396-1.8-1.105-2.925-0.764
	c-0.764,2.025,0.17,4.748,2.116,6.215c0.395,0.297,0.865,0.502,1.225,0.834c0.817,0.75,0.81,1.662,0.038,2.434
	c-0.705,0.705-1.8,0.729-2.472,0.002c-0.332-0.361-0.548-0.826-0.855-1.211c-1.295-1.625-3.371-2.424-5.225-1.998
	c-0.17,0.959,0.454,1.602,0.948,2.293c0.382,0.535,0.677,1.154,0.173,1.688c-0.345,0.365-0.952,0.734-1.394,0.684
	c-0.421-0.051-0.904-0.574-1.137-1.01c-0.45-0.848-0.744-1.777-1.084-2.627c-1.254-0.029-1.824,0.678-2.294,1.369
	c-0.969,1.42-1.46,2.973-1.071,4.742c0.14,0.639,0.172,1.367,0.003,1.986c-0.194,0.715-1.245,1.031-2.064,0.799
	c-0.898-0.256-1.361-1.1-1.095-2.211c0.501-2.082,0.158-3.928-1.376-5.482c-0.168-0.17-0.396-0.281-0.623-0.439
	c-0.822,0.389-0.87,1.127-1.015,1.852c-0.091,0.461-0.243,1.125-0.564,1.273c-0.486,0.223-1.228,0.262-1.707,0.045
	c-0.725-0.33-0.721-1.092-0.417-1.781c0.362-0.82,0.761-1.627,1.14-2.43c-2.39-1.201-4.909-0.564-6.453,1.457
	c-0.262,0.344-0.454,0.74-0.702,1.094c-0.437,0.625-1.106,0.975-1.766,0.654c-0.55-0.266-1.074-0.818-1.342-1.373
	c-0.33-0.684,0.059-1.355,0.705-1.727c1.466-0.838,2.569-1.969,2.911-3.656c0.136-0.67,0.022-1.389,0.022-2.477
	c-0.962,0.518-1.598,0.824-2.198,1.191c-0.642,0.391-1.275,0.518-1.885,0.016c-0.919-0.758-0.621-2.049,0.547-2.473
	c0.782-0.283,1.565-0.564,2.329-0.84c-0.72-2.488-2.671-3.766-5.167-3.563c-0.551,0.045-1.09,0.24-1.642,0.293
	c-1.047,0.098-1.777-0.576-1.824-1.621c-0.052-1.143,0.484-1.771,1.617-1.791c0.553-0.01,1.106,0.119,1.661,0.168
	C5.357,21.47,6.764,20.821,8.297,18.751z M13.026,19.817c0.033,2.5,2.172,4.623,4.632,4.598c2.453-0.023,4.628-2.193,4.64-4.629
	c0.012-2.512-2.271-4.764-4.762-4.695C15.058,15.157,12.992,17.321,13.026,19.817z M22.29,24.503
	c-1.588,0.016-2.912,1.375-2.902,2.979c0.01,1.605,1.329,2.949,2.914,2.969c1.644,0.021,3.045-1.416,2.998-3.072
	C25.256,25.796,23.887,24.489,22.29,24.503z M25.901,23.599c1.372,0.057,2.671-1.182,2.67-2.541
	c-0.001-1.287-1.179-2.516-2.469-2.576c-1.363-0.066-2.635,1.168-2.64,2.563C23.458,22.392,24.559,23.546,25.901,23.599z"/>
</svg>
