<?xml version="1.0" encoding="utf-8"?>
<!-- Generator: Adobe Illustrator 16.0.0, SVG Export Plug-In . SVG Version: 6.00 Build 0)  -->
<!DOCTYPE svg PUBLIC "-//W3C//DTD SVG 1.1//EN" "http://www.w3.org/Graphics/SVG/1.1/DTD/svg11.dtd">
<svg version="1.1" id="圖層_1" xmlns="http://www.w3.org/2000/svg" xmlns:xlink="http://www.w3.org/1999/xlink" x="0px" y="0px"
	 width="44.999px" height="49.508px" viewBox="0 0 44.999 49.508" enable-background="new 0 0 44.999 49.508" xml:space="preserve">
<g>
	<path d="M13.962,0c9.592,0,14.364,6.402,13.971,11.555c-1.086,0.16-2.142,0.41-3.158,0.74C26.057,9.014,22.628,2.9,13.996,2.9
		c-7.62,0-11.155,4.82-11.086,7.926c0.089,4.018,5.497,8.846,13.603,7.494c-1.294,2.002-1.938,4.271-1.82,6.602l-0.058,10.789
		c-0.22,0.008-0.437,0.023-0.658,0.023c-3.846,0-7.431-1.18-10.094-3.32C1.368,30.393-0.011,27.746,0,24.965l0.071-13.797
		C0.071,4.926,5.638,0,13.962,0z"/>
	<path d="M30.91,13.551c-9.947,0-14.391,6.896-14.001,11.318l-0.073,13.756c-0.01,2.816,1.384,5.494,3.926,7.537
		c2.684,2.158,6.293,3.346,10.163,3.346c3.688-0.002,7.17-1.094,9.807-3.082c2.715-2.047,4.216-4.781,4.227-7.699l0.035-14.23
		C45.21,19.475,39.958,13.551,30.91,13.551z M41.986,24.48c-0.135,1.221-0.38,2.498-1.279,3.514
		c-2.714,3.055-2.722,4.465-2.722,5.164l-0.01,5.012c0,0.918-0.745,1.662-1.664,1.662c-0.918,0-1.663-0.744-1.663-1.662v-3.904
		c0-0.646-0.847-1.611-2.018-1.611c-1.215,0-1.881,0.953-1.881,1.412c0,0.439,0,1.459,0,1.459c0,0.689-0.558,1.246-1.248,1.246
		c-0.688,0-1.247-0.557-1.247-1.246c0,0,0-1.121,0-1.496c0-0.801-0.425-1.84-1.732-2.514c-1.442-0.457-2.756-1.133-3.834-2.002
		c-1.836-1.475-2.771-3.336-2.799-5.242c-0.032-2.172,2.817-7.709,11.021-7.709C38.878,16.563,42.281,21.809,41.986,24.48z"/>
	<path d="M30.944,29.736c-5.737,0-8.409-3.1-8.984-4.664c0.595-1.58,3.311-4.625,8.927-4.625c5.622,0,8.467,3.123,8.983,4.658
		C39.373,26.617,36.703,29.736,30.944,29.736z"/>
	<path d="M13.997,16.076c-5.737,0-8.41-3.1-8.985-4.664c0.595-1.582,3.311-4.625,8.928-4.625c5.622,0,8.466,3.123,8.983,4.656
		C22.425,12.957,19.755,16.076,13.997,16.076z"/>
</g>
</svg>
