<?xml version="1.0" encoding="utf-8"?>
<!-- Generator: Adobe Illustrator 16.0.0, SVG Export Plug-In . SVG Version: 6.00 Build 0)  -->
<!DOCTYPE svg PUBLIC "-//W3C//DTD SVG 1.1//EN" "http://www.w3.org/Graphics/SVG/1.1/DTD/svg11.dtd">
<svg version="1.1" id="圖層_1" xmlns="http://www.w3.org/2000/svg" xmlns:xlink="http://www.w3.org/1999/xlink" x="0px" y="0px"
	 width="45px" height="43.059px" viewBox="0 0 45 43.059" enable-background="new 0 0 45 43.059" xml:space="preserve">
<path d="M27.215,0C25.394,0,9.429,0.145,9.429,5.158v2.591c-3.825,3.913-6.768,8.249-8.296,12.265
	c-1.709,4.49-1.479,8.134,0.65,10.262c1.186,1.186,2.842,1.783,4.854,1.783c0.866,0,1.803-0.121,2.792-0.346v4.559
	c0,0.077,0.007,0.154,0.02,0.229c0.121,0.671,1.644,6.558,17.767,6.558c16.122,0,17.645-5.887,17.766-6.558
	c0.013-0.075,0.02-0.152,0.02-0.229V5.158C45,0.145,29.035,0,27.215,0z M3.619,28.438c-1.341-1.341-1.362-4.074-0.059-7.501
	c1.149-3.021,3.199-6.263,5.868-9.35v17.446C6.804,29.739,4.729,29.549,3.619,28.438z M27.215,40.46
	c-12.951,0-14.979-3.869-15.188-4.366V8.108c0.952,0.434,2.163,0.812,3.649,1.135v13.643c0,1.861,1.514,3.375,3.375,3.375
	s3.375-1.514,3.375-3.375V10.151c0.894,0.063,1.808,0.106,2.734,0.134v9.166c0,2.434,1.979,4.412,4.413,4.412
	c2.433,0,4.413-1.979,4.413-4.412v-9.47c0.547-0.057,1.082-0.12,1.603-0.189v16.275c0,1.67,1.359,3.028,3.028,3.028
	c1.67,0,3.029-1.358,3.029-3.028h-2.598c0,0.237-0.193,0.431-0.432,0.431s-0.431-0.193-0.431-0.431V8.281
	c0-0.383-0.169-0.746-0.462-0.992C37.434,7.042,37.047,6.938,36.67,7c-1.265,0.216-2.656,0.387-4.136,0.507
	C32.175,7.535,31.846,7.719,31.621,8c-0.224,0.282-0.318,0.651-0.264,1.007c0.013,0.088,0.03,0.174,0.03,0.265v10.18
	c0,1.001-0.813,1.814-1.814,1.814s-1.815-0.813-1.815-1.814l0.003-10.164c0.007-0.057,0.015-0.114,0.019-0.172
	c0.029-0.358-0.093-0.714-0.335-0.979c-0.243-0.266-0.585-0.419-0.946-0.423c-1.81-0.019-3.576-0.107-5.25-0.263
	c-0.369-0.033-0.726,0.086-0.995,0.333c-0.271,0.246-0.425,0.594-0.425,0.959v14.144c0,0.429-0.349,0.777-0.777,0.777
	s-0.777-0.349-0.777-0.777V8.18c0-0.625-0.446-1.162-1.062-1.276c-3.375-0.627-4.732-1.39-5.109-1.752
	c0.928-0.982,6.366-2.555,15.112-2.555c8.738,0,14.175,1.569,15.109,2.552c-0.25,0.232-0.949,0.675-2.47,1.133l0.748,2.486
	c0.395-0.118,1.084-0.326,1.801-0.651v27.957C42.143,36.685,40.008,40.46,27.215,40.46z"/>
</svg>
