<?xml version="1.0" encoding="utf-8"?>
<!-- Generator: Adobe Illustrator 16.0.0, SVG Export Plug-In . SVG Version: 6.00 Build 0)  -->
<!DOCTYPE svg PUBLIC "-//W3C//DTD SVG 1.1//EN" "http://www.w3.org/Graphics/SVG/1.1/DTD/svg11.dtd">
<svg version="1.1" id="圖層_1" xmlns="http://www.w3.org/2000/svg" xmlns:xlink="http://www.w3.org/1999/xlink" x="0px" y="0px"
	 width="45px" height="42.372px" viewBox="0 0 45 42.372" enable-background="new 0 0 45 42.372" xml:space="preserve">
<g>
	<path d="M27.524,28.429c-0.201-0.704-0.563-1.752-1.146-2.749c-0.5-0.855-1.123-1.665-1.803-2.34
		c-1.238-1.23-2.828-2.271-4.596-3.008c0,0-0.001,0-0.001,0s-0.001,0-0.001-0.001c-1.163-0.48-1.914-1.593-1.914-2.835V5.385
		c0.896-0.4,1.522-1.303,1.522-2.35c0-1.418-1.147-2.571-2.558-2.571H10.86c-0.002,0-0.004,0.001-0.006,0.001
		c-0.002,0-0.004-0.001-0.006-0.001C9.435,0.48,8.328,1.61,8.328,3.035c0,1.043,0.615,1.942,1.496,2.345v12.116
		c0,1.248-0.741,2.361-1.888,2.835c0,0.001,0,0.001-0.001,0.001c-0.001,0-0.001,0-0.002,0.001c-0.631,0.264-1.274,0.587-1.912,0.963
		c-0.053,0.031-0.107,0.063-0.16,0.094c-0.327,0.189-0.664,0.387-0.994,0.648c-0.503,0.359-0.952,0.807-1.349,1.203l-0.044,0.044
		c-0.414,0.414-0.809,0.872-1.172,1.36c-0.355,0.478-0.682,0.976-0.972,1.479c-0.333,0.578-0.586,1.124-0.776,1.668
		c-0.21,0.604-0.335,1.208-0.429,1.721c-0.002,0.015-0.006,0.029-0.009,0.044c-0.01,0.052-0.025,0.123-0.035,0.205
		c-0.455,3.639,1.044,7.552,3.819,9.969c0.966,0.842,1.985,1.525,3.117,2.093c0.001,0,0.002,0.001,0.004,0.001
		c0,0,0.001,0.001,0.001,0.001c0.723,0.357,1.515,0.546,2.291,0.546h9.288c0.769,0,1.531-0.184,2.265-0.546
		c0.002-0.001,0.004-0.002,0.006-0.004c0.004-0.002,0.009-0.004,0.014-0.006c3.559-1.854,6.027-4.767,6.772-7.989
		c0.201-0.868,0.292-1.802,0.264-2.7C27.892,30.168,27.755,29.234,27.524,28.429z M19.94,39.972
		c-0.443,0.218-0.894,0.328-1.339,0.328H9.313c-0.458,0-0.932-0.114-1.371-0.331c-0.972-0.486-1.849-1.075-2.681-1.8
		c-2.27-1.977-3.496-5.176-3.124-8.147c0.002-0.018,0.006-0.036,0.01-0.054c0.005-0.026,0.011-0.053,0.016-0.079
		c0.08-0.435,0.184-0.942,0.348-1.415c0.146-0.42,0.348-0.851,0.615-1.316c0.249-0.434,0.531-0.862,0.838-1.274
		c0.303-0.408,0.631-0.789,0.974-1.131l0.044-0.045C5.345,24.345,5.72,23.97,6.09,23.71c0.007-0.005,0.013-0.01,0.02-0.015
		c0.011-0.009,0.023-0.017,0.034-0.025c0.215-0.173,0.48-0.327,0.76-0.49c0.057-0.032,0.113-0.065,0.169-0.099
		c0.557-0.327,1.115-0.608,1.659-0.836c0.001-0.001,0.002-0.001,0.003-0.002c1.921-0.797,3.163-2.659,3.163-4.747V4.57
		c0-0.572-0.464-1.036-1.036-1.036c-0.241,0-0.46-0.238-0.46-0.499c0-0.281,0.203-0.495,0.472-0.499h6.155
		c0.272,0,0.486,0.219,0.486,0.499c0,0.275-0.218,0.499-0.486,0.499h-3.424c-0.572,0-1.036,0.464-1.036,1.036
		s0.464,1.036,1.036,1.036h2.388v11.89c0,2.082,1.252,3.945,3.19,4.748c0,0.001,0,0.001,0.001,0.001
		c1.523,0.635,2.883,1.521,3.933,2.564c0.546,0.542,1.069,1.223,1.474,1.915c0.375,0.643,0.701,1.429,0.943,2.273
		c0.184,0.644,0.294,1.402,0.319,2.193c0.014,0.442-0.01,0.906-0.068,1.359h-5.671c-0.333-1.219-1.445-2.116-2.762-2.116
		c-1.329,0-2.45,0.897-2.787,2.116H4.42c-0.002-0.001-0.005,0-0.008,0H4.41c-0.004,0-0.007,0-0.011,0
		c-0.021,0-0.042,0.001-0.063,0.003c-0.012,0.001-0.023,0.004-0.035,0.005c-0.013,0.002-0.025,0.004-0.039,0.006
		c-0.02,0.004-0.039,0.01-0.057,0.015C4.2,32.58,4.195,32.581,4.19,32.583c0,0-0.001,0-0.001,0
		c-0.022,0.007-0.044,0.015-0.066,0.023c-0.002,0.001-0.004,0.002-0.006,0.003c-0.019,0.008-0.038,0.017-0.056,0.026
		c-0.004,0.002-0.009,0.004-0.013,0.007c-0.004,0.002-0.007,0.004-0.011,0.006c-0.078,0.044-0.146,0.101-0.204,0.167
		c-0.003,0.005-0.007,0.009-0.011,0.013c-0.008,0.01-0.016,0.021-0.023,0.031c-0.007,0.01-0.014,0.019-0.021,0.028
		C3.773,32.894,3.77,32.9,3.767,32.906c-0.01,0.015-0.019,0.03-0.027,0.045c0,0.001,0,0.001,0,0.001
		c-0.03,0.056-0.052,0.115-0.068,0.179c-0.002,0.009-0.005,0.018-0.007,0.027c0,0.003-0.001,0.006-0.001,0.009
		c-0.004,0.022-0.008,0.044-0.01,0.067c0,0.001,0,0.002,0,0.003c-0.002,0.024-0.004,0.049-0.004,0.073c0,0.001,0,0.001,0,0.002
		c0,0.004,0,0.008,0,0.012c0,0.021,0.001,0.041,0.003,0.062c0.001,0.013,0.003,0.025,0.005,0.038
		c0.001,0.012,0.003,0.023,0.005,0.036c0.004,0.021,0.009,0.041,0.015,0.062c0.001,0.003,0.001,0.007,0.002,0.011
		c0,0,0,0.001,0.001,0.001c0.001,0.005,0.002,0.009,0.004,0.013c0.203,0.667,0.496,1.28,0.924,1.929
		c0.464,0.702,1.046,1.349,1.781,1.974c0.603,0.513,1.295,0.961,2.118,1.37c0.109,0.055,0.225,0.08,0.338,0.08
		c0.28,0,0.55-0.154,0.683-0.422c0.188-0.377,0.034-0.834-0.342-1.021c-0.71-0.354-1.302-0.735-1.809-1.167
		c-0.624-0.531-1.114-1.071-1.498-1.653c-0.125-0.19-0.236-0.376-0.334-0.561h9.674c0.368,0,0.675-0.262,0.747-0.608
		c0.01-0.05,0.015-0.102,0.015-0.153c0-0.734,0.626-1.354,1.367-1.354c0.739,0,1.341,0.607,1.341,1.354
		c0,0.052,0.005,0.104,0.016,0.153c0.071,0.347,0.378,0.608,0.747,0.608h5.984C24.644,36.421,22.679,38.541,19.94,39.972z"/>
	<path d="M44.918,29.04C44.918,29.04,44.918,29.04,44.918,29.04L44.918,29.04c-1.047-3.548-2.604-6.916-4.628-10.013
		c-0.001-0.002-0.003-0.004-0.005-0.007c-0.001-0.002-0.003-0.005-0.004-0.007c-0.751-1.109-1.787-1.995-2.982-2.577
		c0.811-0.659,1.558-1.396,2.223-2.196c1.516-1.824,2.625-4.01,3.208-6.319c0.577-2.291,0.643-4.731,0.19-7.061
		c0-0.005-0.001-0.01-0.002-0.015c0-0.003-0.001-0.006-0.002-0.009c-0.001-0.009-0.004-0.017-0.006-0.024
		c-0.005-0.023-0.011-0.047-0.018-0.07c-0.004-0.017-0.01-0.031-0.016-0.048c-0.005-0.016-0.01-0.031-0.017-0.048
		c-0.009-0.021-0.019-0.043-0.03-0.064c-0.003-0.008-0.006-0.016-0.011-0.023c0-0.002-0.001-0.003-0.002-0.005
		c-0.013-0.023-0.026-0.047-0.041-0.069c-0.004-0.007-0.008-0.014-0.013-0.021c-0.013-0.021-0.028-0.04-0.042-0.059
		c-0.006-0.009-0.012-0.018-0.019-0.025c-0.012-0.015-0.025-0.028-0.038-0.042c-0.01-0.012-0.021-0.023-0.031-0.034
		c-0.009-0.009-0.018-0.017-0.027-0.024c-0.016-0.015-0.031-0.03-0.048-0.044c-0.006-0.005-0.012-0.009-0.018-0.013
		c-0.021-0.017-0.041-0.032-0.062-0.047c-0.015-0.01-0.031-0.019-0.046-0.027c-0.013-0.008-0.025-0.016-0.038-0.023
		c-0.115-0.063-0.243-0.104-0.376-0.119c0,0,0,0,0,0c-0.021-0.002-0.043-0.003-0.065-0.004C41.938,0.001,41.926,0,41.914,0
		c-0.014-0.001-0.028,0-0.042,0.001c-0.021,0-0.042,0.001-0.063,0.003c-0.009,0-0.018,0.002-0.027,0.003
		c-0.026,0.003-0.052,0.007-0.078,0.011c-0.001,0.001-0.003,0.001-0.004,0.001c-0.008,0.002-0.016,0.005-0.024,0.006
		c-0.023,0.006-0.047,0.011-0.071,0.018c-0.015,0.005-0.03,0.011-0.045,0.016c-0.017,0.006-0.033,0.012-0.05,0.019
		c-0.021,0.008-0.042,0.019-0.063,0.028c-0.008,0.004-0.017,0.007-0.025,0.012c-0.306,0.158-0.627,0.313-0.954,0.46
		c-0.375,0.168-0.706,0.309-1.01,0.43c-0.335,0.133-0.678,0.253-1.017,0.357c-0.329,0.102-0.684,0.19-1.056,0.265
		C37.024,1.7,36.65,1.76,36.272,1.807c-1.222,0.15-2.503,0.151-3.916,0.005c-0.004-0.001-0.008-0.001-0.012-0.001
		S32.337,1.81,32.333,1.81c-1.9-0.155-3.813,0.188-5.53,0.995c-1.72,0.809-3.205,2.063-4.292,3.626
		c-2.163,3.109-2.55,7.151-1.033,10.609c-0.169,0.63-0.288,1.276-0.351,1.932c-0.055,0.569,0.362,1.075,0.932,1.131
		c0.034,0.003,0.067,0.004,0.101,0.004c0.527,0,0.979-0.4,1.03-0.937c0.448-4.646,4.165-8.353,8.646-8.622c0.001,0,0.002,0,0.003,0
		c1.901-0.087,3.771-0.646,5.409-1.616c0.492-0.292,0.655-0.927,0.363-1.42c-0.292-0.492-0.927-0.654-1.419-0.362
		C34.84,7.95,33.297,8.41,31.728,8.479c-0.002,0-0.005,0.001-0.008,0.001c-0.003,0-0.006,0-0.009,0
		c-2.695,0.162-5.252,1.33-7.202,3.289c-0.684,0.687-1.275,1.453-1.767,2.278c-0.351-2.224,0.153-4.541,1.469-6.433
		c1.782-2.561,4.827-3.993,7.95-3.74c0.764,0.079,1.495,0.118,2.204,0.118c0.741,0,1.458-0.043,2.16-0.129
		c0.429-0.053,0.854-0.121,1.265-0.203c0.441-0.088,0.865-0.194,1.261-0.316c0.391-0.12,0.785-0.259,1.171-0.412
		c0.266-0.105,0.548-0.224,0.856-0.359c0.373,3.739-0.742,7.446-3.15,10.344c-0.959,1.154-2.08,2.13-3.314,2.908
		c-0.107,0.044-0.207,0.104-0.293,0.181c-1.646,0.982-3.484,1.62-5.41,1.864c-0.009,0.001-0.019,0.002-0.028,0.003
		c-0.016,0.001-0.032,0.002-0.048,0.004c-0.012,0.002-0.023,0.004-0.035,0.006c-0.594,0.071-1.197,0.105-1.804,0.101
		c-0.003-0.001-0.006-0.001-0.01-0.001c-0.568,0-1.031,0.458-1.036,1.026c-0.005,0.572,0.454,1.041,1.026,1.046
		c0.05,0.001,0.099,0.001,0.148,0.001c0.105,0,0.211-0.002,0.316-0.005c-0.443,1.663-0.385,3.421,0.188,5.086
		c0.759,2.208,2.331,3.996,4.426,5.035c0.019,0.009,0.038,0.018,0.056,0.026h0c2.619,1.108,5.428,1.674,8.254,1.674
		c0.958,0,1.918-0.065,2.874-0.196c0,0,0.001,0,0.002,0c0.588-0.081,1.096-0.409,1.429-0.924
		C44.993,30.25,45.086,29.61,44.918,29.04z M32.948,28.301c-3.019-1.513-4.418-5.014-3.382-8.123
		c3.112,1.088,5.786,3.171,7.594,5.938c0.199,0.304,0.53,0.47,0.868,0.47c0.194,0,0.391-0.055,0.566-0.169
		c0.479-0.313,0.614-0.955,0.301-1.435c-1.624-2.484-3.859-4.484-6.468-5.826c0.502-0.175,0.996-0.372,1.477-0.596
		c0.445-0.206,0.88-0.435,1.305-0.681c1.363,0.317,2.569,1.138,3.351,2.289c1.91,2.924,3.379,6.104,4.369,9.452
		c0,0.002,0,0.004,0,0.005C39.545,30.084,36.096,29.627,32.948,28.301z"/>
	<path d="M17.547,28.604c0.494,0,0.896-0.401,0.896-0.896s-0.401-0.896-0.896-0.896c-0.494,0-0.896,0.401-0.896,0.896
		S17.054,28.604,17.547,28.604z"/>
	<path d="M13.957,26.257c0.633,0,1.148-0.515,1.148-1.147s-0.515-1.147-1.148-1.147c-0.633,0-1.148,0.515-1.148,1.147
		S13.323,26.257,13.957,26.257z"/>
	<path d="M13.957,21.59c0.633,0,1.148-0.516,1.148-1.148s-0.515-1.147-1.148-1.147c-0.633,0-1.148,0.515-1.148,1.147
		S13.323,21.59,13.957,21.59z"/>
</g>
</svg>
