<?xml version="1.0" encoding="utf-8"?>
<!-- Generator: Adobe Illustrator 16.0.0, SVG Export Plug-In . SVG Version: 6.00 Build 0)  -->
<!DOCTYPE svg PUBLIC "-//W3C//DTD SVG 1.1//EN" "http://www.w3.org/Graphics/SVG/1.1/DTD/svg11.dtd">
<svg version="1.1" id="圖層_1" xmlns="http://www.w3.org/2000/svg" xmlns:xlink="http://www.w3.org/1999/xlink" x="0px" y="0px"
	 width="14px" height="13.505px" viewBox="0 0 14 13.505" enable-background="new 0 0 14 13.505" xml:space="preserve">
<path fill-rule="evenodd" clip-rule="evenodd" d="M1.039,12.487c3.971,0,7.935,0,11.929,0c-0.066-0.958-0.366-1.83-0.865-2.636
	c-0.661-1.066-1.572-1.847-2.721-2.354C9.207,7.421,9.069,7.419,8.89,7.513C7.521,8.226,6.153,8.194,4.855,7.366
	C3.548,6.531,2.934,5.288,3.008,3.738c0.095-1.99,1.793-3.653,3.777-3.734c2.071-0.086,3.861,1.368,4.163,3.372
	c0.172,1.144-0.105,2.166-0.801,3.082c-0.049,0.064-0.097,0.131-0.156,0.213c0.959,0.472,1.782,1.098,2.445,1.923
	c0.999,1.243,1.519,2.664,1.563,4.258c0.013,0.481-0.165,0.653-0.655,0.653c-4.229,0-8.458,0-12.687,0
	c-0.504,0-0.675-0.17-0.655-0.683c0.076-1.992,0.847-3.667,2.312-5.02c0.269-0.248,0.572-0.26,0.775-0.047
	C3.31,7.988,3.276,8.272,2.983,8.544c-1.115,1.03-1.774,2.293-1.944,3.806C1.035,12.39,1.039,12.431,1.039,12.487z M7.006,7.001
	C8.655,6.998,10.002,5.645,10,3.994c-0.003-1.65-1.356-2.996-3.008-2.993C5.341,1.005,3.996,2.356,4,4.008
	C4.002,5.657,5.355,7.004,7.006,7.001z"/>
</svg>
