<?xml version="1.0" encoding="utf-8"?>
<!-- Generator: Adobe Illustrator 16.0.0, SVG Export Plug-In . SVG Version: 6.00 Build 0)  -->
<!DOCTYPE svg PUBLIC "-//W3C//DTD SVG 1.1//EN" "http://www.w3.org/Graphics/SVG/1.1/DTD/svg11.dtd">
    <svg version="1.1" id="圖層_1" xmlns="http://www.w3.org/2000/svg" xmlns:xlink="http://www.w3.org/1999/xlink"
        x="0px" y="0px" width="14px" height="14.008px" viewBox="0 0 14 14.008" enable-background="new 0 0 14 14.008"
        xml:space="preserve">
        <path fill-rule="evenodd" clip-rule="evenodd" d="M8.809,10.103c-3.328,2.045-6.333,0.606-7.684-1.188
        C-0.509,6.744-0.353,3.71,1.528,1.728c1.874-1.975,4.913-2.297,7.156-0.76c2.516,1.724,3.039,4.49,1.441,7.885
        c1.099,1.089,2.214,2.201,3.34,3.305c0.47,0.46,0.792,0.941,0.257,1.545c-0.417,0.472-0.929,0.396-1.542-0.214
        C11.063,12.376,9.955,11.254,8.809,10.103z M5.554,1.311c-2.347,0-4.255,1.916-4.247,4.265C1.315,7.886,3.202,9.783,5.51,9.803
        c2.347,0.021,4.28-1.884,4.289-4.225C9.809,3.23,7.899,1.312,5.554,1.311z" />
    </svg>
