<?xml version="1.0" encoding="utf-8"?>
<!-- Generator: Adobe Illustrator 16.0.0, SVG Export Plug-In . SVG Version: 6.00 Build 0)  -->
<!DOCTYPE svg PUBLIC "-//W3C//DTD SVG 1.1//EN" "http://www.w3.org/Graphics/SVG/1.1/DTD/svg11.dtd">
<svg version="1.1" id="圖層_1" xmlns="http://www.w3.org/2000/svg" xmlns:xlink="http://www.w3.org/1999/xlink" x="0px" y="0px"
	 width="14px" height="12.611px" viewBox="0 0 14 12.611" enable-background="new 0 0 14 12.611" xml:space="preserve">
<path d="M6.999,12.611l5.836-5.836c1.553-1.553,1.553-4.069,0-5.622c-0.678-0.645-1.495-1.048-2.431-1.146L10.023,0L9.643,0.007
	C8.726,0.073,7.863,0.521,7.212,1.153L6.999,1.366L6.786,1.153c-0.678-0.645-1.494-1.048-2.43-1.146L3.975,0L3.594,0.007
	c-0.917,0.066-1.778,0.514-2.43,1.146c-1.553,1.553-1.553,4.069,0,5.622L6.999,12.611z M6.999,11.58L1.68,6.26
	C0.406,4.931,0.409,3.005,1.676,1.672c0.533-0.519,1.215-0.864,1.957-0.937l0.342-0.006l0.33,0.006
	C5.059,0.811,5.729,1.173,6.28,1.678l0.203,0.204l0.516,0.516l0.516-0.516l0.207-0.207c0.534-0.52,1.216-0.866,1.96-0.939
	l0.342-0.006l0.33,0.006c0.752,0.075,1.421,0.435,1.972,0.939c1.028,1.053,1.25,2.664,0.495,3.939
	c-0.141,0.237-0.312,0.446-0.501,0.646L6.999,11.58z M6.999,11.58"/>
</svg>
