<?xml version="1.0" encoding="utf-8"?>
<!-- Generator: Adobe Illustrator 16.0.0, SVG Export Plug-In . SVG Version: 6.00 Build 0)  -->
<!DOCTYPE svg PUBLIC "-//W3C//DTD SVG 1.1//EN" "http://www.w3.org/Graphics/SVG/1.1/DTD/svg11.dtd">
<svg version="1.1" id="圖層_1" xmlns="http://www.w3.org/2000/svg" xmlns:xlink="http://www.w3.org/1999/xlink" x="0px" y="0px"
	 width="14px" height="11.012px" viewBox="0 0 14 11.012" enable-background="new 0 0 14 11.012" xml:space="preserve">
<g>
	<path fill-rule="evenodd" clip-rule="evenodd" d="M7.595,8.355c-1.241,0-2.482-0.004-3.722,0.004
		C3.459,8.361,3.197,8.203,3.031,7.807c-0.975-2.328-1.967-4.65-2.953-6.975C-0.054,0.518-0.02,0.281,0.185,0.127
		C0.381-0.023,0.601-0.049,0.798,0.1c0.107,0.082,0.193,0.215,0.247,0.342c0.939,2.197,1.876,4.396,2.8,6.602
		c0.093,0.223,0.206,0.291,0.441,0.289c2.366-0.01,4.732-0.006,7.098-0.006c0.404,0,0.634,0.182,0.636,0.5
		c0.002,0.338-0.229,0.529-0.646,0.529C10.115,8.357,8.855,8.355,7.595,8.355z"/>
	<path fill-rule="evenodd" clip-rule="evenodd" d="M14,1.732c-0.157,0.354-0.283,0.676-0.447,0.977
		c-0.04,0.074-0.2,0.119-0.306,0.119c-1.53,0.008-3.059,0.006-4.588,0.006c-1.837,0-3.675-0.004-5.512,0.004
		C2.93,2.84,2.818,2.777,2.744,2.572c-0.1-0.277-0.233-0.541-0.366-0.84C6.266,1.732,10.108,1.732,14,1.732z"/>
	<path fill-rule="evenodd" clip-rule="evenodd" d="M13.164,3.607c-0.156,0.354-0.291,0.689-0.457,1.01
		c-0.036,0.068-0.187,0.105-0.285,0.107c-1.115,0.008-2.231,0.004-3.347,0.004c-1.692,0-3.385-0.004-5.078,0.006
		c-0.209,0-0.331-0.043-0.406-0.254C3.49,4.191,3.35,3.918,3.213,3.607C6.53,3.607,9.82,3.607,13.164,3.607z"/>
	<path fill-rule="evenodd" clip-rule="evenodd" d="M12.328,5.488c-0.16,0.359-0.304,0.701-0.469,1.033
		c-0.026,0.051-0.145,0.08-0.221,0.08C9.332,6.607,7.026,6.607,4.72,6.6c-0.077,0-0.191-0.057-0.223-0.119
		C4.34,6.164,4.205,5.838,4.05,5.488C6.818,5.488,9.551,5.488,12.328,5.488z"/>
	<path fill-rule="evenodd" clip-rule="evenodd" d="M10.437,8.992c0.575,0,1.036,0.457,1.026,1.016c-0.009,0.545-0.473,1-1.023,1.004
		c-0.566,0.004-1.033-0.453-1.035-1.016C9.403,9.43,9.854,8.99,10.437,8.992z"/>
	<path fill-rule="evenodd" clip-rule="evenodd" d="M3.62,9.986c0.004-0.576,0.446-1,1.036-0.994C5.224,8.996,5.662,9.43,5.664,9.99
		c0.001,0.564-0.458,1.021-1.025,1.021C4.067,11.01,3.616,10.557,3.62,9.986z"/>
</g>
</svg>
