<?xml version="1.0" encoding="utf-8"?>
<!-- Generator: Adobe Illustrator 16.0.0, SVG Export Plug-In . SVG Version: 6.00 Build 0)  -->
<!DOCTYPE svg PUBLIC "-//W3C//DTD SVG 1.1//EN" "http://www.w3.org/Graphics/SVG/1.1/DTD/svg11.dtd">
<svg version="1.1" id="圖層_1" xmlns="http://www.w3.org/2000/svg" xmlns:xlink="http://www.w3.org/1999/xlink" x="0px" y="0px"
	 width="24px" height="26.219px" viewBox="0 0 24 26.219" enable-background="new 0 0 24 26.219" xml:space="preserve">
<path d="M18.813,17.842c-0.338,0-0.613,0.274-0.613,0.614v6.494c0,0.024-0.016,0.04-0.04,0.04H1.28c-0.028,0-0.052-0.02-0.052-0.04
	V6.688h4.167c0.706,0,1.28-0.575,1.28-1.281V1.24h11.482c0.012,0,0.022-0.001,0.034-0.002c0.002,0.003,0.006,0.005,0.008,0.009
	c-0.001,0.011-0.002,0.021-0.002,0.033v1.451c0,0.339,0.275,0.614,0.613,0.614c0.34,0,0.614-0.275,0.614-0.614V1.395
	c0.009-0.039,0.013-0.079,0.013-0.12c0-0.704-0.57-1.275-1.272-1.275c-0.042,0-0.082,0.004-0.12,0.012H6.062
	c-0.003,0-0.006,0.001-0.009,0.001c-0.015,0-0.029,0.001-0.044,0.002c-0.005,0-0.01,0.001-0.016,0.001
	C5.976,0.018,5.958,0.021,5.941,0.023c-0.005,0.001-0.01,0.003-0.015,0.004C5.914,0.03,5.901,0.033,5.89,0.037
	C5.882,0.039,5.875,0.041,5.868,0.044C5.857,0.047,5.847,0.051,5.837,0.055C5.83,0.058,5.824,0.06,5.817,0.063
	C5.802,0.07,5.787,0.077,5.772,0.085C5.768,0.087,5.764,0.09,5.759,0.092c-0.011,0.007-0.023,0.013-0.033,0.02
	c-0.005,0.004-0.01,0.007-0.015,0.011C5.7,0.13,5.689,0.138,5.68,0.146C5.676,0.15,5.672,0.153,5.667,0.156
	C5.653,0.167,5.641,0.179,5.628,0.191L0.18,5.64C0.179,5.641,0.178,5.642,0.177,5.643C0.164,5.656,0.151,5.67,0.14,5.685
	C0.133,5.691,0.128,5.699,0.122,5.707C0.116,5.716,0.109,5.724,0.104,5.732C0.099,5.74,0.093,5.751,0.087,5.76
	c-0.005,0.008-0.01,0.016-0.015,0.024c-0.005,0.01-0.009,0.019-0.014,0.028C0.055,5.821,0.051,5.83,0.047,5.839
	C0.043,5.848,0.04,5.857,0.037,5.866c-0.004,0.01-0.008,0.02-0.011,0.029C0.023,5.904,0.021,5.914,0.02,5.924
	c-0.003,0.01-0.006,0.02-0.008,0.03C0.01,5.964,0.009,5.976,0.007,5.986C0.006,5.995,0.004,6.004,0.003,6.013
	C0.001,6.033,0,6.054,0,6.074V24.95c0,0.698,0.574,1.269,1.28,1.269h16.878c0.699,0,1.269-0.568,1.269-1.269v-6.494
	C19.427,18.116,19.152,17.842,18.813,17.842z M5.447,5.407c0,0.025-0.026,0.053-0.052,0.053H2.097l3.351-3.351v3.298H5.447z"/>
<path d="M20.361,8.931c-0.241-0.14-0.551-0.057-0.69,0.186l-5.257,9.109c-0.141,0.242-0.057,0.553,0.186,0.691
	c0.08,0.046,0.166,0.066,0.252,0.066c0.176,0,0.346-0.09,0.438-0.252l5.258-9.111C20.688,9.38,20.604,9.07,20.361,8.931z"/>
<path d="M19.078,8.205c-0.242-0.14-0.553-0.057-0.691,0.185l-5.258,9.1c-0.14,0.242-0.057,0.551,0.186,0.691
	c0.08,0.045,0.168,0.066,0.254,0.066c0.174,0,0.344-0.091,0.438-0.253l5.258-9.099C19.402,8.654,19.318,8.345,19.078,8.205z"/>
<path d="M11.385,22.191h-1.014H8.779H7.766v0.001H6.255H5.241c-0.34,0-0.614,0.274-0.614,0.615c0,0.338,0.274,0.613,0.614,0.613
	h1.014h1.323v0.001h1.014h1.779h1.014c0.34,0,0.615-0.275,0.615-0.616C12,22.468,11.725,22.191,11.385,22.191z"/>
<path d="M12.216,23.157c1.279-0.769,3.607-2.167,3.607-2.167c0.001,0,0.002,0,0.003-0.002c0.002,0,0.004-0.002,0.006-0.002
	c0.155-0.098,0.288-0.236,0.387-0.404l0,0l0,0l6.805-11.794c0.012-0.019,0.022-0.034,0.033-0.054c0.012-0.02,0.021-0.039,0.03-0.059
	l0.577-1.001c0-0.001,0.001-0.003,0.002-0.005c0.186-0.314,0.295-0.672,0.327-1.059c0.067-0.852-0.36-1.824-1.07-2.416
	c-0.62-0.517-1.438-0.781-2.239-0.726c-0.83,0.059-1.664,0.568-2.08,1.271c0,0.001,0,0.002-0.002,0.002c0,0.001,0,0.002-0.002,0.003
	L18.03,5.734c-0.019,0.022-0.033,0.045-0.048,0.069c-0.014,0.024-0.025,0.05-0.036,0.076l-6.804,11.783l0,0
	c-0.035,0.062-0.064,0.125-0.088,0.19c-0.015,0.033-0.024,0.068-0.033,0.104c-0.019,0.075-0.029,0.149-0.031,0.228
	c0,0.002,0,0.002,0,0.002s0,0,0,0.002c0,0-0.133,3.049-0.125,4.09S11.217,23.742,12.216,23.157z M20.77,4.696
	c0.488-0.034,0.987,0.128,1.367,0.444c0.403,0.336,0.668,0.914,0.631,1.375c-0.019,0.2-0.074,0.389-0.166,0.543
	C22.6,7.061,22.6,7.061,22.6,7.063c-0.002,0.002-0.002,0.002-0.002,0.004l-0.304,0.522l-2.937-1.698l0.304-0.526
	C19.873,5.008,20.339,4.727,20.77,4.696z M12.176,19.564c0.553,0.461,1.182,0.823,1.855,1.071l-1.924,1.154L12.176,19.564z
	 M15.3,19.714c-1.146-0.208-2.188-0.81-2.944-1.692l6.389-11.065l2.938,1.698L15.3,19.714z"/>
</svg>
