<?xml version="1.0" encoding="utf-8"?>
<!-- Generator: Adobe Illustrator 16.0.0, SVG Export Plug-In . SVG Version: 6.00 Build 0)  -->
<!DOCTYPE svg PUBLIC "-//W3C//DTD SVG 1.1//EN" "http://www.w3.org/Graphics/SVG/1.1/DTD/svg11.dtd">
<svg version="1.1" id="圖層_1" xmlns="http://www.w3.org/2000/svg" xmlns:xlink="http://www.w3.org/1999/xlink" x="0px" y="0px"
	 width="8px" height="13.588px" viewBox="0 0 8 13.588" enable-background="new 0 0 8 13.588" xml:space="preserve">
<g>
	<path d="M4,10.865c-0.246,0-0.444-0.199-0.444-0.444V0.444C3.556,0.198,3.754,0,4,0s0.444,0.198,0.444,0.444v9.977
		C4.444,10.666,4.246,10.865,4,10.865z"/>
	<g>
		<path d="M4,11.494l-3.87-3.87c-0.174-0.174-0.174-0.455,0-0.629c0.173-0.173,0.455-0.173,0.628,0L4,10.236l3.241-3.241
			c0.174-0.173,0.455-0.173,0.628,0c0.174,0.174,0.174,0.455,0,0.629L4,11.494z"/>
	</g>
	<rect y="12.698" width="8" height="0.89"/>
</g>
</svg>
