<?xml version="1.0" encoding="utf-8"?>
<!-- Generator: Adobe Illustrator 15.1.0, SVG Export Plug-In . SVG Version: 6.00 Build 0)  -->
<!DOCTYPE svg PUBLIC "-//W3C//DTD SVG 1.1//EN" "http://www.w3.org/Graphics/SVG/1.1/DTD/svg11.dtd">
<svg version="1.1" id="圖層_1" xmlns="http://www.w3.org/2000/svg" xmlns:xlink="http://www.w3.org/1999/xlink" x="0px" y="0px"
	 width="18.827px" height="10.431px" viewBox="31.123 38.094 18.827 10.431" enable-background="new 31.123 38.094 18.827 10.431"
	 xml:space="preserve">
<g>
	<g>
		<path d="M31.623,48.525c-0.124,0-0.247-0.045-0.343-0.137c-0.201-0.189-0.21-0.506-0.02-0.707l8.914-9.43
			c0.189-0.201,0.506-0.209,0.707-0.02c0.2,0.189,0.209,0.506,0.02,0.707l-8.914,9.431C31.888,48.473,31.755,48.525,31.623,48.525z"
			/>
	</g>
</g>
<g>
	<g>
		<path d="M49.449,48.525c-0.133,0-0.265-0.053-0.363-0.156l-8.913-9.431c-0.19-0.201-0.181-0.517,0.02-0.707
			c0.2-0.19,0.516-0.182,0.707,0.02l8.913,9.43c0.189,0.201,0.181,0.518-0.02,0.707C49.696,48.48,49.572,48.525,49.449,48.525z"/>
	</g>
</g>
</svg>
