<?xml version="1.0" encoding="utf-8"?>
<!-- Generator: Adobe Illustrator 15.1.0, SVG Export Plug-In . SVG Version: 6.00 Build 0)  -->
<!DOCTYPE svg PUBLIC "-//W3C//DTD SVG 1.1//EN" "http://www.w3.org/Graphics/SVG/1.1/DTD/svg11.dtd">
<svg version="1.1" id="圖層_1" xmlns="http://www.w3.org/2000/svg" xmlns:xlink="http://www.w3.org/1999/xlink" x="0px" y="0px"
	 width="20.196px" height="36.396px" viewBox="30.253 23.17 20.196 36.396" enable-background="new 30.253 23.17 20.196 36.396"
	 xml:space="preserve">
<path d="M50.176,32.915l-8.913-9.432c-0.224-0.238-0.535-0.324-0.836-0.291c-0.039-0.004-0.072-0.022-0.112-0.022
	c-0.028,0-0.052,0.014-0.08,0.016c-0.288-0.02-0.582,0.071-0.795,0.297l-8.914,9.432c-0.379,0.401-0.362,1.035,0.04,1.414
	c0.193,0.183,0.44,0.273,0.687,0.273c0.265,0,0.53-0.105,0.727-0.313l7.335-7.761v32.039c0,0.553,0.448,1,1,1c0.553,0,1-0.447,1-1
	V26.449l7.408,7.839c0.196,0.208,0.461,0.313,0.727,0.313c0.247,0,0.493-0.09,0.687-0.273
	C50.537,33.949,50.556,33.316,50.176,32.915z"/>
</svg>
