<?xml version="1.0" encoding="utf-8"?>
<!-- Generator: Adobe Illustrator 15.1.0, SVG Export Plug-In . SVG Version: 6.00 Build 0)  -->
<!DOCTYPE svg PUBLIC "-//W3C//DTD SVG 1.1//EN" "http://www.w3.org/Graphics/SVG/1.1/DTD/svg11.dtd">
<svg version="1.1" id="圖層_1" xmlns="http://www.w3.org/2000/svg" xmlns:xlink="http://www.w3.org/1999/xlink" x="0px" y="0px"
	 width="11.667px" height="20.167px" viewBox="35 29.917 11.667 20.167" enable-background="new 35 29.917 11.667 20.167"
	 xml:space="preserve">
<path d="M37.664,39.999l8.666-8.224c0.4-0.38,0.417-1.013,0.037-1.414c-0.381-0.399-1.014-0.417-1.414-0.037l-9.432,8.951
	c-0.007,0.007-0.009,0.016-0.016,0.023c-0.007,0.006-0.016,0.008-0.022,0.015c-0.04,0.042-0.058,0.095-0.088,0.142
	c-0.038,0.057-0.083,0.11-0.108,0.172c-0.024,0.06-0.029,0.122-0.041,0.185c-0.012,0.063-0.031,0.125-0.031,0.189
	c0,0.064,0.019,0.125,0.031,0.188s0.018,0.126,0.042,0.187c0.024,0.06,0.067,0.11,0.104,0.166c0.032,0.049,0.051,0.104,0.092,0.147
	c0.007,0.007,0.016,0.009,0.023,0.016c0.006,0.007,0.009,0.016,0.016,0.022l9.432,8.914c0.193,0.183,0.439,0.273,0.687,0.273
	c0.266,0,0.53-0.105,0.727-0.313c0.38-0.401,0.361-1.034-0.04-1.413L37.664,39.999z"/>
</svg>
