<?xml version="1.0" encoding="utf-8"?>
<!-- Generator: Adobe Illustrator 15.1.0, SVG Export Plug-In . SVG Version: 6.00 Build 0)  -->
<!DOCTYPE svg PUBLIC "-//W3C//DTD SVG 1.1//EN" "http://www.w3.org/Graphics/SVG/1.1/DTD/svg11.dtd">
<svg version="1.1" id="圖層_1" xmlns="http://www.w3.org/2000/svg" xmlns:xlink="http://www.w3.org/1999/xlink" x="0px" y="0px"
	 width="11.426px" height="19.864px" viewBox="34.469 31.159 11.426 19.864" enable-background="new 34.469 31.159 11.426 19.864"
	 xml:space="preserve">
<path d="M45.864,41.295c0.013-0.063,0.031-0.121,0.031-0.184c0-0.064-0.019-0.125-0.031-0.188c-0.012-0.063-0.017-0.126-0.041-0.187
	c-0.025-0.062-0.069-0.114-0.106-0.171c-0.032-0.047-0.05-0.101-0.09-0.143c-0.007-0.007-0.016-0.009-0.021-0.016
	c-0.007-0.007-0.01-0.016-0.017-0.023l-9.431-8.95c-0.4-0.379-1.033-0.364-1.414,0.037c-0.38,0.401-0.363,1.034,0.037,1.414
	l8.666,8.224l-8.664,8.188c-0.401,0.379-0.419,1.012-0.04,1.413c0.196,0.208,0.461,0.313,0.727,0.313
	c0.247,0,0.494-0.091,0.687-0.273l9.431-8.914c0.007-0.006,0.009-0.016,0.016-0.021c0.007-0.007,0.017-0.01,0.023-0.017
	c0.043-0.046,0.063-0.102,0.096-0.152c0.035-0.054,0.076-0.103,0.101-0.16C45.847,41.424,45.853,41.359,45.864,41.295z"/>
</svg>
