<?xml version="1.0" encoding="utf-8"?>
<!-- Generator: Adobe Illustrator 22.1.0, SVG Export Plug-In . SVG Version: 6.00 Build 0)  -->
<svg version="1.1" id="Layer_1" xmlns="http://www.w3.org/2000/svg" xmlns:xlink="http://www.w3.org/1999/xlink" x="0px" y="0px"
	 viewBox="0 0 38 33" style="enable-background:new 0 0 38 33;" xml:space="preserve">
<style type="text/css">
	.st0{fill:#FFFFFF;}
	.st1{fill:none;stroke:#000000;stroke-linecap:square;stroke-miterlimit:10;}
</style>
<path d="M34.2,20.9c-0.3-0.1-0.7,0.1-0.8,0.4c-2,6-7.7,10.3-14.4,10.3c-8.3,0-15-6.7-15.2-14.9l1.4,1.4c0.2,0.2,0.6,0.2,0.9,0
	c0.2-0.2,0.2-0.6,0-0.9l-2.5-2.5c0,0,0,0,0,0c-0.1-0.1-0.1-0.1-0.2-0.1c-0.2-0.1-0.3-0.1-0.5,0c-0.1,0-0.1,0.1-0.2,0.1c0,0,0,0,0,0
	l-2.5,2.5c-0.2,0.2-0.2,0.6,0,0.9c0.1,0.1,0.3,0.2,0.4,0.2s0.3-0.1,0.4-0.2v0l1.5-1.5c0.1,9,7.5,16.2,16.5,16.2
	c7.3,0,13.4-4.7,15.6-11.2C34.7,21.4,34.5,21,34.2,20.9z M37.8,14.8c-0.2-0.2-0.6-0.2-0.9,0l-1.5,1.5C35.3,7.2,28,0,19,0
	C11.5,0,5.2,5,3.2,11.9c-0.1,0.3,0.1,0.7,0.4,0.8c0.3,0.1,0.7-0.1,0.8-0.4C6.3,5.9,12.1,1.3,19,1.3c8.3,0,15,6.7,15.2,14.9l-1.4-1.4
	c-0.2-0.2-0.6-0.2-0.9,0c-0.2,0.2-0.2,0.6,0,0.9v0l2.5,2.5c0.1,0.1,0.1,0.1,0.2,0.1c0,0,0,0,0,0c0.1,0,0.2,0.1,0.2,0.1
	c0.2,0,0.3-0.1,0.4-0.2l2.5-2.5C38.1,15.4,38.1,15,37.8,14.8z M15.2,16.5c0-1-0.9-1.9-1.9-1.9c-1,0-1.9,0.9-1.9,1.9
	c0,1,0.9,1.9,1.9,1.9C14.3,18.4,15.2,17.5,15.2,16.5z M13.3,17.1c-0.3,0-0.6-0.3-0.6-0.6c0-0.3,0.3-0.6,0.6-0.6
	c0.3,0,0.6,0.3,0.6,0.6C13.9,16.8,13.6,17.1,13.3,17.1z M18.3,19h2c0.2,0,0.3-0.1,0.4-0.2l0.9-0.9l1.5,1c0.3,0.2,0.6,0.1,0.8-0.1
	l0.9-0.9l1.5,1c0.3,0.2,0.7,0.1,0.9-0.1l1.9-2.5c0.1-0.1,0.1-0.3,0.1-0.5c0-0.2-0.1-0.3-0.3-0.4L27,14c-0.1-0.1-0.2-0.1-0.4-0.1
	h-8.3c-0.9-1.5-2.5-2.5-4.4-2.5c-2.8,0-5.1,2.3-5.1,5.1c0,2.8,2.3,5.1,5.1,5.1C15.8,21.5,17.4,20.5,18.3,19z M10.1,16.5
	c0-2.1,1.7-3.8,3.8-3.8c1.5,0,2.8,0.9,3.4,2.2c0.1,0.2,0.3,0.4,0.6,0.4h8.5l1.2,0.8l-1.1,1.5l-1.4-0.9c-0.3-0.2-0.6-0.1-0.8,0.1
	l-0.9,0.9l-1.5-1c-0.3-0.2-0.6-0.1-0.8,0.1L20,17.7h-2.1c-0.2,0-0.5,0.1-0.6,0.4c-0.6,1.3-1.9,2.2-3.4,2.2
	C11.8,20.3,10.1,18.6,10.1,16.5z"/>
</svg>
