<?xml version="1.0" encoding="utf-8"?>
<!-- Generator: Adobe Illustrator 22.1.0, SVG Export Plug-In . SVG Version: 6.00 Build 0)  -->
<svg version="1.1" id="Layer_1" xmlns="http://www.w3.org/2000/svg" xmlns:xlink="http://www.w3.org/1999/xlink" x="0px" y="0px"
	 viewBox="0 0 23 11" style="enable-background:new 0 0 23 11;" xml:space="preserve">
<style type="text/css">
	.st0{fill:none;stroke:#000000;stroke-width:2;stroke-linecap:round;stroke-linejoin:round;stroke-miterlimit:10;}
</style>
<g>
	<g>
		<path d="M11.2,11c-3.9,0-7.6-1.7-11-5.1C0,5.6,0,5.3,0.1,5.1c0.2-0.2,5-5.1,11.6-5.1c3.9,0,7.7,1.7,11.2,5.1
			c0.2,0.2,0.2,0.5,0,0.7c-0.2,0.2-5,5.1-11.6,5.1C11.3,11,11.2,11,11.2,11z M1.2,5.5c3.1,3,6.5,4.5,10.1,4.5
			c5.2,0,9.3-3.4,10.5-4.5C18.6,2.5,15.3,1,11.7,1C6.5,1,2.4,4.4,1.2,5.5z"/>
		<path d="M11.5,11C8.5,11,6,8.5,6,5.5S8.5,0,11.5,0S17,2.5,17,5.5S14.5,11,11.5,11z M11.5,1C9,1,7,3,7,5.5S9,10,11.5,10
			s4.5-2,4.5-4.5S14,1,11.5,1z"/>
	</g>
	<path d="M11.5,8.7c-1.8,0-3.2-1.4-3.2-3.2s1.4-3.2,3.2-3.2s3.2,1.4,3.2,3.2S13.3,8.7,11.5,8.7z M11.5,3.3c-1.2,0-2.2,1-2.2,2.2
		s1,2.2,2.2,2.2s2.2-1,2.2-2.2S12.7,3.3,11.5,3.3z"/>
</g>
</svg>
