<?xml version="1.0" encoding="utf-8"?>
<!-- Generator: Adobe Illustrator 15.1.0, SVG Export Plug-In . SVG Version: 6.00 Build 0)  -->
<!DOCTYPE svg PUBLIC "-//W3C//DTD SVG 1.1//EN" "http://www.w3.org/Graphics/SVG/1.1/DTD/svg11.dtd">
<svg version="1.1" id="Icons" xmlns="http://www.w3.org/2000/svg" xmlns:xlink="http://www.w3.org/1999/xlink" x="0px" y="0px"
	 width="100px" height="100px" viewBox="0 0 100 100" enable-background="new 0 0 100 100" xml:space="preserve">
<g>
	<path fill="#1A1A1A" d="M82.692,26.923h-9.615c-4.231,0-7.692-3.461-7.692-7.692V9.615c0-1.154,0.77-1.923,1.923-1.923
		s1.923,0.769,1.923,1.923v9.616c0,2.115,1.73,3.846,3.847,3.846h9.615c1.153,0,1.923,0.769,1.923,1.923
		S83.846,26.923,82.692,26.923z"/>
	<path fill="#1A1A1A" d="M82.692,100H25c-5.385,0-9.615-4.23-9.615-9.615v-3.846c0-1.154,0.769-1.924,1.923-1.924
		s1.923,0.77,1.923,1.924v3.846c0,3.27,2.5,5.77,5.769,5.77h57.692c3.269,0,5.769-2.5,5.769-5.77V24.423
		c0-1.538-0.576-3.077-1.73-4.038L71.923,5.577c-0.962-1.154-2.5-1.731-4.038-1.731H25c-3.269,0-5.769,2.5-5.769,5.769v19.231
		c0,1.154-0.77,1.923-1.923,1.923S15.385,30,15.385,28.846V9.615C15.385,4.231,19.615,0,25,0h42.885c2.5,0,5,0.961,6.73,2.885
		l14.808,14.808c1.731,1.73,2.885,4.23,2.885,6.73v65.962C92.308,95.77,88.077,100,82.692,100z"/>
	<path fill="#1A1A1A" d="M44.039,80.77c-0.577,0-0.961-0.192-1.346-0.577L30.769,68.27L18.846,80.192
		c-0.769,0.769-1.923,0.769-2.692,0l-7.885-7.885c-0.769-0.769-0.769-1.923,0-2.692l11.923-11.923L8.269,45.769
		C7.5,45,7.5,43.846,8.269,43.077l7.885-7.885c0.769-0.77,1.923-0.77,2.692,0l11.923,11.923l11.923-11.923
		c0.769-0.77,1.923-0.77,2.692,0l7.885,7.885c0.77,0.769,0.77,1.923,0,2.692L41.346,57.692L53.27,69.615
		c0.77,0.77,0.77,1.924,0,2.692l-7.885,7.885C45,80.577,44.423,80.77,44.039,80.77z M30.769,63.654c0.577,0,0.962,0.191,1.346,0.576
		l11.923,11.924l5.192-5.193L37.308,59.039c-0.769-0.77-0.769-1.924,0-2.693l11.923-11.923l-5.192-5.192L32.115,51.154
		c-0.769,0.769-1.923,0.769-2.692,0L17.5,39.231l-5.192,5.192l11.923,11.923c0.769,0.77,0.769,1.924,0,2.693L12.308,70.961
		l5.192,5.193L29.423,64.23C29.808,63.846,30.192,63.654,30.769,63.654z"/>
</g>
</svg>
