<?xml version="1.0" encoding="utf-8"?>
<!-- Generator: Adobe Illustrator 15.1.0, SVG Export Plug-In . SVG Version: 6.00 Build 0)  -->
<!DOCTYPE svg PUBLIC "-//W3C//DTD SVG 1.1//EN" "http://www.w3.org/Graphics/SVG/1.1/DTD/svg11.dtd">
<svg version="1.1" id="圖層_1" xmlns="http://www.w3.org/2000/svg" xmlns:xlink="http://www.w3.org/1999/xlink" x="0px" y="0px"
	 width="42.016px" height="50px" viewBox="18.889 0 42.016 50" enable-background="new 18.889 0 42.016 50" xml:space="preserve">
<g>
	<path fill="#1A1A1A" d="M56.223,13.333h-4.889c-2.223,0-3.778-1.778-3.778-3.778V4.889C47.556,4.444,48,4,48.444,4
		s0.89,0.444,0.89,0.889v4.889c0,1.111,0.889,2,2,2h4.889c0.443,0,0.889,0.444,0.889,0.889
		C57.334,13.111,56.889,13.333,56.223,13.333z"/>
	<path fill="#1A1A1A" d="M56.223,50H27.333c-2.667,0-4.889-2.223-4.889-4.889v-7.777c0-0.445,0.444-0.89,0.889-0.89
		c0.444,0,0.889,0.444,0.889,0.89v7.777c0,1.555,1.333,2.889,2.889,2.889H56c1.556,0,2.889-1.334,2.889-2.889V12.222
		c0-0.667-0.223-1.556-0.889-2l-7.334-7.333C50.223,2.444,49.334,2,48.666,2h-21.11C26,2,24.667,3.333,24.667,4.889v15.333
		c0,0.444-0.444,0.889-0.889,0.889s-1.111-0.445-1.111-0.889V4.889C22.667,2.222,24.889,0,27.556,0h21.333
		c1.334,0,2.445,0.444,3.334,1.333l7.333,7.333c0.889,0.889,1.333,2.222,1.333,3.333v32.889C61.111,47.777,58.889,50,56.223,50z"/>
	<path fill="#1A1A1A" d="M43.777,34.444h-20c-2.667,0-4.889-2.222-4.889-4.889v-2c0-2.667,2.223-4.889,4.889-4.889H42
		c2.223,0,3.777,1.778,3.777,3.778c0,2.222-1.777,3.778-3.777,3.778H27.556c-0.444,0-0.889-0.445-0.889-0.889
		c0-0.445,0.222-0.445,0.889-0.445H42c1.111,0,2-0.889,2-2s-0.889-2-2-2H23.778c-1.556,0-2.889,1.334-2.889,2.889v2
		c0,1.557,1.333,2.889,2.889,2.889H44c3.111,0,5.777-2.666,5.777-5.777c0-3.111-2.666-5.777-5.777-5.777H33.333
		c-0.667,0-1.111-0.445-1.111-0.889s0.444-0.889,0.889-0.889h10.666c4.223,0,7.778,3.333,7.778,7.778
		C51.556,31.556,48,34.444,43.777,34.444z"/>
</g>
</svg>
