<?xml version="1.0" encoding="utf-8"?>
<!-- Generator: Adobe Illustrator 15.1.0, SVG Export Plug-In . SVG Version: 6.00 Build 0)  -->
<!DOCTYPE svg PUBLIC "-//W3C//DTD SVG 1.1//EN" "http://www.w3.org/Graphics/SVG/1.1/DTD/svg11.dtd">
<svg version="1.1" id="圖層_1" xmlns="http://www.w3.org/2000/svg" xmlns:xlink="http://www.w3.org/1999/xlink" x="0px" y="0px"
	 width="50px" height="50px" viewBox="15 0 50 50" enable-background="new 15 0 50 50" xml:space="preserve">
<g id="Layer_1">
</g>
<g id="Layer_2">
	<g>
		<path d="M52,15.25v-7c1.75-0.5,3-2.25,3-4C55,1.75,53.25,0,51,0H29c-2.25,0-4,1.75-4,4.25c0,2,1.25,3.5,3,4v7.25
			c0,0.25,0.25,0.75,0.5,0.75l10,8.75l-10,8.75C28.25,34,28,34.25,28,34.5v7.25c-1.75,0.5-3,2.25-3,4c0,2.5,1.75,4.25,4,4.25h22
			c2.25,0,4.25-1.75,4.25-4.25c0-2-1.25-3.5-3-4V34.5c0-0.25-0.25-0.75-0.5-0.75l-10-8.75l10-8.75C52,16,52,15.75,52,15.25z
			 M27.25,4.25c0-1,0.75-2,2-2h22c1,0,2,0.75,2,2c0,1-0.75,2-2,2H29C28,6,27.25,5.25,27.25,4.25z M52.75,45.75c0,1-0.75,2-2,2H29
			c-1,0-2-0.75-2-2c0-1,0.75-2,2-2h22C52,44,52.75,44.75,52.75,45.75z M49.75,41.75h-19.5v-6.5L40,26.5l9.75,8.75V41.75z
			 M49.75,14.75L40,23.5l-9.75-8.75v-6.5H50v6.5H49.75z"/>
		<path d="M34,14.25h11.75c0.5,0,1.25-0.5,1.25-1.25c0-0.5-0.5-1.25-1.25-1.25H34C33.5,12,33,12.5,33,13
			C33,13.75,33.5,14.25,34,14.25z"/>
		<path d="M39.25,33.25l-2.5,2.5h-2.5c-0.5,0-1.25,0.5-1.25,1.25c0,0.5,0.5,1.25,1.25,1.25h3c0.25,0,0.5,0,0.75-0.25l2-2l2,2
			c0.25,0.25,0.5,0.25,0.75,0.25h3c0.5,0,1.25-0.5,1.25-1.25c0-0.5-0.5-1.25-1.25-1.25h-2.5l-2.5-2.5
			C40.25,32.75,39.75,32.75,39.25,33.25z"/>
		<path d="M23,23.75h-6.75C15.5,23.75,15,24.5,15,25s0.5,1.25,1.25,1.25h7c0.5,0,1.25-0.5,1.25-1.25
			C24.25,24.5,23.75,23.75,23,23.75z"/>
		<path d="M22.5,30.75l-4.75,2.5c-0.5,0.25-0.75,1-0.5,1.5c0.25,0.25,0.75,0.5,1,0.5s0.25,0,0.5,0l4.75-2.5c0.5-0.25,0.75-1,0.5-1.5
			C23.75,30.5,23.25,30.5,22.5,30.75z"/>
		<path d="M17.75,17l4.75,2.5c0.25,0,0.25,0,0.5,0c0.5,0,0.75-0.25,1-0.5c0.25-0.5,0-1.25-0.5-1.5L18.75,15
			c-0.5-0.5-1.25-0.25-1.5,0.5C17,16,17.25,16.75,17.75,17z"/>
		<path d="M63.75,23.75h-7c-0.5,0-1.25,0.5-1.25,1.25c0,0.5,0.5,1.25,1.25,1.25h7c0.5,0,1.25-0.5,1.25-1.25
			C65,24.5,64.5,23.75,63.75,23.75z"/>
		<path d="M62.25,33l-4.75-2.5c-0.5-0.25-1.25,0-1.5,0.5s0,1.25,0.5,1.5l4.75,2.5c0.25,0,0.25,0,0.5,0c0.5,0,0.75-0.25,1-0.5
			C63,34,62.75,33.25,62.25,33z"/>
		<path d="M57,19.5c0.25,0,0.25,0,0.5,0l4.75-2.5c0.5-0.25,0.75-1,0.5-1.5c-0.25-0.75-1-1-1.5-0.5l-4.75,2.5
			c-0.5,0.25-0.75,1-0.5,1.5C56,19.25,56.5,19.5,57,19.5z"/>
	</g>
</g>
</svg>
