<?xml version="1.0" encoding="utf-8"?>
<!-- Generator: Adobe Illustrator 15.1.0, SVG Export Plug-In . SVG Version: 6.00 Build 0)  -->
<!DOCTYPE svg PUBLIC "-//W3C//DTD SVG 1.1//EN" "http://www.w3.org/Graphics/SVG/1.1/DTD/svg11.dtd">
<svg version="1.1" id="圖層_1" xmlns="http://www.w3.org/2000/svg" xmlns:xlink="http://www.w3.org/1999/xlink" x="0px" y="0px"
	 width="50px" height="50px" viewBox="0 0 50 50" enable-background="new 0 0 50 50" xml:space="preserve">
<path d="M25.056,49.998c-4.941,0-9.889,0.004-14.835,0C4.283,49.99,0.171,45.895,0.167,39.979c0-9.856,0-19.711,0-29.566
	c0-6.125,4.054-10.196,10.2-10.204c9.855-0.016,19.709-0.016,29.564,0c5.968,0.008,10.063,4.15,10.065,10.142
	c0.004,9.854,0.004,19.71,0,29.567c-0.002,5.968-4.119,10.073-10.109,10.081C34.942,50.002,29.998,49.998,25.056,49.998z
	 M5.083,20.009c-0.021,0.476-0.051,0.813-0.051,1.149c-0.004,6.25-0.008,12.504,0,18.748c0.004,3.371,1.933,5.277,5.333,5.277
	c9.82,0.004,19.64,0.004,29.458,0c3.371-0.008,5.277-1.936,5.285-5.316c0.006-6.215,0-12.426,0-18.646c0-0.365,0-0.736,0-1.133
	c-2.498,0-4.874,0-7.361,0c1.106,3.051,1.277,6.053,0.324,9.072c-0.951,3.021-2.744,5.439-5.357,7.219
	c-4.479,3.055-10.468,3.229-14.939,0.182c-5.927-4.039-7.442-9.684-5.475-16.46c-0.183-0.032-0.349-0.091-0.511-0.091
	C9.598,20.009,7.401,20.009,5.083,20.009z M25.111,16.363c-4.837-0.017-8.82,3.932-8.816,8.737c0.003,4.83,3.971,8.792,8.792,8.781
	c4.843-0.008,8.754-3.951,8.741-8.81C33.819,20.271,29.918,16.375,25.111,16.363z M44.17,14.335c0-2.857,0-5.581,0-8.31
	c-2.818,0-5.564,0-8.314,0c0,2.824,0,5.55,0,8.31C38.646,14.335,41.371,14.335,44.17,14.335z"/>
</svg>
