<?xml version="1.0" encoding="utf-8"?>
<!-- Generator: Adobe Illustrator 15.1.0, SVG Export Plug-In . SVG Version: 6.00 Build 0)  -->
<!DOCTYPE svg PUBLIC "-//W3C//DTD SVG 1.1//EN" "http://www.w3.org/Graphics/SVG/1.1/DTD/svg11.dtd">
<svg version="1.1" id="圖層_1" xmlns="http://www.w3.org/2000/svg" xmlns:xlink="http://www.w3.org/1999/xlink" x="0px" y="0px"
	 width="44.668px" height="35.62px" viewBox="0 0 44.668 35.62" enable-background="new 0 0 44.668 35.62" xml:space="preserve">
<g>
	<path d="M31.968,35.62H9.167V3.531C9.167,1.584,10.751,0,12.698,0h18.62v1.3h-18.62c-1.23,0-2.23,1.001-2.23,2.231V34.32h20.199
		v-6.643h1.301V35.62z"/>
	<rect x="30.667" y="4.204" width="1.301" height="3.179"/>
	<path d="M35.021,4.854H14.896v-0.65c0-1.601-1.078-2.904-2.403-2.904V0c1.847,0,3.383,1.543,3.659,3.554h17.509
		C33.416,2.265,32.459,1.3,31.317,1.3V0c2.042,0,3.704,1.886,3.704,4.204V4.854z"/>
	<path d="M9.817,35.62c-2.519,0-4.567-2.048-4.567-4.566L5.246,17.194h1.301l0.004,13.859c0,1.802,1.465,3.267,3.267,3.267V35.62z"
		/>
	<path d="M3.275,29.036H0v-11.69c0-1.806,1.469-3.275,3.275-3.275c1.806,0,3.275,1.469,3.275,3.275h-1.3
		c0-1.089-0.886-1.976-1.975-1.976c-1.089,0-1.975,0.887-1.975,1.976v10.391h1.975V29.036z"/>
	<rect x="3.276" y="14.07" width="6.542" height="1.3"/>
	<path d="M25.047,27.153c-0.541,0-1.076-0.046-1.607-0.136l-0.35-0.061l-0.139-0.325c-0.093-0.217-2.226-5.362,0.755-10.53
		c2.875-4.988,9.403-8.138,19.404-9.364l1.559-0.191l-0.968,1.237c-0.056,0.072-5.658,7.262-7.775,11.891
		c-1.276,2.792-3.364,5.008-5.879,6.238C28.358,26.738,26.683,27.153,25.047,27.153 M24.026,25.79
		c1.754,0.217,3.585-0.134,5.447-1.045c2.247-1.1,4.118-3.092,5.271-5.61c1.658-3.629,5.249-8.596,6.976-10.897
		c-8.685,1.29-14.359,4.145-16.879,8.496C22.586,20.631,23.64,24.631,24.026,25.79"/>
	<path d="M22.361,31.992l-1.244-0.375c0.134-0.447,3.421-11.029,14.46-18.821l0.75,1.062C25.651,21.395,22.394,31.887,22.361,31.992
		"/>
	<path d="M19.835,32.454h-1.257c-0.763,0-1.509-0.309-2.049-0.849c-0.35-0.351-0.835-0.513-1.323-0.457
		c-0.491,0.06-0.919,0.337-1.175,0.761l-0.139,0.23l-1.114-0.671l0.14-0.231c0.464-0.769,1.241-1.271,2.131-1.379
		c0.897-0.112,1.765,0.193,2.399,0.828c0.298,0.297,0.71,0.468,1.13,0.468h1.257V32.454z"/>
</g>
</svg>
