<?xml version="1.0" encoding="utf-8"?>
<!-- Generator: Adobe Illustrator 16.0.0, SVG Export Plug-In . SVG Version: 6.00 Build 0)  -->
<!DOCTYPE svg PUBLIC "-//W3C//DTD SVG 1.1//EN" "http://www.w3.org/Graphics/SVG/1.1/DTD/svg11.dtd">
<svg version="1.1" id="圖層_1" xmlns="http://www.w3.org/2000/svg" xmlns:xlink="http://www.w3.org/1999/xlink" x="0px" y="0px"
	 width="29.17px" height="29.233px" viewBox="22.768 22.688 29.17 29.233" enable-background="new 22.768 22.688 29.17 29.233"
	 xml:space="preserve">
<path d="M50.43,50.629l-6.936-7.861c2.335-2.111,3.816-5.15,3.816-8.541c0-6.351-5.166-11.517-11.518-11.517
	c-6.352,0-11.518,5.167-11.518,11.517c0,6.352,5.166,11.518,11.518,11.518c2.272,0,4.383-0.67,6.167-1.807l7.03,7.961L50.43,50.629z
	 M26.195,34.227c0-5.292,4.306-9.598,9.598-9.598c5.29,0,9.598,4.306,9.598,9.598c0,5.293-4.308,9.598-9.598,9.598
	C30.501,43.824,26.195,39.52,26.195,34.227z"/>
</svg>
