<?xml version="1.0" encoding="utf-8"?>
<!-- Generator: Adobe Illustrator 15.1.0, SVG Export Plug-In . SVG Version: 6.00 Build 0)  -->
<!DOCTYPE svg PUBLIC "-//W3C//DTD SVG 1.1//EN" "http://www.w3.org/Graphics/SVG/1.1/DTD/svg11.dtd">
<svg version="1.1"
	 id="svg2" xmlns:svg="http://www.w3.org/2000/svg" xmlns:rdf="http://www.w3.org/1999/02/22-rdf-syntax-ns#" xmlns:cc="http://creativecommons.org/ns#" xmlns:dc="http://purl.org/dc/elements/1.1/"
	 xmlns="http://www.w3.org/2000/svg" xmlns:xlink="http://www.w3.org/1999/xlink" x="0px" y="0px" width="193.369px"
	 height="153.083px" viewBox="0 -26.417 193.369 153.083" enable-background="new 0 -26.417 193.369 153.083" xml:space="preserve">
<g id="g10" transform="matrix(1.3333333,0,0,-1.3333333,0,126.66667)">
	<g id="g12" transform="scale(0.1)">
		<path id="path14" fill="#231F20" d="M1325.135,909.071h-47.461c-17.622,0-42.539-25.422-42.539-41.697V277.569
			c0-16.304,24.917-38.511,42.539-38.511h47.461V99.063H895.13v139.995h90v620.01h-4.409L770.559,99.063H607.837L400.386,859.068
			h-5.251v-620.01h90V99.063h-360v139.995h46.099c18.984,0,43.901,22.207,43.901,38.511v589.805
			c0,16.274-24.917,41.697-43.901,41.697h-46.099v139.995h450.161l147.795-549.998h4.065l149.165,549.998h448.814V909.071"/>
	</g>
</g>
</svg>
