<?xml version="1.0" encoding="utf-8"?>
<!-- Generator: Adobe Illustrator 22.1.0, SVG Export Plug-In . SVG Version: 6.00 Build 0)  -->
<svg version="1.1" id="Layer_1" xmlns="http://www.w3.org/2000/svg" xmlns:xlink="http://www.w3.org/1999/xlink" x="0px" y="0px"
	 viewBox="0 0 77 53.3" style="enable-background:new 0 0 77 53.3;" xml:space="preserve">
<style type="text/css">
	.st0{fill:#FFFFFF;}
	.st1{fill:none;stroke:#000000;stroke-linecap:square;stroke-miterlimit:10;}
</style>
<g>
	<g>
		<g>
			<path d="M22.8,33.9c-0.1,0-0.2,0-0.3,0L0.6,27.1C0.3,27,0,26.6,0,26.3c0-0.4,0.2-0.7,0.6-0.8L75.8,0c0.4-0.1,0.9,0.1,1.1,0.5
				c0.2,0.4,0,0.9-0.3,1.1L23.3,33.8C23.1,33.8,23,33.9,22.8,33.9z M3.8,26.2l19,5.8l46-27.7L3.8,26.2z"/>
		</g>
	</g>
	<g>
		<g>
			<path d="M52.3,53.3c-0.2,0-0.4-0.1-0.5-0.2L30,37.1c-0.2-0.2-0.4-0.4-0.4-0.7c0-0.3,0.1-0.5,0.3-0.7L75.6,0.2
				c0.3-0.2,0.8-0.2,1.1,0c0.3,0.3,0.4,0.7,0.3,1.1L53.1,52.7c-0.1,0.2-0.3,0.4-0.6,0.5C52.5,53.2,52.4,53.3,52.3,53.3z M32,36.4
				L52,51L73.8,3.8L32,36.4z"/>
		</g>
	</g>
	<g>
		<g>
			<path d="M28.6,51.1c-0.1,0-0.2,0-0.2,0c-0.3-0.1-0.5-0.3-0.6-0.6l-6-18l1.7-0.6L29,48.7l9.1-7.6l1.1,1.4l-10.1,8.4
				C29,51,28.8,51.1,28.6,51.1z"/>
		</g>
	</g>
	<g>
		<g>
			<path d="M28.6,51.1c0,0-0.1,0-0.1,0c-0.5-0.1-0.8-0.5-0.8-1l1.9-13.7c0.1-0.5,0.5-0.8,1-0.8c0.5,0.1,0.8,0.5,0.8,1l-1.9,13.7
				C29.4,50.7,29,51.1,28.6,51.1z"/>
		</g>
	</g>
</g>
</svg>
