<?xml version="1.0" encoding="utf-8"?>
<!-- Generator: Adobe Illustrator 15.1.0, SVG Export Plug-In . SVG Version: 6.00 Build 0)  -->
<!DOCTYPE svg PUBLIC "-//W3C//DTD SVG 1.1//EN" "http://www.w3.org/Graphics/SVG/1.1/DTD/svg11.dtd">
<svg version="1.1" id="分離模式" xmlns="http://www.w3.org/2000/svg" xmlns:xlink="http://www.w3.org/1999/xlink" x="0px"
	 y="0px" width="100px" height="100px" viewBox="0 0 100 100" enable-background="new 0 0 100 100" xml:space="preserve">
<g>
	<path d="M59.091,48.864c-12.5,0-22.727-10.228-22.727-22.728S46.591,3.409,59.091,3.409s22.728,10.227,22.728,22.727
		S71.591,48.864,59.091,48.864z M59.091,7.955c-10,0-18.182,8.182-18.182,18.182s8.182,18.182,18.182,18.182
		s18.183-8.182,18.183-18.182S69.091,7.955,59.091,7.955z"/>
	<path d="M100,96.591H18.182v-2.272c0-22.5,18.409-40.909,40.909-40.909S100,71.818,100,94.318V96.591z M22.727,92.045h72.728
		c-1.137-19.09-17.046-34.09-36.364-34.09C39.773,57.955,23.864,72.955,22.727,92.045z"/>
	<rect y="44.318" width="31.818" height="4.545"/>
	<rect x="13.636" y="30.682" width="4.545" height="31.818"/>
</g>
</svg>
