<?xml version="1.0" encoding="utf-8"?>
<!-- Generator: Adobe Illustrator 22.1.0, SVG Export Plug-In . SVG Version: 6.00 Build 0)  -->
<svg version="1.1" xmlns="http://www.w3.org/2000/svg" xmlns:xlink="http://www.w3.org/1999/xlink" x="0px" y="0px"
	 viewBox="0 0 28 28" style="enable-background:new 0 0 28 28;" xml:space="preserve">
<style type="text/css">
	.st0{fill:none;}
	.st1{fill:#3E3A39;}
</style>
<g id="bg">
	<rect x="122" y="-253" class="st0" width="444" height="444"/>
</g>
<g id="_x36_4_x2A_64">
	<rect x="152" y="-218" class="st0" width="64" height="64"/>
	<rect x="312" y="-218" class="st0" width="64" height="64"/>
	<rect x="312" y="-218" class="st0" width="64" height="64"/>
	<rect x="232" y="-218" class="st0" width="64" height="64"/>
	<rect x="232" y="-18" class="st0" width="64" height="64"/>
	<rect x="152" y="-118" class="st0" width="64" height="64"/>
	<rect x="392" y="-18" class="st0" width="64" height="64"/>
	<rect x="392" y="-218" class="st0" width="64" height="64"/>
	<rect x="392" y="-118" class="st0" width="64" height="64"/>
	<rect x="152" y="82" class="st0" width="64" height="64"/>
	<rect x="392" y="82" class="st0" width="64" height="64"/>
	<rect x="232" y="82" class="st0" width="64" height="64"/>
	<rect x="312" y="-118" class="st0" width="64" height="64"/>
	<rect x="312" y="-18" class="st0" width="64" height="64"/>
	<rect x="232" y="-118" class="st0" width="64" height="64"/>
	<rect x="472" y="-18" class="st0" width="64" height="64"/>
	<rect x="472" y="-218" class="st0" width="64" height="64"/>
	<rect x="312" y="82" class="st0" width="64" height="64"/>
	<rect x="472" y="82" class="st0" width="64" height="64"/>
	<rect x="152" y="-18" class="st0" width="64" height="64"/>
	<rect x="472" y="-118" class="st0" width="64" height="64"/>
</g>
<g id="icons">
	<g>
		<path class="st1" d="M363,108c-0.6,0-1-0.4-1-1V96h-11c-0.6,0-1-0.4-1-1c0-0.6,0.4-1,1-1h13v13C364,107.6,363.6,108,363,108z"/>
		<path class="st1" d="M341,118c-0.3,0-0.5-0.1-0.7-0.3c-0.4-0.4-0.4-1,0-1.4l21-21c0.4-0.4,1-0.4,1.4,0c0.4,0.4,0.4,1,0,1.4l-21,21
			C341.5,117.9,341.3,118,341,118z"/>
		<path class="st1" d="M353,134h-24c-2.8,0-5-2.2-5-5v-24c0-2.8,2.2-5,5-5h17v2h-17c-1.7,0-3,1.3-3,3v24c0,1.7,1.3,3,3,3h24
			c1.7,0,3-1.3,3-3v-17h2v17C358,131.8,355.8,134,353,134z"/>
	</g>
	<g>
		<g>
			<path class="st1" d="M203,109h-11V98c0-0.6,0.4-1,1-1s1,0.4,1,1v9h9c0.6,0,1,0.4,1,1C204,108.6,203.6,109,203,109z"/>
			<path class="st1" d="M194,108c-0.3,0-0.5-0.1-0.7-0.3c-0.4-0.4-0.4-1,0-1.4l13-13c0.4-0.4,1-0.4,1.4,0c0.4,0.4,0.4,1,0,1.4
				l-13,13C194.5,107.9,194.3,108,194,108z"/>
		</g>
		<g>
			<path class="st1" d="M176,109h-11c-0.6,0-1-0.4-1-1c0-0.6,0.4-1,1-1h9v-9c0-0.6,0.4-1,1-1s1,0.4,1,1V109z"/>
			<path class="st1" d="M174,108c-0.3,0-0.5-0.1-0.7-0.3l-13-13c-0.4-0.4-0.4-1,0-1.4c0.4-0.4,1-0.4,1.4,0l13,13
				c0.4,0.4,0.4,1,0,1.4C174.5,107.9,174.3,108,174,108z"/>
		</g>
		<g>
			<path class="st1" d="M193,131c-0.6,0-1-0.4-1-1v-11h11c0.6,0,1,0.4,1,1c0,0.6-0.4,1-1,1h-9v9C194,130.6,193.6,131,193,131z"/>
			<path class="st1" d="M207,135c-0.3,0-0.5-0.1-0.7-0.3l-13-13c-0.4-0.4-0.4-1,0-1.4c0.4-0.4,1-0.4,1.4,0l13,13
				c0.4,0.4,0.4,1,0,1.4C207.5,134.9,207.3,135,207,135z"/>
		</g>
		<g>
			<path class="st1" d="M175,131c-0.6,0-1-0.4-1-1v-9h-9c-0.6,0-1-0.4-1-1c0-0.6,0.4-1,1-1h11v11C176,130.6,175.6,131,175,131z"/>
			<path class="st1" d="M161,135c-0.3,0-0.5-0.1-0.7-0.3c-0.4-0.4-0.4-1,0-1.4l13-13c0.4-0.4,1-0.4,1.4,0c0.4,0.4,0.4,1,0,1.4
				l-13,13C161.5,134.9,161.3,135,161,135z"/>
		</g>
	</g>
	<g>
		<path d="M23.9,4.1C21.3,1.5,17.7,0,14,0c-3.7,0-7.3,1.5-9.9,4.1L3,5.2V1.8c0-0.3-0.3-0.6-0.6-0.6S1.8,1.5,1.8,1.8v5.5h5.5
			c0.3,0,0.6-0.3,0.6-0.6c0-0.3-0.3-0.6-0.6-0.6H3.8L5,5c2.4-2.4,5.6-3.7,9-3.7c3.4,0,6.6,1.3,9,3.7s3.7,5.6,3.7,9
			c0,1.1-0.1,2.2-0.4,3.3c-0.1,0.3,0.1,0.7,0.4,0.7c0.1,0,0.1,0,0.2,0c0.3,0,0.5-0.2,0.6-0.5c0.3-1.2,0.5-2.4,0.5-3.6
			C28,10.3,26.5,6.7,23.9,4.1z"/>
		<path d="M20.1,21.3c0,0.3,0.3,0.6,0.6,0.6h3.5L23,23c-2.4,2.4-5.6,3.7-9,3.7c-3.4,0-6.6-1.3-9-3.7c-2.4-2.4-3.7-5.6-3.7-9
			c0-1.1,0.1-2.2,0.4-3.3c0.1-0.3-0.1-0.7-0.4-0.7C0.9,9.9,0.6,10,0.5,10.4C0.2,11.6,0,12.8,0,14c0,3.7,1.5,7.3,4.1,9.9
			C6.7,26.5,10.3,28,14,28c0,0,0,0,0,0c3.7,0,7.3-1.5,9.9-4.1l1.1-1.1v3.3c0,0.3,0.3,0.6,0.6,0.6s0.6-0.3,0.6-0.6v-5.5h-5.5
			C20.4,20.7,20.1,21,20.1,21.3z"/>
	</g>
	<g>
		<path class="st1" d="M264,122c-0.6,0-1-0.4-1-1V95c0-0.6,0.4-1,1-1c0.6,0,1,0.4,1,1v26C265,121.6,264.6,122,264,122z"/>
		<path class="st1" d="M282,134h-36c-2.8,0-5-2.2-5-5v-16c0-2.8,2.2-5,5-5h6v2h-6c-1.7,0-3,1.3-3,3v16c0,1.7,1.3,3,3,3h36
			c1.7,0,3-1.3,3-3v-16c0-1.7-1.3-3-3-3h-6v-2h6c2.8,0,5,2.2,5,5v16C287,131.8,284.8,134,282,134z"/>
		<g>
			<path class="st1" d="M264,123.4l-8.7-8.7c-0.4-0.4-0.4-1,0-1.4c0.4-0.4,1-0.4,1.4,0l7.3,7.3l7.3-7.3c0.4-0.4,1-0.4,1.4,0
				c0.4,0.4,0.4,1,0,1.4L264,123.4z"/>
		</g>
	</g>
	<g>
		<path class="st1" d="M442,135h-36c-2.8,0-5-2.2-5-5v-16c0-2.8,2.2-5,5-5h6v2h-6c-1.7,0-3,1.3-3,3v16c0,1.7,1.3,3,3,3h36
			c1.7,0,3-1.3,3-3v-16c0-1.7-1.3-3-3-3h-6v-2h6c2.8,0,5,2.2,5,5v16C447,132.8,444.8,135,442,135z"/>
		<path class="st1" d="M424,123c-0.6,0-1-0.4-1-1V96c0-0.6,0.4-1,1-1s1,0.4,1,1v26C425,122.6,424.6,123,424,123z"/>
		<path class="st1" d="M432,103c-0.3,0-0.5-0.1-0.7-0.3l-7.3-7.3l-7.3,7.3c-0.4,0.4-1,0.4-1.4,0c-0.4-0.4-0.4-1,0-1.4l8.7-8.7
			l8.7,8.7c0.4,0.4,0.4,1,0,1.4C432.5,102.9,432.3,103,432,103z"/>
	</g>
	<g>
		<path class="st1" d="M526-194h-11c-0.6,0-1-0.4-1-1c0-0.6,0.4-1,1-1h9v-9c0-0.6,0.4-1,1-1c0.6,0,1,0.4,1,1V-194z"/>
		<path class="st1" d="M504-163c-12.7,0-23-10.3-23-23s10.3-23,23-23c8.2,0,15.8,4.4,19.9,11.5l1,2.1c0.2,0.5-1.6,1.4-1.8,0.9
			l-0.9-2C518.5-203,511.5-207,504-207c-11.6,0-21,9.4-21,21s9.4,21,21,21s21-9.4,21-21c0-0.6,0.4-1,1-1c0.6,0,1,0.4,1,1
			C527-173.3,516.7-163,504-163z"/>
	</g>
	<g>
		<g>
			<path class="st1" d="M527,105c-0.6,0-1-0.4-1-1v-9h-9c-0.6,0-1-0.4-1-1c0-0.6,0.4-1,1-1h11v11C528,104.6,527.6,105,527,105z"/>
			<path class="st1" d="M513,109c-0.3,0-0.5-0.1-0.7-0.3c-0.4-0.4-0.4-1,0-1.4l13-13c0.4-0.4,1-0.4,1.4,0c0.4,0.4,0.4,1,0,1.4
				l-13,13C513.5,108.9,513.3,109,513,109z"/>
		</g>
		<g>
			<path class="st1" d="M481,105c-0.6,0-1-0.4-1-1V93h11c0.6,0,1,0.4,1,1c0,0.6-0.4,1-1,1h-9v9C482,104.6,481.6,105,481,105z"/>
			<path class="st1" d="M495,109c-0.3,0-0.5-0.1-0.7-0.3l-13-13c-0.4-0.4-0.4-1,0-1.4c0.4-0.4,1-0.4,1.4,0l13,13
				c0.4,0.4,0.4,1,0,1.4C495.5,108.9,495.3,109,495,109z"/>
		</g>
		<g>
			<path class="st1" d="M528,135h-11c-0.6,0-1-0.4-1-1c0-0.6,0.4-1,1-1h9v-9c0-0.6,0.4-1,1-1c0.6,0,1,0.4,1,1V135z"/>
			<path class="st1" d="M526,134c-0.3,0-0.5-0.1-0.7-0.3l-13-13c-0.4-0.4-0.4-1,0-1.4c0.4-0.4,1-0.4,1.4,0l13,13
				c0.4,0.4,0.4,1,0,1.4C526.5,133.9,526.3,134,526,134z"/>
		</g>
		<g>
			<path class="st1" d="M491,135h-11v-11c0-0.6,0.4-1,1-1s1,0.4,1,1v9h9c0.6,0,1,0.4,1,1C492,134.6,491.6,135,491,135z"/>
			<path class="st1" d="M482,134c-0.3,0-0.5-0.1-0.7-0.3c-0.4-0.4-0.4-1,0-1.4l13-13c0.4-0.4,1-0.4,1.4,0c0.4,0.4,0.4,1,0,1.4
				l-13,13C482.5,133.9,482.3,134,482,134z"/>
		</g>
	</g>
	<g>
		<path class="st1" d="M504-62c-13.2,0-24-10.8-24-24s10.8-24,24-24s24,10.8,24,24S517.2-62,504-62z M504-108c-12.1,0-22,9.9-22,22
			s9.9,22,22,22s22-9.9,22-22S516.1-108,504-108z"/>
		<path class="st1" d="M501-77c-0.3,0-0.5-0.1-0.7-0.3l-8-8l1.4-1.4l7.3,7.3l16.3-16.3l1.4,1.4l-17,17C501.5-77.1,501.3-77,501-77z"
			/>
	</g>
	<g>
		<g>
			<path class="st1" d="M504,38c-13.2,0-24-10.8-24-24s10.8-24,24-24s24,10.8,24,24S517.2,38,504,38z M504-8c-12.1,0-22,9.9-22,22
				s9.9,22,22,22s22-9.9,22-22S516.1-8,504-8z"/>
		</g>
		<g>
			<path class="st1" d="M494,25c-0.3,0-0.5-0.1-0.7-0.3c-0.4-0.4-0.4-1,0-1.4l20-20c0.4-0.4,1-0.4,1.4,0c0.4,0.4,0.4,1,0,1.4l-20,20
				C494.5,24.9,494.3,25,494,25z"/>
			<path class="st1" d="M514,25c-0.3,0-0.5-0.1-0.7-0.3l-20-20c-0.4-0.4-0.4-1,0-1.4c0.4-0.4,1-0.4,1.4,0l20,20c0.4,0.4,0.4,1,0,1.4
				C514.5,24.9,514.3,25,514,25z"/>
		</g>
	</g>
	<g>
		<path class="st1" d="M437-83c-0.3,0-0.5-0.1-0.7-0.3c-0.4-0.4-0.4-1,0-1.4l8.3-8.3l-8.3-8.3c-0.4-0.4-0.4-1,0-1.4
			c0.4-0.4,1-0.4,1.4,0l9.7,9.7l-9.7,9.7C437.5-83.1,437.3-83,437-83z"/>
		<path class="st1" d="M402-69c-0.6,0-1-0.4-1-1c0-13.5,11-24,25-24h18c0.6,0,1,0.4,1,1s-0.4,1-1,1h-18c-12.9,0-23,9.7-23,22
			C403-69.4,402.6-69,402-69z"/>
	</g>
	<g>
		<g>
			<path class="st1" d="M251-87c-0.3,0-0.5-0.1-0.7-0.3l-9.7-9.7l9.7-9.7c0.4-0.4,1-0.4,1.4,0c0.4,0.4,0.4,1,0,1.4l-8.3,8.3l8.3,8.3
				c0.4,0.4,0.4,1,0,1.4C251.5-87.1,251.3-87,251-87z"/>
			<path class="st1" d="M276-96h-33c-0.6,0-1-0.4-1-1s0.4-1,1-1h33c0.6,0,1,0.4,1,1S276.6-96,276-96z"/>
		</g>
		<g>
			<path class="st1" d="M277-65c-0.3,0-0.5-0.1-0.7-0.3c-0.4-0.4-0.4-1,0-1.4l8.3-8.3l-8.3-8.3c-0.4-0.4-0.4-1,0-1.4
				c0.4-0.4,1-0.4,1.4,0l9.7,9.7l-9.7,9.7C277.5-65.1,277.3-65,277-65z"/>
			<path class="st1" d="M285-74h-33c-0.6,0-1-0.4-1-1c0-0.6,0.4-1,1-1h33c0.6,0,1,0.4,1,1C286-74.4,285.6-74,285-74z"/>
		</g>
	</g>
	<g>
		<path class="st1" d="M355-182c-0.3,0-0.5-0.1-0.7-0.3c-0.4-0.4-0.4-1,0-1.4l8.3-8.3l-8.3-8.3c-0.4-0.4-0.4-1,0-1.4
			c0.4-0.4,1-0.4,1.4,0l9.7,9.7l-9.7,9.7C355.5-182.1,355.3-182,355-182z"/>
		<path class="st1" d="M363-191h-39c-0.6,0-1-0.4-1-1s0.4-1,1-1h39c0.6,0,1,0.4,1,1S363.6-191,363-191z"/>
		<path class="st1" d="M348-203h-24c-0.6,0-1-0.4-1-1s0.4-1,1-1h24c0.6,0,1,0.4,1,1S348.6-203,348-203z"/>
		<path class="st1" d="M348-179h-24c-0.6,0-1-0.4-1-1s0.4-1,1-1h24c0.6,0,1,0.4,1,1S348.6-179,348-179z"/>
		<path class="st1" d="M348-167h-24c-0.6,0-1-0.4-1-1s0.4-1,1-1h24c0.6,0,1,0.4,1,1S348.6-167,348-167z"/>
	</g>
	<g>
		<g>
			<path class="st1" d="M410-164c-0.3,0-0.5-0.1-0.7-0.3c-0.4-0.4-0.4-1,0-1.4l5.3-5.3l-5.3-5.3c-0.4-0.4-0.4-1,0-1.4
				c0.4-0.4,1-0.4,1.4,0l6.7,6.7l-6.7,6.7C410.5-164.1,410.3-164,410-164z"/>
		</g>
		<g>
			<path class="st1" d="M438-194c-0.3,0-0.5-0.1-0.7-0.3l-6.7-6.7l6.7-6.7c0.4-0.4,1-0.4,1.4,0c0.4,0.4,0.4,1,0,1.4l-5.3,5.3
				l5.3,5.3c0.4,0.4,0.4,1,0,1.4C438.5-194.1,438.3-194,438-194z"/>
		</g>
		<path class="st1" d="M415-170h-3c-8.8,0-16-7.2-16-16c0-8.8,7.2-16,16-16h14c0.6,0,1,0.4,1,1s-0.4,1-1,1h-14c-7.7,0-14,6.3-14,14
			c0,7.7,6.3,14,14,14h3c0.6,0,1,0.4,1,1S415.6-170,415-170z"/>
		<path class="st1" d="M436-170h-14c-0.6,0-1-0.4-1-1s0.4-1,1-1h14c7.7,0,14-6.3,14-14c0-7.7-6.3-14-14-14h-2c-0.6,0-1-0.4-1-1
			s0.4-1,1-1h2c8.8,0,16,7.2,16,16C452-177.2,444.8-170,436-170z"/>
	</g>
	<g>
		<g>
			<path class="st1" d="M340.8-83.5C337.8-77,334.4-72,328-72h-7c-0.6,0-1,0.4-1,1s0.4,1,1,1h7c7.2,0,11.2-5.5,13.9-11.1
				C341.5-81.9,341.1-82.7,340.8-83.5z"/>
			<path class="st1" d="M366-102h-8c-7.2,0-11.2,5.7-13.9,11.1c0.4,0.8,0.7,1.6,1.1,2.4c2.9-6.3,6.4-11.5,12.8-11.5h8
				c0.6,0,1-0.4,1-1S366.6-102,366-102z"/>
		</g>
		<g>
			<path class="st1" d="M361-94c-0.3,0-0.5-0.1-0.7-0.3c-0.4-0.4-0.4-1,0-1.4l5.3-5.3l-5.3-5.3c-0.4-0.4-0.4-1,0-1.4
				c0.4-0.4,1-0.4,1.4,0l6.7,6.7l-6.7,6.7C361.5-94.1,361.3-94,361-94z"/>
		</g>
		<g>
			<path class="st1" d="M361-64c-0.3,0-0.5-0.1-0.7-0.3c-0.4-0.4-0.4-1,0-1.4l5.3-5.3l-5.3-5.3c-0.4-0.4-0.4-1,0-1.4
				c0.4-0.4,1-0.4,1.4,0l6.7,6.7l-6.7,6.7C361.5-64.1,361.3-64,361-64z"/>
		</g>
		<path class="st1" d="M366-70h-8c-9.2,0-13.3-9.4-15.9-15.6c-3.4-7.9-6.8-14.4-14.1-14.4h-7c-0.6,0-1-0.4-1-1s0.4-1,1-1h7
			c9.2,0,13.1,9,15.9,15.6c3.3,7.6,6.8,14.4,14.1,14.4h8c0.6,0,1,0.4,1,1S366.6-70,366-70z"/>
	</g>
	<g>
		<path class="st1" d="M443,15h-6.7c-7.7,0-11.1-4.4-13.4-7.4l-0.5-0.7C419.8,3.7,417,0,411,0h-2c-0.6,0-0.6-2,0-2h2
			c7,0,10.3,4.3,12.9,7.7l0.5,0.7c2.8,3.6,5.6,6.6,11.8,6.6h6.7c0.6,0,1,0.4,1,1S443.6,15,443,15z"/>
		<path class="st1" d="M411,30h-2c-0.6,0-0.6-2,0-2h2c6,0,8.8-3.7,11.3-6.9l0.5-0.7c2.3-2.9,5.7-7.4,13.4-7.4h9.7c0.6,0,1,0.4,1,1
			s-0.4,1-1,1h-9.7c-6.2,0-9,3-11.8,6.6l-0.5,0.7C421.3,25.7,418,30,411,30z"/>
		<path class="st1" d="M438,24c-0.3,0-0.5-0.1-0.7-0.3c-0.4-0.4-0.4-1,0-1.4l8.3-8.3l-8.3-8.3c-0.4-0.4-0.4-1,0-1.4
			c0.4-0.4,1-0.4,1.4,0l9.7,9.7l-9.7,9.7C438.5,23.9,438.3,24,438,24z"/>
		<path class="st1" d="M405,4c-2.8,0-5-2.2-5-5s2.2-5,5-5s5,2.2,5,5S407.8,4,405,4z M405-4c-1.7,0-3,1.3-3,3s1.3,3,3,3s3-1.3,3-3
			S406.7-4,405-4z"/>
		<path class="st1" d="M405,34c-2.8,0-5-2.2-5-5s2.2-5,5-5s5,2.2,5,5S407.8,34,405,34z M405,26c-1.7,0-3,1.3-3,3c0,1.7,1.3,3,3,3
			s3-1.3,3-3C408,27.3,406.7,26,405,26z"/>
	</g>
	<g>
		<g>
			<path class="st1" d="M361,7c-0.3,0-0.5-0.1-0.7-0.3c-0.4-0.4-0.4-1,0-1.4l5.3-5.3l-5.3-5.3c-0.4-0.4-0.4-1,0-1.4
				c0.4-0.4,1-0.4,1.4,0l6.7,6.7l-6.7,6.7C361.5,6.9,361.3,7,361,7z"/>
		</g>
		<g>
			<path class="st1" d="M361,35c-0.3,0-0.5-0.1-0.7-0.3c-0.4-0.4-0.4-1,0-1.4l5.3-5.3l-5.3-5.3c-0.4-0.4-0.4-1,0-1.4
				c0.4-0.4,1-0.4,1.4,0l6.7,6.7l-6.7,6.7C361.5,34.9,361.3,35,361,35z"/>
		</g>
		<path class="st1" d="M331,15h-2v-2h2c7.2,0,9.8-2.9,12.6-5.9l0.7-0.7C347.4,2.9,352.1-1,361-1h5v2h-5c-8.1,0-12.4,3.6-15.3,6.7
			l-0.7,0.7C342.3,11.5,339.1,15,331,15z"/>
		<path class="st1" d="M366,29h-5c-8.9,0-13.6-3.9-16.7-7.3l-0.7-0.7c-2.8-3.1-5.4-5.9-12.6-5.9h-2v-2h2c8.1,0,11.3,3.5,14.1,6.6
			l0.7,0.7c2.9,3.1,7.2,6.7,15.3,6.7h5V29z"/>
		<path class="st1" d="M325,19c-2.8,0-5-2.2-5-5s2.2-5,5-5s5,2.2,5,5S327.8,19,325,19z M325,11c-1.7,0-3,1.3-3,3s1.3,3,3,3
			s3-1.3,3-3S326.7,11,325,11z"/>
	</g>
	<g>
		<g>
			<path class="st1" d="M205-171h-9c-3.6,0-6.9-1.4-9.3-3.6c-0.4,0.5-0.8,1.1-1.3,1.6c2.8,2.5,6.5,4,10.6,4h9c0.6,0,1-0.4,1-1
				S205.6-171,205-171z"/>
			<path class="st1" d="M182.9-180.1c-0.6-1.5-0.9-3.2-0.9-4.9c0-0.6-0.4-1-1-1s-1,0.4-1,1c0,2.5,0.6,4.9,1.7,7.1
				C182.2-178.6,182.6-179.3,182.9-180.1z"/>
		</g>
		<g>
			<path class="st1" d="M182.6-197c-2.8-2.5-6.5-4-10.6-4h-11c-0.6,0-1,0.4-1,1s0.4,1,1,1h11c3.6,0,6.9,1.4,9.3,3.6
				C181.7-195.9,182.1-196.5,182.6-197z"/>
			<path class="st1" d="M185.1-189.9c0.6,1.5,0.9,3.2,0.9,4.9c0,0.6,0.4,1,1,1s1-0.4,1-1c0-2.5-0.6-4.9-1.7-7.1
				C185.8-191.4,185.4-190.7,185.1-189.9z"/>
		</g>
		<path class="st1" d="M172-169h-9c-0.6,0-1-0.4-1-1s0.4-1,1-1h9c7.7,0,14-6.3,14-14c0-0.6,0.4-1,1-1s1,0.4,1,1
			C188-176.2,180.8-169,172-169z"/>
		<path class="st1" d="M181-184c-0.6,0-1-0.4-1-1c0-8.8,7.2-16,16-16h11c0.6,0,1,0.4,1,1s-0.4,1-1,1h-11c-7.7,0-14,6.3-14,14
			C182-184.4,181.6-184,181-184z"/>
		<g>
			<path class="st1" d="M203-193c-0.3,0-0.5-0.1-0.7-0.3c-0.4-0.4-0.4-1,0-1.4l5.3-5.3l-5.3-5.3c-0.4-0.4-0.4-1,0-1.4
				c0.4-0.4,1-0.4,1.4,0l6.7,6.7l-6.7,6.7C203.5-193.1,203.3-193,203-193z"/>
		</g>
		<g>
			<path class="st1" d="M165-193c-0.3,0-0.5-0.1-0.7-0.3l-6.7-6.7l6.7-6.7c0.4-0.4,1-0.4,1.4,0c0.4,0.4,0.4,1,0,1.4l-5.3,5.3
				l5.3,5.3c0.4,0.4,0.4,1,0,1.4C165.5-193.1,165.3-193,165-193z"/>
		</g>
	</g>
	<g>
		<path class="st1" d="M287.5-199.5c-0.5-0.3-1.1-0.2-1.4,0.3c-0.3,0.5-0.2,1.1,0.3,1.4c4.1,2.6,6.5,7,6.5,11.8c0,7.7-6.3,14-14,14
			c-5.6,0-9.9-5.8-12.8-11.6c-0.4,0.8-0.7,1.5-1.1,2.3c3.1,5.9,7.7,11.3,13.9,11.3c8.8,0,16-7.2,16-16
			C295-191.5,292.2-196.6,287.5-199.5z"/>
		<path class="st1" d="M279-200c0.5,0,1,0,1.5,0.1l-3.9,3.9l-0.3,0.3c-0.4,0.4-0.4,1,0,1.4c0.2,0.2,0.5,0.3,0.7,0.3s0.5-0.1,0.7-0.3
			l0.3-0.3l6.4-6.4l-6.4-6.4l-0.3-0.3c-0.4-0.4-1-0.4-1.4,0c-0.4,0.4-0.4,1,0,1.4l4.4,4.4c-0.6-0.1-1.1-0.1-1.7-0.1
			c-7.6,0-12.9,8.5-15.9,15.6c-2.8,6.6-7.5,14.4-14.1,14.4c-7.7,0-14-6.3-14-14c0-7.7,6.3-14,14-14c5.6,0,9.9,5.8,12.8,11.6
			c0.4-0.8,0.7-1.5,1.1-2.3c-3.1-5.9-7.7-11.4-13.9-11.4c-8.8,0-16,7.2-16,16c0,8.8,7.2,16,16,16c7.6,0,12.9-8.5,15.9-15.6
			C267.7-192.2,272.5-200,279-200z"/>
	</g>
	<g>
		<g>
			<g>
				<path class="st1" d="M199,34h-12c-0.4,0-0.7-0.2-0.9-0.6c-0.2-0.3-0.1-0.7,0.1-1L197,18h-10c-0.6,0-1-0.4-1-1c0-0.6,0.4-1,1-1
					h12c0.4,0,0.7,0.2,0.9,0.6c0.2,0.3,0.1,0.7-0.1,1L189,32h10c0.6,0,1,0.4,1,1C200,33.6,199.6,34,199,34z"/>
			</g>
			<path class="st1" d="M187,12c-0.1,0-0.2,0-0.4-0.1c-0.5-0.2-0.8-0.8-0.6-1.3l6-16c0.1-0.4,0.5-0.6,0.9-0.6c0.4,0,0.8,0.3,0.9,0.6
				l6,16c0.2,0.5-0.1,1.1-0.6,1.3c-0.5,0.2-1.1-0.1-1.3-0.6L193-2.2l-5.1,13.5C187.8,11.7,187.4,12,187,12z"/>
			<rect x="189" y="6" class="st1" width="8" height="2"/>
			<path class="st1" d="M179,0c-0.3,0-0.5-0.1-0.7-0.3L171-7.6l-7.3,7.3c-0.4,0.4-1,0.4-1.4,0c-0.4-0.4-0.4-1,0-1.4l8.7-8.7l8.7,8.7
				c0.4,0.4,0.4,1,0,1.4C179.5-0.1,179.3,0,179,0z"/>
			<path class="st1" d="M171,38.4l-8.7-8.7c-0.4-0.4-0.4-1,0-1.4c0.4-0.4,1-0.4,1.4,0l7.3,7.3l7.3-7.3c0.4-0.4,1-0.4,1.4,0
				c0.4,0.4,0.4,1,0,1.4L171,38.4z"/>
			<path class="st1" d="M171,12c-0.6,0-1-0.4-1-1V-8c0-0.6,0.4-1,1-1s1,0.4,1,1v19C172,11.6,171.6,12,171,12z"/>
			<path class="st1" d="M171,37c-0.6,0-1-0.4-1-1V17c0-0.6,0.4-1,1-1s1,0.4,1,1v19C172,36.6,171.6,37,171,37z"/>
		</g>
	</g>
	<path class="st1" d="M164-86c-0.6,0-1-0.4-1-1v-11c0-5,4-9,9-9h9c0.6,0,1,0.4,1,1s-0.4,1-1,1h-9c-3.9,0-7,3.1-7,7v11
		C165-86.4,164.6-86,164-86z"/>
	<path class="st1" d="M185-105L185-105c-0.5,0-1-0.5-1-1l0,0c0-0.5,0.5-1,1-1l0,0c0.5,0,1,0.5,1,1S185.6-105,185-105z"/>
	<g>
		<path class="st1" d="M205-97L205-97c0,0.5-0.5,1-1,1l0,0c-0.5,0-1-0.5-1-1l0,0c0-0.5,0.5-1,1-1S205-97.6,205-97z"/>
		<path class="st1" d="M204.3-100.9L204.3-100.9c0,0.4-0.2,0.7-0.6,0.9l0,0c-0.5,0.2-1.1,0-1.3-0.5l0,0c-0.2-0.5,0-1.1,0.5-1.3l0,0
			c0.5-0.2,1.1,0,1.3,0.5C204.2-101.2,204.3-101,204.3-100.9z"/>
		<path class="st1" d="M201.8-104L201.8-104c0,0.2-0.1,0.4-0.2,0.6l0,0c-0.3,0.5-1,0.5-1.4,0.2l0,0c-0.4-0.3-0.5-1-0.2-1.4l0,0
			c0.3-0.4,1-0.5,1.4-0.2l0,0c0,0,0,0,0,0C201.6-104.6,201.8-104.3,201.8-104z"/>
		<path class="st1" d="M198.1-105.5L198.1-105.5c0,0,0,0.1,0,0.1l0,0c-0.1,0.5-0.6,0.9-1.1,0.8l0,0c-0.5-0.1-0.9-0.6-0.8-1.1l0,0
			c0.1-0.5,0.6-0.9,1.1-0.8l0,0l0,0C197.8-106.4,198.1-106,198.1-105.5z"/>
	</g>
	<path class="st1" d="M189-105L189-105c-0.5,0-1-0.5-1-1l0,0c0-0.5,0.5-1,1-1l0,0c0.5,0,1,0.5,1,1S189.6-105,189-105z"/>
	<path class="st1" d="M193-105L193-105c-0.5,0-1-0.5-1-1l0,0c0-0.5,0.5-1,1-1l0,0c0.5,0,1,0.5,1,1S193.6-105,193-105z"/>
	<g>
		<path class="st1" d="M210-80c-0.3,0-0.5-0.1-0.7-0.3l-5.3-5.3l-5.3,5.3c-0.4,0.4-1,0.4-1.4,0c-0.4-0.4-0.4-1,0-1.4l6.7-6.7
			l6.7,6.7c0.4,0.4,0.4,1,0,1.4C210.5-80.1,210.3-80,210-80z"/>
	</g>
	<path class="st1" d="M196-65h-9c-0.6,0-1-0.4-1-1s0.4-1,1-1h9c3.9,0,7-3.1,7-7v-11c0-0.6,0.4-1,1-1s1,0.4,1,1v11
		C205-69,201-65,196-65z"/>
	<g>
		<path class="st1" d="M164-83.6l-6.7-6.7c-0.4-0.4-0.4-1,0-1.4c0.4-0.4,1-0.4,1.4,0l5.3,5.3l5.3-5.3c0.4-0.4,1-0.4,1.4,0
			c0.4,0.4,0.4,1,0,1.4L164-83.6z"/>
	</g>
	<g>
		<path class="st1" d="M163-75L163-75c0-0.5,0.5-1,1-1l0,0c0.5,0,1,0.5,1,1l0,0c0,0.5-0.5,1-1,1S163-74.5,163-75z"/>
		<path class="st1" d="M163.7-71.1L163.7-71.1c0-0.4,0.2-0.7,0.6-0.9l0,0c0.5-0.2,1.1,0,1.3,0.5l0,0c0.2,0.5,0,1.1-0.5,1.3l0,0
			c-0.5,0.2-1.1,0-1.3-0.5C163.8-70.8,163.7-71,163.7-71.1z"/>
		<path class="st1" d="M166.2-68L166.2-68c0-0.2,0.1-0.4,0.2-0.6l0,0c0.3-0.5,1-0.5,1.4-0.2l0,0c0.4,0.3,0.5,1,0.2,1.4l0,0
			c-0.3,0.4-1,0.5-1.4,0.2l0,0c0,0,0,0,0,0C166.4-67.4,166.2-67.7,166.2-68z"/>
		<path class="st1" d="M169.9-66.5L169.9-66.5c0,0,0-0.1,0-0.1l0,0c0.1-0.5,0.6-0.9,1.1-0.8l0,0c0.5,0.1,0.9,0.6,0.8,1.1l0,0
			c-0.1,0.5-0.6,0.9-1.1,0.8l0,0l0,0C170.2-65.6,169.9-66,169.9-66.5z"/>
	</g>
	<path class="st1" d="M183-67L183-67c0.5,0,1,0.5,1,1l0,0c0,0.5-0.5,1-1,1l0,0c-0.5,0-1-0.5-1-1S182.5-67,183-67z"/>
	<path class="st1" d="M179-67L179-67c0.5,0,1,0.5,1,1l0,0c0,0.5-0.5,1-1,1l0,0c-0.5,0-1-0.5-1-1S178.5-67,179-67z"/>
	<path class="st1" d="M175-67L175-67c0.5,0,1,0.5,1,1l0,0c0,0.5-0.5,1-1,1l0,0c-0.5,0-1-0.5-1-1S174.5-67,175-67z"/>
</g>
</svg>
