<?xml version="1.0" encoding="utf-8"?>
<!-- Generator: Adobe Illustrator 15.1.0, SVG Export Plug-In . SVG Version: 6.00 Build 0)  -->
<!DOCTYPE svg PUBLIC "-//W3C//DTD SVG 1.1//EN" "http://www.w3.org/Graphics/SVG/1.1/DTD/svg11.dtd">
<svg version="1.1" id="Layer_1" xmlns="http://www.w3.org/2000/svg" xmlns:xlink="http://www.w3.org/1999/xlink" x="0px" y="0px"
	 width="52.13px" height="50px" viewBox="13.999 0 52.13 50" enable-background="new 13.999 0 52.13 50" xml:space="preserve">
<g>
	<g>
		<g>
			<path d="M25.906,50c-0.638,0-1.276-0.255-1.914-0.638c-1.021-0.765-1.53-1.913-1.275-3.188l2.296-13.011
				c0.127-0.638-0.127-1.275-0.51-1.658l-9.566-9.311c-0.893-0.893-1.148-2.168-0.765-3.316s1.403-2.041,2.551-2.168l13.138-1.913
				c0.638-0.127,1.148-0.51,1.403-1.021L37.13,1.913C37.64,0.638,38.788,0,40.064,0s2.295,0.638,2.934,1.786l5.229,10.587
				c0.128,0.255,0,0.638-0.255,0.893c-0.255,0.128-0.638,0-0.893-0.255L41.85,2.423c-0.383-0.765-1.021-1.148-1.786-1.148
				c-0.766,0-1.403,0.383-1.786,1.021l-5.867,11.862c-0.51,0.893-1.403,1.658-2.423,1.786L16.85,17.985
				c-0.766,0.127-1.275,0.638-1.531,1.275c-0.255,0.765,0,1.403,0.51,2.041l9.566,9.311c0.765,0.765,1.148,1.786,0.893,2.806
				l-2.296,13.011c-0.127,0.765,0.128,1.403,0.766,1.913c0.638,0.383,1.403,0.51,2.041,0.127l11.735-6.121
				c0.893-0.511,2.041-0.511,2.934,0l11.734,6.121c0.639,0.383,1.403,0.256,2.041-0.127s0.893-1.148,0.766-1.913l-2.296-13.138
				c-0.128-1.021,0.128-2.041,0.893-2.807l9.566-9.311c0.511-0.51,0.765-1.275,0.511-2.041c-0.256-0.766-0.766-1.148-1.531-1.276
				l-5.229-0.765c-0.383,0-0.638-0.383-0.511-0.765c0-0.383,0.383-0.638,0.766-0.51l5.23,0.765c1.275,0.127,2.168,1.021,2.551,2.168
				s0.127,2.423-0.766,3.316l-9.566,9.311c-0.51,0.383-0.638,1.021-0.51,1.658l2.168,13.139c0.255,1.275-0.256,2.424-1.275,3.188
				c-1.021,0.765-2.296,0.765-3.316,0.255l-11.734-6.25c-0.511-0.255-1.276-0.255-1.786,0L27.436,49.49
				C26.926,49.873,26.416,50,25.906,50z"/>
		</g>
	</g>
	<g>
		<g>
			<path d="M39.936,31.888c-0.127,0-0.382,0-0.382-0.128l-9.056-9.056c-0.255-0.255-0.255-0.638,0-0.893l3.444-3.444
				c0.255-0.255,0.638-0.255,0.893,0l5.102,5.102L57.793,5.612c0.256-0.255,0.639-0.255,0.893,0l3.444,3.444
				c0.128,0.127,0.255,0.255,0.255,0.383c0,0.127-0.127,0.382-0.127,0.51l-13.01,12.883l0,0l-8.802,8.801
				C40.319,31.76,40.064,31.888,39.936,31.888z M31.773,22.194l8.163,8.164L60.854,9.439l-2.551-2.551L40.446,24.745
				c-0.255,0.255-0.638,0.255-0.893,0l-5.102-5.102L31.773,22.194z M48.737,22.321L48.737,22.321L48.737,22.321z"/>
		</g>
	</g>
</g>
</svg>
