<?xml version="1.0" encoding="utf-8"?>
<!-- Generator: Adobe Illustrator 15.1.0, SVG Export Plug-In . SVG Version: 6.00 Build 0)  -->
<!DOCTYPE svg PUBLIC "-//W3C//DTD SVG 1.1//EN" "http://www.w3.org/Graphics/SVG/1.1/DTD/svg11.dtd">
<svg version="1.1" id="Icons" xmlns="http://www.w3.org/2000/svg" xmlns:xlink="http://www.w3.org/1999/xlink" x="0px" y="0px"
	 width="100px" height="100px" viewBox="0 0 100 100" enable-background="new 0 0 100 100" xml:space="preserve">
<g>
	<g>
		<path d="M82.692,26h-9.615c-3.796,0-6.77-2.973-6.77-6.769V9.615c0-0.552,0.447-1,1-1s1,0.448,1,1v9.616
			c0,2.719,2.051,4.769,4.77,4.769h9.615c0.553,0,1,0.448,1,1S83.245,26,82.692,26z"/>
	</g>
	<g>
		<path d="M82.692,99.077H25c-4.793,0-8.692-3.899-8.692-8.692V78.846c0-0.553,0.448-1,1-1s1,0.447,1,1v11.539
			c0,3.69,3.002,6.692,6.692,6.692h57.692c3.69,0,6.692-3.002,6.692-6.692V24.423c0-1.877-0.698-3.522-1.966-4.632L72.563,4.938
			c-1.155-1.317-2.801-2.015-4.678-2.015H25c-3.69,0-6.692,3.002-6.692,6.692v34.616c0,0.552-0.448,1-1,1s-1-0.448-1-1V9.615
			c0-4.793,3.899-8.692,8.692-8.692h42.885c2.462,0,4.642,0.941,6.138,2.649l14.762,14.759c1.66,1.45,2.601,3.629,2.601,6.091
			v65.962C91.385,95.178,87.485,99.077,82.692,99.077z"/>
	</g>
	<g>
		<path d="M28.846,79.846c-0.256,0-0.512-0.098-0.707-0.293L8.908,60.322c-0.188-0.188-0.293-0.441-0.293-0.707
			s0.105-0.52,0.293-0.707l7.692-7.692c0.391-0.391,1.023-0.391,1.414,0l10.832,10.831l26.216-26.215
			c0.188-0.188,0.441-0.293,0.707-0.293l0,0c0.266,0,0.52,0.105,0.707,0.293l7.691,7.692c0.391,0.391,0.391,1.023,0,1.414
			L29.553,79.553C29.358,79.748,29.102,79.846,28.846,79.846z M11.029,59.615l17.817,17.816l33.201-33.201l-6.277-6.278
			L29.553,64.168c-0.391,0.391-1.023,0.391-1.414,0L17.308,53.337L11.029,59.615z"/>
	</g>
</g>
</svg>
