<?xml version="1.0" encoding="utf-8"?>
<!-- Generator: Adobe Illustrator 16.0.0, SVG Export Plug-In . SVG Version: 6.00 Build 0)  -->
<!DOCTYPE svg PUBLIC "-//W3C//DTD SVG 1.1//EN" "http://www.w3.org/Graphics/SVG/1.1/DTD/svg11.dtd">
<svg version="1.1" id="圖層_1" xmlns="http://www.w3.org/2000/svg" xmlns:xlink="http://www.w3.org/1999/xlink" x="0px" y="0px"
	 width="151.992px" height="36.096px" viewBox="0 0 151.992 36.096" enable-background="new 0 0 151.992 36.096"
	 xml:space="preserve">
<g>
	<g>
		<g>
			<g>
				<g>
					<g>
						<path fill="#005098" d="M0,8.76V0.993h33.033V8.76H22.381v26.192H10.652V8.76H0z"/>
						<path fill="#005098" d="M68.695,34.952H39.932V0.993h28.764V8.76H51.717v5.25h14.096v7.767H51.717v5.358h16.979V34.952z"/>
						<path fill="#005098" d="M88.361,24.662c1.6,1.802,3.908,2.875,6.688,2.875c1.856,0,3.554-0.098,5.042-0.305
							c1.803-0.205,3.45-0.614,5.045-0.976l-0.924,8.594c-0.467,0.053-14.771,3.084-23.518-3.348
							c-3.957-2.931-6.428-7.403-6.428-13.577c0-5.974,2.471-10.493,6.428-13.386c4.424-3.242,9.055-4.728,23.518-3.347l0.924,8.597
							c-1.595-0.358-3.242-0.718-5.045-0.975c-1.488-0.208-3.186-0.309-5.042-0.309c-2.78,0-5.089,1.078-6.688,2.932
							c-1.539,1.697-2.363,4.067-2.363,6.532C85.998,20.542,86.822,22.911,88.361,24.662z"/>
					</g>
				</g>
				
					<radialGradient id="SVGID_1_" cx="-1514.8999" cy="2845.8779" r="110.1663" gradientTransform="matrix(0.2143 0 0 0.2143 459.7067 -592.127)" gradientUnits="userSpaceOnUse">
					<stop  offset="0.5475" style="stop-color:#EA5703"/>
					<stop  offset="0.5711" style="stop-color:#DC5A21"/>
					<stop  offset="0.6626" style="stop-color:#9E5B57"/>
					<stop  offset="0.7437" style="stop-color:#635877"/>
					<stop  offset="0.8114" style="stop-color:#27548B"/>
					<stop  offset="0.8632" style="stop-color:#005195"/>
					<stop  offset="0.8929" style="stop-color:#005098"/>
				</radialGradient>
				<path fill="url(#SVGID_1_)" d="M145.934,4.583C142.085,1.527,136.656,0,130.703,0c-5.744,0-10.959,1.317-14.801,4.215
					c-4.01,3-6.486,7.643-6.486,13.803c0,5.958,2.211,10.438,5.952,13.438c3.905,3.111,9.333,4.638,15.335,4.638
					c5.896,0,11.275-1.426,15.122-4.481c3.794-3.006,6.167-7.534,6.167-13.596C151.992,12.063,149.674,7.59,145.934,4.583z
					 M136.494,23.723c-1.5,1.317-3.521,2.058-5.766,2.058c-2.289,0-4.402-0.789-5.85-2.146c-1.496-1.413-2.377-3.303-2.377-5.583
					c0-2.335,0.881-4.229,2.377-5.59c1.496-1.407,3.561-2.157,5.85-2.157c2.285,0,4.352,0.75,5.852,2.157
					c1.453,1.361,2.33,3.298,2.33,5.59C138.91,20.375,137.984,22.357,136.494,23.723z"/>
				<g>
					<path fill="#005098" d="M110.402,24.347c0.133-11.259,8.1-16.2,14.797-16.2c2.757,0,5.439,0.904,7.645,2.401
						c1.352,0.295,2.557,0.889,3.543,1.746c-2.094-5.058-7.08-8.573-12.691-8.573c-8.837,0-14.279,7.734-14.279,14.296
						c0,0.004,0,0.011,0,0.011C109.416,20.365,109.76,22.47,110.402,24.347z"/>
					<path fill="#005098" d="M122.932,35.13c-2.689-2.437-4.43-5.919-4.551-9.836c-0.15-4.54,1.914-8.638,5.211-11.273
						c0.352-0.574,0.785-1.1,1.287-1.559c1.398-1.313,3.299-2.049,5.401-2.135c-5.636-1.1-11.591,1.416-14.62,6.674
						c-2.91,5.021-2.297,11.109,1.061,15.424C118.553,33.624,120.645,34.524,122.932,35.13z"/>
					<path fill="#005098" d="M131.732,32.291c-3.521-1.879-5.889-5.072-6.844-8.645c-0.006-0.008-0.006-0.012-0.01-0.012
						c-1.496-1.413-2.377-3.303-2.377-5.583c0-0.01,0-0.015,0-0.022c-1.701,3.894-1.601,8.507,0.682,12.472
						c1.447,2.504,3.557,4.384,5.988,5.554c0.505,0.023,1.012,0.039,1.531,0.039c5.607,0,10.729-1.287,14.526-4.03
						C141.216,34.394,136.125,34.647,131.732,32.291z"/>
					<path fill="#005098" d="M150.999,11.758c0.237,4.874-2.091,9.725-6.526,12.474c-3.661,2.269-7.973,2.627-11.759,1.343
						c-0.634,0.133-1.301,0.206-1.985,0.206c-1.09,0-2.139-0.178-3.092-0.508c2.527,3.313,6.516,5.465,11.008,5.465
						c6.041,0,11.171-3.861,13.064-9.247c0.188-1.095,0.283-2.255,0.283-3.473C151.992,15.716,151.641,13.629,150.999,11.758z"/>
					<path fill="#005098" d="M143.855,9.166c0.15,4.596-1.961,8.728-5.33,11.36c-0.398,1.259-1.107,2.349-2.031,3.197
						c-0.26,0.227-0.537,0.427-0.825,0.617c4.386-0.348,8.539-2.769,10.912-6.878c2.03-3.518,2.339-7.559,1.194-11.146
						c-0.566-0.62-1.18-1.2-1.842-1.734c-1.278-1.013-2.73-1.858-4.318-2.534C142.957,4.107,143.773,6.533,143.855,9.166z"/>
					<path fill="#005098" d="M130.502,2.162c4.539,2.434,7.168,7.025,7.301,11.821c0.701,1.153,1.107,2.526,1.107,4.068
						c2.516-4.182,2.756-9.567,0.141-14.097c-0.782-1.353-1.754-2.519-2.865-3.494C134.428,0.161,132.592,0,130.703,0
						c-2.096,0-4.117,0.174-6.031,0.543C126.65,0.645,128.641,1.165,130.502,2.162z"/>
				</g>
			</g>
		</g>
	</g>
</g>
</svg>
