<?xml version="1.0" encoding="utf-8"?>
<!-- Generator: Adobe Illustrator 16.0.0, SVG Export Plug-In . SVG Version: 6.00 Build 0)  -->
<!DOCTYPE svg PUBLIC "-//W3C//DTD SVG 1.1//EN" "http://www.w3.org/Graphics/SVG/1.1/DTD/svg11.dtd">
<svg version="1.1" id="圖層_1" xmlns="http://www.w3.org/2000/svg" xmlns:xlink="http://www.w3.org/1999/xlink" x="0px" y="0px"
	 width="280px" height="55px" viewBox="0 0 280 55" enable-background="new 0 0 280 55" xml:space="preserve">
<g>
	<path fill="#705732" d="M82.227,2.558c-4.411,3.835-8.836,7.683-13.241,11.512c2.539,1.475,3.865,1.633,6.658,0.809
		c0.96-0.285,7.693-2.643,7.6-3.457C83.241,11.415,82.227,2.558,82.227,2.558"/>
	<g>
		<path fill="#705732" d="M90.919,23.443c0,6.245,9.511,11.311,21.246,11.311c11.734,0,21.246-5.065,21.246-11.311
			c0-6.247-9.511-11.312-21.246-11.312C100.43,12.132,90.919,17.196,90.919,23.443"/>
		<path fill="#40220F" d="M128.082,15.433c0,0-4.054,10.643-15.458,10.135c-11.402-0.507-14.696-10.896-14.696-10.896
			S113.386,7.322,128.082,15.433"/>
		<polygon fill="#705732" points="133.267,24.839 125.22,54.739 122.916,54.739 122.916,29.644 		"/>
		<polygon fill="#705732" points="90.952,24.839 97.973,54.739 100.145,54.739 100.145,31.649 		"/>
		<polygon fill="#705732" points="93.175,32.357 96.644,16.244 82.251,2.558 79.88,5.693 		"/>
		<polygon fill="#40220F" points="133.639,22.223 142.235,38.665 137.75,39.787 		"/>
		<path fill="#EEA886" d="M114.244,18.237c-0.093-1.828-0.936-4.485-1.197-4.47c-0.261,0.013-0.816,2.742-0.72,4.571
			c0.096,1.831,0.604,3.293,1.134,3.264C113.989,21.574,114.34,20.068,114.244,18.237"/>
		<path fill="#EEA886" d="M107.967,16.507c1.704-0.682,3.949-2.33,3.853-2.573c-0.099-0.241-2.862,0.108-4.563,0.788
			s-2.922,1.631-2.725,2.121C104.727,17.338,106.266,17.185,107.967,16.507"/>
		<path fill="#EEA886" d="M118.61,14.671c-1.684-0.724-4.435-1.146-4.54-0.903c-0.105,0.239,2.097,1.945,3.783,2.667
			c1.683,0.723,3.216,0.915,3.427,0.428C121.49,16.374,120.293,15.394,118.61,14.671"/>
	</g>
	<path fill="#705732" d="M83.469,4.994c0,0-0.643-5.235-1.71-4.694c-1.068,0.542-1.281,4.694-1.281,4.694"/>
</g>
<g>
	<path fill="#A6834F" d="M13.448,2.558C9.037,6.393,4.611,10.24,0.207,14.069c2.538,1.475,3.864,1.633,6.658,0.809
		c0.96-0.285,7.693-2.643,7.6-3.457C14.462,11.415,13.448,2.558,13.448,2.558"/>
	<g>
		<path fill="#A6834F" d="M22.14,23.443c0,6.245,9.511,11.311,21.246,11.311c11.735,0,21.246-5.065,21.246-11.311
			c0-6.247-9.511-11.312-21.246-11.312C31.651,12.132,22.14,17.196,22.14,23.443"/>
		<path fill="#40220F" d="M59.303,15.433c0,0-4.054,10.643-15.458,10.135c-11.401-0.507-14.696-10.896-14.696-10.896
			S44.607,7.322,59.303,15.433"/>
		<polygon fill="#A6834F" points="64.488,24.839 56.44,54.739 54.136,54.739 54.136,29.644 		"/>
		<polygon fill="#A6834F" points="22.173,24.839 29.194,54.739 31.366,54.739 31.366,31.649 		"/>
		<polygon fill="#A6834F" points="24.396,32.357 27.865,16.244 13.472,2.558 11.099,5.693 		"/>
		<polygon fill="#40220F" points="64.86,22.223 73.456,38.665 68.97,39.787 		"/>
		<path fill="#165474" d="M45.465,18.237c-0.096-1.828-0.936-4.485-1.197-4.47c-0.261,0.013-0.816,2.742-0.72,4.571
			c0.096,1.831,0.603,3.293,1.134,3.264C45.21,21.574,45.561,20.068,45.465,18.237"/>
		<path fill="#165474" d="M39.188,16.507c1.704-0.682,3.948-2.33,3.85-2.573c-0.096-0.241-2.859,0.108-4.561,0.788
			c-1.702,0.68-2.923,1.631-2.725,2.121C35.948,17.338,37.487,17.185,39.188,16.507"/>
		<path fill="#165474" d="M49.831,14.671c-1.684-0.724-4.435-1.146-4.54-0.903c-0.105,0.239,2.098,1.945,3.784,2.667
			c1.683,0.723,3.216,0.915,3.426,0.428C52.711,16.374,51.514,15.394,49.831,14.671"/>
	</g>
	<path fill="#A6834F" d="M14.69,4.994c0,0-0.642-5.235-1.71-4.694c-1.068,0.542-1.281,4.694-1.281,4.694"/>
</g>
<g>
	<path fill="#705732" d="M219.785,2.558c-4.411,3.835-8.836,7.683-13.241,11.512c2.539,1.475,3.865,1.633,6.658,0.809
		c0.96-0.285,7.693-2.643,7.6-3.457C220.799,11.415,219.785,2.558,219.785,2.558"/>
	<g>
		<path fill="#705732" d="M228.477,23.443c0,6.245,9.511,11.311,21.246,11.311c11.734,0,21.246-5.065,21.246-11.311
			c0-6.247-9.511-11.312-21.246-11.312C237.988,12.132,228.477,17.196,228.477,23.443"/>
		<path fill="#40220F" d="M265.64,15.433c0,0-4.054,10.643-15.458,10.135c-11.402-0.507-14.696-10.896-14.696-10.896
			S250.944,7.322,265.64,15.433"/>
		<polygon fill="#705732" points="270.825,24.839 262.778,54.739 260.474,54.739 260.474,29.644 		"/>
		<polygon fill="#705732" points="228.51,24.839 235.531,54.739 237.703,54.739 237.703,31.649 		"/>
		<polygon fill="#705732" points="230.733,32.357 234.202,16.244 219.809,2.558 217.438,5.693 		"/>
		<polygon fill="#40220F" points="271.197,22.223 279.793,38.665 275.308,39.787 		"/>
		<path fill="#EEA886" d="M251.802,18.237c-0.093-1.828-0.936-4.485-1.197-4.47c-0.261,0.013-0.816,2.742-0.72,4.571
			c0.096,1.831,0.604,3.293,1.134,3.264C251.547,21.574,251.898,20.068,251.802,18.237"/>
		<path fill="#EEA886" d="M245.525,16.507c1.704-0.682,3.949-2.33,3.853-2.573c-0.099-0.241-2.862,0.108-4.563,0.788
			s-2.922,1.631-2.725,2.121C242.285,17.338,243.824,17.185,245.525,16.507"/>
		<path fill="#EEA886" d="M256.168,14.671c-1.684-0.724-4.435-1.146-4.54-0.903c-0.105,0.239,2.097,1.945,3.783,2.667
			c1.683,0.723,3.216,0.915,3.427,0.428C259.048,16.374,257.851,15.394,256.168,14.671"/>
	</g>
	<path fill="#705732" d="M221.027,4.994c0,0-0.643-5.235-1.71-4.694c-1.068,0.542-1.281,4.694-1.281,4.694"/>
</g>
<g>
	<path fill="#A6834F" d="M151.006,2.558c-4.411,3.835-8.837,7.683-13.241,11.512c2.538,1.475,3.864,1.633,6.658,0.809
		c0.96-0.285,7.693-2.643,7.6-3.457C152.02,11.415,151.006,2.558,151.006,2.558"/>
	<g>
		<path fill="#A6834F" d="M159.698,23.443c0,6.245,9.511,11.311,21.245,11.311c11.735,0,21.246-5.065,21.246-11.311
			c0-6.247-9.511-11.312-21.246-11.312C169.209,12.132,159.698,17.196,159.698,23.443"/>
		<path fill="#40220F" d="M196.861,15.433c0,0-4.054,10.643-15.459,10.135c-11.401-0.507-14.695-10.896-14.695-10.896
			S182.165,7.322,196.861,15.433"/>
		<polygon fill="#A6834F" points="202.046,24.839 193.998,54.739 191.694,54.739 191.694,29.644 		"/>
		<polygon fill="#A6834F" points="159.73,24.839 166.752,54.739 168.924,54.739 168.924,31.649 		"/>
		<polygon fill="#A6834F" points="161.954,32.357 165.423,16.244 151.029,2.558 148.656,5.693 		"/>
		<polygon fill="#40220F" points="202.418,22.223 211.014,38.665 206.528,39.787 		"/>
		<path fill="#165474" d="M183.023,18.237c-0.097-1.828-0.937-4.485-1.197-4.47c-0.262,0.013-0.816,2.742-0.721,4.571
			c0.097,1.831,0.604,3.293,1.135,3.264C182.768,21.574,183.119,20.068,183.023,18.237"/>
		<path fill="#165474" d="M176.746,16.507c1.704-0.682,3.948-2.33,3.85-2.573c-0.096-0.241-2.859,0.108-4.561,0.788
			s-2.923,1.631-2.725,2.121C173.506,17.338,175.045,17.185,176.746,16.507"/>
		<path fill="#165474" d="M187.389,14.671c-1.684-0.724-4.435-1.146-4.54-0.903c-0.104,0.239,2.098,1.945,3.784,2.667
			c1.683,0.723,3.216,0.915,3.426,0.428C190.269,16.374,189.072,15.394,187.389,14.671"/>
	</g>
	<path fill="#A6834F" d="M152.248,4.994c0,0-0.643-5.235-1.711-4.694c-1.067,0.542-1.28,4.694-1.28,4.694"/>
</g>
</svg>
