<?xml version="1.0" encoding="utf-8"?>
<!-- Generator: Adobe Illustrator 16.0.0, SVG Export Plug-In . SVG Version: 6.00 Build 0)  -->
<!DOCTYPE svg PUBLIC "-//W3C//DTD SVG 1.1//EN" "http://www.w3.org/Graphics/SVG/1.1/DTD/svg11.dtd">
<svg version="1.1" id="分離模式" xmlns="http://www.w3.org/2000/svg" xmlns:xlink="http://www.w3.org/1999/xlink" x="0px"
	 y="0px" width="240px" height="125px" viewBox="0 0 240 125" enable-background="new 0 0 240 125" xml:space="preserve">
<g>
	<path fill="#7E5428" d="M35.647,119.965c0,0-9.702-11.792-27.714-0.703C7.934,119.262,25.252,128.975,35.647,119.965z"/>
	<polygon fill="#7E5428" points="7.934,119.262 0.302,113.715 0.302,124.816 	"/>
</g>
<g>
	<path fill="#7E5428" d="M180.62,75.801c0,0-9.705-11.78-27.734-0.688C152.886,75.113,170.211,84.814,180.62,75.801z"/>
	<polygon fill="#7E5428" points="152.886,75.113 145.258,69.571 145.258,80.645 	"/>
</g>
<g>
	<path fill="#7E5428" d="M55.438,50.393c0,0-9.713-11.788-27.729-0.695C27.71,49.698,45.039,59.406,55.438,50.393z"/>
	<polygon fill="#7E5428" points="27.71,49.698 20.078,44.16 20.078,55.245 	"/>
</g>
<g>
	<path fill="#7E5428" d="M108.449,105.042c0,0-7.129-8.674-20.374-0.515C88.076,104.527,100.812,111.66,108.449,105.042z"/>
	<polygon fill="#7E5428" points="88.076,104.527 82.466,100.443 82.466,108.599 	"/>
</g>
<g>
	<path fill="#7E5428" d="M118.829,62.365c0,0-9.574-11.886-27.719-0.998C91.11,61.367,108.323,71.272,118.829,62.365z"/>
	<polygon fill="#7E5428" points="91.11,61.367 83.55,55.739 83.419,66.828 	"/>
</g>
<g>
	<path fill="#7E5428" d="M239.698,45.161c0,0-9.567-11.887-27.711-1.001C211.987,44.16,229.21,54.059,239.698,45.161z"/>
	<polygon fill="#7E5428" points="211.987,44.16 204.436,38.531 204.304,49.62 	"/>
</g>
<g>
	<path fill="#7E5428" d="M166.337,5.104c0,0-7.658-9.287-21.876-0.561C144.461,4.544,158.132,12.212,166.337,5.104z"/>
	<polygon fill="#7E5428" points="144.461,4.544 138.449,0.184 138.449,8.93 	"/>
</g>
</svg>
