<?xml version="1.0" encoding="utf-8"?>
<!-- Generator: Adobe Illustrator 16.0.0, SVG Export Plug-In . SVG Version: 6.00 Build 0)  -->
<!DOCTYPE svg PUBLIC "-//W3C//DTD SVG 1.1//EN" "http://www.w3.org/Graphics/SVG/1.1/DTD/svg11.dtd">
<svg version="1.1" id="分離模式" xmlns="http://www.w3.org/2000/svg" xmlns:xlink="http://www.w3.org/1999/xlink" x="0px"
	 y="0px" width="210px" height="150px" viewBox="0 0 210 150" enable-background="new 0 0 210 150" xml:space="preserve">
<g>
	<path fill="#D19A5E" d="M178.994,144.791c0,0,8.51-10.345,24.311-0.617C203.305,144.174,188.113,152.693,178.994,144.791z"/>
	<polygon fill="#D19A5E" points="203.305,144.174 210,139.308 210,149.047 	"/>
</g>
<g>
	<path fill="#D19A5E" d="M51.824,106.049c0,0,8.512-10.333,24.328-0.603C76.152,105.446,60.955,113.955,51.824,106.049z"/>
	<polygon fill="#D19A5E" points="76.152,105.446 82.842,100.584 82.842,110.298 	"/>
</g>
<g>
	<path fill="#D19A5E" d="M161.634,83.762c0,0,8.521-10.341,24.323-0.609C185.957,83.152,170.755,91.667,161.634,83.762z"/>
	<polygon fill="#D19A5E" points="185.957,83.152 192.652,78.293 192.652,88.018 	"/>
</g>
<g>
	<path fill="#D19A5E" d="M115.133,131.7c0,0,6.253-7.608,17.872-0.452C133.005,131.248,121.832,137.505,115.133,131.7z"/>
	<polygon fill="#D19A5E" points="133.005,131.248 137.925,127.667 137.925,134.819 	"/>
</g>
<g>
	<path fill="#D19A5E" d="M110.357,61.463c0,0,8.519-10.344,24.325-0.613C134.683,60.85,119.473,69.377,110.357,61.463z"/>
	<polygon fill="#D19A5E" points="134.683,60.85 141.367,55.995 141.367,65.719 	"/>
</g>
<g>
	<path fill="#D19A5E" d="M106.027,94.264c0,0,8.398-10.427,24.314-0.875C130.341,93.389,115.243,102.076,106.027,94.264z"/>
	<polygon fill="#D19A5E" points="130.341,93.389 136.974,88.451 137.089,98.179 	"/>
</g>
<g>
	<path fill="#D19A5E" d="M60.542,5.827c0,0,8.395-10.434,24.31-0.875C84.852,4.952,69.754,13.632,60.542,5.827z"/>
	<polygon fill="#D19A5E" points="84.852,4.952 91.484,0 91.597,9.731 	"/>
</g>
<g>
	<path fill="#D19A5E" d="M0,79.172c0,0,8.392-10.426,24.309-0.879C24.309,78.293,9.2,86.978,0,79.172z"/>
	<polygon fill="#D19A5E" points="24.309,78.293 30.933,73.356 31.047,83.084 	"/>
</g>
<g>
	<path fill="#D19A5E" d="M64.353,44.034c0,0,6.717-8.146,19.19-0.491C83.542,43.543,71.551,50.269,64.353,44.034z"/>
	<polygon fill="#D19A5E" points="83.542,43.543 88.817,39.717 88.817,47.39 	"/>
</g>
</svg>
