<?xml version="1.0" encoding="utf-8"?>
<!-- Generator: Adobe Illustrator 16.0.0, SVG Export Plug-In . SVG Version: 6.00 Build 0)  -->
<!DOCTYPE svg PUBLIC "-//W3C//DTD SVG 1.1//EN" "http://www.w3.org/Graphics/SVG/1.1/DTD/svg11.dtd">
<svg version="1.1" id="圖層_1" xmlns="http://www.w3.org/2000/svg" xmlns:xlink="http://www.w3.org/1999/xlink" x="0px" y="0px"
	 width="88px" height="40.702px" viewBox="0 0 88 40.702" enable-background="new 0 0 88 40.702" xml:space="preserve">
<g>
	<g>
		<path fill="none" d="M56.676,39.44v-3.586c0-0.227-0.031-0.43-0.109-0.602c-0.172-0.406-0.617-0.672-1.117-0.672
			c-0.297,0-0.609,0.07-0.883,0.234c-0.195,0.117-0.344,0.234-0.617,0.469c0-0.297-0.047-0.508-0.156-0.734l-0.828,0.227
			c0.133,0.344,0.18,0.563,0.18,1.125v3.539h0.867v-3.516c0.32-0.344,0.828-0.602,1.172-0.602c0.219,0,0.383,0.063,0.477,0.188
			c0.117,0.148,0.156,0.297,0.156,0.727v3.203H56.676L56.676,39.44z"/>
		<path fill="#243F82" d="M38.365,24.948c1.573-0.016,4.694-0.451,4.995-7.465c0.408-9.555,1.568-15.023,2.127-17.182h4.689
			c0,0-2.191,4.49-2.745,10.64c-0.247,2.718-0.29,3.577-0.526,5.709c-0.553,5.011-0.897,6.741-2.406,8.884
			c-1.676,2.374-4.565,2.852-6.139,2.852c-1.574,0-4.463-0.478-6.139-2.852c-1.509-2.143-1.848-3.873-2.401-8.884
			c-0.236-2.132-0.279-2.991-0.526-5.709c-0.553-6.15-2.745-10.64-2.745-10.64h4.689c0.553,2.159,1.687,7.627,2.127,17.182
			C33.687,24.497,36.792,24.932,38.365,24.948L38.365,24.948z"/>
		<path fill-rule="evenodd" clip-rule="evenodd" fill="#243F82" d="M52.829,17.08c-0.279,6-0.833,8.223-1.542,10.785h-4.469
			c0,0,1.305-3.067,1.66-4.952c0.596-3.158,0.585-3.395,0.833-6.848c0.22-3.104,0.338-6.279,1.112-9.099
			c0.875-3.212,3.207-5.709,5.994-6.666c1.917-0.655,4.555-0.569,6.499,0.338c0.951,0.446,1.836,1.187,2.578,2.315
			c1.09,1.66,1.225,3.706,0.999,4.995c-0.312,1.746-1.176,4.49-5.091,6.418c2.159,1.294,2.809,2.497,3.362,3.545
			c0.935,1.762,0.956,3.276,1.418,5.059c0.929,3.577,2.057,4.555,2.353,4.904h-4.635c-0.521-1.665-0.43-1.45-0.956-3.76
			c-0.322-1.429-0.553-2.841-1.294-4.565c-0.414-0.967-1.262-1.697-2.084-2.207c-0.65-0.403-1.966-0.816-2.943-0.816
			C55.112,16.527,54.059,16.774,52.829,17.08L52.829,17.08z M60.51,10.973c3.174-2.202,2.927-4.78,2.331-5.983
			c-0.666-1.348-1.751-2.105-3.658-2.003c-3.824,0.199-6.263,3.593-6.23,10.548C55.112,13.255,57.916,12.778,60.51,10.973
			L60.51,10.973z"/>
		<path fill-rule="evenodd" clip-rule="evenodd" fill="#243F82" d="M78.18,28.348c-3.008,0.043-5.473-1.198-7.17-3.024
			c-3.335-3.577-3.76-8.604-3.529-12.246c0.199-3.196,1.343-7.025,3.529-9.759c1.396-1.74,3.572-3.147,6.166-3.319
			c2.605-0.011,4.882,1.241,6.397,2.879c2.374,2.573,3.781,6.316,4.206,9.491c0.483,3.62,0.408,8.663-2.664,12.466
			C83.546,26.769,81.183,28.182,78.18,28.348L78.18,28.348z M83.648,20.491c0.983-2.337,1.611-7.81-0.827-12.708
			c-1.858-3.728-4.232-4.528-5.527-4.426c-1.305-0.011-3.593,0.951-5.188,4.802c-2.089,5.054-1.085,10.468,0.059,12.729
			c0.843,1.665,2.89,4.012,5.887,3.99C81.048,24.69,82.923,22.204,83.648,20.491L83.648,20.491z"/>
		<path fill="#243F82" d="M9.953,17.268c0.859-0.908,2.841-2.058,4.657-2.724c4.812-1.767,8.792,0.021,9.195,0.408
			c0,0-0.199-2.138-0.338-3.421c-0.118-1.021-0.741-7.197-4.141-7.842c-1.166-0.226-2.063-0.043-2.583,0.204
			c-2.653,1.268-4.903,4.721-6.106,9.797C10.313,15.049,9.953,17.268,9.953,17.268L9.953,17.268z M23.842,18.536
			c-0.645-0.483-2.938-1.966-6.854-1.085c-4.275,0.967-6.799,3.684-7.406,4.441c-0.059,1.821-0.124,3.427-0.059,5.983H5.758
			c0,0-0.011-4.334,0.113-6.467c0.258-4.329,0.516-6.354,1.676-9.941C8.545,8.384,9.829,5.887,11.5,3.819
			c1.418-1.762,3.207-3.024,4.93-3.518c1.16-0.328,2.127-0.414,3.147-0.247c1.928,0.322,3.813,1.445,5.06,3.411
			c1.386,2.191,1.708,4.104,2.095,6.429c0.306,1.821,0.365,2.799,0.494,4.598c0.188,2.605,0.29,3.685,0.591,6.118
			c0.645,5.215,2.31,7.267,2.31,7.267h-4.721c-0.274-0.865-0.709-2.557-0.983-4.41C24.153,21.693,23.885,18.992,23.842,18.536
			L23.842,18.536z"/>
	</g>
	<g>
		<path fill="#878EBD" d="M5.043,38.859v-3.303c0-0.44-0.193-0.655-0.58-0.655c-0.204,0-0.392,0.059-0.569,0.183
			c-0.177,0.123-0.381,0.29-0.612,0.505v3.271h-0.72v-3.18c0-0.14-0.011-0.252-0.027-0.344c-0.021-0.091-0.054-0.166-0.102-0.236
			c-0.102-0.118-0.252-0.177-0.457-0.177c-0.172,0-0.349,0.048-0.526,0.14c-0.177,0.091-0.381,0.241-0.618,0.451v3.346H0.161v-3.47
			c0-0.322-0.054-0.639-0.161-0.95l0.682-0.161c0.005,0.005,0.021,0.037,0.048,0.097c0.021,0.059,0.048,0.145,0.075,0.252
			s0.038,0.21,0.038,0.312c0.075-0.08,0.161-0.161,0.263-0.247c0.102-0.08,0.209-0.15,0.328-0.215
			c0.118-0.059,0.236-0.112,0.36-0.15c0.124-0.043,0.242-0.059,0.36-0.059c0.22,0,0.43,0.064,0.623,0.193s0.333,0.312,0.419,0.553
			c0.215-0.23,0.451-0.408,0.709-0.542c0.258-0.14,0.505-0.204,0.73-0.204c0.338,0,0.607,0.112,0.816,0.338
			c0.204,0.226,0.306,0.516,0.306,0.876v3.378H5.043z"/>
		<path fill="#878EBD" d="M8.921,39.02c-0.07,0.226-0.15,0.43-0.236,0.612s-0.188,0.35-0.301,0.494
			c-0.113,0.14-0.247,0.264-0.392,0.36c-0.145,0.091-0.317,0.166-0.516,0.215l-0.209-0.479c0.145-0.043,0.269-0.097,0.371-0.161
			s0.193-0.15,0.269-0.252c0.081-0.103,0.15-0.231,0.209-0.387c0.064-0.156,0.129-0.35,0.188-0.575l-0.29,0.043
			c-0.011-0.069-0.038-0.172-0.07-0.306c-0.038-0.135-0.075-0.279-0.118-0.436c-0.043-0.155-0.086-0.312-0.134-0.462
			c-0.048-0.155-0.091-0.29-0.124-0.402l-0.967-2.804l0.693-0.231l0.918,2.9c0.038,0.107,0.07,0.226,0.097,0.354
			c0.032,0.129,0.059,0.247,0.086,0.36c0.027,0.112,0.059,0.241,0.086,0.402h0.021c0.005-0.016,0.021-0.069,0.048-0.166
			c0.027-0.092,0.059-0.221,0.107-0.371c0.043-0.15,0.086-0.29,0.118-0.408l0.881-2.938h0.8L8.921,39.02z"/>
		<path fill="#878EBD" d="M17.278,38.891h-0.693l-0.886-3.142c-0.043-0.15-0.086-0.317-0.129-0.494h-0.016
			c0,0.005-0.005,0.032-0.016,0.086c-0.005,0.048-0.021,0.112-0.038,0.188s-0.032,0.135-0.043,0.183l-0.902,3.18H13.9l-1.241-4.479
			l0.704-0.145l0.72,2.948c0.048,0.21,0.102,0.457,0.161,0.747h0.027c0.054-0.269,0.102-0.483,0.15-0.65l0.8-2.927h0.762l0.784,2.97
			c0.016,0.081,0.038,0.172,0.07,0.279s0.054,0.199,0.075,0.264s0.032,0.102,0.032,0.118h0.016c0-0.017,0.011-0.054,0.027-0.124
			c0.011-0.069,0.032-0.155,0.054-0.258c0.027-0.102,0.043-0.183,0.054-0.241l0.709-3.008h0.741L17.278,38.891z"/>
		<path fill="#878EBD" d="M22.993,36.695c0,0.37-0.043,0.698-0.14,0.982c-0.097,0.285-0.231,0.521-0.403,0.715
			s-0.376,0.338-0.607,0.435c-0.236,0.097-0.494,0.15-0.779,0.15c-0.618,0-1.096-0.215-1.434-0.639
			c-0.333-0.425-0.505-1.005-0.505-1.746c0-0.73,0.172-1.305,0.51-1.719c0.338-0.419,0.811-0.623,1.402-0.623
			c0.381,0,0.693,0.075,0.94,0.221c0.247,0.15,0.446,0.338,0.602,0.559c0.14,0.204,0.242,0.44,0.312,0.709
			C22.961,36.012,22.993,36.33,22.993,36.695z M22.188,36.753c0-0.617-0.07-1.063-0.204-1.348c-0.097-0.193-0.236-0.339-0.414-0.436
			c-0.177-0.091-0.354-0.134-0.542-0.134c-0.199,0-0.381,0.043-0.548,0.129s-0.29,0.204-0.371,0.354
			c-0.07,0.134-0.124,0.295-0.161,0.483c-0.032,0.183-0.054,0.413-0.054,0.682c0,0.312,0.027,0.602,0.075,0.859
			c0.054,0.264,0.124,0.462,0.204,0.597c0.086,0.14,0.209,0.247,0.376,0.327c0.161,0.081,0.338,0.124,0.532,0.124
			c0.236,0,0.435-0.06,0.602-0.178c0.172-0.112,0.295-0.279,0.371-0.494c0.048-0.14,0.081-0.279,0.102-0.424
			C22.177,37.157,22.188,36.974,22.188,36.753z"/>
		<path fill="#878EBD" d="M26.194,35.056c-0.059-0.021-0.129-0.032-0.199-0.032c-0.279,0-0.532,0.107-0.747,0.322
			c-0.102,0.103-0.172,0.199-0.204,0.29c-0.038,0.092-0.054,0.231-0.054,0.419v2.804h-0.704v-3.453c0-0.328-0.048-0.645-0.15-0.951
			l0.698-0.188c0.005,0.005,0.021,0.037,0.048,0.102c0.021,0.064,0.048,0.15,0.07,0.269c0.027,0.118,0.032,0.236,0.027,0.354
			c0.161-0.226,0.354-0.408,0.58-0.542c0.226-0.135,0.451-0.199,0.677-0.199c0.059,0,0.14,0.011,0.247,0.043L26.194,35.056z"/>
		<path fill="#878EBD" d="M28.096,38.929c-0.059,0.011-0.134,0.016-0.231,0.016c-0.226,0-0.403-0.059-0.537-0.188
			c-0.07-0.064-0.129-0.146-0.161-0.247c-0.038-0.097-0.059-0.226-0.059-0.387v-4.748c0-0.29-0.032-0.596-0.107-0.913l0.709-0.14
			c0.081,0.371,0.118,0.72,0.118,1.063v4.57c0,0.178,0.016,0.296,0.054,0.354c0.032,0.064,0.097,0.097,0.199,0.097
			c0.011,0,0.043-0.005,0.091-0.016l0.145,0.456C28.225,38.891,28.149,38.918,28.096,38.929z"/>
		<path fill="#878EBD" d="M32.237,38.859c-0.059-0.188-0.097-0.338-0.102-0.456c-0.161,0.183-0.333,0.316-0.516,0.397
			c-0.183,0.08-0.408,0.123-0.671,0.123c-0.58,0-1.031-0.198-1.348-0.596c-0.317-0.393-0.478-0.951-0.478-1.671
			c0-0.956,0.312-1.648,0.929-2.078c0.14-0.103,0.279-0.172,0.419-0.215c0.134-0.043,0.279-0.064,0.44-0.064
			c0.252,0,0.483,0.054,0.693,0.15c0.209,0.102,0.387,0.236,0.526,0.419c0-0.011,0-0.049,0-0.107c0-0.06-0.005-0.15-0.005-0.264
			c-0.005-0.112-0.005-0.22-0.005-0.322v-1.879l0.704,0.118v4.995c0,0.393,0.011,0.698,0.027,0.919
			c0.021,0.22,0.059,0.397,0.107,0.531H32.237z M32.108,35.352c-0.113-0.156-0.258-0.269-0.43-0.35
			c-0.172-0.075-0.392-0.118-0.661-0.118c-0.365,0-0.645,0.156-0.838,0.468c-0.107,0.177-0.183,0.354-0.226,0.542
			c-0.043,0.183-0.064,0.436-0.064,0.752c0,0.269,0.011,0.494,0.038,0.688c0.021,0.188,0.07,0.35,0.145,0.483
			c0.102,0.183,0.226,0.317,0.365,0.397c0.145,0.086,0.322,0.124,0.537,0.124c0.183,0,0.338-0.021,0.462-0.07
			c0.124-0.043,0.258-0.118,0.403-0.22c0.097-0.064,0.188-0.172,0.269-0.322V35.352z"/>
		<path fill="#878EBD" d="M37.527,38.354c0,0.178-0.059,0.322-0.177,0.44c-0.118,0.124-0.258,0.183-0.419,0.183
			c-0.172,0-0.317-0.059-0.435-0.183c-0.118-0.118-0.177-0.263-0.177-0.44c0-0.166,0.059-0.306,0.172-0.419
			c0.113-0.118,0.258-0.172,0.424-0.172c0.172,0,0.317,0.054,0.435,0.172C37.468,38.048,37.527,38.188,37.527,38.354z"/>
		<path fill="#878EBD" d="M39.987,38.354c0,0.178-0.059,0.322-0.177,0.44c-0.113,0.124-0.252,0.183-0.413,0.183
			c-0.177,0-0.322-0.059-0.44-0.183c-0.113-0.118-0.172-0.263-0.172-0.44c0-0.166,0.054-0.306,0.172-0.419
			c0.113-0.118,0.252-0.172,0.419-0.172c0.177,0,0.322,0.054,0.435,0.172C39.928,38.048,39.987,38.188,39.987,38.354z"/>
		<path fill="#878EBD" d="M42.447,38.354c0,0.178-0.054,0.322-0.172,0.44c-0.118,0.124-0.258,0.183-0.419,0.183
			c-0.172,0-0.317-0.059-0.435-0.183c-0.118-0.118-0.177-0.263-0.177-0.44c0-0.166,0.059-0.306,0.172-0.419
			c0.113-0.118,0.252-0.172,0.424-0.172s0.317,0.054,0.435,0.172C42.393,38.048,42.447,38.188,42.447,38.354z"/>
		<path fill="#878EBD" d="M48.532,38.859V35.83c0-0.123-0.005-0.22-0.011-0.301c-0.005-0.075-0.016-0.14-0.027-0.193
			s-0.027-0.102-0.048-0.14c-0.021-0.043-0.048-0.08-0.075-0.112c-0.107-0.129-0.274-0.193-0.494-0.193
			c-0.091,0-0.193,0.016-0.301,0.054c-0.113,0.032-0.22,0.075-0.333,0.134c-0.113,0.054-0.22,0.124-0.328,0.204
			c-0.107,0.075-0.204,0.156-0.279,0.242v3.335h-0.671v-3.448c0-0.322-0.059-0.639-0.172-0.945l0.682-0.188
			c0.005,0.005,0.021,0.037,0.043,0.097c0.027,0.059,0.054,0.145,0.081,0.258c0.027,0.107,0.038,0.226,0.038,0.344
			c0.462-0.462,0.935-0.693,1.413-0.693c0.242,0,0.467,0.06,0.666,0.183c0.193,0.118,0.338,0.279,0.43,0.473
			c0.07,0.161,0.107,0.339,0.107,0.521v3.399H48.532z"/>
		<path fill="#878EBD" d="M53.796,39.031c-0.156-0.048-0.285-0.129-0.392-0.247c-0.102-0.118-0.177-0.252-0.22-0.408
			c-0.215,0.215-0.419,0.365-0.612,0.462c-0.199,0.092-0.424,0.14-0.682,0.14c-0.274,0-0.505-0.043-0.693-0.118
			c-0.183-0.08-0.333-0.177-0.446-0.295c-0.107-0.124-0.188-0.258-0.231-0.414c-0.043-0.15-0.07-0.301-0.07-0.451
			c0-0.51,0.209-0.907,0.623-1.187c0.414-0.285,0.999-0.425,1.756-0.425c0.097,0,0.199,0.006,0.312,0.011v-0.312
			c0-0.198-0.005-0.344-0.021-0.44s-0.054-0.183-0.118-0.252c-0.075-0.086-0.156-0.146-0.252-0.183
			c-0.097-0.043-0.215-0.06-0.354-0.06c-0.124,0-0.258,0.011-0.392,0.038c-0.14,0.026-0.274,0.064-0.403,0.118
			c-0.129,0.048-0.247,0.107-0.36,0.172c-0.113,0.059-0.199,0.123-0.274,0.193l-0.349-0.505c0.596-0.403,1.225-0.602,1.88-0.602
			c0.634,0,1.047,0.23,1.241,0.698c0.043,0.123,0.075,0.263,0.086,0.435c0.011,0.167,0.016,0.354,0.011,0.559l-0.038,1.472
			c-0.005,0.178-0.005,0.328,0,0.451c0.005,0.118,0.021,0.221,0.048,0.301c0.032,0.081,0.064,0.146,0.113,0.199
			s0.118,0.102,0.199,0.145L53.796,39.031z M52.953,36.571c-0.054-0.005-0.113-0.005-0.177-0.005c-0.285,0-0.521,0.021-0.72,0.069
			c-0.199,0.049-0.36,0.118-0.478,0.21c-0.118,0.091-0.204,0.204-0.263,0.338c-0.054,0.135-0.081,0.285-0.081,0.451
			c0,0.548,0.258,0.822,0.773,0.822c0.231,0,0.44-0.064,0.639-0.193s0.349-0.301,0.451-0.511l0.027-1.171
			C53.065,36.577,53.006,36.571,52.953,36.571z"/>
		<path fill="#878EBD" d="M57.056,34.922h-0.935v2.879c0,0.252,0.043,0.424,0.124,0.521s0.231,0.146,0.451,0.146
			c0.102,0,0.183-0.006,0.247-0.021c0.064-0.017,0.129-0.038,0.193-0.07l0.102,0.451c-0.231,0.118-0.494,0.178-0.795,0.178
			c-0.118,0-0.226-0.011-0.317-0.032s-0.183-0.049-0.263-0.092c-0.156-0.08-0.269-0.188-0.333-0.333
			c-0.064-0.145-0.097-0.327-0.097-0.559v-3.066h-0.585v-0.537h0.585c0-0.107,0-0.231,0.005-0.36
			c0.005-0.134,0.016-0.258,0.021-0.37c0.011-0.113,0.027-0.247,0.043-0.403l0.736-0.161c-0.021,0.156-0.032,0.295-0.048,0.418
			c-0.011,0.129-0.021,0.269-0.027,0.419c-0.011,0.156-0.016,0.307-0.016,0.457h1.123L57.056,34.922z"/>
		<path fill="#878EBD" d="M61.283,39.047c-0.15-0.118-0.263-0.231-0.333-0.339c-0.07-0.102-0.124-0.23-0.15-0.381
			c-0.344,0.456-0.816,0.682-1.423,0.682c-0.285,0-0.526-0.054-0.73-0.172c-0.199-0.112-0.349-0.269-0.446-0.467
			c-0.038-0.081-0.07-0.183-0.086-0.296c-0.021-0.112-0.027-0.236-0.027-0.37v-3.293l0.688-0.134V37.5
			c0,0.209,0.021,0.37,0.059,0.478c0.038,0.113,0.113,0.204,0.209,0.279c0.075,0.043,0.161,0.086,0.252,0.107
			c0.097,0.032,0.199,0.043,0.301,0.043c0.22,0,0.435-0.075,0.645-0.22c0.209-0.146,0.376-0.344,0.494-0.586v-3.174l0.693-0.113
			v3.261c0,0.279,0.021,0.488,0.064,0.634c0.048,0.14,0.124,0.258,0.236,0.359L61.283,39.047z"/>
		<path fill="#878EBD" d="M64.946,35.056c-0.059-0.021-0.124-0.032-0.193-0.032c-0.285,0-0.532,0.107-0.746,0.322
			c-0.102,0.103-0.172,0.199-0.209,0.29c-0.032,0.092-0.054,0.231-0.054,0.419v2.804H63.04v-3.453c0-0.328-0.048-0.645-0.15-0.951
			l0.704-0.188c0.005,0.005,0.021,0.037,0.043,0.102c0.027,0.064,0.048,0.15,0.07,0.269c0.027,0.118,0.038,0.236,0.032,0.354
			c0.161-0.226,0.354-0.408,0.574-0.542c0.226-0.135,0.451-0.199,0.682-0.199c0.059,0,0.14,0.011,0.242,0.043L64.946,35.056z"/>
		<path fill="#878EBD" d="M68.802,39.031c-0.156-0.048-0.285-0.129-0.392-0.247c-0.102-0.118-0.177-0.252-0.22-0.408
			c-0.215,0.215-0.419,0.365-0.612,0.462c-0.199,0.092-0.424,0.14-0.682,0.14c-0.274,0-0.505-0.043-0.693-0.118
			c-0.183-0.08-0.333-0.177-0.446-0.295c-0.107-0.124-0.188-0.258-0.231-0.414c-0.043-0.15-0.07-0.301-0.07-0.451
			c0-0.51,0.209-0.907,0.623-1.187c0.414-0.285,0.999-0.425,1.756-0.425c0.097,0,0.199,0.006,0.312,0.011v-0.312
			c0-0.198-0.005-0.344-0.021-0.44s-0.054-0.183-0.118-0.252c-0.075-0.086-0.156-0.146-0.252-0.183
			c-0.097-0.043-0.215-0.06-0.354-0.06c-0.124,0-0.258,0.011-0.392,0.038c-0.14,0.026-0.274,0.064-0.403,0.118
			c-0.129,0.048-0.247,0.107-0.36,0.172c-0.113,0.059-0.204,0.123-0.274,0.193l-0.349-0.505c0.596-0.403,1.225-0.602,1.875-0.602
			c0.639,0,1.053,0.23,1.246,0.698c0.043,0.123,0.075,0.263,0.086,0.435c0.011,0.167,0.016,0.354,0.011,0.559l-0.038,1.472
			c-0.005,0.178-0.005,0.328,0,0.451c0.005,0.118,0.021,0.221,0.048,0.301c0.027,0.081,0.064,0.146,0.113,0.199
			s0.113,0.102,0.199,0.145L68.802,39.031z M67.959,36.571c-0.054-0.005-0.113-0.005-0.177-0.005c-0.285,0-0.521,0.021-0.72,0.069
			c-0.199,0.049-0.36,0.118-0.478,0.21c-0.118,0.091-0.209,0.204-0.263,0.338c-0.054,0.135-0.081,0.285-0.081,0.451
			c0,0.548,0.258,0.822,0.773,0.822c0.231,0,0.44-0.064,0.639-0.193s0.349-0.301,0.451-0.511l0.027-1.171
			C68.072,36.577,68.013,36.571,67.959,36.571z"/>
		<path fill="#878EBD" d="M71.423,38.929c-0.059,0.011-0.134,0.016-0.231,0.016c-0.226,0-0.403-0.059-0.537-0.188
			c-0.07-0.064-0.129-0.146-0.161-0.247c-0.038-0.097-0.059-0.226-0.059-0.387v-4.748c0-0.29-0.032-0.596-0.107-0.913l0.709-0.14
			c0.081,0.371,0.118,0.72,0.118,1.063v4.57c0,0.178,0.016,0.296,0.054,0.354c0.032,0.064,0.097,0.097,0.199,0.097
			c0.011,0,0.043-0.005,0.091-0.016l0.145,0.456C71.552,38.891,71.477,38.918,71.423,38.929z"/>
		<path fill="#878EBD" d="M73.658,38.929c-0.054,0.011-0.134,0.016-0.226,0.016c-0.226,0-0.403-0.059-0.537-0.188
			c-0.075-0.064-0.129-0.146-0.167-0.247c-0.038-0.097-0.054-0.226-0.054-0.387v-4.748c0-0.29-0.038-0.596-0.107-0.913l0.709-0.14
			c0.081,0.371,0.118,0.72,0.118,1.063v4.57c0,0.178,0.016,0.296,0.048,0.354c0.032,0.064,0.102,0.097,0.204,0.097
			c0.011,0,0.043-0.005,0.091-0.016l0.14,0.456C73.792,38.891,73.717,38.918,73.658,38.929z"/>
		<path fill="#878EBD" d="M76.601,39.02c-0.07,0.226-0.15,0.43-0.236,0.612c-0.091,0.183-0.188,0.35-0.301,0.494
			c-0.118,0.14-0.247,0.264-0.392,0.36c-0.15,0.091-0.322,0.166-0.516,0.215l-0.209-0.479c0.145-0.043,0.269-0.097,0.371-0.161
			s0.188-0.15,0.269-0.252c0.075-0.103,0.15-0.231,0.209-0.387c0.064-0.156,0.124-0.35,0.188-0.575l-0.29,0.043
			c-0.011-0.069-0.038-0.172-0.07-0.306c-0.038-0.135-0.075-0.279-0.118-0.436c-0.043-0.155-0.086-0.312-0.134-0.462
			c-0.048-0.155-0.091-0.29-0.129-0.402l-0.961-2.804l0.693-0.231l0.918,2.9c0.038,0.107,0.07,0.226,0.097,0.354
			c0.032,0.129,0.059,0.247,0.086,0.36c0.027,0.112,0.054,0.241,0.086,0.402h0.016c0.005-0.016,0.021-0.069,0.054-0.166
			c0.027-0.092,0.059-0.221,0.107-0.371c0.043-0.15,0.081-0.29,0.118-0.408l0.881-2.938h0.8L76.601,39.02z"/>
	</g>
</g>
</svg>
