<?xml version="1.0" standalone="no"?>
<!DOCTYPE svg PUBLIC "-//W3C//DTD SVG 1.1//EN" "http://www.w3.org/Graphics/SVG/1.1/DTD/svg11.dtd" >
<svg>
<metadata>
Created by FontForge 20120731 at Wed Jan  9 15:51:17 2019
 By www
Copyright 1996 Jaguar Cars Ltd. ALL RIGHTS RESERVED. v.1.2
</metadata>
<defs>
<font id="JaguarJCBookItalic" horiz-adv-x="277" >
  <font-face 
    font-family="JaguarJC"
    font-weight="400"
    font-style="italic"
    font-stretch="normal"
    units-per-em="1030"
    panose-1="0 0 4 0 0 0 0 0 0 0"
    ascent="824"
    descent="-206"
    x-height="485"
    cap-height="701"
    bbox="-260 -274 1075 970"
    underline-thickness="47"
    underline-position="-141"
    slope="-11"
    unicode-range="U+0020-F002"
  />
<missing-glyph horiz-adv-x="515" 
d="M64 0v765h387v-765h-387zM129 64h257v637h-257v-637z" />
    <glyph glyph-name=".notdef" horiz-adv-x="515" 
d="M64 0v765h387v-765h-387zM129 64h257v637h-257v-637z" />
    <glyph glyph-name=".null" horiz-adv-x="0" 
 />
    <glyph glyph-name="nonmarkingreturn" 
 />
    <glyph glyph-name="space" unicode=" " 
 />
    <glyph glyph-name="exclam" unicode="!" horiz-adv-x="348" 
d="M299 651q-27 -121 -144 -460h-35q10 99 20 182q23 197 40 278q15 64 73 64q48 0 48 -45q0 -9 -2 -19zM173 57q0 -28 -20.5 -47.5t-47.5 -19.5q-28 0 -48 19.5t-20 47.5t20 48t48 20t48 -20t20 -48z" />
    <glyph glyph-name="quotedbl" unicode="&#x22;" horiz-adv-x="296" 
d="M304 688q0 -16 -10 -38l-101 -229h-35l46 226q9 45 28 60t37 15q35 0 35 -34zM157 688q0 -16 -10 -38l-102 -229h-34l46 226q9 45 28 60t37 15q35 0 35 -34z" />
    <glyph glyph-name="numbersign" unicode="#" horiz-adv-x="802" 
d="M761 504l-22 -62h-159l-53 -151h170l-21 -61h-171l-85 -241h-74l87 241h-157l-87 -241h-72l85 241h-165l23 61h164l54 151h-177l20 62h178l80 224h72l-77 -224h155l79 224h73l-79 -224h159zM506 442h-156l-52 -151h156z" />
    <glyph glyph-name="dollar" unicode="$" horiz-adv-x="576" 
d="M518 535q-37 102 -141 127l-54 -247q81 -31 117 -68q44 -45 44 -118q0 -118 -82 -182q-71 -54 -172 -54l-17 -74h-49l16 75q-92 0 -160 63v91q29 -48 80 -79q48 -29 91 -29l63 292q-78 38 -110 71q-43 46 -43 120q0 94 65 142q61 45 173 45l12 56h50l-14 -60
q79 0 131 -65v-106zM328 665q-57 0 -95 -28q-42 -32 -42 -89q0 -53 27 -82q18 -19 60 -35zM388 204q0 51 -30 78q-13 12 -58 31l-61 -274q52 0 94 35q55 46 55 130z" />
    <glyph glyph-name="percent" unicode="%" horiz-adv-x="801" 
d="M728 720l-584 -749h-65l586 749h63zM404 557q0 -90 -59.5 -155t-148.5 -65q-62 0 -98 37t-36 99q0 86 60 150t146 64q61 0 98.5 -34.5t37.5 -95.5zM737 210q0 -90 -59 -155t-149 -65q-61 0 -96.5 37.5t-35.5 99.5q0 85 59.5 149t145.5 64q60 0 97.5 -34.5t37.5 -95.5z
M320 577q0 71 -55 71q-54 0 -90 -71q-31 -62 -31 -129q0 -72 55 -72q52 0 89 73q32 63 32 128zM657 229q0 71 -55 71q-51 0 -88 -74q-32 -64 -32 -126q0 -71 55 -71q51 0 88 74q32 64 32 126z" />
    <glyph glyph-name="ampersand" unicode="&#x26;" horiz-adv-x="692" 
d="M755 -44q-29 -27 -44 -35q-34 -19 -83 -19q-62 0 -125 64q-38 39 -88 118q-63 -49 -111 -71q-59 -26 -128 -26q-74 0 -123 35q-58 40 -58 117q0 98 74 166q42 39 161 101q-36 69 -36 119q0 83 60 141.5t145 58.5q143 0 143 -116q0 -56 -37 -98q-27 -32 -82 -61
q-44 -22 -87 -43q38 -73 121 -213q103 111 103 168q0 6 -2 12h86q-58 -127 -160 -224q55 -87 76 -113q60 -74 106 -74q44 0 82 18zM458 616q0 30 -18 49.5t-44 19.5q-51 0 -81 -43q-28 -38 -28 -90q0 -55 28 -107q143 69 143 171zM386 129q-33 48 -135 238
q-150 -68 -150 -201q0 -114 109 -114q93 0 176 77z" />
    <glyph glyph-name="quotesingle" unicode="'" horiz-adv-x="158" 
d="M167 688q0 -16 -10 -38l-101 -229h-35l46 226q9 45 28 60t37 15q35 0 35 -34z" />
    <glyph glyph-name="parenleft" unicode="(" horiz-adv-x="293" 
d="M359 707q-87 -91 -138 -191q-45 -89 -72 -211q-24 -110 -24 -191q0 -121 54 -211l-41 -19q-93 128 -93 282q0 71 19 155q27 125 93 226q62 95 173 191z" />
    <glyph glyph-name="parenright" unicode=")" horiz-adv-x="293" 
d="M233 291q-52 -237 -259 -417l-8 -7l-30 31q156 159 210 402q24 108 24 187q0 122 -55 215l41 19q95 -128 95 -284q0 -68 -18 -146z" />
    <glyph glyph-name="asterisk" unicode="*" horiz-adv-x="519" 
d="M438 476q-23 -31 -36 -62l-127 90q9 -88 23 -154q-37 5 -73 0q13 83 18 155q-74 -53 -124 -96q-12 33 -35 61q77 33 142 64q-54 26 -145 58q23 29 36 63q81 -60 126 -92q-5 48 -21 155q36 -6 71 0q-12 -96 -16 -155q68 48 122 97q13 -31 35 -63q-78 -32 -143 -64
q66 -28 147 -57z" />
    <glyph glyph-name="plus" unicode="+" horiz-adv-x="868" 
d="M745 281h-276v-282h-70v282h-277v70h277v282h70v-282h276v-70z" />
    <glyph glyph-name="comma" unicode="," horiz-adv-x="292" 
d="M221 51q0 -95 -120 -224l-35 4q41 60 48 73q22 40 22 77q0 17 -26 34t-26 48q0 27 21.5 44.5t50.5 17.5t47 -20t18 -54z" />
    <glyph glyph-name="hyphen" unicode="-" horiz-adv-x="353" 
d="M322 302l-19 -87h-272l19 87h272z" />
    <glyph glyph-name="hyphen" unicode="&#x2010;" horiz-adv-x="353" 
d="M322 302l-19 -87h-272l19 87h272z" />
    <glyph glyph-name="period" unicode="." horiz-adv-x="292" 
d="M214 57q0 -28 -20 -47.5t-48 -19.5t-48 19.5t-20 47.5t20 48t48 20t48 -20t20 -48z" />
    <glyph glyph-name="slash" unicode="/" horiz-adv-x="299" 
d="M423 792l-485 -888h-67l486 888h66z" />
    <glyph glyph-name="zero" unicode="0" horiz-adv-x="576" 
d="M557 465q0 -174 -82 -315q-97 -166 -257 -166q-200 0 -200 219q0 182 77 326q94 177 259 177q203 0 203 -241zM453 530q0 132 -92 132q-114 0 -186 -208q-56 -162 -56 -304q0 -123 98 -123q111 0 181 205q55 160 55 298z" />
    <glyph glyph-name="one" unicode="1" horiz-adv-x="576" 
d="M451 719q-86 -319 -164 -719h-102q78 292 148 621q-92 -58 -157 -88l1 73q91 29 274 113z" />
    <glyph glyph-name="two" unicode="2" horiz-adv-x="576" 
d="M515 533q0 -89 -75 -182q-58 -71 -166 -152q-4 -3 -167 -116q230 0 295 10q8 1 18 34h33l-28 -128q-204 6 -451 0l10 39q82 65 164 131q112 93 171 172q80 105 80 196q0 114 -116 114q-115 0 -178 -121v113q88 63 200 63q210 0 210 -173z" />
    <glyph glyph-name="three" unicode="3" horiz-adv-x="576" 
d="M491 559q0 -72 -60 -125q-47 -41 -116 -61q56 -14 95 -50q46 -44 46 -103q0 -115 -86 -179q-78 -59 -199 -59q-104 0 -167 58v94q61 -104 167 -104q80 0 128 60q44 55 44 138q0 51 -27 82q-30 34 -88 34q-38 0 -68 -8v61q40 -5 49 -5q80 0 128 46t48 124q0 42 -29.5 67.5
t-67.5 25.5q-103 0 -162 -91v92q72 50 161 50q78 0 134 -32q70 -40 70 -115z" />
    <glyph glyph-name="four" unicode="4" horiz-adv-x="576" 
d="M541 297l-36 -86q-71 0 -102 1q-32 -124 -42 -212l-107 1q17 46 54 208q-205 3 -301 -2v29q196 206 424 466h89q-34 -144 -103 -433q32 2 64.5 6t59.5 22zM401 599l-295 -328h219z" />
    <glyph glyph-name="five" unicode="5" horiz-adv-x="576" 
d="M550 690l-26 -121h-23q-1 25 -16 42l-253 -1q-35 -97 -55 -203q53 24 119 24q80 0 128 -41q53 -45 53 -135q0 -120 -88 -198q-84 -75 -207 -75q-50 0 -101 19q-47 17 -70 39v87q27 -41 72 -69q50 -30 102 -30q86 0 137 79q45 69 45 159q0 53 -31 83q-28 27 -75 27
q-80 0 -136 -45l-27 16q67 219 84 343q182 -4 368 0z" />
    <glyph glyph-name="six" unicode="6" horiz-adv-x="576" 
d="M534 613q-53 49 -111 49q-163 0 -253 -306q23 26 67 46q49 22 93 22q75 0 122 -43q51 -46 51 -127q0 -119 -81.5 -194.5t-199.5 -75.5q-92 0 -142.5 55.5t-50.5 148.5q0 177 107 339q119 182 287 182q63 0 111 -25v-71zM394 270q0 44 -27.5 71.5t-69.5 27.5
q-77 0 -126 -72q-43 -64 -43 -144q0 -126 103 -126q77 0 123 78q40 70 40 165z" />
    <glyph glyph-name="seven" unicode="7" horiz-adv-x="576" 
d="M596 643q-103 -131 -224 -316q-105 -164 -209 -327h-116q97 112 230 299q167 238 220 307h-267q-55 0 -70 -39l-31 1l27 122q212 -4 440 0v-47z" />
    <glyph glyph-name="eight" unicode="8" horiz-adv-x="576" 
d="M541 556q0 -131 -164 -174q52 -16 86 -58q36 -45 36 -102q0 -113 -83 -178q-77 -60 -197 -60q-84 0 -144 50q-64 55 -64 141q0 87 77 151q61 51 130 63q-95 30 -95 133q0 92 73 141q64 43 163 43q68 0 121 -39q61 -43 61 -111zM434 579q0 85 -80 85q-61 0 -95 -51
q-30 -47 -30 -124q0 -35 17 -59q19 -28 51 -28q63 0 101 53q36 50 36 124zM389 263q0 45 -25.5 72t-67.5 27q-84 0 -132 -70q-43 -62 -43 -155q0 -111 110 -111q76 0 120 76q38 67 38 161z" />
    <glyph glyph-name="nine" unicode="9" horiz-adv-x="576" 
d="M547 491q0 -170 -102 -327q-117 -179 -283 -179q-75 0 -122 33v74q60 -59 128 -59q161 0 236 295q-66 -59 -153 -59q-77 0 -128 50.5t-51 129.5q0 111 77.5 184.5t190.5 73.5q94 0 149 -54q58 -57 58 -162zM445 535q0 57 -31 92.5t-79 35.5q-76 0 -122 -77
q-39 -65 -39 -148q0 -113 111 -113q77 0 121 69q39 59 39 141z" />
    <glyph glyph-name="colon" unicode=":" horiz-adv-x="346" 
d="M281 417q0 -27 -20.5 -47.5t-47.5 -20.5t-47 20t-20 48t20 47.5t47 19.5q28 0 48 -19.5t20 -47.5zM202 57q0 -28 -20.5 -47.5t-47.5 -19.5q-28 0 -47.5 19.5t-19.5 47.5t19.5 47.5t47.5 19.5t48 -20t20 -47z" />
    <glyph glyph-name="semicolon" unicode=";" horiz-adv-x="292" 
d="M276 416q0 -27 -20.5 -47t-47.5 -20q-28 0 -48 19.5t-20 47.5q0 29 20 48.5t48 19.5t48 -19.5t20 -48.5zM201 51q0 -95 -121 -224l-35 4q41 60 48 73q22 40 22 77q0 17 -26 34t-26 48q0 27 21.5 44.5t51.5 17.5q28 0 46.5 -20t18.5 -54z" />
    <glyph glyph-name="less" unicode="&#x3c;" horiz-adv-x="868" 
d="M740 38l-612 251v55l612 251v-77l-497 -202l497 -201v-77z" />
    <glyph glyph-name="equal" unicode="=" horiz-adv-x="868" 
d="M745 375h-623v70h623v-70zM745 188h-623v70h623v-70z" />
    <glyph glyph-name="greater" unicode="&#x3e;" horiz-adv-x="868" 
d="M740 289l-612 -251v77l496 201l-496 202v77l612 -251v-55z" />
    <glyph glyph-name="question" unicode="?" horiz-adv-x="406" 
d="M430 563q-17 -73 -110 -137l-56 -38q-42 -29 -57 -43q-17 -18 -21.5 -39t-4.5 -38q0 -23 8 -42q7 -13 13 -25l-38 -6l-40 50q-23 34 -23 63q0 8 2 15q7 34 30 58q12 12 63 50l70 51q73 53 73 119q0 59 -66 59q-48 0 -88 -30q-15 -21 -24 -64h-31q8 36 25 107
q79 42 141 42t100 -30.5t38 -84.5q0 -17 -4 -37zM214 57q0 -28 -20 -47.5t-48 -19.5t-48 19.5t-20 47.5t20 48t48 20t48 -20t20 -48z" />
    <glyph glyph-name="at" unicode="@" horiz-adv-x="1030" 
d="M986 401q0 -182 -127 -281q-73 -58 -161 -58q-96 0 -106 68q-54 -68 -138 -68q-168 0 -168 175q0 120 71 202.5t173 82.5q89 0 128 -69l23 49h67l-73 -294q-8 -32 -8 -44q0 -36 43 -36q50 0 100 39q99 78 99 237q0 121 -94 200q-97 81 -251 81q-185 0 -308 -117
t-123 -301q0 -163 113 -258q107 -89 273 -89q174 0 321 101l31 -45q-158 -119 -342 -119q-205 0 -335 106q-140 115 -140 316q0 207 154 342q148 129 357 129q169 0 288 -88q133 -98 133 -261zM634 370q-19 89 -98 89q-72 0 -120 -64t-48 -162q0 -108 94 -108q85 0 127 88
q12 25 45 157z" />
    <glyph glyph-name="A" unicode="A" horiz-adv-x="644" 
d="M590 31v-31h-145q-9 81 -39 256q-39 1 -114 1q-72 0 -111 -1q-25 -37 -124 -224q6 -1 18 -1h11l-1 -32h-135q112 168 430 708h41q20 -126 127 -668q10 -8 31 -8h11zM396 309l-40 249q-37 -60 -144 -249q97 -2 85 -2q14 0 43 1q33 1 56 1z" />
    <glyph glyph-name="B" unicode="B" horiz-adv-x="598" 
d="M571 574q0 -137 -190 -196q63 -14 103 -51q43 -40 43 -91q0 -123 -105 -187q-86 -52 -216 -52q-25 0 -74 2t-64 2q-19 0 -58 -2l86 369q19 83 60 290q-4 14 -27 14h-10l-1 30h236q217 0 217 -128zM462 552q0 54 -31 78.5t-100 24.5q-36 0 -73 -4q-14 -48 -30 -121
l-29 -129q24 -2 56 -2q85 0 140 33q67 40 67 120zM416 231q0 118 -158 118q-27 0 -71 -3l-21 -95q-30 -133 -38 -196q34 -8 77 -8q92 0 149 45q62 49 62 139z" />
    <glyph glyph-name="C" unicode="C" horiz-adv-x="630" 
d="M655 653l-26 -118l-33 1q6 20 6 31q0 50 -48 77q-40 23 -95 23q-131 0 -222 -133q-85 -125 -85 -285q0 -92 42 -148q45 -60 121 -60q74 0 128 26q45 21 106 75l15 -34q-123 -121 -252 -121q-126 0 -198 64q-78 69 -78 201q0 194 122.5 328t292.5 134q122 0 204 -61z" />
    <glyph glyph-name="D" unicode="D" horiz-adv-x="731" 
d="M701 448q0 -208 -142 -331q-136 -118 -350 -118h-195q106 411 149 661q-11 11 -38 10v31h240q153 0 240 -58q96 -65 96 -195zM590 450q0 104 -64 157q-57 47 -157 47q-42 0 -101 -5q-66 -261 -132 -599q26 -3 46 -3q199 0 303.5 105t104.5 298z" />
    <glyph glyph-name="E" unicode="E" horiz-adv-x="537" 
d="M555 701l-22 -99h-31q7 32 -3 39q-100 8 -215 8h-13q-27 -113 -51 -222l-7 -34l250 6l-13 -61q-143 6 -249 6l-8 -36q-15 -68 -55 -255h15q105 0 234 9q11 7 18 37h31q-7 -32 -23 -100h-396q38 133 88 359q39 174 61 297q-4 15 -28 15h-10l1 31h426z" />
    <glyph glyph-name="F" unicode="F" horiz-adv-x="532" 
d="M565 700l-23 -101h-31q7 30 0 37q-70 11 -226 11h-14q-19 -70 -38 -155l-23 -103q78 0 258 6l-13 -62q-179 6 -256 6l-49 -218q-8 -37 -14 -76q7 -14 37 -14l1 -31h-155q20 60 83 345q25 109 62 309q-3 16 -28 16h-11l1 31z" />
    <glyph glyph-name="G" unicode="G" horiz-adv-x="711" 
d="M695 644l-23 -109l-34 1q7 17 4 48q-16 34 -56 57q-44 25 -100 25q-150 0 -246 -132q-87 -120 -87 -282q0 -98 40 -155q44 -63 129 -63q87 0 157 61q17 54 44 170q-10 7 -39 7v32h152q-3 -10 -35 -122q-19 -70 -27 -123q-130 -71 -254 -71q-127 0 -202 62q-82 68 -82 200
q0 202 129 333t324 131q134 0 206 -70z" />
    <glyph glyph-name="H" unicode="H" horiz-adv-x="768" 
d="M748 701q-37 -135 -79 -324q-33 -149 -67 -332q3 -14 32 -14h7v-31q-27 0 -81 -1h-80q39 137 77 309l9 37q-97 3 -172 3q-95 0 -194 -3l-8 -37q-21 -91 -56 -260q1 -17 32 -17h7v-31q-26 0 -80 -1h-80q43 147 94 378q42 187 57 276q-1 17 -29 17h-10v31h159
q-20 -59 -66 -263l-6 -29q17 -1 96 -2q59 -1 97 -1q37 0 86 1q65 1 87 2l6 29q27 122 42 213q-14 19 -29 19h-10l-1 31h160z" />
    <glyph glyph-name="I" unicode="I" horiz-adv-x="304" 
d="M286 701q-40 -145 -80 -327q-28 -124 -70 -326q1 -17 32 -17h7v-31q-26 0 -80 -1h-80q43 147 94 378q42 187 57 276q-1 17 -29 17h-11l1 31h159z" />
    <glyph glyph-name="J" unicode="J" horiz-adv-x="265" 
d="M301 702q-34 -129 -63 -263q-24 -109 -46 -240q-19 -122 -21 -130q-29 -115 -109 -181q-54 -44 -171 -90l-57 1q119 68 164 119q56 64 83 181q19 102 51 273q14 71 54 285q-3 14 -29 14h-10v31h154z" />
    <glyph glyph-name="K" unicode="K" horiz-adv-x="658" 
d="M683 671h-17q-38 0 -102 -52q-89 -71 -253 -226q72 -149 216 -356q12 -6 27 -6h10l1 -31h-83q-69 -1 -67 -1q-21 43 -203 373l325 306q8 8 15 24h131v-31zM285 701q-24 -77 -45 -172l-65 -293q-24 -108 -39 -192q5 -13 28 -13h10v-31h-156q34 120 75 305q51 230 73 353
q-4 12 -27 12h-10l-1 31h157z" />
    <glyph glyph-name="L" unicode="L" horiz-adv-x="497" 
d="M421 105l-24 -106q-186 3 -241 3q-67 0 -138 -3q27 89 85 351q22 98 62 306q-4 14 -27 14h-10l-1 31h158q-50 -180 -91 -364q-21 -91 -56 -282h58q104 0 173 10q13 8 18 30l2 10h32z" />
    <glyph glyph-name="M" unicode="M" horiz-adv-x="899" 
d="M837 707q-8 -70 -70 -674q7 -3 20 -3h10v-31h-144q51 337 59 480q-250 -308 -349 -479h-36q-31 201 -121 484q-86 -238 -138 -438q4 -15 28 -15h10v-31h-148q52 116 135 352q62 178 123 355h37q82 -339 149 -540q134 171 399 540h36z" />
    <glyph glyph-name="N" unicode="N" horiz-adv-x="755" 
d="M774 670h-12q-23 0 -33 -13q-56 -218 -104 -434q-16 -75 -48 -226h-38q-206 355 -330 530q-2 -9 -27 -121q-32 -142 -75 -362q5 -13 28 -13h16l-1 -31h-167l-1 31h12q23 0 33 12q70 263 135 555l23 105h44q153 -255 154 -257q100 -162 172 -263q5 21 18 82q46 206 80 391
q-4 14 -28 14h-15v31h164v-31z" />
    <glyph glyph-name="O" unicode="O" horiz-adv-x="794" 
d="M748 448q0 -192 -127 -326.5t-299 -134.5q-129 0 -201 67q-75 69 -75 198q0 183 120 320q125 142 306 142q125 0 198 -65q78 -69 78 -201zM632 451q0 216 -162 216q-138 0 -229 -143q-79 -125 -79 -275q0 -216 163 -216q132 0 222 133q85 125 85 285z" />
    <glyph glyph-name="P" unicode="P" horiz-adv-x="579" 
d="M576 541q0 -232 -332 -232q-8 0 -30 2.5t-31 2.5q-21 -97 -56 -274q7 -11 38 -9v-31h-76q-56 -1 -77 -1q73 292 150 661q-12 12 -39 11v30q174 3 202 4q108 0 166 -27q85 -39 85 -137zM469 542q0 114 -153 114q-32 0 -53 -3q-36 -130 -70 -294l56 -5q117 0 168.5 45
t51.5 143z" />
    <glyph glyph-name="Q" unicode="Q" horiz-adv-x="797" 
d="M750 -156q-93 -30 -150 -30q-45 0 -94 31q-28 18 -87.5 69.5t-95.5 72.5h-5q-127 0 -198 68q-74 69 -74 197q0 183 120 320q125 142 306 142q125 0 198 -65q78 -69 78 -201q0 -157 -90 -281q-86 -120 -220 -162q57 -46 113 -93q61 -48 99 -48q47 0 94 17zM632 451
q0 216 -162 216q-138 0 -229 -143q-79 -125 -79 -275q0 -216 163 -216q132 0 222 134q85 125 85 284z" />
    <glyph glyph-name="R" unicode="R" horiz-adv-x="604" 
d="M577 559q0 -175 -228 -214q35 -80 70 -161q49 -110 78 -147q31 -6 41 -6v-31h-89q-60 0 -90 71q-48 128 -122 301q98 0 161 45q72 51 72 145q0 92 -124 92q-11 0 -36.5 -1t-38.5 -1q-28 -85 -67 -270q-25 -111 -72 -340q10 -9 42 -10v-32h-163q95 339 150 661
q-11 9 -39 9v31q11 0 37.5 -1t38.5 -1q27 0 81 2t82 2q216 0 216 -144z" />
    <glyph glyph-name="S" unicode="S" horiz-adv-x="508" 
d="M507 665l-23 -107l-33 3q5 16 5 30q0 36 -42 58q-34 17 -74 17q-64 0 -110.5 -41t-46.5 -103q0 -48 66 -88q61 -36 121 -72q66 -51 66 -127q0 -116 -89 -185q-82 -63 -203 -63q-59 0 -97.5 13t-82.5 49l18 99h38q-6 -32 -6 -44q62 -68 137 -68q74 0 130.5 46t56.5 117
q0 53 -66 96q-60 37 -121 74q-66 50 -66 121q0 106 78 167q71 56 181 56q75 0 163 -48z" />
    <glyph glyph-name="T" unicode="T" horiz-adv-x="561" 
d="M618 701l-23 -104h-31l2 10q5 22 0 32q-73 11 -140 11h-25q-21 -75 -65 -271q-29 -132 -70 -338q5 -11 27 -11h10v-31h-155q28 113 91 386l58 265h-27q-85 0 -143 -6q-12 -7 -19 -36l-2 -10h-31q8 36 22 103h521z" />
    <glyph glyph-name="U" unicode="U" horiz-adv-x="744" 
d="M779 668h-10q-25 0 -33 -17q-4 -16 -95 -403q-30 -126 -96 -188q-80 -74 -228 -74q-239 0 -239 202q0 48 13 109q29 120 81 360q-5 12 -28 12h-10v32h153l-87 -372q-20 -88 -20 -141q0 -73 37 -106q39 -37 128 -37q105 0 160 70q41 51 74 174q25 99 78 368q-4 13 -30 13
h-13v31l165 -1v-32z" />
    <glyph glyph-name="V" unicode="V" horiz-adv-x="643" 
d="M701 702q-20 -33 -431 -710h-51q-52 330 -144 674q-6 4 -21 4h-11l1 31h137q17 -113 54 -289q48 -232 57 -284q107 173 294 530q-5 12 -27 12h-10v31q32 0 152 1z" />
    <glyph glyph-name="W" unicode="W" horiz-adv-x="988" 
d="M1044 701q-133 -236 -392 -709h-63q-10 90 -74 557l-289 -557h-62q-28 229 -81 671q-6 7 -24 7h-10l-1 31l143 1q3 -84 23 -260q28 -251 33 -294q157 290 257 510q-4 12 -27 12h-10v31q41 0 138 1q9 -117 68 -557q96 169 261 510q-3 15 -28 15h-10v31h148z" />
    <glyph glyph-name="X" unicode="X" horiz-adv-x="597" 
d="M648 701q-102 -106 -301 -324q36 -94 139 -334q18 -12 32 -12h7v-31h-143q-34 112 -112 305q-112 -125 -222 -271q6 -3 19 -3h10v-31h-152q110 120 325 357l-135 310q-6 3 -19 3h-11l1 31h133q20 -68 106 -273q114 127 201 240q-6 2 -17 2h-11l1 31h149z" />
    <glyph glyph-name="Y" unicode="Y" horiz-adv-x="577" 
d="M653 702q-176 -210 -327 -405q-8 -32 -24 -98q-16 -74 -30 -156q4 -12 27 -12h10l1 -31h-157q14 50 40 152q14 64 26 139q-96 268 -141 378q-6 2 -16 2h-10v31h130q30 -144 123 -353q99 120 229 318q-7 4 -20 4h-10v31q11 0 74 -1q46 0 75 1z" />
    <glyph glyph-name="Z" unicode="Z" horiz-adv-x="607" 
d="M646 701q-111 -126 -266 -323q-217 -275 -257 -324q63 -1 99 -1q113 0 259 9q14 7 19 30l2 10h31l-23 -103h-557q140 161 517 650q-20 1 -82 1q-123 0 -236 -9q-15 -7 -20 -31l-2 -10h-31l23 101h524z" />
    <glyph glyph-name="bracketleft" unicode="[" horiz-adv-x="285" 
d="M329 701l-13 -58q-25 7 -47 7h-37q-21 -75 -83 -355q-28 -118 -74 -355h36q23 0 51 7l-13 -58q-87 3 -170 0q14 51 93 406q32 135 88 406h41q28 -1 42 -1q12 0 37 1h39h10z" />
    <glyph glyph-name="backslash" unicode="\" horiz-adv-x="291" 
d="M220 -94h-65l-89 862h65z" />
    <glyph glyph-name="bracketright" unicode="]" horiz-adv-x="285" 
d="M289 701q-13 -47 -92 -406q-32 -135 -88 -406q-79 4 -169 0l13 58q25 -7 47 -7h37q18 61 83 355q28 118 74 355h-36q-23 0 -51 -7q15 64 15 58h167z" />
    <glyph glyph-name="asciicircum" unicode="^" horiz-adv-x="1009" 
d="M820 398h-97l-219 259l-219 -259h-98l279 333h76z" />
    <glyph glyph-name="underscore" unicode="_" horiz-adv-x="509" 
d="M514 -236h-519v69h519v-69z" />
    <glyph glyph-name="grave" unicode="`" 
d="M342 555h-43l-160 101q-29 19 -29 49q0 19 14 32t35 13q26 0 52 -32z" />
    <glyph glyph-name="a" unicode="a" horiz-adv-x="569" 
d="M535 454q-61 -236 -87 -393q-2 -10 3 -18.5t13 -8.5q20 0 51 16l10 -31q-58 -29 -103 -29q-59 0 -59 45q0 29 6 45q-63 -90 -145 -90q-172 0 -172 175q0 144 107 235q101 86 242 86q3 0 59 -10q20 20 54 20q24 0 24 -19q0 -8 -3 -23zM437 425q-20 13 -44 13
q-109 0 -177 -83q-63 -77 -63 -186q0 -131 83 -131q43 0 83 39q45 44 63 118z" />
    <glyph glyph-name="b" unicode="b" horiz-adv-x="554" 
d="M517 325q0 -158 -118 -252q-104 -83 -241 -83q-15 0 -50 7q-41 8 -48 9q-24 2 -46 -5l87 382q55 248 74 342q-4 12 -29 12h-10v31h145q-27 -106 -85 -357q58 88 149 88q172 0 172 -174zM416 326q0 125 -83 125q-45 0 -91 -38q-53 -45 -70 -118l-58 -243q41 -17 79 -17
q88 0 155.5 88t67.5 203z" />
    <glyph glyph-name="c" unicode="c" horiz-adv-x="458" 
d="M464 460l-21 -92h-34q6 17 6 24q0 61 -70 61q-95 0 -155 -94q-52 -82 -52 -183q0 -142 99 -142q87 0 142 95l30 -19q-66 -122 -191 -122q-184 0 -184 190q0 134 86 226.5t218 92.5q81 0 126 -37z" />
    <glyph glyph-name="d" unicode="d" horiz-adv-x="567" 
d="M606 768q-98 -386 -160 -707q-5 -27 22 -27q20 0 46 16l10 -31q-58 -29 -105 -29q-59 0 -59 48q0 29 8 47q-65 -95 -152 -95q-172 0 -172 175q0 142 104 235q97 88 228 88q14 0 72 -9q19 85 52 246q-4 12 -28 12h-10l-1 31h145zM437 438q-49 9 -60 9q-102 0 -169 -91
q-62 -85 -62 -198q0 -120 83 -120q43 0 85 39q48 44 66 118z" />
    <glyph glyph-name="e" unicode="e" horiz-adv-x="460" 
d="M460 396q0 -65 -69 -107q-83 -50 -248 -50q-9 -36 -9 -70q0 -132 93 -132q100 0 146 92l29 -19q-14 -45 -60 -81q-51 -40 -111 -40q-196 0 -196 187q0 127 81 223q85 100 209 100q135 0 135 -103zM372 396q0 26 -16 43.5t-40 17.5q-64 0 -114 -70q-35 -50 -51 -109
q125 0 177 33q44 28 44 85z" />
    <glyph glyph-name="f" unicode="f" horiz-adv-x="286" 
d="M443 756l-23 -104h-35l3 10q1 7 1 14q0 32 -35 32q-78 0 -101 -105q-9 -33 -24 -122q54 0 99 4l1 -53q-74 6 -108 6q-9 -56 -48 -257q-39 -206 -76 -285q-78 -169 -232 -169q-74 0 -111 44l21 91h35l-2 -9q-5 -22 -5 -32q0 -52 77 -52q94 0 153 187q23 73 55 258
q17 92 38 224q-9 0 -74 -3l1 49q52 -3 85 -3q22 99 77 181q71 105 156 105q44 0 72 -11z" />
    <glyph glyph-name="g" unicode="g" horiz-adv-x="483" 
d="M534 536q0 -88 -57 -88q11 0 -66 9q47 -31 47 -90q0 -203 -241 -203q-25 0 -45 -9q-24 -10 -24 -27q0 -31 64 -54q97 -34 117 -47q63 -40 63 -112q0 -99 -76 -147q-65 -41 -177 -41q-78 0 -130 23q-67 30 -67 90q0 48 38 82q24 22 81 51h62q-95 -39 -95 -122
q0 -42 40 -65q32 -19 77 -19q157 0 157 133q0 49 -60 77l-110 40q-60 26 -60 71q0 62 86 90q-99 30 -99 112q0 102 63 158q60 52 162 52q22 0 65 -5.5t65 -5.5q44 0 55 4q24 9 24 43h41zM364 383q0 78 -78 78q-60 0 -99 -60q-35 -52 -35 -117q0 -81 80 -81q61 0 99 62
q33 54 33 118z" />
    <glyph glyph-name="h" unicode="h" horiz-adv-x="576" 
d="M527 16q-58 -28 -105 -28q-68 0 -68 48q0 47 34 172.5t34 168.5q0 62 -54 62q-82 0 -139 -90q-37 -58 -50 -121l-21 -102q-5 -26 -17 -84q5 -11 28 -11h10v-32h-146q29 104 95 399q46 206 67 325q-4 12 -28 12h-10l-1 32h149q-20 -71 -58 -234l-35 -152q91 118 198 118
q106 0 106 -118q0 -30 -8 -65q-4 -18 -37 -142q-23 -85 -23 -115q0 -27 23 -27q20 0 46 16z" />
    <glyph glyph-name="i" unicode="i" 
d="M288 649q0 -25 -18 -43t-43 -18t-43 18t-18 43t18 42.5t43 17.5t43 -17.5t18 -42.5zM242 485q-17 -54 -56 -228q-25 -115 -39 -196q-4 -27 21 -27q20 0 46 16l11 -31q-59 -29 -106 -29q-61 0 -61 48q0 31 41 219q20 89 36 173q1 24 -29 24h-10v31h146z" />
    <glyph glyph-name="j" unicode="j" 
d="M292 649q0 -25 -18 -43t-43 -18t-43 18t-18 43t18 42.5t43 17.5t43 -17.5t18 -42.5zM245 485q-13 -45 -30 -120l-78 -359q-33 -144 -221 -280l-61 2q99 74 141 144q36 59 61 169q53 241 80 391q1 22 -29 22h-10v31h147z" />
    <glyph glyph-name="k" unicode="k" horiz-adv-x="531" 
d="M541 485v-19q-85 -40 -256 -174q37 -70 130 -227q22 -33 38 -33q13 0 41 19l13 -28q-47 -33 -89 -33q-61 0 -97 66q-12 23 -121 216q85 69 246 213h95zM306 768q-29 -114 -90 -376q-26 -113 -72 -339q0 -22 29 -22h10v-31h-150q50 204 90.5 386t69.5 325q1 26 -29 26h-10
v31h152z" />
    <glyph glyph-name="l" unicode="l" horiz-adv-x="279" 
d="M305 768q-34 -130 -119 -511q-25 -115 -39 -196q-2 -10 3 -18.5t13 -8.5q20 0 51 16l10 -31q-58 -29 -105 -29q-63 0 -63 48q0 31 41 219q37 155 98 456q2 24 -28 24h-11v31h149z" />
    <glyph glyph-name="m" unicode="m" horiz-adv-x="877" 
d="M819 16q-58 -28 -105 -28q-63 0 -63 48q0 46 20 127q16 61 32 123q17 73 17 100q0 55 -59 55q-70 0 -111 -49t-68 -157q-22 -87 -40 -191q4 -13 27 -13h10v-31h-145q42 154 69 275q14 66 14 100q0 65 -58 65q-84 0 -134 -96q-29 -54 -53 -161q-14 -67 -27 -139
q4 -13 27 -13h10v-31h-145q17 52 41 164l37 163q12 58 22 114q-4 13 -27 13h-10l-1 31h129q-1 -30 -7 -82q68 97 163 97q49 0 82 -25q36 -28 41 -77q74 101 176 101q127 0 127 -121q0 -25 -7 -55q-23 -88 -61 -264q-2 -10 2.5 -18.5t12.5 -8.5q20 0 51 16z" />
    <glyph glyph-name="n" unicode="n" horiz-adv-x="585" 
d="M530 16q-58 -28 -105 -28q-65 0 -65 48q0 58 33.5 179t33.5 167q0 57 -51 57q-69 0 -125 -69q-48 -58 -65 -132l-11 -52q-11 -50 -27 -131q-1 -23 29 -23h10v-32h-150q21 70 43 173l34 151q10 46 20 107q3 15 -3 19t-25 4h-10l-1 31h138q-3 -36 -18 -109q28 48 74 82
q56 42 115 42q115 0 115 -113q0 -33 -9 -75q-3 -14 -36 -137q-23 -83 -23 -116q0 -27 18 -27q20 0 51 16z" />
    <glyph glyph-name="o" unicode="o" horiz-adv-x="546" 
d="M515 299q0 -128 -81.5 -220t-203.5 -92q-100 0 -152 56q-47 52 -47 146q0 125 80 215q84 94 210 94q92 0 143 -52t51 -147zM417 309q0 146 -98 146q-91 0 -145 -98q-45 -81 -45 -179q0 -68 17 -101q23 -46 83 -46q90 0 143 99q45 82 45 179z" />
    <glyph glyph-name="p" unicode="p" horiz-adv-x="567" 
d="M529 320q0 -149 -106 -242q-93 -83 -213 -83q-47 0 -87 23q-20 -86 -54 -248q4 -12 29 -12h10v-31h-145q69 269 160 710q-1 16 -29 16h-11l1 32h132l-11 -76q26 39 67.5 64t87.5 25q83 0 129 -55q40 -48 40 -123zM427 321q0 129 -90 129q-43 0 -86 -39q-49 -45 -65 -119
l-51 -231q36 -23 75 -23q97 0 157 77t60 206z" />
    <glyph glyph-name="q" unicode="q" horiz-adv-x="556" 
d="M554 489l-87 -382q-54 -247 -72 -336q4 -13 29 -13h10v-31h-72h-73q27 106 83 352q-57 -88 -148 -88q-172 0 -172 175q0 157 118 252q103 82 241 82q15 0 50 -6q41 -8 48 -9q24 -3 45 4zM455 439q-41 16 -79 16q-89 0 -156.5 -88t-66.5 -203q1 -125 83 -125q45 0 90 39
q54 45 71 118z" />
    <glyph glyph-name="r" unicode="r" horiz-adv-x="399" 
d="M430 470l-24 -106h-35l2 10q2 9 2 16q0 38 -42 38q-46 0 -89 -54q-47 -58 -68 -154q-30 -134 -37 -175q1 -14 29 -14h10l-1 -32h-142l39 150l40 183q17 73 24 115q-12 7 -32 7h-11l1 31h130q-5 -41 -20 -118q74 128 165 128q47 0 59 -25z" />
    <glyph glyph-name="s" unicode="s" horiz-adv-x="390" 
d="M358 460l-19 -89h-31q4 17 4 27q0 60 -70 60q-71 0 -71 -77q0 -34 40 -66q36 -30 73 -60q39 -41 39 -97q0 -78 -59 -123.5t-147 -45.5q-76 0 -122 48l20 95h32q-6 -24 -6 -36q0 -71 77 -71q52 0 82.5 27t30.5 78q0 42 -38 76q-35 29 -71 57q-38 38 -38 90q0 68 40 106
t113 38q74 0 121 -37z" />
    <glyph glyph-name="t" unicode="t" horiz-adv-x="316" 
d="M346 485l-1 -52q-63 3 -104 3h-26q-4 -16 -10.5 -44.5t-26 -105.5t-30.5 -126q-16 -72 -16 -87q0 -30 35 -30q33 0 58 17q12 7 39 34l16 -36q-72 -69 -130 -69q-107 0 -107 87q0 25 8 60q3 15 26 107.5t40 167.5l5 24h-1q-28 0 -67 -4l1 54q32 -3 80 -4l5 23
q10 46 21 106l102 22q-8 -31 -24 -92l-13 -62q42 1 120 7z" />
    <glyph glyph-name="u" unicode="u" horiz-adv-x="570" 
d="M543 485q-26 -105 -53 -211q-29 -123 -44 -213q-2 -10 3 -18.5t12 -8.5q21 0 52 16l10 -31q-58 -29 -105 -29q-59 0 -59 48q0 32 4 46q-31 -37 -80 -65q-52 -31 -94 -31q-124 0 -124 127q0 83 67 326q-4 13 -30 13h-10l1 31h147q-84 -281 -84 -376q0 -62 61 -62
q58 0 106 49q45 46 63 114q36 141 49 230q-1 14 -30 14h-10v31h148z" />
    <glyph glyph-name="v" unicode="v" horiz-adv-x="492" 
d="M534 485l-1 -22q-87 -101 -312 -469q-41 0 -59 -1q-12 110 -89 450q-10 11 -27 11h-10l1 31h134q14 -132 67 -373q83 122 193 336q-2 6 -16 6h-10v31h129z" />
    <glyph glyph-name="w" unicode="w" horiz-adv-x="782" 
d="M820 485q-47 -76 -146 -232t-150 -259l-60 -1q2 39 -28 199q-12 57 -31 158q-128 -218 -184 -356l-61 -1q-2 55 -17 137q-11 63 -23 125q-17 104 -41 195q-6 4 -20 4h-10l1 31h133q1 -67 19 -179q15 -87 31 -175q31 52 79 146q41 79 81 158q-2 19 -29 19h-10v31h128
q5 -117 54 -356q82 120 180 312q-4 13 -27 13h-10l1 31h140z" />
    <glyph glyph-name="x" unicode="x" horiz-adv-x="494" 
d="M503 485l-1 -20q-55 -48 -206 -204q19 -49 77 -180q24 -49 39 -49q14 0 43 17l10 -28q-50 -31 -85 -31q-66 0 -84 46q-44 110 -69 171q-49 -49 -131 -172q7 -4 21 -4h10v-31h-137v20q56 52 113 117q70 81 103 114q-29 66 -98 200q-6 3 -30 3h-10v31h137q18 -72 68 -181
q85 83 123 146q-6 4 -21 4h-10v31h138z" />
    <glyph glyph-name="y" unicode="y" horiz-adv-x="496" 
d="M540 465q-59 -72 -140 -194l-200 -303q-56 -83 -78 -118q-41 -67 -67 -123l-97 1q92 113 172 235l32 49l-16 106q-12 74 -71 333q-6 3 -19 3h-9l-1 31h133q7 -74 63 -375q71 110 104 164q56 91 98 176q-7 4 -21 4h-11l1 31h128z" />
    <glyph glyph-name="z" unicode="z" horiz-adv-x="451" 
d="M465 457q-72 -72 -184 -204q-137 -161 -180 -208q155 3 253 11q7 8 10 23l2 10h32l-19 -89h-402v33q69 66 183 202q134 159 178 207h-20q-130 0 -198 -7q-4 -7 -7 -19l-2 -10h-32q6 18 18 79h368v-28z" />
    <glyph glyph-name="braceleft" unicode="{" horiz-adv-x="509" 
d="M536 739l-12 -51h-28q-59 0 -88 -34q-24 -28 -40 -101l-26 -118q-16 -70 -38 -105q-26 -42 -76 -62q51 -25 51 -87q0 -30 -12 -81l-26 -118q-10 -45 -10 -70q0 -64 75 -64h11q7 1 11 1h10l-11 -51h-33q-79 0 -111.5 22t-32.5 76q0 34 12 91l27 119q8 35 8 60q0 77 -91 77
h-16q-10 -1 -16 -1l12 52h16q10 -1 16 -1q61 0 95 34q32 31 48 104l26 117q24 109 66 148q46 43 150 43h33z" />
    <glyph glyph-name="bar" unicode="|" horiz-adv-x="509" 
d="M400 758l-216 -974h-73l216 974h73z" />
    <glyph glyph-name="braceright" unicode="}" horiz-adv-x="509" 
d="M436 294l-11 -52q-18 1 -32 1q-62 0 -94.5 -32t-48.5 -105l-27 -119q-24 -108 -66 -147q-45 -42 -149 -42h-33l11 51h29q59 0 87 33q24 28 40 100l26 118q16 71 38 106q26 42 76 62q-51 24 -51 86q0 30 12 81l26 118q10 46 10 71q0 65 -75 65q-3 0 -10 -1h-12h-10l11 51
h33q79 0 111.5 -23t32.5 -77q0 -34 -12 -91l-26 -117q-8 -36 -8 -60q0 -78 90 -78q5 0 16 1h16z" />
    <glyph glyph-name="asciitilde" unicode="~" horiz-adv-x="842" 
d="M761 304q-120 -85 -199 -85q-51 0 -142 49t-139 49t-106 -34q-14 -8 -93 -63v79q124 86 199 86q51 0 143 -49.5t138 -49.5q48 0 106 34q16 9 93 64v-80z" />
    <glyph glyph-name="Adieresis" unicode="&#xc4;" horiz-adv-x="644" 
d="M570 30l-1 -30h-140q-8 79 -38 248q-37 2 -110 2q-70 0 -108 -2q-24 -36 -120 -217q5 -1 17 -1h11l-1 -31h-132q109 163 418 687h40q19 -123 123 -648q10 -8 30 -8h11zM381 300l-39 242q-35 -59 -139 -242q94 -2 82 -2q14 0 42 1q32 1 54 1zM514 802q0 -25 -16.5 -42
t-41.5 -17q-24 0 -41.5 17t-17.5 42q0 23 18 41t41 18q24 0 41 -18t17 -41zM343 802q0 -25 -17 -42t-41 -17q-25 0 -41.5 17t-16.5 42q0 23 17 41t41 18q23 0 40.5 -18t17.5 -41z" />
    <glyph glyph-name="Aring" unicode="&#xc5;" horiz-adv-x="644" 
d="M570 30l-1 -30h-141q-8 79 -37 248q-37 2 -111 2q-70 0 -107 -2q-24 -36 -120 -217q5 -1 17 -1h10v-31h-132q109 163 417 687h41q19 -123 123 -648q10 -8 30 -8h11zM381 300l-39 242q-35 -59 -139 -242q94 -2 82 -2q14 0 42 1q32 1 54 1zM476 839q0 -47 -30.5 -76
t-76.5 -29q-44 0 -73.5 30t-29.5 74q0 45 29.5 74t74.5 29q47 0 76.5 -28t29.5 -74zM424 840q0 67 -53 67t-53 -71q0 -67 51 -67q55 0 55 71z" />
    <glyph glyph-name="Ccedilla" unicode="&#xc7;" horiz-adv-x="630" 
d="M655 653l-26 -118l-33 1q6 20 6 31q0 50 -48 77q-40 23 -95 23q-130 0 -222 -138q-85 -127 -85 -280q0 -92 42 -148q45 -60 121 -60q74 0 128 26q45 21 106 75l15 -34q-123 -121 -252 -121q-27 0 -53 3l-22 -37q9 1 19 1q38 0 61 -17.5t23 -47.5q0 -9 -2 -18
q-18 -79 -138 -79q-47 0 -77 10q-15 5 -47 23l31 39q46 -29 94 -29q68 0 68 46q0 37 -47 37q-11 0 -39 -5l50 81q-197 41 -197 258q0 194 122.5 328t292.5 134q122 0 204 -61z" />
    <glyph glyph-name="Eacute" unicode="&#xc9;" horiz-adv-x="537" 
d="M537 680l-22 -96h-30q7 31 -2 38q-98 7 -209 7h-12q-26 -109 -50 -214l-7 -34l243 6l-13 -59q-138 5 -242 5l-7 -34q-15 -66 -54 -248h15q102 0 227 9q11 7 18 36h30q-4 -18 -11.5 -49t-10.5 -48h-385q37 129 85 348q38 169 59 289q-3 14 -27 14h-9v30h414zM529 885
q-4 -20 -45 -48l-144 -99h-49l136 162q27 32 61 32q21 0 33.5 -14t7.5 -33z" />
    <glyph glyph-name="Ntilde" unicode="&#xd1;" horiz-adv-x="755" 
d="M748 650h-12q-22 0 -32 -12q-54 -212 -100 -422q-16 -72 -47 -219h-37q-200 344 -320 514q-2 -8 -27 -118q-30 -137 -72 -351q5 -12 27 -12h15v-30h-163v30h12q22 0 31 12q68 254 131 538l22 102h43q149 -248 150 -249q97 -158 166 -256q5 20 18 80q45 200 78 379
q-4 14 -27 14h-15v30h158zM625 858q-22 -53 -45 -76q-32 -33 -83 -33q-22 0 -66 21t-62 21q-25 0 -50 -49l-44 1q27 56 48 78q33 34 84 34q22 0 65 -21.5t59 -21.5q25 0 49 46h45z" />
    <glyph glyph-name="Odieresis" unicode="&#xd6;" horiz-adv-x="794" 
d="M724 435q1 -187 -121 -317.5t-288 -130.5q-125 0 -197 66.5t-73 191.5q-1 177 114 310q119 137 295 137q122 0 192 -62q77 -68 78 -195zM612 438q-2 209 -160 209q-134 0 -220 -138q-76 -122 -75 -267q2 -210 161 -210q127 0 214 129q81 122 80 277zM610 792
q0 -25 -16.5 -42t-41.5 -17q-24 0 -41.5 17t-17.5 42q0 23 17.5 40.5t41.5 17.5t41 -17.5t17 -40.5zM439 792q0 -25 -17 -42t-42 -17q-24 0 -41 17t-17 42q0 23 17.5 40.5t40.5 17.5q24 0 41.5 -17.5t17.5 -40.5z" />
    <glyph glyph-name="Udieresis" unicode="&#xdc;" horiz-adv-x="744" 
d="M755 648h-10q-25 0 -30.5 -16t-93.5 -391q-29 -123 -93 -183q-78 -71 -222 -71q-232 0 -232 195q0 47 13 106q28 116 79 349q-5 11 -27 11h-10v32h148l-84 -361q-19 -86 -19 -137q0 -70 36.5 -104t123.5 -34q101 0 155 67q40 50 71 169q25 96 76 357q-4 12 -29 12h-12v31
l160 -1v-31zM593 792q0 -25 -17 -42t-41 -17q-25 0 -42 17t-17 42q0 23 17.5 40.5t41.5 17.5q23 0 40.5 -17.5t17.5 -40.5zM422 792q0 -25 -17 -42t-42 -17q-24 0 -41 17t-17 42q0 23 17 40.5t41 17.5t41.5 -17.5t17.5 -40.5z" />
    <glyph glyph-name="aacute" unicode="&#xe1;" horiz-adv-x="569" 
d="M535 454q-61 -236 -87 -393q-2 -10 3 -18.5t12 -8.5q21 0 52 16l10 -31q-58 -29 -103 -29q-59 0 -59 45q0 29 6 45q-63 -90 -145 -90q-173 0 -173 175q0 144 108 235q101 86 242 86q3 0 59 -10q20 20 54 20q24 0 24 -19q0 -8 -3 -23zM437 425q-20 13 -44 13
q-109 0 -177 -83q-63 -77 -63 -186q0 -131 83 -131q43 0 83 39q45 44 63 118zM508 703q-4 -21 -45 -49l-145 -99h-49l137 163q27 32 61 32q21 0 33 -14t8 -33z" />
    <glyph glyph-name="agrave" unicode="&#xe0;" horiz-adv-x="569" 
d="M535 454q-61 -236 -87 -393q-2 -10 3 -18.5t12 -8.5q21 0 52 16l10 -31q-58 -29 -103 -29q-59 0 -59 45q0 29 6 45q-63 -90 -145 -90q-173 0 -173 175q0 144 108 235q101 86 242 86q3 0 59 -10q20 20 54 20q24 0 24 -19q0 -8 -3 -23zM437 425q-20 13 -44 13
q-109 0 -177 -83q-63 -77 -63 -186q0 -131 83 -131q43 0 83 39q45 44 63 118zM462 555h-44l-159 101q-29 19 -29 49q0 19 14 32t35 13q26 0 52 -32z" />
    <glyph glyph-name="acircumflex" unicode="&#xe2;" horiz-adv-x="569" 
d="M535 454q-61 -236 -87 -393q-2 -10 3 -18.5t12 -8.5q21 0 52 16l10 -31q-58 -29 -103 -29q-59 0 -59 45q0 29 6 45q-63 -90 -145 -90q-173 0 -173 175q0 144 108 235q101 86 242 86q3 0 59 -10q20 20 54 20q24 0 24 -19q0 -8 -3 -23zM437 425q-20 13 -44 13
q-109 0 -177 -83q-63 -77 -63 -186q0 -131 83 -131q43 0 83 39q45 44 63 118zM500 555h-50l-88 98l-132 -98h-50l163 169q18 21 40 21q23 0 29 -21z" />
    <glyph glyph-name="adieresis" unicode="&#xe4;" horiz-adv-x="569" 
d="M535 454q-61 -236 -87 -393q-2 -10 3 -18.5t12 -8.5q21 0 52 16l10 -31q-58 -29 -103 -29q-59 0 -59 45q0 29 6 45q-63 -90 -145 -90q-173 0 -173 175q0 144 108 235q101 86 242 86q3 0 59 -10q20 20 54 20q24 0 24 -19q0 -8 -3 -23zM437 425q-20 13 -44 13
q-109 0 -177 -83q-63 -77 -63 -186q0 -131 83 -131q43 0 83 39q45 44 63 118zM492 640q0 -25 -16.5 -42t-40.5 -17q-25 0 -42 17t-17 42q0 23 17.5 41t41.5 18q23 0 40 -18t17 -41zM322 640q0 -25 -17.5 -42t-41.5 -17q-25 0 -41.5 17t-16.5 42q0 23 17 41t41 18
q23 0 41 -18t18 -41z" />
    <glyph glyph-name="atilde" unicode="&#xe3;" horiz-adv-x="569" 
d="M535 454q-61 -236 -87 -393q-2 -10 3 -18.5t12 -8.5q21 0 52 16l10 -31q-58 -29 -103 -29q-59 0 -59 45q0 29 6 45q-63 -90 -145 -90q-173 0 -173 175q0 144 108 235q101 86 242 86q3 0 59 -10q20 20 54 20q24 0 24 -19q0 -8 -3 -23zM437 425q-20 13 -44 13
q-109 0 -177 -83q-63 -77 -63 -186q0 -131 83 -131q43 0 83 39q45 44 63 118zM524 706q-22 -53 -45 -76q-32 -33 -83 -33q-22 0 -66 21t-62 21q-25 0 -50 -48h-44q27 56 48 78q33 34 84 34q22 0 65 -21.5t59 -21.5q25 0 49 46h45z" />
    <glyph glyph-name="aring" unicode="&#xe5;" horiz-adv-x="569" 
d="M535 454q-61 -236 -87 -393q-2 -10 3 -18.5t13 -8.5q20 0 51 16l10 -31q-58 -29 -103 -29q-59 0 -59 45q0 29 6 45q-63 -90 -145 -90q-172 0 -172 175q0 144 107 235q101 86 242 86q3 0 59 -10q20 20 54 20q24 0 24 -19q0 -8 -3 -23zM437 425q-20 13 -44 13
q-109 0 -177 -83q-63 -77 -63 -186q0 -131 83 -131q43 0 83 39q45 44 63 118zM463 675q0 -48 -30.5 -77t-77.5 -29q-44 0 -73.5 30t-29.5 74q0 45 30 74.5t75 29.5q46 0 76 -28.5t30 -73.5zM410 675q0 67 -53 67t-53 -71q0 -67 52 -67q54 0 54 71z" />
    <glyph glyph-name="ccedilla" unicode="&#xe7;" horiz-adv-x="458" 
d="M464 460l-21 -92h-34q6 17 6 24q0 61 -70 61q-95 0 -155 -99q-52 -85 -52 -188q0 -69 20.5 -100.5t68.5 -31.5q97 0 152 95l30 -19q-24 -44 -65 -76q-59 -46 -136 -46q-17 0 -32 1l-22 -36q10 1 20 1q37 0 60 -17.5t23 -47.5q0 -9 -2 -18q-17 -79 -138 -79q-47 0 -77 10
q-15 5 -47 23l31 39q46 -29 95 -29q68 0 68 46q0 37 -48 37q-11 0 -38 -5l49 80q-116 24 -116 175q0 135 85 230q88 99 219 99q51 0 74 -6q28 -7 52 -31z" />
    <glyph glyph-name="eacute" unicode="&#xe9;" horiz-adv-x="460" 
d="M460 396q1 -65 -68 -107q-83 -50 -248 -50q-9 -36 -9 -70q2 -132 95 -132q100 0 145 92l30 -19q-14 -45 -60 -81q-50 -40 -110 -40q-197 0 -198 187q-1 127 79 223q84 100 208 100q135 0 136 -103zM371 396q0 26 -16 43.5t-40 17.5q-64 0 -113 -70q-35 -50 -50 -109
q124 0 177 33q43 28 42 85zM479 703q-5 -21 -46 -49l-144 -99h-49l137 163q26 32 61 32q20 0 32.5 -14t8.5 -33z" />
    <glyph glyph-name="egrave" unicode="&#xe8;" horiz-adv-x="460" 
d="M460 396q1 -65 -68 -107q-83 -50 -248 -50q-9 -36 -9 -70q2 -132 95 -132q100 0 145 92l30 -19q-14 -45 -60 -81q-50 -40 -110 -40q-197 0 -198 187q-1 127 79 223q84 100 208 100q135 0 136 -103zM371 396q0 26 -16 43.5t-40 17.5q-64 0 -113 -70q-35 -50 -50 -109
q124 0 177 33q43 28 42 85zM431 555h-44l-159 101q-29 19 -29 49q0 19 14 32t34 13q27 0 53 -32z" />
    <glyph glyph-name="ecircumflex" unicode="&#xea;" horiz-adv-x="460" 
d="M460 396q1 -65 -68 -107q-83 -50 -248 -50q-9 -36 -9 -70q2 -132 95 -132q100 0 145 92l30 -19q-14 -45 -60 -81q-51 -40 -110 -40q-197 0 -198 187q-2 127 79 223q84 100 208 100q135 0 136 -103zM371 396q0 26 -16 43.5t-40 17.5q-64 0 -113 -70q-35 -50 -50 -109
q124 0 177 33q43 28 42 85zM481 555h-50l-88 98l-132 -98h-50l163 169q18 21 40 21q23 0 29 -21z" />
    <glyph glyph-name="edieresis" unicode="&#xeb;" horiz-adv-x="460" 
d="M460 396q0 -65 -68 -107q-83 -50 -248 -50q-9 -36 -9 -70q1 -132 95 -132q100 0 144 92l30 -19q-14 -45 -59 -81q-51 -40 -111 -40q-196 0 -198 187q-1 127 80 223q84 100 208 100q135 0 136 -103zM371 396q0 26 -16 43.5t-40 17.5q-64 0 -113 -70q-35 -50 -50 -109
q124 0 176 33q44 28 43 85zM476 640q0 -25 -17 -42t-41 -17q-25 0 -42 17t-17 42q0 23 17.5 41t41.5 18q23 0 40.5 -18t17.5 -41zM305 640q0 -25 -17.5 -42t-41.5 -17t-41 17t-17 42q0 23 17 41t41 18t41.5 -18t17.5 -41z" />
    <glyph glyph-name="iacute" unicode="&#xed;" 
d="M242 485q-17 -54 -56 -228q-25 -115 -39 -196q-4 -27 21 -27q20 0 46 16l11 -31q-59 -29 -106 -29q-61 0 -61 48q0 31 41 219q20 89 36 173q1 24 -29 24h-10v31h146zM286 652l-136 -102h-45l130 167q25 33 57 33q38 0 38 -38q0 -27 -44 -60z" />
    <glyph glyph-name="igrave" unicode="&#xec;" 
d="M242 485q-17 -54 -56 -228q-25 -115 -39 -196q-4 -27 21 -27q20 0 46 16l11 -31q-59 -29 -106 -29q-61 0 -61 48q0 31 41 219q20 89 36 173q1 24 -29 24h-10v31h146zM288 552h-41l-145 103q-27 19 -26 49q0 20 13 33t33 13q24 0 47 -33z" />
    <glyph glyph-name="icircumflex" unicode="&#xee;" 
d="M242 485q-17 -54 -56 -228q-25 -115 -39 -196q-4 -27 21 -27q20 0 46 16l11 -31q-59 -29 -106 -29q-61 0 -61 48q0 31 41 219q20 89 36 173q1 24 -29 24h-10v31h146zM322 553h-43l-72 100l-115 -100h-43l145 171q16 21 34 21q20 0 24 -21z" />
    <glyph glyph-name="idieresis" unicode="&#xef;" 
d="M242 485q-17 -54 -56 -228q-25 -115 -39 -196q-4 -27 21 -27q20 0 46 16l11 -31q-59 -29 -106 -29q-61 0 -61 48q0 31 41 219q20 89 36 173q1 24 -29 24h-10v31h146zM345 640q0 -25 -17 -42t-41 -17q-25 0 -42 17t-17 42q0 23 17.5 41t41.5 18q23 0 40.5 -18t17.5 -41z
M174 640q0 -25 -17 -42t-42 -17q-24 0 -41 17t-17 42q0 23 17.5 41t40.5 18q24 0 41.5 -18t17.5 -41z" />
    <glyph glyph-name="ntilde" unicode="&#xf1;" horiz-adv-x="585" 
d="M530 16q-58 -28 -105 -28q-65 0 -65 48q0 58 33.5 179t33.5 167q0 57 -51 57q-69 0 -125 -69q-48 -58 -65 -132l-11 -52q-11 -50 -27 -131q-1 -23 29 -23h10v-32h-150q21 70 43 173l34 151q10 46 20 107q3 15 -3.5 19t-24.5 4h-10l-1 31h137q-2 -36 -17 -109q28 48 74 82
q56 42 115 42q115 0 115 -113q0 -33 -9 -75q-3 -14 -36 -137q-23 -83 -23 -116q0 -27 18 -27q20 0 51 16zM551 706q-22 -53 -45 -76q-32 -33 -83 -33q-22 0 -66 21t-62 21q-26 0 -51 -48h-44q28 56 49 78q33 34 84 34q22 0 65 -21.5t59 -21.5q25 0 49 46h45z" />
    <glyph glyph-name="oacute" unicode="&#xf3;" horiz-adv-x="546" 
d="M515 299q1 -128 -78 -219q-82 -93 -204 -93q-100 0 -152 56q-48 52 -48 146q-2 125 78 215q83 94 209 94q92 0 143 -52t52 -147zM417 309q-1 145 -99 145q-91 0 -144 -97q-45 -81 -44 -179q1 -68 19 -101q23 -46 83 -46q89 0 142 99q44 82 43 179zM502 703
q-5 -21 -46 -49l-144 -99h-49l137 163q26 32 61 32q20 0 32.5 -14t8.5 -33z" />
    <glyph glyph-name="ograve" unicode="&#xf2;" horiz-adv-x="546" 
d="M515 299q1 -128 -78 -219q-82 -93 -204 -93q-100 0 -152 56q-48 52 -48 146q-2 125 78 215q83 94 209 94q92 0 143 -52t52 -147zM417 309q-1 145 -99 145q-91 0 -144 -97q-45 -81 -44 -179q1 -68 19 -101q23 -46 83 -46q89 0 142 99q44 82 43 179zM445 555h-44l-159 101
q-29 19 -29 49q0 19 14 32t34 13q27 0 52 -32z" />
    <glyph glyph-name="ocircumflex" unicode="&#xf4;" horiz-adv-x="546" 
d="M515 299q1 -128 -78 -219q-82 -93 -204 -93q-100 0 -152 56q-48 52 -49 146q-1 125 79 215q83 94 209 94q92 0 143 -52t52 -147zM417 309q-1 145 -99 145q-91 0 -144 -97q-45 -81 -44 -179q1 -68 19 -101q23 -46 83 -46q89 0 142 99q44 82 43 179zM512 555h-51l-88 98
l-132 -98h-50l164 169q17 21 39 21q23 0 29 -21z" />
    <glyph glyph-name="odieresis" unicode="&#xf6;" horiz-adv-x="546" 
d="M515 299q1 -128 -78 -219q-82 -93 -204 -93q-100 0 -152 56q-48 52 -49 146q-1 125 79 215q83 94 209 94q92 0 143 -52t52 -147zM417 309q-1 145 -99 145q-91 0 -145 -97q-44 -81 -43 -179q1 -68 18 -101q24 -46 84 -46q89 0 142 99q44 82 43 179zM516 640
q0 -25 -16.5 -42t-41.5 -17q-24 0 -41.5 17t-17.5 42q0 23 18 41t41 18q24 0 41 -18t17 -41zM345 640q0 -25 -17 -42t-41 -17q-25 0 -41.5 17t-16.5 42q0 23 17 41t41 18q23 0 40.5 -18t17.5 -41z" />
    <glyph glyph-name="otilde" unicode="&#xf5;" horiz-adv-x="546" 
d="M515 299q1 -128 -78 -219q-82 -93 -204 -93q-100 0 -152 56q-48 52 -49 146q-1 125 79 215q83 94 209 94q92 0 143 -52t52 -147zM417 309q-1 145 -99 145q-91 0 -145 -97q-44 -81 -43 -179q1 -68 18 -101q24 -46 84 -46q89 0 142 99q44 82 43 179zM550 706
q-22 -53 -45 -76q-32 -33 -83 -33q-22 0 -66 21t-62 21q-26 0 -51 -48h-44q28 56 49 78q33 34 84 34q22 0 65 -21.5t59 -21.5q25 0 49 46h45z" />
    <glyph glyph-name="uacute" unicode="&#xfa;" horiz-adv-x="571" 
d="M543 485q-26 -105 -53 -211q-29 -123 -44 -213q-2 -10 3 -18.5t12 -8.5q21 0 52 16l10 -31q-58 -29 -105 -29q-59 0 -59 48q0 32 4 46q-31 -37 -80 -65q-52 -31 -94 -31q-124 0 -124 127q0 83 67 326q-4 13 -30 13h-10l1 31h147q-84 -281 -84 -376q0 -62 61 -62
q58 0 106 49q45 46 63 114q36 141 49 230q-1 14 -30 14h-10v31h148zM490 703q-4 -21 -45 -49l-144 -99h-49l136 163q27 32 61 32q21 0 33.5 -14t7.5 -33z" />
    <glyph glyph-name="ugrave" unicode="&#xf9;" horiz-adv-x="571" 
d="M543 485q-26 -105 -53 -211q-29 -123 -44 -213q-2 -10 3 -18.5t12 -8.5q21 0 52 16l10 -31q-58 -29 -105 -29q-59 0 -59 48q0 32 4 46q-31 -37 -80 -65q-52 -31 -94 -31q-124 0 -124 127q0 83 67 326q-4 13 -30 13h-10l1 31h147q-84 -281 -84 -376q0 -62 61 -62
q58 0 106 49q45 46 63 114q36 141 49 230q-1 14 -30 14h-10v31h148zM424 555h-44l-159 101q-29 19 -29 49q0 19 14 32t35 13q26 0 52 -32z" />
    <glyph glyph-name="ucircumflex" unicode="&#xfb;" horiz-adv-x="571" 
d="M543 485q-26 -105 -53 -211q-29 -123 -44 -213q-2 -10 3 -18.5t12 -8.5q21 0 52 16l10 -31q-58 -29 -105 -29q-59 0 -59 48q0 32 4 46q-31 -37 -80 -65q-52 -31 -94 -31q-124 0 -124 127q0 83 67 326q-4 13 -30 13h-10l1 31h147q-84 -281 -84 -376q0 -62 61 -62
q58 0 106 49q45 46 63 114q36 141 49 230q-1 14 -30 14h-10v31h148zM503 555h-50l-88 98l-132 -98h-50l163 169q18 21 40 21q23 0 29 -21z" />
    <glyph glyph-name="udieresis" unicode="&#xfc;" horiz-adv-x="571" 
d="M543 485q-26 -105 -53 -211q-29 -123 -44 -213q-2 -10 3 -18.5t12 -8.5q21 0 52 16l10 -31q-58 -29 -105 -29q-59 0 -59 48q0 32 4 46q-31 -37 -80 -65q-52 -31 -94 -31q-124 0 -124 127q0 83 67 326q-4 13 -30 13h-10l1 31h147q-84 -281 -84 -376q0 -62 61 -62
q58 0 106 49q45 46 63 114q36 141 49 230q-1 14 -30 14h-10v31h148zM495 640q0 -25 -16.5 -42t-40.5 -17q-25 0 -42 17t-17 42q0 23 17.5 41t41.5 18q23 0 40 -18t17 -41zM325 640q0 -25 -17.5 -42t-41.5 -17q-25 0 -41.5 17t-16.5 42q0 23 17 41t41 18q23 0 41 -18t18 -41z
" />
    <glyph glyph-name="dagger" unicode="&#x2020;" horiz-adv-x="576" 
d="M523 475l-17 -78q-47 8 -140 8h-29q-7 -27 -23 -97q-46 -211 -84 -412h-88q52 201 98 412q8 35 21 97h-29q-94 0 -143 -8l17 78q70 -9 149 -9h20q26 118 45 235h89q-28 -96 -58 -235h21q81 0 151 9z" />
    <glyph glyph-name="degree" unicode="&#xb0;" horiz-adv-x="339" 
d="M315 581q0 -60 -42.5 -103t-103.5 -43t-103 42.5t-42 103.5t42.5 103.5t103.5 42.5q60 0 102.5 -42.5t42.5 -103.5zM261 581q0 38 -27 65t-64 27q-38 0 -65 -27t-27 -65t27 -64.5t65 -26.5t64.5 26.5t26.5 64.5z" />
    <glyph glyph-name="cent" unicode="&#xa2;" horiz-adv-x="576" 
d="M507 457l-10 -81q-32 49 -75 70l-186 -389q38 -25 85 -25q49 0 87 29q12 9 52 53v-76q-65 -51 -170 -51q-40 0 -86 14l-68 -124h-54l78 143q-37 21 -66 70q-34 60 -34 131q0 115 87 195.5t204 80.5q23 0 44 -2l45 92h53l-48 -102q34 -10 62 -28zM370 454q-8 1 -16 1
q-74 0 -131.5 -68t-57.5 -165q0 -83 32 -126z" />
    <glyph glyph-name="sterling" unicode="&#xa3;" horiz-adv-x="576" 
d="M572 549q-44 103 -119 103q-88 0 -131 -107q-19 -48 -41 -183q73 -1 149 5v-64q-53 3 -157 3q-31 -134 -143 -239q111 28 190 28q76 0 176 -12l-19 -86q-117 16 -209 16q-146 0 -241 -26l-14 44q86 36 118 111q12 30 37 162q-66 0 -103 -7v67q23 -3 110 -1q25 155 69 230
q66 112 197 112q75 0 131 -52v-104z" />
    <glyph glyph-name="section" unicode="&#xa7;" horiz-adv-x="576" 
d="M540 658l-19 -81q-11 41 -46 69t-77 28q-54 0 -100 -32q-51 -36 -51 -86q0 -44 65 -79l120 -62q64 -43 64 -106q0 -77 -98 -165q22 -16 22 -65q0 -84 -73.5 -140.5t-168.5 -56.5q-90 0 -163 59l19 82q47 -91 146 -91q61 0 107 27q55 32 55 89q0 45 -68 81q-63 31 -127 61
q-68 42 -68 104q0 55 31 96q23 32 76 70q-13 16 -13 45q0 89 66.5 153.5t156.5 64.5q95 0 144 -65zM419 277q0 36 -84 83q-58 32 -117 64q-27 -10 -45 -35t-18 -54q0 -42 86 -92l124 -64q21 14 37.5 43t16.5 55z" />
    <glyph glyph-name="bullet" unicode="&#x2022;" horiz-adv-x="599" 
d="M433 381q0 -56 -39.5 -95.5t-94.5 -39.5q-56 0 -95 39.5t-39 95.5q0 55 39.5 94t95.5 39q55 0 94 -39t39 -94z" />
    <glyph glyph-name="paragraph" unicode="&#xb6;" horiz-adv-x="509" 
d="M542 648h-53l-167 -752h-60l167 752h-72l-167 -752h-60l100 447q-65 0 -104.5 43t-39.5 105q0 103 74 160q67 51 167 51h215v-54z" />
    <glyph glyph-name="germandbls" unicode="&#xdf;" horiz-adv-x="585" 
d="M557 657q0 -49 -44 -97l-82 -76q-45 -42 -45 -74q0 -26 42 -63q70 -62 77 -69q41 -47 41 -96q0 -89 -74 -142q-67 -47 -162 -47q-67 0 -101 36l22 98h35q-8 -35 -7 -54q37 -25 73 -25q120 0 120 110q0 44 -40 84q-37 32 -74 63q-39 38 -39 77q0 49 47 98l88 82
q47 51 47 104q0 26 -19.5 41t-46.5 15q-76 0 -115 -67q-23 -41 -51 -160q-17 -72 -71 -314q-38 -170 -100 -285q-92 -169 -217 -169q-74 0 -111 44l21 91h35l-2 -9q-2 -11 -2 -22q0 -59 69 -59q103 0 192 311q38 131 101 463q18 96 82 157q69 65 165 65q146 0 146 -111z" />
    <glyph glyph-name="registered" unicode="&#xae;" horiz-adv-x="842" 
d="M788 362q0 -153 -108 -260.5t-260 -107.5q-150 0 -258 109t-108 259q0 151 107.5 259t258.5 108q153 0 260.5 -107.5t107.5 -259.5zM745 361q0 136 -94.5 233t-230.5 97q-131 0 -226.5 -98.5t-95.5 -230.5t95.5 -230.5t226.5 -98.5q134 0 229.5 96.5t95.5 231.5zM608 170
h-48q-24 0 -34 4.5t-22 21.5q-22 33 -50 78q-23 44 -70 119h20q91 0 91 79q0 72 -87 72q-16 0 -42 -2q-2 -17 -2 -54v-221q0 -44 1 -66q8 -3 15 -3h11v-28h-97q5 86 5 205q0 94 -3 163q-10 15 -14 15h-10v27h10h25q16 -1 24 -1q11 0 43.5 1t51.5 1q139 0 139 -102
q0 -86 -97 -110q35 -52 119 -167q17 -3 21 -3v-29z" />
    <glyph glyph-name="copyright" unicode="&#xa9;" horiz-adv-x="842" 
d="M788 362q0 -153 -108 -260.5t-260 -107.5q-150 0 -258 109t-108 259q0 151 107.5 259t258.5 108q153 0 260.5 -107.5t107.5 -259.5zM745 361q0 136 -94.5 233t-230.5 97q-131 0 -226.5 -98.5t-95.5 -230.5t95.5 -230.5t226.5 -98.5q134 0 229.5 96.5t95.5 231.5zM570 197
q-56 -49 -131 -49q-209 0 -209 212q0 95 56 154t156 59q72 0 122 -32v-80h-27v11q0 6 -5 18q-34 47 -92 47q-63 0 -97 -48t-34 -129t37 -126t100 -45q61 0 124 71v-63z" />
    <glyph glyph-name="trademark" unicode="&#x2122;" horiz-adv-x="842" 
d="M798 362h-92q-6 78 -22 223q-82 -144 -110 -222h-31q-31 80 -103 218q-8 -63 -22 -186q2 -1 24 -1v-32h-89q21 95 47 305l7 63h30q43 -87 132 -258q44 87 135 258h31q6 -61 39 -337h24v-31zM329 661h-32q0 22 -2 26q-35 5 -73 5h-2q-2 -29 -2 -108q0 -68 2 -185
q3 -1 20 -1v-32l-92 -1q3 126 3 248v79q-54 0 -76 -2q-2 -4 -2 -29h-32v66q49 -1 145 -1q94 0 141 1z" />
    <glyph glyph-name="acute" unicode="&#xb4;" 
d="M347 703q-4 -21 -45 -49l-145 -99h-49l137 163q27 32 61 32q21 0 33 -14t8 -33z" />
    <glyph glyph-name="dieresis" unicode="&#xa8;" 
d="M383 640q0 -25 -16.5 -42t-41.5 -17q-24 0 -41.5 17t-17.5 42q0 23 17.5 41t41.5 18t41 -18t17 -41zM212 640q0 -25 -17 -42t-42 -17q-24 0 -40.5 17t-16.5 42q0 23 17 41t40 18q24 0 41.5 -18t17.5 -41z" />
    <glyph glyph-name="AE" unicode="&#xc6;" horiz-adv-x="825" 
d="M843 701l-22 -99h-31q7 32 -3 39q-100 8 -214 8h-13q-27 -113 -51 -222l-8 -34l250 6l-13 -61q-142 6 -249 6l-8 -36q-15 -68 -55 -255h15q105 0 235 9q11 7 18 37h31q-8 -32 -23 -100q-64 2 -180 2q-141 0 -217 -2q31 109 65 257q-41 1 -76 1q-80 0 -119 -1
q-52 -73 -145 -224q5 -1 17 -1h10v-32h-145q314 431 487 702h444zM454 654h-22q-100 -159 -226 -345l95 -2q15 0 36.5 1t45.5 1l10 49q38 168 61 296z" />
    <glyph glyph-name="Oslash" unicode="&#xd8;" horiz-adv-x="794" 
d="M758 722l-76 -89q74 -77 74 -210q0 -194 -114 -315.5t-304 -121.5q-102 0 -175 43l-63 -72h-67l88 103q-84 77 -84 211q0 197 115.5 319.5t309.5 122.5q106 0 178 -46l46 55h72zM595 615q-44 49 -130 49q-155 0 -242 -137q-75 -119 -75 -286q0 -69 25 -120zM645 457
q0 60 -20 110l-420 -488q47 -44 138 -44q149 0 232 140q70 118 70 282z" />
    <glyph glyph-name="plusminus" unicode="&#xb1;" horiz-adv-x="842" 
d="M723 302h-268v-220h-68v220h-268v68h268v219h68v-219h268v-68zM723 -76h-604v68h604v-68z" />
    <glyph glyph-name="yen" unicode="&#xa5;" horiz-adv-x="576" 
d="M626 702q-88 -108 -262 -327h148l-1 -44h-179l-8 -11q-6 -24 -16 -63h178l-1 -44h-185q-20 -92 -33 -170q4 -12 25 -12h10v-31h-144q29 103 45 173q4 19 8 40h-175l2 44h183q5 22 12 57l-5 17h-166l2 44h150q-38 94 -112 293q-5 2 -15 2h-10v31h123q38 -142 111 -321
q71 89 201 286q-6 4 -18 4h-10v31q120 0 142 1z" />
    <glyph glyph-name="mu" unicode="&#xb5;" horiz-adv-x="1030" 
d="M948 536l-408 -262l286 -260l-29 -24l-293 262l-388 -258l-23 20l391 260l-287 264l31 20l290 -263l408 263z" />
    <glyph glyph-name="mu" unicode="&#x3bc;" horiz-adv-x="1030" 
d="M948 536l-408 -262l286 -260l-29 -24l-293 262l-388 -258l-23 20l391 260l-287 264l31 20l290 -263l408 263z" />
    <glyph glyph-name="ordfeminine" unicode="&#xaa;" horiz-adv-x="378" 
d="M371 688q-26 -97 -61 -267q8 -6 22 -6h12v-31h-106l4 39q-15 -17 -43 -31t-50 -14q-44 0 -71 26t-27 75q0 103 79 163q72 54 173 54q32 0 68 -8zM313 290v-49h-300l1 49h299zM294 659q-71 -3 -119 -51t-48 -120q0 -69 40 -69q70 0 91 90z" />
    <glyph glyph-name="ordmasculine" unicode="&#xba;" horiz-adv-x="376" 
d="M373 571q0 -77 -57.5 -134t-136.5 -57q-57 0 -93 33t-36 90q0 77 57.5 136t136.5 59q58 0 93.5 -33t35.5 -94zM314 290l-1 -49h-303l-1 49h305zM297 594q0 65 -55 65q-53 0 -87 -64q-29 -54 -29 -115q0 -62 55 -62q53 0 87 62q29 53 29 114z" />
    <glyph glyph-name="ae" unicode="&#xe6;" horiz-adv-x="810" 
d="M810 396q0 -65 -72 -107q-86 -50 -251 -50q-11 -43 -11 -85q0 -117 93 -117q97 0 143 93l28 -21q-22 -47 -64 -80q-50 -40 -108 -40q-150 0 -177 111q-69 -110 -167 -110q-172 0 -172 175q0 144 107 235q101 86 242 86q3 0 59 -10q17 17 48 17q11 0 11 -20q0 -17 -13 -72
q30 46 81 73q45 25 88 25q135 0 135 -103zM721 396q0 26 -16 43.5t-40 17.5q-64 0 -117 -70q-39 -52 -54 -109q227 0 227 118zM432 431q-15 7 -39 7q-109 0 -177 -83q-63 -77 -63 -186q0 -131 83 -131q43 0 84 39q46 44 62 118z" />
    <glyph glyph-name="oslash" unicode="&#xf8;" horiz-adv-x="546" 
d="M543 515l-71 -83q44 -53 44 -136q0 -132 -72 -218q-76 -91 -206 -91q-72 0 -122 30l-58 -68h-53l80 93q-55 55 -55 150q0 126 77 214q81 92 206 92q78 0 130 -38l48 55h52zM398 406q-27 49 -87 49q-90 0 -142 -98q-42 -80 -42 -179q0 -42 10 -75zM419 309q1 25 -5 55
l-257 -299q27 -34 80 -34q89 0 140 99q42 80 42 179z" />
    <glyph glyph-name="questiondown" unicode="&#xbf;" horiz-adv-x="406" 
d="M370 648q0 -28 -20.5 -47.5t-47.5 -19.5q-28 0 -48 19t-20 48q0 28 20 47.5t48 19.5t48 -19.5t20 -47.5zM342 382q-8 -34 -31 -57q-11 -12 -63 -50l-70 -51q-72 -54 -72 -119q0 -59 66 -59q48 0 87 30q15 20 25 63h31q-8 -35 -25 -107q-79 -42 -141 -42
q-63 0 -100.5 30.5t-37.5 84.5q0 18 4 37q16 71 109 136l56 39q43 30 57 44q18 18 23 40q4 19 4 36q0 23 -9 43q-6 12 -13 25l39 6q20 -26 40 -51q23 -34 23 -62q0 -8 -2 -16z" />
    <glyph glyph-name="exclamdown" unicode="&#xa1;" horiz-adv-x="348" 
d="M308 648q0 -28 -20.5 -47.5t-47.5 -19.5q-28 0 -48 19t-20 48q0 28 20 47.5t48 19.5t48 -19.5t20 -47.5zM228 515q-10 -100 -20 -182q-23 -198 -40 -278q-15 -65 -74 -65q-47 0 -47 45q0 9 2 20q27 120 144 460h35z" />
    <glyph glyph-name="logicalnot" unicode="&#xac;" horiz-adv-x="842" 
d="M723 173h-67v196h-537v68h604v-264z" />
    <glyph glyph-name="florin" unicode="&#x192;" horiz-adv-x="576" 
d="M601 677l-7 -91q-32 65 -97 65q-59 0 -100 -112q-16 -43 -40 -155q33 0 121 -2l-5 -51h-130q-33 -124 -96 -335q-88 -254 -235 -254q-54 0 -87 22l7 78q15 -15 47.5 -30.5t54.5 -15.5q68 0 132 241l79 295q-18 -1 -48 -0.5t-48 0.5l4 53h107q41 148 75 207
q65 112 175 112q59 0 91 -27z" />
    <glyph glyph-name="guillemotleft" unicode="&#xab;" horiz-adv-x="443" 
d="M456 444l-147 -199l58 -199l-30 -41l-121 240l228 240zM278 444l-146 -199l58 -199l-31 -41l-120 240l226 240z" />
    <glyph glyph-name="guillemotright" unicode="&#xbb;" horiz-adv-x="443" 
d="M414 245l-228 -240l-11 41l146 199l-58 199l30 41zM236 245l-227 -240l-13 41l147 199l-58 199l31 41z" />
    <glyph glyph-name="ellipsis" unicode="&#x2026;" horiz-adv-x="1009" 
d="M918 57q0 -28 -20.5 -47.5t-47.5 -19.5q-29 0 -48.5 19.5t-19.5 47.5t19.5 48t48.5 20q28 0 48 -20t20 -48zM578 57q0 -28 -20.5 -47.5t-47.5 -19.5q-28 0 -48 19.5t-20 47.5t20 48t48 20t48 -20t20 -48zM238 57q0 -28 -20.5 -47.5t-47.5 -19.5q-28 0 -48 19.5t-20 47.5
t20 48t48 20t48 -20t20 -48z" />
    <glyph glyph-name="nonbreakingspace" unicode="&#xa0;" 
 />
    <glyph glyph-name="Agrave" unicode="&#xc0;" horiz-adv-x="644" 
d="M570 30l-1 -30h-141q-8 79 -37 248q-37 2 -111 2q-70 0 -107 -2q-24 -36 -120 -217q5 -1 17 -1h10v-31h-132q109 163 417 687h41q19 -123 123 -648q10 -8 30 -8h11zM381 300l-39 242q-35 -59 -139 -242q94 -2 82 -2q14 0 42 1q32 1 54 1zM445 738h-44l-159 101
q-29 18 -29 48q0 19 14 32t34 13q27 0 52 -32z" />
    <glyph glyph-name="Atilde" unicode="&#xc3;" horiz-adv-x="644" 
d="M570 30l-1 -30h-140q-8 79 -38 248q-37 2 -110 2q-71 0 -108 -2q-24 -36 -120 -217q5 -1 17 -1h11l-1 -31h-132q109 163 418 687h40q19 -123 123 -648q10 -8 30 -8h11zM381 300l-39 242q-35 -59 -139 -242q94 -2 82 -2q14 0 42 1q32 1 54 1zM552 858q-22 -53 -45 -76
q-32 -33 -83 -33q-22 0 -66 21t-62 21q-25 0 -50 -49l-44 1q27 56 48 78q33 34 84 34q22 0 65 -21.5t59 -21.5q25 0 49 46h45z" />
    <glyph glyph-name="Otilde" unicode="&#xd5;" horiz-adv-x="794" 
d="M724 435q1 -187 -121 -317.5t-288 -130.5q-125 0 -197 66.5t-73 191.5q-1 177 114 310q119 137 295 137q122 0 192 -62q77 -68 78 -195zM612 438q-2 209 -160 209q-134 0 -220 -138q-76 -122 -75 -267q2 -210 161 -210q127 0 214 129q81 122 80 277zM641 858
q-23 -53 -45 -76q-33 -33 -83 -33q-22 0 -66 21t-62 21q-26 0 -51 -49l-44 1q27 56 48 78q34 34 85 34q21 0 64.5 -21.5t58.5 -21.5q26 0 49 46h46z" />
    <glyph glyph-name="OE" unicode="&#x152;" horiz-adv-x="999" 
d="M1019 701l-24 -104h-31q7 32 -2 39q-101 7 -215 7h-13q-27 -112 -50 -216l-8 -34l251 6l-14 -61q-142 6 -249 6l-8 -36q-13 -63 -53 -250h15q105 0 234 9q11 7 18 38h31q-4 -19 -12 -53.5t-12 -52.5q-63 2 -180 2q-135 0 -210 -2q4 24 12 60q-111 -74 -191 -74
q-271 0 -271 274q0 197 114 323q118 131 314 131q57 0 105 -21q42 -18 60 -43q4 22 10 53q251 -3 379 -1zM612 563q-48 96 -149 96q-149 0 -236 -137q-74 -118 -74 -278q0 -102 32 -149q37 -56 125 -56q98 0 211 121q31 121 48 198q19 88 43 205z" />
    <glyph glyph-name="oe" unicode="&#x153;" horiz-adv-x="823" 
d="M823 396q0 -65 -71 -107q-84 -50 -249 -50q-13 -47 -13 -90q0 -112 92 -112q97 0 143 93l28 -21q-22 -46 -65 -80q-51 -40 -110 -40q-140 0 -159 99q-31 -48 -85 -74t-115 -26q-88 0 -136 51t-48 144q0 127 83.5 220.5t208.5 93.5q61 0 107 -32t51 -85q80 119 203 119
q135 0 135 -103zM734 396q0 26 -15.5 43.5t-39.5 17.5q-64 0 -115 -70q-35 -50 -51 -109q124 0 177 33q44 28 44 85zM411 314q0 139 -93 139t-143 -101q-40 -81 -40 -186q0 -135 92 -135q95 0 145 99q39 77 39 184z" />
    <glyph glyph-name="endash" unicode="&#x2013;" horiz-adv-x="509" 
d="M519 215h-519v67h519v-67z" />
    <glyph glyph-name="emdash" unicode="&#x2014;" horiz-adv-x="1009" 
d="M1018 215h-1018v67h1018v-67z" />
    <glyph glyph-name="quotedblleft" unicode="&#x201c;" horiz-adv-x="446" 
d="M388 767q-39 -58 -46 -70q-21 -38 -21 -74q0 -15 24.5 -31.5t24.5 -45.5q0 -26 -20.5 -42.5t-47.5 -16.5q-28 0 -45 19t-17 52q0 90 114 212zM223 767q-39 -58 -46 -70q-21 -38 -21 -74q0 -15 25 -31.5t25 -45.5q0 -26 -20.5 -42.5t-48.5 -16.5t-45 19t-17 52
q0 90 114 212z" />
    <glyph glyph-name="quotedblright" unicode="&#x201d;" horiz-adv-x="446" 
d="M390 699q0 -90 -114 -212l-34 3q39 57 46 70q21 38 21 73q0 16 -25 32t-25 45q0 26 20.5 43t48.5 17q27 0 44.5 -19t17.5 -52zM223 699q0 -90 -114 -212l-34 3q39 57 46 70q21 38 21 73q0 16 -25 32t-25 45q0 26 21 43t48 17q28 0 45 -19t17 -52z" />
    <glyph glyph-name="quoteleft" unicode="&#x2018;" horiz-adv-x="283" 
d="M223 767q-39 -58 -46 -70q-21 -38 -21 -74q0 -15 25 -31.5t25 -45.5q0 -26 -20.5 -42.5t-48.5 -16.5t-45 19t-17 52q0 90 114 212z" />
    <glyph glyph-name="quoteright" unicode="&#x2019;" horiz-adv-x="283" 
d="M217 706q0 -90 -114 -212l-34 3q40 57 46 70q21 38 21 73q0 16 -24.5 32t-24.5 45q0 26 20.5 43t48.5 17q27 0 44 -19t17 -52z" />
    <glyph glyph-name="divide" unicode="&#xf7;" horiz-adv-x="842" 
d="M483 478q0 -25 -17.5 -43t-44.5 -18q-26 0 -43.5 17.5t-17.5 43.5t18 44.5t43 18.5q26 0 44 -18.5t18 -44.5zM723 273h-604v68h604v-68zM483 135q0 -25 -17.5 -43.5t-44.5 -18.5q-25 0 -43 18t-18 44t18 44t43 18q26 0 44 -18t18 -44z" />
    <glyph glyph-name="ydieresis" unicode="&#xff;" horiz-adv-x="495" 
d="M540 465q-59 -72 -140 -194l-200 -303q-56 -83 -78 -118q-41 -67 -67 -123l-97 1q92 113 172 235l32 49l-16 106q-12 74 -71 333q-6 3 -19 3h-9l-1 31h133q7 -74 63 -375q71 110 104 164q56 91 98 176q-7 4 -21 4h-11l1 31h128zM467 640q0 -25 -17 -42t-41 -17t-41.5 17
t-17.5 42q0 23 17.5 41t41.5 18t41 -18t17 -41zM296 640q0 -25 -17 -42t-42 -17q-24 0 -41 17t-17 42q0 23 17.5 41t40.5 18q24 0 41.5 -18t17.5 -41z" />
    <glyph glyph-name="Ydieresis" unicode="&#x178;" horiz-adv-x="587" 
d="M630 680q-170 -203 -317 -392q-7 -31 -23 -95q-15 -72 -29 -151q4 -12 27 -12h9l1 -30h-152q14 49 39 147q13 63 25 135q-93 260 -137 367q-6 2 -16 2h-10v30h126q30 -139 120 -342q96 116 222 308q-6 4 -19 4h-10v30q11 0 72 -1h72zM506 792q0 -25 -16.5 -42t-41.5 -17
q-24 0 -41.5 17t-17.5 42q0 23 18 40.5t41 17.5q24 0 41 -17.5t17 -40.5zM335 792q0 -25 -17 -42t-42 -17q-24 0 -40.5 17t-16.5 42q0 23 17 40.5t40 17.5q24 0 41.5 -17.5t17.5 -40.5z" />
    <glyph glyph-name="currency" unicode="&#xa4;" horiz-adv-x="576" 
d="M562 507l-101 -101q40 -58 40 -125t-40 -125l101 -102l-46 -46l-101 101q-58 -41 -127 -41q-67 0 -126 41l-101 -101l-46 46l101 102q-41 59 -41 125t41 125l-101 101l46 46l101 -100q58 40 126 40q70 0 127 -40l101 100zM436 282q0 60 -43 103.5t-104 43.5t-105 -43.5
t-44 -103.5q0 -61 44 -105t105 -44t104 44t43 105z" />
    <glyph glyph-name="guilsinglleft" unicode="&#x2039;" horiz-adv-x="260" 
d="M274 444l-147 -199l58 -199l-31 -41l-120 240l227 240z" />
    <glyph glyph-name="guilsinglright" unicode="&#x203a;" horiz-adv-x="262" 
d="M231 245l-226 -240l-13 41l146 199l-58 199l31 41z" />
    <glyph glyph-name="daggerdbl" unicode="&#x2021;" horiz-adv-x="576" 
d="M511 528l-17 -78q-29 5 -69 6h-58h-43q-7 -30 -21 -94q-17 -75 -40 -184h29q92 0 142 8l-17 -78q-66 9 -147 9h-21q-28 -135 -42 -221h-90q18 62 55 221h-20q-77 0 -151 -9l17 78q47 -8 139 -8h29q22 88 49 211q5 23 14 67h-42q-89 0 -130 -6l17 78q80 -10 156 -10h12
q17 81 35 183h89q-18 -61 -47 -183h13q78 0 159 10z" />
    <glyph glyph-name="periodcentered" unicode="&#xb7;" horiz-adv-x="284" 
d="M203 341q0 -26 -17.5 -43.5t-43.5 -17.5t-43.5 17.5t-17.5 43.5q0 25 18 43t43 18t43 -18t18 -43z" />
    <glyph glyph-name="periodcentered" unicode="&#x2219;" horiz-adv-x="284" 
d="M203 341q0 -26 -17.5 -43.5t-43.5 -17.5t-43.5 17.5t-17.5 43.5q0 25 18 43t43 18t43 -18t18 -43z" />
    <glyph glyph-name="quotesinglbase" unicode="&#x201a;" horiz-adv-x="292" 
d="M219 45q0 -90 -114 -212l-34 3q39 57 46 70q21 38 21 73q0 16 -25 32t-25 45q0 26 20.5 43t48.5 17q27 0 44.5 -19t17.5 -52z" />
    <glyph glyph-name="quotedblbase" unicode="&#x201e;" horiz-adv-x="446" 
d="M390 45q0 -90 -114 -212l-34 3q39 57 46 70q21 38 21 73q0 16 -25 32t-25 45q0 26 20.5 43t48.5 17q27 0 44.5 -19t17.5 -52zM223 45q0 -90 -114 -212l-34 3q39 57 46 70q21 38 21 73q0 16 -25 32t-25 45q0 26 21 43t48 17q28 0 45 -19t17 -52z" />
    <glyph glyph-name="perthousand" unicode="&#x2030;" horiz-adv-x="1138" 
d="M1070 176q-19 -86 -71.5 -132t-127.5 -46q-61 0 -95 32t-34 90q0 23 6 50q17 79 76 126q55 46 127 46q58 0 91 -32t33 -88q0 -22 -5 -46zM724 720l-585 -749h-66l586 749h65zM385 501q-19 -86 -71.5 -132t-127.5 -46q-61 0 -95 32.5t-34 90.5q0 23 6 49q17 78 76 125
q56 47 127 47q58 0 91 -32t33 -88q0 -21 -5 -46zM709 176q-19 -85 -71.5 -131.5t-127.5 -46.5q-60 0 -94 33t-34 90q0 23 5 49q18 79 75 125.5t128 46.5q58 0 91.5 -32t33.5 -88q0 -22 -6 -46zM984 171q9 40 9 67q0 64 -52 64q-72 0 -101 -130q-9 -43 -9 -71q0 -64 51 -64
q72 0 102 134zM299 496q9 40 9 67q0 64 -52 64q-72 0 -101 -130q-9 -43 -9 -71q0 -64 51 -64q72 0 102 134zM623 171q9 40 9 67q0 64 -52 64q-72 0 -101 -130q-9 -43 -9 -71q0 -64 52 -64q72 0 101 134z" />
    <glyph glyph-name="Acircumflex" unicode="&#xc2;" horiz-adv-x="644" 
d="M570 30l-1 -30h-141q-8 79 -37 248q-37 2 -111 2q-70 0 -107 -2q-24 -36 -120 -217q5 -1 17 -1h10v-31h-132q109 163 417 687h41q19 -123 123 -648q10 -8 30 -8h11zM381 300l-39 242q-35 -59 -139 -242q94 -2 82 -2q14 0 42 1q32 1 54 1zM534 738h-50l-88 98l-132 -98
h-50l163 169q18 20 40 20q23 0 29 -20z" />
    <glyph glyph-name="Ecircumflex" unicode="&#xca;" horiz-adv-x="537" 
d="M537 680l-22 -96h-30q7 31 -2 38q-98 7 -209 7h-12q-26 -109 -50 -214l-7 -34l243 6l-13 -59q-138 5 -242 5l-7 -34q-15 -66 -54 -248h15q102 0 227 9q11 7 18 36h30q-4 -18 -11.5 -49t-10.5 -48h-385q37 129 85 348q38 169 59 289q-3 14 -27 14h-9v30h414zM509 738h-50
l-88 98l-132 -98h-50l163 169q18 20 40 20q23 0 29 -20z" />
    <glyph glyph-name="Aacute" unicode="&#xc1;" horiz-adv-x="644" 
d="M570 30l-1 -30h-141q-8 79 -37 248q-37 2 -111 2q-70 0 -107 -2q-24 -36 -120 -217q5 -1 17 -1h10v-31h-132q109 163 417 687h41q19 -123 123 -648q10 -8 30 -8h11zM381 300l-39 242q-35 -59 -139 -242q94 -2 82 -2q14 0 42 1q32 1 54 1zM542 885q-4 -20 -45 -48
l-145 -99h-49l137 162q27 32 61 32q21 0 33 -14t8 -33z" />
    <glyph glyph-name="Edieresis" unicode="&#xcb;" horiz-adv-x="537" 
d="M537 680l-22 -96h-30q7 31 -2 38q-98 7 -209 7h-12q-26 -109 -50 -214l-7 -34l243 6l-13 -59q-138 5 -242 5l-7 -34q-15 -66 -53 -248h14q102 0 228 9q10 7 17 36h30q-4 -18 -11 -49t-11 -48h-385q37 129 86 348q37 169 58 289q-3 14 -26 14h-10l1 30h413zM514 802
q0 -25 -17 -42t-41 -17q-25 0 -42 17t-17 42q0 23 17.5 41t41.5 18t41 -18t17 -41zM343 802q0 -25 -17 -42t-42 -17q-24 0 -41 17t-17 42q0 23 17.5 41t40.5 18q24 0 41.5 -18t17.5 -41z" />
    <glyph glyph-name="Egrave" unicode="&#xc8;" horiz-adv-x="537" 
d="M537 680l-22 -96h-30q7 31 -2 38q-98 7 -209 7h-12q-26 -109 -50 -214l-7 -34l243 6l-13 -59q-138 5 -242 5l-7 -34q-15 -66 -54 -248h15q102 0 227 9q11 7 18 36h30q-4 -18 -11.5 -49t-10.5 -48h-385q37 129 85 348q38 169 59 289q-3 14 -27 14h-9v30h414zM453 738h-44
l-159 101q-29 18 -29 48q0 19 14 32t34 13q27 0 52 -32z" />
    <glyph glyph-name="Iacute" unicode="&#xcd;" horiz-adv-x="304" 
d="M275 680q-39 -141 -78 -317q-27 -120 -68 -316q1 -17 31 -17h7v-30q-25 0 -77 -1h-78q41 142 91 367q40 181 55 268q-1 16 -28 16h-11l1 30h155zM355 885q-5 -20 -46 -48l-144 -99h-49l136 162q27 32 62 32q20 0 32.5 -14t8.5 -33z" />
    <glyph glyph-name="Icircumflex" unicode="&#xce;" horiz-adv-x="304" 
d="M275 680q-39 -141 -78 -317q-27 -120 -68 -316q1 -17 31 -17h7v-30q-25 0 -77 -1h-78q41 142 91 367q40 181 55 268q-1 16 -28 16h-11l1 30h155zM382 737h-48l-83 99l-126 -99h-48l157 170q17 20 38 20q22 0 28 -20z" />
    <glyph glyph-name="Idieresis" unicode="&#xcf;" horiz-adv-x="304" 
d="M275 680q-39 -141 -78 -317q-27 -120 -68 -316q1 -17 31 -17h7v-30q-25 0 -77 -1h-78q41 142 91 367q40 181 55 268q0 16 -28 16h-10v30h155zM382 802q0 -25 -16.5 -42t-40.5 -17q-25 0 -42 17t-17 42q0 23 17.5 41t41.5 18q23 0 40 -18t17 -41zM212 802q0 -25 -17.5 -42
t-41.5 -17q-25 0 -41.5 17t-16.5 42q0 23 17 41t41 18q23 0 41 -18t18 -41z" />
    <glyph glyph-name="Igrave" unicode="&#xcc;" horiz-adv-x="304" 
d="M275 680q-39 -141 -78 -317q-27 -120 -68 -316q1 -17 31 -17h7v-30q-25 0 -77 -1h-78q41 142 91 367q40 181 55 268q-1 16 -28 16h-11l1 30h155zM342 738h-44l-159 101q-29 18 -29 48q0 19 14 32t34 13q27 0 53 -32z" />
    <glyph glyph-name="Oacute" unicode="&#xd3;" horiz-adv-x="794" 
d="M724 435q2 -187 -120.5 -317.5t-288.5 -130.5q-125 0 -197 66.5t-73 191.5q-1 177 114 310q119 137 295 137q122 0 193 -62q76 -68 77 -195zM612 438q-2 209 -160 209q-134 0 -220 -138q-76 -122 -75 -267q2 -210 161 -210q127 0 214 129q81 122 80 277zM621 886
q-5 -20 -45 -49l-145 -99h-49l137 163q27 32 61 32q21 0 33 -14t8 -33z" />
    <glyph glyph-name="Ocircumflex" unicode="&#xd4;" horiz-adv-x="794" 
d="M724 435q2 -187 -120.5 -317.5t-288.5 -130.5q-125 0 -197 66.5t-73 191.5q-1 177 114 310q119 137 295 137q122 0 193 -62q76 -68 77 -195zM612 438q-2 209 -160 209q-134 0 -220 -138q-76 -122 -75 -267q2 -210 161 -210q127 0 214 129q81 122 80 277zM635 738h-50
l-88 98l-132 -98h-50l163 169q18 20 40 20q23 0 29 -20z" />
    <glyph glyph-name="Ograve" unicode="&#xd2;" horiz-adv-x="794" 
d="M724 435q2 -187 -120.5 -317.5t-288.5 -130.5q-125 0 -197 66.5t-73 191.5q-1 177 114 310q119 137 295 137q122 0 193 -62q76 -68 77 -195zM612 438q-2 209 -160 209q-134 0 -220 -138q-76 -122 -75 -267q2 -210 161 -210q127 0 214 129q81 122 80 277zM587 738h-44
l-159 101q-29 18 -29 48q0 19 14 32t35 13q26 0 52 -32z" />
    <glyph glyph-name="Uacute" unicode="&#xda;" horiz-adv-x="744" 
d="M755 648h-10q-25 0 -30.5 -16t-93.5 -391q-29 -123 -93 -183q-78 -71 -222 -71q-232 0 -232 195q0 47 13 106q28 116 79 349q-5 11 -27 11h-10v32h148l-84 -361q-19 -86 -19 -137q0 -70 36.5 -104t122.5 -34q102 0 156 67q40 50 71 169q25 96 76 357q-4 12 -29 12h-12
l-1 31l161 -1v-31zM608 885q-4 -20 -45 -48l-145 -99h-49l137 162q27 32 61 32q21 0 33.5 -14t7.5 -33z" />
    <glyph glyph-name="Ucircumflex" unicode="&#xdb;" horiz-adv-x="744" 
d="M755 648h-10q-25 0 -30.5 -16t-93.5 -391q-29 -123 -93 -183q-78 -71 -222 -71q-232 0 -232 195q0 47 13 106q28 116 79 349q-5 11 -27 11h-10v32h148l-84 -361q-19 -86 -19 -137q0 -70 36.5 -104t123.5 -34q101 0 155 67q40 50 71 169q25 96 76 357q-4 12 -29 12h-12
l-1 31l161 -1v-31zM621 738h-50l-88 98l-132 -98h-51l164 169q18 20 40 20t29 -20z" />
    <glyph glyph-name="Ugrave" unicode="&#xd9;" horiz-adv-x="744" 
d="M755 648h-10q-25 0 -30.5 -16t-93.5 -391q-29 -123 -93 -183q-78 -71 -222 -71q-232 0 -232 195q0 47 13 106q28 116 79 349q-5 11 -27 11h-10v32h148l-84 -361q-19 -86 -19 -137q0 -70 36.5 -104t122.5 -34q102 0 156 67q40 50 71 169q25 96 76 357q-4 12 -29 12h-12
l-1 31l161 -1v-31zM557 738h-44l-159 101q-29 18 -29 48q0 19 14 32t35 13q26 0 52 -32z" />
    <glyph glyph-name="circumflex" unicode="&#x2c6;" 
d="M381 555h-51l-88 98l-132 -98h-50l163 169q18 21 40 21q23 0 29 -21z" />
    <glyph glyph-name="tilde" unicode="&#x2dc;" 
d="M419 706q-22 -53 -45 -76q-32 -33 -83 -33q-22 0 -66 21t-62 21q-26 0 -51 -48h-44q28 56 49 78q33 34 84 34q22 0 65 -21.5t58 -21.5q26 0 50 46h45z" />
    <glyph glyph-name="macron" unicode="&#xaf;" 
d="M385 667l-17 -67h-271l16 67h272z" />
    <glyph glyph-name="macron" unicode="&#x2c9;" 
d="M385 667l-17 -67h-271l16 67h272z" />
    <glyph glyph-name="cedilla" unicode="&#xb8;" 
d="M255 -129q-17 -79 -138 -79q-47 0 -77 10q-15 5 -47 23l31 39q46 -29 95 -29q68 0 68 46q0 37 -48 37q-11 0 -38 -5l61 100h29l-38 -60q10 1 20 1q38 0 61 -18t23 -47q0 -9 -2 -18z" />
    <glyph glyph-name="Scaron" unicode="&#x160;" horiz-adv-x="508" 
d="M470 951l-163 -169q-18 -21 -40 -21q-23 0 -29 21l-88 169h50l88 -99l132 99h50zM472 665l-23 -104h-30q5 16 5 30q0 36 -43 58q-36 17 -76 17q-64 0 -110.5 -41t-46.5 -103q0 -48 66 -88q60 -36 121 -72q66 -51 66 -127q0 -116 -89 -185q-82 -63 -203 -63
q-59 0 -97.5 13t-82.5 49l22 99h34q-6 -32 -6 -44q62 -68 137 -68q74 0 130.5 46t56.5 117q0 53 -66 96q-60 37 -121 74q-66 50 -66 121q0 106 78 167q71 56 181 56q75 0 163 -48z" />
    <glyph glyph-name="scaron" unicode="&#x161;" horiz-adv-x="390" 
d="M464 745l-164 -169q-17 -21 -39 -21q-23 0 -29 21l-89 169h51l88 -99l132 99h50zM364 460l-20 -89h-31q4 17 4 27q0 60 -70 60q-91 0 -91 -82q0 -34 47 -68l88 -62q48 -43 48 -99q0 -76 -61 -119q-55 -39 -145 -39q-81 0 -128 48l21 95h32q-6 -24 -6 -36q0 -35 25 -54
q22 -17 57 -17q112 0 112 94q0 43 -46 77q-42 29 -85 59q-46 40 -46 98q0 66 49 105t124 39t122 -37z" />
    <glyph glyph-name="brokenbar" unicode="&#xa6;" horiz-adv-x="525" 
d="M300 338h-75v401h75v-401zM300 -177h-75v402h75v-402z" />
    <glyph glyph-name="Eth" unicode="&#xd0;" horiz-adv-x="731" 
d="M703 475q0 -220 -133 -347.5t-358 -127.5q-23 0 -56 1h-58q-10 0 -45 1q-28 1 -45 0q36 136 85 347h-107l11 47h107q38 165 57 260q-4 14 -28 14h-9l7 31h267q141 0 220 -55q85 -58 85 -171zM589 467q-1 187 -235 187q-24 0 -90 -4q-31 -123 -62 -254h160l-11 -47h-159
q-40 -170 -66 -298q56 -4 64 -4q196 0 301 115q99 109 98 305z" />
    <glyph glyph-name="eth" unicode="&#xf0;" horiz-adv-x="573" 
d="M502 255q-27 -119 -111.5 -192t-193.5 -73q-92 0 -143.5 46.5t-51.5 129.5q0 34 9 73q27 116 109.5 185.5t193.5 69.5q34 0 64.5 -17t41.5 -39q-4 48 -26 108t-47 86q-46 -32 -106 -81l-22 39q30 19 102 69q-24 30 -91 70l57 36q33 -24 82 -71q20 15 80 63l25 -39
q-20 -11 -79 -52q120 -148 120 -305q0 -52 -13 -106zM392 240q14 64 14 106q0 56 -25.5 79t-78.5 23q-135 0 -183 -208q-12 -52 -12 -90q0 -114 101 -114q137 0 184 204z" />
    <glyph glyph-name="Yacute" unicode="&#xdd;" horiz-adv-x="587" 
d="M653 702q-176 -210 -327 -405q-8 -32 -24 -98q-16 -74 -30 -156q4 -12 27 -12h10l1 -31h-157q14 50 40 152q14 64 26 139q-96 268 -141 378q-6 2 -16 2h-10l-1 31h131q30 -144 123 -353q99 120 229 318q-7 4 -20 4h-10v31q11 0 74 -1q46 0 75 1zM509 923q-4 -20 -45 -49
l-145 -99h-49l137 163q27 32 61 32q21 0 33 -14t8 -33z" />
    <glyph glyph-name="yacute" unicode="&#xfd;" horiz-adv-x="495" 
d="M540 465q-59 -72 -140 -194l-200 -303q-56 -83 -78 -118q-41 -67 -67 -123l-97 1q92 113 172 235l32 49l-16 106q-12 74 -71 333q-6 3 -19 3h-9l-1 31h133q7 -74 63 -375q71 110 104 164q56 91 98 176q-7 4 -21 4h-11l1 31h128zM454 703q-4 -21 -45 -49l-145 -99h-49
l137 163q27 32 61 32q21 0 33 -14t8 -33z" />
    <glyph glyph-name="Thorn" unicode="&#xde;" horiz-adv-x="606" 
d="M569 403q-24 -103 -112.5 -165t-218.5 -62q-46 0 -85 6l-5 -22q-10 -42 -23 -115q4 -14 27 -14h10l-7 -31l-149 -1q19 70 66 258q30 129 85 395q0 17 -29 17h-9l7 31h151l-24 -92q73 5 110 5q101 0 158 -46q53 -44 53 -117q0 -23 -5 -47zM455 394q5 23 5 43q0 59 -40 93
q-43 35 -124 35q-12 0 -53 -3q-28 -104 -57 -228l-25 -108q44 -6 55 -6q94 0 160 51q62 48 79 123z" />
    <glyph glyph-name="thorn" unicode="&#xfe;" horiz-adv-x="586" 
d="M547 244q-27 -117 -104 -184.5t-177 -67.5q-91 0 -130 65l-20 -90q-6 -24 -41 -194q2 -15 28 -15h10l-7 -31h-7h-135q25 93 101 424q50 210 128 572q-4 12 -28 12h-10l8 32h141q-28 -97 -85 -342q81 79 174 79q166 0 166 -167q0 -42 -12 -93zM443 247q10 44 10 81
q0 125 -99 125q-60 0 -106 -53q-49 -54 -71 -151q-12 -52 -12 -92q0 -116 94 -116q64 0 112.5 53t71.5 153z" />
    <glyph glyph-name="minus" unicode="&#xad;" horiz-adv-x="868" 
d="M745 281h-623v70h623v-70z" />
    <glyph glyph-name="minus" unicode="&#x2212;" horiz-adv-x="868" 
d="M745 281h-623v70h623v-70z" />
    <glyph glyph-name="multiply" unicode="&#xd7;" horiz-adv-x="868" 
d="M727 558l-242 -242l242 -242l-50 -49l-242 242l-242 -242l-49 49l242 242l-242 242l49 50l242 -242l242 242z" />
    <glyph glyph-name="onesuperior" unicode="&#xb9;" horiz-adv-x="383" 
d="M298 715q-36 -133 -57 -229q-9 -39 -46 -221h-78q34 130 54.5 222t32.5 151q-36 -22 -102 -53l11 53q83 28 185 77z" />
    <glyph glyph-name="twosuperior" unicode="&#xb2;" horiz-adv-x="383" 
d="M344 583q-21 -94 -254 -260h55q46 0 112 4q1 3 8 31h34q-8 -33 -19 -90q-100 2 -144 2q-42 0 -144 -2l7 31q125 101 154 128q93 88 108 154q3 14 3 26q0 54 -52 54q-48 0 -82 -32q-19 -18 -50 -69l22 99q53 49 137 49q109 0 109 -92q0 -16 -4 -33z" />
    <glyph glyph-name="threesuperior" unicode="&#xb3;" horiz-adv-x="383" 
d="M320 596q-13 -59 -75 -93q57 -19 57 -76q0 -14 -4 -29q-14 -68 -70 -105q-52 -35 -128 -35q-58 0 -95 37l18 81q34 -72 92 -72q79 0 99 90q3 12 3 22q0 58 -54 58q-27 0 -54 -4l12 52q19 -3 31 -3q70 0 87 74q2 11 2 21q0 48 -43 48q-46 0 -75 -23q-21 -17 -46 -61l21 91
q50 38 118 38q49 0 78 -22.5t29 -62.5q0 -13 -3 -26z" />
    <glyph glyph-name="onehalf" unicode="&#xbd;" horiz-adv-x="893" 
d="M825 313q-13 -59 -98 -141q-65 -62 -150 -119h49q46 0 112 4q1 3 8 32h34q-7 -33 -19 -90q-100 1 -144 1q-42 0 -144 -1l7 30q125 101 154 129q93 88 108 153q3 15 3 27q0 53 -52 53q-48 0 -82 -31q-19 -18 -50 -69l22 99q53 48 137 48q109 0 109 -92q0 -16 -4 -33z
M747 720l-584 -749h-67l587 749h64zM320 715q-36 -133 -58 -229q-8 -39 -45 -221h-78q34 130 54.5 222t32.5 151q-36 -22 -102 -53l11 53q82 28 185 77z" />
    <glyph glyph-name="onequarter" unicode="&#xbc;" horiz-adv-x="893" 
d="M827 186l-27 -65q-20 -1 -59 0q-4 -20 -10 -48q-9 -39 -13 -74h-79q8 25 21 74q3 16 10 47q-50 1 -78 1q-45 0 -107 -3l6 28q83 86 264 290h60q-18 -64 -47 -196q-6 -26 -17 -74q32 0 39 1q12 3 37 19zM747 720l-584 -749h-67l587 749h64zM320 715q-36 -133 -58 -229
q-8 -39 -45 -221h-78q34 130 54.5 222t32.5 151q-36 -22 -102 -53l11 53q82 28 185 77zM720 338l-156 -172h118z" />
    <glyph glyph-name="threequarters" unicode="&#xbe;" horiz-adv-x="894" 
d="M837 186l-27 -65q-19 -1 -59 0q-4 -20 -10 -48q-8 -39 -13 -74h-78q7 25 20 74q4 16 10 47q-49 1 -77 1q-46 0 -108 -3l7 28q83 86 263 290h61q-19 -64 -48 -196q-6 -26 -17 -74h10q26 0 34 2.5t32 17.5zM771 720l-584 -749h-67l586 749h65zM350 596q-13 -59 -75 -93
q57 -19 57 -76q0 -14 -3 -29q-15 -68 -71 -105q-52 -35 -127 -35q-59 0 -95 37l17 81q34 -72 92 -72q80 0 100 90q2 12 2 22q0 58 -53 58q-27 0 -55 -4l12 52q20 -3 31 -3q71 0 87 74q3 11 3 21q0 48 -44 48q-46 0 -74 -23q-22 -17 -46 -61l20 91q50 38 118 38
q49 0 78 -22.5t29 -62.5q0 -13 -3 -26zM730 339l-154 -173h116z" />
    <glyph glyph-name="Lslash" unicode="&#x141;" horiz-adv-x="497" 
d="M418 105l-24 -106q-186 3 -241 3q-67 0 -139 -3q44 165 71 276l-119 -60l12 52l120 60l5 23q30 128 65 306q-4 14 -28 14h-10l8 31h150q-29 -107 -84 -320l163 81l-12 -51l-163 -82q-26 -112 -57 -274h58q104 0 174 10q13 8 18 30l2 10h31z" />
    <glyph glyph-name="lslash" unicode="&#x142;" horiz-adv-x="279" 
d="M282 768q-40 -149 -92 -381l-2 -9l89 44l-12 -51l-89 -45q-21 -88 -63 -283q5 -11 28 -11h10l-7 -32h-140q41 164 67 274l-95 -48l12 51l96 48l14 60q38 168 74 339q-4 12 -28 12h-10l7 32h141z" />
    <glyph glyph-name="Zcaron" unicode="&#x17d;" horiz-adv-x="607" 
d="M532 951l-163 -169q-18 -21 -40 -21q-23 0 -29 21l-89 169h51l88 -99l132 99h50zM644 701q-119 -121 -283 -312q-142 -165 -283 -330q64 -1 102 -1q127 0 273 9q14 7 19 30l2 10h32l-25 -109l-578 1q239 264 557 645h-52q-131 0 -281 -9q-15 -7 -20 -30l-2 -10h-31
l24 106h546z" />
    <glyph glyph-name="zcaron" unicode="&#x17e;" horiz-adv-x="451" 
d="M485 745l-164 -169q-18 -21 -40 -21t-29 21l-88 169h50l88 -99l132 99h51zM456 485l-6 -28q-80 -78 -194 -201q-94 -102 -188 -205q85 1 258 10q7 8 10 23l3 10h31l-20 -93h-420l8 33q74 71 193 200q187 203 188 204h-21q-106 0 -205 -10q-5 -7 -8 -20l-2 -10h-31
q6 21 19 84z" />
    <glyph glyph-name="notequal" unicode="&#x2260;" horiz-adv-x="1030" 
d="M948 536l-408 -262l286 -260l-29 -24l-293 262l-388 -258l-23 20l391 260l-287 264l31 20l290 -263l408 263z" />
    <glyph glyph-name="infinity" unicode="&#x221e;" horiz-adv-x="1030" 
d="M948 536l-408 -262l286 -260l-29 -24l-293 262l-388 -258l-23 20l391 260l-287 264l31 20l290 -263l408 263z" />
    <glyph glyph-name="lessequal" unicode="&#x2264;" horiz-adv-x="1030" 
d="M948 536l-408 -262l286 -260l-29 -24l-293 262l-388 -258l-23 20l391 260l-287 264l31 20l290 -263l408 263z" />
    <glyph glyph-name="greaterequal" unicode="&#x2265;" horiz-adv-x="1030" 
d="M948 536l-408 -262l286 -260l-29 -24l-293 262l-388 -258l-23 20l391 260l-287 264l31 20l290 -263l408 263z" />
    <glyph glyph-name="partialdiff" unicode="&#x2202;" horiz-adv-x="292" 
d="M115 -132h-43q78 77 78 115q0 7 -5 7q-24 0 -39.5 14.5t-15.5 37.5q0 32 26 57.5t59 25.5q23 0 37.5 -18.5t14.5 -43.5q0 -43 -39 -106q-35 -55 -73 -89z" />
    <glyph glyph-name="summation" unicode="&#x2211;" horiz-adv-x="1030" 
d="M948 536l-408 -262l286 -260l-29 -24l-293 262l-388 -258l-23 20l391 260l-287 264l31 20l290 -263l408 263z" />
    <glyph glyph-name="product" unicode="&#x220f;" horiz-adv-x="1030" 
d="M948 536l-408 -262l286 -260l-29 -24l-293 262l-388 -258l-23 20l391 260l-287 264l31 20l290 -263l408 263z" />
    <glyph glyph-name="pi" unicode="&#x3c0;" horiz-adv-x="1030" 
d="M948 536l-408 -262l286 -260l-29 -24l-293 262l-388 -258l-23 20l391 260l-287 264l31 20l290 -263l408 263z" />
    <glyph glyph-name="integral" unicode="&#x222b;" horiz-adv-x="1030" 
d="M948 536l-408 -262l286 -260l-29 -24l-293 262l-388 -258l-23 20l391 260l-287 264l31 20l290 -263l408 263z" />
    <glyph glyph-name="Omega" unicode="&#x3a9;" horiz-adv-x="1030" 
d="M948 536l-408 -262l286 -260l-29 -24l-293 262l-388 -258l-23 20l391 260l-287 264l31 20l290 -263l408 263z" />
    <glyph glyph-name="Omega" unicode="&#x2126;" horiz-adv-x="1030" 
d="M948 536l-408 -262l286 -260l-29 -24l-293 262l-388 -258l-23 20l391 260l-287 264l31 20l290 -263l408 263z" />
    <glyph glyph-name="radical" unicode="&#x221a;" horiz-adv-x="1030" 
d="M948 536l-408 -262l286 -260l-29 -24l-293 262l-388 -258l-23 20l391 260l-287 264l31 20l290 -263l408 263z" />
    <glyph glyph-name="approxequal" unicode="&#x2248;" horiz-adv-x="1030" 
d="M948 536l-408 -262l286 -260l-29 -24l-293 262l-388 -258l-23 20l391 260l-287 264l31 20l290 -263l408 263z" />
    <glyph glyph-name="approxequal" unicode="&#x22f2;" horiz-adv-x="1030" 
d="M948 536l-408 -262l286 -260l-29 -24l-293 262l-388 -258l-23 20l391 260l-287 264l31 20l290 -263l408 263z" />
    <glyph glyph-name="Delta" unicode="&#x394;" horiz-adv-x="1030" 
d="M948 536l-408 -262l286 -260l-29 -24l-293 262l-388 -258l-23 20l391 260l-287 264l31 20l290 -263l408 263z" />
    <glyph glyph-name="Delta" unicode="&#x2206;" horiz-adv-x="1030" 
d="M948 536l-408 -262l286 -260l-29 -24l-293 262l-388 -258l-23 20l391 260l-287 264l31 20l290 -263l408 263z" />
    <glyph glyph-name="lozenge" unicode="&#x25ca;" horiz-adv-x="1030" 
d="M948 536l-408 -262l286 -260l-29 -24l-293 262l-388 -258l-23 20l391 260l-287 264l31 20l290 -263l408 263z" />
    <glyph glyph-name="fraction" unicode="&#x2044;" horiz-adv-x="177" 
d="M416 720l-585 -749h-67l587 749h65z" />
    <glyph glyph-name="fi" unicode="&#xf001;" horiz-adv-x="564" 
d="M524 746l-23 -104h-35l2 9q5 21 -21 39t-72 18q-89 0 -125 -76q-17 -38 -32 -151q56 0 160.5 2.5t141.5 2.5q-18 -59 -56 -229q-17 -64 -43 -209q1 -16 29 -16h10l-7 -32h-9h-130q18 56 63 257q14 59 35 176q-118 5 -200 5l-46 -257q-35 -199 -74 -285
q-77 -169 -226 -169q-74 0 -121 44l21 91h35l-2 -9q-3 -14 -3 -25q0 -56 83 -56q90 0 146 187q23 73 52 255l37 224q-4 0 -69 -3l1 49q48 -3 81 -3q63 286 265 286q76 0 132 -21z" />
    <glyph glyph-name="fl" unicode="&#xf002;" horiz-adv-x="582" 
d="M603 766q-34 -134 -89 -379q-25 -108 -73 -344q5 -11 28 -11h10l-7 -32h-138q32 124 90 385q30 144 61 288q-21 37 -103 37q-146 0 -164 -229q62 0 115 5l-1 -54q-78 6 -122 6l-47 -257q-36 -198 -76 -285q-78 -169 -225 -169q-74 0 -122 44l22 91h35l-2 -9
q-3 -14 -3 -25q0 -56 83 -56q91 0 147 187q17 54 52 255l40 224q-5 0 -69 -3l1 49q47 -3 81 -3q29 130 98.5 208t163.5 78q64 0 123 -14z" />
    <glyph glyph-name="apple" unicode="&#xf000;" horiz-adv-x="1030" 
d="M948 536l-408 -262l286 -260l-29 -24l-293 262l-388 -258l-23 20l391 260l-287 264l31 20l290 -263l408 263z" />
    <glyph glyph-name="dotlessi" unicode="&#x131;" 
d="M242 485q-17 -54 -56 -228q-25 -115 -39 -196q-4 -27 21 -27q20 0 46 16l11 -31q-59 -29 -106 -29q-61 0 -61 48q0 31 41 219q20 89 36 173q1 24 -29 24h-10v31h146z" />
    <glyph glyph-name="breve" unicode="&#x2d8;" 
d="M411 726q-56 -152 -187 -152q-130 0 -120 152h42q0 -80 91 -80q95 0 130 80h44z" />
    <glyph glyph-name="dotaccent" unicode="&#x2d9;" 
d="M233 579q-22 0 -38 14.5t-16 35.5q0 28 22 50.5t49 22.5q23 0 38 -14.5t15 -35.5q0 -28 -21.5 -50.5t-48.5 -22.5z" />
    <glyph glyph-name="ring" unicode="&#x2da;" 
d="M348 675q0 -48 -30.5 -77t-77.5 -29q-44 0 -73.5 30t-29.5 74q0 45 30 74.5t75 29.5q46 0 76 -28.5t30 -73.5zM295 675q0 67 -53 67t-53 -71q0 -67 52 -67q54 0 54 71z" />
    <glyph glyph-name="hungarumlaut" unicode="&#x2dd;" 
d="M419 663l-126 -108h-50l111 150q33 46 64 46q34 0 34 -34q0 -25 -33 -54zM285 663l-127 -108h-49l111 150q34 46 64 46q34 0 34 -34q0 -25 -33 -54z" />
    <glyph glyph-name="ogonek" unicode="&#x2db;" 
d="M234 34q-57 -38 -81 -59q-48 -42 -56 -81q-2 -8 -2 -15q0 -32 30 -32q32 0 63 40l26 -20q-62 -86 -135 -86q-32 0 -51.5 17t-19.5 45q0 8 2 18q20 89 168 173h56z" />
    <glyph glyph-name="caron" unicode="&#x2c7;" 
d="M423 745l-164 -169q-17 -21 -39 -21q-23 0 -29 21l-89 169h50l89 -99l131 99h51z" />
    </font>
</defs>
</svg>
