<?xml version="1.0" encoding="utf-8"?>
<!-- Generator: Adobe Illustrator 16.0.0, SVG Export Plug-In . SVG Version: 6.00 Build 0)  -->
<!DOCTYPE svg PUBLIC "-//W3C//DTD SVG 1.1//EN" "http://www.w3.org/Graphics/SVG/1.1/DTD/svg11.dtd">
<svg version="1.1" id="Icons" xmlns="http://www.w3.org/2000/svg" xmlns:xlink="http://www.w3.org/1999/xlink" x="0px" y="0px"
	 width="225.557px" height="193.335px" viewBox="0 0 225.557 193.335" enable-background="new 0 0 225.557 193.335"
	 xml:space="preserve">
<g>
	<path fill="#414142" d="M209.447,48.333h-32.223v48.334c0,17.771-14.456,32.223-32.219,32.223H80.556v16.111
		c0,8.897,7.214,16.104,16.111,16.104h64.445l32.223,32.23v-32.23h16.111c8.896,0,16.11-7.206,16.11-16.104V64.445
		C225.557,55.547,218.343,48.333,209.447,48.333z"/>
	<path fill="#414142" d="M145.001,0H16.111C7.214,0,0,7.214,0,16.111v80.556c0,8.897,7.214,16.104,16.111,16.104h16.111v32.23
		l32.222-32.23h80.557c8.897,0,16.111-7.206,16.111-16.104V16.111C161.113,7.214,153.899,0,145.001,0z M88.608,80.56H40.282
		c-4.453,0-8.06-3.607-8.06-8.06s3.607-8.06,8.06-8.06h48.326c4.453,0,8.06,3.607,8.06,8.06S93.061,80.56,88.608,80.56z
		 M120.831,48.337H40.282c-4.453,0-8.06-3.606-8.06-8.06c0-4.452,3.607-8.059,8.06-8.059h80.548c4.453,0,8.06,3.607,8.06,8.059
		C128.89,44.731,125.283,48.337,120.831,48.337z"/>
</g>
</svg>
