<?xml version="1.0" encoding="utf-8"?>
<!-- Generator: Adobe Illustrator 16.0.0, SVG Export Plug-In . SVG Version: 6.00 Build 0)  -->
<!DOCTYPE svg PUBLIC "-//W3C//DTD SVG 1.1//EN" "http://www.w3.org/Graphics/SVG/1.1/DTD/svg11.dtd">
<svg version="1.1" id="Layer_1" xmlns="http://www.w3.org/2000/svg" xmlns:xlink="http://www.w3.org/1999/xlink" x="0px" y="0px"
	 width="521.688px" height="561.144px" viewBox="0 0 521.688 561.144" enable-background="new 0 0 521.688 561.144"
	 xml:space="preserve">
<g>
	<path fill="#373737" d="M179.743,561.144H45.477c-7.194,0-12.598-5.957-12.598-13.151V287.148H13.151
		C5.957,287.148,0,281.191,0,273.997V177.55c0-7.194,5.957-13.151,13.151-13.151h60.26c7.942,3.438,15.729,6.398,22.841,8.943
		c17.621,6.311,35.48,11.972,53.422,17.36H26.304v70.143l153.438,0.049l0.002,17.448l-120.561,0.039v256.46h120.561V561.144
		L179.743,561.144z M344.139,561.144h132.074c7.192,0,12.598-5.957,12.598-13.151l-0.002-260.844h19.727
		c7.195,0,13.152-5.957,13.152-13.151V177.55c0-7.194-5.957-13.151-13.152-13.151h-60.343c-19.828,4.57-41.626,11.181-49.76,13.642
		c-12.272,3.717-24.296,8.085-36.245,12.662h133.198v70.143l-151.247,0.049v17.448l118.365,0.039v256.46H344.139V561.144
		L344.139,561.144z M447.163,309.068c3.594,0,6.514-2.946,6.514-6.578c0-3.629-2.92-6.576-6.514-6.576H344.139v13.154H447.163
		L447.163,309.068z M74.526,309.068c-3.596,0-6.514-2.946-6.514-6.578c0-3.629,2.918-6.576,6.514-6.576h105.217v13.154H74.526
		L74.526,309.068z"/>
	<path fill="#373737" d="M105.12,148.579c-31.98-11.452-66.87-28.332-73.977-50.171c-2.898-8.941-1.728-19.783,2.78-27.973
		C39.83,59.706,50.43,54.511,62.363,54.511c7.197,0,13.03,5.835,13.03,13.03s-5.833,13.027-13.03,13.027
		c-10.664,0-5.351,14.893,1.195,19.293c25.629,17.234,58.654,27.89,88.314,36.179c-24.801-19.86-41.534-42.136-47.303-74.705
		C94.417,3.974,140.344-11.616,187.417,8.157c36.651,15.395,60.802,41.624,74.445,77.466c13.655-35.844,37.775-62.062,74.446-77.466
		c47.073-19.773,93-4.183,82.847,53.178c-4.741,26.758-18.499,49.838-38.736,67.529c49.219-14.949,97.69-27.866,123.35-16.689
		c6.573,2.865,9.586,10.525,6.718,17.101c-2.867,6.574-10.525,9.583-17.1,6.718c-17.204-7.494-58.949,3.664-102.577,16.874
		c-25.681,7.776-47.677,17.212-72.975,26.875v381.401H206.047l-0.002-381.401C172.801,170.122,137.584,160.205,105.12,148.579
		L105.12,148.579z M284.116,147.736c40.841-18.709,92.962-42.883,101.693-92.221c5.011-28.346-12.801-26.039-36.399-16.129
		C303.168,58.808,286.715,98.913,284.116,147.736L284.116,147.736z M239.609,147.736c-2.6-48.823-19.056-88.929-65.295-108.351
		c-23.6-9.909-41.41-12.216-36.398,16.129C146.649,104.858,198.762,129.025,239.609,147.736L239.609,147.736z"/>
</g>
</svg>
