<?xml version="1.0" encoding="utf-8"?>
<!-- Generator: Adobe Illustrator 16.0.0, SVG Export Plug-In . SVG Version: 6.00 Build 0)  -->
<!DOCTYPE svg PUBLIC "-//W3C//DTD SVG 1.1//EN" "http://www.w3.org/Graphics/SVG/1.1/DTD/svg11.dtd">
<svg version="1.1" id="分離模式" xmlns="http://www.w3.org/2000/svg" xmlns:xlink="http://www.w3.org/1999/xlink" x="0px"
	 y="0px" width="106.258px" height="87.896px" viewBox="0 0 106.258 87.896" enable-background="new 0 0 106.258 87.896"
	 xml:space="preserve">
<g>
	<path d="M11.878,0L0,25.24v10.55c0,3.259,2.642,5.903,5.903,5.903c3.259,0,5.903-2.644,5.903-5.903V25.24L21.119,0H11.878z"/>
	<path d="M30.359,0l-6.747,25.24l0,0v10.55c0,3.259,2.644,5.903,5.903,5.903c3.261,0,5.903-2.644,5.903-5.903V25.24L39.599,0H30.359
		z"/>
	<path d="M58.079,0h-9.24l-1.613,25.24l0,0v10.55c0,3.259,2.642,5.903,5.903,5.903c3.259,0,5.903-2.644,5.903-5.903V25.24l0,0
		L58.079,0z"/>
	<path d="M76.56,0h-9.24l3.519,25.24l0,0v10.55c0,3.259,2.644,5.903,5.903,5.903c3.261,0,5.903-2.644,5.903-5.903V25.24h0.002
		L76.56,0z"/>
	<path d="M95.04,0H85.8l8.652,25.24H94.45v10.55c0,3.259,2.644,5.903,5.905,5.903c3.259,0,5.901-2.644,5.901-5.903V25.24h0.002
		L95.04,0z"/>
	<path d="M94.45,41.693c-1.457,1.627-3.551,2.673-5.903,2.673c-2.352,0-4.446-1.045-5.903-2.673
		c-1.457,1.627-3.551,2.673-5.903,2.673c-2.352,0-4.446-1.045-5.903-2.673c-1.457,1.627-3.551,2.673-5.903,2.673
		s-4.446-1.045-5.903-2.673c-1.458,1.627-3.552,2.673-5.903,2.673s-4.446-1.045-5.903-2.673c-1.459,1.627-3.551,2.673-5.903,2.673
		c-2.352,0-4.446-1.045-5.903-2.673c-1.459,1.627-3.553,2.673-5.905,2.673c-2.352,0-4.444-1.045-5.903-2.673
		c-1.457,1.627-3.551,2.673-5.903,2.673c-2.352,0-4.446-1.045-5.903-2.673c-1.234,1.379-2.941,2.297-4.859,2.559v37.832
		c0,3.211,2.602,5.813,5.813,5.813h10.599V53.763h21.687v34.133h49.061c3.21,0,5.813-2.602,5.813-5.813V44.319
		C97.749,44.196,95.815,43.218,94.45,41.693z M83.508,73.063H51.986v-19.3h31.522V73.063z"/>
</g>
</svg>
