<?xml version="1.0" encoding="utf-8"?>
<!-- Generator: Adobe Illustrator 16.0.0, SVG Export Plug-In . SVG Version: 6.00 Build 0)  -->
<!DOCTYPE svg PUBLIC "-//W3C//DTD SVG 1.1//EN" "http://www.w3.org/Graphics/SVG/1.1/DTD/svg11.dtd">
<svg version="1.1" id="圖層_1" xmlns="http://www.w3.org/2000/svg" xmlns:xlink="http://www.w3.org/1999/xlink" x="0px" y="0px"
	 width="100px" height="100px" viewBox="0 0 100 100" enable-background="new 0 0 100 100" xml:space="preserve">
<g>
	<path fill="#040000" d="M56.875,92.313c0,3.727-3.022,6.75-6.75,6.75c-3.729,0-6.75-3.023-6.75-6.75V36.948
		c0-3.73,3.021-6.752,6.75-6.752c3.728,0,6.75,3.022,6.75,6.752V92.313z"/>
	<path fill="#040000" d="M56.875,15.792c0,3.728-3.022,6.75-6.75,6.75c-3.729,0-6.75-3.022-6.75-6.75V7.689
		c0-3.729,3.021-6.751,6.75-6.751c3.728,0,6.75,3.023,6.75,6.751V15.792z"/>
</g>
</svg>
