<?xml version="1.0" encoding="utf-8"?>
<!-- Generator: Adobe Illustrator 16.0.0, SVG Export Plug-In . SVG Version: 6.00 Build 0)  -->
<!DOCTYPE svg PUBLIC "-//W3C//DTD SVG 1.1//EN" "http://www.w3.org/Graphics/SVG/1.1/DTD/svg11.dtd">
<svg version="1.1" id="圖層_1" xmlns="http://www.w3.org/2000/svg" xmlns:xlink="http://www.w3.org/1999/xlink" x="0px" y="0px"
	 width="435.859px" height="412.29px" viewBox="0 0 435.859 412.29" enable-background="new 0 0 435.859 412.29"
	 xml:space="preserve">
<path d="M435.503,165.239C430.214,73.272,334.798,0,217.866,0C97.541,0,0,77.585,0,173.291c0,87.969,82.406,160.625,189.167,171.801
	c6.527,0.684,11.232,6.575,10.51,13.098l-4.546,40.913c-1.032,9.287,8.571,16.044,16.987,11.981
	c90.2-43.53,144.135-88.313,176.344-127.112c5.861-7.06,24.973-33.836,28.869-40.868c8.27-14.931,13.971-30.963,16.652-47.748
	c1.002-5.271,1.496-9.705,1.725-13.184C436.083,176.432,435.656,167.908,435.503,165.239z M131.5,230.685H86.923
	c-6.154,0-11.145-4.989-11.145-11.145v-84.138c0-6.155,4.99-11.146,11.145-11.146c6.155,0,11.145,4.99,11.145,11.146v72.993H131.5
	c6.155,0,11.145,4.99,11.145,11.145C142.645,225.695,137.655,230.685,131.5,230.685z M175.52,221.977
	c0,4.81-3.899,8.708-8.708,8.708h-4.873c-4.809,0-8.709-3.898-8.709-8.708v-89.011c0-4.81,3.9-8.709,8.709-8.709h4.873
	c4.809,0,8.708,3.899,8.708,8.709V221.977z M279.16,219.076c0,6.189-5.059,11.663-11.248,11.607
	c-2.922-0.026-5.568-1.181-7.541-3.046c-0.662-0.63-45.846-59.188-45.846-59.188v51.089c0,6.155-4.99,11.145-11.145,11.145
	c-6.155,0-11.145-4.989-11.145-11.145v-83.68c0-6.066,4.648-11.364,10.711-11.595c3.479-0.132,6.611,1.337,8.738,3.724
	c0.68,0.763,45.186,58.814,45.186,58.814v-51.4c0-6.155,4.99-11.144,11.145-11.146c6.154,0,11.145,4.99,11.145,11.146V219.076z
	 M351.595,166.325c6.156,0,11.145,4.989,11.145,11.145c0,6.154-4.988,11.145-11.145,11.145h-33.432v19.781h33.432
	c6.156,0,11.145,4.99,11.145,11.145c0,6.155-4.988,11.145-11.145,11.145h-44.576c-6.156,0-11.145-4.989-11.145-11.145v-84.138
	c0-6.155,4.988-11.146,11.145-11.146h44.576c6.156,0,11.145,4.99,11.145,11.146c0,6.154-4.988,11.145-11.145,11.142h-33.432v19.781
	H351.595z"/>
</svg>
