<?xml version="1.0" encoding="utf-8"?>
<!-- Generator: Adobe Illustrator 16.0.0, SVG Export Plug-In . SVG Version: 6.00 Build 0)  -->
<!DOCTYPE svg PUBLIC "-//W3C//DTD SVG 1.1//EN" "http://www.w3.org/Graphics/SVG/1.1/DTD/svg11.dtd">
<svg version="1.1" id="Layer_1" xmlns="http://www.w3.org/2000/svg" xmlns:xlink="http://www.w3.org/1999/xlink" x="0px" y="0px"
	 width="570.84px" height="899.52px" viewBox="0 0 570.84 899.52" enable-background="new 0 0 570.84 899.52" xml:space="preserve">
<path d="M285.42,0C127.77,0,0,127.785,0,285.42c0,47.715,11.699,92.67,32.37,132.195L284.641,899.52
	c0.135,0.285,0.435,0.48,0.779,0.48c0.346,0,0.645-0.195,0.779-0.48L538.47,417.615c20.67-39.525,32.37-84.48,32.37-132.195
	C570.84,127.785,443.07,0,285.42,0z M285.42,425.102c-77.461,0-139.667-62.839-139.667-139.677c0-77,62.657-139.656,139.667-139.656
	s139.667,62.657,139.667,139.656C425.087,361.801,363.43,425.102,285.42,425.102z"/>
</svg>
