<?xml version="1.0" encoding="utf-8"?>
<!-- Generator: Adobe Illustrator 16.0.0, SVG Export Plug-In . SVG Version: 6.00 Build 0)  -->
<!DOCTYPE svg PUBLIC "-//W3C//DTD SVG 1.1//EN" "http://www.w3.org/Graphics/SVG/1.1/DTD/svg11.dtd">
<svg version="1.1" id="分離模式" xmlns="http://www.w3.org/2000/svg" xmlns:xlink="http://www.w3.org/1999/xlink" x="0px"
	 y="0px" width="235.877px" height="300.463px" viewBox="0 0 235.877 300.463" enable-background="new 0 0 235.877 300.463"
	 xml:space="preserve">
<path fill-rule="evenodd" clip-rule="evenodd" fill="#333333" d="M117.94,300.463c0,0,52.437-60.903,77.996-92.759
	c25.559-31.856,39.941-61.48,39.941-90.003C235.877,52.694,183.077,0,117.94,0C52.8,0,0,52.694,0,117.701
	c0,28.958,8.938,56.887,35.19,90.003C58.018,236.503,117.94,300.463,117.94,300.463z M117.938,62.267
	c31.985,0,57.914,25.929,57.914,57.914s-25.929,57.914-57.914,57.914s-57.914-25.929-57.914-57.914S85.954,62.267,117.938,62.267z"
	/>
</svg>
