<?xml version="1.0" encoding="utf-8"?>
<!-- Generator: Adobe Illustrator 16.0.0, SVG Export Plug-In . SVG Version: 6.00 Build 0)  -->
<!DOCTYPE svg PUBLIC "-//W3C//DTD SVG 1.1//EN" "http://www.w3.org/Graphics/SVG/1.1/DTD/svg11.dtd">
<svg version="1.1" id="圖層_1" xmlns="http://www.w3.org/2000/svg" xmlns:xlink="http://www.w3.org/1999/xlink" x="0px" y="0px"
	 width="352.463px" height="131.639px" viewBox="0 0 352.463 131.639" enable-background="new 0 0 352.463 131.639"
	 xml:space="preserve">
<g>
	<g>
		<path fill="#040000" d="M65.63,78.164c0.201-12.529-12.536-19.204-23.511-19.119c2.172,0.447,8.062-2.541,9.503-3.871
			c11.072-10.222-2.06-22.658-15.027-21.581v-0.052C17.304,33.542,0,52.761,0,76.373h10.286
			c-4.389-22.427,6.333-34.635,18.911-39.776v59.193H17.46v1.729h19.134C49.402,97.518,65.418,92.101,65.63,78.164z M37.493,36.041
			c6.221,0.414,9.547,6.355,9.42,11.311c-0.126,4.742-3.885,8.59-9.42,9.324V36.041z M37.493,96.117V62.373
			c10.236,0.357,18.443,7.38,18.443,15.993C55.937,86.975,47.729,95.763,37.493,96.117z"/>
		<path fill="#040000" d="M157.468,87.28c-1.698,1.576-3.219,2.79-4.57,3.65c-1.356,0.872-2.716,1.521-4.095,1.99
			c-1.382,0.45-2.757,0.688-4.128,0.688c-2.582,0-4.832-0.727-6.742-2.19c-1.915-1.449-3.402-3.506-4.438-6.169
			c-0.916-2.328-1.393-5.025-1.518-8.028l16.676-12.648c1.189-0.018,2.385,0.023,3.584,0.104c0.209-0.019,0.396-0.063,0.607-0.063
			h2.642c-1.386-1.84-3.141-3.331-5.35-4.418c-2.601-1.278-5.462-1.915-8.583-1.915c-3.644,0-6.951,0.875-9.91,2.63
			c-2.942,1.751-5.282,4.168-6.984,7.253c-1.711,3.096-2.56,6.497-2.56,10.204c0,1.714,0.185,3.342,0.544,4.884
			c-2.139,3.077-5.51,7.275-8.088,8.818c-2.943,1.758-7.429,1.926-8.699-1.919c-0.492-1.46-0.477-3.063-0.477-4.597
			c-0.016-1.726-0.008-19.6,0-19.6c0.176,0,7.969,0,7.969,0v-1.691h-7.969v-7.633h-8.799c-0.231,4.731-1.755,6.78-3.26,7.633h-3.107
			v1.691h6.367v19.819c0,0,0.1,1.367,0.699,3.106c-3.427,1.572-8.701,4.136-14.465,7.544V56.631h-8.893V97.86
			c-0.024,2.254-0.014,1.507-0.024,2.254l7.255-0.001c1.368-0.445,2.639-1.99,3.766-2.84c1.184-0.892,12.793-7.059,13.527-5.832
			c1.223,2.038,3.216,4.027,6.516,4.802c7.656,1.8,14.43-0.938,18.688-9.98c0.242,0.552,0.469,1.11,0.76,1.636
			c1.543,2.831,3.726,5.007,6.523,6.55c2.813,1.546,5.975,2.324,9.515,2.324c3.386,0,6.444-0.637,9.198-1.911
			c2.748-1.278,5.64-3.397,8.709-6.378L157.468,87.28z M141.292,59.753c1.58,0,2.996,0.432,4.273,1.311
			c0.957,0.652,1.725,1.513,2.348,2.574l-0.555-0.283l-15.115,11.038c-0.025-0.361-0.056-0.723-0.074-1.084
			C132.694,64.194,135.589,59.753,141.292,59.753z"/>
		<path fill="#040000" d="M193.334,88.923c-1.92,0.891-4.42,1.33-7.508,1.33h-12.179c2.04-2.809,5.227-5.99,9.582-9.545L188.914,76
			c2.336-1.915,4.226-3.688,5.659-5.346c1.445-1.65,2.466-3.219,3.092-4.698c0.622-1.483,0.932-3.07,0.932-4.761
			c0-2.351-0.626-4.489-1.874-6.404c-1.256-1.896-3.003-3.39-5.234-4.467c-2.228-1.088-4.697-1.613-7.387-1.613
			c-2.426,0-4.684,0.391-6.755,1.214c-2.071,0.827-3.699,1.926-4.895,3.331c-1.189,1.39-1.785,1.866-1.785,3.532h5.856
			c0.108-3.651,2.761-6.605,5.684-6.605c1.402,0,2.718,0.454,3.932,1.382c1.222,0.927,2.165,2.209,2.865,3.841
			c0.692,1.639,1.024,3.417,1.024,5.338c0,2.265-0.503,4.512-1.528,6.743c-1.005,2.216-2.7,4.824-5.062,7.823
			c-0.439,0.529-1.075,1.308-1.882,2.295c-0.794,0.991-1.796,2.217-2.962,3.669c-2.734,3.316-4.82,6.036-6.251,8.17
			c-1.427,2.131-2.659,4.337-3.711,6.639l0.026,1.435h27.542l3.375-13.021h-1.151C196.95,86.558,195.251,88.032,193.334,88.923z"/>
		<path fill="#040000" d="M78.486,52.317c2.601,0,4.728-2.325,4.728-5.182c0-2.865-2.127-5.186-4.728-5.186
			c-2.604,0-4.72,2.321-4.72,5.186C73.767,49.993,75.882,52.317,78.486,52.317z"/>
		<path fill="#040000" d="M350.671,82.359c-1.755,5.353-5.778,8.892-8.859,10.74c-2.947,1.762-7.436,1.915-8.714-1.923
			c-0.491-1.456-0.473-3.063-0.479-4.593c0-1.726,0-20.628,0.007-20.628c0.164,0,7.965,0,7.965,0v-1.691h-7.972v-7.634h-8.785
			c-0.242,4.731-1.762,6.78-3.271,7.634h-3.104v1.691h3.508c0.009,1.01,0.083,2.608,0.035,3.356
			c-0.399,5.741-1.274,10.551-3.21,15.989c-0.907,2.545-2.274,6.468-4.65,8.028c-4.158,2.716-4.304-3.118-4.304-5.442V75.336
			c0-2.354-0.119-4.198-0.372-5.54c-0.238-1.334-0.663-2.544-1.237-3.613c-1.076-2.098-2.719-3.718-4.929-4.899
			c-2.201-1.181-4.779-1.59-7.708-1.766c0,0-12.383-1.803-15.199,7.686h5.446c0,0,0.44-6.348,9.44-6.162
			c0.932,0.022,1.796,0.261,2.593,0.771c0.797,0.496,1.42,1.169,1.855,2.019c0.376,0.723,0.67,1.811,0.879,3.241
			c0.197,1.442,0.295,3.29,0.295,5.569v0.596v1.237c-7.201,0.275-12.727,1.535-16.556,3.781c-3.83,2.235-5.745,5.313-5.745,9.239
			c0,2.757,0.969,4.984,2.936,6.688c1.96,1.698,4.583,2.548,7.864,2.548c4.103,0,7.939-1.509,11.501-4.526
			c0,0,0.838,5.324,6.896,5.324c0,0,12.785,3.482,16.816-31.573h0.22v19.819c0,0,0.581,8.632,8.378,10.468
			c8.681,2.038,16.202-1.735,20.252-13.884H350.671z M299.901,90.286c-2.81,2.329-5.302,3.483-7.455,3.483
			c-1.74,0-3.185-0.63-4.329-1.896c-1.154-1.268-1.725-2.865-1.725-4.769c0-1.896,0.541-3.622,1.621-5.193
			c1.068-1.568,2.614-2.857,4.634-3.882c2.02-1.01,4.444-1.736,7.254-2.168V90.286z"/>
		<path fill="#040000" d="M248.36,95.438V67.882h9.269c3.506,0.589,6.427,5.86,6.427,5.86V55.316
			c-0.578,5.264-6.427,6.725-6.427,6.725h-9.269V35.866c16.265-2.231,18.578,9.939,18.578,9.939V33.594h-20.333v-0.052
			c-18.02,0-34.197,19.219-34.197,42.831h9.613c-4.104-22.427,5.924-34.635,17.67-39.776V95.51h-5.711v2.008h9.891h2.734h25.604
			V85.313C272.21,85.313,266.95,96.623,248.36,95.438z"/>
	</g>
	<g>
		<path fill="#040000" d="M52.841,121.617l4.025,0.029c0.7,0.008,1.209,0.143,1.533,0.418c0.326,0.265,0.488,0.622,0.488,1.047
			c-0.014,0.689-0.336,1.349-0.98,1.959c-0.648,0.615-1.305,0.917-1.981,0.909c-0.149,0-0.306-0.022-0.472-0.066
			c-0.158-0.034-0.328-0.098-0.502-0.172l-0.016,2.712c0,0.648,0.314,0.987,0.961,1.01l-0.004,0.298l-3.108-0.015v-0.306
			c0.382,0,0.639-0.07,0.774-0.216c0.135-0.138,0.199-0.395,0.199-0.782l0.041-5.514c0.006-0.41-0.064-0.674-0.213-0.797
			c-0.137-0.131-0.387-0.194-0.746-0.213V121.617z M54.981,122.348l-0.021,2.54c0.268,0.205,0.527,0.351,0.771,0.463
			c0.244,0.1,0.468,0.156,0.684,0.148c0.397,0.016,0.695-0.123,0.898-0.391c0.193-0.265,0.301-0.667,0.301-1.2
			c0.006-0.548-0.113-1.017-0.375-1.39c-0.254-0.376-0.617-0.569-1.102-0.569C55.739,121.941,55.354,122.079,54.981,122.348z"/>
		<path fill="#040000" d="M68.774,122.038c-0.38,0-0.637,0.075-0.766,0.217c-0.132,0.134-0.197,0.391-0.207,0.774l-0.037,5.514
			c0,0.651,0.314,0.99,0.961,1.014v0.309l-3.115-0.033l0.009-0.306c0.382,0.007,0.638-0.063,0.766-0.212
			c0.138-0.135,0.199-0.399,0.208-0.787l0.038-5.498c0.003-0.413-0.067-0.686-0.209-0.805c-0.149-0.127-0.401-0.209-0.753-0.209
			l0.004-0.309l3.111,0.021L68.774,122.038z"/>
		<path fill="#040000" d="M76.528,121.506h0.291c0.014,0.193,0.088,0.286,0.24,0.283l5.697,0.044l-0.004,0.373l-5.308,7.413
			l1.913,0.016c1.082,0,1.873-0.146,2.373-0.443c0.493-0.306,0.824-0.831,0.983-1.576h0.455l-0.539,2.615h-0.306
			c-0.009-0.183-0.06-0.275-0.154-0.275l-6.086-0.045l0.01-0.373l5.281-7.405l-1.886-0.019c-0.901-0.004-1.54,0.134-1.92,0.405
			c-0.386,0.283-0.589,0.753-0.63,1.401H76.51L76.528,121.506z"/>
		<path fill="#040000" d="M90.768,121.61h0.29c0.004,0.189,0.086,0.282,0.24,0.282l5.694,0.045l-0.003,0.372l-5.304,7.407
			l1.905,0.019c1.082,0.003,1.878-0.146,2.373-0.44c0.504-0.313,0.835-0.83,0.987-1.571l0.454,0.007l-0.535,2.615h-0.314
			c-0.002-0.183-0.051-0.275-0.143-0.287l-6.09-0.044l0.004-0.365l5.275-7.421l-1.883-0.019c-0.895,0-1.535,0.134-1.913,0.406
			c-0.386,0.286-0.593,0.756-0.63,1.396h-0.426L90.768,121.61z"/>
		<path fill="#040000" d="M108.077,121.673h0.373l2.199,6.516c0.166,0.492,0.349,0.88,0.546,1.2c0.188,0.294,0.429,0.462,0.71,0.477
			l-0.01,0.302l-2.277-0.015l0.005-0.302h0.153c0.064-0.004,0.107-0.067,0.107-0.216c0-0.034-0.009-0.082-0.026-0.135l-0.747-2.217
			l-2.78-0.015c-0.294,0.805-0.443,1.423-0.443,1.829c-0.005,0.205,0.062,0.38,0.203,0.521c0.13,0.142,0.315,0.201,0.542,0.213
			h0.335l-0.007,0.302l-2.842-0.02l0.003-0.309c0.474-0.022,0.907-0.525,1.306-1.509L108.077,121.673z M107.847,123.499
			l-1.356,3.367l2.493,0.019L107.847,123.499z"/>
		<path fill="#040000" d="M128.847,122.161l4.023,0.026c0.696,0.011,1.205,0.148,1.533,0.425c0.325,0.271,0.48,0.61,0.484,1.047
			c-0.004,0.692-0.332,1.341-0.984,1.959c-0.641,0.607-1.304,0.913-1.98,0.913c-0.148,0-0.305-0.026-0.463-0.071
			c-0.166-0.033-0.336-0.097-0.5-0.182l-0.025,2.715c0,0.656,0.314,0.987,0.961,1.021v0.302l-3.102-0.016l-0.009-0.313
			c0.385-0.008,0.646-0.07,0.778-0.216c0.129-0.138,0.193-0.399,0.197-0.79l0.043-5.506c0-0.406-0.07-0.675-0.215-0.805
			c-0.141-0.12-0.391-0.194-0.746-0.205L128.847,122.161z M130.985,122.888l-0.023,2.537c0.271,0.212,0.521,0.372,0.768,0.469
			c0.244,0.112,0.475,0.157,0.688,0.157c0.402,0,0.693-0.127,0.896-0.388c0.197-0.269,0.295-0.667,0.305-1.211
			c0-0.544-0.121-1.014-0.376-1.394c-0.257-0.368-0.622-0.563-1.11-0.566C131.743,122.496,131.357,122.616,130.985,122.888z"/>
		<path fill="#040000" d="M144.354,121.938h0.373l2.199,6.516c0.157,0.48,0.336,0.876,0.535,1.192
			c0.195,0.298,0.434,0.462,0.718,0.48l-0.007,0.298l-2.281-0.015l0.006-0.302h0.146c0.071,0,0.112-0.063,0.111-0.212
			c0-0.038-0.01-0.082-0.023-0.135l-0.744-2.221l-2.779-0.018c-0.301,0.815-0.449,1.43-0.449,1.836
			c-0.004,0.209,0.066,0.388,0.199,0.518c0.142,0.142,0.318,0.213,0.544,0.213h0.335v0.302l-2.85-0.015l0.004-0.306
			c0.471-0.022,0.914-0.525,1.309-1.505L144.354,121.938z M144.124,123.756l-1.359,3.375l2.484,0.019L144.124,123.756z"/>
		<path fill="#040000" d="M156.128,125.729c-0.191-0.193-0.34-0.383-0.435-0.606c-0.101-0.201-0.151-0.429-0.146-0.663
			c0.004-0.611,0.291-1.145,0.854-1.602c0.559-0.447,1.219-0.671,1.967-0.671c0.383,0.004,0.887,0.122,1.512,0.335l-0.02,1.989
			h-0.464c-0.024-0.559-0.196-1.01-0.501-1.363c-0.299-0.347-0.674-0.519-1.117-0.532c-0.358,0-0.66,0.104-0.893,0.331
			c-0.234,0.22-0.359,0.507-0.359,0.839c-0.004,0.331,0.105,0.621,0.346,0.912c0.228,0.287,0.784,0.727,1.654,1.33
			c0.667,0.443,1.11,0.809,1.338,1.08c0.232,0.283,0.344,0.626,0.335,1.035c0,0.66-0.31,1.253-0.932,1.778
			c-0.616,0.513-1.31,0.763-2.08,0.759c-0.56-0.011-1.185-0.138-1.872-0.406l0.013-2.302l0.45,0.004
			c-0.001,0.645,0.184,1.188,0.549,1.62c0.373,0.437,0.815,0.656,1.329,0.66c0.464,0.003,0.843-0.131,1.12-0.406
			c0.271-0.276,0.417-0.615,0.42-1.047c0-0.361-0.111-0.693-0.332-0.979c-0.226-0.269-0.736-0.671-1.526-1.215
			C156.902,126.322,156.498,126.031,156.128,125.729z"/>
		<path fill="#040000" d="M167.239,122.153h0.276c0.052,0.194,0.136,0.291,0.247,0.291l5.556,0.037c0.144,0,0.212-0.093,0.212-0.283
			l0.31,0.008l-0.019,2.406h-0.451c0-1.219-0.641-1.829-1.917-1.833h-0.343l-0.047,6.505c-0.01,0.648,0.315,0.99,0.953,1.017v0.306
			l-3.102-0.025v-0.307c0.381,0,0.639-0.066,0.768-0.216c0.128-0.137,0.203-0.398,0.207-0.789l0.044-6.505l-0.435-0.011
			c-1.175-0.004-1.785,0.606-1.83,1.821l-0.443-0.008L167.239,122.153z"/>
		<path fill="#040000" d="M183.842,122.225h0.379l2.199,6.512c0.166,0.488,0.347,0.876,0.541,1.186
			c0.188,0.305,0.428,0.477,0.715,0.477l-0.01,0.309l-2.281-0.015v-0.302h0.15c0.075,0,0.11-0.07,0.117-0.209
			c-0.001-0.044-0.007-0.093-0.023-0.134l-0.745-2.224l-2.789-0.022c-0.294,0.826-0.438,1.438-0.442,1.844
			c-0.006,0.205,0.068,0.384,0.202,0.521c0.129,0.134,0.318,0.197,0.543,0.197l0.331,0.012v0.294l-2.841-0.007l-0.003-0.313
			c0.475-0.019,0.906-0.525,1.311-1.502L183.842,122.225z M183.615,124.031l-1.356,3.387l2.488,0.011L183.615,124.031z"/>
		<path fill="#040000" d="M209.609,122.422l0.298,0.008l-0.016,2.422h-0.465c-0.004-0.638-0.181-1.096-0.546-1.387
			c-0.345-0.279-0.887-0.428-1.613-0.436l-0.486-0.004c-0.052,0.458-0.076,0.868-0.076,1.244c-0.004,0.719,0.127,1.256,0.409,1.599
			c0.278,0.346,0.738,0.525,1.366,0.528h0.62v0.451l-2.346,0.045l-0.025,3.65l0.674,0.004c1.426,0.012,2.243-0.659,2.461-2.02
			l0.449,0.012l-0.539,2.611h-0.316c0-0.183-0.08-0.279-0.234-0.283l-4.631-0.037v-0.302c0.38,0,0.637-0.074,0.766-0.208
			c0.136-0.153,0.209-0.398,0.203-0.787l0.041-5.502c0.011-0.413-0.069-0.692-0.213-0.809c-0.148-0.138-0.395-0.201-0.743-0.216
			v-0.302l4.536,0.033C209.458,122.75,209.6,122.63,209.609,122.422z"/>
		<path fill="#040000" d="M217.402,122.791l2.077,0.022l4.588,6.255l0.011-1.896c0.008-1.215-0.079-2.176-0.257-2.895
			c-0.179-0.712-0.47-1.088-0.879-1.137v-0.302l2.781,0.02v0.309c-0.775,0.066-1.176,1.334-1.194,3.808l-0.024,4.303l-0.296-0.004
			l-5.443-7.458l-0.013,2.373c-0.012,1.49,0.074,2.597,0.251,3.305c0.178,0.715,0.476,1.088,0.889,1.144v0.309l-2.762-0.022v-0.301
			c0.78-0.116,1.175-1.569,1.192-4.374l0.023-2.19c0-0.38-0.074-0.63-0.213-0.753c-0.145-0.126-0.395-0.183-0.737-0.204
			L217.402,122.791z"/>
		<path fill="#040000" d="M232.445,122.616h0.281c0.045,0.197,0.129,0.297,0.246,0.286l5.555,0.045
			c0.136,0.004,0.205-0.089,0.21-0.283h0.304l-0.015,2.414h-0.451c-0.009-1.214-0.644-1.833-1.926-1.845l-0.337,0.008l-0.05,6.509
			c0.001,0.659,0.316,0.991,0.961,1.013v0.31l-3.107-0.022v-0.309c0.384,0,0.642-0.071,0.773-0.213
			c0.13-0.138,0.203-0.402,0.199-0.778l0.041-6.517l-0.431-0.011c-1.171-0.004-1.79,0.607-1.829,1.821l-0.446-0.011L232.445,122.616
			z"/>
		<path fill="#040000" d="M245.946,122.995l4.039,0.034c0.599,0.012,1.046,0.13,1.348,0.361c0.295,0.231,0.447,0.588,0.443,1.051
			c-0.008,0.528-0.177,1.013-0.523,1.46c-0.337,0.447-0.846,0.864-1.521,1.24l1.408,2.202c0.624,0.987,1.207,1.501,1.743,1.534
			v0.302l-1.523-0.011c-0.308,0.004-0.574-0.189-0.813-0.547l-2.49-3.938l-0.022,3.148c-0.007,0.651,0.316,0.987,0.965,1.017v0.302
			l-3.116-0.022l0.006-0.309c0.38,0,0.635-0.057,0.766-0.209c0.138-0.142,0.201-0.398,0.207-0.778l0.037-5.518
			c0.002-0.406-0.063-0.675-0.213-0.801c-0.145-0.12-0.389-0.198-0.749-0.209L245.946,122.995z M248.083,123.636l-0.021,2.653
			c0.492,0.365,0.914,0.548,1.267,0.548c0.378,0.003,0.663-0.123,0.85-0.377c0.188-0.249,0.286-0.621,0.286-1.125
			c0.006-0.607-0.132-1.084-0.397-1.46c-0.278-0.361-0.615-0.548-1.007-0.548C248.715,123.327,248.385,123.436,248.083,123.636z"/>
		<path fill="#040000" d="M264.514,122.813l0.3,0.015l-0.015,2.425h-0.464c-0.002-0.641-0.183-1.106-0.536-1.393
			c-0.356-0.283-0.898-0.433-1.628-0.439h-0.483c-0.046,0.465-0.072,0.875-0.08,1.24c-0.007,0.73,0.131,1.263,0.412,1.602
			c0.285,0.347,0.733,0.518,1.367,0.529h0.616l-0.001,0.443l-2.34,0.056l-0.032,3.654h0.68c1.422,0.012,2.243-0.671,2.457-2.012
			h0.453l-0.54,2.615l-0.32-0.004c0-0.189-0.073-0.283-0.229-0.283l-4.635-0.029v-0.31c0.379,0,0.642-0.066,0.768-0.205
			c0.133-0.145,0.205-0.413,0.205-0.796l0.035-5.496c0-0.417-0.07-0.686-0.212-0.812c-0.144-0.131-0.395-0.201-0.749-0.209
			l0.012-0.302l4.533,0.03C264.36,123.134,264.506,123.029,264.514,122.813z"/>
		<path fill="#040000" d="M277.257,122.902l0.304,0.011l-0.028,2.434l-0.464-0.016c0.005-0.633-0.177-1.095-0.533-1.378
			c-0.354-0.287-0.893-0.433-1.624-0.439h-0.48c-0.054,0.465-0.082,0.875-0.082,1.236c0,0.73,0.129,1.267,0.408,1.606
			c0.283,0.342,0.731,0.524,1.361,0.524l0.62,0.012v0.443l-2.336,0.033l-0.033,3.662h0.671c1.434,0.011,2.254-0.663,2.468-2.008
			h0.453l-0.538,2.615h-0.312c-0.012-0.194-0.09-0.283-0.25-0.283l-4.633-0.033v-0.31c0.385,0,0.647-0.067,0.779-0.209
			c0.124-0.134,0.193-0.405,0.203-0.786l0.037-5.494c0-0.421-0.072-0.693-0.213-0.813c-0.143-0.134-0.396-0.197-0.748-0.22v-0.302
			l4.539,0.033C277.1,123.233,277.251,123.122,277.257,122.902z"/>
		<path fill="#040000" d="M285.989,126.654c-0.187-0.183-0.336-0.38-0.435-0.593c-0.095-0.212-0.147-0.439-0.142-0.667
			c0-0.61,0.287-1.144,0.848-1.598c0.566-0.458,1.224-0.675,1.967-0.675c0.386,0,0.887,0.111,1.517,0.343l-0.012,1.979h-0.464
			c-0.027-0.556-0.193-1.01-0.502-1.367c-0.304-0.343-0.679-0.521-1.122-0.525c-0.359,0.004-0.665,0.101-0.897,0.324
			c-0.234,0.22-0.354,0.499-0.361,0.842c0,0.327,0.11,0.63,0.345,0.909c0.234,0.287,0.787,0.73,1.663,1.322
			c0.663,0.455,1.104,0.816,1.339,1.092c0.229,0.287,0.341,0.626,0.341,1.035c-0.009,0.663-0.323,1.256-0.942,1.77
			c-0.616,0.519-1.312,0.768-2.08,0.768c-0.566-0.004-1.183-0.142-1.878-0.413l0.021-2.291h0.449c0,0.648,0.177,1.185,0.55,1.62
			c0.372,0.439,0.815,0.659,1.329,0.659c0.464,0.012,0.844-0.138,1.118-0.402c0.275-0.271,0.417-0.622,0.417-1.047
			c0-0.368-0.108-0.692-0.333-0.979c-0.221-0.271-0.73-0.686-1.525-1.219C286.758,127.254,286.363,126.959,285.989,126.654z"/>
	</g>
	<path fill="#040000" d="M171.424,25.264c0.229-0.161,0.359-0.43,0.569-0.615c0.357-0.318,0.814-0.511,1.178-0.82
		c0.302-0.264,0.463-0.641,0.75-0.913c1.014-0.956,2.205-1.853,3.08-2.958c0.171-0.213,0.712-0.563,0.712-0.862
		c0.475,0,0.956-0.772,1.165-1.123c0.151-0.255,0.251-0.36,0.438-0.559c0.167-0.184,0.266-0.52,0.481-0.642
		c0.118-0.066,0.505-0.484,0.531-0.734c0.097-0.77,0.964-1.301,0.443-2.104c-0.344-0.526-1.231-1.253-1.899-1.253
		c-0.54,0-1.166-0.331-1.84-0.209c-0.51,0.092-0.942,0.128-1.447,0.033c0.075-0.321,0.301-0.598,0.454-0.882
		c0.232-0.428,0.385-0.666,0.138-1.135c-0.077-0.155-1.772-0.371-1.772-0.514c-0.846-0.142-0.765,0.49-0.912,0.797
		c-0.251,0.509-0.439,1.017-0.647,1.543c-0.165,0.419-0.135,0.63-0.39,0.966c-0.08,0.107-0.303,0.401-0.25,0.606
		c0.073,0.026-0.9,1.438-0.9,1.593c-0.161-0.042-0.777,0.755-0.917,0.891c-0.466,0.461-0.671,0.984-1.083,1.465
		c-0.522,0.601-1.138,1.405-1.82,1.83c0,0.072,0.365,0.333,0.51,0.333c0,0.228,0.577,1.088,0.744,1.224
		c0.578,0.463,1.385-1.436,1.871-1.439c-0.027,0,0.5-0.625,0.557-0.675c0.259-0.215,0.469-0.672,0.775-0.812
		c0.434-0.194,1.075,0.501,1.432,0.765c0.397,0.298,0.717,0.589,0.386,1.032c-0.21,0.28-0.503,0.515-0.752,0.749
		c-0.171,0.159-1.229,0.921-1.189,1.171c-0.617-0.029-0.94,1.028-1.629,1.082c-0.11,0.391-1.419,0.851-1.807,0.906
		c-0.024,0.24-0.708,0.347-0.849,0.439c-0.392,0.265-0.061,0.663-0.049,1.064c0.235-0.045,0.302,1.11,0.299,1.263
		c-0.007,0.17,0.188,0.573,0.244,0.75c0.295-0.013,0.701-0.355,0.973-0.503c0.309-0.169,0.597-0.41,0.827-0.677
		c0.27-0.304,0.609-0.331,0.89-0.609C170.929,25.516,171.188,25.431,171.424,25.264z M174.728,15.127l-0.021-0.039
		c0.078,0.021,0.387-0.116,0.571-0.116c0.168,0,0.367,0.074,0.468,0.09c0.147,0.02,0.329-0.003,0.468,0.041
		c0.054,0.015,0.014,0.129,0.09,0.153c0.49,0.168,0.417,0.083,0.417,0.62c0.003,0-0.464,0.797-0.523,0.882
		c-0.115,0.177-0.326,0.748-0.716,0.508c-0.217-0.137-0.536-0.491-0.774-0.491c0.001-0.156-0.455-0.582-0.602-0.603
		C174.137,16.179,174.66,15.204,174.728,15.127z M201.79,24.868c0-0.68-0.299-0.548-0.794-0.402
		c-0.602,0.172-1.275,0.279-1.876,0.119c-0.191-0.053-0.565-0.112-0.582-0.333c-0.045-0.503,1.068-0.769,0.689-1.201
		c-0.24-0.27-0.975-0.301-1.312-0.344c-0.41-0.051-0.48-0.176-0.871-0.089c-0.246,0.05-0.272,0.314-0.553,0.39
		c0-1.069-0.384-1.629,1.204-1.594c0.055-0.217,0.473-0.279,0.602-0.42c0.14-0.161-0.06-0.464,0.026-0.604
		c0.226-0.078,1.409,0.211,1.869,0.118c0.033-0.004,0.519-0.239,0.573-0.279c0.445-0.343,1.032-1.211,0.809-1.79
		c-0.251-0.652-1.174-0.851-1.786-0.851c-0.705,0-1.828,1.153-1.797,1.884c0.004,0.011-2.032,0.645-2.103,0.496
		c-0.171-0.364,0.474-0.882,0.239-1.23c-0.312-0.47-1.633,0.03-2.042,0.054c-0.042,0.428-0.298,0.906-0.658,1.164
		c-0.521,0.376-1.303,0.556-1.938,0.594c-0.062-0.516-0.039-1.036,0.548-1.187c0.429-0.115,0.813,0.089,0.815-0.535
		c0.004-0.31-0.217-0.788,0.007-1.062c0.041-0.049,1.084,0.037,1.345,0.037c1.022,0,2.103-0.11,2.931-0.214
		c0.319-0.039,0.465-1.36,0.355-1.61c-0.133-0.286-2.067-0.33-2.508-0.416c-0.501-0.096-0.217-0.776,0.036-0.981
		c0.695,0.038,1.456-0.124,2.136,0.093c0.007-0.056,0.41-0.337,0.422-0.539c0.011-0.169,0.275-0.539,0.311-0.736
		c0.188-0.913-2.514-0.274-2.508-0.563c0-1.125,1.108-0.752,1.804-0.752c1.326,0,2.539,0.643,2.796-0.694
		c-0.517-0.221,0.419-1.144,0.021-1.329c-0.353-0.164-1.129,0-1.372-0.083c-0.324-0.06-1.951,0.301-1.951-0.303
		c0,0,0.563-0.598,0.617-0.737c0.12-0.326,0.228-0.571,0.419-0.855c0.015-0.023,0.033-0.051,0.044-0.077
		c0.123-0.214,0.195-0.465,0.349-0.667c0.172-0.225,0.424-0.436,0.267-0.751c-0.183-0.363-1.237-0.802-1.608-0.597
		c-0.275,0.155-0.428,0.505-0.556,0.772c-0.312,0.642-0.76,1.305-1.188,1.89c-0.292,0.392-0.84,0.594-1.044,1.048
		c-0.171,0.384-0.797-0.302-0.923-0.46c-0.319-0.387-0.452-0.923-0.572-1.393c-0.101-0.38-0.093-1.168-0.541-1.326
		c-0.353-0.124-1.626,0.295-1.651,0.741c-0.014,0.228,0.388,0.783,0.472,1.043c0.06,0.172,0.534,1.256,0.411,1.398
		c-0.01,0.014-1.068-0.279-1.189-0.323c-0.484-0.165-1.087-0.324-1.595-0.381c-0.18,0.419-0.24,0.951-0.376,1.397
		c-0.11,0.375-0.186,0.781,0.342,0.781c0.189,0,2.422,0.289,2.422,0.299c0-0.063,0.709,0.01,0.769,0.034
		c0.421,0.174,0.174,0.223,0.165,0.61c-0.72-0.037-1.556-0.493-2.276-0.225c-0.364,0.131-0.463,1.291-0.463,1.784
		c0.856,0.104,1.772-0.164,2.583,0.089c0,0.508,0.02,1.197-0.57,1.354c-0.528,0.143-1.319-0.024-1.821-0.125
		c-0.344-0.065-0.687-0.02-1.011-0.143c-0.025,0.604,0.142,1.233,0.007,1.83c0.522,0.173,1.23,0.211,1.713,0.211
		c-0.055,0.31,2.325,0.259,2.199,0.69c0-0.013-1.736,0.418-1.909,0.505c-0.532,0.244-1.039,0.384-1.643,0.375
		c-0.124-0.003-1.26-0.19-1.268-0.149c-0.07,0.306-0.008,0.603-0.049,0.909c-0.02,0.148-0.122,0.307-0.119,0.458
		c0.005,0.318,0.104,0.369,0.459,0.396c0.488,0.038,1.424-0.166,1.79-0.081c0.371,0.624-1.479,0.452-1.986,0.601
		c0.021,0.095-0.545,0.196-0.604,0.209c-0.111,0.378-0.226,0.152-0.167,0.66c0.027,0.259,0.218,0.906,0.167,1.025
		c0.969,0,1.65-0.18,2.62-0.18c0,0.682,0.141,1.293-0.616,1.293c-2.061,0-2.417,0.247-2.184,2.104
		c0.503,0.125,0.881-0.095,1.413-0.208c0.464-0.095,0.985,0.005,1.463-0.079c0.011,0.412-0.123,0.786-0.153,1.195
		c-0.006,0.136,0.051,0.372-0.024,0.495c-0.138,0.219-0.719,0.298-0.964,0.284c-0.337-0.012-0.86-0.48-1.185-0.284
		c-0.156,0.097-0.39,0.869-0.443,1.05c-0.152,0.499,0.132,0.727,0.548,0.962c0.432,0.247,3.293,1.382,3.354,0.601
		c0.292-0.036,0.388-0.71,0.467-0.918c0.045-0.116,0.442-1.084,0.344-1.079c0-0.731,0.141-1.509,0-2.323
		c0.229-0.021,0.571-0.342,0.774-0.455c0.365-0.199,1.391-0.733,1.815-0.544c0.347,0.161,0.66,0.601,0.963,0.838
		c0.278,0.217,0.569,0.387,0.613,0.763c0.051,0.429-0.276,0.746-0.38,1.07c-0.146,0.469-0.082,1.096-0.175,1.596
		c-0.116,0.593-0.407,1.229-0.369,1.844c0.032,0.425,0.133,0.421,0.544,0.452c0.424,0.025,0.877,0.02,1.282,0.142
		c0.232,0.067,0.508,0.324,0.696,0.096c0.151-0.176-0.11-1.373,0.248-1.373c0.342-1.073,0.085-2.185,0.515-3.222
		c0.463,0.131,0.895,0.346,1.369,0.428c0.651,0.114,1.133-0.174,1.71-0.392c0.383-0.144,1.337-0.232,1.315-0.822
		C202.308,25.912,201.985,24.86,201.79,24.868z M193.453,22.605c-0.07,0.235-0.119,0.25-0.398,0.303
		c-0.002,0-1.571,0.314-1.571,0.314c0.02-0.297-0.102-0.948,0.169-1.165c0.126-0.103,0.619-0.083,0.777-0.098
		C192.887,21.925,193.665,21.925,193.453,22.605z M162.03,29.248c-0.463,0.152-0.869,0.16-1.353,0.235
		c-0.302,0.044-0.593,0.13-0.89,0.217c-0.447,0.127-0.809,0.455-1.275,0.363c-0.166-0.034,0.01-1.53-0.146-1.739
		c-0.299-0.392-0.782-0.066-1.172-0.168c-0.156-0.045-0.287-0.145-0.406-0.253c0.041-0.44-0.135-1.281,0.097-1.588
		c0.253-0.324,1.046-0.098,1.427,0.102c0.434,0.226,0.725,0.862,1.24,0.794c0.039-1.037,0.596-2.065,0.896-3.042
		c0.222-0.712,0.401-1.381,0.558-2.113c0.116-0.531,0.07-1.004,0.07-1.548c0-0.628-0.085-1.289-0.115-1.919
		c-0.032-0.666-0.015-1.342-0.045-2.011c-0.013-0.25,0.039-1.97-0.053-2.058c-0.466-0.452-2.957,0.569-3.547,0.67
		c-0.618,0.104-0.788,0.229-0.968-0.306c-0.118-0.37-0.11-1.022,0.055-1.376c0.203-0.43,0.531-0.208,0.891-0.445
		c0.314-0.201,0.375-0.606,0.361-1.034c0.068,0.003,0.133,0.011,0.187,0.036c0.342,0.139,0.595,0.416,1.009,0.539
		c0.453,0.137,0.873,0.237,1.344,0.054c0.827-0.319,1.266-1.549,0.764-2.327c-0.291-0.452-1.271-0.796-1.994-0.678
		c-0.722,0.122-0.655,0.562-0.876,1.108c-0.085,0.206-0.298,0.381-0.488,0.562c-0.013-0.12-0.023-0.235-0.029-0.339
		c-0.738-0.086-1.454,0.396-2.134,0.324c-0.106-0.751-0.439-1.292,0.467-1.619c0.24-0.087,1.129,0.006,1.268-0.196
		c0.215-0.593,0.279-1.283,0.396-1.911c0.1-0.555-0.143-1.328,0.153-1.833c0.226-0.389,0.409-0.321,0.877-0.375
		c0.688-0.079,1.359-0.249,2.038-0.396c0.296-0.064,1.068-0.064,1.233-0.295c0.164-0.229,0.021-0.99-0.005-1.267
		c-0.051-0.493-0.191-0.939-0.668-1.169c-0.154-0.074-1.184,0.486-1.426,0.545c-0.351,0.083-1.424,0.426-1.743,0.256
		c-0.272-0.149-0.166-0.89-0.115-1.278c0.071-0.558,0.034-1.041-0.065-1.587c-0.482-0.063-0.936-0.204-1.424-0.18
		c-0.131,0.008-1.015,0.086-1.041,0.118c-0.426,0.523-0.225,1.806-0.314,2.477c-0.068,0.509-0.105,1.516-0.498,1.905
		c-0.285,0.28-0.691,0.431-1.041,0.607c-0.901,0.458-2.003,0.783-2.93,1.188c-0.447,0.197-1.432,0.678-1.896,0.452
		c-0.741-0.36-0.882-1.842-0.968-2.549c-0.062-0.511-0.146-0.999-0.336-1.067c-0.125-0.041-0.633,0.122-0.795,0.146
		c-0.829,0.118-1.682-0.197-1.684,0.899c0,0.631,0.268,1.267,0.458,1.851c0.135,0.408,0.278,1.455,0.278,1.455
		c-0.295,0.458-1.373,0.52-1.85,0.665c-0.723,0.218-1.433,0.491-2.139,0.75c-0.508,0.188-1.113,0.272-1.265,0.88
		c-0.122,0.497,0.144,1.359,0.546,1.674c0.55,0.443,1.225-0.162,1.752-0.352c0.681-0.25,1.389-0.254,2.055-0.541
		c0.57-0.25,1.586-0.874,2.199-0.532c0.553,0.305,0.969,1.054,1.352,1.562c0.831,1.105,0.603,1.115,1.461,0.675
		c0.463-0.238,1.543-0.909,1.499-1.275c0,0-0.964-1.195-1.093-1.946c0.013,0.084,2.666-1.079,2.937-1.226
		c0.675-0.376,1.312-0.616,2.087-0.684c0.006,0-0.146,1.81-0.205,1.978c-0.346,0.946-1.963,0.328-2.053,1.293
		c-0.047,0.476,0.309,1.423-0.03,1.793c-0.631,0.708-2.673,0.169-2.968,1.204c-0.152,0.532-0.02,1.573,0.621,1.714
		c0.379,0.077,1.055-0.276,1.43-0.361c0.558-0.129,1.145-0.229,1.721-0.201c0.039,0.3,0.146,0.775,0.068,1.069
		c-0.439,1.673-3.129,0.643-4.041,1.742c-0.145,0.179-0.08,0.416-0.049,0.628c0.08,0.526,0.244,1.051,0.41,1.565
		c-0.065-0.026-0.128-0.059-0.195-0.092c-0.096-0.047-0.16-0.051-0.227-0.126c-0.115-0.13-0.145-0.337-0.295-0.439
		c-0.186-0.124-0.617-0.133-0.834-0.147c-0.76-0.059-1.569-0.009-2.34-0.009c-0.877,0-1.755,0-2.631,0
		c-0.387,0-1.035-0.075-1.553-0.042c-0.233,0.016-0.441,0.054-0.587,0.132c-0.913,0.492-0.249,2.076-0.212,2.733
		c1.577,0.053,3.164,0.167,4.742,0.203c0.696,0.014,1.403,0.091,2.1,0.044c0.779-0.057,1.107-0.297,1.414-0.942
		c0.066-0.143,0.127-0.371,0.295-0.434c0.164-0.057,0.404-0.051,0.605-0.024c0.328,0.882,0.766,1.823,0.846,2.712
		c0.047,0.523-0.022,1.041-0.033,1.56c-0.012-0.024-0.021-0.049-0.033-0.073c-0.259-0.622-0.36-0.655-1.195-0.462
		c-0.033,0.008-0.068,0.016-0.104,0.025c-1.153,0.28-2.412,0.381-3.588,0.617c-0.724,0.149-1.432,0.377-2.172,0.482
		c-0.451,0.067-2.02-0.099-2.027,0.228c-0.006,0.172,0.372,0.644,0.597,0.894c0.245,0.276,0.435,0.574,0.565,0.886
		c0.093,0.228,0.172,0.431,0.383,0.619c1.369-0.455,2.838-0.741,4.316-1.015c-0.068,0.22-0.043,0.482-0.095,0.705
		c-0.209,0.893-0.658,2.03-1.116,2.829c-0.281,0.479-0.58,0.962-0.835,1.447c-0.14,0.273-0.425,0.587-0.404,0.891
		c0.509,0.086,1.038,0.047,1.554,0.147c0.305,0.06,0.661,0.057,0.946,0.179c0.248,0.107,0.333,0.303,0.627,0.172
		c0.391-0.172,0.432-0.785,0.539-1.135c0.233-0.749,0.471-1.501,0.745-2.234c0.162-0.443,0.236-0.913,0.389-1.357
		c0.094-0.274,0.562-0.782,0.575-1.013c0.015-0.292-0.302-0.439-0.535-0.518c-0.151-0.051-0.308-0.086-0.468-0.117
		c-0.154-0.025-0.287-0.12-0.429-0.198c0.646-0.061,1.298-0.14,1.787-0.38c0.003-0.003,0.003-0.003,0.005-0.007
		c0.005,0.413,0.006,0.827,0.023,1.234c0.012,0.268,2.213,0.42,2.461,0.254c0.566-0.379,0.316-2.168,0.06-2.759
		c0.181-0.002,0.216-0.106,0.187-0.282c-0.032-0.193,0.602,0.095,0.665,0.166c0.134,0.16,0.218,0.621,0.263,0.816
		c0.139,0.591-0.209,1.575,0.194,2.067c0.194,0.235,0.525,0.281,0.872,0.268c0.012,0.046,0.025,0.091,0.035,0.137
		c0.025,0.121,0.018,0.263-0.016,0.381c-0.026,0.11-0.118,0.174-0.145,0.288c-0.028,0.117,0.118,1.652,0.132,1.657
		c-0.169-0.059-0.028,0.19-0.117,0.209c-0.522,0.118-5.222,0.698-5.211,0.805c0.116,0.638,0.037,1.354,0.073,2.001
		c0.64,0.078,1.37-0.055,2.027-0.063c0.572-0.003,1.158-0.049,1.713-0.158c0.651-0.122,1.309-0.227,1.969-0.275
		c0.893-0.066,0.877-0.161,0.927,0.804c0.042,0.859,0.274,1.866,0.268,2.728c0,0.029-1.251-0.36-1.364-0.416
		c-0.245-0.122-0.612-0.327-0.59-0.648c0.027-0.339,0.781-0.6,0.633-0.983c-0.078-0.198-0.417-0.24-0.578-0.31
		c-0.361-0.159-0.693-0.38-0.975-0.656c-0.497,0.353-0.838,0.9-1.375,1.2c-0.529,0.294-1.051,0.625-1.61,0.877
		c-0.421,0.193-1.371,0.316-1.626,0.697c-0.209,0.315-0.184,0.842-0.18,1.202c0.002,0.603,0.082,1.235,0.092,1.55
		c0.039,0.027,0.15,0.081,0.191,0.094c0.273-0.109,0.57-0.111,0.86-0.232c0.443-0.182,0.842-0.457,1.271-0.669
		c0.389-0.194,0.83-0.25,1.234-0.396c0.352-0.129,0.612-0.425,0.937-0.606c0.015,0.363,0.554,0.651,0.765,0.914
		c0.012,0.016,0.76,0.807,0.76,0.552c0,0.07-0.008,0.125,0.012,0.192c0.439-0.039,0.707,0.457,1.078,0.624
		c0.354,0.16,1.041,0.236,1.43,0.196c0.024-0.036,0.495-0.322,0.489-0.293c0.042-0.195,0.241-0.188,0.322-0.337
		c0.5-0.883,0.491-1.836,0.491-2.847c0-1.152-0.098-2.188-0.32-3.357c-0.145-0.771-0.052-0.584,0.655-0.712
		c0.755-0.146,1.536-0.224,2.288-0.318c0.611-0.072,0.666-0.11,0.754-0.649c0.029-0.188,0.079-2.212-0.076-2.235
		C162.812,28.948,162.372,29.135,162.03,29.248z M154.63,21.907c-0.109,0.202-0.882,0.424-1.091,0.422
		c-0.427-0.004-0.307-0.398-0.286-0.79c0.08-0.016,0.211-0.061,0.361-0.114c0.29-0.104,0.648-0.23,0.785-0.17
		C154.575,21.336,154.71,21.759,154.63,21.907z M154.706,18.867c-0.607,0.295-1.364,0.448-1.921,0.844
		c0.169-0.12-0.084-1.05-0.159-1.207c0.357,0.024,0.723-0.3,1.053-0.421c0.014-0.003,0.027-0.01,0.041-0.015
		c0.296-0.105,0.806-0.276,0.955-0.013C154.698,18.101,154.716,18.859,154.706,18.867z M158.67,24.121
		c-0.082-0.019-0.11,0.011-0.093,0.088h-1.504V23.52c0.098,0.031,0.098-0.041,0.09-0.121c0.248,0.134,0.855-0.03,1.115-0.058
		C158.843,23.288,158.678,23.675,158.67,24.121z M158.759,19.908c0.172,0.013,0.16,0.564,0.097,0.666
		c-0.153,0.269-0.499,0.192-0.768,0.228c-0.061,0.006-0.914,0.118-0.925,0.095c-0.209-0.376-0.01-0.627,0.316-0.778
		C157.886,19.932,158.495,19.885,158.759,19.908z M156.518,18.264c-0.347-0.198-0.017-0.733-0.122-1.128
		c-0.012-0.037,0.604-0.177,0.586-0.201c0.619-0.193,0.84-0.29,1.487-0.468c0.009,0.087,0.229,1.239,0.079,1.222
		c-0.353-0.038-0.827,0.119-1.156,0.234C157.181,17.997,156.734,18.389,156.518,18.264z M181.625,23.91
		c0.003,0-1.798-1.504-1.804-1.474c0.213-0.016,0.356-0.502,0.431-0.612c0.196-0.3,0.124-0.341,0.393-0.609
		c0.157-0.157,0.197-0.187,0.277-0.324c0.121-0.214,0.314-0.343,0.314-0.639c0-0.52-1.042-0.416-1.37-0.513
		c-0.482-0.145-0.946-0.493-1.318,0.044c-0.278,0.401-0.418,0.881-0.713,1.268c-0.068,0.089-0.17,0.131-0.256,0.232
		c-0.21,0.27-0.625,0.499-0.766,0.82c-0.141,0.317-0.481,0.594-0.676,0.876c-0.237,0.342-0.532,0.701-0.844,0.988
		c-0.26,0.238-0.496,0.456-0.663,0.764c-0.149,0.271-0.241,0.321-0.47,0.554c-0.151,0.16-0.211,0.394-0.346,0.564
		c-0.351,0.449-0.922,0.918-1.382,1.3c-0.542,0.458-1.177,0.768-1.763,1.153c-0.518,0.335-0.602,0.506-0.297,1.109
		c0.25,0.484,0.602,1.253,1.163,1.453c0.508,0.177,1.064-0.244,1.389-0.609c0.263-0.292,0.609-0.482,0.904-0.741
		c0.256-0.226,0.444-0.511,0.691-0.746c0.262-0.254,0.918-1.45,1.346-1.165c0.204,0.14,0.439,0.517,0.762,0.517
		c-0.031,0.096,0.642,0.359,0.731,0.533c0.32,0.573-0.286,1.274-0.764,1.645c-1.016,0.779-1.75,1.649-2.846,2.336
		c-0.516,0.323-1.043,0.614-1.568,0.904c-0.423,0.235-0.981,0.29-1.358,0.595c-0.386,0.31-0.244,0.835-0.151,1.239
		c0.151,0.643,0.209,1.192,0.248,1.831c0.717-0.104,1.569-0.547,2.237-0.835c0.595-0.255,1.013-0.609,1.455-1.045
		c0.351-0.351,0.917-0.542,1.206-0.941c-0.036-0.179,0.521-0.693,0.643-0.871c0.216-0.315,0.415-0.544,0.723-0.758
		c0.34-0.232,0.531-0.574,0.857-0.834c0.391-0.313,0.591-0.692,0.864-1.108c0.314-0.466,0.67-0.907,1.048-1.322
		c0.59-0.649,1.127-1.236,1.529-2.015c0.296-0.571,0.908-1.117,0.857-1.803c-0.021-0.306-0.071-0.684-0.165-0.968
		C182.161,24.652,181.568,23.91,181.625,23.91z M179.129,26.318c0,0.654-0.985-1.072-1.203-1.143
		c0.122-0.102,0.643-0.512,0.598-0.663c0.206,0.029,0.3-0.146,0.515-0.092c0.042,0.15,0.143,0.207,0.302,0.18
		c0.023,0.39,0.181,0.676,0.181,1.112C179.372,25.686,179.426,26.398,179.129,26.318z"/>
</g>
</svg>
