<?xml version="1.0" encoding="utf-8"?>
<!-- Generator: Adobe Illustrator 22.0.1, SVG Export Plug-In . SVG Version: 6.00 Build 0)  -->
<svg version="1.1" id="圖層_1" xmlns="http://www.w3.org/2000/svg" xmlns:xlink="http://www.w3.org/1999/xlink" x="0px" y="0px"
	 viewBox="0 0 176 38.8" style="enable-background:new 0 0 176 38.8;" xml:space="preserve">
<style type="text/css">
	.st0{fill:#A7A782;}
	.st1{fill:#32261C;}
	.st2{fill:#473D20;}
	.st3{fill:none;}
	.st4{fill:#8A724E;}
	.st5{fill:#B09476;}
	.st6{fill:#252221;}
	.st7{fill:#503115;}
	.st8{fill:#FFFFFF;}
	.st9{fill:none;stroke:#FFFFFF;stroke-width:0.25;stroke-miterlimit:10;}
	.st10{fill:#3A3024;}
	.st11{fill:none;stroke:#A7A782;stroke-width:0.7004;stroke-miterlimit:10;}
	.st12{fill:#FFFFFF;stroke:#000000;stroke-miterlimit:10;}
	.st13{fill:#040000;}
	.st14{fill:#A4A580;}
	.st15{fill:#30251B;}
	.st16{fill:#4E2F15;}
	.st17{fill:#88704D;}
	.st18{fill:#232120;}
</style>
<path d="M28.7,9.4c0.9,0,1.7-0.9,1.7-1.9c0-1.1-0.8-1.9-1.7-1.9c-1,0-1.7,0.9-1.7,1.9C27,8.5,27.7,9.4,28.7,9.4z M87.6,3.6v21.7
	h-2.1V26h14v-4.5c0,0-1.9,4.2-8.7,3.7V15.1h3.4c1.3,0.2,2.3,2.2,2.3,2.2v-6.8c-0.2,1.9-2.3,2.5-2.3,2.5h-3.4V3.3
	C96.7,2.5,97.6,7,97.6,7V2.5h-7.4v0c-6.6,0-12.5,7.1-12.5,15.8h3.5C79.7,10,83.3,5.5,87.6,3.6z M124.9,24.4
	c-1.1,0.6-2.7,0.7-3.2-0.7c-0.2-0.5-0.2-1.1-0.2-1.7c0-0.6,0-7.6,0-7.6c0.1,0,2.9,0,2.9,0v-0.6h-2.9V11h-3.2
	c-0.1,1.7-0.6,2.5-1.2,2.8H116v0.6h1.3c0,0.4,0,1,0,1.2c-0.1,2.1-0.5,3.9-1.2,5.9c-0.3,0.9-0.8,2.4-1.7,3c-1.5,1-1.6-1.1-1.6-2v-4.6
	c0-0.9,0-1.5-0.1-2c-0.1-0.5-0.2-0.9-0.5-1.3c-0.4-0.8-1-1.4-1.8-1.8c-0.8-0.4-1.7-0.6-2.8-0.7c0,0-4.5-0.7-5.6,2.8h2
	c0,0,0.2-2.3,3.5-2.3c0.3,0,0.7,0.1,0.9,0.3c0.3,0.2,0.5,0.4,0.7,0.7c0.1,0.3,0.2,0.7,0.3,1.2c0.1,0.5,0.1,1.2,0.1,2.1v0.7
	c-2.6,0.1-4.7,0.6-6.1,1.4c-1.4,0.8-2.1,2-2.1,3.4c0,1,0.4,1.8,1.1,2.5c0.7,0.6,1.7,0.9,2.9,0.9c1.5,0,2.9-0.6,4.2-1.7
	c0,0,0.3,2,2.5,2c0,0,4.7,1.3,6.1-11.6h0.1v7.3c0,0,0.2,3.2,3.1,3.9c3.2,0.8,5.9-0.6,7.4-5.1h-0.7C127.5,22.4,126.1,23.7,124.9,24.4
	z M109.6,23.4c-1,0.9-1.9,1.3-2.7,1.3c-0.6,0-1.2-0.2-1.6-0.7c-0.4-0.5-0.6-1.1-0.6-1.8c0-0.7,0.2-1.3,0.6-1.9
	c0.4-0.6,1-1.1,1.7-1.4c0.7-0.4,1.6-0.6,2.7-0.8V23.4z M57.6,22.2c-0.6,0.6-1.2,1-1.7,1.3c-0.5,0.3-1,0.6-1.5,0.7
	c-0.5,0.2-1,0.3-1.5,0.3c-0.9,0-1.8-0.3-2.5-0.8c-0.7-0.5-1.2-1.3-1.6-2.3c-0.3-0.9-0.5-1.9-0.6-3l6.1-4.7c0.4,0,0.9,0,1.3,0
	c0.1,0,0.1,0,0.2,0h1c-0.5-0.7-1.1-1.2-2-1.6c-1-0.5-2-0.7-3.1-0.7c-1.3,0-2.5,0.3-3.6,1c-1.1,0.6-1.9,1.5-2.6,2.7
	c-0.6,1.1-0.9,2.4-0.9,3.8c0,0.6,0.1,1.2,0.2,1.8c-0.8,1.1-2,2.7-3,3.2c-1.1,0.6-2.7,0.7-3.2-0.7c-0.2-0.5-0.2-1.1-0.2-1.7
	c0-0.6,0-7.2,0-7.2c0.1,0,2.9,0,2.9,0v-0.6h-2.9V11h-3.2c-0.1,1.7-0.6,2.5-1.2,2.8H33v0.6h2.3v7.3c0,0,0,0.5,0.3,1.1
	c-1.3,0.6-3.2,1.5-5.3,2.8V11H27v15.2c0,0.8,0,0.6,0,0.8h2.7c0.5-0.2,1-0.7,1.4-1c0.4-0.3,4.7-2.6,4.9-2.1c0.4,0.8,1.2,1.5,2.4,1.8
	c2.8,0.7,5.3-0.3,6.8-3.7c0.1,0.2,0.2,0.4,0.3,0.6c0.6,1,1.4,1.8,2.4,2.4c1,0.6,2.2,0.9,3.5,0.9c1.2,0,2.4-0.2,3.4-0.7
	c1-0.5,2.1-1.3,3.2-2.4L57.6,22.2z M51.6,12.1c0.6,0,1.1,0.2,1.6,0.5c0.3,0.2,0.6,0.6,0.9,0.9l-0.2-0.1l-5.5,4.1c0-0.1,0-0.3,0-0.4
	C48.5,13.7,49.6,12.1,51.6,12.1z M10.7,3.6v21.8H6.4V26h7c4.7,0,10.5-2,10.6-7.1c0.1-4.6-4.6-7.1-8.6-7c0.8,0.2,2.9-0.9,3.5-1.4
	c4-3.8-0.8-8.3-5.5-7.9v0C6.3,2.4,0,9.5,0,18.2h3.8C2.2,10,6.1,5.5,10.7,3.6z M13.7,3.4c2.3,0.2,3.5,2.3,3.4,4.2
	c0,1.7-1.4,3.2-3.4,3.4V3.4z M13.7,13.1c3.7,0.1,6.7,2.7,6.7,5.9c0,3.2-3,6.4-6.7,6.5V13.1z M70.7,22.8c-0.7,0.3-1.6,0.5-2.7,0.5
	h-4.5c0.7-1,1.9-2.2,3.5-3.5l2.1-1.7c0.9-0.7,1.5-1.4,2.1-2c0.5-0.6,0.9-1.2,1.1-1.7c0.2-0.5,0.3-1.1,0.3-1.8c0-0.9-0.2-1.7-0.7-2.4
	C71.4,9.6,70.8,9,70,8.6C69.2,8.2,68.3,8,67.3,8c-0.9,0-1.7,0.1-2.5,0.4c-0.8,0.3-1.4,0.7-1.8,1.2c-0.4,0.5-0.7,0.7-0.7,1.3h2.1
	c0-1.3,1-2.4,2.1-2.4c0.5,0,1,0.2,1.4,0.5c0.4,0.3,0.8,0.8,1,1.4c0.3,0.6,0.4,1.3,0.4,2c0,0.8-0.2,1.7-0.6,2.5
	c-0.4,0.8-1,1.8-1.8,2.9c-0.2,0.2-0.4,0.5-0.7,0.8c-0.3,0.4-0.7,0.8-1.1,1.4c-1,1.2-1.8,2.2-2.3,3c-0.5,0.8-1,1.6-1.4,2.4l0,0.5
	h10.1l1.2-4.8h-0.4C72,22,71.4,22.5,70.7,22.8z M46.6,37.2l-1.7-4.6l-0.3,0l-2,4.7c-0.3,0.7-0.6,1.1-1,1.1l0,0.2l2.2,0l0-0.2l-0.3,0
	c-0.2,0-0.3,0-0.4-0.1C43,38.1,43,38,43,37.9c0-0.3,0.1-0.7,0.3-1.3l2.1,0l0.6,1.6c0,0,0,0.1,0,0.1c0,0.1,0,0.1-0.1,0.2l-0.1,0
	l0,0.2l1.7,0l0-0.2c-0.2,0-0.4-0.1-0.5-0.3C46.9,37.8,46.8,37.5,46.6,37.2z M43.4,36.3l1-2.4l0.9,2.4L43.4,36.3z M175.7,36.2
	c-0.2-0.2-0.5-0.4-1-0.8c-0.7-0.4-1.1-0.7-1.3-0.9c-0.2-0.2-0.3-0.4-0.3-0.6c0-0.2,0.1-0.4,0.3-0.6c0.2-0.2,0.4-0.2,0.7-0.2
	c0.3,0,0.6,0.1,0.9,0.4c0.2,0.3,0.4,0.6,0.4,1l0.4,0l0-1.4c-0.5-0.2-0.9-0.2-1.2-0.2c-0.6,0-1.1,0.2-1.5,0.5
	c-0.4,0.3-0.6,0.7-0.6,1.1c0,0.2,0,0.3,0.1,0.5c0.1,0.2,0.2,0.3,0.3,0.4c0.3,0.2,0.6,0.4,0.9,0.6c0.6,0.4,1,0.7,1.2,0.9
	c0.2,0.2,0.3,0.4,0.3,0.7c0,0.3-0.1,0.5-0.3,0.7c-0.2,0.2-0.5,0.3-0.9,0.3c-0.4,0-0.7-0.1-1-0.5c-0.3-0.3-0.4-0.7-0.4-1.1l-0.3,0
	l0,1.6c0.5,0.2,1,0.3,1.4,0.3c0.6,0,1.1-0.2,1.6-0.6c0.5-0.4,0.7-0.8,0.7-1.3C176,36.6,175.9,36.4,175.7,36.2z M35.4,38
	c-0.4,0.2-1,0.3-1.8,0.3l-1.5,0l4-5.3v-0.3h-4.4c-0.1,0-0.2-0.1-0.2-0.2l-0.2,0v1.7h0.3c0-0.5,0.2-0.8,0.5-1
	c0.3-0.2,0.8-0.3,1.5-0.3l1.4,0l-4,5.3v0.3l4.7,0c0.1,0,0.1,0.1,0.1,0.2l0.2,0l0.4-1.8l-0.3,0C36,37.5,35.8,37.8,35.4,38z M5.5,32.9
	l-3.1,0v0.2c0.3,0,0.5,0.1,0.6,0.1c0.1,0.1,0.2,0.3,0.2,0.6l0,3.9c0,0.3,0,0.5-0.1,0.6c-0.1,0.1-0.3,0.2-0.6,0.2l0,0.2l2.4,0l0-0.2
	c-0.5,0-0.7-0.3-0.7-0.7l0-1.9c0.1,0.1,0.3,0.1,0.4,0.1c0.1,0,0.2,0,0.4,0c0.5,0,1-0.2,1.5-0.7C6.8,34.8,7,34.4,7,33.9
	c0-0.3-0.1-0.5-0.4-0.7C6.4,33,6,32.9,5.5,32.9z M5.8,35.3c-0.2,0.2-0.4,0.3-0.7,0.3c-0.2,0-0.3,0-0.5-0.1c-0.2-0.1-0.4-0.2-0.6-0.3
	l0-1.8c0.3-0.2,0.6-0.3,0.9-0.3c0.4,0,0.6,0.1,0.8,0.4c0.2,0.3,0.3,0.6,0.3,1C6,34.8,6,35.1,5.8,35.3z M14,33.2
	c0.1-0.1,0.3-0.2,0.6-0.2l0-0.2h-2.4v0.2c0.3,0,0.5,0.1,0.6,0.1c0.1,0.1,0.2,0.3,0.2,0.6v3.9c0,0.3-0.1,0.5-0.2,0.6
	c-0.1,0.1-0.3,0.2-0.6,0.2l0,0.2l2.4,0v-0.2c-0.5,0-0.7-0.2-0.7-0.7l0-3.9C13.8,33.5,13.9,33.3,14,33.2z M24.5,38.1
	c-0.4,0.2-1,0.3-1.8,0.3h-1.5l4-5.3v-0.3h-4.4c-0.1,0-0.2-0.1-0.2-0.2l-0.2,0l0,1.7l0.3,0c0-0.5,0.2-0.8,0.5-1
	c0.3-0.2,0.8-0.3,1.5-0.3l1.4,0l-4,5.2l0,0.3l4.7,0c0.1,0,0.1,0.1,0.1,0.2l0.2,0l0.4-1.8l-0.3,0C25.1,37.5,24.9,37.8,24.5,38.1z
	 M146.2,37.3l-1.1-1.5c0.5-0.3,0.9-0.6,1.2-0.9c0.3-0.3,0.4-0.7,0.4-1c0-0.3-0.1-0.6-0.3-0.7c-0.2-0.2-0.6-0.2-1-0.2l-3.1,0l0,0.2
	c0.3,0,0.5,0.1,0.6,0.1c0.1,0.1,0.2,0.3,0.2,0.6l0,3.9c0,0.3,0,0.4-0.2,0.5c-0.1,0.1-0.3,0.1-0.6,0.2l0,0.2h2.4l0-0.2
	c-0.5,0-0.7-0.3-0.7-0.7l0-2.2l1.9,2.8c0.2,0.2,0.4,0.4,0.6,0.4l1.2,0l0-0.2C147.1,38.4,146.7,38,146.2,37.3z M143.8,35.2l0-1.9
	c0.2-0.1,0.5-0.2,0.7-0.2c0.3,0,0.6,0.1,0.8,0.4c0.2,0.3,0.3,0.6,0.3,1c0,0.4-0.1,0.6-0.2,0.8c-0.1,0.2-0.4,0.3-0.6,0.3
	C144.5,35.5,144.2,35.4,143.8,35.2z M124.6,32.9v0.2c0.3,0,0.5,0.3,0.7,0.8c0.1,0.5,0.2,1.2,0.2,2v1.3l-3.5-4.4l-1.6,0l0,0.2
	c0.3,0,0.5,0.1,0.6,0.1c0.1,0.1,0.2,0.3,0.2,0.5l0,1.5c0,2-0.3,3-0.9,3.1l0,0.2h2.1l0-0.2c-0.3,0-0.5-0.3-0.7-0.8
	c-0.1-0.5-0.2-1.3-0.2-2.3l0-1.7l4.2,5.2l0.2,0l0-3c0-1.7,0.3-2.6,0.9-2.7l0-0.2L124.6,32.9z M154.8,38.4l-0.5,0l0-2.6l1.8-0.1
	l0-0.3l-0.5,0c-0.5,0-0.8-0.1-1-0.4c-0.2-0.2-0.3-0.6-0.3-1.1c0-0.3,0-0.5,0.1-0.9l0.4,0c0.6,0,1,0.1,1.2,0.3c0.3,0.2,0.4,0.5,0.4,1
	l0.4,0v-1.7l-0.2,0c0,0.2-0.1,0.2-0.3,0.2l-3.5,0l0,0.2c0.3,0,0.5,0.1,0.6,0.1c0.1,0.1,0.2,0.3,0.2,0.6v3.9c0,0.3,0,0.5-0.2,0.6
	c-0.1,0.1-0.3,0.1-0.6,0.1v0.2l3.5,0c0.1,0,0.2,0.1,0.2,0.2h0.2l0.4-1.8l-0.3,0C156.5,37.9,155.9,38.4,154.8,38.4z M164.5,38.4
	l-0.5,0l0-2.6l1.8,0v-0.3l-0.5,0c-0.5,0-0.8-0.1-1-0.4c-0.2-0.2-0.3-0.6-0.3-1.1c0-0.3,0-0.5,0.1-0.9l0.4,0c0.6,0,1,0.1,1.2,0.3
	c0.3,0.2,0.4,0.5,0.4,1l0.4,0l0-1.7l-0.2,0c0,0.2-0.1,0.2-0.3,0.2l-3.5,0l0,0.2c0.3,0,0.5,0.1,0.6,0.2c0.1,0.1,0.2,0.3,0.2,0.6v3.9
	c0,0.3-0.1,0.5-0.2,0.6c-0.1,0.1-0.3,0.1-0.6,0.2v0.2l3.5,0c0.1,0,0.2,0.1,0.2,0.2l0.2,0l0.4-1.8l-0.3,0
	C166.2,37.9,165.6,38.4,164.5,38.4z M112.8,38.4h-0.5v-2.6l1.8,0l0-0.3l-0.5,0c-0.5,0-0.8-0.1-1-0.4c-0.2-0.2-0.3-0.6-0.3-1.1
	c0-0.3,0-0.6,0.1-0.9l0.4,0c0.6,0,1,0.1,1.2,0.3c0.3,0.2,0.4,0.5,0.4,1l0.4,0l0-1.7l-0.2,0c0,0.1-0.1,0.2-0.3,0.2l-3.5,0l0,0.2
	c0.3,0,0.5,0.1,0.6,0.1c0.1,0.1,0.2,0.3,0.2,0.6l0,3.9c0,0.3,0,0.4-0.2,0.6c-0.1,0.1-0.3,0.1-0.6,0.1v0.2h3.5c0.1,0,0.2,0.1,0.2,0.2
	l0.2,0L115,37l-0.3,0C114.5,37.9,113.9,38.4,112.8,38.4z M136.5,32.9l-4.2,0c-0.1,0-0.2-0.1-0.2-0.2l-0.2,0l0,1.7l0.3,0
	c0-0.9,0.5-1.3,1.4-1.3l0.3,0v4.6c0,0.3-0.1,0.5-0.1,0.5c-0.1,0.1-0.3,0.2-0.6,0.2v0.2l2.4,0l0-0.2c-0.5,0-0.7-0.2-0.7-0.7l0-4.6
	l0.3,0c1,0,1.5,0.4,1.5,1.3l0.3,0v-1.7l-0.2,0C136.7,32.8,136.6,32.9,136.5,32.9z M78.5,35.4c-0.7-0.4-1.1-0.7-1.3-0.9
	c-0.2-0.2-0.3-0.4-0.3-0.6c0-0.2,0.1-0.4,0.3-0.6c0.2-0.2,0.4-0.2,0.7-0.2c0.3,0,0.6,0.1,0.9,0.4c0.2,0.2,0.4,0.6,0.4,1l0.4,0l0-1.4
	c-0.5-0.1-0.9-0.2-1.2-0.2c-0.6,0-1.1,0.2-1.5,0.5c-0.4,0.3-0.6,0.7-0.6,1.1c0,0.2,0,0.3,0.1,0.5c0.1,0.2,0.2,0.3,0.3,0.4
	c0.3,0.2,0.6,0.4,0.9,0.6c0.6,0.4,1,0.7,1.2,0.8c0.2,0.2,0.3,0.4,0.3,0.7c0,0.3-0.1,0.5-0.3,0.7c-0.2,0.2-0.5,0.3-0.9,0.3
	c-0.4,0-0.7-0.2-1-0.5c-0.3-0.3-0.4-0.7-0.4-1.1H76v1.6c0.5,0.2,1,0.3,1.4,0.3c0.6,0,1.1-0.2,1.6-0.5c0.5-0.4,0.7-0.8,0.7-1.3
	c0-0.3-0.1-0.5-0.3-0.7C79.3,36,79,35.7,78.5,35.4z M58.8,32.9l-3.1,0l0,0.2c0.3,0,0.5,0.1,0.6,0.1c0.1,0.1,0.2,0.3,0.2,0.6l0,3.9
	c0,0.3,0,0.5-0.1,0.6c-0.1,0.1-0.3,0.1-0.6,0.2l0,0.2l2.4,0l0-0.2c-0.5,0-0.7-0.3-0.7-0.7l0-1.9c0.1,0.1,0.3,0.1,0.4,0.1
	c0.1,0,0.2,0,0.4,0c0.5,0,1-0.2,1.5-0.7c0.5-0.4,0.7-0.9,0.7-1.4c0-0.3-0.1-0.5-0.4-0.7C59.7,33,59.3,32.9,58.8,32.9z M59.2,35.3
	c-0.2,0.2-0.4,0.3-0.7,0.3c-0.2,0-0.3,0-0.5-0.1c-0.2-0.1-0.4-0.2-0.6-0.3l0-1.8c0.3-0.2,0.6-0.3,0.9-0.3c0.4,0,0.7,0.1,0.9,0.4
	c0.2,0.3,0.3,0.6,0.3,1C59.4,34.8,59.3,35.1,59.2,35.3z M99.8,37.2l-1.7-4.6l-0.3,0l-2,4.7c-0.3,0.7-0.6,1-1,1.1l0,0.2l2.2,0v-0.2
	l-0.3,0c-0.2,0-0.3,0-0.4-0.1c-0.1-0.1-0.2-0.2-0.2-0.4c0-0.3,0.1-0.7,0.3-1.3h2.1l0.6,1.6c0,0,0,0.1,0,0.1c0,0.1,0,0.1-0.1,0.1H99
	l0,0.2h1.7l0-0.2c-0.2,0-0.4-0.1-0.6-0.3C100.1,37.8,99.9,37.5,99.8,37.2z M96.6,36.3l1-2.4l0.9,2.4L96.6,36.3z M69.6,37.2l-1.7-4.6
	l-0.3,0l-2,4.7c-0.3,0.7-0.6,1.1-1,1.1v0.2l2.2,0l0-0.2l-0.3,0c-0.2,0-0.3,0-0.4-0.1C66,38.1,66,38,66,37.9c0-0.3,0.1-0.7,0.3-1.3
	l2.1,0l0.6,1.6c0,0,0,0.1,0,0.1c0,0.1,0,0.2-0.1,0.2h-0.1l0,0.2l1.7,0l0-0.2c-0.2,0-0.4-0.1-0.6-0.3C69.9,37.8,69.7,37.5,69.6,37.2z
	 M66.4,36.3l1-2.4l0.9,2.4H66.4z M89.8,32.8l-4.3,0c-0.1,0-0.1-0.1-0.2-0.2l-0.2,0l0,1.7l0.3,0c0-0.9,0.5-1.3,1.4-1.3l0.3,0l0,4.6
	c0,0.3-0.1,0.5-0.2,0.6c-0.1,0.1-0.3,0.2-0.6,0.2v0.2l2.4,0l0-0.2c-0.5,0-0.7-0.3-0.7-0.7l0-4.6l0.3,0c1,0,1.5,0.4,1.5,1.3h0.3
	l0-1.7l-0.2,0C89.9,32.8,89.9,32.8,89.8,32.8z M168.3,5l1.5,0c1.5,0.7,0.2,2.2-0.4,2.9c-0.1,0.2-1.4,2.3-2.3,3.4
	c0.2,0,0.3,0.1,0.5,0.1c3.4,0.7,6.8-1.1,7.6-4.1c0.8-3-1.3-5.9-4.7-6.6c-3.4-0.7-6.8,1.1-7.6,4.1c-0.4,1.5,0,3.1,0.9,4.3
	C164.9,8.1,168.3,5,168.3,5z M174,4.3c0,0,2,5.3-4.7,6.8c0,0-0.7-0.8,1.2-1.3c1.9-0.5,2.4-2,2.4-2.9c0-0.9-1.9-1.5-1.5-2.9
	c0.4-1.4-0.1-1.8-0.1-1.8S173.3,2.8,174,4.3z M168.1,1.3c0,0-0.6,0.2-1.3,1c-0.7,0.8-0.1,2.2-1,3.2c-0.9,1-1.2,2.4-2.1,2.2
	C163.8,7.7,162.5,2.3,168.1,1.3z M136.6,4.1c0,0-2-2.7-2.6-2.4c0,0,10.4,11.9,11.1,12.2c0.7,0.2,0.6-0.2,1.2-0.5
	c0.6-0.3,1.3-0.2,1.3-0.2s-1.7-0.4-2.6-1C139.8,8.2,136.6,4.1,136.6,4.1z M169.8,6.3c0.1-0.4-0.2-0.7-0.6-0.8
	c-0.4-0.1-0.8,0.1-0.9,0.5c-0.1,0.4,0.2,0.7,0.6,0.8C169.3,6.8,169.7,6.6,169.8,6.3z M167.6,12.9c-0.9-0.3-1-0.9-1-0.9l-1,0.9
	c0,0,3.2,1.8,4,1.5C170.5,14.1,168.5,13.2,167.6,12.9z M159.6,7.4c-0.6,0.5,0.2,0.8,1,1.2c0.8,0.4,2.3,1.2,2.3,1.2l0.9-0.7
	C163.8,9.2,160.3,6.9,159.6,7.4z M162.9,9.9l-7.1,5.2c-1-0.8-1.6-1.3-1.7-1.4c-0.3-0.3-0.8-0.2-0.8-0.2l-0.5,0.4
	c-2.5-0.9-1.6-2.5-1.3-4.2c0.3-1.7-0.2-1.9-0.2-1.9S136.6,0.3,134.6,0c-1-0.1-1.9,0.9-1.8,1.7c0.1,0.6,0.8,1.3,1.2,1.9
	c1.1,1.5,2.2,2.9,3.4,4.3c2.2,2.5,4.4,5.6,7.2,7.6c0.2,0.1,0.3,0.3,0.5,0.4c1.3,0.4,3.2-1.3,4-1.2c0.7,0,2.2,1.3,2.2,1.3
	c-0.5,0.6,0.2,1,0.2,1l0.9,0.6l-10.9,7.9c0,0-0.6,1.6,1.4,1.9l12.4-7.9l11.6,7.6c1.1,0.6,2-0.4,2-0.4c0.6-0.7,0.2-1.1,0.2-1.1
	s-5.9-4.7-10.3-8.2l7-4.5C165.7,12.9,163.6,11.6,162.9,9.9z M143.9,25.4c0,0-1.2,1.1-1.2,1.6c0,0-0.2-0.2-0.3-0.4
	c-0.1,0.1-0.1,0.2-0.1,0.2l-0.4-0.5c0-0.1,0.1-0.2,0.3-0.3c-0.1-0.4,0.1-0.8,0.6-1.1l9.9-7l0.4,0.2c-4.5,3.2-9.6,6.8-10.9,7.9
	c0,0.2,0.1,0.4,0.2,0.6c0.2-0.4,0.8-1.4,2.7-2.6c1.3-0.8,5-3.4,8.3-5.7l0.8,0.5C149.2,22.2,143.9,25.4,143.9,25.4z M160.3,20.7
	c2.6,1.8,5.3,3.6,7.9,5.3c0,0,0.2,0.9-0.7,0.8c-0.7-0.1-7.6-4.7-11.9-7.6c-0.3-0.2-0.6-0.4-0.9-0.6c-0.3-0.2-0.6-0.4-0.8-0.5
	c-0.1-0.1-0.2-0.2-0.4-0.2c-0.1-0.1-0.2-0.2-0.3-0.2c-0.2-0.1-0.3-0.2-0.4-0.3c-0.2-0.2-0.3-0.2-0.3-0.2l0.4-0.4c-2.7-3-6-3.3-6.7-2
	c-0.5,1-1.6-0.5-6.5-5.6c-4.9-5.1-6.2-7.6-6.2-7.6s0.5-1,1.3-0.7c2,0.8,3.1,2.9,4.2,4.7c0.4,0.7,0.8,1.5,1.6,1.9
	c1,0.6,2.4,0.7,3.5,1.2c1.9,0.8,3.1,2.1,4.7,3.4c0.5,0.4,0.8,0.8,1.2,1.3c0.5,0.6,0.5,0.6,1.2,1c1.1,0.5,2.2,1.2,3.2,1.9
	c0.1,0.1,0.3,0.2,0.4,0.3c0.1,0.1,0.2,0.2,0.3,0.3c0.1,0.1,0.2,0.2,0.3,0.2c0.3,0.2,0.5,0.4,0.8,0.6c0.3,0.2,0.6,0.5,0.9,0.7
	C158.2,19.2,159.2,20,160.3,20.7z M157.7,16.6c-0.3-0.2-0.6-0.5-0.8-0.7c1.4-1,2.3-1.6,2.3-1.6l2.4-1.8c0,0-0.4,0-0.7,0.2
	c-0.1,0.1-1.8,1.3-4.3,2.9c-0.1-0.1-0.2-0.2-0.4-0.3l6.5-4.6c0,0,0.2,0.7,0.9,1.3C163.9,12.4,161.2,14.3,157.7,16.6z"/>
</svg>
