<?xml version="1.0" encoding="utf-8"?>
<!-- Generator: Adobe Illustrator 16.0.0, SVG Export Plug-In . SVG Version: 6.00 Build 0)  -->
<!DOCTYPE svg PUBLIC "-//W3C//DTD SVG 1.1//EN" "http://www.w3.org/Graphics/SVG/1.1/DTD/svg11.dtd">
<svg version="1.1" id="圖層_1" xmlns="http://www.w3.org/2000/svg" xmlns:xlink="http://www.w3.org/1999/xlink" x="0px" y="0px"
	 width="100px" height="28.007px" viewBox="0 35.732 100 28.007" enable-background="new 0 35.732 100 28.007" xml:space="preserve"
	>
<g>
	<g>
		<path d="M18.59,48.417c0.102-3.575-3.575-5.414-6.639-5.414c0.613,0.102,2.247-0.715,2.656-1.124
			c3.167-2.86-0.613-6.435-4.291-6.128l0,0C4.903,35.751,0,41.165,0,47.906h2.962C1.634,41.573,4.699,38.1,8.274,36.568v16.854
			H4.903v0.512h5.414C13.994,53.934,18.59,52.4,18.59,48.417z M10.623,36.466c1.736,0.102,2.758,1.838,2.656,3.167
			c0,1.328-1.124,2.452-2.656,2.656V36.466z M10.623,53.523v-9.602c2.86,0.102,5.209,2.145,5.209,4.495
			C15.833,50.868,13.585,53.422,10.623,53.523z"/>
		<path d="M44.74,50.971c-0.511,0.408-0.919,0.816-1.328,1.021c-0.409,0.203-0.817,0.408-1.124,0.611
			c-0.409,0.104-0.817,0.205-1.124,0.205c-0.715,0-1.328-0.205-1.941-0.613c-0.511-0.408-0.919-1.021-1.226-1.736
			c-0.307-0.613-0.409-1.43-0.409-2.247l4.699-3.575c0.307,0,0.715,0,1.021,0c0.102,0,0.102,0,0.204,0h0.715
			c-0.409-0.511-0.919-0.919-1.532-1.226c-0.817-0.511-1.634-0.613-2.554-0.613c-1.021,0-1.941,0.204-2.86,0.715
			c-0.817,0.511-1.532,1.226-1.94,2.043c-0.511,0.919-0.715,1.839-0.715,2.86c0,0.51,0.103,0.919,0.205,1.43
			c-0.613,0.919-1.532,2.042-2.247,2.554c-0.817,0.511-2.145,0.511-2.452-0.512c-0.102-0.408-0.102-0.918-0.102-1.326
			c0-0.512,0-5.518,0-5.518c0.102,0,2.247,0,2.247,0v-0.613H30.03v-2.145h-2.452c-0.102,1.328-0.511,1.941-0.919,2.145H25.74v0.511
			h1.838v5.62c0,0,0,0.408,0.204,0.918c-1.021,0.408-2.451,1.123-4.085,2.146V42.288h-2.554v11.747c0,0.611,0,0.408,0,0.611h2.043
			c0.409-0.103,0.715-0.611,1.021-0.816c0.306-0.204,3.677-2.043,3.881-1.635c0.307,0.613,0.919,1.125,1.839,1.328
			c2.145,0.512,4.085-0.307,5.312-2.859c0.102,0.204,0.102,0.307,0.204,0.511c0.409,0.817,1.021,1.431,1.838,1.839
			c0.817,0.408,1.737,0.612,2.656,0.612s1.839-0.204,2.656-0.511c0.817-0.408,1.634-0.92,2.451-1.838L44.74,50.971z M40.143,43.208
			c0.409,0,0.817,0.102,1.226,0.408c0.307,0.205,0.511,0.409,0.715,0.715l-0.205-0.102l-4.29,3.167c0-0.103,0-0.205,0-0.307
			C37.691,44.433,38.509,43.208,40.143,43.208z"/>
		<path d="M54.852,51.48c-0.51,0.205-1.226,0.408-2.145,0.408h-3.473c0.613-0.816,1.532-1.736,2.758-2.758l1.634-1.328
			c0.612-0.511,1.226-1.021,1.634-1.532c0.409-0.511,0.717-0.919,0.92-1.328c0.205-0.409,0.307-0.919,0.307-1.328
			c0-0.715-0.204-1.226-0.51-1.838c-0.308-0.511-0.817-0.919-1.533-1.226c-0.612-0.307-1.327-0.409-2.145-0.409
			c-0.716,0-1.328,0.102-1.941,0.306c-0.613,0.205-1.021,0.511-1.43,0.919c-0.306,0.409-0.51,0.511-0.51,1.021h1.634
			c0-1.021,0.817-1.838,1.634-1.838c0.408,0,0.816,0.102,1.123,0.408c0.308,0.307,0.613,0.613,0.817,1.124
			c0.204,0.511,0.308,0.919,0.308,1.532c0,0.613-0.104,1.328-0.41,1.941c-0.306,0.613-0.815,1.328-1.43,2.247
			c-0.102,0.103-0.307,0.409-0.511,0.613c-0.204,0.306-0.511,0.613-0.817,1.021c-0.816,0.919-1.328,1.737-1.736,2.349
			c-0.409,0.613-0.715,1.227-1.021,1.839v0.409h7.865l0.92-3.678h-0.308C55.873,50.766,55.465,51.175,54.852,51.48z"/>
		<path d="M22.268,41.063c0.715,0,1.328-0.613,1.328-1.43c0-0.817-0.613-1.43-1.328-1.43s-1.328,0.613-1.328,1.43
			C20.94,40.449,21.553,41.063,22.268,41.063z"/>
		<path d="M99.592,49.643c-0.512,1.43-1.736,2.451-2.555,2.962c-0.816,0.511-2.145,0.511-2.451-0.512
			c-0.102-0.408-0.102-0.919-0.102-1.328c0-0.51,0-5.822,0-5.822h2.246v-0.511h-2.246v-2.145H91.93
			c-0.103,1.328-0.511,1.941-0.918,2.145h-0.921v0.511h1.021c0,0.306,0,0.715,0,0.919c-0.102,1.634-0.407,2.962-0.92,4.494
			c-0.305,0.715-0.611,1.838-1.326,2.247c-1.227,0.817-1.227-0.918-1.227-1.531v-3.575c0-0.715,0-1.226-0.103-1.532
			c-0.103-0.409-0.204-0.715-0.306-1.021c-0.308-0.613-0.818-1.021-1.432-1.43c-0.611-0.306-1.326-0.409-2.146-0.511
			c0,0-3.473-0.511-4.288,2.145h1.53c0,0,0.104-1.838,2.656-1.736c0.307,0,0.512,0.102,0.715,0.204
			c0.205,0.307,0.408,0.511,0.512,0.715c0.103,0.204,0.203,0.511,0.203,0.919c0.104,0.409,0.104,0.919,0.104,1.532v0.205v0.306
			c-2.043,0.103-3.575,0.409-4.697,1.124c-1.125,0.613-1.636,1.532-1.636,2.655c0,0.816,0.308,1.43,0.815,1.941
			c0.513,0.51,1.328,0.715,2.248,0.715c1.123,0,2.248-0.408,3.27-1.328c0,0,0.204,1.531,1.939,1.531c0,0,3.679,1.021,4.802-8.989
			h0.103v5.62c0,0,0.204,2.451,2.35,2.961c2.451,0.612,4.598-0.51,5.721-3.983H99.59v0.103H99.592z M85.087,51.891
			c-0.817,0.611-1.532,1.021-2.146,1.021c-0.51,0-0.92-0.204-1.227-0.511c-0.306-0.408-0.511-0.817-0.511-1.328
			c0-0.51,0.205-1.021,0.511-1.43c0.307-0.409,0.717-0.817,1.328-1.124s1.227-0.511,2.043-0.613L85.087,51.891L85.087,51.891z"/>
		<path d="M70.48,53.32v-7.866h2.654c1.021,0.204,1.84,1.634,1.84,1.634v-5.209c-0.205,1.532-1.84,1.941-1.84,1.941H70.48v-7.457
			c4.596-0.613,5.311,2.86,5.311,2.86V35.75h-5.822l0,0c-5.105,0-9.703,5.414-9.703,12.155h2.758
			c-1.123-6.333,1.636-9.806,5.006-11.338V53.32h-1.635v0.611h2.758h0.816h7.254v-3.473C77.223,50.459,75.791,53.626,70.48,53.32z"
			/>
	</g>
	<g>
		<path d="M0.102,60.063h1.736c0.307,0,0.511,0.103,0.613,0.203c0.102,0.103,0.204,0.308,0.204,0.408
			c0,0.307-0.102,0.613-0.409,0.817C1.941,61.798,1.736,61.9,1.43,61.9c-0.102,0-0.102,0-0.205,0c-0.102,0-0.102,0-0.204-0.104
			v1.124c0,0.306,0.102,0.408,0.409,0.408v0.103H0.102V63.33c0.205,0,0.307,0,0.307-0.104c0.102-0.103,0.102-0.203,0.102-0.306
			V60.57c0-0.204,0-0.307-0.102-0.307c-0.102-0.102-0.205-0.102-0.307-0.102V60.063z M0.919,60.367v1.021
			c0.102,0.103,0.204,0.103,0.306,0.204c0.103,0,0.205,0.103,0.307,0.103c0.204,0,0.306-0.103,0.409-0.204
			c0.102-0.103,0.102-0.306,0.102-0.511s0-0.408-0.205-0.613c-0.102-0.203-0.306-0.203-0.51-0.203
			C1.328,60.164,1.124,60.266,0.919,60.367z"/>
		<path d="M6.742,60.164c-0.205,0-0.307,0-0.307,0.102c-0.102,0.103-0.102,0.205-0.102,0.308v2.35c0,0.306,0.102,0.408,0.409,0.408
			v0.103H5.414V63.33c0.205,0,0.307,0,0.307-0.104c0.102-0.103,0.102-0.203,0.102-0.306V60.57c0-0.204,0-0.307-0.102-0.307
			c-0.102-0.102-0.205-0.102-0.307-0.102v-0.104h1.328V60.164z"/>
		<path d="M10.01,59.959h0.204c0,0.104,0,0.104,0.102,0.104h2.452v0.203l-2.247,3.166h0.817c0.409,0,0.817-0.102,1.021-0.203
			c0.205-0.104,0.307-0.307,0.409-0.715h0.205l-0.205,1.123h-0.102c0-0.103,0-0.103-0.102-0.103H10.01V63.33l2.247-3.166H11.44
			c-0.409,0-0.613,0.102-0.817,0.203c-0.204,0.104-0.204,0.307-0.307,0.613H10.01V59.959z"/>
		<path d="M16.037,60.063h0.102c0,0.103,0,0.103,0.103,0.103h2.451v0.203l-2.247,3.167h0.817c0.408,0,0.817-0.104,1.021-0.204
			c0.204-0.103,0.306-0.308,0.408-0.613h0.205l-0.205,1.124H18.59c0-0.103,0-0.103-0.102-0.103h-2.554v-0.204l2.247-3.167h-0.817
			c-0.409,0-0.613,0.103-0.817,0.205c-0.204,0.102-0.204,0.307-0.306,0.612h-0.205L16.037,60.063L16.037,60.063z"/>
		<path d="M23.391,60.063h0.102l0.919,2.758c0.102,0.203,0.102,0.408,0.205,0.511c0.102,0.103,0.204,0.204,0.306,0.204v0.104h-0.919
			v-0.104h0.103c0,0,0,0,0-0.104c0,0,0,0,0-0.102L23.8,62.41h-1.124c-0.205,0.307-0.205,0.613-0.205,0.816
			c0,0.104,0,0.205,0.103,0.205c0.102,0.103,0.102,0.103,0.204,0.103h0.102v0.103h-1.226v-0.103c0.204,0,0.409-0.204,0.511-0.612
			L23.391,60.063z M23.289,60.879l-0.613,1.43h1.021L23.289,60.879z"/>
		<path d="M32.074,60.266h1.736c0.306,0,0.511,0.103,0.613,0.205c0.102,0.102,0.204,0.307,0.204,0.408
			c0,0.307-0.102,0.612-0.408,0.816c-0.307,0.307-0.511,0.408-0.817,0.408c-0.102,0-0.102,0-0.204,0c-0.102,0-0.102,0-0.205-0.103
			v1.123c0,0.308,0.103,0.409,0.409,0.409v0.103h-1.328v-0.103c0.204,0,0.306,0,0.306-0.104c0.102-0.102,0.102-0.203,0.102-0.307
			v-2.35c0-0.203,0-0.307-0.102-0.307s-0.204-0.103-0.306-0.103V60.266z M32.993,60.572v1.021c0.103,0.103,0.205,0.204,0.307,0.204
			c0.102,0,0.204,0.104,0.306,0.104c0.205,0,0.307-0.104,0.409-0.205c0.102-0.103,0.102-0.307,0.102-0.51
			c0-0.205-0.102-0.41-0.204-0.613c-0.102-0.205-0.307-0.205-0.511-0.205C33.299,60.367,33.197,60.471,32.993,60.572z"/>
		<path d="M38.611,60.164h0.204l0.919,2.758c0.102,0.203,0.102,0.408,0.204,0.51c0.103,0.104,0.205,0.205,0.307,0.205v0.103h-0.919
			v-0.103h0.102c0,0,0,0,0-0.103c0,0,0,0,0-0.103l-0.306-0.92h-1.124c-0.102,0.307-0.205,0.612-0.205,0.817
			c0,0.103,0,0.204,0.103,0.204c0.102,0.103,0.102,0.103,0.204,0.103h0.102v0.103h-1.226v-0.103c0.204,0,0.409-0.204,0.511-0.612
			L38.611,60.164z M38.509,60.98l-0.511,1.328h1.021L38.509,60.98z"/>
		<path d="M43.616,61.798c-0.102-0.103-0.102-0.204-0.204-0.307c0-0.103-0.102-0.204-0.102-0.306c0-0.308,0.102-0.513,0.409-0.717
			c0.204-0.203,0.511-0.306,0.817-0.306c0.205,0,0.409,0.103,0.613,0.103v0.815h-0.204c0-0.203-0.102-0.408-0.204-0.612
			c-0.103-0.103-0.307-0.203-0.511-0.203c-0.103,0-0.307,0-0.409,0.102c-0.102,0.104-0.102,0.205-0.102,0.307
			c0,0.104,0,0.307,0.102,0.408c0.102,0.104,0.306,0.307,0.715,0.512c0.307,0.204,0.511,0.307,0.613,0.408s0.102,0.307,0.102,0.408
			c0,0.307-0.102,0.512-0.408,0.715c-0.307,0.205-0.511,0.307-0.919,0.307c-0.204,0-0.511-0.102-0.817-0.203v-1.021h0.205
			c0,0.307,0.102,0.51,0.204,0.715c0.205,0.203,0.307,0.307,0.511,0.307c0.205,0,0.307-0.104,0.511-0.205
			c0.102-0.102,0.205-0.307,0.205-0.407c0-0.103,0-0.308-0.103-0.408c-0.102-0.104-0.306-0.308-0.613-0.513
			C43.922,62.002,43.82,61.9,43.616,61.798z"/>
		<path d="M48.314,60.266h0.103c0,0.103,0.102,0.103,0.102,0.103h2.349c0.103,0,0.103,0,0.103-0.103h0.103v1.021h-0.204
			c0-0.512-0.307-0.816-0.817-0.816h-0.103v2.758c0,0.307,0.103,0.408,0.409,0.408v0.103H49.03v-0.103c0.204,0,0.306,0,0.306-0.103
			c0.102-0.103,0.102-0.204,0.102-0.308v-2.756h-0.204c-0.511,0-0.715,0.307-0.817,0.816h-0.205L48.314,60.266z"/>
		<path d="M55.26,60.266h0.205l0.92,2.758c0.102,0.205,0.102,0.408,0.203,0.512c0.104,0.104,0.205,0.204,0.307,0.204v0.103h-0.918
			v-0.103h0.103c0,0,0,0,0-0.103c0,0,0,0,0-0.103l-0.308-0.919h-1.227c-0.102,0.307-0.203,0.611-0.203,0.816
			c0,0.103,0,0.204,0.102,0.204c0.103,0.103,0.103,0.103,0.205,0.103h0.103v0.103h-1.228v-0.103c0.205,0,0.41-0.204,0.513-0.613
			L55.26,60.266z M55.158,61.082l-0.613,1.432h1.021L55.158,61.082z"/>
		<path d="M66.189,60.367h0.103v1.021h-0.204c0-0.308-0.102-0.511-0.204-0.613c-0.102-0.102-0.409-0.203-0.716-0.203h-0.203
			c0,0.203,0,0.408,0,0.51c0,0.307,0.102,0.512,0.203,0.716c0.104,0.103,0.307,0.204,0.613,0.204h0.307v0.205h-1.021v1.531h0.308
			c0.612,0,0.919-0.307,1.021-0.816H66.6l-0.205,1.123h-0.103c0-0.102,0-0.102-0.103-0.102h-1.94V63.84c0.204,0,0.308,0,0.308-0.104
			c0.103-0.102,0.103-0.203,0.103-0.307v-2.35c0-0.203,0-0.307-0.103-0.307c-0.104-0.103-0.205-0.103-0.308-0.103v-0.103h1.94
			C66.088,60.471,66.189,60.471,66.189,60.367z"/>
		<path d="M69.459,60.572h0.919l1.94,2.654V62.41c0-0.51,0-0.919-0.103-1.225c-0.103-0.308-0.204-0.41-0.407-0.513V60.57h1.123
			v0.103c-0.308,0-0.512,0.613-0.512,1.636v1.838h-0.104L70.07,60.98v1.021c0,0.612,0,1.123,0.103,1.431
			c0.103,0.307,0.204,0.408,0.408,0.512v0.102h-1.123v-0.102c0.308,0,0.51-0.613,0.51-1.84v-0.918c0-0.205,0-0.308-0.102-0.308
			c-0.103-0.103-0.204-0.103-0.308-0.103L69.459,60.572z"/>
		<path d="M75.791,60.471h0.104c0,0.103,0.103,0.103,0.103,0.103h2.351c0.102,0,0.102,0,0.102-0.103h0.102v1.021h-0.203
			c0-0.511-0.307-0.817-0.816-0.817h-0.104v2.758c0,0.308,0.104,0.409,0.408,0.409v0.103h-1.327v-0.103c0.204,0,0.306,0,0.306-0.103
			c0.104-0.103,0.104-0.204,0.104-0.307v-2.759h-0.204c-0.511,0-0.715,0.308-0.817,0.817h-0.203L75.791,60.471z"/>
		<path d="M81.512,60.572h1.736c0.205,0,0.408,0.102,0.613,0.102c0.102,0.104,0.203,0.205,0.203,0.408
			c0,0.205-0.103,0.409-0.203,0.613c-0.104,0.205-0.307,0.408-0.613,0.512l0.613,0.918c0.307,0.409,0.51,0.613,0.715,0.613v0.103
			h-0.613c-0.102,0-0.204-0.103-0.307-0.204l-1.021-1.635v1.328c0,0.307,0.104,0.408,0.409,0.408v0.103h-1.328v-0.103
			c0.204,0,0.308,0,0.308-0.103c0.103-0.103,0.103-0.204,0.103-0.307v-2.351c0-0.203,0-0.307-0.103-0.307
			c-0.104,0-0.205-0.102-0.308-0.102h-0.204V60.572z M82.432,60.879v1.123c0.203,0.205,0.408,0.205,0.51,0.205
			c0.205,0,0.308-0.104,0.41-0.205c0.102-0.102,0.103-0.307,0.103-0.511c0-0.306-0.103-0.409-0.205-0.612
			c-0.103-0.104-0.308-0.205-0.408-0.205C82.635,60.775,82.533,60.775,82.432,60.879z"/>
		<path d="M89.275,60.572h0.102v1.021h-0.204c0-0.307-0.103-0.512-0.204-0.612c-0.103-0.103-0.408-0.205-0.715-0.205h-0.205
			c0,0.205,0,0.41,0,0.512c0,0.307,0.104,0.511,0.205,0.715c0.102,0.102,0.307,0.205,0.612,0.205h0.307v0.203h-1.021v1.533h0.306
			c0.612,0,0.92-0.307,1.021-0.818h0.205l-0.205,1.124h-0.102c0-0.103,0-0.103-0.102-0.103h-1.941v-0.103
			c0.204,0,0.307,0,0.307-0.103c0.103-0.103,0.103-0.205,0.103-0.307v-2.35c0-0.205,0-0.307-0.103-0.307
			c-0.103-0.103-0.205-0.103-0.307-0.103v-0.103h1.941C89.275,60.674,89.275,60.674,89.275,60.572z"/>
		<path d="M94.688,60.572h0.104v1.021h-0.205c0-0.307-0.102-0.512-0.204-0.612c-0.103-0.102-0.407-0.205-0.715-0.205h-0.204
			c0,0.205,0,0.41,0,0.512c0,0.307,0.102,0.511,0.204,0.715c0.103,0.102,0.308,0.205,0.612,0.205h0.307v0.203h-1.021v1.533h0.308
			c0.612,0,0.92-0.307,1.021-0.818h0.104l-0.204,1.124h-0.103c0-0.103,0-0.103-0.104-0.103h-1.939v-0.103
			c0.203,0,0.307,0,0.307-0.103c0.104-0.103,0.104-0.205,0.104-0.307v-2.35c0-0.205,0-0.307-0.104-0.307
			c-0.104-0.103-0.204-0.103-0.307-0.103v-0.103h1.939C94.586,60.674,94.688,60.674,94.688,60.572z"/>
		<path d="M98.365,62.207c-0.102-0.104-0.102-0.205-0.203-0.205c0-0.102-0.104-0.204-0.104-0.307c0-0.307,0.104-0.51,0.307-0.715
			c0.205-0.205,0.512-0.308,0.816-0.308c0.205,0,0.409,0,0.613,0.103v0.817h-0.204c0-0.204-0.103-0.407-0.205-0.612
			c-0.102-0.103-0.307-0.205-0.51-0.205c-0.103,0-0.308,0-0.409,0.104c-0.104,0.102-0.104,0.203-0.104,0.307
			c0,0.103,0,0.307,0.104,0.408s0.307,0.307,0.715,0.51c0.307,0.205,0.512,0.308,0.613,0.513c0.104,0.102,0.104,0.307,0.104,0.407
			c0,0.308-0.104,0.512-0.41,0.716s-0.51,0.307-0.918,0.307c-0.205,0-0.512-0.103-0.817-0.204v-0.919h0.204
			c0,0.306,0.102,0.511,0.204,0.716c0.204,0.203,0.307,0.307,0.511,0.307c0.205,0,0.307-0.104,0.512-0.205
			c0.103-0.102,0.203-0.307,0.203-0.408c0-0.205,0-0.307-0.102-0.408c-0.104-0.104-0.307-0.307-0.613-0.512
			C98.672,62.41,98.57,62.309,98.365,62.207z"/>
	</g>
</g>
</svg>
