<?xml version="1.0" encoding="utf-8"?>
<!-- Generator: Adobe Illustrator 16.0.0, SVG Export Plug-In . SVG Version: 6.00 Build 0)  -->
<!DOCTYPE svg PUBLIC "-//W3C//DTD SVG 1.1//EN" "http://www.w3.org/Graphics/SVG/1.1/DTD/svg11.dtd">
<svg version="1.1" id="圖層_1" xmlns="http://www.w3.org/2000/svg" xmlns:xlink="http://www.w3.org/1999/xlink" x="0px" y="0px"
	 width="801.75px" height="457.364px" viewBox="0 0 801.75 457.364" enable-background="new 0 0 801.75 457.364"
	 xml:space="preserve">
<g>
	<path fill="#040000" d="M730.377,113.068V14.505H72.113v49.494c1.575-0.222,3.167-0.356,4.761-0.482V19.056h648.74v94.012H730.377z
		 M53.02,0v68.982c1.572-0.609,3.153-1.181,4.761-1.702V4.545h686.933v108.523h4.761V0H53.02z M744.714,220.208v66.082
		l-14.337,5.489V211.2c-1.617-1.74-3.052-3.561-4.232-5.454c-0.172,0.266-0.354,0.47-0.53,0.73v87.125L399.367,418.508h-2.069
		L76.874,293.735v-69.18h-4.761v67.326l-14.332-5.58v-61.746H53.02v64.806l19.093,7.434v17.134l323.8,129.997l4.383,0.179
		l330.081-130.171v-17.247l17.6-6.74l1.498-0.572v-67.718c-0.308-0.064-0.613-0.09-0.922-0.16
		C747.151,221.178,745.99,220.639,744.714,220.208z M725.614,310.886l-326.26,128.665h-2.043L76.874,310.893v-12.245
		l319.065,124.246l4.344,0.166l325.332-124.552V310.886z"/>
	<g>
		<g>
			<path fill="#040000" d="M151.37,171.165c0.458-27.093-28.318-41.528-53.114-41.337c4.907,0.964,18.211-5.498,21.467-8.374
				c25.015-22.109-4.656-48.999-33.949-46.669V74.67c-43.584,0-82.679,41.559-82.679,92.622h23.238
				c-9.914-48.497,14.312-74.892,42.722-86.014v128.004H42.542v3.74h43.232C114.709,213.022,150.892,201.303,151.37,171.165z
				 M87.804,80.072c14.052,0.901,21.567,13.75,21.282,24.464c-0.286,10.258-8.78,18.574-21.282,20.16V80.072z M87.804,209.995
				v-72.976c23.125,0.774,41.668,15.958,41.668,34.59C129.472,190.22,110.929,209.226,87.804,209.995z"/>
			<path fill="#040000" d="M85.768,214.647H40.843v-6.99h26.514V83.735c-46.774,19.793-43.16,64.653-39.36,83.251l0.398,1.93H1.397
				v-1.625c0-51.088,38.637-94.247,84.371-94.247l1.698,0.007c18.111-0.66,36.289,9.179,41.714,22.471
				c3.833,9.376,0.882,19.005-8.303,27.125c-1.976,1.746-6.817,4.424-11.698,6.392c22.979,3.53,44.294,18.276,43.889,42.15
				C152.597,201.05,117.852,214.647,85.768,214.647z M44.239,211.396h41.529c0.113,0,0.218,0,0.331,0v-76.061l1.757,0.057
				c24.286,0.807,43.313,16.714,43.313,36.215c0,19.043-17.396,36.506-38.318,39.559c28.291-1.802,56.417-14.498,56.822-40.03
				c0.417-24.832-25.015-38.975-49.162-39.661c-0.53,0.088-1.791,0.102-2.6-0.064l-15.698-3.097l16.513-0.121
				c0.624,0,1.254,0.007,1.884,0.032c5.417-0.647,15.438-5.738,17.958-7.966c8.21-7.256,10.783-15.394,7.447-23.551
				c-5.093-12.479-22.687-21.678-40.109-20.307l-1.837,0.146v-0.235c-42.662,1.047-78.474,41.375-79.263,89.353h19.478
				c-10.85-57.639,27.137-79.247,44.128-85.893l2.341-0.914v132.049H44.239V211.396z M89.495,138.726v69.548
				c20.585-1.563,38.279-18.308,38.279-36.666C127.774,154.335,111.101,140.154,89.495,138.726z M86.099,126.551V78.338l1.811,0.114
				c14.73,0.94,23.191,14.023,22.874,26.122c-0.312,11.14-9.669,20.072-22.76,21.735L86.099,126.551z M89.495,81.887v40.893
				c10.532-2.006,17.641-9.179,17.893-18.288C107.653,94.437,101.067,83.614,89.495,81.887z"/>
		</g>
		<g>
			<path fill="#040000" d="M358.861,190.881c-3.84,3.408-7.276,6.036-10.333,7.896c-3.064,1.885-6.135,3.288-9.252,4.304
				c-3.117,0.971-6.227,1.485-9.324,1.485c-5.83,0-10.916-1.568-15.233-4.735c-4.324-3.136-7.687-7.579-10.021-13.342
				c-2.076-5.028-3.15-10.868-3.429-17.356l37.676-27.353c2.685-0.043,5.385,0.044,8.097,0.223c0.471-0.038,0.889-0.133,1.373-0.133
				h5.962c-3.13-3.98-7.09-7.205-12.083-9.554c-5.876-2.768-12.342-4.139-19.393-4.139c-8.23,0-15.704,1.891-22.388,5.688
				c-6.652,3.783-11.938,9.014-15.784,15.679c-3.86,6.697-5.776,14.054-5.776,22.065c0,3.707,0.411,7.23,1.228,10.563
				c-4.835,6.653-12.449,15.736-18.278,19.069c-6.645,3.81-16.779,4.164-19.65-4.151c-1.114-3.156-1.074-6.615-1.074-9.941
				c-0.04-3.726-0.02-42.378,0-42.378c0.392,0,17.998,0,17.998,0v-3.657h-17.998v-16.504h-19.882
				c-0.524,10.227-3.966,14.657-7.361,16.504h-7.023v3.657h14.385v42.86c0,0,0.225,2.958,1.578,6.716
				c-7.74,3.402-19.657,8.937-32.676,16.314v-86.052h-20.094v89.15c-0.053,4.875-0.026,3.263-0.053,4.875h16.394
				c3.083-0.966,5.955-4.304,8.501-6.139c2.672-1.929,28.902-15.267,30.566-12.614c2.759,4.406,7.262,8.709,14.716,10.386
				c17.302,3.891,32.602-2.031,42.218-21.584c0.55,1.194,1.061,2.4,1.718,3.536c3.488,6.126,8.416,10.823,14.742,14.163
				c6.354,3.338,13.496,5.026,21.494,5.026c7.653,0,14.557-1.377,20.777-4.132c6.214-2.761,12.746-7.344,19.684-13.794
				L358.861,190.881z M322.312,131.356c3.568,0,6.764,0.934,9.656,2.838c2.162,1.409,3.893,3.269,5.299,5.561l-1.253-0.609
				l-34.147,23.868c-0.06-0.78-0.126-1.562-0.166-2.343C302.887,140.96,309.427,131.356,322.312,131.356z"/>
			<path fill="#040000" d="M168.328,220.258l0.08-6.514v-90.761h23.483v84.845c9.151-5.078,18.854-9.889,28.908-14.358
				c-0.995-3.225-1.188-5.612-1.194-5.726l-0.007-41.35h-14.384v-6.907h8.243c3.635-2.222,5.757-7.376,6.141-14.962l0.08-1.542
				h23.198v16.504h17.999v6.907h-18.006c-0.02,7.299-0.026,37.363,0.007,40.741c0,3.439,0,6.639,0.988,9.438
				c1.605,4.654,5.584,5.632,8.642,5.632c2.806,0,5.916-0.864,8.528-2.356c5.193-2.978,12.27-11.146,17.323-18.021
				c-0.736-3.256-1.108-6.69-1.108-10.219c0-8.266,2.016-15.946,5.995-22.847c3.966-6.874,9.484-12.359,16.4-16.294
				c6.917-3.929,14.737-5.916,23.258-5.916c7.289,0,14.067,1.446,20.141,4.304c5.06,2.387,9.332,5.764,12.693,10.036l2.043,2.603
				h-9.371c-0.219,0-0.417,0.031-0.616,0.057l-0.598,0.076c-2.042-0.121-3.905-0.203-5.729-0.229l0.199,0.331l-0.683-0.331
				c-0.239,0-0.484,0-0.723,0h-0.737L303,169.907c0.345,6.247,1.418,11.477,3.275,15.983c2.202,5.435,5.386,9.687,9.471,12.646
				c6.061,4.457,14.266,5.726,23.006,2.997c3.07-0.997,5.975-2.349,8.859-4.127c2.952-1.79,6.341-4.386,10.088-7.711l1.393-1.239
				l4.013,5.206l-1.068,0.99c-7.129,6.627-13.715,11.241-20.141,14.099c-6.419,2.844-13.648,4.285-21.494,4.285
				c-8.21,0-15.717-1.758-22.316-5.23c-6.62-3.491-11.805-8.47-15.413-14.805c-0.106-0.19-0.206-0.367-0.305-0.558
				c-9.404,16.656-24.373,23.475-42.53,19.405c-6.625-1.491-11.831-5.078-15.485-10.67c-5.126,0.394-25.837,10.778-28.384,12.62
				c-0.782,0.558-1.592,1.276-2.434,2.012c-1.937,1.694-4.125,3.613-6.572,4.374l-0.524,0.076H168.328z M171.803,126.234
				l-0.033,90.774h14.377c1.678-0.609,3.416-2.127,5.093-3.598c0.929-0.813,1.824-1.595,2.686-2.215
				c2.043-1.474,24.591-13.287,30.58-13.287c1.445,0,2.135,0.617,2.46,1.136c3.184,5.078,7.772,8.316,13.656,9.642
				c17.779,4.006,31.627-3.072,40.288-20.693l1.585-3.218l1.856,4.024c0.405,0.889,0.81,1.791,1.301,2.635
				c3.302,5.795,8.031,10.341,14.072,13.528c6.088,3.199,13.052,4.823,20.678,4.823c7.348,0,14.099-1.339,20.067-3.986
				c5.664-2.515,11.759-6.716,18.125-12.494c-3.342,2.882-6.419,5.182-9.158,6.844c-3.11,1.917-6.261,3.376-9.616,4.469
				c-9.848,3.072-19.166,1.612-26.136-3.491c-4.583-3.327-8.138-8.05-10.571-14.048c-2.076-5.047-3.243-10.899-3.548-17.882
				l-0.033-0.851l37.218-27.017l-0.577-0.279l-35.778,25.011l-0.259-3.415c-0.046-0.635-0.099-1.263-0.132-1.892
				c1.141-19.102,7.315-29.175,18.841-30.788c-6.334,0.521-12.189,2.298-17.462,5.294c-6.394,3.637-11.5,8.709-15.167,15.07
				c-3.694,6.411-5.571,13.572-5.571,21.278c0,3.542,0.397,6.97,1.187,10.195l0.173,0.705l-0.431,0.59
				c-2.56,3.529-11.486,15.355-18.801,19.538c-3.124,1.791-6.864,2.819-10.266,2.819c-5.816,0-10.14-2.863-11.865-7.847
				c-1.161-3.3-1.161-6.765-1.161-10.131c-0.458-42.936,0.233-43.596,0.491-43.851l0.498-0.482h17.011v-0.407H239.48v-16.504
				h-16.592c-0.689,8.265-3.422,13.736-8.125,16.288l-0.391,0.216h-5.763v0.407h14.384v44.48l0,0c0.007,0,0.252,2.761,1.485,6.189
				l0.504,1.396l-1.399,0.609c-11.387,5.003-22.329,10.468-32.529,16.237l-2.561,1.455v-87.277H171.803z M322.312,132.981
				c-7.315,0-17.183,2.812-18.861,26.916l30.771-21.513c-0.948-1.13-2.016-2.069-3.209-2.85
				C328.4,133.813,325.555,132.981,322.312,132.981z M340.258,140.148c2.287,0,4.588,0.082,6.896,0.235l0.159-0.044
				c0.358-0.051,0.71-0.095,1.094-0.095h2.328c-2.606-2.66-5.637-4.793-9.192-6.469c-5.252-2.476-11.088-3.803-17.362-3.961
				c3.177,0.286,6.108,1.308,8.748,3.035c2.328,1.523,4.225,3.51,5.803,6.087l0.742,1.212H340.258z"/>
		</g>
		<g>
			<path fill="#040000" d="M439.888,194.435c-4.337,1.93-9.988,2.875-16.964,2.875h-27.516c4.609-6.074,11.811-12.955,21.646-20.637
				l12.846-10.188c5.279-4.139,9.543-7.973,12.786-11.56c3.263-3.567,5.571-6.957,6.983-10.155
				c1.406-3.213,2.109-6.641,2.109-10.297c0-5.085-1.419-9.712-4.237-13.851c-2.832-4.101-6.785-7.326-11.825-9.661
				c-5.034-2.349-10.612-3.485-16.692-3.485c-5.478,0-10.579,0.844-15.26,2.628c-4.676,1.783-8.356,4.164-11.056,7.204
				c-2.687,3.003-4.032,4.031-4.032,7.631h13.23c0.245-7.891,6.234-14.283,12.839-14.283c3.17,0,6.141,0.983,8.887,2.989
				c2.759,2.006,4.888,4.78,6.473,8.31c1.565,3.542,2.314,7.389,2.314,11.541c0,4.9-1.14,9.757-3.455,14.587
				c-2.269,4.787-6.102,10.429-11.434,16.911c-0.995,1.149-2.434,2.831-4.258,4.964c-1.79,2.146-4.052,4.799-6.686,7.935
				c-6.18,7.174-10.889,13.051-14.125,17.673c-3.223,4.607-6.008,9.375-8.382,14.358l0.06,3.098h62.227l7.626-28.159h-2.606
				C448.059,189.318,444.218,192.505,439.888,194.435z"/>
			<path fill="#040000" d="M447.68,214.647h-65.204l-0.1-5.066l0.16-0.336c2.394-5.022,5.266-9.935,8.515-14.589
				c3.236-4.621,7.892-10.441,14.232-17.792l6.665-7.922c1.837-2.152,3.283-3.84,4.278-4.99c5.246-6.373,9.019-11.953,11.195-16.542
				c2.188-4.57,3.295-9.243,3.295-13.915c0-4.025-0.71-7.598-2.175-10.912c-1.492-3.32-3.436-5.828-5.936-7.644
				c-2.447-1.79-5.014-2.66-7.859-2.66c-5.823,0-10.929,5.82-11.142,12.708l-0.046,1.574h-16.579v-1.625
				c0-3.809,1.433-5.383,3.607-7.77l0.829-0.92c2.878-3.231,6.711-5.745,11.718-7.65c4.789-1.828,10.133-2.748,15.89-2.748
				c6.38,0,12.249,1.225,17.435,3.65c5.292,2.451,9.497,5.891,12.494,10.227c2.998,4.399,4.516,9.363,4.516,14.746
				c0,3.866-0.749,7.541-2.234,10.918c-1.499,3.402-3.946,6.97-7.269,10.601c-3.27,3.618-7.521,7.465-12.992,11.75l-12.839,10.176
				c-8.283,6.474-14.75,12.441-19.279,17.768h24.067c6.711,0,12.183-0.922,16.248-2.724c4.051-1.803,7.7-4.85,10.837-9.039
				l0.503-0.686h5.67L447.68,214.647z M385.805,211.396h59.249l6.506-24.052c-3.21,3.878-6.884,6.754-10.956,8.564
				c-4.523,2.004-10.472,3.027-17.68,3.027h-30.725c-2.394,3.657-4.549,7.458-6.413,11.326L385.805,211.396z M416.743,109.159
				c2.818,0.336,5.477,1.408,7.918,3.198c2.938,2.134,5.292,5.142,7.004,8.951c1.624,3.682,2.447,7.783,2.447,12.188
				c0,5.142-1.214,10.271-3.601,15.26c-2.314,4.888-6.128,10.538-11.646,17.247c-1.021,1.174-2.454,2.856-4.278,4.983l-6.671,7.922
				c-6.28,7.287-10.87,13.026-14.04,17.558c-0.259,0.367-0.511,0.737-0.763,1.104l0.922-1.218
				c4.695-6.183,12.076-13.23,21.945-20.942l12.839-10.175c5.325-4.177,9.437-7.896,12.581-11.375
				c3.09-3.377,5.345-6.646,6.704-9.725c1.307-2.977,1.97-6.233,1.97-9.661c0-4.748-1.333-9.103-3.952-12.963
				c-2.659-3.833-6.406-6.894-11.142-9.083C429.628,109.926,423.202,108.853,416.743,109.159z M390.507,123.313h9.822
				c0.749-6.074,4.662-11.267,9.688-13.331c-1.963,0.406-3.84,0.952-5.624,1.631c-4.483,1.708-7.879,3.917-10.392,6.748
				l-0.855,0.946C391.582,121.029,390.799,121.879,390.507,123.313z"/>
		</g>
		<g>
			<path fill="#040000" d="M180.417,115.277c5.876,0,10.677-5.027,10.677-11.21c0-6.195-4.801-11.21-10.677-11.21
				c-5.883,0-10.664,5.015-10.664,11.21C169.753,110.25,174.535,115.277,180.417,115.277z"/>
			<path fill="#040000" d="M180.417,116.902c-6.817,0-12.362-5.757-12.362-12.835s5.544-12.836,12.362-12.836
				c6.824,0,12.375,5.758,12.375,12.836S187.242,116.902,180.417,116.902z M180.417,94.482c-4.941,0-8.967,4.304-8.967,9.585
				c0,5.282,4.026,9.585,8.967,9.585c4.954,0,8.979-4.304,8.979-9.585C189.396,98.786,185.371,94.482,180.417,94.482z"/>
		</g>
		<g>
			<path fill="#040000" d="M795.346,180.241c-3.953,11.579-13.049,19.228-20.013,23.221c-6.658,3.815-16.799,4.146-19.683-4.152
				c-1.114-3.148-1.068-6.626-1.088-9.935c0-3.732,0-44.605,0.02-44.605c0.364,0,17.991,0,17.991,0v-3.657h-18.011v-16.504H734.72
				c-0.55,10.227-3.985,14.657-7.395,16.504h-7.01v3.657h7.926c0.02,2.184,0.192,5.636,0.078,7.262
				c-0.901,12.41-2.877,22.813-7.249,34.57c-2.049,5.503-5.139,13.991-10.511,17.362c-9.391,5.872-9.723-6.742-9.723-11.769v-27.138
				c0-5.091-0.265-9.084-0.842-11.985c-0.537-2.881-1.499-5.496-2.792-7.807c-2.434-4.545-6.141-8.05-11.135-10.601
				c-4.974-2.552-10.796-3.441-17.415-3.815c0,0-27.974-3.903-34.34,16.619h12.309c0,0,0.988-13.73,21.328-13.324
				c2.103,0.051,4.052,0.559,5.856,1.663c1.796,1.079,3.204,2.533,4.19,4.367c0.85,1.563,1.513,3.917,1.982,7.008
				c0.452,3.123,0.67,7.116,0.67,12.048v1.289v2.672c-16.267,0.597-28.754,3.32-37.403,8.176
				c-8.655,4.837-12.978,11.49-12.978,19.983c0,5.96,2.188,10.779,6.632,14.46c4.423,3.669,10.352,5.51,17.766,5.51
				c9.265,0,17.933-3.263,25.983-9.788c0,0,1.891,11.516,15.579,11.516c0,0,28.889,7.528,37.993-68.278h0.498v42.86
				c0,0,1.313,18.662,18.928,22.637c19.609,4.405,36.604-3.758,45.757-30.026H795.346z M680.649,197.38
				c-6.346,5.042-11.976,7.536-16.844,7.536c-3.933,0-7.195-1.365-9.781-4.102c-2.607-2.735-3.894-6.196-3.894-10.315
				c0-4.101,1.221-7.827,3.662-11.222c2.414-3.396,5.909-6.183,10.471-8.398c4.563-2.184,10.041-3.751,16.387-4.691V197.38z"/>
			<path fill="#040000" d="M698.391,214.875c-1.146,0-1.964-0.127-2.354-0.204c-10.624-0.082-14.776-6.626-16.281-10.359
				c-7.785,5.731-16.215,8.632-25.088,8.632c-7.806,0-14.159-1.987-18.881-5.903c-4.788-3.975-7.215-9.249-7.215-15.692
				c0-9.064,4.649-16.263,13.821-21.379c8.548-4.812,20.844-7.605,36.561-8.329v-2.413c0-4.913-0.212-8.779-0.656-11.819
				c-0.438-2.908-1.047-5.091-1.804-6.487c-0.842-1.562-2.049-2.819-3.581-3.733c-1.498-0.914-3.13-1.384-5.007-1.422l-0.829-0.013
				c-17.7,0-18.722,11.337-18.762,11.82l-0.105,1.517h-16.168l0.649-2.089c4.875-15.73,21.289-18.079,30.633-18.079
				c3.295,0,5.484,0.305,5.577,0.317c5.592,0.311,12.229,1.042,17.973,3.992c5.292,2.705,9.277,6.5,11.844,11.28
				c1.399,2.501,2.395,5.295,2.952,8.279c0.583,2.926,0.868,6.944,0.868,12.264v27.138c0,1.358,0,4.971,0.717,7.814
				c1.054,4.203,3.004,4.709,6.38,2.588c4.781-3.002,7.752-10.943,9.715-16.2c4.198-11.298,6.334-21.506,7.282-34.48
				c0.065-1.041,0.014-2.87-0.033-4.609c-0.007-0.305-0.013-0.616-0.02-0.914h-7.958v-6.907h8.235
				c3.635-2.216,5.758-7.376,6.162-14.968l0.086-1.536h23.159v16.504h18.012v6.907h-18.006c-0.006,5.586-0.006,24.89-0.006,42.981
				v0.438c0.013,3.053,0.019,6.215,0.995,8.977c1.624,4.652,5.615,5.63,8.68,5.63c2.812,0,5.916-0.858,8.528-2.349
				c4.344-2.496,14.927-9.668,19.276-22.338l0.385-1.117h7.625l-0.742,2.132c-9.285,26.674-25.609,32.273-37.666,32.273
				c0,0,0,0-0.007,0c-3.223,0-6.61-0.395-10.073-1.175c-18.622-4.196-20.226-23.913-20.24-24.109l-0.006-24.293
				C723.903,209.454,706.203,214.875,698.391,214.875z M696.673,211.472c-0.007-0.005,7.004,1.652,14.987-6.258
				c-0.06,0.038-0.112,0.076-0.172,0.108c-1.93,1.207-3.635,1.797-5.212,1.797c-2.156,0-5.008-1.106-6.327-6.354
				c-0.716-2.852-0.81-6.075-0.81-8.569v-27.138c0-5.116-0.265-8.932-0.809-11.68c-0.497-2.653-1.38-5.123-2.626-7.352
				c-2.289-4.266-5.698-7.503-10.439-9.928c-4.105-2.107-9.106-3.193-16.712-3.631c-0.166-0.013-2.202-0.292-5.232-0.292
				c-7.953,0-21.58,1.84-26.614,13.667h8.509c0.962-3.777,5.067-13.336,21.858-13.336l0.902,0.013
				c2.487,0.057,4.755,0.705,6.745,1.923c2.049,1.226,3.66,2.901,4.788,4.996c0.942,1.727,1.645,4.189,2.148,7.517
				c0.464,3.199,0.69,7.21,0.69,12.276v38.919l-0.491,0.387l0.471,2.742c0.073,0.406,1.884,10.145,13.901,10.145L696.673,211.472
				L696.673,211.472z M732.71,143.145h3.7v44.486c0.046,0.597,1.473,17.405,17.628,21.055c19.81,4.438,34.595-4.715,42.978-26.819
				h-0.451c-4.92,13.013-15.813,20.383-20.356,22.993c-3.124,1.79-6.863,2.811-10.272,2.811c-5.823,0-10.159-2.863-11.897-7.846
				c-1.147-3.257-1.161-6.685-1.174-9.998v-24.16c0.008-22.522,0.008-22.522,1.712-22.522h16.3v-0.407h-18.012v-16.504h-16.56
				c-0.709,8.271-3.441,13.749-8.144,16.288l-0.393,0.216h-5.756v0.407h7.912l0.014,1.612c0.005,0.724,0.025,1.588,0.053,2.476
				c0.046,1.842,0.092,3.784,0.021,4.901c-0.963,13.292-3.158,23.767-7.343,35.015c-0.245,0.66-0.503,1.346-0.769,2.057
				c4.304-9.917,8.177-24.173,10.638-44.625L732.71,143.145z M678.269,164.924c-14.749,0.755-26.235,3.396-34.16,7.853
				c-8.171,4.557-12.143,10.638-12.143,18.573c0,5.536,1.976,9.866,6.048,13.23c4.085,3.396,9.689,5.116,16.652,5.116
				c8.813,0,17.191-3.162,24.89-9.409l0.066-0.049c-11.221,8.113-20.856,8.023-26.858,1.664c-2.872-3.016-4.331-6.856-4.331-11.402
				c0-4.398,1.333-8.486,3.959-12.149c2.546-3.58,6.287-6.576,11.102-8.925C667.691,167.418,672.652,165.908,678.269,164.924z
				 M678.952,168.11c-5.332,0.92-10.007,2.342-13.926,4.221c-4.298,2.082-7.607,4.73-9.829,7.859
				c-2.269,3.154-3.369,6.525-3.369,10.308c0,3.714,1.161,6.818,3.448,9.217c5.114,5.41,13.337,4.888,23.676-3.104V168.11z"/>
		</g>
		<g>
			<path fill="#040000" d="M564.202,208.527v-59.594h20.943c7.918,1.27,14.518,12.671,14.518,12.671v-39.839
				c-1.307,11.375-14.518,14.536-14.518,14.536h-20.943V79.697c36.754-4.824,41.979,21.494,41.979,21.494V74.784h-45.939V74.67
				c-40.713,0-77.26,41.559-77.26,92.622h21.719c-9.278-48.497,13.383-74.892,39.917-86.014V208.68h-12.898v4.342h22.342h6.181
				h57.843v-26.395C618.085,186.627,606.202,211.085,564.202,208.527z"/>
			<path fill="#040000" d="M619.784,214.647h-89.763v-7.591h12.899V83.804c-43.492,19.844-40.103,64.622-36.549,83.195l0.365,1.917
				h-25.453v-1.625c0-51.088,36.157-94.247,78.958-94.247l47.63,0.114v28.033l-3.363,0.311c-0.172-0.851-4.536-20.771-31.707-20.771
				c-2.195,0-4.516,0.133-6.904,0.394v53.551h19.246c0.08-0.07,11.672-2.996,12.833-13.089l3.382,0.178v46.111l-3.184-5.484
				c-0.06-0.101-6.3-10.728-13.311-11.857l-18.967,0.025v56.433c38.916,1.713,50.21-20.155,50.648-21.05l3.237-6.57V214.647z
				 M533.417,211.396h82.97v-19.284c-5.941,7.249-20.963,19.943-52.291,18.034l-1.592-0.095v-62.743h22.641
				c5.352,0.85,9.941,5.371,12.82,8.957v-26.108c-4.557,5.77-11.984,7.617-12.408,7.718l-23.053,0.052V78.282l1.466-0.191
				c3.064-0.406,6.035-0.609,8.833-0.609c18.51,0,27.496,8.792,31.674,15.598V76.409l-45.932-0.089
				c-39.765,1.118-73.116,41.42-73.852,89.347h17.985c-10.153-57.594,25.374-79.221,41.257-85.874l2.38-1.003v131.516h-12.898
				V211.396z"/>
		</g>
	</g>
	<g>
		<path fill="#040000" d="M434.589,297.752c-5.378,4.14,1.353,6.398,8.376,9.662c7.016,3.25,19.312,9.902,19.312,9.902l7.269-5.656
			C469.545,311.661,439.961,293.614,434.589,297.752z"/>
		<path fill="#040000" d="M240.542,270.851c0,0-16.819-21.849-22.224-19.552c0,0,87.401,95.739,93.409,97.466
			s5.405-1.727,10.213-4.025c4.801-2.299,10.81-1.726,10.81-1.726s-14.251-2.832-21.625-8.05
			C267.274,303.91,240.542,270.851,240.542,270.851z M513.455,442.433c0,0-50.146-37.712-87.079-65.528l59.205-35.701
			c0,0-17.037-9.935-23.304-23.887l-59.981,41.439c-8.336-6.285-13.844-10.456-14.434-10.932c-2.931-2.361-6.698-1.289-6.698-1.289
			l-4.477,3.206c-21.341-7.438-13.35-20.452-11.095-33.821c2.261-13.367-1.791-14.93-1.791-14.93s-123.398-60.908-140.515-62.857
			c-8.13-0.92-15.989,6.945-15.373,13.624c0.471,5.07,6.545,10.759,9.829,15.107c8.953,11.844,18.9,23.183,28.935,34.398
			c18.277,20.428,37.071,44.505,60.569,61.136c1.419,1.01,2.831,2.35,4.622,2.901c10.71,3.282,27.117-10.073,33.365-9.681
			c6.253,0.395,18.463,10.31,18.463,10.31c-4.643,4.938,1.857,8.398,1.857,8.398l7.494,4.641l-91.745,63.389
			c0,0-4.736,12.753,11.639,15.007l104.73-63.147l97.892,60.608c8.986,4.927,16.546-3.32,16.546-3.32
			C517.309,446.167,513.455,442.433,513.455,442.433z M320.217,355.734c-4.245,8.113-13.397-3.986-54.998-44.587
			c-41.608-40.601-52.611-60.712-52.611-60.712s4.192-8.073,11.394-5.439c17.149,6.271,26.182,23.023,35.096,37.338
			c3.713,5.974,6.671,11.687,13.303,15.304c8.449,4.611,20.201,5.829,29.306,9.529c15.843,6.443,26.355,16.79,39.731,27.289
			c4.191,3.289,6.996,6.488,10.359,10.055c4.277,4.54,3.886,5.188,10.326,7.885c9.139,3.833,18.218,9.268,27.207,15.323
			l-13.237,9.148c-1.907-1.232-2.954-1.911-2.954-1.911l3.521-3.098C354.258,347.895,325.614,345.413,320.217,355.734z
			 M392.503,387.423c-0.964,0.603-1.934,1.199-2.901,1.795c-42.96,26.522-87.424,52.821-87.424,52.821s-10.081,8.596-10.081,12.899
			c0,0-1.313-1.313-2.537-3.276c1.568-3.115,6.801-10.886,23.003-20.731c21.188-12.873,118.159-78.003,118.159-78.003l20.373-14.041
			c0,0-3.667,0-6.108,1.561c-2.312,1.474-137.263,88.521-157.361,106.378c-0.5-3.06,0.474-6.436,5.313-9.09l83.773-56.495
			l3.008-2.033l13.326-8.987l12.906-8.703l54.918-37.039c0,0,1.678,5.731,7.554,10.753c2.199,1.872-20.506,17.292-49.782,35.846
			c-4.225,2.68-8.598,5.428-13.039,8.202C401.294,381.976,396.92,384.695,392.503,387.423z M500.682,453.112
			c-5.689-0.604-64.468-37.727-100.213-60.585l12.667-7.637c9.182,6.887,18.218,13.698,27.039,19.419
			c22.124,14.357,44.354,28.577,66.676,42.657C506.85,446.966,508.912,453.987,500.682,453.112z"/>
		<path fill="#040000" d="M502.048,341.122c-7.806-2.47-8.157-7.256-8.157-7.256l-8.31,7.338c0,0,27.032,14.715,33.948,12.296
			C526.454,351.075,509.854,343.591,502.048,341.122z"/>
		<path fill="#040000" d="M520.352,288.333c0.803-2.831-1.313-5.675-4.728-6.349c-3.409-0.659-6.825,1.1-7.626,3.936
			c-0.803,2.844,1.313,5.682,4.728,6.349C516.134,292.936,519.549,291.176,520.352,288.333z"/>
		<path fill="#040000" d="M526.354,243.999c-28.643-5.599-57.306,9.181-64.031,32.997c-3.468,12.289-0.384,24.567,7.306,34.354
			c9.111-7.91,38.295-33.225,38.295-33.225l12.992,0.178c12.68,5.308,1.366,17.254-3.21,23.43
			c-0.975,1.314-12.299,18.466-19.822,27.544c1.349,0.361,2.706,0.717,4.111,0.99c28.636,5.586,57.305-9.186,64.03-33.01
			C572.75,273.441,554.99,249.592,526.354,243.999z M492.777,256.376c-5.876,6.451-0.843,17.915-8.396,25.805
			c-7.561,7.885-10.081,19.355-17.634,17.92c0,0-10.917-43.725,36.945-51.607C503.692,248.494,498.653,249.921,492.777,256.376z
			 M516.499,327.042c0,0-6.147-6.417,10.061-10.695c16.208-4.279,20.114-16.047,20.114-23.537c0-7.485-15.645-11.764-12.289-22.999
			c3.349-11.237-0.564-14.448-0.564-14.448s16.208,5.352,22.356,17.12C556.177,272.482,572.942,315.272,516.499,327.042z"/>
	</g>
</g>
</svg>
