<?xml version="1.0" standalone="no"?>
<!DOCTYPE svg PUBLIC "-//W3C//DTD SVG 1.1//EN" "http://www.w3.org/Graphics/SVG/1.1/DTD/svg11.dtd" >
<svg xmlns="http://www.w3.org/2000/svg">
<metadata>Generated by IcoMoon</metadata>
<defs>
<font id="icomoon" horiz-adv-x="1024">
<font-face units-per-em="1024" ascent="960" descent="-64" />
<missing-glyph horiz-adv-x="1024" />
<glyph unicode="&#x20;" horiz-adv-x="512" d="" />
<glyph unicode="&#xe900;" glyph-name="instagram" d="M513.147-63.959c-101.192 0-202.527-0.082-303.821 0-121.61 0.164-205.824 84.029-205.906 205.189 0 201.851 0 403.681 0 605.512 0 125.44 83.026 208.814 208.896 208.978 201.83 0.328 403.64 0.328 605.471 0 122.225-0.164 206.090-84.992 206.131-207.708 0.082-201.81 0.082-403.661 0-605.532-0.041-122.225-84.357-206.295-207.032-206.459-101.274-0.061-202.527 0.020-303.739 0.020zM104.1 550.216c-0.43-9.748-1.044-16.65-1.044-23.532-0.082-128-0.164-256.082 0-383.959 0.082-69.038 39.588-108.073 109.22-108.073 201.114-0.082 402.227-0.082 603.3 0 69.038 0.164 108.073 39.649 108.237 108.872 0.123 127.283 0 254.484 0 381.87 0 7.475 0 15.073 0 23.204-51.159 0-99.82 0-150.753 0 22.651-62.484 26.153-123.965 6.636-185.795-19.476-61.87-56.197-111.391-109.711-147.845-91.73-62.566-214.385-66.13-305.951-3.727-121.385 82.719-152.412 198.328-112.128 337.101-3.748 0.655-7.148 1.864-10.465 1.864-44.872 0.020-89.866 0.020-137.339 0.020zM514.273 624.886c-99.062 0.348-180.634-80.527-180.552-178.934 0.061-98.918 81.326-180.060 180.060-179.835 99.185 0.164 179.282 80.916 179.016 180.429-0.184 98.304-80.077 178.094-178.524 178.34zM904.602 666.419c0 58.511 0 114.299 0 170.189-57.713 0-113.951 0-170.271 0 0-57.836 0-113.664 0-170.189 57.139 0 112.947 0 170.271 0z" />
<glyph unicode="&#xe901;" glyph-name="slickLeft" horiz-adv-x="3994" d="M668.568-64l-668.568 512 668.568 512 53.28-69.638-577.782-442.362 577.782-442.362zM95.81 506.421h3897.72v-116.842h-3897.72v116.842z" />
<glyph unicode="&#xe902;" glyph-name="slickRight" horiz-adv-x="3880" d="M3230.237 930.827l-51.875-67.654 487.197-373.003h-3665.559v-113.513h3665.559l-487.197-373.003 51.875-67.654 649.521 497.414z" />
<glyph unicode="&#xe903;" glyph-name="uniE903" d="M298 534h428l-214-214z" />
<glyph unicode="&#xe904;" glyph-name="up_small" horiz-adv-x="1423" d="M1345.977-64l-634.244 861.714-634.244-861.714-77.49 56.819 711.733 967.181 711.733-967.181z" />
<glyph unicode="&#xe905;" glyph-name="left" d="M39.25 471.869l0.082 0.061v0.43h0.543l576.543 465.592 25.733-31.867-537.078-433.725h876.339v-40.96h-877.67l531.395-443.515-26.245-31.437-569.559 474.952v40.366z" />
<glyph unicode="&#xe906;" glyph-name="right" d="M39.25 472.361h942.080v-40.96h-942.080v40.96zM404.229 937.943l577.165-466.109-25.735-31.867-577.165 466.109 25.735 31.867zM955.047 463.325l26.251-31.441-569.465-475.469-26.251 31.441 569.465 475.469z" />
<glyph unicode="&#xe907;" glyph-name="hook" d="M1012.5 833.167l-65.741 48.865-576.236-775.322-306.647 367.524-62.904-52.48 374.712-445.594 0.563 1.27z" />
<glyph unicode="&#xe908;" glyph-name="refresh" d="M874.057 810.057c-95.086 95.086-226.743 149.943-362.057 149.943s-266.971-54.857-362.057-149.943l-40.229-40.229v124.343c0 10.971-10.971 21.943-21.943 21.943s-21.943-10.971-21.943-21.943v-201.143h201.143c10.971 0 21.943 10.971 21.943 21.943s-10.971 21.943-21.943 21.943h-128l43.886 40.229c87.771 87.771 204.8 135.314 329.143 135.314s241.371-47.543 329.143-135.314 135.314-204.8 135.314-329.143c0-40.229-3.657-80.457-14.629-120.686-3.657-10.971 3.657-25.6 14.629-25.6 3.657 0 3.657 0 7.314 0 10.971 0 18.286 7.314 21.943 18.286 10.971 43.886 18.286 87.771 18.286 131.657 0 131.657-54.857 263.314-149.943 358.4zM735.086 181.029c0-10.971 10.971-21.943 21.943-21.943h128l-43.886-40.229c-87.771-87.771-204.8-135.314-329.143-135.314s-241.371 47.543-329.143 135.314c-87.771 87.771-135.314 204.8-135.314 329.143 0 40.229 3.657 80.457 14.629 120.686 3.657 10.971-3.657 25.6-14.629 25.6-14.629 3.657-25.6 0-29.257-14.629-10.971-43.886-18.286-87.771-18.286-131.657 0-135.314 54.857-266.971 149.943-362.057s226.743-149.943 362.057-149.943c0 0 0 0 0 0 135.314 0 266.971 54.857 362.057 149.943l40.229 40.229v-120.686c0-10.971 10.971-21.943 21.943-21.943s21.943 10.971 21.943 21.943v201.143h-201.143c-10.971-3.657-21.943-14.629-21.943-25.6z" />
<glyph unicode="&#xe909;" glyph-name="failure" d="M846.766 684.308h-98.458c-43.325 0-78.766 35.441-78.766 78.766v98.468c0 11.817 7.885 19.692 19.692 19.692s19.692-7.875 19.692-19.692v-98.468c0-21.658 17.715-39.383 39.393-39.383h98.458c11.807 0 19.692-7.875 19.692-19.692s-7.885-19.692-19.702-19.692zM846.766-64h-590.766c-55.142 0-98.458 43.315-98.458 98.458v39.383c0 11.817 7.875 19.702 19.692 19.702s19.692-7.885 19.692-19.702v-39.383c0-33.485 25.6-59.085 59.075-59.085h590.766c33.475 0 59.075 25.6 59.075 59.085v675.451c0 15.749-5.898 31.508-17.715 41.349l-151.634 151.634c-9.851 11.817-25.6 17.725-41.349 17.725h-439.142c-33.475 0-59.075-25.6-59.075-59.075v-196.925c0-11.817-7.885-19.692-19.692-19.692s-19.692 7.875-19.692 19.692v196.925c0 55.132 43.315 98.458 98.458 98.458h439.142c25.6 0 51.2-9.841 68.915-29.542l151.634-151.634c17.725-17.715 29.542-43.315 29.542-68.915v-675.451c0-55.142-43.325-98.458-98.468-98.458zM450.959 132.915c-5.908 0-9.841 1.966-13.783 5.908l-122.102 122.092-122.092-122.081c-7.875-7.875-19.692-7.875-27.566 0l-80.742 80.742c-7.875 7.875-7.875 19.692 0 27.566l122.092 122.092-122.092 122.092c-7.875 7.875-7.875 19.692 0 27.566l80.742 80.742c7.875 7.885 19.692 7.885 27.566 0l122.092-122.092 122.092 122.092c7.875 7.885 19.692 7.885 27.566 0l80.742-80.742c7.885-7.875 7.885-19.692 0-27.566l-122.092-122.092 122.102-122.092c7.885-7.885 7.885-19.702 0-27.566l-80.742-80.742c-3.942-3.942-9.851-5.919-13.783-5.919zM315.075 308.183c5.908 0 9.851-1.956 13.783-5.898l122.092-122.102 53.166 53.176-122.081 122.081c-7.875 7.885-7.875 19.702 0 27.576l122.092 122.092-53.166 53.166-122.102-122.092c-7.875-7.875-19.692-7.875-27.566 0l-122.092 122.092-53.166-53.166 122.092-122.092c7.875-7.885 7.875-19.702 0-27.576l-122.092-122.081 53.166-53.176 122.092 122.102c3.942 3.932 7.875 5.898 13.783 5.898z" />
<glyph unicode="&#xe90a;" glyph-name="people" d="M605.092 459.633c-128 0-232.724 104.735-232.724 232.735s104.724 232.724 232.724 232.724 232.735-104.724 232.735-232.724-104.735-232.735-232.735-232.735zM605.092 878.541c-102.4 0-186.184-83.784-186.184-186.184s83.784-186.184 186.184-186.184 186.194 83.784 186.194 186.184-83.794 186.184-186.194 186.184zM1024-29.092h-837.816v23.265c0 230.4 188.508 418.908 418.908 418.908s418.908-188.498 418.908-418.898v-23.276zM232.724 17.459h744.735c-11.643 195.482-174.551 349.082-372.367 349.082s-360.724-153.6-372.367-349.082zM0 506.184h325.816v-46.541h-325.816v46.541zM139.633 645.816h46.541v-325.816h-46.541v325.816z" />
<glyph unicode="&#xe90b;" glyph-name="success" d="M846.766 693.76h-98.458c-38.871 0-69.325 30.444-69.325 69.315v98.468c0 5.652 4.577 10.24 10.24 10.24s10.24-4.588 10.24-10.24v-98.468c0-27.843 21.002-48.835 48.845-48.835h98.458c5.663 0 10.24-4.588 10.24-10.24s-4.577-10.24-10.24-10.24zM846.766-54.548h-590.766c-49.080 0-89.006 39.926-89.006 89.006v118.159c0 5.663 4.588 10.24 10.24 10.24s10.24-4.577 10.24-10.24v-118.159c0-37.786 30.74-68.526 68.526-68.526h590.766c37.786 0 68.526 30.74 68.526 68.526v675.451c0 19.22-7.148 36.065-20.132 47.432l-152.115 152.095c-11.827 13.486-28.682 20.634-47.903 20.634h-439.142c-37.786 0-68.526-30.74-68.526-68.526v-354.468c0-5.652-4.588-10.24-10.24-10.24s-10.24 4.588-10.24 10.24v354.468c0 49.080 39.926 89.006 89.006 89.006h439.142c25.211 0 47.534-9.636 62.853-27.126l151.163-151.132c16.998-14.848 26.634-37.161 26.634-62.372v-675.451c-0.010-49.091-39.946-89.016-89.027-89.016zM295.383 142.377c-2.621 0-5.243 1.004-7.24 3l-196.925 196.925c-1.925 1.925-3 4.516-3 7.24s1.075 5.325 3 7.24l78.766 78.766c4.004 4.004 10.476 4.004 14.479 0l110.92-110.909 268.452 268.442c1.925 1.925 4.516 3 7.24 3v0c2.724 0 5.325-1.075 7.24-3l78.756-78.766c4.004-4.004 4.004-10.476 0-14.479l-354.447-354.458c-1.997-1.997-4.618-3-7.24-3zM112.937 349.542l182.446-182.436 339.978 339.978-64.276 64.287-268.462-268.452c-4.004-4.004-10.476-4.004-14.479 0l-110.909 110.909-64.297-64.287z" />
<glyph unicode="&#xe90c;" glyph-name="download" d="M1024.963 596.91l-30.976 25.078-461.507-569.979v867.031h-40.96v-867.256l-456.94 564.316-30.669-24.842 466.309-575.898h-345.631v-40.96h779.95v40.96h-350.484z" />
<glyph unicode="&#xe90d;" glyph-name="wechat" horiz-adv-x="1170" d="M331.429 687.428c0 31.429-20.571 52-52 52-30.857 0-62.286-20.571-62.286-52 0-30.857 31.429-51.429 62.286-51.429 31.429 0 52 20.571 52 51.429zM756 397.714c0 20.571-20.571 41.143-52 41.143-20.571 0-41.143-20.571-41.143-41.143 0-21.143 20.571-41.714 41.143-41.714 31.429 0 52 20.571 52 41.714zM621.143 687.428c0 31.429-20.571 52-51.429 52-31.429 0-62.286-20.571-62.286-52 0-30.857 30.857-51.429 62.286-51.429 30.857 0 51.429 20.571 51.429 51.429zM984 397.714c0 20.571-21.143 41.143-52 41.143-20.571 0-41.143-20.571-41.143-41.143 0-21.143 20.571-41.714 41.143-41.714 30.857 0 52 20.571 52 41.714zM832 624.571c-13.143 1.714-26.286 2.286-40 2.286-196.571 0-352-146.857-352-327.429 0-30.286 4.571-59.429 13.143-86.857-13.143-1.143-25.714-1.714-38.857-1.714-52 0-93.143 10.286-145.143 20.571l-144.571-72.571 41.143 124.571c-103.429 72.571-165.714 166.286-165.714 280 0 197.143 186.286 352 414.286 352 203.429 0 382.286-124 417.714-290.857zM1170.286 304c0-93.143-61.714-176-145.143-238.286l31.429-103.429-113.714 62.286c-41.714-10.286-83.429-21.143-124.571-21.143-197.143 0-352 134.857-352 300.571s154.857 300.571 352 300.571c186.286 0 352-134.857 352-300.571z" />
<glyph unicode="&#xe90e;" glyph-name="line" horiz-adv-x="1083" d="M1081.653 549.599c-13.136 228.417-250.12 410.401-540.543 410.401-298.851 0-541.111-192.697-541.111-430.401 0-218.488 204.671-398.943 469.832-426.7 16.211-1.699 27.897-16.331 26.104-32.531l-11.291-101.615c-2.563-23.065 21.288-39.848 42.191-29.757 224.029 108.115 357.987 219.341 437.984 315.707 14.557 17.535 62.025 84.039 71.703 101.503 20.54 37.084 34.7 76.903 41.357 118.591 2.489 13.092 3.716 24.104 4.284 32.745 0.931 14.256-0.129 35.427-0.509 42.056zM326.605 387.049h-110.715c-15.285 0-27.681 12.391-27.681 27.681v208.973c0 15.287 12.395 27.683 27.681 27.683s27.681-12.395 27.681-27.683v-181.292h83.035c15.287 0 27.681-12.395 27.681-27.681s-12.395-27.681-27.681-27.681zM435.937 408.679c0-11.947-9.684-21.628-21.628-21.628h-12.103c-11.944 0-21.629 9.681-21.629 21.628v221.076c0 11.947 9.685 21.629 21.629 21.629h12.103c11.944 0 21.628-9.684 21.628-21.629v-221.076zM693.347 415.883c0-15.372-12.565-28.967-27.937-28.828-7.257 0.065-13.829 2.933-18.729 7.565-1.644 1.565-113.867 147.005-113.867 147.005v-126.889c0-15.287-12.395-27.681-27.681-27.681s-27.681 12.391-27.681 27.681v207.835c0 15.065 11.544 28.225 26.603 28.799 8.641 0.328 16.42-3.321 21.703-9.249 1.689-1.895 112.228-146.076 112.228-146.076v127.663c0 15.287 12.395 27.677 27.681 27.683 15.285 0 27.681-12.395 27.681-27.683v-207.823zM873.253 546.9c15.289 0 27.681-12.391 27.681-27.681 0-15.285-12.389-27.681-27.681-27.681h-83.035v-49.129h83.035c15.289 0 27.681-12.395 27.681-27.681s-12.389-27.681-27.681-27.681h-110.713c-15.289 0-27.681 12.391-27.681 27.681v208.973c0 15.287 12.389 27.683 27.681 27.683h110.713c15.289 0 27.681-12.395 27.681-27.683 0-15.285-12.389-27.681-27.681-27.673h-83.035v-49.129h83.035z" />
<glyph unicode="&#xe90f;" glyph-name="file" horiz-adv-x="860" d="M764.6 686.94h-100.127c-45.527 0-77.373 36.413-77.373 77.373v95.56c0 9.114 9.093 18.207 18.186 18.207s18.227-9.093 18.227-18.207v-100.127c0-22.753 18.207-40.96 40.96-40.96h100.127c9.073 0 18.207-9.093 18.207-18.207 4.547-9.093-4.567-13.64-18.207-13.64zM764.6-64h-591.667c-54.62 0-100.127 45.527-100.127 100.127v159.273c0 9.114 9.093 18.227 18.207 18.227 9.093 0 18.207-9.093 18.207-18.227v-159.273c0-31.846 27.3-59.167 59.167-59.167h591.647c31.867 0 59.167 27.32 59.167 59.167v673.567c0 13.66-4.567 31.867-18.207 40.96l-150.2 150.18c-9.073 9.114-27.279 18.207-40.96 18.207h-432.333c-31.867 0-59.167-27.3-59.167-59.167v-314.020c0-9.093-9.093-18.207-18.207-18.207s-22.753 9.114-22.753 18.207v314.020c0 54.62 45.507 100.127 100.127 100.127h436.9c27.32 0 50.074-9.093 68.28-27.3l150.18-150.18c18.207-18.207 27.3-45.507 27.3-68.26v-673.567c4.547-59.167-40.96-104.694-95.56-104.694zM509.706 254.587h-409.6c-54.62 0-100.127 45.507-100.127 100.127v40.96c0 54.62 45.527 100.127 100.127 100.127h373.207c45.527 0 77.353-36.413 77.353-77.373 0-45.507-36.393-77.373-77.353-77.373h-295.813c-9.093 0-18.207 9.114-18.207 18.207 0 9.114 4.547 9.114 18.207 9.114h295.813c22.753 0 40.96 18.207 40.96 40.96s-18.207 40.96-40.96 40.96h-373.187c-31.867 0-59.167-27.32-59.167-59.167v-40.96c0-31.887 27.3-59.167 59.167-59.167h414.147c63.713 0 118.313 54.6 118.313 118.313s-54.6 118.313-118.313 118.313h-218.46c-13.66 0-22.753 9.114-22.753 18.207s9.093 18.207 18.207 18.207h218.44c86.487 0 159.293-68.26 159.293-159.293 0.020-91.013-72.806-150.159-159.293-150.159z" />
<glyph unicode="&#xe910;" glyph-name="arrowRT" d="M1024-29.58h-86.050v903.529h-903.529v86.050h989.58zM1.494 2.35l949.202 949.202 60.846-60.846-949.202-949.202-60.846 60.846z" />
<glyph unicode="&#xe911;" glyph-name="funnel" d="M757.76 647.68v143.36c35.84 10.24 61.44 46.080 61.44 81.92 0 51.2-35.84 87.040-81.92 87.040h-450.56c-46.080 0-81.92-35.84-81.92-87.040 0-40.96 25.6-71.68 61.44-81.92v-148.48c0-5.12 5.12-15.36 10.24-15.36l204.8-179.2-204.8-179.2c-5.12-5.12-10.24-10.24-10.24-15.36v-148.48c-35.84-10.24-61.44-46.080-61.44-81.92 0-51.2 35.84-87.040 81.92-87.040h450.56c46.080 0 87.040 35.84 87.040 87.040 0 40.96-25.6 71.68-61.44 81.92v148.48c0 5.12-5.12 15.36-10.24 15.36l-204.8 179.2 204.8 179.2c5.12 5.12 5.12 10.24 5.12 20.48zM250.88 872.96c0 20.48 15.36 40.96 40.96 40.96h450.56c20.48 0 40.96-15.36 40.96-40.96 0-20.48-15.36-40.96-40.96-40.96h-455.68c-20.48 5.12-35.84 20.48-35.84 40.96zM773.12 23.040c0-20.48-15.36-40.96-40.96-40.96h-445.44c-20.48 0-40.96 15.36-40.96 40.96 0 20.48 15.36 40.96 40.96 40.96h450.56c20.48-5.12 35.84-20.48 35.84-40.96zM711.68 104.96h-399.36v133.12l199.68 179.2 199.68-179.2v-133.12zM711.68 657.92l-199.68-179.2-199.68 179.2v133.12h404.48v-133.12h-5.12zM389.12 668.16h240.64c10.24 0 25.6 10.24 25.6 25.6 0 10.24-10.24 25.6-25.6 25.6h-240.64c-10.24-5.12-20.48-15.36-20.48-25.6 0-15.36 10.24-25.6 20.48-25.6zM496.64 279.040l-51.2-51.2h-51.2c-10.24 0-25.6-10.24-25.6-25.6 0-10.24 10.24-25.6 25.6-25.6h61.44c5.12 0 10.24 0 15.36 5.12l40.96 40.96 40.96-40.96c5.12-5.12 10.24-5.12 15.36-5.12h61.44c10.24 0 25.6 10.24 25.6 25.6 0 10.24-10.24 25.6-25.6 25.6h-51.2l-51.2 51.2c-10.24 10.24-20.48 10.24-30.72 0zM163.84 473.6h-138.24c-15.36 0-25.6-15.36-25.6-25.6s10.24-25.6 25.6-25.6h143.36c10.24 0 25.6 10.24 25.6 25.6-5.12 10.24-15.36 25.6-30.72 25.6zM153.6 330.24l-97.28-51.2c-10.24-5.12-15.36-20.48-10.24-30.72 5.12-5.12 15.36-10.24 20.48-10.24s5.12 0 10.24 0l97.28 51.2c10.24 5.12 15.36 20.48 10.24 30.72-5.12 15.36-15.36 15.36-30.72 10.24zM56.32 611.84l97.28-51.2c5.12 0 5.12 0 10.24 0 10.24 0 15.36 5.12 20.48 10.24 5.12 10.24 0 25.6-10.24 30.72l-97.28 51.2c-10.24 10.24-25.6 5.12-30.72-10.24-5.12-10.24 0-25.6 10.24-30.72zM998.4 473.6h-143.36c-10.24 0-25.6-10.24-25.6-25.6 0-10.24 10.24-25.6 25.6-25.6h143.36c10.24 0 25.6 10.24 25.6 25.6 0 10.24-10.24 25.6-25.6 25.6zM967.68 284.16l-97.28 51.2c-10.24 5.12-25.6 0-30.72-10.24s0-25.6 10.24-30.72l97.28-51.2c5.12 0 5.12 0 10.24 0 10.24 0 15.36 5.12 20.48 10.24 5.12 10.24 0 25.6-10.24 30.72zM860.16 560.64c5.12 0 5.12 0 10.24 0l97.28 51.2c10.24 5.12 15.36 20.48 10.24 30.72-5.12 15.36-20.48 20.48-30.72 10.24l-97.28-51.2c-10.24-5.12-15.36-20.48-10.24-30.72 0-5.12 10.24-10.24 20.48-10.24z" />
<glyph unicode="&#xe912;" glyph-name="bigger" d="M101.554 562.248h-101.554v397.752h406.215v-101.554h-304.661zM406.215-64h-406.215v406.215h101.554v-304.661h304.661zM1024-64h-406.215v101.554h304.661v304.661h101.554zM1024 562.248h-101.554v296.198h-304.661v101.554h406.215z" />
<glyph unicode="&#xe913;" glyph-name="changeAccount" horiz-adv-x="1183" d="M326.809 175.66c0-9.337 6.225-15.562 15.562-15.562s15.562 6.225 15.562 15.562c0 127.611 105.824 233.435 233.435 233.435s233.435-105.824 233.435-233.435c0-9.337 6.225-15.562 15.562-15.562s15.562 6.225 15.562 15.562c0 118.274-80.924 220.985-189.86 252.109 49.799 28.012 84.036 80.924 84.036 140.061 0 90.261-71.587 161.848-161.848 161.848s-161.848-71.587-161.848-161.848c0-62.249 34.237-115.161 84.036-140.061-102.711-31.125-183.635-130.723-183.635-252.109zM460.644 570.942c0 71.587 59.137 130.723 130.723 130.723s130.723-59.137 130.723-130.723-59.137-130.723-130.723-130.723-130.723 59.137-130.723 130.723zM1064.462 309.495c-9.337 3.112-21.787-3.112-24.9-12.45-62.249-186.748-239.66-320.584-448.195-320.584-258.334 0-466.869 208.535-473.094 463.757l43.574-43.574c6.225-6.225 18.675-6.225 28.012 0 6.225 6.225 6.225 18.675 0 28.012l-77.812 77.812c0 0 0 0 0 0-3.112 3.112-3.112 3.112-6.225 3.112-6.225 3.112-9.337 3.112-15.562 0-3.112 0-3.112-3.112-6.225-3.112 0 0 0 0 0 0l-77.812-77.812c-6.225-6.225-6.225-18.675 0-28.012 3.112-3.112 9.337-6.225 12.45-6.225 6.225 0 9.337 3.112 12.45 6.225v0l46.687 46.687c3.112-280.122 233.435-504.219 513.556-504.219 227.21 0 417.070 146.286 485.544 348.596 3.112 6.225-3.112 18.675-12.45 21.787zM1176.511 499.356c-6.225 6.225-18.675 6.225-28.012 0l-46.687-46.687c-3.112 283.234-230.322 507.331-510.444 507.331-233.435 0-429.52-155.623-491.769-370.383-3.112-9.337 3.112-21.787 12.45-24.9s21.787 3.112 24.9 12.45c59.137 199.198 239.66 342.371 454.419 342.371 258.334 0 466.869-208.535 473.094-463.757l-43.574 43.574c-6.225 6.225-18.675 6.225-28.012 0-6.225-6.225-6.225-18.675 0-28.012v0l77.812-77.812c3.112-3.112 3.112-3.112 6.225-3.112 0 0 0 0 0 0 3.112 0 6.225-3.112 6.225-3.112 6.225 0 9.337 3.112 12.45 6.225l77.812 77.812c12.45 9.337 12.45 21.787 3.112 28.012z" />
<glyph unicode="&#xe914;" glyph-name="changeps" horiz-adv-x="1179" d="M1061.236 311.467c-9.309 3.103-21.721-3.103-24.824-12.412-62.061-186.182-238.933-319.612-446.836-319.612-257.552 0-465.455 207.903-471.661 462.352l43.442-43.442c6.206-6.206 18.618-6.206 27.927 0 6.206 6.206 6.206 18.618 0 27.927l-77.576 77.576c0 0 0 0 0 0-3.103 3.103-3.103 3.103-6.206 3.103-6.206 3.103-9.309 3.103-15.515 0-3.103 0-3.103-3.103-6.206-3.103 0 0 0 0 0 0l-77.576-77.576c-6.206-6.206-6.206-18.618 0-27.927 3.103-3.103 9.309-6.206 12.412-6.206s9.309 3.103 12.412 6.206v0l46.545 46.545c3.103-279.273 232.727-502.691 512-502.691 226.521 0 415.806 145.842 484.073 347.539 3.103 6.206-3.103 18.618-12.412 21.721zM1172.945 500.752c-6.206 6.206-18.618 6.206-27.927 0l-46.545-46.545c-3.103 282.376-229.624 505.794-508.897 505.794-232.727 0-428.218-155.152-490.279-369.261-3.103-9.309 3.103-21.721 12.412-24.824s21.721 3.103 24.824 12.412c58.958 198.594 238.933 341.333 453.042 341.333 257.552 0 465.455-207.903 471.661-462.352l-43.442 43.442c-6.206 6.206-18.618 6.206-27.927 0-6.206-6.206-6.206-18.618 0-27.927v0l77.576-77.576c3.103-3.103 3.103-3.103 6.206-3.103 0 0 0 0 0 0 3.103 0 6.206-3.103 6.206-3.103 6.206 0 9.309 3.103 12.412 6.206l77.576 77.576c12.412 9.309 12.412 21.721 3.103 27.927zM471.661 448c0 31.030-27.927 58.958-58.958 58.958s-58.958-27.927-58.958-58.958c0-31.030 27.927-58.958 58.958-58.958s58.958 27.927 58.958 58.958zM412.703 429.382c-9.309 0-18.618 9.309-18.618 18.618s9.309 18.618 18.618 18.618c9.309 0 18.618-9.309 18.618-18.618s-9.309-18.618-18.618-18.618zM567.855 370.424h62.061c6.206 0 9.309 3.103 12.412 6.206l27.927 27.927 46.545-31.030c9.309-6.206 18.618-3.103 24.824 3.103l27.927 27.927 46.545-31.030c9.309-6.206 21.721-3.103 27.927 3.103l58.958 77.576c3.103 3.103 3.103 9.309 3.103 15.515s-3.103 9.309-9.309 12.412l-58.958 43.442c-3.103 3.103-6.206 3.103-12.412 3.103h-257.552c-27.927 46.545-77.576 77.576-136.533 77.576-86.885 0-158.255-71.37-158.255-158.255s71.37-158.255 158.255-158.255c58.958 3.103 108.606 34.133 136.533 80.679zM313.406 448c0 65.164 52.752 117.915 117.915 117.915 46.545 0 86.885-27.927 105.503-68.267 3.103-6.206 9.309-12.412 18.618-12.412h263.758l37.236-24.824-34.133-46.545-43.442 27.927c-9.309 6.206-18.618 3.103-24.824-3.103l-27.927-27.927-46.545 31.030c-9.309 6.206-18.618 3.103-24.824-3.103l-34.133-27.927h-65.164c-6.206 0-15.515-3.103-18.618-12.412-18.618-40.339-58.958-68.267-105.503-68.267-65.164 0-117.915 52.752-117.915 117.915z" />
<glyph unicode="&#xe915;" glyph-name="logout" horiz-adv-x="897" d="M637.051-21.53h-599.3v943.779h594.581v-264.258h37.751v302.009h-670.083v-1024h674.802v316.166h-37.751v-273.696zM797.493 596.645l-33.032-23.594 66.065-84.94h-490.765v-37.751h495.484l-66.065-89.659 33.032-23.594 99.097 132.129-103.816 127.41z" />
<glyph unicode="&#xe916;" glyph-name="paperplane" horiz-adv-x="1479" d="M438.034 308.713c-1.921 0-3.842 0-5.764 0l-420.743 130.642c-5.764 1.921-11.527 9.606-11.527 15.37 0 7.685 3.842 13.448 11.527 15.37l1444.743 489.906c7.685 1.921 17.291-1.921 21.133-9.606s0-17.291-5.764-21.133l-1024-618.627c-3.842 0-5.764-1.921-9.606-1.921zM73.006 456.645l365.028-111.43 883.752 532.173-1248.78-420.743zM1004.788-64c-3.842 0-7.685 1.921-9.606 3.842l-418.822 307.392c-3.842 3.842-7.685 7.685-7.685 13.448s1.921 9.606 5.764 13.448l877.989 682.026c5.764 3.842 15.37 3.842 21.133 0 5.764-5.764 7.685-13.448 5.764-21.133l-459.167-987.497c-1.921-3.842-5.764-7.685-11.527-9.606 0 0-1.921-1.921-3.842-1.921zM614.784 260.683l384.24-280.495 418.822 906.807-803.062-626.311zM549.463-21.734c-1.921 0-3.842 0-3.842 0-5.764 1.921-9.606 5.764-11.527 11.527l-115.272 345.816 32.66 11.527 105.666-322.762 174.829 146.011 21.133-26.897-194.041-161.381c-1.921-1.921-5.764-3.842-9.606-3.842zM549.463-21.734c0 0-1.921 0-1.921 0-9.606 1.921-15.37 9.606-15.37 19.212l36.503 263.205c1.921 9.606 9.606 15.37 19.212 15.37 9.606-1.921 15.37-9.606 15.37-19.212l-36.503-263.205c-1.921-7.685-9.606-15.37-17.291-15.37z" />
<glyph unicode="&#xe917;" glyph-name="phone" d="M618.852 128.928c-235.965 0-427.409 191.443-427.409 427.409 0 40.070 5.936 80.139 16.325 118.725 1.484 4.452 5.936 8.904 10.388 8.904l129.113 23.745c7.42 1.484 13.357-2.968 14.841-10.388l41.554-186.991c1.484-5.936-1.484-13.357-8.904-14.841l-46.006-17.809c26.713-90.528 97.948-161.762 189.959-188.475l26.713 53.426c2.968 5.936 8.904 8.904 14.841 7.42l182.539-41.554c7.42-1.484 11.872-8.904 10.388-16.325l-26.713-136.533c-1.484-4.452-4.452-8.904-8.904-10.388-38.586-10.388-78.655-16.325-118.725-16.325zM231.513 660.22c-8.904-34.133-13.357-68.267-13.357-103.884 0-221.125 179.571-400.696 400.696-400.696 34.133 0 69.751 4.452 103.884 13.357l23.745 115.757-160.278 37.101-26.713-54.91c-2.968-5.936-8.904-8.904-14.841-7.42-109.82 26.713-195.896 112.788-222.609 222.609-1.484 5.936 1.484 13.357 7.42 16.325l46.006 17.809-37.101 163.246-106.852-19.293zM832.557 465.809h-26.713c0 151.374-123.177 274.551-274.551 274.551v26.713c166.214 1.484 301.264-133.565 301.264-301.264zM758.354 465.809h-26.713c0 111.304-90.528 200.348-200.348 200.348v26.713c124.661 1.484 227.061-100.916 227.061-227.061zM684.151 465.809h-26.713c0 69.751-56.394 126.145-126.145 126.145v26.713c84.591 1.484 152.858-68.267 152.858-152.858zM149.89 85.89c-47.49 47.49-84.591 102.4-109.82 163.246-26.713 63.814-40.070 130.597-40.070 198.864 0 69.751 13.357 136.533 40.070 198.864 25.229 60.846 62.33 115.757 109.82 163.246l19.293-19.293c-44.522-44.522-80.139-96.464-103.884-154.342-25.229-59.362-38.586-123.177-38.586-188.475s13.357-129.113 38.586-188.475c23.745-57.878 59.362-109.82 103.884-154.342l-19.293-19.293zM710.864-22.446l-10.388 25.229c57.878 23.745 109.82 59.362 154.342 103.884 38.586 38.586 68.267 81.623 92.012 129.113l23.745-11.872c-25.229-50.458-57.878-96.464-97.948-136.533-46.006-47.49-100.916-84.591-161.762-109.82zM958.701 637.959c-23.745 57.878-59.362 109.82-103.884 154.342s-96.464 80.139-154.342 103.884c-51.942 20.777-106.852 34.133-164.73 37.101l1.484 26.713c59.362-2.968 118.725-16.325 173.635-40.070 60.846-25.229 115.757-62.33 163.246-109.82s84.591-102.4 109.82-163.246l-25.229-8.904zM498.643-64v26.713h26.713v-26.713h-13.357c-13.357 0 0 0-13.357 0zM428.893-56.58l-13.357 1.484 4.452 26.713 26.713-2.968-4.452-26.713c-13.357 1.484 0-1.484-13.357 1.484zM348.754-37.287l-13.357 4.452 8.904 25.229 25.229-8.904-8.904-25.229c-11.872 4.452 1.484 0-11.872 4.452zM273.067-4.638l-11.872 5.936 13.357 23.745 23.745-11.872-13.357-23.745c-11.872 5.936 0 0-11.872 5.936zM203.316 39.884v0l-10.388 8.904 16.325 22.261 10.388-7.42 10.388-8.904-16.325-20.777c-10.388 5.936 0-1.484-10.388 5.936zM967.606 281.786l8.904 25.229 25.229-8.904-8.904-25.229c-25.229 8.904 0 0-25.229 8.904zM988.383 357.472l2.968 26.713 26.713-4.452-4.452-26.713c-25.229 4.452 1.484 0-25.229 4.452zM997.287 434.643v26.713h26.713v-26.713c-26.713 0 0 0-26.713 0zM299.78 915.478l11.872 4.452c0 0 0 0 0 0l11.872 5.936 11.872-25.229-11.872-5.936-11.872-4.452c-11.872 25.229-1.484 0-11.872 25.229zM378.435 943.675l26.713 5.936 5.936-26.713-26.713-5.936c-5.936 26.713 0 0-5.936 26.713zM460.058 958.516l13.357 1.484h13.357l1.484-26.713-26.713-1.484c-1.484 26.713 0 0-1.484 26.713z" />
<glyph unicode="&#xe918;" glyph-name="upload" horiz-adv-x="977" d="M828.509 494.545l-335.127 335.127-335.127-335.127-65.164 65.164 400.291 400.291 400.291-400.291zM446.836 894.836h93.091v-921.6h-93.091v921.6zM0 29.091h977.455v-93.091h-977.455v93.091z" />
<glyph unicode="&#xe919;" glyph-name="x" d="M3.995 886.159l74.264 74.264 953.050-953.050-74.264-74.264-953.050 953.050zM3.995 7.355l953.050 953.050 74.264-74.264-953.050-953.050-74.264 74.264z" />
<glyph unicode="&#xe91a;" glyph-name="star" horiz-adv-x="1068" d="M243.855-73.143c-13.066 0-26.132 5.222-39.199 13.066-20.91 15.667-31.334 39.178-26.112 65.29l47.022 266.465c2.601 13.066-2.601 26.112-10.445 33.956l-195.912 190.689c-18.289 18.289-23.511 44.401-15.667 67.912s28.733 41.8 52.244 44.401l269.066 39.178c13.066 2.601 23.511 10.445 28.733 20.91l120.136 242.954c10.445 26.112 33.956 39.178 60.088 39.178s47.002-13.066 60.088-36.577l107.090-216.822c2.621-5.222 0-13.066-5.222-18.289-5.222-2.621-13.066 0-18.289 5.222l-107.090 216.842c-7.844 15.667-20.91 23.511-36.577 23.511-15.688 0-28.733-7.844-36.577-20.91l-120.156-242.934c-10.445-18.289-28.733-33.956-49.623-36.577l-269.066-41.8c-15.688-2.601-26.112-13.066-31.355-26.112-5.222-15.667 0-28.733 10.445-41.8l195.912-190.689c15.667-15.667 23.511-36.577 18.289-57.467l-47.022-266.465c-2.601-15.667 2.621-28.733 15.688-39.178 13.066-7.844 28.733-10.445 41.8-2.601l240.333 125.358c18.289 10.465 41.8 10.465 60.088 0l240.312-125.358c13.087-7.844 28.733-5.243 41.8 2.601s18.289 23.511 15.688 39.178l-47.022 269.066c-2.621 20.91 2.621 41.8 18.289 57.487l195.912 190.689c10.465 10.445 15.667 26.112 10.465 41.8-5.243 15.688-15.688 23.511-31.355 26.132l-107.090 15.667c-7.844 0-13.066 7.844-10.465 15.667 0 7.844 7.844 13.066 15.688 10.445l107.11-15.667c26.112-2.601 44.401-20.91 52.244-44.401s2.601-49.623-15.688-67.912l-195.912-190.689c-10.445-7.844-13.066-20.91-10.445-33.956l44.401-269.087c5.222-26.112-5.243-49.644-26.112-65.29-20.91-15.667-47.022-15.667-67.912-5.222l-240.312 128c-10.465 5.222-26.132 5.222-36.577 0l-240.394-125.42c-10.445-7.844-20.89-10.445-31.334-10.445zM531.19 297.791c-2.601 0-7.823 0-7.823 2.621l-185.467 185.467c-5.222 5.222-5.222 13.066 0 18.289l70.533 70.533c5.222 5.222 13.066 5.222 18.289 0l104.489-104.489 365.691 365.711c5.243 5.222 13.087 5.222 18.289 0l70.533-70.533c2.621-2.601 5.222-5.222 5.222-7.844 0-2.601-2.601-7.823-2.601-10.445l-266.445-263.844-180.265-180.244c-2.601-2.601-7.823-5.222-10.445-5.222zM364.012 496.324l167.178-167.199 428.401 428.421-52.244 52.244-365.711-365.711c-5.222-5.222-13.066-5.222-18.289 0l-104.489 104.489-54.845-52.244zM711.434 493.723v0 0z" />
<glyph unicode="&#xe91b;" glyph-name="square" d="M4.659 941.897h439.030v-435.62h-439.030v435.62zM4.659 371.437h439.030v-435.62h-439.030v435.62zM580.311 941.897h439.030v-435.62h-439.030v435.62zM580.311 371.437h439.030v-435.62h-439.030v435.62z" />
<glyph unicode="&#xe91c;" glyph-name="eye" horiz-adv-x="2141" d="M1042.618-73.143c-363.055 0-707.491 158.255-1024 474.764-18.618 27.927-18.618 55.855-9.309 74.473 18.618 18.618 465.455 474.764 1079.855 474.764 363.055 0 716.8-158.255 1042.618-474.764 18.618-18.618 18.618-46.545 0-65.164s-465.455-474.764-1079.855-474.764c0-9.309-9.309-9.309-9.309-9.309zM111.709 438.857c288.582-279.273 605.091-418.909 940.218-418.909 484.073 0 865.745 316.509 977.455 418.909-297.891 279.273-605.091 418.909-940.218 418.909-484.073 0-865.745-316.509-977.455-418.909zM1070.545-73.143c-279.273 0-512 232.727-512 512s232.727 512 512 512 512-232.727 512-512-232.727-512-512-512zM1070.545 857.766c-232.727 0-418.909-186.182-418.909-418.909s186.182-418.909 418.909-418.909 418.909 186.182 418.909 418.909-186.182 418.909-418.909 418.909zM1070.545 140.966c-167.564 0-297.891 130.327-297.891 297.891s130.327 297.891 297.891 297.891 297.891-130.327 297.891-297.891-130.327-297.891-297.891-297.891zM1070.545 643.657c-111.709 0-204.8-93.091-204.8-204.8s93.091-204.8 204.8-204.8 204.8 93.091 204.8 204.8-93.091 204.8-204.8 204.8z" />
<glyph unicode="&#xe91d;" glyph-name="magnifier" horiz-adv-x="1022" d="M968.97-27.886l-242.96 275.362c81.792 73.946 133.67 180.399 133.67 299.182 0 222.469-180.959 403.428-403.463 403.428s-403.463-180.994-403.463-403.428c0-222.504 180.959-403.463 403.463-403.463 79.586 0 153.532 23.469 216.023 63.297l246.253-278.865 50.477 44.487zM120.044 546.658c0 185.373 150.834 336.207 336.207 336.207 185.303 0 336.207-150.834 336.207-336.207 0-185.408-150.905-336.207-336.207-336.207-185.373 0.035-336.207 150.799-336.207 336.207z" />
<glyph unicode="&#xe91e;" glyph-name="leaf" horiz-adv-x="1284" d="M919.013-73.143h-655.481v922.491c0 55.972 45.537 101.509 101.509 101.509h535.286v-37.372h-535.286c-35.36 0-64.108-28.777-64.108-64.137v-885.119h580.679v190.972h37.401v-228.345zM881.612 830.001h37.401v-91.39h-37.401v91.39zM1006.78 811.315h-578.551v18.686c0 46.025-30.99 83.484-69.081 83.484v37.372c53.097 0 97.254-44.358 105.189-102.17h503.347c-7.043 37.056-34.555 64.798-67.385 64.798v37.372c58.703 0 106.482-54.219 106.482-120.856v-18.686zM282.218-73.143c-72.416 0-131.292 58.876-131.292 131.263l-0.115 398.446h37.401l0.115-398.417c0-51.804 42.116-93.919 93.919-93.919v-37.372zM94.149 116.133h-94.149v336.063c0 51.919 42.231 94.149 94.149 94.149s94.149-42.231 94.149-94.149h-37.372c0 31.306-25.471 56.806-56.777 56.806s-56.777-25.499-56.777-56.806v-298.719h56.777v-37.344zM94.178 546.374h188.069v-37.372h-188.069v37.372zM720.049 170.265c-15.553 0-30.933 1.322-46.198 3.91l-10.062 1.754-3.996 9.343c-2.674 6.238-63.993 154.146 21.705 302.715 82.65 143.394 270.316 233.95 557.824 269.195l44.818 5.491-27.828-35.561c-1.61-2.070-162.656-208.767-223.515-341.841-36.682-80.264-96.708-143.969-169.009-179.329-48.555-23.746-96.708-35.676-143.739-35.676zM690.697 209.449c50.424-6.238 103.061 3.852 156.59 30.042 64.597 31.623 118.384 88.888 151.53 161.276 47.664 104.326 150.898 247.117 200.545 313.266-249.675-37.085-412.791-119.16-485.236-244.242-64.827-112.031-34.526-227.022-23.43-260.341zM642.832 31.154l-35.762 10.78c3.852 12.85 98.347 317.061 415.695 541.064l21.561-30.53c-306.913-216.673-400.544-518.296-401.493-521.314zM570.214 17.873h-36.136c-21.935 0-43.381 8.883-58.904 24.407-10.062 10.091-24.004 14.748-38.033 13.138-14.115-1.725-26.419-9.688-33.779-21.877l-3.996-6.612-32.025 19.29 4.025 6.641c13.339 22.107 35.676 36.539 61.262 39.643 25.787 3.22 50.74-5.548 68.966-23.803 8.567-8.538 20.411-13.454 32.485-13.454h36.136v-37.372z" />
<glyph unicode="&#xe91f;" glyph-name="instagram2" d="M512 858.657c136.8 0 153-0.6 206.8-3 50-2.2 77-10.6 95-17.6 23.8-9.2 41-20.4 58.8-38.2 18-18 29-35 38.4-58.8 7-18 15.4-45.2 17.6-95 2.4-54 3-70.2 3-206.8s-0.6-153-3-206.8c-2.2-50-10.6-77-17.6-95-9.2-23.8-20.4-41-38.2-58.8-18-18-35-29-58.8-38.4-18-7-45.2-15.4-95-17.6-54-2.4-70.2-3-206.8-3s-153 0.6-206.8 3c-50 2.2-77 10.6-95 17.6-23.8 9.2-41 20.4-58.8 38.2-18 18-29 35-38.4 58.8-7 18-15.4 45.2-17.6 95-2.4 54-3 70.2-3 206.8s0.6 153 3 206.8c2.2 50 10.6 77 17.6 95 9.2 23.8 20.4 41 38.2 58.8 18 18 35 29 58.8 38.4 18 7 45.2 15.4 95 17.6 53.8 2.4 70 3 206.8 3zM512 950.857c-139 0-156.4-0.6-211-3-54.4-2.4-91.8-11.2-124.2-23.8-33.8-13.2-62.4-30.6-90.8-59.2-28.6-28.4-46-57-59.2-90.6-12.6-32.6-21.4-69.8-23.8-124.2-2.4-54.8-3-72.2-3-211.2s0.6-156.4 3-211c2.4-54.4 11.2-91.8 23.8-124.2 13.2-33.8 30.6-62.4 59.2-90.8 28.4-28.4 57-46 90.6-59 32.6-12.6 69.8-21.4 124.2-23.8 54.6-2.4 72-3 211-3s156.4 0.6 211 3c54.4 2.4 91.8 11.2 124.2 23.8 33.6 13 62.2 30.6 90.6 59s46 57 59 90.6c12.6 32.6 21.4 69.8 23.8 124.2 2.4 54.6 3 72 3 211s-0.6 156.4-3 211c-2.4 54.4-11.2 91.8-23.8 124.2-12.6 34-30 62.6-58.6 91-28.4 28.4-57 46-90.6 59-32.6 12.6-69.8 21.4-124.2 23.8-54.8 2.6-72.2 3.2-211.2 3.2v0zM512 701.857c-145.2 0-263-117.8-263-263s117.8-263 263-263 263 117.8 263 263c0 145.2-117.8 263-263 263zM512 268.257c-94.2 0-170.6 76.4-170.6 170.6s76.4 170.6 170.6 170.6c94.2 0 170.6-76.4 170.6-170.6s-76.4-170.6-170.6-170.6zM846.8 712.257c0-33.91-27.49-61.4-61.4-61.4s-61.4 27.49-61.4 61.4c0 33.91 27.49 61.4 61.4 61.4s61.4-27.49 61.4-61.4z" />
<glyph unicode="&#xe920;" glyph-name="Medium_icon" horiz-adv-x="1293" d="M1181.876 737.645h-42.33c-15.717 0-37.94-22.674-37.94-37.189v-526.042c0-14.541 22.223-34.348 37.94-34.348h42.33v-124.86h-383.518v124.86h80.27v552.981h-3.932l-187.442-677.842h-145.13l-185.024 677.842h-4.683v-552.981h80.27v-124.86h-321.081v124.86h41.115c16.932 0 39.155 19.806 39.155 34.348v526.042c0 14.515-22.223 37.189-39.155 37.189h-41.115v124.86h401.495l131.817-490.538h3.626l133.039 490.538h400.293v-124.86z" />
<glyph unicode="&#xe921;" glyph-name="next" horiz-adv-x="728" d="M48-73.143l-48 64 600 448-600 448 48 64 680-512z" />
<glyph unicode="&#xe922;" glyph-name="next10" horiz-adv-x="680" d="M607.086 950.857v-468.114l-563.2 424.229-43.886-58.514 548.571-409.6-548.571-409.6 43.886-58.514 563.2 424.229v-468.114h73.143v1024z" />
<glyph unicode="&#xe923;" glyph-name="prev" horiz-adv-x="728" d="M680-73.143l-680 512 680 512 48-64-592-448 592-448z" />
<glyph unicode="&#xe924;" glyph-name="prev10" horiz-adv-x="680" d="M680.229 848.457l-43.886 58.514-563.2-424.229v468.114h-73.143v-1024h73.143v468.114l563.2-424.229 43.886 58.514-548.571 409.6z" />
<glyph unicode="&#xe9ba;" glyph-name="list" d="M0 960h256v-256h-256zM384 896h640v-128h-640zM0 576h256v-256h-256zM384 512h640v-128h-640zM0 192h256v-256h-256zM384 128h640v-128h-640z" />
<glyph unicode="&#xe9c9;" glyph-name="sphere" d="M480 896c-265.096 0-480-214.904-480-480 0-265.098 214.904-480 480-480 265.098 0 480 214.902 480 480 0 265.096-214.902 480-480 480zM751.59 256c8.58 40.454 13.996 83.392 15.758 128h127.446c-3.336-44.196-13.624-87.114-30.68-128h-112.524zM208.41 576c-8.58-40.454-13.996-83.392-15.758-128h-127.444c3.336 44.194 13.622 87.114 30.678 128h112.524zM686.036 576c9.614-40.962 15.398-83.854 17.28-128h-191.316v128h174.036zM512 640v187.338c14.59-4.246 29.044-11.37 43.228-21.37 26.582-18.74 52.012-47.608 73.54-83.486 14.882-24.802 27.752-52.416 38.496-82.484h-155.264zM331.232 722.484c21.528 35.878 46.956 64.748 73.54 83.486 14.182 10 28.638 17.124 43.228 21.37v-187.34h-155.264c10.746 30.066 23.616 57.68 38.496 82.484zM448 576v-128h-191.314c1.88 44.146 7.666 87.038 17.278 128h174.036zM95.888 256c-17.056 40.886-27.342 83.804-30.678 128h127.444c1.762-44.608 7.178-87.546 15.758-128h-112.524zM256.686 384h191.314v-128h-174.036c-9.612 40.96-15.398 83.854-17.278 128zM448 192v-187.34c-14.588 4.246-29.044 11.372-43.228 21.37-26.584 18.74-52.014 47.61-73.54 83.486-14.882 24.804-27.75 52.418-38.498 82.484h155.266zM628.768 109.516c-21.528-35.876-46.958-64.746-73.54-83.486-14.184-9.998-28.638-17.124-43.228-21.37v187.34h155.266c-10.746-30.066-23.616-57.68-38.498-82.484zM512 256v128h191.314c-1.88-44.146-7.666-87.040-17.28-128h-174.034zM767.348 448c-1.762 44.608-7.178 87.546-15.758 128h112.524c17.056-40.886 27.344-83.806 30.68-128h-127.446zM830.658 640h-95.9c-18.638 58.762-44.376 110.294-75.316 151.428 42.536-20.34 81.058-47.616 114.714-81.272 21.48-21.478 40.362-44.938 56.502-70.156zM185.844 710.156c33.658 33.658 72.18 60.932 114.714 81.272-30.942-41.134-56.676-92.666-75.316-151.428h-95.898c16.138 25.218 35.022 48.678 56.5 70.156zM129.344 192h95.898c18.64-58.762 44.376-110.294 75.318-151.43-42.536 20.34-81.058 47.616-114.714 81.274-21.48 21.478-40.364 44.938-56.502 70.156zM774.156 121.844c-33.656-33.658-72.18-60.934-114.714-81.274 30.942 41.134 56.678 92.668 75.316 151.43h95.9c-16.14-25.218-35.022-48.678-56.502-70.156z" />
<glyph unicode="&#xea90;" glyph-name="facebook" d="M608 768h160v192h-160c-123.514 0-224-100.486-224-224v-96h-128v-192h128v-512h192v512h160l32 192h-192v96c0 17.346 14.654 32 32 32z" />
<glyph unicode="&#xea96;" glyph-name="twitter" d="M1024 733.6c-37.6-16.8-78.2-28-120.6-33 43.4 26 76.6 67.2 92.4 116.2-40.6-24-85.6-41.6-133.4-51-38.4 40.8-93 66.2-153.4 66.2-116 0-210-94-210-210 0-16.4 1.8-32.4 5.4-47.8-174.6 8.8-329.4 92.4-433 219.6-18-31-28.4-67.2-28.4-105.6 0-72.8 37-137.2 93.4-174.8-34.4 1-66.8 10.6-95.2 26.2 0-0.8 0-1.8 0-2.6 0-101.8 72.4-186.8 168.6-206-17.6-4.8-36.2-7.4-55.4-7.4-13.6 0-26.6 1.4-39.6 3.8 26.8-83.4 104.4-144.2 196.2-146-72-56.4-162.4-90-261-90-17 0-33.6 1-50.2 3 93.2-59.8 203.6-94.4 322.2-94.4 386.4 0 597.8 320.2 597.8 597.8 0 9.2-0.2 18.2-0.6 27.2 41 29.4 76.6 66.4 104.8 108.6z" />
<glyph unicode="&#xea9d;" glyph-name="youtube" d="M1013.8 652.8c0 0-10 70.6-40.8 101.6-39 40.8-82.6 41-102.6 43.4-143.2 10.4-358.2 10.4-358.2 10.4h-0.4c0 0-215 0-358.2-10.4-20-2.4-63.6-2.6-102.6-43.4-30.8-31-40.6-101.6-40.6-101.6s-10.2-82.8-10.2-165.8v-77.6c0-82.8 10.2-165.8 10.2-165.8s10-70.6 40.6-101.6c39-40.8 90.2-39.4 113-43.8 82-7.8 348.2-10.2 348.2-10.2s215.2 0.4 358.4 10.6c20 2.4 63.6 2.6 102.6 43.4 30.8 31 40.8 101.6 40.8 101.6s10.2 82.8 10.2 165.8v77.6c-0.2 82.8-10.4 165.8-10.4 165.8zM406.2 315.2v287.8l276.6-144.4-276.6-143.4z" />
</font>
</defs>
</svg>
