<?xml version="1.0" encoding="utf-8"?>
<!-- Generator: Adobe Illustrator 16.0.0, SVG Export Plug-In . SVG Version: 6.00 Build 0)  -->
<!DOCTYPE svg PUBLIC "-//W3C//DTD SVG 1.1 Tiny//EN" "http://www.w3.org/Graphics/SVG/1.1/DTD/svg11-tiny.dtd">
<svg version="1.1" baseProfile="tiny" id="圖層_1"
	 xmlns="http://www.w3.org/2000/svg" xmlns:xlink="http://www.w3.org/1999/xlink" x="0px" y="0px" width="595.28px"
	 height="841.89px" viewBox="0 0 595.28 841.89" xml:space="preserve">
<g>
	<path d="M291.854,591.537c-0.715,0-1.423-0.303-1.895-0.863L99.518,363.602c-0.693-0.863-0.76-2.072-0.177-2.935l70.284-109.193
		c0.458-0.693,1.231-1.121,2.094-1.121h240.319c0.818,0,1.6,0.428,2.117,1.121l70.238,109.193c0.605,0.862,0.517,2.071-0.169,2.935
		L293.778,590.674C293.299,591.234,292.584,591.537,291.854,591.537z M104.502,361.787l187.352,223.408l187.363-223.408
		l-68.559-106.435H173.075L104.502,361.787z"/>
	<path d="M291.854,364.465c-0.885,0-1.704-0.428-2.161-1.291l-58.088-105.182L173.938,363.13c-0.435,0.774-1.246,1.29-2.16,1.29
		c0,0,0,0-0.015,0c-0.885,0-1.681-0.472-2.16-1.246l-33.417-57.255c-0.671-1.209-0.28-2.713,0.907-3.406
		c1.143-0.693,2.699-0.31,3.407,0.899l31.197,53.457l57.682-105.233c0.458-0.767,1.298-1.283,2.183-1.283l0,0
		c0.929,0,1.74,0.517,2.197,1.283L294.029,360.8c0.679,1.165,0.244,2.714-0.988,3.362
		C292.672,364.376,292.259,364.465,291.854,364.465z"/>
	<path d="M291.854,591.537c-0.907,0-1.748-0.516-2.205-1.291L170.207,364.465h-68.794c-1.364,0-2.456-1.121-2.456-2.5
		c0-1.342,1.091-2.419,2.456-2.419h70.239c0.066,0,0.088,0,0.088,0h120.114c1.364,0,2.5,1.077,2.5,2.419v227.117
		c0,1.12-0.796,2.108-1.895,2.366C292.259,591.537,292.053,591.537,291.854,591.537z M175.833,364.465l113.566,214.56v-214.56
		H175.833z"/>
	<path d="M291.854,364.465c-0.406,0-0.818-0.089-1.188-0.303c-1.209-0.648-1.659-2.197-0.973-3.362l60.281-109.164
		c0.436-0.767,1.254-1.283,2.16-1.283l0,0c0.922,0,1.764,0.517,2.176,1.283l57.727,105.233l31.197-53.457
		c0.686-1.209,2.242-1.593,3.451-0.899c1.164,0.693,1.556,2.197,0.862,3.406l-33.483,57.255c-0.428,0.774-1.246,1.246-2.107,1.246
		c-0.045,0-0.045,0-0.045,0c-0.863,0-1.726-0.516-2.16-1.29l-57.617-105.138l-58.106,105.182
		C293.579,364.037,292.739,364.465,291.854,364.465z"/>
	<path d="M291.854,591.537c-0.214,0-0.406,0-0.583-0.089c-1.099-0.258-1.873-1.246-1.873-2.366V361.965
		c0-1.342,1.077-2.419,2.456-2.419h120.139c0.044,0,0.044,0,0.044,0h70.284c1.378,0,2.507,1.077,2.507,2.419
		c0,1.379-1.129,2.5-2.507,2.5h-68.816L294.059,590.246C293.624,591.021,292.783,591.537,291.854,591.537z M294.354,364.465v214.56
		L407.9,364.465H294.354z"/>
</g>
</svg>
