<?xml version="1.0" encoding="utf-8"?>
<!-- Generator: Adobe Illustrator 16.0.0, SVG Export Plug-In . SVG Version: 6.00 Build 0)  -->
<!DOCTYPE svg PUBLIC "-//W3C//DTD SVG 1.1 Tiny//EN" "http://www.w3.org/Graphics/SVG/1.1/DTD/svg11-tiny.dtd">
<svg version="1.1" baseProfile="tiny" id="Layer_1" xmlns="http://www.w3.org/2000/svg" xmlns:xlink="http://www.w3.org/1999/xlink"
	 x="0px" y="0px" width="2895.912px" height="1103.084px" viewBox="0 0 2895.912 1103.084" xml:space="preserve">
<path d="M666.858,342.646V250H114.363L666.858,342.646z M666.858,659.349v-75.805H343.186L666.858,659.349z M666.858,184.276V83.235
	H0L666.858,184.276z M666.858,500.998v-84.217H228.757L666.858,500.998z M1122.837,862.725c-19.44,0-35.119,15.71-35.119,35.104
	c0,2.438,0.917,4.549,1.309,6.841c3.308,15.988,16.824,28.278,33.811,28.278c16.921,0,30.407-12.29,33.649-28.278
	c0.49-2.292,1.407-4.403,1.407-6.841C1157.894,878.435,1142.151,862.725,1122.837,862.725z M2863.016,758.624h-38.72l-12.701-132.92
	c-3.468-36.2-34.857-72.663-70.141-81.451l-198.187-39.54l-51.848-198.236c-9.296-35.169-46.217-63.709-82.546-63.709
	l-265.813-24.386c-32.828-2.994-59.405,21.291-59.405,54.219v486.023h-64.838V65.855c0-36.365-29.525-65.855-65.854-65.855H809.472
	c-36.367,0-65.791,29.491-65.791,65.855v692.768h-39.146c-18.199,0-32.924,14.729-32.924,32.911v80.24
	c0,18.166,14.725,32.896,32.924,32.896h213.409c3.63,110.188,93.806,198.414,204.894,198.414
	c110.992,0,201.231-88.226,204.831-198.414h1032.564c3.637,110.188,93.776,198.414,204.864,198.414
	c110.959,0,201.198-88.226,204.834-198.414h93.085c18.198,0,32.896-14.729,32.896-32.896v-80.24
	C2895.912,773.353,2881.214,758.624,2863.016,758.624z M1225.417,904.67c-3.601,53.843-47.95,96.507-102.58,96.507
	c-54.792,0-99.075-42.664-102.712-96.507c-0.159-2.308-0.686-4.518-0.686-6.841c0-57.067,46.248-103.314,103.397-103.314
	c57.018,0,103.235,46.247,103.235,103.314C1226.072,900.153,1225.612,902.363,1225.417,904.67z M2191.868,470.869v-180.25
	l199.072,18.019c18.195,0,36.653,14.254,41.27,31.831l42.617,162.657L2191.868,470.869z M2667.713,904.67
	c-3.638,53.843-47.953,96.507-102.616,96.507c-54.756,0-99.076-42.664-102.612-96.507c-0.229-2.308-0.686-4.518-0.686-6.841
	c0-57.067,46.185-103.314,103.298-103.314c57.018,0,103.266,46.247,103.266,103.314
	C2668.362,900.153,2667.872,902.363,2667.713,904.67z M2565.097,862.725c-19.44,0-35.186,15.71-35.186,35.104
	c0,2.438,0.983,4.549,1.375,6.841c3.308,15.988,16.758,28.278,33.811,28.278c16.891,0,30.41-12.29,33.715-28.278
	c0.457-2.292,1.375-4.403,1.375-6.841C2600.187,878.435,2584.411,862.725,2565.097,862.725z"/>
</svg>
