<?xml version="1.0" encoding="utf-8"?>
<!-- Generator: Adobe Illustrator 16.0.0, SVG Export Plug-In . SVG Version: 6.00 Build 0)  -->
<!DOCTYPE svg PUBLIC "-//W3C//DTD SVG 1.1//EN" "http://www.w3.org/Graphics/SVG/1.1/DTD/svg11.dtd">
<svg version="1.1"
	 id="レイヤー_1" xmlns:dc="http://purl.org/dc/elements/1.1/" xmlns:cc="http://creativecommons.org/ns#" xmlns:rdf="http://www.w3.org/1999/02/22-rdf-syntax-ns#" xmlns:svg="http://www.w3.org/2000/svg"
	 xmlns="http://www.w3.org/2000/svg" xmlns:xlink="http://www.w3.org/1999/xlink" x="0px" y="0px" width="300px" height="231.512px"
	 viewBox="0 0 300 231.512" enable-background="new 0 0 300 231.512" xml:space="preserve">
<g id="g6321" transform="translate(-9.4000001,96.810998)">
	<g id="g6323" transform="matrix(1.8215159,0,0,1.8215159,-8.5437653,-109.83667)">
		<path id="path6325" fill="#FFFFFF" d="M174,108.3c0,14-11.4,25.4-25.4,25.4H10.4V33.1c0-14,11.4-25.4,25.4-25.4H174V108.3z"/>
		<g id="g6327">
			
				<linearGradient id="path6338_1_" gradientUnits="userSpaceOnUse" x1="155.2693" y1="32.6088" x2="195.2165" y2="32.6088" gradientTransform="matrix(2.0492 0 0 -2.0492 -198.0973 144.5229)">
				<stop  offset="0" style="stop-color:#007940"/>
				<stop  offset="0.2285" style="stop-color:#00873F"/>
				<stop  offset="0.7433" style="stop-color:#40A737"/>
				<stop  offset="1" style="stop-color:#5CB531"/>
			</linearGradient>
			<path id="path6338" fill="url(#path6338_1_)" d="M129,82.5H139.5c0.3,0,0.999-0.1,1.3-0.1c2-0.4,3.7-2.2,3.7-4.7
				c0-2.4-1.7-4.2-3.7-4.7c-0.3-0.1-0.9-0.1-1.3-0.1H129V82.5z"/>
			
				<linearGradient id="path6349_1_" gradientUnits="userSpaceOnUse" x1="155.2688" y1="36.0004" x2="195.1799" y2="36.0004" gradientTransform="matrix(2.0492 0 0 -2.0492 -198.0973 144.5229)">
				<stop  offset="0" style="stop-color:#007940"/>
				<stop  offset="0.2285" style="stop-color:#00873F"/>
				<stop  offset="0.7433" style="stop-color:#40A737"/>
				<stop  offset="1" style="stop-color:#5CB531"/>
			</linearGradient>
			<path id="path6349" fill="url(#path6349_1_)" d="M138.3,16.2c-10,0-18.2,8.1-18.2,18.2v18.9h25.7c0.6,0,1.301,0,1.8,0.1
				c5.8,0.3,10.1,3.3,10.1,8.5c0,4.1-2.9,7.6-8.3,8.3v0.2c5.9,0.4,10.4,3.7,10.4,8.8c0,5.5-5,9.1-11.6,9.1H120v37h26.7
				c10,0,18.2-8.1,18.2-18.2V16.2H138.3L138.3,16.2z"/>
			
				<linearGradient id="path6360_1_" gradientUnits="userSpaceOnUse" x1="155.2688" y1="39.7334" x2="195.2178" y2="39.7334" gradientTransform="matrix(2.0492 0 0 -2.0492 -198.0973 144.5229)">
				<stop  offset="0" style="stop-color:#007940"/>
				<stop  offset="0.2285" style="stop-color:#00873F"/>
				<stop  offset="0.7433" style="stop-color:#40A737"/>
				<stop  offset="1" style="stop-color:#5CB531"/>
			</linearGradient>
			<path id="path6360" fill="url(#path6360_1_)" d="M143.2,63.1c0-2.4-1.7-4-3.7-4.3c-0.201,0-0.7-0.1-1-0.1H129v8.8h9.5
				c0.3,0,0.9,0,1-0.1C141.5,67.1,143.2,65.5,143.2,63.1z"/>
		</g>
		
			<linearGradient id="path6371_1_" gradientUnits="userSpaceOnUse" x1="106.1757" y1="36.0245" x2="146.7379" y2="36.0245" gradientTransform="matrix(2.0492 0 0 -2.0492 -198.0973 144.5229)">
			<stop  offset="0" style="stop-color:#1F286F"/>
			<stop  offset="0.4751" style="stop-color:#004E94"/>
			<stop  offset="0.8261" style="stop-color:#0066B1"/>
			<stop  offset="1" style="stop-color:#006FBC"/>
		</linearGradient>
		<path id="path6371" fill="url(#path6371_1_)" d="M37.7,16.2c-10,0-18.2,8.1-18.2,18.2v44.9c5.1,2.5,10.4,4.1,15.7,4.1
			c6.3,0,9.7-3.8,9.7-9V53.2h15.6v21.1c0,8.2-5.1,14.9-22.4,14.9c-10.5,0-18.7-2.3-18.7-2.3v38.3h26.7c10,0,18.2-8.1,18.2-18.2V16.2
			H37.7L37.7,16.2z"/>
		
			<linearGradient id="path6384_1_" gradientUnits="userSpaceOnUse" x1="130.6054" y1="35.9757" x2="170.0017" y2="35.9757" gradientTransform="matrix(2.0492 0 0 -2.0492 -198.0973 144.5229)">
			<stop  offset="0" style="stop-color:#6C2C2F"/>
			<stop  offset="0.1735" style="stop-color:#882730"/>
			<stop  offset="0.5731" style="stop-color:#BE1833"/>
			<stop  offset="0.8585" style="stop-color:#DC0436"/>
			<stop  offset="1" style="stop-color:#E60039"/>
		</linearGradient>
		<path id="path6384" fill="url(#path6384_1_)" d="M88,16.2c-10,0-18.2,8.1-18.2,18.2v23.8c4.6-3.9,12.6-6.4,25.5-5.8
			c6.9,0.3,14.3,2.2,14.3,2.2v7.7c-3.7-1.9-8.1-3.6-13.8-4c-9.8-0.7-15.7,4.1-15.7,12.5c0,8.5,5.9,13.3,15.7,12.5
			c5.7-0.4,10.1-2.2,13.8-4V87c0,0-7.3,1.9-14.3,2.2c-12.9,0.6-20.9-1.9-25.5-5.8v42h26.7c10,0,18.2-8.1,18.2-18.2v-91H88L88,16.2z"
			/>
	</g>
	<g id="g6386">
	</g>
</g>
</svg>
