<?xml version="1.0" encoding="utf-8"?>
<!-- Generator: Adobe Illustrator 16.0.0, SVG Export Plug-In . SVG Version: 6.00 Build 0)  -->
<!DOCTYPE svg PUBLIC "-//W3C//DTD SVG 1.1 Tiny//EN" "http://www.w3.org/Graphics/SVG/1.1/DTD/svg11-tiny.dtd">
<svg version="1.1" baseProfile="tiny" id="芞脯_1"
	 xmlns="http://www.w3.org/2000/svg" xmlns:xlink="http://www.w3.org/1999/xlink" x="0px" y="0px" width="935.215px"
	 height="1328.907px" viewBox="0 0 935.215 1328.907" xml:space="preserve">
<g>
	<path fill="#414141" d="M593.731,1074.341H94.269V379.94h69.711c-1.011-11.736-1.558-23.601-1.558-35.59
		c0-47.785,8.22-93.708,23.292-136.493c-77.182,13.813-133.138,31.962-133.138,31.962C23.838,248.377,0,263.346,0,292.391v129.23
		v678.225v129.221c0,29.013,32.734,44.01,52.576,52.596c0,0,145.811,47.245,291.379,47.245c145.571,0,291.437-47.245,291.437-47.245
		c28.683-8.571,52.537-23.583,52.537-52.596v-129.221V748.754c-30.251,7.488-61.781,11.753-94.198,12.395V1074.341z
		 M192.069,1220.71c-14.819,0-26.822-12.001-26.822-26.811c0-14.816,12.002-26.832,26.822-26.832
		c14.795,0,26.818,12.016,26.818,26.832C218.887,1208.709,206.865,1220.71,192.069,1220.71z M344.003,1254.647
		c-30.484,0-55.172-24.682-55.172-55.135c0-30.474,24.688-55.178,55.172-55.178c30.424,0,55.15,24.704,55.15,55.178
		C399.153,1229.965,374.427,1254.647,344.003,1254.647z M495.913,1220.71c-14.794,0-26.816-12.001-26.816-26.811
		c0-14.816,12.022-26.832,26.816-26.832c14.822,0,26.825,12.016,26.825,26.832C522.738,1208.709,510.735,1220.71,495.913,1220.71z"
		/>
	<path fill="#414141" d="M585.099,0C392.534,0,234.982,154.957,234.982,344.35c0,124.088,67.637,233.391,168.439,294.018
		c27.608,59.947-46.768,133.251-56.249,147.884c-5.415,8.41,6.003,7.612,6.003,7.612c88.794-4.642,159.856-58.742,206.275-106.097
		c8.472,0.609,17.023,0.934,25.647,0.934c192.561,0,350.116-154.957,350.116-344.351C935.215,154.957,777.659,0,585.099,0z
		 M710.579,469.759c-7.914,16.164-18.302,29.18-30.868,38.681c-11.268,8.511-26.899,15.2-46.538,19.926v45.539h-61.068v-43.488
		c-18.333-2.798-34.412-7.994-47.883-15.487c-20.331-11.265-39.495-26.468-56.951-45.187l-5.524-5.924l56.417-57.897l6.081,6.484
		c26.797,28.562,52.619,43.043,76.752,43.043c11.393,0,20.917-3.863,29.116-11.81c8.117-7.847,12.061-16.774,12.061-27.295
		c0-8.936-2.484-16.517-7.595-23.176c-5.469-6.94-16.886-14.48-33.869-22.322c-38.058-17.562-63.277-31.257-77.084-41.858
		c-14.091-10.832-24.785-23.228-31.792-36.848c-7.077-13.716-10.67-28.553-10.67-44.089c0-25.861,9.536-48.291,28.347-66.664
		c16.855-16.441,37.883-26.122,62.595-28.845v-37.744h61.068v42.042c13.135,3.58,24.645,8.202,34.287,13.774
		c11.265,6.484,24.088,17.065,39.189,32.338l6.023,6.089l-57.482,55.967l-5.928-6.113c-18.853-19.444-37.38-29.304-55.071-29.304
		c-9.862,0-17.528,2.443-23.432,7.468c-5.472,4.659-8.131,9.71-8.131,15.439c0,4.81,2.445,9.72,7.475,15.006
		c3.935,4.308,13.255,11.235,35.986,20.513c35.843,14.854,59.812,27.276,73.32,37.993c13.757,10.937,24.486,24.229,31.896,39.519
		c7.414,15.344,11.17,32.671,11.17,51.51C722.476,435.897,718.471,453.636,710.579,469.759z"/>
</g>
</svg>
