<?xml version="1.0" encoding="utf-8"?>
<!-- Generator: Adobe Illustrator 15.1.0, SVG Export Plug-In . SVG Version: 6.00 Build 0)  -->
<!DOCTYPE svg PUBLIC "-//W3C//DTD SVG 1.1//EN" "http://www.w3.org/Graphics/SVG/1.1/DTD/svg11.dtd">
<svg version="1.1" id="圖層_1" xmlns="http://www.w3.org/2000/svg" xmlns:xlink="http://www.w3.org/1999/xlink" x="0px" y="0px"
	 width="44px" height="36px" viewBox="0 0 44 36" enable-background="new 0 0 44 36" xml:space="preserve">
<path d="M43,8H9C8.447,8,8,7.553,8,7s0.447-1,1-1h34c0.553,0,1,0.447,1,1S43.553,8,43,8"/>
<path d="M43,0H9C8.447,0,8,0.447,8,1v12h2V2h32v20h-7v2h8c0.553,0,1-0.447,1-1V1C44,0.447,43.553,0,43,0"/>
<path d="M35,36H1c-0.553,0-1-0.447-1-1V13c0-0.553,0.447-1,1-1h34c0.553,0,1,0.447,1,1v22C36,35.553,35.553,36,35,36 M2,34h32V14H2
	V34z"/>
<path d="M8,30H4c-0.553,0-1-0.447-1-1s0.447-1,1-1h4c0.553,0,1,0.447,1,1S8.553,30,8,30"/>
<path d="M16,30h-4c-0.553,0-1-0.447-1-1s0.447-1,1-1h4c0.553,0,1,0.447,1,1S16.553,30,16,30"/>
<path d="M24,30h-4c-0.553,0-1-0.447-1-1s0.447-1,1-1h4c0.553,0,1,0.447,1,1S24.553,30,24,30"/>
<path d="M32,30h-4c-0.553,0-1-0.447-1-1s0.447-1,1-1h4c0.553,0,1,0.447,1,1S32.553,30,32,30"/>
<path d="M11,23H8c-1.654,0-3-1.346-3-3s1.346-3,3-3h3c1.654,0,3,1.346,3,3S12.654,23,11,23 M8,19c-0.551,0-1,0.448-1,1s0.449,1,1,1
	h3c0.553,0,1-0.448,1-1s-0.447-1-1-1H8z"/>
</svg>
