<?xml version="1.0" encoding="utf-8"?>
<!-- Generator: Adobe Illustrator 15.1.0, SVG Export Plug-In . SVG Version: 6.00 Build 0)  -->
<!DOCTYPE svg PUBLIC "-//W3C//DTD SVG 1.1//EN" "http://www.w3.org/Graphics/SVG/1.1/DTD/svg11.dtd">
<svg version="1.1" id="圖層_1" xmlns="http://www.w3.org/2000/svg" xmlns:xlink="http://www.w3.org/1999/xlink" x="0px" y="0px"
	 width="291.649px" height="112.654px" viewBox="0 0 291.649 112.654" enable-background="new 0 0 291.649 112.654"
	 xml:space="preserve">
<path fill-rule="evenodd" clip-rule="evenodd" d="M26.829,104.813v0.713c0,3.921,3.04,7.129,6.755,7.129h204.329
	c3.716,0,6.757-3.208,6.757-7.129v-0.713H26.829z"/>
<path fill-rule="evenodd" clip-rule="evenodd" d="M270.735,0H20.916C9.413,0,0,10.128,0,22.508v53.368
	c0,12.38,9.413,22.508,20.916,22.508h249.82c11.502,0,20.913-10.128,20.913-22.508V22.508C291.648,10.128,282.237,0,270.735,0
	 M284.144,75.875c0,8.271-6.016,15.002-13.408,15.002H20.916c-7.394,0-13.41-6.73-13.41-15.002V22.508
	c0-8.273,6.016-15.002,13.41-15.002h249.82c7.393,0,13.408,6.729,13.408,15.002V75.875z"/>
<path fill-rule="evenodd" clip-rule="evenodd" d="M244.668,52.139c0-1.118-0.914-2.033-2.033-2.033h-2.372
	c-1.118,0-2.033,0.915-2.033,2.033v2.373c0,1.118,0.915,2.032,2.033,2.032h2.372c1.119,0,2.033-0.914,2.033-2.032V52.139z"/>
<path fill-rule="evenodd" clip-rule="evenodd" d="M258.198,52.139c0-1.118-0.915-2.033-2.033-2.033h-2.372
	c-1.118,0-2.034,0.915-2.034,2.033v2.373c0,1.118,0.916,2.032,2.034,2.032h2.372c1.118,0,2.033-0.914,2.033-2.032V52.139z"/>
<path fill-rule="evenodd" clip-rule="evenodd" d="M271.729,52.139c0-1.118-0.914-2.033-2.034-2.033h-2.372
	c-1.118,0-2.032,0.915-2.032,2.033v2.373c0,1.118,0.914,2.032,2.032,2.032h2.372c1.12,0,2.034-0.914,2.034-2.032V52.139z"/>
<path fill-rule="evenodd" clip-rule="evenodd" d="M271.729,69.373c0-1.862-1.525-3.388-3.389-3.388h-23.503
	c-1.862,0-3.388,1.525-3.388,3.388v4.112c0,1.864,1.525,3.389,3.388,3.389h23.503c1.863,0,3.389-1.524,3.389-3.389V69.373z"/>
<path fill-rule="evenodd" clip-rule="evenodd" d="M222.831,24.061c0,1.238-1.013,2.252-2.252,2.252H22.125
	c-1.238,0-2.252-1.014-2.252-2.252v-3.002c0-1.239,1.014-2.252,2.252-2.252h198.454c1.239,0,2.252,1.013,2.252,2.252V24.061z"/>
<path fill-rule="evenodd" clip-rule="evenodd" d="M222.831,43.146c0,1.238-1.013,2.252-2.252,2.252H22.125
	c-1.238,0-2.252-1.014-2.252-2.252v-3.003c0-1.238,1.014-2.251,2.252-2.251h198.454c1.239,0,2.252,1.013,2.252,2.251V43.146z"/>
<path fill-rule="evenodd" clip-rule="evenodd" d="M222.831,62.232c0,1.238-1.013,2.253-2.252,2.253H22.125
	c-1.238,0-2.252-1.015-2.252-2.253v-3.003c0-1.237,1.014-2.252,2.252-2.252h198.454c1.239,0,2.252,1.015,2.252,2.252V62.232z"/>
<path fill-rule="evenodd" clip-rule="evenodd" d="M262.242,22.604l-7.263,7.316l1.754-10.151c-0.572-0.098-1.155-0.16-1.755-0.16
	c-5.694,0-10.311,4.617-10.311,10.31c0,5.695,4.616,10.312,10.311,10.312c5.695,0,10.311-4.617,10.311-10.312
	C265.289,27.06,264.123,24.472,262.242,22.604"/>
</svg>
