<?xml version="1.0" encoding="utf-8"?>
<!-- Generator: Adobe Illustrator 15.1.0, SVG Export Plug-In . SVG Version: 6.00 Build 0)  -->
<!DOCTYPE svg PUBLIC "-//W3C//DTD SVG 1.1//EN" "http://www.w3.org/Graphics/SVG/1.1/DTD/svg11.dtd">
<svg version="1.1" id="圖層_1" xmlns="http://www.w3.org/2000/svg" xmlns:xlink="http://www.w3.org/1999/xlink" x="0px" y="0px"
	 width="43.489px" height="41.844px" viewBox="0 0 43.489 41.844" enable-background="new 0 0 43.489 41.844" xml:space="preserve">
<path d="M42.469,28.049h-8.49v4.006c0,1.404-1.15,2.551-2.553,2.551H12.062c-1.404,0-2.552-1.146-2.552-2.551v-4.006H1.023
	C0.46,28.049,0,28.508,0,29.07v4.043v1.844v4.334c0,1.404,1.15,2.553,2.552,2.553h38.384c1.402,0,2.553-1.148,2.553-2.553v-4.334
	v-1.844V29.07C43.489,28.508,43.028,28.049,42.469,28.049"/>
<path d="M22.191,25.705l9.165-11.91c0.257-0.334,0.123-0.606-0.295-0.606h-4.634C25.087,5.701,18.067,0,10.206,0
	C7.404,0,4.774,0.728,2.482,1.994c0.06,0,0.116-0.008,0.176-0.008c9.408,0,13.679,4.936,13.919,11.203h-4.192
	c-0.418,0-0.551,0.272-0.298,0.606l9.168,11.91C21.512,26.037,21.934,26.037,22.191,25.705"/>
</svg>
