<?xml version="1.0" encoding="utf-8"?>
<!-- Generator: Adobe Illustrator 15.1.0, SVG Export Plug-In . SVG Version: 6.00 Build 0)  -->
<!DOCTYPE svg PUBLIC "-//W3C//DTD SVG 1.1//EN" "http://www.w3.org/Graphics/SVG/1.1/DTD/svg11.dtd">
<svg version="1.1" id="圖層_1" xmlns="http://www.w3.org/2000/svg" xmlns:xlink="http://www.w3.org/1999/xlink" x="0px" y="0px"
	 width="389.272px" height="413.118px" viewBox="0 0 389.272 413.118" enable-background="new 0 0 389.272 413.118"
	 xml:space="preserve">
<path d="M332.547,302.6H120.838c-18.868,0-34.164-15.296-34.164-34.164V118.87l-75.818,20.315
	c-7.811,2.094-12.447,10.122-10.353,17.933L66.19,402.263c1.753,6.541,7.668,10.855,14.133,10.855c1.254,0,2.53-0.162,3.799-0.503
	l245.146-65.687c3.75-1.005,6.948-3.459,8.891-6.821c1.941-3.363,2.468-7.361,1.462-11.112L332.547,302.6z"/>
<path d="M374.631,0H120.838c-8.087,0-14.642,6.556-14.642,14.642v253.793c0,8.087,6.555,14.642,14.642,14.642h253.793
	c8.087,0,14.642-6.555,14.642-14.642V14.642C389.272,6.556,382.718,0,374.631,0 M359.989,253.794h-224.51V29.285h224.51V253.794z"/>
<path d="M334.153,220.109c0-19.424-21.115-29.401-35.016-34.698c-14.441-5.504-27.296-10.291-28.762-15.783
	c-1.379-5.168,2.175-8.272,7.209-15.301c8.145-10.989,13.221-25.923,13.221-40.996c0-29.399-19.283-48.145-43.07-48.145
	c-23.789,0-43.072,18.746-43.072,48.145c0,15.073,5.078,30.007,13.223,40.996c5.031,7.029,8.586,10.133,7.206,15.301
	c-1.464,5.492-14.319,10.279-28.761,15.783c-13.899,5.297-35.016,15.274-35.016,34.698v8.566h172.838V220.109z"/>
</svg>
