<?xml version="1.0" encoding="utf-8"?>
<!-- Generator: Adobe Illustrator 15.1.0, SVG Export Plug-In . SVG Version: 6.00 Build 0)  -->
<!DOCTYPE svg PUBLIC "-//W3C//DTD SVG 1.1//EN" "http://www.w3.org/Graphics/SVG/1.1/DTD/svg11.dtd">
<svg version="1.1" id="圖層_1" xmlns="http://www.w3.org/2000/svg" xmlns:xlink="http://www.w3.org/1999/xlink" x="0px" y="0px"
	 width="22px" height="24px" viewBox="0 0 22 24" enable-background="new 0 0 22 24" xml:space="preserve">
<g id="圖層_1_1_">
</g>
<g id="圖層_2">
	<g>
		<path fill="#FFFFFF" d="M3.5,5h5C8.776,5,9,4.776,9,4.5S8.776,4,8.5,4h-5C3.224,4,3,4.224,3,4.5S3.224,5,3.5,5"/>
		<path fill="#FFFFFF" d="M3.5,8h10C13.775,8,14,7.776,14,7.5S13.775,7,13.5,7h-10C3.224,7,3,7.224,3,7.5S3.224,8,3.5,8"/>
		<path fill="#FFFFFF" d="M3.5,11h9c0.275,0,0.5-0.224,0.5-0.5S12.775,10,12.5,10h-9C3.224,10,3,10.224,3,10.5S3.224,11,3.5,11"/>
		<path fill="#FFFFFF" d="M3.5,14h6c0.276,0,0.5-0.225,0.5-0.5S9.776,13,9.5,13h-6C3.224,13,3,13.225,3,13.5S3.224,14,3.5,14"/>
		<path fill="#FFFFFF" d="M6.5,16h-3C3.224,16,3,16.225,3,16.5S3.224,17,3.5,17h3C6.776,17,7,16.775,7,16.5S6.776,16,6.5,16"/>
		<path fill="#FFFFFF" d="M6.5,19h-3C3.224,19,3,19.225,3,19.5S3.224,20,3.5,20h3C6.776,20,7,19.775,7,19.5S6.776,19,6.5,19"/>
		<path fill="#FFFFFF" d="M21.854,8.147L20,6.293V3.5c0-0.067-0.014-0.132-0.037-0.192c-0.025-0.061-0.063-0.116-0.107-0.162
			l-3-2.999c-0.045-0.046-0.101-0.083-0.162-0.108C16.633,0.014,16.566,0,16.499,0h-16C0.224,0,0,0.224,0,0.5v23
			C0,23.775,0.224,24,0.5,24h19c0.277,0,0.5-0.225,0.5-0.5V10.707l1.854-1.853C22.049,8.658,22.049,8.342,21.854,8.147z
			 M16.999,1.707L18.293,3h-1.294V1.707z M18.999,23H1V1h15v2.5C16,3.776,16.225,4,16.5,4H19v2.293l-9.853,9.854
			c-0.053,0.054-0.089,0.115-0.113,0.183c-0.002,0.005-0.007,0.008-0.008,0.013l-1,3c-0.06,0.182-0.013,0.379,0.121,0.512
			C8.242,19.949,8.369,20,8.5,20c0.053,0,0.106-0.009,0.158-0.025l3-1c0.005-0.002,0.008-0.006,0.013-0.008
			c0.065-0.023,0.13-0.06,0.183-0.113L19,11.708L18.999,23L18.999,23z M9.719,17.426l0.855,0.855l-1.283,0.428L9.719,17.426z
			 M11.499,17.793l-1.292-1.292l9.292-9.294L20.793,8.5L11.499,17.793z"/>
	</g>
</g>
</svg>
