<?xml version="1.0" encoding="utf-8"?>
<!-- Generator: Adobe Illustrator 15.1.0, SVG Export Plug-In . SVG Version: 6.00 Build 0)  -->
<!DOCTYPE svg PUBLIC "-//W3C//DTD SVG 1.1//EN" "http://www.w3.org/Graphics/SVG/1.1/DTD/svg11.dtd">
<svg version="1.1" id="圖層_1" xmlns="http://www.w3.org/2000/svg" xmlns:xlink="http://www.w3.org/1999/xlink" x="0px" y="0px"
	 width="35.098px" height="37.606px" viewBox="0 0 35.098 37.606" enable-background="new 0 0 35.098 37.606" xml:space="preserve">
<path d="M16.562,19.571H8.648v-9.23h7.914V19.571z M9.647,18.571h5.914v-7.23H9.647V18.571z"/>
<path d="M26.45,19.571h-7.914v-9.23h7.914V19.571z M19.536,18.571h5.914v-7.23h-5.914V18.571z"/>
<path d="M16.562,11.34H7.639V6.485h8.923V11.34z M8.639,10.34h6.923V7.485H8.639V10.34z"/>
<path d="M27.459,11.34h-8.923V6.485h8.923V11.34z M19.536,10.34h6.923V7.485h-6.923V10.34z"/>
<path d="M17.592,7.485c-0.172,0-0.332-0.089-0.424-0.235L16.78,6.641c-0.855-1.335-1.824-2.847-1.824-4.005
	C14.956,1.183,16.139,0,17.592,0c1.454,0,2.637,1.183,2.637,2.636c0,0.712-0.476,1.539-1.196,2.791
	c-0.302,0.524-0.644,1.118-0.998,1.791c-0.084,0.158-0.245,0.26-0.424,0.266C17.604,7.485,17.598,7.485,17.592,7.485 M17.592,1
	c-0.902,0-1.636,0.734-1.636,1.636c0,0.84,0.871,2.224,1.601,3.364c0.215-0.386,0.42-0.742,0.608-1.071
	c0.595-1.033,1.063-1.848,1.063-2.293C19.229,1.734,18.494,1,17.592,1"/>
<path d="M21.442,7.485h-3.851c-0.18,0-0.346-0.096-0.435-0.252c-0.089-0.156-0.087-0.348,0.004-0.502
	c0.016-0.026,1.514-2.562,1.846-3.285c0.317-0.69,1.156-1.182,2.139-1.255c1.026-0.081,1.932,0.328,2.427,1.084
	c0.454,0.689,0.639,1.969,0.091,2.983C23.236,7.049,22.447,7.485,21.442,7.485 M18.464,6.485h2.979c0.638,0,1.09-0.236,1.341-0.702
	c0.335-0.62,0.246-1.514-0.047-1.96c-0.293-0.447-0.864-0.677-1.517-0.635c-0.596,0.044-1.145,0.329-1.305,0.676
	C19.68,4.376,18.946,5.655,18.464,6.485"/>
<path d="M17.592,7.485h-3.849c-1.006,0-1.795-0.436-2.221-1.227c-0.548-1.014-0.363-2.294,0.089-2.984
	C12.107,2.518,13.01,2.11,14.04,2.19c0.982,0.074,1.82,0.567,2.138,1.256c0.332,0.722,1.829,3.259,1.845,3.284
	c0.091,0.155,0.093,0.347,0.004,0.503C17.938,7.389,17.771,7.485,17.592,7.485 M13.796,3.181c-0.584,0-1.081,0.233-1.349,0.642
	c-0.293,0.446-0.38,1.34-0.046,1.96c0.251,0.465,0.704,0.702,1.342,0.702h2.977c-0.483-0.829-1.215-2.109-1.45-2.621
	c-0.161-0.348-0.708-0.632-1.305-0.677C13.908,3.183,13.852,3.181,13.796,3.181"/>
<rect x="15.562" y="6.985" width="1" height="30.121"/>
<rect x="18.512" y="6.985" width="1" height="30.121"/>
<path d="M16.562,29.331H0v-3.833h16.562V29.331z M1,28.331h14.562v-1.833H1V28.331z"/>
<path d="M35.098,29.331H18.536v-3.833h16.562V29.331z M19.536,28.331h14.562v-1.833H19.536V28.331z"/>
<path d="M16.562,37.606H0.894v-9.275h15.668V37.606z M1.894,36.606h13.668v-7.275H1.894V36.606z"/>
<path d="M34.204,37.606H18.536v-9.275h15.668V37.606z M19.536,36.606h13.668v-7.275H19.536V36.606z"/>
<path d="M16.562,26.498H4.223v-7.927h12.339V26.498z M5.223,25.498h10.339v-5.927H5.223V25.498z"/>
<path d="M30.874,26.498H18.536v-7.927h12.338V26.498z M19.536,25.498h10.338v-5.927H19.536V25.498z"/>
<rect x="16.062" y="36.606" width="2.95" height="1"/>
<rect x="3.98" y="31.346" transform="matrix(0.7076 0.7066 -0.7066 0.7076 23.7826 6.1339)" width="0.999" height="0.915"/>
<rect x="6.104" y="31.346" transform="matrix(0.7076 0.7066 -0.7066 0.7076 24.4037 4.6331)" width="0.999" height="0.915"/>
<rect x="8.228" y="31.346" transform="matrix(0.7076 0.7066 -0.7066 0.7076 25.0248 3.1322)" width="0.999" height="0.915"/>
<rect x="10.352" y="31.346" transform="matrix(0.7076 0.7066 -0.7066 0.7076 25.6457 1.6317)" width="0.999" height="0.915"/>
<rect x="12.475" y="31.346" transform="matrix(0.7076 0.7066 -0.7066 0.7076 26.2666 0.1311)" width="0.999" height="0.915"/>
<rect x="3.98" y="33.804" transform="matrix(0.7071 0.7071 -0.7071 0.7071 25.5388 6.8674)" width="1" height="0.915"/>
<rect x="6.104" y="33.804" transform="matrix(0.7071 0.7071 -0.7071 0.7071 26.1609 5.3655)" width="1" height="0.915"/>
<rect x="8.228" y="33.804" transform="matrix(0.7071 0.7071 -0.7071 0.7071 26.783 3.8636)" width="1" height="0.915"/>
<rect x="10.351" y="33.804" transform="matrix(0.7071 0.7071 -0.7071 0.7071 27.405 2.362)" width="1" height="0.915"/>
<rect x="12.475" y="33.804" transform="matrix(0.7071 0.7071 -0.7071 0.7071 28.0269 0.8604)" width="1" height="0.915"/>
<rect x="21.623" y="31.345" transform="matrix(0.7076 0.7066 -0.7066 0.7076 28.9415 -6.3328)" width="0.999" height="0.916"/>
<rect x="23.746" y="31.346" transform="matrix(0.7076 0.7066 -0.7066 0.7076 29.5624 -7.8333)" width="0.999" height="0.915"/>
<rect x="25.87" y="31.345" transform="matrix(0.7076 0.7066 -0.7066 0.7076 30.1833 -9.3338)" width="0.999" height="0.916"/>
<rect x="27.994" y="31.345" transform="matrix(0.7076 0.7066 -0.7066 0.7076 30.8044 -10.8347)" width="0.999" height="0.916"/>
<rect x="30.117" y="31.346" transform="matrix(0.7076 0.7066 -0.7066 0.7076 31.4252 -12.3349)" width="0.999" height="0.914"/>
<rect x="21.623" y="33.804" transform="matrix(0.7071 0.7071 -0.7071 0.7071 30.7062 -5.608)" width="1" height="0.916"/>
<rect x="23.746" y="33.804" transform="matrix(0.7071 0.7071 -0.7071 0.7071 31.3282 -7.1096)" width="1" height="0.915"/>
<rect x="25.87" y="33.804" transform="matrix(0.7071 0.7071 -0.7071 0.7071 31.9502 -8.6111)" width="1" height="0.916"/>
<rect x="27.994" y="33.804" transform="matrix(0.7071 0.7071 -0.7071 0.7071 32.5723 -10.113)" width="1" height="0.916"/>
<rect x="30.117" y="33.805" transform="matrix(0.7071 0.7071 -0.7071 0.7071 33.1941 -11.6143)" width="1" height="0.914"/>
</svg>
