<?xml version="1.0" encoding="utf-8"?>
<!-- Generator: Adobe Illustrator 15.1.0, SVG Export Plug-In . SVG Version: 6.00 Build 0)  -->
<!DOCTYPE svg PUBLIC "-//W3C//DTD SVG 1.1//EN" "http://www.w3.org/Graphics/SVG/1.1/DTD/svg11.dtd">
<svg version="1.1" xmlns="http://www.w3.org/2000/svg" xmlns:xlink="http://www.w3.org/1999/xlink" x="0px" y="0px" width="30px"
	 height="28.035px" viewBox="0 -1.92 30 28.035" enable-background="new 0 -1.92 30 28.035" xml:space="preserve">
<g id="圖層_1">
</g>
<g id="圖層_2">
	<g>
		<rect x="6.724" y="-0.988" width="1.241" height="12.931"/>
		<polygon points="9.207,1.804 7.345,-0.058 5.483,1.804 4.551,0.873 7.345,-1.92 10.138,0.873 		"/>
		<polygon points="2.793,8.218 0,5.425 2.793,2.736 3.724,3.562 1.862,5.425 3.724,7.287 		"/>
		<polygon points="7.345,12.873 4.551,10.08 5.483,9.149 7.345,11.011 9.207,9.149 10.138,10.08 		"/>
		<polygon points="12,8.218 11.069,7.287 12.931,5.425 11.069,3.562 12,2.736 14.688,5.425 		"/>
		<rect x="0.931" y="4.804" width="12.932" height="1.242"/>
		<path d="M22.967,26.115c-1.863,0-3.621-0.725-4.967-2.068l-6.621-6.621c-0.519-0.518-0.726-1.138-0.726-1.758
			c0-1.347,1.14-2.482,2.484-2.482c0.619,0,1.24,0.205,1.758,0.724l1.552,1.552V3.976c0-1.24,0.932-2.274,2.07-2.378
			c0.621-0.104,1.24,0.104,1.758,0.621C20.791,2.632,21,3.253,21,3.874v7.552l6.932,1.139C29.172,12.771,30,13.909,30,15.15v4.035
			C30,22.908,26.793,26.115,22.967,26.115z M13.034,14.528c-0.621,0-1.139,0.519-1.139,1.14c0,0.311,0.104,0.62,0.312,0.826
			l6.623,6.622c1.033,1.033,2.482,1.653,4.033,1.653c3.207,0,5.793-2.586,5.793-5.793v-4.034c0-0.621-0.414-1.138-1.035-1.242
			l-7.965-1.24V3.874c0-0.312-0.104-0.517-0.311-0.725c-0.205-0.207-0.518-0.312-0.725-0.207c-0.518,0-0.828,0.517-0.828,1.034
			v14.688l-3.827-3.827C13.655,14.63,13.345,14.528,13.034,14.528z"/>
		<path fill="#FFFFFF" d="M19.346,3.288c-0.205-0.207-0.518-0.312-0.725-0.207c-0.518,0-0.828,0.517-0.828,1.034v14.688
			l-3.827-3.827c-0.311-0.207-0.621-0.31-0.932-0.31c-0.621,0-1.139,0.519-1.139,1.14c0,0.311,0.104,0.62,0.312,0.826l6.623,6.622
			c1.033,1.033,2.482,1.653,4.033,1.653c3.207,0,5.793-2.586,5.793-5.793v-4.034c0-0.621-0.414-1.138-1.035-1.242l-7.965-1.24V4.012
			C19.656,3.701,19.553,3.496,19.346,3.288z"/>
	</g>
</g>
</svg>
