<?xml version="1.0" encoding="utf-8"?>
<!-- Generator: Adobe Illustrator 15.1.0, SVG Export Plug-In . SVG Version: 6.00 Build 0)  -->
<!DOCTYPE svg PUBLIC "-//W3C//DTD SVG 1.1//EN" "http://www.w3.org/Graphics/SVG/1.1/DTD/svg11.dtd">
<svg version="1.1" id="圖層_1" xmlns="http://www.w3.org/2000/svg" xmlns:xlink="http://www.w3.org/1999/xlink" x="0px" y="0px"
	 width="39.982px" height="33.829px" viewBox="0 0 39.982 33.829" enable-background="new 0 0 39.982 33.829" xml:space="preserve">
<path d="M26.036,19.465c-2.021,0-3.663-1.643-3.663-3.663h1c0,1.468,1.195,2.663,2.663,2.663s2.663-1.194,2.663-2.663h1
	C29.699,17.823,28.056,19.465,26.036,19.465"/>
<path d="M19.711,19.465c-2.021,0-3.664-1.643-3.664-3.663h1c0,1.468,1.195,2.663,2.664,2.663c1.468,0,2.662-1.194,2.662-2.663h1
	C23.373,17.823,21.73,19.465,19.711,19.465"/>
<path d="M13.384,19.465c-2.02,0-3.663-1.643-3.663-3.663h1c0,1.468,1.195,2.663,2.663,2.663c1.468,0,2.663-1.194,2.663-2.663h1
	C17.047,17.823,15.404,19.465,13.384,19.465"/>
<path d="M32.362,19.465c-2.02,0-3.663-1.643-3.663-3.663h1c0,1.468,1.195,2.663,2.663,2.663s2.663-1.194,2.663-2.663v-4.124H4.396
	v4.124c0,1.468,1.195,2.663,2.663,2.663c1.468,0,2.663-1.194,2.663-2.663h1c0,2.02-1.643,3.663-3.663,3.663
	s-3.663-1.643-3.663-3.663v-4.624c0-0.276,0.223-0.5,0.5-0.5h31.63c0.276,0,0.5,0.224,0.5,0.5v4.624
	C36.025,17.823,34.382,19.465,32.362,19.465"/>
<rect x="9.721" y="14.929" width="1" height="1.101"/>
<rect x="16.047" y="14.929" width="1" height="1.101"/>
<rect x="22.373" y="14.929" width="1" height="1.101"/>
<rect x="28.699" y="14.929" width="1" height="1.101"/>
<path d="M35.525,11.679H3.896c-0.196,0-0.373-0.114-0.455-0.292C3.359,11.208,3.388,11,3.516,10.852l6.112-7.08
	c0.095-0.11,0.233-0.173,0.379-0.173h19.407c0.146,0,0.283,0.063,0.378,0.173l6.112,7.08c0.127,0.148,0.157,0.357,0.076,0.535
	C35.898,11.565,35.722,11.679,35.525,11.679 M4.987,10.679h29.446l-5.248-6.08H10.236L4.987,10.679z"/>
<path d="M29.699,4.599H9.507V0h20.192V4.599z M10.507,3.599h18.192V1H10.507V3.599z"/>
<rect x="2.542" y="32.829" width="32.459" height="1"/>
<rect x="36.338" y="32.829" width="1.262" height="1"/>
<rect x="38.72" y="32.829" width="1.263" height="1"/>
<rect y="32.829" width="1.262" height="1"/>
<path d="M32.719,33.829h-4.204V22.105l-6.312-0.067v11.791H6.705L6.691,18.966c-0.001-0.276,0.223-0.5,0.499-0.501h0.001
	c0.276,0,0.499,0.225,0.5,0.5l0.013,13.863h13.499V21.028l8.312,0.088v11.713h2.205l0.01-13.863c0-0.275,0.224-0.5,0.5-0.5h0.001
	c0.275,0,0.499,0.225,0.499,0.501L32.719,33.829z"/>
<rect x="9.119" y="30.186" transform="matrix(0.7073 0.707 -0.707 0.7073 24.5917 1.9849)" width="1.561" height="1.001"/>
<rect x="8.749" y="30.332" transform="matrix(0.7071 0.7071 -0.7071 0.7071 24.743 1.9282)" width="2.591" height="1"/>
<rect x="9.152" y="28.87" transform="matrix(0.7071 0.7071 -0.7071 0.7071 24.1375 0.4671)" width="4.705" height="1"/>
<rect x="23.241" y="27.134" width="1.082" height="1"/>
</svg>
