<?xml version="1.0" encoding="utf-8"?>
<!-- Generator: Adobe Illustrator 15.1.0, SVG Export Plug-In . SVG Version: 6.00 Build 0)  -->
<!DOCTYPE svg PUBLIC "-//W3C//DTD SVG 1.1//EN" "http://www.w3.org/Graphics/SVG/1.1/DTD/svg11.dtd">
<svg version="1.1" id="圖層_1" xmlns="http://www.w3.org/2000/svg" xmlns:xlink="http://www.w3.org/1999/xlink" x="0px" y="0px"
	 width="49.482px" height="35.869px" viewBox="0 0 49.482 35.869" enable-background="new 0 0 49.482 35.869" xml:space="preserve">
<polygon points="41.081,25.806 43.2,26.724 31.442,32.274 29.438,31.328 27.074,35.869 36.578,34.636 34.54,33.722 46.298,28.171 
	48.223,29.113 49.482,25.129 "/>
<polygon points="1.26,29.113 3.185,28.172 14.943,33.722 12.904,34.635 22.408,35.869 20.047,31.329 18.041,32.274 6.283,26.723 
	8.402,25.805 0,25.13 "/>
<path d="M44.861,9.057L25.268,0.114c-0.335-0.153-0.717-0.153-1.051,0L4.622,9.057c-0.451,0.207-0.74,0.685-0.74,1.181v10.48
	c0,0.496,0.289,0.946,0.74,1.152l19.595,8.943c0.167,0.076,0.345,0.114,0.524,0.114c0.181,0,0.359-0.038,0.526-0.114l19.594-8.943
	c0.451-0.206,0.74-0.685,0.74-1.181V10.21C45.602,9.714,45.313,9.264,44.861,9.057 M5.822,10.645l18.244-8.327v8.995L5.822,19.639
	V10.645z M24.741,28.269l-17.286-7.89l17.286-7.89l17.286,7.89L24.741,28.269z M43.66,19.639l-18.243-8.327V2.317l18.243,8.327
	V19.639z"/>
</svg>
