<?xml version="1.0" encoding="utf-8"?>
<!-- Generator: Adobe Illustrator 15.1.0, SVG Export Plug-In . SVG Version: 6.00 Build 0)  -->
<!DOCTYPE svg PUBLIC "-//W3C//DTD SVG 1.1//EN" "http://www.w3.org/Graphics/SVG/1.1/DTD/svg11.dtd">
<svg version="1.1" id="圖層_1" xmlns="http://www.w3.org/2000/svg" xmlns:xlink="http://www.w3.org/1999/xlink" x="0px" y="0px"
	 width="30.114px" height="30.426px" viewBox="0 0 30.114 30.426" enable-background="new 0 0 30.114 30.426" xml:space="preserve">
<path d="M28.607,0H1.506C0.676,0,0,0.676,0,1.506v21.08c0,0.83,0.676,1.505,1.506,1.505h3.011v6.335l6.334-6.335h17.756
	c0.83,0,1.507-0.675,1.507-1.505V1.506C30.114,0.676,29.438,0,28.607,0z M28.607,22.586H10.228l-4.205,4.205v-4.205H1.506V1.506
	h27.102V22.586z"/>
<rect x="7.527" y="11.293" width="3.012" height="1.506"/>
<rect x="13.55" y="11.293" width="3.012" height="1.506"/>
<rect x="19.573" y="11.293" width="3.011" height="1.506"/>
</svg>
