<?xml version="1.0" encoding="utf-8"?>
<!-- Generator: Adobe Illustrator 15.1.0, SVG Export Plug-In . SVG Version: 6.00 Build 0)  -->
<!DOCTYPE svg PUBLIC "-//W3C//DTD SVG 1.1//EN" "http://www.w3.org/Graphics/SVG/1.1/DTD/svg11.dtd">
<svg version="1.1" xmlns="http://www.w3.org/2000/svg" xmlns:xlink="http://www.w3.org/1999/xlink" x="0px" y="0px" width="30px"
	 height="34.389px" viewBox="0 0 30 34.389" enable-background="new 0 0 30 34.389" xml:space="preserve">
<g id="圖層_1">
</g>
<g id="圖層_2">
	<g>
		<path d="M22.008,34.387c-2.137,0-4.145-0.836-5.65-2.342l-7.528-7.528c-0.52-0.521-0.816-1.227-0.816-1.987
			c0-1.544,1.264-2.808,2.807-2.808c0.744,0,1.45,0.298,1.989,0.817l1.804,1.803V9.201c0-1.357,1.004-2.528,2.305-2.658
			c0.727-0.074,1.449,0.167,1.988,0.649s0.838,1.171,0.838,1.896v8.551l7.879,1.339C29.018,19.256,30,20.464,30,21.859v4.534
			C30,30.8,26.412,34.387,22.008,34.387z M10.818,21.191c-0.742,0-1.338,0.596-1.338,1.339c0,0.353,0.148,0.705,0.391,0.946
			l7.527,7.527c1.227,1.229,2.861,1.915,4.608,1.915c3.607,0,6.525-2.918,6.525-6.523V21.84c0-0.688-0.505-1.301-1.173-1.432
			l-9.09-1.524V9.09c0-0.315-0.129-0.614-0.354-0.817c-0.242-0.205-0.539-0.315-0.854-0.278c-0.559,0.056-0.985,0.576-0.985,1.188
			v16.693l-4.313-4.313C11.524,21.339,11.172,21.191,10.818,21.191z"/>
		<rect x="5.076" y="3.606" width="1.653" height="3.338"/>
		<g>
			<path d="M5.873,16.096C2.64,16.096,0,13.421,0,10.149V5.948C0,2.677,2.639,0,5.873,0c3.235,0,5.875,2.677,5.875,5.947v4.201
				C11.748,13.421,9.108,16.096,5.873,16.096z M5.873,1.393c-2.471,0-4.498,2.046-4.498,4.555v4.201
				c0,2.511,2.008,4.555,4.498,4.555c2.492,0,4.5-2.044,4.5-4.555V5.948C10.373,3.439,8.347,1.393,5.873,1.393z"/>
		</g>
		<path fill="#FFFFFF" d="M17.916,8.274c-0.242-0.205-0.539-0.315-0.854-0.278c-0.559,0.056-0.985,0.576-0.985,1.188v16.693
			l-4.313-4.313c-0.24-0.223-0.592-0.371-0.946-0.371c-0.742,0-1.338,0.596-1.338,1.339c0,0.353,0.148,0.705,0.391,0.946
			l7.527,7.527c1.227,1.229,2.861,1.915,4.608,1.915c3.607,0,6.525-2.918,6.525-6.523v-4.555c0-0.688-0.505-1.301-1.173-1.432
			l-9.09-1.524V9.091C18.27,8.776,18.141,8.477,17.916,8.274z"/>
		<path fill="#FFFFFF" d="M5.873,14.704c2.492,0,4.5-2.044,4.5-4.555V5.948c0-2.509-2.026-4.555-4.5-4.555
			c-2.471,0-4.498,2.046-4.498,4.555v4.201C1.375,12.66,3.383,14.704,5.873,14.704z M5.076,3.607h1.653v3.338H5.076V3.607z"/>
	</g>
</g>
</svg>
