<?xml version="1.0" encoding="utf-8"?>
<!-- Generator: Adobe Illustrator 15.1.0, SVG Export Plug-In . SVG Version: 6.00 Build 0)  -->
<!DOCTYPE svg PUBLIC "-//W3C//DTD SVG 1.1//EN" "http://www.w3.org/Graphics/SVG/1.1/DTD/svg11.dtd">
<svg version="1.1" id="圖層_1" xmlns="http://www.w3.org/2000/svg" xmlns:xlink="http://www.w3.org/1999/xlink" x="0px" y="0px"
	 width="43.817px" height="30.962px" viewBox="0 0 43.817 30.962" enable-background="new 0 0 43.817 30.962" xml:space="preserve">
<path d="M31.954,30.962H11.991c-2.387,0-4.331-1.942-4.331-4.33V4.331C7.66,2.495,6.166,1,4.33,1C2.494,1,1,2.495,1,4.331v1.552
	h4.972v1H0V4.331C0,1.942,1.943,0,4.33,0c2.388,0,4.33,1.942,4.33,4.33v22.302c0,1.836,1.494,3.33,3.331,3.33
	c1.836,0,3.33-1.494,3.33-3.33v-0.5h20.963v0.5C36.284,29.02,34.342,30.962,31.954,30.962 M14.756,29.962h17.198
	c1.666,0,3.051-1.23,3.293-2.83H16.293C16.162,28.266,15.591,29.268,14.756,29.962"/>
<path d="M31.773,9.763h-1V4.331c0-1.837-1.494-3.331-3.33-3.331H4.331V0h23.113c2.388,0,4.33,1.943,4.33,4.331V9.763z"/>
<rect x="30.773" y="21.423" width="1" height="5.209"/>
<polygon points="15.268,11.013 13.53,9.275 14.237,8.568 15.268,9.599 17.181,7.686 17.888,8.393 "/>
<rect x="18.897" y="9.262" width="7.892" height="1"/>
<polygon points="15.268,15.217 13.53,13.479 14.237,12.772 15.268,13.803 17.181,11.89 17.888,12.597 "/>
<rect x="18.897" y="13.467" width="7.892" height="1"/>
<polygon points="15.268,19.421 13.53,17.683 14.237,16.976 15.268,18.007 17.181,16.094 17.888,16.801 "/>
<rect x="18.898" y="17.671" width="6.438" height="1"/>
<path d="M33.813,15.441c-0.099,0-0.197-0.029-0.285-0.089l-2.586-1.79c-0.109-0.076-0.185-0.191-0.208-0.322
	c-0.023-0.131,0.006-0.266,0.082-0.375l8.806-12.651c0.156-0.227,0.473-0.28,0.694-0.126l2.586,1.791
	c0.109,0.075,0.185,0.191,0.208,0.322c0.023,0.131-0.006,0.265-0.083,0.374l-8.804,12.652C34.126,15.366,33.97,15.441,33.813,15.441
	 M31.923,13.025l1.764,1.221l8.234-11.83l-1.765-1.222L31.923,13.025z"/>
<path d="M29.709,21.371c-0.101,0-0.201-0.031-0.285-0.09l-2.585-1.79c-0.228-0.157-0.284-0.469-0.127-0.695l4.104-5.931
	c0.075-0.109,0.19-0.183,0.321-0.207c0.129-0.025,0.265,0.005,0.374,0.081l2.586,1.79c0.228,0.157,0.283,0.468,0.127,0.696
	l-4.104,5.93c-0.075,0.109-0.191,0.185-0.322,0.207C29.769,21.368,29.739,21.371,29.709,21.371 M27.818,18.954l1.764,1.221
	l3.536-5.109l-1.764-1.22L27.818,18.954z"/>
<polygon points="39.397,11.619 38.575,11.05 42.427,5.486 38.475,2.75 39.043,1.928 43.817,5.233 "/>
<path d="M26.655,23.02c-0.101,0-0.2-0.029-0.285-0.089c-0.155-0.106-0.236-0.292-0.211-0.479l0.469-3.44
	c0.023-0.173,0.135-0.32,0.294-0.391s0.343-0.052,0.485,0.047l2.586,1.79c0.144,0.099,0.225,0.265,0.215,0.438
	s-0.108,0.33-0.261,0.413l-3.056,1.649C26.817,23,26.735,23.02,26.655,23.02 M27.509,19.955l-0.227,1.658l1.473-0.796L27.509,19.955
	z"/>
<path d="M26.053,23.888c-0.099,0-0.198-0.029-0.285-0.089c-0.227-0.157-0.283-0.469-0.126-0.696l0.602-0.868
	c0.158-0.227,0.47-0.283,0.696-0.126s0.283,0.469,0.126,0.696l-0.602,0.868C26.365,23.813,26.211,23.888,26.053,23.888"/>
</svg>
