<?xml version="1.0" encoding="utf-8"?>
<!-- Generator: Adobe Illustrator 15.1.0, SVG Export Plug-In . SVG Version: 6.00 Build 0)  -->
<!DOCTYPE svg PUBLIC "-//W3C//DTD SVG 1.1//EN" "http://www.w3.org/Graphics/SVG/1.1/DTD/svg11.dtd">
<svg version="1.1" id="圖層_1" xmlns="http://www.w3.org/2000/svg" xmlns:xlink="http://www.w3.org/1999/xlink" x="0px" y="0px"
	 width="274.717px" height="380.377px" viewBox="0 0 274.717 380.377" enable-background="new 0 0 274.717 380.377"
	 xml:space="preserve">
<path fill="#040000" d="M256.227-0.001H39.623c-10.196,0-18.491,8.297-18.491,18.491v26.415c0,10.195,8.295,18.491,18.491,18.491
	h23.773v68.757L19.85,175.698c-5.988,5.991-9.284,13.949-9.284,22.415v118.868H5.283c-2.918,0-5.283,2.364-5.283,5.282v52.83
	c0,2.917,2.365,5.283,5.283,5.283H158.49c2.918,0,5.284-2.366,5.284-5.283v-52.83c0-2.918-2.366-5.282-5.284-5.282h-5.292v-25.244
	c14.896-9.713,24.53-25.814,26.153-43.437h34.61c10.196,0,18.491-8.295,18.491-18.489V63.396h23.773
	c10.195,0,18.49-8.296,18.49-18.491V18.49C274.717,8.296,266.422-0.001,256.227-0.001 M89.811,36.981v47.547
	c0,2.918,2.366,5.283,5.283,5.283c2.918,0,5.283-2.365,5.283-5.283V36.981h68.679v200.755h-53.087
	c-0.59-6.464-2.241-12.804-4.906-18.692l32.862-32.857c12.356-12.359,12.356-32.469-0.001-44.828
	c-5.983-5.985-13.945-9.282-22.414-9.282c-8.468,0-16.429,3.297-22.414,9.282l-25.133,25.133V36.981H89.811z M195.472,237.736
	h-15.849V36.981h15.849V237.736z M153.207,369.812H10.566v-42.265h142.641V369.812z M145.271,284.212
	c-1.634,0.944-2.64,2.688-2.64,4.574v28.195h-121.5V198.113c0-5.646,2.199-10.951,6.19-14.944l36.074-36.075v29.964l-24.867,24.868
	c-2.064,2.063-2.064,5.406,0,7.471c2.061,2.063,5.409,2.063,7.47,0l26.412-26.413c0.002-0.002,0.005-0.005,0.007-0.007
	l34.148-34.148c3.989-3.987,9.296-6.185,14.943-6.185s10.955,2.198,14.943,6.185c8.238,8.24,8.238,21.648,0.001,29.888
	l-35.54,35.534c-1.652,1.648-2.023,4.187-0.915,6.242c3.704,6.872,5.662,14.66,5.662,22.524c0,8.364-2.2,16.586-6.361,23.777
	c-1.461,2.525-0.599,5.757,1.927,7.22c0.832,0.48,1.742,0.709,2.64,0.709c1.824,0,3.598-0.943,4.577-2.636
	c4.211-7.275,6.75-15.412,7.514-23.787h52.779C167.058,263.174,158.402,276.619,145.271,284.212 M221.887,229.812
	c0,4.369-3.555,7.925-7.925,7.925h-7.924V36.981h15.849V229.812z M264.151,44.905c0,4.37-3.556,7.925-7.925,7.925h-23.773V36.981
	h10.566c2.917,0,5.282-2.366,5.282-5.284c0-2.917-2.365-5.282-5.282-5.282H52.83c-2.917,0-5.283,2.365-5.283,5.282
	c0,2.918,2.366,5.284,5.283,5.284h10.566V52.83H39.623c-4.37,0-7.925-3.555-7.925-7.925V18.49c0-4.37,3.555-7.924,7.925-7.924
	h216.604c4.369,0,7.925,3.554,7.925,7.924V44.905z"/>
</svg>
