<?xml version="1.0" encoding="utf-8"?>
<!-- Generator: Adobe Illustrator 15.1.0, SVG Export Plug-In . SVG Version: 6.00 Build 0)  -->
<!DOCTYPE svg PUBLIC "-//W3C//DTD SVG 1.1//EN" "http://www.w3.org/Graphics/SVG/1.1/DTD/svg11.dtd">
<svg version="1.1" id="圖層_1" xmlns="http://www.w3.org/2000/svg" xmlns:xlink="http://www.w3.org/1999/xlink" x="0px" y="0px"
	 width="41.632px" height="39.036px" viewBox="0 0 41.632 39.036" enable-background="new 0 0 41.632 39.036" xml:space="preserve">
<g>
	<path d="M20.349,33.764c-1.453,0-2.636,1.183-2.636,2.636s1.183,2.636,2.636,2.636c1.454,0,2.636-1.183,2.636-2.636
		S21.803,33.764,20.349,33.764z M20.349,38.036c-0.902,0-1.636-0.731-1.636-1.636c0-0.901,0.734-1.636,1.636-1.636
		c0.902,0,1.636,0.734,1.636,1.636C21.984,37.301,21.251,38.036,20.349,38.036z"/>
	<path d="M33.953,33.764c-1.453,0-2.636,1.183-2.636,2.636s1.183,2.636,2.636,2.636s2.637-1.183,2.637-2.636
		S35.406,33.764,33.953,33.764z M33.953,38.036c-0.899,0-1.636-0.731-1.636-1.636c0-0.901,0.733-1.636,1.636-1.636
		c0.903,0,1.637,0.734,1.637,1.636S34.855,38.036,33.953,38.036z"/>
	<path d="M41.248,12.825c-0.371-0.501-0.939-0.788-1.563-0.788H13.166v1h26.516c0.303,0,0.58,0.14,0.76,0.383
		c0.183,0.243,0.235,0.549,0.146,0.839L37.1,25.717c-0.181,0.601-0.726,1.004-1.354,1.004H17.18l-2.759-6.8l-0.927,0.376
		l2.607,6.424h-3.217v1h3.623l1.308,3.222c0.445,1.099,1.499,1.808,2.683,1.808h15.136v-1H20.498c-0.776,0-1.465-0.463-1.757-1.183
		l-1.155-2.847h18.16c1.07,0,2-0.688,2.313-1.713l3.487-11.458C41.727,13.954,41.619,13.325,41.248,12.825z"/>
	<polygon points="14.71,17.12 13.284,17.12 9.366,7.461 1.379,7.461 1.379,8.461 8.691,8.461 12.206,17.12 4.605,17.12 4.605,18.12 
		14.71,18.12 	"/>
	<rect x="8.908" y="21.641" width="3.397" height="1"/>
	<rect x="6.783" y="21.641" width="0.997" height="1"/>
	<rect x="2.123" y="12.037" width="4.277" height="1"/>
	<rect y="12.037" width="0.996" height="1"/>
	<polygon points="16.898,4.242 22.977,4.242 22.977,10.821 23.977,10.821 23.977,3.242 15.898,3.242 15.898,10.821 16.898,10.821 	
		"/>
	<polygon points="38.416,10.821 38.416,6.781 25.111,6.781 25.111,10.821 26.111,10.821 26.111,7.781 37.416,7.781 37.416,10.821 	
		"/>
	<polygon points="21.275,1 29.947,1 29.947,6.12 30.947,6.12 30.947,0 20.275,0 20.275,2.229 21.275,2.229 	"/>
	<polygon points="35.814,6.12 36.814,6.12 36.814,2.221 32.257,2.221 32.257,3.221 35.814,3.221 	"/>
	<path d="M21.477,14.768v2.352h-4.546v1h4.546v3.521H17.8v1h3.678v2.352h1v-2.352h3.895v2.352h1v-2.352h3.896v2.352h1v-2.352h3.678
		v-1h-3.678V18.12h4.543v-1h-4.544v-2.352h-1v2.352h-3.895v-2.352h-1v2.352h-3.896v-2.352H21.477z M27.373,18.12h3.895v3.521h-3.895
		V18.12z M22.478,18.12h3.895v3.521h-3.895V18.12z"/>
</g>
</svg>
