<?xml version="1.0" encoding="utf-8"?>
<!-- Generator: Adobe Illustrator 15.1.0, SVG Export Plug-In . SVG Version: 6.00 Build 0)  -->
<!DOCTYPE svg PUBLIC "-//W3C//DTD SVG 1.1//EN" "http://www.w3.org/Graphics/SVG/1.1/DTD/svg11.dtd">
<svg version="1.1" id="圖層_1" xmlns="http://www.w3.org/2000/svg" xmlns:xlink="http://www.w3.org/1999/xlink" x="0px" y="0px"
	 width="12.797px" height="30.113px" viewBox="0 0 12.797 30.113" enable-background="new 0 0 12.797 30.113" xml:space="preserve">
<path d="M5.27,6.023c1.663,0,3.011-1.35,3.011-3.013C8.281,1.348,6.933,0,5.27,0C3.605,0,2.259,1.348,2.259,3.01
	C2.259,4.674,3.605,6.023,5.27,6.023 M5.27,1.506c0.83,0,1.505,0.676,1.505,1.505c0,0.831-0.675,1.507-1.505,1.507
	c-0.831,0-1.506-0.676-1.506-1.507C3.764,2.181,4.439,1.506,5.27,1.506"/>
<path d="M11.293,0v1.505c0,5.339-2.817,6.023-5.271,6.023H4.517C2.026,7.528,0,9.555,0,12.045v6.776h0.753h0.753h1.506v11.292h1.505
	V18.821h1.506v11.292h1.506V18.821h3.013V7.667c1.496-1.229,2.258-3.285,2.258-6.161V0H11.293z M9.034,17.315H1.506v-5.271
	c0-1.66,1.35-3.011,3.011-3.011h1.506c1.149,0,2.153-0.168,3.011-0.499V17.315z"/>
</svg>
