<?xml version="1.0" encoding="utf-8"?>
<!-- Generator: Adobe Illustrator 15.1.0, SVG Export Plug-In . SVG Version: 6.00 Build 0)  -->
<!DOCTYPE svg PUBLIC "-//W3C//DTD SVG 1.1//EN" "http://www.w3.org/Graphics/SVG/1.1/DTD/svg11.dtd">
<svg version="1.1" id="圖層_1" xmlns="http://www.w3.org/2000/svg" xmlns:xlink="http://www.w3.org/1999/xlink" x="0px" y="0px"
	 width="29.184px" height="40.394px" viewBox="0 0 29.184 40.394" enable-background="new 0 0 29.184 40.394" xml:space="preserve">
<rect x="5.232" y="25.014" fill-rule="evenodd" clip-rule="evenodd" fill="#040000" width="17.255" height="2.126"/>
<rect x="5.232" y="29.482" fill-rule="evenodd" clip-rule="evenodd" fill="#040000" width="9.69" height="2.126"/>
<rect x="5.231" y="11.61" fill-rule="evenodd" clip-rule="evenodd" fill="#040000" width="17.256" height="2.126"/>
<rect x="5.231" y="16.079" fill-rule="evenodd" clip-rule="evenodd" fill="#040000" width="17.256" height="2.126"/>
<rect x="5.232" y="20.546" fill-rule="evenodd" clip-rule="evenodd" fill="#040000" width="17.255" height="2.126"/>
<path fill-rule="evenodd" clip-rule="evenodd" fill="#040000" d="M28.12,0H7.96C7.688,0,7.417,0.104,7.209,0.312L0.324,7.198
	C0.126,7.395,0,7.662,0,7.961V39.33c0,0.589,0.476,1.063,1.063,1.063H28.12c0.587,0,1.063-0.476,1.063-1.063V1.063
	C29.184,0.477,28.707,0,28.12,0z M7.357,3.168v4.19H3.168L7.357,3.168z M27.058,38.268H2.126V9.484h6.295
	c0.586,0,1.063-0.477,1.063-1.063V2.125h17.573V38.268z"/>
</svg>
