<?xml version="1.0" encoding="utf-8"?>
<!-- Generator: Adobe Illustrator 15.1.0, SVG Export Plug-In . SVG Version: 6.00 Build 0)  -->
<!DOCTYPE svg PUBLIC "-//W3C//DTD SVG 1.1//EN" "http://www.w3.org/Graphics/SVG/1.1/DTD/svg11.dtd">
<svg version="1.1" id="圖層_1" xmlns="http://www.w3.org/2000/svg" xmlns:xlink="http://www.w3.org/1999/xlink" x="0px" y="0px"
	 width="40.236px" height="40.242px" viewBox="0 0 40.236 40.242" enable-background="new 0 0 40.236 40.242" xml:space="preserve">
<path fill-rule="evenodd" clip-rule="evenodd" fill="#040000" d="M27.569,26.068l-5.528-5.529c-0.415-0.415-1.089-0.415-1.503,0
	c-0.415,0.415-0.415,1.088,0,1.503l5.528,5.529c0.415,0.415,1.088,0.415,1.503,0S27.984,26.482,27.569,26.068"/>
<path fill-rule="evenodd" clip-rule="evenodd" fill="#040000" d="M37.777,25.883c-1.42-1.42-3.349-2.333-5.491-2.447L22.013,13.161
	c0.468-2.483,0.088-5.137-1.243-7.511c-1.525-2.721-4.147-4.67-7.182-5.367c-2.866-0.658-5.994-0.185-8.649,1.586
	C4.264,2.32,4.353,3.292,5.04,3.689l7.227,4.172c-0.104,2.237-1.49,4.675-3.386,5.872L1.606,9.534
	C0.92,9.139,0.074,9.615,0.023,10.386c-0.341,5.263,3.072,10.066,8.204,11.442c1.592,0.426,3.279,0.499,4.935,0.187l10.272,10.272
	c0.114,2.144,1.028,4.071,2.447,5.491c1.521,1.521,3.625,2.464,5.948,2.464c2.321,0,4.425-0.941,5.946-2.464
	c1.521-1.52,2.46-3.623,2.46-5.947C40.236,29.509,39.299,27.404,37.777,25.883z M8.775,19.776c-3.506-0.939-6.09-3.895-6.574-7.454
	l6.067,3.503c0.325,0.188,0.722,0.259,1.082,0.079c3.045-1.519,5.207-5.318,5.031-8.708c-0.018-0.345-0.207-0.678-0.53-0.863
	L7.707,2.785c4.146-1.698,8.931-0.059,11.173,3.827c1.238,2.146,1.491,4.593,0.896,6.815C18.491,18.221,13.568,21.06,8.775,19.776z
	 M36.273,36.275c-1.136,1.137-2.708,1.841-4.443,1.841c-1.736,0-3.309-0.704-4.445-1.841c-1.41-1.41-1.846-2.953-1.846-4.89
	L15.463,21.311c2.63-1.128,4.715-3.189,5.848-5.844L31.385,25.54c1.938,0.001,3.478,0.436,4.89,1.846
	c1.137,1.137,1.845,2.709,1.845,4.445C38.119,33.563,37.414,35.136,36.273,36.275z"/>
<path fill-rule="evenodd" clip-rule="evenodd" fill="#040000" d="M31.83,27.934c-2.151,0-3.898,1.748-3.898,3.897
	c0,2.151,1.745,3.896,3.896,3.896c2.15,0,3.898-1.748,3.898-3.897C35.727,29.679,33.982,27.934,31.83,27.934z M31.828,33.602
	c-0.979,0-1.771-0.792-1.771-1.771c0-0.98,0.792-1.771,1.772-1.771c0.975,0,1.771,0.792,1.771,1.771
	C33.601,32.813,32.811,33.602,31.828,33.602z"/>
</svg>
