<?xml version="1.0" encoding="utf-8"?>
<!-- Generator: Adobe Illustrator 15.1.0, SVG Export Plug-In . SVG Version: 6.00 Build 0)  -->
<!DOCTYPE svg PUBLIC "-//W3C//DTD SVG 1.1//EN" "http://www.w3.org/Graphics/SVG/1.1/DTD/svg11.dtd">
<svg version="1.1" id="圖層_1" xmlns="http://www.w3.org/2000/svg" xmlns:xlink="http://www.w3.org/1999/xlink" x="0px" y="0px"
	 width="46.002px" height="46.002px" viewBox="0 0 46.002 46.002" enable-background="new 0 0 46.002 46.002" xml:space="preserve">
<path fill="#040000" d="M45.002,22.001c-0.553,0-1,0.448-1,1c0,11.58-9.421,21.001-21.001,21.001S2,34.581,2,23.001
	S11.421,2,23.001,2c7.478,0,14.449,4.026,18.155,10.433l0.268,0.568h-7.423c-0.552,0-1,0.448-1,1c0,0.552,0.448,1,1,1h11V4.002
	c0-0.552-0.448-1-1-1s-1,0.448-1,1v7.659l-0.073-0.155C38.826,4.409,31.19,0,23.001,0C10.318,0,0,10.318,0,23.001
	c0,12.683,10.318,23.001,23.001,23.001c12.683,0,23.001-10.318,23.001-23.001C46.002,22.449,45.555,22.001,45.002,22.001z"/>
</svg>
