<?xml version="1.0" encoding="utf-8"?>
<!-- Generator: Adobe Illustrator 15.1.0, SVG Export Plug-In . SVG Version: 6.00 Build 0)  -->
<!DOCTYPE svg PUBLIC "-//W3C//DTD SVG 1.1//EN" "http://www.w3.org/Graphics/SVG/1.1/DTD/svg11.dtd">
<svg version="1.1" id="圖層_1" xmlns="http://www.w3.org/2000/svg" xmlns:xlink="http://www.w3.org/1999/xlink" x="0px" y="0px"
	 width="40.613px" height="27.554px" viewBox="0 0 40.613 27.554" enable-background="new 0 0 40.613 27.554" xml:space="preserve">
<path d="M40.415,15.769L31.274,0.66c-0.36-0.594-1.109-0.826-1.742-0.537L8.302,9.817C8.154,9.885,8.017,9.98,7.899,10.098
	L0.575,17.48C0.218,17.741,0,18.175,0,18.625c0,0.555,0.335,1.055,0.848,1.267c0.445,0.184,0.949,0.118,1.328-0.159l8.106-3.7
	l6.589,10.863c0.256,0.421,0.706,0.659,1.173,0.659c0.191,0,0.384-0.04,0.568-0.124l21.2-9.676c0.487-0.222,0.801-0.74,0.801-1.276
	C40.613,16.228,40.545,15.982,40.415,15.769z M18.582,24.432l-7.74-12.762l18.719-8.547l7.727,12.771L18.582,24.432z"/>
</svg>
