<?xml version="1.0" encoding="utf-8"?>
<!-- Generator: Adobe Illustrator 15.1.0, SVG Export Plug-In . SVG Version: 6.00 Build 0)  -->
<!DOCTYPE svg PUBLIC "-//W3C//DTD SVG 1.1//EN" "http://www.w3.org/Graphics/SVG/1.1/DTD/svg11.dtd">
<svg version="1.1" id="圖層_1" xmlns="http://www.w3.org/2000/svg" xmlns:xlink="http://www.w3.org/1999/xlink" x="0px" y="0px"
	 width="86.124px" height="70.85px" viewBox="0 0 86.124 70.85" enable-background="new 0 0 86.124 70.85" xml:space="preserve">
<path d="M83.412,15.61L27.126,0.131c-1.958-0.538-4,0.624-4.538,2.581l-3.925,14.273h45.89c3.075,0,5.578,2.503,5.578,5.578v39.794
	l0.395,0.109c1.958,0.539,4-0.623,4.538-2.581l10.928-39.738C86.531,18.19,85.37,16.148,83.412,15.61"/>
<path d="M64.554,19.589H2.974C1.334,19.589,0,20.923,0,22.563v45.314c0,1.64,1.335,2.973,2.974,2.973h61.58
	c1.64,0,2.973-1.333,2.973-2.973V22.563C67.526,20.923,66.193,19.589,64.554,19.589 M62.318,24.797v34.979h-1.336
	c-0.116-0.25-0.269-0.509-0.502-0.782l-16.701-19.58c-1.316-1.545-3.472-1.545-4.79,0L28.953,51.183l-2.514-2.947
	c-1.317-1.544-3.474-1.544-4.79,0l-9.845,11.541H5.208V24.797H62.318z"/>
<path d="M15.776,40.564c2.813,0,5.094-2.281,5.094-5.095c0-2.813-2.281-5.093-5.094-5.093s-5.095,2.28-5.095,5.093
	C10.681,38.283,12.963,40.564,15.776,40.564"/>
</svg>
