<?xml version="1.0" encoding="utf-8"?>
<!-- Generator: Adobe Illustrator 15.1.0, SVG Export Plug-In . SVG Version: 6.00 Build 0)  -->
<!DOCTYPE svg PUBLIC "-//W3C//DTD SVG 1.1//EN" "http://www.w3.org/Graphics/SVG/1.1/DTD/svg11.dtd">
<svg version="1.1" id="圖層_1" xmlns="http://www.w3.org/2000/svg" xmlns:xlink="http://www.w3.org/1999/xlink" x="0px" y="0px"
	 width="40.217px" height="41.803px" viewBox="0 0 40.217 41.803" enable-background="new 0 0 40.217 41.803" xml:space="preserve">
<path fill-rule="evenodd" clip-rule="evenodd" fill="#040000" d="M19.045,36.041c0-0.587,0.476-1.063,1.063-1.063
	c0.589,0,1.063,0.477,1.063,1.063v4.698c0,0.587-0.475,1.064-1.063,1.064c-0.586,0-1.063-0.478-1.063-1.064V36.041z"/>
<path fill-rule="evenodd" clip-rule="evenodd" fill="#040000" d="M38.428,13.329H25.184L21.12,0.742
	c-0.314-0.974-1.702-1-2.021-0.011l-4.066,12.598H1.787c-1.015,0-1.454,1.319-0.618,1.923l10.724,7.734L7.777,35.572
	c-0.316,0.965,0.801,1.79,1.632,1.185l10.699-7.806l10.636,7.759c0.853,0.622,2.029-0.118,1.695-1.138l-4.114-12.587l10.648-7.681
	C39.837,14.682,39.508,13.329,38.428,13.329z M26.455,21.722c-0.382,0.276-0.529,0.761-0.391,1.187l3.338,10.203l-8.672-6.324
	c-0.385-0.281-0.893-0.259-1.259,0.01l-8.657,6.314l3.336-10.203c0.154-0.472-0.06-0.948-0.446-1.227l-8.632-6.227h10.73
	c0.502,0,0.887-0.359,1.034-0.817l3.271-10.133l3.297,10.211c0.145,0.45,0.562,0.739,1.009,0.739h10.73L26.455,21.722z"/>
<path fill-rule="evenodd" clip-rule="evenodd" fill="#040000" d="M34.361,26.46c-0.559-0.182-0.863-0.78-0.683-1.337
	c0.182-0.559,0.78-0.862,1.337-0.683l4.469,1.451c0.556,0.182,0.86,0.781,0.68,1.338c-0.18,0.558-0.78,0.863-1.337,0.681
	L34.361,26.46z"/>
<path fill-rule="evenodd" clip-rule="evenodd" fill="#040000" d="M29.977,8.936c-0.344,0.474-1.008,0.581-1.482,0.237
	c-0.475-0.344-0.581-1.008-0.236-1.482l2.762-3.802c0.346-0.475,1.009-0.581,1.482-0.237c0.475,0.344,0.581,1.008,0.238,1.482
	L29.977,8.936z"/>
<path fill-rule="evenodd" clip-rule="evenodd" fill="#040000" d="M7.477,5.134C7.133,4.66,7.24,3.996,7.714,3.652
	c0.475-0.344,1.138-0.237,1.483,0.237l2.761,3.801c0.345,0.474,0.239,1.138-0.236,1.482c-0.475,0.344-1.139,0.238-1.482-0.236
	L7.477,5.134z"/>
<path fill-rule="evenodd" clip-rule="evenodd" fill="#040000" d="M1.389,27.91c-0.557,0.182-1.156-0.123-1.337-0.681
	c-0.181-0.557,0.124-1.156,0.682-1.338l4.466-1.45c0.557-0.181,1.156,0.123,1.336,0.682c0.181,0.558-0.124,1.155-0.68,1.337
	L1.389,27.91z"/>
</svg>
