<?xml version="1.0" encoding="utf-8"?>
<!-- Generator: Adobe Illustrator 15.1.0, SVG Export Plug-In . SVG Version: 6.00 Build 0)  -->
<!DOCTYPE svg PUBLIC "-//W3C//DTD SVG 1.1//EN" "http://www.w3.org/Graphics/SVG/1.1/DTD/svg11.dtd">
<svg version="1.1" id="圖層_1" xmlns="http://www.w3.org/2000/svg" xmlns:xlink="http://www.w3.org/1999/xlink" x="0px" y="0px"
	 width="35.708px" height="40.845px" viewBox="0 0 35.708 40.845" enable-background="new 0 0 35.708 40.845" xml:space="preserve">
<path d="M17.853,7.342c0.423,0,0.839,0.023,1.252,0.062c0.004-0.039,0.022-0.074,0.022-0.115V1.276c0-0.705-0.57-1.276-1.274-1.276
	c-0.705,0-1.275,0.571-1.275,1.276v6.013c0,0.041,0.019,0.076,0.023,0.115C17.013,7.365,17.429,7.342,17.853,7.342"/>
<path d="M0.638,11.956l5.198,3.002c0.04,0.022,0.082,0.032,0.123,0.051c0.35-0.766,0.77-1.491,1.255-2.169
	c-0.037-0.028-0.061-0.067-0.102-0.091L1.913,9.747c-0.607-0.351-1.388-0.144-1.742,0.467C-0.181,10.824,0.028,11.603,0.638,11.956"
	/>
<path d="M5.836,25.889l-5.198,3.005c-0.611,0.353-0.819,1.133-0.467,1.743c0.237,0.408,0.665,0.637,1.106,0.637
	c0.217,0,0.436-0.055,0.637-0.171l5.198-3.005c0.041-0.022,0.065-0.063,0.103-0.09c-0.483-0.677-0.902-1.398-1.252-2.162
	C5.921,25.864,5.877,25.866,5.836,25.889"/>
<path d="M19.128,39.569v-6.009c0-0.043-0.021-0.079-0.024-0.121c-0.413,0.04-0.829,0.064-1.251,0.064
	c-0.423,0-0.839-0.024-1.251-0.064c-0.004,0.042-0.025,0.078-0.025,0.121v6.009c0,0.704,0.571,1.275,1.276,1.275
	C18.557,40.845,19.128,40.273,19.128,39.569"/>
<path d="M35.07,28.894l-5.203-3.005c-0.04-0.023-0.085-0.023-0.126-0.043c-0.351,0.764-0.769,1.485-1.252,2.162
	c0.038,0.027,0.061,0.066,0.102,0.09l5.204,3.005c0.2,0.116,0.42,0.171,0.636,0.171c0.441,0,0.869-0.229,1.106-0.638
	C35.889,30.025,35.68,29.246,35.07,28.894"/>
<path d="M33.795,9.746l-5.203,3.002c-0.041,0.023-0.065,0.062-0.103,0.09c0.485,0.679,0.906,1.404,1.256,2.171
	c0.04-0.019,0.082-0.029,0.121-0.05l5.203-3.002c0.61-0.353,0.82-1.133,0.468-1.743C35.186,9.603,34.405,9.394,33.795,9.746"/>
<path d="M10.178,9.682c0.023,0.041,0.056,0.071,0.083,0.108c0.678-0.485,1.403-0.907,2.169-1.256
	c-0.018-0.041-0.019-0.084-0.041-0.123l-1.496-2.6c-0.351-0.611-1.132-0.82-1.742-0.47C8.541,5.691,8.33,6.473,8.682,7.082
	L10.178,9.682z"/>
<path d="M4.718,19.148H1.711c-0.704,0-1.275,0.57-1.275,1.275c0,0.706,0.571,1.276,1.275,1.276h3.007
	c0.042,0,0.076-0.02,0.117-0.023c-0.04-0.412-0.064-0.83-0.064-1.252c0-0.421,0.024-0.839,0.064-1.252
	C4.794,19.168,4.76,19.148,4.718,19.148"/>
<path d="M12.431,32.313c-0.763-0.35-1.486-0.768-2.162-1.252c-0.028,0.039-0.067,0.063-0.091,0.104l-1.497,2.604
	c-0.351,0.61-0.14,1.391,0.471,1.741c0.2,0.116,0.419,0.17,0.634,0.17c0.442,0,0.872-0.229,1.107-0.64l1.496-2.604
	C12.412,32.396,12.413,32.354,12.431,32.313"/>
<path d="M25.523,31.162c-0.022-0.041-0.062-0.064-0.089-0.101c-0.676,0.483-1.399,0.901-2.162,1.251
	c0.019,0.042,0.021,0.087,0.043,0.127l1.507,2.604c0.236,0.408,0.664,0.637,1.105,0.637c0.217,0,0.437-0.055,0.638-0.172
	c0.609-0.353,0.818-1.133,0.465-1.741L25.523,31.162z"/>
<path d="M30.988,21.699h3.005c0.704,0,1.274-0.57,1.274-1.275c0-0.705-0.57-1.276-1.274-1.276h-3.005
	c-0.042,0-0.078,0.02-0.119,0.024c0.04,0.412,0.063,0.83,0.063,1.252c0,0.421-0.023,0.839-0.063,1.251
	C30.91,21.68,30.946,21.699,30.988,21.699"/>
<path d="M25.523,9.686l1.507-2.6c0.353-0.609,0.145-1.39-0.464-1.743c-0.608-0.352-1.391-0.145-1.743,0.464l-1.507,2.6
	c-0.023,0.04-0.024,0.085-0.043,0.126c0.766,0.35,1.49,0.771,2.169,1.257C25.468,9.753,25.501,9.725,25.523,9.686"/>
<path d="M17.853,9.892c-5.807,0-10.529,4.725-10.529,10.532c0,0.725,0.073,1.434,0.214,2.119c0.983,4.793,5.234,8.409,10.315,8.409
	c5.08,0,9.332-3.616,10.314-8.409c0.141-0.685,0.214-1.394,0.214-2.119C28.381,14.617,23.658,9.892,17.853,9.892z M19.458,28.239
	c-0.519,0.106-1.056,0.162-1.605,0.162c-0.551,0-1.087-0.056-1.606-0.162c-3.632-0.745-6.372-3.966-6.372-7.815
	c0-4.401,3.579-7.981,7.979-7.981c4.398,0,7.979,3.58,7.979,7.981C25.831,24.273,23.09,27.494,19.458,28.239z"/>
</svg>
