<?xml version="1.0" encoding="utf-8"?>
<!-- Generator: Adobe Illustrator 15.1.0, SVG Export Plug-In . SVG Version: 6.00 Build 0)  -->
<!DOCTYPE svg PUBLIC "-//W3C//DTD SVG 1.1//EN" "http://www.w3.org/Graphics/SVG/1.1/DTD/svg11.dtd">
<svg version="1.1" id="圖層_1" xmlns="http://www.w3.org/2000/svg" xmlns:xlink="http://www.w3.org/1999/xlink" x="0px" y="0px"
	 width="48px" height="56.959px" viewBox="0 0 48 56.959" enable-background="new 0 0 48 56.959" xml:space="preserve">
<path d="M40.863,0H7.137C3.202,0,0,3.201,0,7.136v7.503v35.184c0,3.936,3.202,7.137,7.137,7.137h33.726
	c3.935,0,7.137-3.201,7.137-7.137V14.639V7.136C48,3.201,44.798,0,40.863,0 M46,49.822c0,2.832-2.305,5.137-5.137,5.137H7.137
	C4.304,54.959,2,52.654,2,49.822V10.639h44V49.822z"/>
<path d="M12.711,26.788l-3.92-2.785c-0.225-0.16-0.278-0.472-0.118-0.696c0.16-0.226,0.472-0.279,0.697-0.119l3.083,2.191
	l3.518-5.237c0.154-0.228,0.464-0.29,0.693-0.135c0.229,0.153,0.29,0.464,0.136,0.693L12.711,26.788z"/>
<path d="M12.84,27.493L8.501,24.41c-0.448-0.319-0.554-0.944-0.236-1.393c0.155-0.218,0.386-0.363,0.649-0.408
	c0.265-0.042,0.528,0.017,0.745,0.172l2.665,1.893l3.232-4.811c0.149-0.222,0.376-0.371,0.638-0.423
	c0.261-0.052,0.529,0.002,0.75,0.153c0.22,0.147,0.371,0.374,0.422,0.635c0.052,0.263-0.002,0.53-0.151,0.751L12.84,27.493z"/>
<path d="M17.523,30.808H7.942c-1.469,0-2.663-1.193-2.663-2.663v-9.581c0-1.469,1.194-2.663,2.663-2.663h9.581
	c1.469,0,2.663,1.194,2.663,2.663v9.581C20.187,29.614,18.993,30.808,17.523,30.808 M7.942,17.901c-0.365,0-0.663,0.298-0.663,0.663
	v9.581c0,0.365,0.298,0.663,0.663,0.663h9.581c0.365,0,0.663-0.298,0.663-0.663v-9.581c0-0.365-0.298-0.663-0.663-0.663H7.942z"/>
<line x1="23.323" y1="16.901" x2="41.721" y2="16.901"/>
<path d="M41.721,17.901H23.323c-0.553,0-1-0.447-1-1c0-0.553,0.447-1,1-1h18.398c0.553,0,1,0.447,1,1
	C42.721,17.454,42.273,17.901,41.721,17.901"/>
<line x1="23.323" y1="21.921" x2="41.721" y2="21.921"/>
<path d="M41.721,22.921H23.323c-0.553,0-1-0.447-1-1c0-0.553,0.447-1,1-1h18.398c0.553,0,1,0.447,1,1
	C42.721,22.475,42.273,22.921,41.721,22.921"/>
<line x1="23.323" y1="35.817" x2="41.721" y2="35.817"/>
<path d="M41.721,36.817H23.323c-0.553,0-1-0.447-1-1c0-0.554,0.447-1,1-1h18.398c0.553,0,1,0.446,1,1
	C42.721,36.37,42.273,36.817,41.721,36.817"/>
<line x1="23.323" y1="40.839" x2="39.581" y2="40.839"/>
<path d="M39.581,41.839H23.322c-0.553,0-1-0.447-1-1c0-0.554,0.447-1,1-1h16.259c0.553,0,1,0.446,1,1
	C40.581,41.392,40.134,41.839,39.581,41.839"/>
<path d="M17.523,49.724H7.942c-1.469,0-2.663-1.193-2.663-2.663v-9.58c0-1.47,1.194-2.663,2.663-2.663h9.581
	c1.469,0,2.663,1.193,2.663,2.663v9.58C20.187,48.53,18.993,49.724,17.523,49.724 M7.942,36.817c-0.365,0-0.663,0.298-0.663,0.663
	v9.58c0,0.365,0.298,0.663,0.663,0.663h9.581c0.365,0,0.663-0.298,0.663-0.663v-9.58c0-0.365-0.298-0.663-0.663-0.663H7.942z"/>
<line x1="23.323" y1="27.005" x2="34.165" y2="27.005"/>
<path d="M34.165,28.005H23.322c-0.553,0-1-0.447-1-1c0-0.553,0.447-1,1-1h10.843c0.553,0,1,0.447,1,1
	C35.165,27.559,34.718,28.005,34.165,28.005"/>
<line x1="23.323" y1="45.673" x2="37.665" y2="45.673"/>
<path d="M37.665,46.673H23.322c-0.553,0-1-0.447-1-1c0-0.554,0.447-1,1-1h14.343c0.553,0,1,0.446,1,1
	C38.665,46.226,38.218,46.673,37.665,46.673"/>
</svg>
