<?xml version="1.0" encoding="utf-8"?>
<!-- Generator: Adobe Illustrator 16.0.0, SVG Export Plug-In . SVG Version: 6.00 Build 0)  -->
<!DOCTYPE svg PUBLIC "-//W3C//DTD SVG 1.1//EN" "http://www.w3.org/Graphics/SVG/1.1/DTD/svg11.dtd">
<svg version="1.1" id="Layer_1" xmlns="http://www.w3.org/2000/svg" xmlns:xlink="http://www.w3.org/1999/xlink" x="0px" y="0px"
	 width="110.852px" height="122.641px" viewBox="0 0 110.852 122.641" enable-background="new 0 0 110.852 122.641"
	 xml:space="preserve">
<g>
	<path d="M108.301,51.273H93.897V45.67c0-1.379-1.121-2.5-2.5-2.5h-23.79c-1.379,0-2.5,1.121-2.5,2.5v5.604H46.318V45.67
		c0-1.379-1.121-2.5-2.5-2.5h-23.79c-1.379,0-2.5,1.121-2.5,2.5v5.604H2.5c-1.379,0-2.5,1.121-2.5,2.5v11.895
		c0,1.379,1.121,2.5,2.5,2.5h3.148v3.126c-0.009,0.124-0.015,0.247-0.015,0.374v42.473c0,4.687,3.813,8.5,8.5,8.5h83.158
		c4.687,0,8.5-3.813,8.5-8.5V68.168h2.509c1.379,0,2.5-1.121,2.5-2.5V53.773C110.801,52.395,109.68,51.273,108.301,51.273z
		 M97.292,117.641H14.134c-1.93,0-3.5-1.57-3.5-3.5l0.016-45.973h90.143v45.973C100.792,116.07,99.222,117.641,97.292,117.641z
		 M22.528,51.273V48.17h18.79v3.104H22.528z M70.107,51.273V48.17h18.79v3.104H70.107z M105.801,56.273v6.895H5v-6.895H105.801z"/>
	<path d="M87.067,86.105H63.275c-1.379,0-2.5,1.121-2.5,2.5v7.6c0,1.379,1.121,2.5,2.5,2.5h23.792c1.379,0,2.5-1.121,2.5-2.5v-7.6
		C89.567,87.227,88.446,86.105,87.067,86.105z M84.567,91.105v2.6H65.775v-2.6H84.567z"/>
	<path d="M48.149,86.105h-5.597V80.51c0-1.379-1.121-2.5-2.5-2.5h-7.599c-1.379,0-2.5,1.121-2.5,2.5v5.596h-5.596
		c-1.379,0-2.5,1.121-2.5,2.5v7.6c0,1.379,1.121,2.5,2.5,2.5h5.596v5.596c0,1.379,1.121,2.5,2.5,2.5h7.599
		c1.379,0,2.5-1.121,2.5-2.5v-5.596h5.597c1.379,0,2.5-1.121,2.5-2.5v-7.6C50.649,87.227,49.528,86.105,48.149,86.105z
		 M32.454,93.705h-5.596v-2.6h5.596c1.379,0,2.5-1.121,2.5-2.5V83.01h2.599v5.596c0,1.379,1.121,2.5,2.5,2.5h5.597v2.6h-5.597
		c-1.379,0-2.5,1.121-2.5,2.5v5.596h-2.599v-5.596C34.954,94.826,33.833,93.705,32.454,93.705z"/>
	<path d="M45.617,27.91h8.729l-4.767,13.36c-0.414,1.16,0.095,2.472,1.185,3.05c0.359,0.189,0.764,0.29,1.169,0.29
		c0.795,0,1.549-0.382,2.018-1.021l16.824-22.958c0.559-0.763,0.641-1.763,0.213-2.609c-0.43-0.844-1.284-1.368-2.229-1.368h-8.582
		l5.303-13.249c0.462-1.154-0.005-2.487-1.083-3.102c-1.037-0.59-2.504-0.288-3.224,0.654L43.631,23.892
		c-0.573,0.75-0.674,1.78-0.255,2.626C43.801,27.377,44.659,27.91,45.617,27.91z M54.413,20.555c0.466,0.688,1.24,1.099,2.07,1.099
		h7.343l-3.78,5.158l0.2-0.563c0.272-0.765,0.156-1.616-0.312-2.279s-1.231-1.06-2.043-1.06h-7.215l3.405-4.452
		C53.876,19.169,53.994,19.937,54.413,20.555z"/>
</g>
</svg>
