<?xml version="1.0" encoding="utf-8"?>
<!-- Generator: Adobe Illustrator 16.0.0, SVG Export Plug-In . SVG Version: 6.00 Build 0)  -->
<!DOCTYPE svg PUBLIC "-//W3C//DTD SVG 1.1//EN" "http://www.w3.org/Graphics/SVG/1.1/DTD/svg11.dtd">
<svg version="1.1" id="圖層_1" xmlns="http://www.w3.org/2000/svg" xmlns:xlink="http://www.w3.org/1999/xlink" x="0px" y="0px"
	 width="76.1px" height="97.199px" viewBox="-18.765 -22.615 76.1 97.199" enable-background="new -18.765 -22.615 76.1 97.199"
	 xml:space="preserve">
<g>
	<path fill="#42424C" d="M40.802-4.405c0.041,0.013,0.102,0.013,0.143,0.013h15.974L39.073-22.19v15.941
		c0,0.042,0,0.086,0.018,0.127C39.145-5.194,39.89-4.461,40.802-4.405z"/>
	<path fill="#42424C" d="M-13.924,64.786V36.531h-3.819v30.4c0,0.068,0,0.137,0.022,0.209c0.07,0.765,0.677,1.371,1.443,1.442
		c0.072,0.024,0.118,0.024,0.188,0.024h43.751l-3.944-3.821H-13.924z"/>
	<path fill="#42424C" d="M40.749-1.066c-2.771,0-5.008-2.211-5.008-4.984v-16.564h-51.833c-0.139,0-0.303,0.024-0.441,0.067
		c-0.584,0.143-1.003,0.585-1.167,1.169c-0.022,0.141-0.043,0.28-0.043,0.441V4.688h3.819v-23.481H31.92v12.743
		c0,4.866,3.962,8.806,8.829,8.806h12.766v53.206h1.023c1.145,0,2.075,0.279,2.797,0.745V-1.066H40.749z"/>
	<path fill="#42424C" d="M54.538,60.106h-1.023h-3.817c-0.981,0-1.798-0.793-1.798-1.772v-9.945c0-0.979-0.278-2.983-0.649-3.217
		c-0.35-0.206-1.447-0.394-2.424-0.394h-8.48c-0.603,0-1.47,0.141-2.097,0.394c-0.37,0.142-0.631,0.329-0.699,0.518
		c-0.161,0.513-0.299,1.725-0.299,2.699v9.945c0,0.979-0.796,1.772-1.772,1.772h-4.846c-0.98,0-1.214,0.559-0.492,1.256l3.543,3.422
		l3.963,3.82l5.656,5.474c0.699,0.677,1.863,0.677,2.566,0l5.658-5.474l2.818-2.724l1.143-1.097l2.026-1.976l0.488-0.47l1.024-0.977
		C55.752,60.664,55.521,60.106,54.538,60.106z"/>
	<g>
		<path fill="#42424C" d="M8.148,15.926H8.096c-0.292,1.065-0.609,2.336-0.951,3.402L5.53,23.885h5.214l-1.586-4.536
			C8.783,18.218,8.44,16.99,8.148,15.926z"/>
		<path fill="#42424C" d="M34.611,7.454h-53.376v29.308h53.376c1.669,0,3.032-1.363,3.032-3.029V10.486
			C37.643,8.819,36.28,7.454,34.611,7.454z M-5.608,29.039c1.38,0,2.78-0.251,3.653-0.614l0.528,2.111
			c-0.846,0.365-2.564,0.726-4.761,0.726c-5.637,0-9.424-3.199-9.424-8.735c0-5.898,4.342-9.12,9.955-9.12
			c2.33,0,3.759,0.432,4.314,0.678l-0.66,2.155c-0.847-0.339-2.039-0.635-3.547-0.635c-3.919,0-6.83,2.27-6.83,6.783
			C-12.384,26.657-9.789,29.039-5.608,29.039z M13.071,31.014l-1.826-5.106H5.052l-1.747,5.106h-3.15l6.193-17.357h3.757
			L16.3,31.014H13.071z M34.684,21.963c0,3.15-1.133,5.443-2.908,6.917c-1.826,1.522-4.71,2.295-8.288,2.295
			c-1.798,0-3.252-0.068-4.393-0.203V13.884c1.457-0.203,3.256-0.363,5.165-0.363c8.627,0,10.424,4.562,10.424,8.419V21.963z"/>
		<path fill="#42424C" d="M24.55,15.61c-1.062,0-1.854,0.089-2.382,0.183v13.181c0.526,0.067,1.268,0.094,1.982,0.094
			c4.553,0.021,7.308-2.271,7.308-7.059C31.458,17.788,28.913,15.61,24.55,15.61z"/>
	</g>
</g>
</svg>
