<?xml version="1.0" encoding="utf-8"?>
<!-- Generator: Adobe Illustrator 16.0.0, SVG Export Plug-In . SVG Version: 6.00 Build 0)  -->
<!DOCTYPE svg PUBLIC "-//W3C//DTD SVG 1.1//EN" "http://www.w3.org/Graphics/SVG/1.1/DTD/svg11.dtd">
<svg version="1.1" id="Layer_1" xmlns="http://www.w3.org/2000/svg" xmlns:xlink="http://www.w3.org/1999/xlink" x="0px" y="0px"
	 width="156.691px" height="169.395px" viewBox="0 0 156.691 169.395" enable-background="new 0 0 156.691 169.395"
	 xml:space="preserve">
<g id="iocn">
	<g>
		<path d="M139.826,169.395c9.3,0,16.865-7.566,16.865-16.865V30.333c0-9.299-7.565-16.865-16.865-16.865H16.865
			C7.565,13.467,0,21.033,0,30.333V152.53c0,9.299,7.565,16.865,16.865,16.865H139.826z M7,152.53V30.333
			c0-5.44,4.426-9.865,9.865-9.865h122.961c5.439,0,9.865,4.425,9.865,9.865V152.53c0,5.44-4.426,9.865-9.865,9.865H16.865
			C11.426,162.395,7,157.97,7,152.53z"/>
	</g>
	<g>
		<path d="M49.005,31.198V3.5c0-1.933-1.567-3.5-3.5-3.5s-3.5,1.567-3.5,3.5v27.698c0,1.933,1.567,3.5,3.5,3.5
			S49.005,33.131,49.005,31.198z"/>
	</g>
	<g>
		<path d="M115.449,31.198V3.5c0-1.933-1.567-3.5-3.5-3.5s-3.5,1.567-3.5,3.5v27.698c0,1.933,1.567,3.5,3.5,3.5
			S115.449,33.131,115.449,31.198z"/>
	</g>
	<g>
		<rect x="3.5" y="47.454" width="148.928" height="7"/>
	</g>
	<g>
		<path d="M35.154,78.925c0-2.294-1.866-4.161-4.16-4.161c-2.295,0-4.161,1.867-4.161,4.161s1.866,4.161,4.161,4.161
			C33.288,83.086,35.154,81.219,35.154,78.925z"/>
	</g>
	<g>
		<path d="M66.604,78.925c0-2.294-1.866-4.161-4.16-4.161c-2.295,0-4.161,1.867-4.161,4.161s1.866,4.161,4.161,4.161
			C64.738,83.086,66.604,81.219,66.604,78.925z"/>
	</g>
	<g>
		<path d="M98.055,78.925c0-2.294-1.866-4.161-4.16-4.161c-2.295,0-4.161,1.867-4.161,4.161s1.866,4.161,4.161,4.161
			C96.188,83.086,98.055,81.219,98.055,78.925z"/>
	</g>
	<g>
		<path d="M129.505,78.925c0-2.294-1.866-4.161-4.16-4.161c-2.295,0-4.161,1.867-4.161,4.161s1.866,4.161,4.161,4.161
			C127.639,83.086,129.505,81.219,129.505,78.925z"/>
	</g>
	<g>
		<path d="M35.154,107.802c0-2.294-1.866-4.161-4.16-4.161c-2.295,0-4.161,1.867-4.161,4.161s1.866,4.161,4.161,4.161
			C33.288,111.963,35.154,110.096,35.154,107.802z"/>
	</g>
	<g>
		<path d="M66.604,107.802c0-2.294-1.866-4.161-4.16-4.161c-2.295,0-4.161,1.867-4.161,4.161s1.866,4.161,4.161,4.161
			C64.738,111.963,66.604,110.096,66.604,107.802z"/>
	</g>
	<g>
		<path d="M98.055,107.802c0-2.294-1.866-4.161-4.16-4.161c-2.295,0-4.161,1.867-4.161,4.161s1.866,4.161,4.161,4.161
			C96.188,111.963,98.055,110.096,98.055,107.802z"/>
	</g>
	<g>
		<path d="M129.505,107.802c0-2.294-1.866-4.161-4.16-4.161c-2.295,0-4.161,1.867-4.161,4.161s1.866,4.161,4.161,4.161
			C127.639,111.963,129.505,110.096,129.505,107.802z"/>
	</g>
	<g>
		<path d="M35.154,136.679c0-2.294-1.866-4.161-4.16-4.161c-2.295,0-4.161,1.867-4.161,4.161s1.866,4.161,4.161,4.161
			C33.288,140.84,35.154,138.973,35.154,136.679z"/>
	</g>
	<g>
		<path d="M66.604,136.679c0-2.294-1.866-4.161-4.16-4.161c-2.295,0-4.161,1.867-4.161,4.161s1.866,4.161,4.161,4.161
			C64.738,140.84,66.604,138.973,66.604,136.679z"/>
	</g>
	<g>
		<path d="M98.055,136.679c0-2.294-1.866-4.161-4.16-4.161c-2.295,0-4.161,1.867-4.161,4.161s1.866,4.161,4.161,4.161
			C96.188,140.84,98.055,138.973,98.055,136.679z"/>
	</g>
</g>
</svg>
