<?xml version="1.0" encoding="utf-8"?>
<!-- Generator: Adobe Illustrator 16.0.0, SVG Export Plug-In . SVG Version: 6.00 Build 0)  -->
<!DOCTYPE svg PUBLIC "-//W3C//DTD SVG 1.1//EN" "http://www.w3.org/Graphics/SVG/1.1/DTD/svg11.dtd">
<svg version="1.1" id="圖層_1" xmlns="http://www.w3.org/2000/svg" xmlns:xlink="http://www.w3.org/1999/xlink" x="0px" y="0px"
	 width="75.839px" height="97.199px" viewBox="-18.765 -22.615 75.839 97.199"
	 enable-background="new -18.765 -22.615 75.839 97.199" xml:space="preserve">
<g>
	<path fill="#42424C" d="M40.558-4.424C40.6-4.41,40.66-4.41,40.701-4.41h15.957L38.832-22.19v15.923c0,0.042,0,0.086,0.018,0.128
		C38.903-5.212,39.648-4.48,40.558-4.424z"/>
	<path fill="#42424C" d="M-14.109,64.695V36.469h-3.815v30.369c0,0.067,0,0.139,0.022,0.21c0.069,0.762,0.676,1.37,1.441,1.441
		c0.071,0.022,0.118,0.022,0.188,0.022h43.705l-3.939-3.817H-14.109z"/>
	<path fill="#42424C" d="M40.506-1.089c-2.768,0-5.003-2.208-5.003-4.979v-16.547h-51.778c-0.139,0-0.302,0.024-0.441,0.067
		c-0.583,0.143-1.002,0.584-1.166,1.167c-0.022,0.141-0.043,0.28-0.043,0.441V4.659h3.815v-23.457h45.794v12.729
		c0,4.86,3.958,8.796,8.82,8.796h12.753v53.149h1.022c1.142,0,2.073,0.281,2.793,0.747V-1.089H40.506z"/>
	<path fill="#42424C" d="M54.281,60.017h-1.022h-3.813c-0.979,0-1.796-0.792-1.796-1.768v-9.937c0-0.978-0.278-2.979-0.649-3.213
		c-0.35-0.206-1.445-0.394-2.421-0.394h-8.472c-0.603,0-1.468,0.141-2.095,0.394c-0.369,0.141-0.63,0.329-0.698,0.517
		c-0.161,0.512-0.298,1.723-0.298,2.696v9.937c0,0.976-0.796,1.768-1.771,1.768h-4.84c-0.98,0-1.213,0.56-0.492,1.258l3.539,3.416
		l3.958,3.817l5.651,5.468c0.698,0.676,1.861,0.676,2.563,0l5.652-5.468l2.815-2.721l1.141-1.097l2.025-1.972l0.487-0.469
		l1.024-0.976C55.494,60.576,55.261,60.017,54.281,60.017z"/>
	<g>
		<path fill="#42424C" d="M9.663,16.739c-2.552,0-4.023,2.401-4.023,5.617c0,3.259,1.523,5.539,4.023,5.539
			c2.523,0,3.975-2.404,3.975-5.614C13.637,19.288,12.24,16.739,9.663,16.739z"/>
		<path fill="#42424C" d="M-9.203,16.81c-0.81,0-1.375,0.072-1.693,0.148v10.814c0.32,0.069,0.862,0.069,1.3,0.069
			c3.409,0.026,5.64-1.839,5.64-5.782C-3.956,18.627-5.967,16.81-9.203,16.81z"/>
		<path fill="#42424C" d="M33.552,7.953h-52.318V36.68h52.318c1.635,0,2.972-1.337,2.972-2.972V10.923
			C36.524,9.29,35.187,7.953,33.552,7.953z M-2.727,28.634c-1.739,1.445-4.414,2.132-7.648,2.132c-1.937,0-3.332-0.124-4.24-0.246
			V14.312h-0.005c1.375-0.224,3.163-0.371,5.027-0.371c3.163,0,5.225,0.589,6.792,1.77c1.716,1.275,2.797,3.313,2.797,6.229
			C-0.004,25.102-1.157,27.286-2.727,28.634z M9.464,30.862c-4.878,0-7.775-3.702-7.775-8.436c0-4.955,3.189-8.653,8.046-8.653
			c5.078-0.002,7.846,3.799,7.846,8.386C17.581,27.604,14.323,30.862,9.464,30.862z M28.478,27.744c1.16,0,2.386-0.218,3.14-0.538
			l0.541,2.942c-0.661,0.321-2.233,0.711-4.219,0.711c-5.709,0-8.658-3.578-8.658-8.287c0-5.641,4.028-8.751,9.031-8.751
			c1.935,0,3.408,0.362,4.068,0.734l-0.786,2.943c-0.731-0.319-1.792-0.615-3.14-0.615c-2.938,0-5.243,1.79-5.243,5.472
			C23.211,25.663,25.174,27.744,28.478,27.744z"/>
	</g>
</g>
</svg>
