<?xml version="1.0" encoding="utf-8"?>
<!-- Generator: Adobe Illustrator 16.0.0, SVG Export Plug-In . SVG Version: 6.00 Build 0)  -->
<!DOCTYPE svg PUBLIC "-//W3C//DTD SVG 1.1//EN" "http://www.w3.org/Graphics/SVG/1.1/DTD/svg11.dtd">
<svg version="1.1" id="圖層_1" xmlns="http://www.w3.org/2000/svg" xmlns:xlink="http://www.w3.org/1999/xlink" x="0px" y="0px"
	 width="74.998px" height="97.199px" viewBox="0.842 0 74.998 97.199" enable-background="new 0.842 0 74.998 97.199"
	 xml:space="preserve">
<path fill="#42424C" d="M59.325,18.241c0.042,0.014,0.102,0.014,0.143,0.014h15.957L57.598,0.475v15.923
	c0,0.042,0,0.086,0.019,0.128C57.669,17.453,58.415,18.185,59.325,18.241z"/>
<path fill="#42424C" d="M4.658,87.36V59.134H0.843v30.369c0,0.066,0,0.139,0.022,0.21c0.069,0.763,0.676,1.37,1.441,1.441
	c0.071,0.021,0.118,0.021,0.188,0.021h43.705l-3.939-3.817H4.658V87.36z"/>
<path fill="#42424C" d="M59.272,21.576c-2.768,0-5.003-2.208-5.003-4.979V0.05H2.492c-0.139,0-0.302,0.024-0.441,0.067
	C1.468,0.26,1.049,0.701,0.885,1.284c-0.022,0.141-0.043,0.28-0.043,0.441v25.599h3.815V3.867h45.794v12.729
	c0,4.86,3.958,8.796,8.819,8.796h12.754v53.149h1.021c1.143,0,2.073,0.281,2.793,0.747V21.576H59.272z"/>
<path fill="#42424C" d="M73.047,82.683h-1.021h-3.813c-0.979,0-1.796-0.793-1.796-1.769v-9.938c0-0.978-0.277-2.979-0.648-3.213
	c-0.351-0.205-1.445-0.394-2.422-0.394h-8.472c-0.604,0-1.468,0.142-2.095,0.394c-0.369,0.142-0.63,0.329-0.698,0.518
	c-0.161,0.512-0.298,1.723-0.298,2.695v9.938c0,0.976-0.796,1.769-1.771,1.769h-4.841c-0.979,0-1.213,0.56-0.491,1.258l3.539,3.416
	l3.957,3.816l5.651,5.469c0.697,0.676,1.861,0.676,2.563,0l5.652-5.469l2.814-2.721L70,87.354l2.024-1.972l0.488-0.469l1.023-0.976
	C74.26,83.241,74.028,82.683,73.047,82.683z"/>
<path fill="#42424C" d="M54.294,49.364c0,1.054-0.854,1.907-1.907,1.907H7.084c-1.053,0-1.907-0.854-1.907-1.907l0,0
	c0-1.053,0.854-1.907,1.907-1.907h45.303C53.441,47.457,54.294,48.311,54.294,49.364L54.294,49.364z"/>
<path fill="#42424C" d="M54.294,57.087c0,1.054-0.854,1.907-1.907,1.907H7.084c-1.053,0-1.907-0.854-1.907-1.907l0,0
	c0-1.054,0.854-1.907,1.907-1.907h45.303C53.441,55.18,54.294,56.033,54.294,57.087L54.294,57.087z"/>
<path fill="#42424C" d="M54.294,41.642c0,1.053-0.854,1.907-1.907,1.907H7.084c-1.053,0-1.907-0.854-1.907-1.907l0,0
	c0-1.053,0.854-1.907,1.907-1.907h45.303C53.441,39.734,54.294,40.588,54.294,41.642L54.294,41.642z"/>
<path fill="#42424C" d="M54.294,33.919c0,1.053-0.854,1.907-1.907,1.907H7.084c-1.053,0-1.907-0.854-1.907-1.907l0,0
	c0-1.053,0.854-1.907,1.907-1.907h45.303C53.441,32.012,54.294,32.866,54.294,33.919L54.294,33.919z"/>
</svg>
