<?xml version="1.0" encoding="utf-8"?>
<!-- Generator: Adobe Illustrator 16.0.0, SVG Export Plug-In . SVG Version: 6.00 Build 0)  -->
<!DOCTYPE svg PUBLIC "-//W3C//DTD SVG 1.1//EN" "http://www.w3.org/Graphics/SVG/1.1/DTD/svg11.dtd">
<svg version="1.1" id="圖層_1" xmlns="http://www.w3.org/2000/svg" xmlns:xlink="http://www.w3.org/1999/xlink" x="0px" y="0px"
	 width="100px" height="100px" viewBox="-48.2 -48.2 100 100" enable-background="new -48.2 -48.2 100 100" xml:space="preserve">
<path fill="#393737" d="M-12.869-5.285c0.084,1.113-1.381,1.329-2.138,1.382c-1.438,0.109-1.519-0.134-1.816-1.3h-0.081
	C-16.281-5.716-13.653-5.61-12.869-5.285z M-1.462,31.204c-0.028,0.026-0.056,0.026-0.109,0.082c0,0,0.028,0,0,0.053
	C-1.544,31.286-1.49,31.204-1.462,31.204z M51.302,1.813c0,27.331-22.156,49.49-49.514,49.49c-27.36,0-49.49-22.159-49.49-49.49
	c0-27.33,22.158-49.516,49.49-49.516C29.116-47.703,51.302-25.545,51.302,1.813z M20.423-2.765c0.541-2.788,3.467-4.819,4.902-7.15
	c0.814-1.3,1.273-1.759,2.793-1.869c1.705-0.134,2.896-0.675,4.412-1.488c1.301-0.706,2.031-1.003,3.063,0.188
	c1.406,1.707,2.166,1.788,4.334,1.166c0.107-0.028,0.164-0.054,0.217-0.054c-0.377-1.138-0.895-2.25-1.354-3.306
	c-0.814-0.378-1.572-0.865-2.385-1.597c-1.029-1.031-3.168-1.543-4.469-0.487c-0.977,0.837-0.082,2.084-1.545,2.816
	c-1.625,0.759-6.664,0.541-3.873-2.004c0.84-0.759,2.953-0.569,3.467-1.381c0.705-1.138-0.895-1.275-1.219-2.059
	c-0.219-0.597,0.57-1.219,0.406-1.734c-0.486-1.679-2.953,0.706-3.955-0.513c-0.922-1.14,0.596-3.091,1.57-3.631
	c0.977-0.541,2.41-0.378,3.252-1.057c0.162-0.081,0.215-0.243,0.295-0.377c-2.355-2.303-5.035-4.335-7.908-5.988
	c-1.244,1.462-4.064,1.844-5.797,2.087c-1.301,0.215-2.438,0.487-3.52,1.326c-0.951,0.706-1.789,2.087-2.982,2.412
	c-3.115,0.704-1.461-3.494-1.109-4.822c0.703-2.575-1.271-3.144-3.359-3.006c-1.084,0.081-1.623-0.028-2.547-0.65
	c-0.783-0.516-1.434-1.3-2.437-0.869c-0.675,0.271-1.679,1.707-1.598,2.466c0.082,0.975,0.759,0.813,1.572,1.166
	c1.191,0.515,2.058,1.381,2.058,2.734c0,1.003-0.705,2.438-1.87,2.413c-1.191-0.029-1.706-1.491-2.138-2.413
	c-0.649-1.463-1.14-1.407-2.44-2.356c-2.519-1.869,1.628-3.116,1.137-5.066c-0.078-0.35-0.215-0.594-0.378-0.785
	c-4.091,0.46-7.991,1.544-11.594,3.141c0,0.028,0.028,0.056,0.028,0.082c0.027,1.031-1.219,1.003,0.081,1.681
	c0.515,0.269,1.271-0.162,1.543,0.65c0.3,0.813-0.622,1.138-1.3,1.219c-1.165,0.19-2.897,0-3.087-1.381
	c-0.435-0.028-1.247-0.028-1.841,0.162c-0.057,0.026-0.082,0.053-0.138,0.082c0.191,0.378,0.381,0.756,0.569,1.166
	c0.543,1.029,0.706,1.163,2.087,1.219c1.382,0.054,3.06,0.082,4.416-0.163c1.569-0.324,4.144-3.712,5.334-0.975
	c0.947,2.3-2.031,2.519-3.44,2.979c-2.763,0.894-1.65,3.547,0.569,4.253c3.088,1,4.063-3.034,6.748-3.522
	c1.706-0.271,3.25,2.385,4.55,3.279c0.975,0.675,2.138,1.109,2.195,2.41c0.023,1.084-0.789,2.25-1.952,2.168
	c-0.271-1.328-2.656-2.413-3.685-1.275c0.244,0.3,0.459,0.488,0.841,0.544c0.594,2.844-3.659,2.031-4.985,2.681
	c-1.165,0.569-1.6,1.569-2.412,2.519c-0.756,0.813-1.65,1.407-2.491,2.138c0.082-0.106,0.216-0.188,0.272-0.269l-0.244,0.134
	c0.025-0.081,0.106-0.134,0.135-0.19c-1.544,1.599-2.223,2.412-2.682,4.471c-0.406,1.569-1.329,2.735-2.981,2.601
	c0.543-1.682,0.082-2.926-1.678-3.55c-2.816-0.919-7.748,0.76-7.638,4.335c0.025,1.272,1.219,2.978,2.491,3.115
	c1.275,0.135,3.981-2.168,4.606,0.025c0.053,0.247-1.707,0.816-1.409,1.572c0.243,0.65,1.788,0.488,2.113,1.193
	c0.378,0.731-0.082,1.625,0.487,2.302c1.544,1.923,3.792-0.165,5.257-0.757c2.219-0.976,4.469,0.053,6.282,1.352
	c1.788,1.273,3.66,2.034,5.501,3.089c1.516,0.923,2.49,2.519,4.173,3.225c1.92,0.813,5.279,0.813,6.498,2.762
	c1.301,2.005-2.113,3.253-2.408,5.12c-0.164,1.002,0.539,1.898,0.512,2.896c-0.082,1.219-1.002,1.735-2.004,2.304
	c-0.975,0.517-2.301,0.894-2.924,1.922c-0.463,0.759-0.242,1.683-0.488,2.442c-0.649,2.03-3.062,3.302-4.524,4.711
	c0.027,0.026,0.027,0.026,0.027,0.082c-0.215,0.162-0.434,0.296-0.731,0.407c0.19-0.19,0.325-0.354,0.459-0.545
	c-0.431,0.272-0.947,0.57-1.218,0.975c-0.813,1.41-0.028,5.015,0.516,6.477c1.002,2.6-0.894,2.763-2.763,1.515
	c-4.606-2.949-4.85-8.91-4.225-13.869c0.432-3.193,1.191-6.174-1.543-8.394c-2.116-1.683-5.745-4.038-5.338-7.127
	c0.244-1.733,2.979-3.952,1.788-5.581c-0.597-0.811-1.897-1.243-2.6-2.003c-0.704-0.759-1.191-1.328-2.004-1.841
	c-0.84-0.487-1.518-1.083-2.275-1.543c-1.247-0.759-2.872-0.65-4.281-0.894c-3.413-0.516-3.495-2.141-4.388-4.985
	c-1.516-0.056-1.435,0.107-1.625-1.3c-0.163-1.166-0.569-1.625-1.329-2.303c-1.109-0.975-2.247-2.085-3.006-3.36
	c-1.788,4.606-2.816,9.616-2.816,14.898c0,22.51,18.229,40.768,40.766,40.768c15.576,0,29.09-8.67,35.945-21.507
	c-1.463-2.493,1.193-4.472,1.301-7.232c0.057-2.52-3.684-2.901-3.791-5.688c-0.109-3.928-2.656-3.846-5.826-2.359
	C26.058,7.423,24.132,6.2,22.24,3.169C21.156,1.435,20.046-0.65,20.423-2.765z"/>
</svg>
