<?xml version="1.0" encoding="utf-8"?>
<!-- Generator: Adobe Illustrator 16.0.0, SVG Export Plug-In . SVG Version: 6.00 Build 0)  -->
<!DOCTYPE svg PUBLIC "-//W3C//DTD SVG 1.1//EN" "http://www.w3.org/Graphics/SVG/1.1/DTD/svg11.dtd">
<svg version="1.1" id="分離模式" xmlns="http://www.w3.org/2000/svg" xmlns:xlink="http://www.w3.org/1999/xlink" x="0px"
	 y="0px" width="26.881px" height="26.882px" viewBox="0 0 26.881 26.882" enable-background="new 0 0 26.881 26.882"
	 xml:space="preserve">
<path d="M26.881,25.816l-7.101-7.102c1.74-1.986,2.804-4.58,2.804-7.423C22.585,5.065,17.521,0,11.292,0C5.064,0,0,5.065,0,11.292
	c0,6.228,5.065,11.293,11.292,11.293c2.843,0,5.438-1.063,7.424-2.806l7.102,7.103L26.881,25.816z M11.292,21.08
	c-5.396,0-9.787-4.391-9.787-9.788c0-5.396,4.391-9.786,9.787-9.786c5.396,0,9.787,4.39,9.787,9.786
	C21.079,16.689,16.688,21.08,11.292,21.08z"/>
</svg>
