<?xml version="1.0" encoding="utf-8"?>
<!-- Generator: Adobe Illustrator 16.0.0, SVG Export Plug-In . SVG Version: 6.00 Build 0)  -->
<!DOCTYPE svg PUBLIC "-//W3C//DTD SVG 1.1//EN" "http://www.w3.org/Graphics/SVG/1.1/DTD/svg11.dtd">
<svg version="1.1" id="圖層_1" xmlns="http://www.w3.org/2000/svg" xmlns:xlink="http://www.w3.org/1999/xlink" x="0px" y="0px"
	 width="27.723px" height="42.18px" viewBox="0 0 27.723 42.18" enable-background="new 0 0 27.723 42.18" xml:space="preserve">
<path d="M13.861,0C6.208,0,0,6.208,0,13.861c0,2.466,0.652,4.791,1.786,6.803L13.861,42.18l12.076-21.516
	c1.134-2.012,1.785-4.337,1.785-6.803C27.723,6.208,21.515,0,13.861,0z M13.861,22.224c-4.62,0-8.362-3.742-8.362-8.362
	s3.742-8.362,8.362-8.362s8.362,3.742,8.362,8.362S18.481,22.224,13.861,22.224z M13.861,10.233c-2.013,0-3.628,1.615-3.628,3.628
	s1.615,3.628,3.628,3.628s3.629-1.615,3.629-3.628S15.874,10.233,13.861,10.233z"/>
</svg>
