<?xml version="1.0" encoding="utf-8"?>
<!-- Generator: Adobe Illustrator 16.0.0, SVG Export Plug-In . SVG Version: 6.00 Build 0)  -->
<!DOCTYPE svg PUBLIC "-//W3C//DTD SVG 1.1//EN" "http://www.w3.org/Graphics/SVG/1.1/DTD/svg11.dtd">
<svg version="1.1" id="icon" xmlns="http://www.w3.org/2000/svg" xmlns:xlink="http://www.w3.org/1999/xlink" x="0px" y="0px"
	 width="28px" height="44px" viewBox="0 0 28 44" enable-background="new 0 0 28 44" xml:space="preserve">
<path fill="#3E3A39" d="M14,0C4.972,0,0,4.972,0,14v16c0,9.028,4.972,14,14,14s14-4.972,14-14V14C28,4.972,23.028,0,14,0z M26,30
	c0,7.963-4.037,12-12,12S2,37.963,2,30V14C2,6.037,6.037,2,14,2s12,4.037,12,12V30z"/>
<path fill="#3E3A39" d="M14,6c-0.553,0-1,0.447-1,1v4c0,0.553,0.447,1,1,1s1-0.447,1-1V7C15,6.447,14.553,6,14,6z"/>
</svg>
