<?xml version="1.0" encoding="utf-8"?>
<!-- Generator: Adobe Illustrator 16.0.0, SVG Export Plug-In . SVG Version: 6.00 Build 0)  -->
<!DOCTYPE svg PUBLIC "-//W3C//DTD SVG 1.1//EN" "http://www.w3.org/Graphics/SVG/1.1/DTD/svg11.dtd">
<svg version="1.1" id="Layer_1" xmlns="http://www.w3.org/2000/svg" xmlns:xlink="http://www.w3.org/1999/xlink" x="0px" y="0px"
	 width="77.823px" height="100px" viewBox="11.089 0 77.823 100" enable-background="new 11.089 0 77.823 100" xml:space="preserve"
	>
<g>
	<path fill="#43424D" d="M71.916,18.751c0.041,0.014,0.103,0.014,0.146,0.014h16.422L70.137,0.467v16.389
		c0,0.043,0,0.088,0.014,0.132C70.21,17.943,70.973,18.695,71.916,18.751z"/>
	<path fill="#43424D" d="M15.646,89.895V60.841h-3.928v31.257c0,0.071,0,0.144,0.022,0.217c0.072,0.787,0.695,1.41,1.486,1.483
		c0.072,0.022,0.12,0.022,0.19,0.022h44.98l-4.049-3.928H15.646V89.895z"/>
	<path fill="#43424D" d="M71.857,22.184c-2.852,0-5.148-2.275-5.148-5.124V0.03H13.418c-0.144,0-0.311,0.025-0.452,0.07
		c-0.599,0.146-1.032,0.6-1.198,1.201c-0.026,0.145-0.049,0.289-0.049,0.454v26.346h3.928V3.958h47.132V17.06
		c0,5.004,4.072,9.053,9.08,9.053h13.125v54.704h1.053c1.174,0,2.131,0.285,2.875,0.764V22.184H71.857z"/>
	<path fill="#43424D" d="M86.035,85.077h-1.051h-3.93c-1.01,0-1.842-0.813-1.842-1.816V73.033c0-1.008-0.291-3.068-0.674-3.311
		c-0.359-0.213-1.484-0.404-2.492-0.404H67.33c-0.621,0-1.506,0.146-2.156,0.404c-0.381,0.146-0.645,0.34-0.715,0.531
		c-0.168,0.521-0.313,1.771-0.313,2.777V83.26c0,1.004-0.814,1.816-1.82,1.816h-4.981c-1.005,0-1.242,0.574-0.505,1.294l3.642,3.522
		l4.071,3.926l5.822,5.632c0.719,0.692,1.914,0.692,2.633,0l5.818-5.632l2.896-2.801l1.178-1.125l2.084-2.035l0.5-0.481l1.057-1.006
		C87.283,85.65,87.042,85.077,86.035,85.077z"/>
	<g>
		<path fill="#43424D" d="M23.515,44.031c-0.749,0-1.277,0.048-1.552,0.125v4.991c0.323,0.072,0.698,0.1,1.278,0.1
			c2.029,0,3.283-1.029,3.283-2.735C26.524,44.957,25.445,44.031,23.515,44.031z"/>
		<path fill="#43424D" d="M38.293,44.056c-0.829,0-1.405,0.074-1.729,0.149v11.059c0.323,0.076,0.877,0.076,1.327,0.076
			c3.483,0.024,5.767-1.88,5.767-5.919C43.658,45.911,41.603,44.056,38.293,44.056z"/>
		<path fill="#43424D" d="M64.589,34.315h-53.5v30.097h53.5c1.672,0,3.037-1.402,3.037-3.114V37.429
			C67.626,35.717,66.262,34.315,64.589,34.315z M28.758,50.397c-1.307,1.207-3.238,1.785-5.494,1.785
			c-0.498,0-0.952-0.027-1.301-0.1v6.066h-3.791V41.473c1.183-0.202,2.837-0.351,5.17-0.351c2.355,0,4.032,0.45,5.164,1.353
			c1.104,0.853,1.804,2.256,1.804,3.913C30.31,48.042,29.784,49.472,28.758,50.397z M44.914,56.141
			c-1.783,1.481-4.514,2.186-7.826,2.186c-1.98,0-3.409-0.131-4.336-0.251V41.496c1.402-0.225,3.233-0.374,5.14-0.374
			c3.234,0,5.341,0.601,6.945,1.804c1.756,1.306,2.861,3.386,2.861,6.371C47.699,52.529,46.515,54.764,44.914,56.141z
			 M60.546,44.381h-6.498v3.862h6.07v3.108h-6.07v6.797h-3.81v-16.9h10.308V44.381L60.546,44.381z"/>
	</g>
</g>
</svg>
