<?xml version="1.0" encoding="utf-8"?>
<!-- Generator: Adobe Illustrator 16.0.0, SVG Export Plug-In . SVG Version: 6.00 Build 0)  -->
<!DOCTYPE svg PUBLIC "-//W3C//DTD SVG 1.1//EN" "http://www.w3.org/Graphics/SVG/1.1/DTD/svg11.dtd">
<svg version="1.1" id="Layer_1" xmlns="http://www.w3.org/2000/svg" xmlns:xlink="http://www.w3.org/1999/xlink" x="0px" y="0px"
	 width="717.822px" height="714.796px" viewBox="0 0 717.822 714.796" enable-background="new 0 0 717.822 714.796"
	 xml:space="preserve">
<g>
	<path d="M185.013,351.525c34.69,0,62.913-28.223,62.913-62.913c0-34.691-28.223-62.914-62.913-62.914s-62.914,28.223-62.914,62.914
		C122.099,323.303,150.322,351.525,185.013,351.525z M185.013,259.698c15.942,0,28.913,12.971,28.913,28.914
		c0,15.942-12.971,28.913-28.913,28.913c-15.943,0-28.914-12.971-28.914-28.913C156.099,272.669,169.07,259.698,185.013,259.698z"/>
	<path d="M448.384,88.775c10.365,0,18.799-8.433,18.799-18.798c0-10.366-8.434-18.799-18.799-18.799
		c-10.367,0-18.799,8.433-18.799,18.799C429.585,80.343,438.017,88.775,448.384,88.775z"/>
	<path d="M334.861,609.823H314.26l-56.052-231.216c25.171-20.511,41.605-51.347,42.786-85.99l129.634-145.248l29.227,59.745
		c0.001,0.004,0.003,0.007,0.005,0.01c0.004,0.009,0.007,0.018,0.011,0.026c3.965,8.054,11.469,14.419,20.588,17.463
		c3.764,1.258,7.541,1.884,11.26,1.884c4.847,0,9.592-1.078,14.08-3.195c0.091-0.039,0.18-0.086,0.27-0.127
		c0.207-0.1,0.416-0.189,0.621-0.293c0.006-0.002,0.01-0.006,0.016-0.008c0.013-0.008,0.026-0.013,0.039-0.02l2.614-1.336
		l13.233,26.129c-7.232,7.611-11.686,17.888-11.686,29.191c0,1.832,0.131,3.633,0.356,5.404l-43.665,26.144
		c-0.023,0.013-0.042,0.03-0.064,0.042c-9.556,5.729-15.489,16.103-15.489,27.105v86.445c0,7.732,6.267,14,14,14
		c7.731,0,14-6.268,14-14v-86.445c0-1.217,0.728-2.405,1.897-3.102c0.005-0.002,0.009-0.006,0.013-0.008
		c0.009-0.006,0.018-0.01,0.026-0.015l41.895-25.084c7.637,7.382,18.021,11.936,29.455,11.936s21.816-4.554,29.453-11.935
		l41.895,25.083c0.009,0.005,0.018,0.009,0.025,0.015c0.006,0.003,0.011,0.006,0.016,0.01c1.357,0.806,1.561,2.289,1.561,3.102
		v86.443c0,7.732,6.268,14,14,14s14-6.268,14-14v-86.445c0,0,0,0,0-0.001v-0.001c-0.002-11.297-5.668-21.419-15.158-27.105
		c-0.021-0.012-0.039-0.027-0.061-0.04l-43.665-26.144c0.226-1.771,0.356-3.572,0.356-5.404c0-23.392-19.031-42.422-42.422-42.422
		c-1.983,0-3.932,0.147-5.843,0.412l-13.196-26.054l2.727-1.394c0.016-0.008,0.029-0.018,0.045-0.026
		c8.157-4.167,14.465-11.628,17.311-20.488c2.812-8.751,2.01-18.093-2.257-26.31c-0.005-0.012-0.01-0.023-0.015-0.034
		l-36.664-70.555c1.893-6.339,2.925-13.046,2.925-19.991C518.361,31.392,486.97,0,448.384,0c-37.731,0-68.565,30.022-69.912,67.431
		l-176.54,106.36c-5.525-0.811-11.172-1.237-16.919-1.237c-63.995,0-116.059,52.063-116.059,116.059
		c0,36.137,16.604,68.467,42.582,89.768L55.429,609.823H34.491C15.473,609.823,0,625.446,0,644.65v53.146c0,9.389,7.611,17,17,17
		h335.688c9.389,0,17-7.611,17-17V644.65c0-0.001,0-0.001,0-0.001v-0.001C369.687,625.446,354.063,609.823,334.861,609.823z
		 M567.751,276.839c0,1.934-0.389,3.777-1.082,5.464c-0.199,0.379-0.379,0.763-0.539,1.151c-2.402,4.631-7.234,7.808-12.801,7.808
		c-5.568,0-10.4-3.177-12.803-7.809c-0.161-0.388-0.34-0.771-0.538-1.15c-0.694-1.687-1.083-3.53-1.083-5.464
		c0-4.957,2.516-9.338,6.336-11.935c0.494-0.183,0.982-0.392,1.463-0.635c0.529-0.268,1.025-0.573,1.504-0.896
		c1.594-0.609,3.315-0.957,5.121-0.957C561.28,262.417,567.751,268.887,567.751,276.839z M34,644.65
		c0-0.513,0.318-0.827,0.491-0.827h34.191c0.044,0,0.088,0.004,0.132,0.004c0.031,0,0.061-0.004,0.092-0.004h231.878
		c0.031,0,0.062,0.004,0.092,0.004c0.044,0,0.088-0.004,0.132-0.004h33.854c0.363,0,0.828,0.465,0.828,0.829v36.144H34V644.65z
		 M494.187,122.813l27.744,53.388c0.002,0.005,0.006,0.01,0.008,0.015v0.001c0.051,0.099,0.076,0.163,0.084,0.175
		c-0.004,0.017-0.01,0.042-0.021,0.076c-0.082,0.256-0.305,0.534-0.432,0.625c-0.002,0.002-0.004,0.003-0.008,0.004
		c-0.006,0.004-0.014,0.007-0.02,0.01l-30.021,15.344c-0.074-0.019-0.172-0.045-0.296-0.086c-0.465-0.156-0.819-0.383-0.994-0.523
		l-26.25-53.661C475.349,135.581,485.665,130.211,494.187,122.813z M448.384,34c19.838,0,35.978,16.14,35.978,35.978
		s-16.14,35.977-35.978,35.977s-35.978-16.139-35.978-35.977S428.546,34,448.384,34z M386.38,102.359
		c4.602,8.774,11.008,16.451,18.726,22.546l-110.93,124.292c-9.296-25.667-27.401-47.146-50.645-60.774L386.38,102.359z
		 M102.954,288.612c0-45.247,36.812-82.059,82.059-82.059c43.671,0,79.473,34.295,81.915,77.365
		c-0.279,1.881-0.232,3.793,0.119,5.658c-0.323,27.834-14.559,52.384-36.081,66.985c-0.833,0.446-1.623,0.951-2.358,1.521
		c-12.641,7.961-27.583,12.587-43.594,12.587C139.766,370.67,102.954,333.859,102.954,288.612z M142.138,396.46
		c13.271,5.293,27.738,8.21,42.875,8.21c15.02,0,29.382-2.868,42.568-8.085l51.694,213.238H90.413L142.138,396.46z"/>
	<path d="M717.822,600.249c-0.001-19.202-15.624-34.825-34.827-34.825h-33.453v-43.882c0-9.389-7.611-17-17-17H473.779
		c-9.39,0-17,7.611-17,17v43.882h-33.454c-19.02,0-34.492,15.623-34.492,34.827v97.545c0,9.389,7.612,17,17,17h294.989
		c9.39,0,17-7.611,17-17v-97.545l0,0V600.249z M490.779,538.542h124.763v26.882H490.779V538.542z M683.822,680.796H422.833v-80.545
		c0-0.513,0.319-0.827,0.492-0.827h259.67c0.363,0,0.827,0.465,0.827,0.829V680.796z"/>
</g>
</svg>
