<?xml version="1.0" encoding="utf-8"?>
<!-- Generator: Adobe Illustrator 16.0.0, SVG Export Plug-In . SVG Version: 6.00 Build 0)  -->
<!DOCTYPE svg PUBLIC "-//W3C//DTD SVG 1.1//EN" "http://www.w3.org/Graphics/SVG/1.1/DTD/svg11.dtd">
<svg version="1.1" id="sign" xmlns="http://www.w3.org/2000/svg" xmlns:xlink="http://www.w3.org/1999/xlink" x="0px" y="0px"
	 width="100px" height="100px" viewBox="0 0 100 100" enable-background="new 0 0 100 100" xml:space="preserve">
<path fill="#050A0F" d="M53.213,78.935l25.72-25.722c1.638-1.634,1.638-4.288,0.005-5.924c-1.637-1.633-4.291-1.636-5.924,0
	L54.439,65.863V24.528c0-2.313-1.877-4.189-4.189-4.189s-4.189,1.877-4.189,4.189v41.335L27.486,47.289
	c-1.632-1.633-4.287-1.633-5.923,0c-1.634,1.636-1.634,4.29,0,5.924l25.724,25.722C48.921,80.568,51.579,80.568,53.213,78.935z
	 M100.5,50.254C100.5,22.544,77.957,0,50.254,0C22.545,0,0,22.544,0,50.254C0,77.959,22.545,100.5,50.254,100.5
	C77.957,100.5,100.5,77.959,100.5,50.254z M8.373,50.25c0-23.127,18.748-41.875,41.877-41.875S92.127,27.123,92.127,50.25
	c0,23.127-18.748,41.875-41.877,41.875S8.373,73.377,8.373,50.25z"/>
</svg>
