<?xml version="1.0" encoding="utf-8"?>
<!-- Generator: Adobe Illustrator 16.0.0, SVG Export Plug-In . SVG Version: 6.00 Build 0)  -->
<!DOCTYPE svg PUBLIC "-//W3C//DTD SVG 1.1//EN" "http://www.w3.org/Graphics/SVG/1.1/DTD/svg11.dtd">
<svg version="1.1" id="Layer_1" xmlns="http://www.w3.org/2000/svg" xmlns:xlink="http://www.w3.org/1999/xlink" x="0px" y="0px"
	 width="110.905px" height="119.02px" viewBox="0 0 110.905 119.02" enable-background="new 0 0 110.905 119.02"
	 xml:space="preserve">
<g>
	<path d="M107.836,65.386L65.094,47.219L60.744,4.49C60.365,1.846,58.189,0,55.454,0c-2.737,0-4.916,1.879-5.301,4.59l-4.339,42.629
		L2.976,65.429c-2.256,1.074-3.395,3.465-2.834,5.949c0.561,2.488,2.66,4.226,5.105,4.227c0.299,0,0.591-0.026,0.963-0.088
		l42.587-8.593l-5.722,47.096H20.296v5h70.316v-5H67.833l-5.722-47.096l42.689,8.612c2.845,0.443,5.34-1.384,5.966-4.157
		C111.328,68.893,110.158,66.488,107.836,65.386z M67.576,59.208c0.039-0.146,0.079-0.292,0.112-0.438
		c0.039-0.176,0.072-0.354,0.105-0.534c0.039-0.216,0.071-0.432,0.11-0.742c0.015-0.113,0.029-0.227,0.04-0.34
		c0.034-0.376,0.057-0.754,0.057-1.133c0-0.455-0.03-0.931-0.091-1.455c-0.014-0.115-0.032-0.229-0.051-0.343l-0.025-0.157
		c-0.015-0.089-0.029-0.178-0.045-0.267l37.995,16.146c0.088,0.042,0.163,0.078,0.107,0.331c-0.001,0.003-0.072,0.29-0.272,0.327
		l-39.518-7.974c0.069-0.112,0.139-0.224,0.205-0.338c0.108-0.188,0.214-0.379,0.314-0.576c0.058-0.114,0.112-0.231,0.166-0.345
		c0.102-0.212,0.201-0.423,0.314-0.707C67.277,60.22,67.429,59.76,67.576,59.208z M49.775,51.064
		c0.066-0.076,0.137-0.149,0.24-0.256c0.158-0.165,0.319-0.324,0.515-0.497c0.171-0.148,0.349-0.285,0.529-0.416l-0.294-0.405
		l0.39,0.333c0.149-0.105,0.306-0.199,0.457-0.29l0.202-0.124c0.084-0.046,0.171-0.087,0.257-0.129l0.218-0.106
		c0.069-0.035,0.14-0.071,0.212-0.102l0.316-0.119c0.13-0.051,0.258-0.101,0.391-0.143l-0.143-0.479l0.246,0.452
		c0.464-0.137,0.926-0.23,1.37-0.275c0.51-0.052,1.036-0.052,1.544,0c0.445,0.045,0.907,0.138,1.371,0.275l0.142-0.479l-0.039,0.506
		c0.134,0.042,0.262,0.092,0.468,0.173l0.239,0.089c0.073,0.031,0.144,0.067,0.213,0.102l0.218,0.106
		c0.086,0.042,0.173,0.083,0.254,0.127l0.202,0.124c0.155,0.093,0.312,0.187,0.461,0.291l0.286-0.41l-0.19,0.483
		c0.181,0.131,0.358,0.268,0.556,0.44c0.165,0.146,0.324,0.303,0.492,0.477c0.092,0.094,0.183,0.188,0.269,0.287l0.377-0.328
		l-0.308,0.405c0.123,0.146,0.234,0.3,0.344,0.45l0.119,0.159c0.044,0.064,0.084,0.132,0.123,0.199l0.065,0.109
		c0.729,1.19,1.114,2.548,1.114,3.926c0,0.287-0.02,0.572-0.067,0.952l-0.016,0.101c-0.031,0.221-0.069,0.44-0.12,0.657
		l-0.048,0.186c-0.059,0.224-0.127,0.445-0.211,0.676l-0.046,0.125c-0.096,0.249-0.203,0.493-0.34,0.764
		c-0.271,0.52-0.601,1.008-1.035,1.509c-0.17,0.193-0.352,0.378-0.542,0.556l-0.104,0.096c-0.194,0.173-0.397,0.338-0.611,0.493
		c-0.476,0.344-0.97,0.626-1.469,0.837c-1.823,0.771-4.06,0.771-5.881-0.002c-0.495-0.211-0.987-0.492-1.464-0.836
		c-0.213-0.154-0.416-0.318-0.61-0.493l-0.105-0.096c-0.189-0.176-0.371-0.361-0.594-0.613c-0.382-0.443-0.712-0.931-0.998-1.484
		c-0.121-0.237-0.229-0.482-0.326-0.734l-0.05-0.136c-0.078-0.216-0.146-0.438-0.22-0.718l-0.033-0.13
		c-0.051-0.215-0.089-0.435-0.12-0.654l-0.03-0.201c-0.033-0.282-0.053-0.566-0.053-0.854c0-1.432,0.411-2.832,1.186-4.045
		l0.114-0.186c0.03-0.044,0.063-0.086,0.096-0.128l0.119-0.159c0.079-0.108,0.158-0.216,0.245-0.319l-0.384-0.321L49.775,51.064z
		 M55.115,5.198C55.126,5.119,55.144,5,55.454,5c0.032,0,0.313,0.003,0.328,0.097l3.982,39.145c-2.771-1.025-5.85-1.025-8.621,0
		L55.115,5.198z M53.65,68.425l0.281,0.039c0.101,0.015,0.202,0.03,0.304,0.04c0.282,0.027,0.564,0.036,0.847,0.044l0.135,0.007
		c0.166,0.013,0.333,0.01,0.499-0.001l0.221-0.011c0.244-0.008,0.488-0.016,0.731-0.039c0.114-0.011,0.226-0.028,0.338-0.045
		l0.251-0.035l5.539,45.595H48.112L53.65,68.425z M42.964,57.152c0.011,0.114,0.025,0.228,0.052,0.433
		c0.027,0.218,0.06,0.434,0.099,0.651c0.033,0.179,0.066,0.357,0.105,0.533c0.033,0.147,0.073,0.293,0.125,0.486
		c0.132,0.493,0.286,0.962,0.487,1.473c0.087,0.213,0.185,0.42,0.323,0.714c0.044,0.093,0.088,0.186,0.134,0.275
		c0.1,0.194,0.204,0.384,0.313,0.572c0.063,0.109,0.129,0.217,0.205,0.339L5.281,70.601c-0.157,0-0.248-0.256-0.264-0.324
		c-0.021-0.096-0.046-0.262,0.01-0.29l38.092-16.189c-0.016,0.087-0.03,0.175-0.044,0.263l-0.022,0.139
		c-0.021,0.122-0.04,0.244-0.055,0.366c-0.061,0.525-0.091,1-0.091,1.455C42.907,56.398,42.93,56.776,42.964,57.152z"/>
	<path d="M39.646,84.222l0.872,0.487l2.447-4.358l-0.871-0.488c-2.724-1.528-5.152-3.502-7.221-5.865l-0.658-0.753l-3.763,3.292
		l0.659,0.752C33.553,80.08,36.424,82.413,39.646,84.222z"/>
	<path d="M80.703,76.202l0.625-0.781l-3.904-3.123l-0.625,0.78c-2.951,3.69-6.82,6.566-11.189,8.317l-0.93,0.372l1.859,4.643
		l0.928-0.373C72.636,83.968,77.212,80.566,80.703,76.202z"/>
	<path d="M85.591,44.265l-4.713,1.671l0.336,0.943c0.679,1.915,1.143,3.91,1.378,5.931l0.116,0.993l4.967-0.58l-0.115-0.993
		c-0.28-2.392-0.829-4.755-1.634-7.023L85.591,44.265z"/>
	<path d="M80.246,44.512l0.422,0.906l4.533-2.108l-0.422-0.907c-3.395-7.295-9.341-13.038-16.742-16.168l-0.921-0.39l-1.947,4.605
		l0.921,0.39C72.35,33.487,77.377,38.343,80.246,44.512z"/>
	<path d="M40.211,33.336c1.388-0.933,2.861-1.74,4.379-2.399l0.916-0.397l-1.988-4.587L42.6,26.351
		c-1.795,0.778-3.538,1.732-5.18,2.836l-0.83,0.559l2.791,4.148L40.211,33.336z"/>
	<path d="M33.762,32.053c-4.965,4.495-8.366,10.308-9.835,16.808l-0.221,0.976l4.877,1.102l0.219-0.975
		c1.242-5.492,4.118-10.403,8.317-14.204l0.74-0.671l-3.355-3.707L33.762,32.053z"/>
	<path d="M21.273,41.489c4.105-9.644,12.134-17.139,22.025-20.564l0.943-0.328l-1.637-4.724L41.66,16.2
		C30.438,20.087,21.33,28.59,16.674,39.53l-0.393,0.92l4.602,1.958L21.273,41.489z"/>
	<path d="M18.357,54.478c0.134-3.314,0.709-6.588,1.71-9.732l0.303-0.953l-4.766-1.515l-0.303,0.953
		c-1.136,3.569-1.789,7.285-1.942,11.045l-0.039,0.998l4.996,0.204L18.357,54.478z"/>
	<path d="M20.861,80.092l1.205,1.621l0.007-0.005c0.446,0.578,0.91,1.149,1.387,1.705l-0.016,0.015l1.351,1.479l0.006-0.006
		c4.493,4.767,10.071,8.456,16.161,10.687l0.939,0.344l1.719-4.695l-0.939-0.344C37.02,88.82,31.885,85.34,27.812,80.807
		c-0.829-0.925-1.61-1.887-2.328-2.868c-0.532-0.724-1.051-1.489-1.541-2.276l-0.53-0.85l-4.242,2.65l0.531,0.848
		c0.356,0.571,0.743,1.154,1.175,1.771L20.861,80.092z"/>
	<path d="M87.464,74.841c-0.746,1.267-1.574,2.5-2.467,3.673c-0.447,0.586-0.917,1.164-1.409,1.734
		c-4.186,4.854-9.568,8.562-15.566,10.72l-0.94,0.34l1.693,4.703l0.939-0.338c6.478-2.331,12.348-6.28,17.006-11.438l0.018,0.015
		l1.297-1.525l-0.007-0.006c0.108-0.132,0.216-0.265,0.323-0.397l0.019,0.014l1.188-1.586l-0.005-0.004
		c0.827-1.136,1.573-2.267,2.22-3.367l0.508-0.863l-4.309-2.535L87.464,74.841z"/>
	<path d="M75.908,25.026C86.35,31.932,92.583,43.518,92.583,56.02v1h5v-1c0-14.185-7.072-27.33-18.918-35.163l-0.835-0.552
		l-2.756,4.17L75.908,25.026z"/>
	<path d="M72.787,23.174l0.884,0.468l2.338-4.42l-0.884-0.467c-1.872-0.991-3.83-1.844-5.821-2.535l-0.945-0.328l-1.641,4.723
		l0.945,0.328C69.415,21.552,71.14,22.303,72.787,23.174z"/>
</g>
</svg>
