<?xml version="1.0" encoding="utf-8"?>
<!-- Generator: Adobe Illustrator 16.0.0, SVG Export Plug-In . SVG Version: 6.00 Build 0)  -->
<!DOCTYPE svg PUBLIC "-//W3C//DTD SVG 1.1//EN" "http://www.w3.org/Graphics/SVG/1.1/DTD/svg11.dtd">
<svg version="1.1" id="圖層_1" xmlns="http://www.w3.org/2000/svg" xmlns:xlink="http://www.w3.org/1999/xlink" x="0px" y="0px"
	 width="87px" height="87px" viewBox="0 0 87 87" enable-background="new 0 0 87 87" xml:space="preserve">
<g>
	<path d="M43.53,21.599c-12.107,0-21.959,9.85-21.959,21.958c0,12.111,9.852,21.961,21.959,21.961
		c12.109,0,21.961-9.85,21.961-21.961C65.491,31.448,55.639,21.599,43.53,21.599z M43.53,58.656c-8.325,0-15.098-6.773-15.098-15.1
		c0-8.324,6.772-15.097,15.098-15.097c8.326,0,15.1,6.772,15.1,15.097C58.629,51.883,51.856,58.656,43.53,58.656z"/>
	<path d="M43.531,69.802c-1.42,0-2.573,1.152-2.573,2.573v12.053c0,1.42,1.153,2.572,2.573,2.572c1.423,0,2.573-1.152,2.573-2.572
		V72.375C46.104,70.954,44.954,69.802,43.531,69.802z"/>
	<path d="M84.428,40.895H72.375c-1.421,0-2.573,1.153-2.573,2.573c0,1.421,1.152,2.573,2.573,2.573h12.053
		c1.421,0,2.572-1.152,2.572-2.573C87,42.048,85.849,40.895,84.428,40.895z"/>
	<path d="M43.47,17.196c1.423,0,2.573-1.15,2.573-2.573V2.572c0-1.42-1.15-2.572-2.573-2.572c-1.42,0-2.572,1.152-2.572,2.572
		v12.051C40.898,16.046,42.05,17.196,43.47,17.196z"/>
	<path d="M17.197,43.528c0-1.421-1.152-2.573-2.572-2.573H2.574C1.153,40.955,0,42.107,0,43.528c0,1.42,1.152,2.575,2.573,2.575
		h12.051C16.044,46.104,17.197,44.948,17.197,43.528z"/>
	<path d="M60.194,67.204c-0.713-1.231-2.285-1.655-3.516-0.943c-1.231,0.71-1.653,2.286-0.942,3.516l4.311,7.466
		c0.477,0.826,1.342,1.287,2.231,1.287c0.437,0,0.879-0.109,1.284-0.345c1.231-0.71,1.652-2.284,0.941-3.516L60.194,67.204z"/>
	<path d="M68.494,31.61c0.438,0,0.88-0.112,1.285-0.347l7.466-4.31c1.231-0.71,1.653-2.284,0.943-3.516
		c-0.713-1.231-2.285-1.652-3.516-0.94l-7.467,4.309c-1.23,0.711-1.652,2.285-0.941,3.516C66.742,31.147,67.605,31.61,68.494,31.61z
		"/>
	<path d="M26.808,19.792c0.478,0.827,1.342,1.288,2.232,1.288c0.436,0,0.878-0.11,1.283-0.345c1.231-0.711,1.652-2.285,0.942-3.517
		l-4.309-7.465c-0.713-1.229-2.284-1.651-3.516-0.938c-1.231,0.71-1.653,2.282-0.943,3.514L26.808,19.792z"/>
	<path d="M17.221,55.736l-7.463,4.31c-1.231,0.71-1.652,2.284-0.942,3.516c0.477,0.824,1.342,1.285,2.23,1.285
		c0.438,0,0.879-0.11,1.285-0.345l7.464-4.309c1.229-0.711,1.651-2.284,0.941-3.514C20.026,55.448,18.454,55.026,17.221,55.736z"/>
	<path d="M77.275,59.994l-7.466-4.312c-1.229-0.712-2.804-0.289-3.516,0.942c-0.71,1.231-0.289,2.804,0.942,3.514l7.466,4.312
		c0.405,0.234,0.848,0.345,1.285,0.345c0.889,0,1.755-0.461,2.231-1.287C78.928,62.275,78.505,60.704,77.275,59.994z"/>
	<path d="M56.625,20.706c0.405,0.234,0.848,0.347,1.284,0.347c0.889,0,1.755-0.461,2.232-1.285l4.311-7.468
		c0.71-1.231,0.288-2.804-0.942-3.514c-1.231-0.715-2.804-0.291-3.516,0.938l-4.312,7.468
		C54.973,18.424,55.395,19.996,56.625,20.706z"/>
	<path d="M9.727,27.006l7.465,4.312c0.406,0.234,0.849,0.343,1.284,0.343c0.889,0,1.755-0.459,2.23-1.285
		c0.711-1.231,0.289-2.804-0.94-3.514l-7.464-4.312c-1.231-0.712-2.806-0.291-3.516,0.94C8.077,24.72,8.497,26.296,9.727,27.006z"/>
	<path d="M30.375,66.294c-1.231-0.712-2.805-0.286-3.515,0.943l-4.31,7.463c-0.71,1.231-0.289,2.804,0.942,3.514
		c0.404,0.235,0.847,0.347,1.283,0.347c0.89,0,1.755-0.463,2.232-1.287l4.309-7.464C32.029,68.58,31.607,67.007,30.375,66.294z"/>
	<path d="M40.362,31.656c-4.43,1.354-7.929,4.981-9.13,9.467c-0.307,1.145,0.373,2.32,1.517,2.629
		c0.188,0.05,0.373,0.073,0.557,0.073c0.947,0,1.815-0.632,2.072-1.589c0.823-3.069,3.213-5.549,6.238-6.475
		c1.135-0.35,1.771-1.547,1.426-2.679C42.696,31.949,41.496,31.312,40.362,31.656z"/>
</g>
</svg>
