<?xml version="1.0" encoding="utf-8"?>
<!-- Generator: Adobe Illustrator 16.0.0, SVG Export Plug-In . SVG Version: 6.00 Build 0)  -->
<!DOCTYPE svg PUBLIC "-//W3C//DTD SVG 1.1//EN" "http://www.w3.org/Graphics/SVG/1.1/DTD/svg11.dtd">
<svg version="1.1" id="圖層_1" xmlns="http://www.w3.org/2000/svg" xmlns:xlink="http://www.w3.org/1999/xlink" x="0px" y="0px"
	 width="50px" height="62.725px" viewBox="0 0 50 62.725" enable-background="new 0 0 50 62.725" xml:space="preserve">
<g>
	<path d="M44.022,16.264C44.606,11.336,41.38,1.479,32.915,1.32c-3.729-0.07-6.699,2.564-8.024,4.367
		c-2.015,2.742-3.319,6.32-3.173,10.129c0.058,1.498,0.257,5.031,1.234,6.266c-0.838,0.332-2.144-0.068-2.461-1.375
		c-0.656-2.693-1.94-10.861,3.5-17.09c-1.224-0.711-2.449-1.422-3.674-2.135c-2.162-1.256-5.156-1.08-8.459,0.828
		C5.289,6.104-0.021,15.301,0,22.85c0.011,3.746,1.335,6.385,3.469,7.625l21.483,12.484c-0.017-0.01-0.03-0.023-0.046-0.033
		c0.621,0.371,1.314,0.615,2.064,0.738c-0.109-3.045-2.007-8.084-2.007-8.084c3.587,2.688,5.218,9.051,4.712,14.088
		c-2.329,0.311-4.522,0.857-6.363,1.648c-6.073,2.607-6.042,6.842,0.071,9.449c6.118,2.611,16.007,2.611,22.08,0.004
		c6.08-2.611,6.041-6.842-0.077-9.453c-1.946-0.83-4.275-1.395-6.742-1.695c-0.6-2.813-1.655-5.906-3.499-8.648
		C41.792,35.709,48.253,23.875,44.022,16.264z M32.915,3.623c2.313,0,4.509,1.225,6.184,3.449c1.406,1.869,2.294,4.248,2.591,6.832
		c-4.621-2.686-9.242-5.373-13.864-8.059C29.313,4.41,31.075,3.623,32.915,3.623z M26.099,51.828
		c-3.313,2.162-2.63,5.037,2.063,6.912c2.944,1.176,6.861,1.715,10.702,1.629c-4.467,0.654-9.655,0.211-13.277-1.172
		C21.282,57.553,19.771,54.172,26.099,51.828z M32.679,38.033c-1.866-1.779-4.248-3.223-7.285-4.07
		c0.575-5.953,4.851-12.947,9.867-15.842c1.599-0.924,2.739-1.117,3.416-1.117c2.388,0,2.752,2.887,2.757,4.607
		C41.45,27.355,37.546,34.527,32.679,38.033z M41.69,13.916c0,0-0.001,0-0.002,0C41.689,13.916,41.689,13.916,41.69,13.916
		L41.69,13.916z"/>
</g>
</svg>
