<?xml version="1.0" encoding="utf-8"?>
<!-- Generator: Adobe Illustrator 22.0.1, SVG Export Plug-In . SVG Version: 6.00 Build 0)  -->
<svg version="1.1" id="圖層_1" xmlns="http://www.w3.org/2000/svg" xmlns:xlink="http://www.w3.org/1999/xlink" x="0px" y="0px"
	 viewBox="0 0 25 25.1" style="enable-background:new 0 0 25 25.1;" xml:space="preserve">
<g>
	<path d="M24.1,4.1C24.5,1,22.7,0,20.7,0c-1.6,0-3,0.9-4.2,1.6c-0.5,0.3-1,0.6-1.5,0.8c0-0.6-0.5-1.1-1-1.1h-2.7c-0.6,0-1,0.4-1,1.1
		C9.7,2.3,9.1,2,8.6,1.6C7.3,0.9,5.9,0,4.3,0C1.9,0,0.5,1.6,0.9,4.1C0.3,4.1,0,4.5,0,4.9v7.2c0,0.4,0.4,0.8,0.8,0.8h0.3v11.3
		c0,0.4,0.4,0.8,0.8,0.8H23c0.4,0,0.8-0.4,0.8-0.8V12.9h0.3c0.4,0,0.8-0.4,0.8-0.8V4.9C25,4.5,24.7,4.1,24.1,4.1z M17.3,3
		c1.1-0.7,2.3-1.3,3.4-1.4c1.9,0,2.1,1.4,1.8,2.5h-7.4C15.8,3.9,16.6,3.4,17.3,3z M4.3,1.6c1.1,0,2.3,0.7,3.4,1.4
		c0.7,0.4,1.4,0.9,2.1,1.1H2.5C2.3,3.3,2.2,1.7,4.3,1.6z M1.6,11.3V5.8h8.2v5.5H1.6z M22.2,23.5h-7v-9.3H9.8v9.3h-7V12.9h19.5V23.5z
		 M23.4,11.3h-8.2V5.8h8.2V11.3z"/>
</g>
</svg>
