<?xml version="1.0" encoding="utf-8"?>
<!-- Generator: Adobe Illustrator 22.0.1, SVG Export Plug-In . SVG Version: 6.00 Build 0)  -->
<svg version="1.1" id="圖層_1" xmlns="http://www.w3.org/2000/svg" xmlns:xlink="http://www.w3.org/1999/xlink" x="0px" y="0px"
	 viewBox="0 0 66 66" style="enable-background:new 0 0 66 66;" xml:space="preserve">
<g>
	<path d="M33,66c18.2,0,33-14.8,33-33S51.2,0,33,0S0,14.8,0,33S14.8,66,33,66z M33,4c16,0,29,13,29,29c0,16-13,29-29,29S4,49,4,33
		C4,17,17,4,33,4z"/>
	<path d="M31.8,30.3c0-6.3-5.2-11.5-11.5-11.5C14,18.9,8.8,24,8.8,30.3S14,41.8,20.3,41.8C26.7,41.8,31.8,36.7,31.8,30.3z
		 M12.8,30.3c0-4.1,3.4-7.5,7.5-7.5c4.1,0,7.5,3.4,7.5,7.5s-3.4,7.5-7.5,7.5C16.2,37.9,12.8,34.5,12.8,30.3z"/>
	<path d="M23.9,30.3c0-2-1.6-3.6-3.6-3.6c-2,0-3.6,1.6-3.6,3.6c0,2,1.6,3.6,3.6,3.6C22.3,33.9,23.9,32.3,23.9,30.3z"/>
	<path d="M45.7,41.8c6.3,0,11.5-5.2,11.5-11.5S52,18.9,45.7,18.9c-6.3,0-11.5,5.2-11.5,11.5S39.3,41.8,45.7,41.8z M45.7,22.8
		c4.1,0,7.5,3.4,7.5,7.5s-3.4,7.5-7.5,7.5s-7.5-3.4-7.5-7.5S41.5,22.8,45.7,22.8z"/>
	<path d="M45.7,33.9c2,0,3.6-1.6,3.6-3.6c0-2-1.6-3.6-3.6-3.6c-2,0-3.6,1.6-3.6,3.6C42.1,32.3,43.7,33.9,45.7,33.9z"/>
	<path d="M29.1,49.4c0,2.2,1.8,3.9,3.9,3.9c2.2,0,3.9-1.8,3.9-3.9c0-2.2-1.8-3.9-3.9-3.9C30.8,45.5,29.1,47.3,29.1,49.4z"/>
</g>
</svg>
