<?xml version="1.0" encoding="utf-8"?>
<!-- Generator: Adobe Illustrator 22.1.0, SVG Export Plug-In . SVG Version: 6.00 Build 0)  -->
<svg version="1.1" id="圖層_1" xmlns="http://www.w3.org/2000/svg" xmlns:xlink="http://www.w3.org/1999/xlink" x="0px" y="0px"
	 viewBox="0 0 81 60.3" style="enable-background:new 0 0 81 60.3;" xml:space="preserve">
<g>
	<path d="M75.8,44.4c-1.1-0.8-3.7-2.8-3.9-4.6c0-0.4,0-1,0.7-1.8C78,33.8,81,28.2,81,22.2C81,9.9,68.6,0,53.3,0
		c-8.1,0-15.5,2.8-20.6,7.3c1.9,0.3,3.8,0.7,5.6,1.2c4.1-2.6,9.3-4.1,15-4.1c12.9,0,23.4,8,23.4,17.8c0,4.7-2.4,9.2-6.8,12.5
		c-0.1,0.1-0.2,0.2-0.3,0.3c-1.8,2-2.1,4-2,5.2c0.2,1.9,1.2,3.6,2.4,4.9c-3.5-0.6-6.8-2.5-9-4.1c-0.7-0.5-1.7-0.8-2.9-1
		c-0.5,1.5-1.1,2.9-1.9,4.2c0,0,0,0,0,0c1.4,0,2.1,0.2,2.2,0.3c4.6,3.3,9.4,5.1,13.8,5.1c1,0,2-0.1,3-0.3c1-0.2,1.8-0.8,2.1-1.7
		c0.3-0.9,0-1.8-0.7-2.5C76.5,45,76.2,44.7,75.8,44.4z"/>
	<path d="M27.7,10.8C12.4,10.8,0,20.7,0,32.9c0,6,3,11.7,8.4,15.9c0.7,0.8,0.8,1.4,0.7,1.8c-0.2,1.8-2.8,3.8-3.9,4.6
		c-0.4,0.3-0.7,0.5-0.8,0.7c-0.7,0.7-1,1.6-0.7,2.5c0.3,0.9,1.1,1.6,2.1,1.7c1,0.2,2,0.3,3,0.3c4.4,0,9.2-1.8,13.8-5.1
		c0.1-0.1,0.8-0.3,2.2-0.3c0.4,0,0.7,0,0.7,0c0.1,0,0.2,0,0.2,0c0.6,0,1.3,0.1,1.9,0.1c15.3,0,27.7-9.9,27.7-22.2
		C55.5,20.7,43,10.8,27.7,10.8z M27.7,50.7c-0.6,0-1.2,0-1.9-0.1c-0.1,0-0.1,0-0.2,0c-0.2,0-0.5,0-0.9,0c-2.1,0-3.7,0.4-4.8,1.1
		c-2.2,1.6-5.4,3.5-9,4.1c1.2-1.3,2.2-3,2.4-4.9c0.1-1.3-0.1-3.3-2-5.3c-0.1-0.1-0.2-0.2-0.3-0.3c-4.4-3.4-6.8-7.8-6.8-12.5
		c0-9.8,10.5-17.8,23.4-17.8c12.9,0,23.4,8,23.4,17.8C51.1,42.8,40.6,50.7,27.7,50.7z"/>
	<path d="M16.1,29.3c-2,0-3.7,1.7-3.7,3.7c0,2,1.7,3.7,3.7,3.7c2,0,3.7-1.7,3.7-3.7C19.8,30.9,18.1,29.3,16.1,29.3z"/>
	<path d="M28.2,29.3c-2,0-3.7,1.7-3.7,3.7c0,2,1.7,3.7,3.7,3.7c2,0,3.7-1.7,3.7-3.7C31.9,30.9,30.2,29.3,28.2,29.3z"/>
	<path d="M40.2,29.3c-2,0-3.7,1.7-3.7,3.7c0,2,1.7,3.7,3.7,3.7c2,0,3.7-1.7,3.7-3.7C43.9,30.9,42.3,29.3,40.2,29.3z"/>
</g>
</svg>
