<?xml version="1.0" encoding="utf-8"?>
<!-- Generator: Adobe Illustrator 22.0.1, SVG Export Plug-In . SVG Version: 6.00 Build 0)  -->
<svg version="1.1" id="圖層_1" xmlns="http://www.w3.org/2000/svg" xmlns:xlink="http://www.w3.org/1999/xlink" x="0px" y="0px"
	 viewBox="0 0 115 99.8" style="enable-background:new 0 0 115 99.8;" xml:space="preserve">
<g>
	<path d="M41.8,81.7l-3.5-3.5l0.3-0.3c1-1.1,2.7-2.8,6.5-2.8h34.8c2.8-1.2,15.4-13.4,18.4-16.8c1.6-1.8,8.4-12,11.3-17.8
		c-1.4-0.8-3.7-1.3-6.4-0.7c-3.2,0.8-5.4,3-8.3,8.7c-0.2,0.5-0.6,0.8-1.1,1.1l-11.5,6l-2.3-4.4l10.8-5.6c3-5.6,6-9.3,11.3-10.6
		c5.9-1.4,10.6,0.8,12.6,3.5c0.5,0.7,0.6,1.7,0.3,2.5c-2.5,5.7-11,18.5-12.9,20.7C101.7,61.8,84.6,80,80,80H45
		c-1.6,0-2.1,0.5-2.9,1.3L41.8,81.7z"/>
	<path d="M75,65H55v-5h20c3.5,0,5-1.9,5-3.8s-1.5-3.8-5-3.8H61.8c-1.8,0-3.3-1.2-5.1-2.6c-1.3-1-3.2-2.4-4.1-2.4H40
		c-2.5,0-6,2.1-8.3,4.2c-3.7,3.7-9.9,10-9.9,10l-3.5-3.5c0,0,6.3-6.3,10-10.1c2.8-2.6,7.6-5.6,11.8-5.6h12.5c2.7,0,5.1,1.8,7.2,3.4
		c0.8,0.6,1.9,1.5,2.3,1.6l13,0c6.6,0,10,4.4,10,8.8S81.6,65,75,65z"/>
	<path d="M32.5,99.8c-0.6,0-1.3-0.2-1.8-0.7l-30-30c-1-1-1-2.6,0-3.5l12.5-12.5c1-1,2.6-1,3.5,0l30,30c1,1,1,2.6,0,3.5L34.3,99.1
		C33.8,99.6,33.1,99.8,32.5,99.8z M6,67.3l26.5,26.5l9-9L15,58.4L6,67.3z"/>
	<rect x="15" y="66.3" transform="matrix(0.7071 -0.7071 0.7071 0.7071 -44.2493 32.8261)" width="5" height="7.1"/>
	<path d="M76.1,37.5c-5.9,0-11.5-2.8-15-7.5H54l-1.5-1.5L51,30H44l-2.5-2.5h-2.9L36,30h-9.9l-6.9-10.3L29,10L59.2,10
		c3.2-6.2,9.6-10,16.8-10C86.7,0,95,8.2,95,18.6C95,29,86.5,37.5,76.1,37.5z M56,25h7.7l0.7,1.1c2.6,4,6.9,6.4,11.6,6.4
		c7.7,0,13.9-6.2,13.9-13.9C90,11,83.9,5,76.1,5c-5.8,0-10.9,3.3-12.9,8.5l-0.6,1.6L31,15l-5.3,5.3l3.1,4.7H34l2.5-2.5h7.1L46,25H49
		l3.5-3.5L56,25z"/>
	<rect x="77.5" y="15" width="5" height="7.5"/>
</g>
</svg>
