<?xml version="1.0" encoding="utf-8"?>
<!-- Generator: Adobe Illustrator 22.0.1, SVG Export Plug-In . SVG Version: 6.00 Build 0)  -->
<svg version="1.1" id="圖層_1" xmlns="http://www.w3.org/2000/svg" xmlns:xlink="http://www.w3.org/1999/xlink" x="0px" y="0px"
	 viewBox="0 0 48 54.9" style="enable-background:new 0 0 48 54.9;" xml:space="preserve">
<g>
	<path d="M28.6,37.7c-0.6,0-1.1,0.5-1.1,1.1v9.1c0,0.3-0.2,0.5-0.5,0.6l-24,4c-0.2,0-0.4-0.1-0.5-0.1c-0.1-0.1-0.2-0.2-0.2-0.5V2.9
		c0-0.2,0.1-0.4,0.2-0.5c0.1-0.1,0.2-0.2,0.5-0.1l24,4c0.3,0,0.5,0.3,0.5,0.6v6.8c0,0.6,0.5,1.1,1.1,1.1c0.6,0,1.1-0.5,1.1-1.1V6.9
		c0-1.4-1-2.6-2.4-2.8l-24-4C2.5-0.1,1.7,0.1,1,0.7C0.4,1.2,0,2,0,2.9V52c0,0.9,0.4,1.7,1,2.2c0.5,0.4,1.2,0.7,1.8,0.7
		c0.2,0,0.3,0,0.5,0l24-4c1.4-0.2,2.4-1.4,2.4-2.8v-9.1C29.7,38.2,29.2,37.7,28.6,37.7z"/>
	<path d="M47.7,25.5L36.2,14c-0.4-0.4-1.2-0.4-1.6,0c-0.4,0.4-0.4,1.2,0,1.6l9.5,9.5H14.9c-0.6,0-1.1,0.5-1.1,1.1
		c0,0.6,0.5,1.1,1.1,1.1h29.2l-9.5,9.5c-0.4,0.4-0.4,1.2,0,1.6c0.2,0.2,0.5,0.3,0.8,0.3c0.3,0,0.6-0.1,0.8-0.3l11.4-11.4
		C48.1,26.6,48.1,25.9,47.7,25.5z"/>
</g>
</svg>
