<?xml version="1.0" encoding="utf-8"?>
<!-- Generator: Adobe Illustrator 22.0.1, SVG Export Plug-In . SVG Version: 6.00 Build 0)  -->
<svg version="1.1" id="圖層_1" xmlns="http://www.w3.org/2000/svg" xmlns:xlink="http://www.w3.org/1999/xlink" x="0px" y="0px"
	 viewBox="0 0 52.1 47.1" style="enable-background:new 0 0 52.1 47.1;" xml:space="preserve">
<g>
	<path d="M52.1,13.6c0-0.3-0.2-0.6-0.4-0.8c-0.3-0.2-0.6-0.2-0.9,0c-3.4,1.7-6.6,2.5-9.5,2.5c-2,0-3.3-0.4-3.8-0.6
		C36.8,13,34,6,28.3,0.3c-0.2-0.2-0.6-0.3-1-0.2c-0.3,0.1-0.6,0.4-0.6,0.8c-0.7,8.4-2.5,13-3.2,14.5c-0.5-0.1-1.3-0.1-2.3-0.1
		c-3.4,0-8.5,0.9-13.2,5c-0.3,0.2-0.4,0.6-0.3,0.9c0.1,0.3,0.3,0.6,0.7,0.7c6.1,1.5,10.9,6.4,12,7.6c-0.3,4.4-5.3,13.6-5.3,13.7
		c-0.1,0.3-0.1,0.6,0,0.9c0.1,0.3,0.4,0.4,0.7,0.5c0,0,0.4,0,1,0c0,0,0,0,0,0c2.5,0,8.8-0.6,14.7-6.2c4.6,2,9,5.8,11.8,8.6
		c0.2,0.2,0.4,0.3,0.6,0.3c0.1,0,0.2,0,0.2,0c0.3-0.1,0.6-0.3,0.6-0.7c2-8-0.4-14.4-2.3-18C45,27.1,52.1,22.3,52.1,13.6z M40.9,27.3
		c-0.2,0.1-0.4,0.3-0.5,0.6c-0.1,0.2,0,0.5,0.1,0.7c1.7,2.9,4.3,8.6,3,15.9c-3.1-2.9-7.3-6.3-11.8-8.1c-0.1,0-0.2-0.1-0.3-0.1
		c-0.2,0-0.5,0.1-0.6,0.3c-5.1,5.1-10.6,6-13.3,6.1c1.5-2.9,4.9-9.9,4.9-13.6c0-0.2-0.1-0.4-0.2-0.6c-0.2-0.2-4.9-5.6-11.5-7.9
		c3.9-2.9,7.9-3.5,10.7-3.5c1.6,0,2.6,0.2,2.6,0.2c0.4,0.1,0.8-0.1,1-0.4c0.1-0.2,2.5-4.3,3.6-13.8c5.2,5.8,7.5,12.6,7.5,12.7
		c0.1,0.2,0.2,0.4,0.5,0.5c0.1,0,1.8,0.9,5,0.9c2.8,0,5.8-0.7,9-2.1C49.3,23.3,40.9,27.2,40.9,27.3z"/>
	<path d="M33.3,27.5c-0.3,0.3-1,0.6-2,0.6c-1,0-1.8-0.3-2-0.6c-0.3-0.4-0.9-0.4-1.3-0.1c-0.4,0.3-0.4,0.9-0.1,1.3
		c0.7,0.8,1.9,1.2,3.4,1.2c1.4,0,2.7-0.4,3.4-1.2c0.3-0.4,0.3-0.9-0.1-1.3C34.2,27.1,33.6,27.1,33.3,27.5z"/>
	<circle cx="28.1" cy="23.1" r="1.4"/>
	<circle cx="34.4" cy="23.1" r="1.4"/>
	<path d="M15.9,3.6h7.3c0.5,0,0.9-0.4,0.9-0.9c0-0.5-0.4-0.9-0.9-0.9h-7.3c-0.5,0-0.9,0.4-0.9,0.9C15,3.2,15.4,3.6,15.9,3.6z"/>
	<path d="M5,10h15.4c0.5,0,0.9-0.4,0.9-0.9c0-0.5-0.4-0.9-0.9-0.9H5c-0.5,0-0.9,0.4-0.9,0.9C4.1,9.6,4.5,10,5,10z"/>
	<path d="M12.2,39.9H7.7c-0.5,0-0.9,0.4-0.9,0.9c0,0.5,0.4,0.9,0.9,0.9h4.5c0.5,0,0.9-0.4,0.9-0.9C13.1,40.3,12.7,39.9,12.2,39.9z"
		/>
	<path d="M4.2,19.9H0.9c-0.5,0-0.9,0.4-0.9,0.9c0,0.5,0.4,0.9,0.9,0.9h3.3c0.5,0,0.9-0.4,0.9-0.9C5.1,20.3,4.7,19.9,4.2,19.9z"/>
</g>
</svg>
