<?xml version="1.0" encoding="utf-8"?>
<!-- Generator: Adobe Illustrator 22.0.1, SVG Export Plug-In . SVG Version: 6.00 Build 0)  -->
<svg version="1.1" id="圖層_1" xmlns="http://www.w3.org/2000/svg" xmlns:xlink="http://www.w3.org/1999/xlink" x="0px" y="0px"
	 viewBox="0 0 66 66" style="enable-background:new 0 0 66 66;" xml:space="preserve">
<g>
	<g>
		<g>
			<path d="M33,47c-0.8,0-1.4-0.6-1.4-1.4V45c0-0.3-0.2-0.6-0.5-0.7c-2.2-0.5-3.9-2-4.6-3.9c-0.3-0.7,0.1-1.5,0.8-1.8
				c0.2-0.1,0.3-0.1,0.5-0.1c0.6,0,1.1,0.4,1.3,0.9c0.6,1.4,2.1,2.3,3.8,2.3c1.1,0,2.1-0.4,2.8-1c0.5-0.5,1.2-1.2,1.2-2.4
				c0-2-2.7-3.3-4.4-3.9c-4-1.5-6.2-3.8-6.2-6.6c0-1.7,0.8-3.3,2.1-4.5c0.7-0.6,1.6-1.1,2.6-1.4c0.3-0.1,0.5-0.4,0.5-0.7v-0.8
				c0-0.8,0.6-1.4,1.4-1.4c0.8,0,1.4,0.6,1.4,1.4V21c0,0.3,0.2,0.6,0.5,0.7c2.2,0.5,3.9,2,4.6,3.9c0.1,0.4,0.1,0.7,0,1.1
				c-0.2,0.3-0.4,0.6-0.8,0.7c-0.2,0.1-0.3,0.1-0.5,0.1c-0.6,0-1.1-0.4-1.3-0.9c-0.5-1.4-2.1-2.3-3.8-2.3c-1.1,0-2.1,0.4-2.9,1
				c-0.5,0.5-1.2,1.2-1.2,2.4c0,2,2.7,3.3,4.3,3.9c4,1.5,6.2,3.8,6.2,6.6c0,1.7-0.8,3.4-2.1,4.5c-0.7,0.6-1.6,1.1-2.6,1.4
				c-0.3,0.1-0.5,0.4-0.5,0.7v0.8C34.4,46.4,33.8,47,33,47z"/>
		</g>
	</g>
	<g>
		<g>
			<path d="M33,66c-4.3,0-8.6-0.8-12.6-2.5c0,0,0,0-0.1,0c0,0,0,0,0,0c-4-1.7-7.5-4-10.6-7.1c0,0,0,0,0,0c0,0,0,0,0,0c0,0,0,0,0-0.1
				c-3.1-3.1-5.4-6.6-7.1-10.6c0,0,0,0,0,0c0,0,0,0,0,0c0,0,0,0,0,0C0.8,41.6,0,37.3,0,33c0-4.3,0.8-8.6,2.5-12.6c0,0,0,0,0-0.1
				c1.7-4,4-7.6,7.1-10.6c0,0,0,0,0.1-0.1c0,0,0,0,0,0c0,0,0,0,0,0c3.1-3,6.6-5.4,10.6-7.1c0,0,0,0,0,0c0,0,0,0,0.1,0
				C24.4,0.8,28.7,0,33,0c4.3,0,8.6,0.8,12.6,2.5c0,0,0,0,0.1,0c0,0,0,0,0,0c4,1.7,7.5,4,10.6,7.1c0,0,0,0,0,0c0,0,0,0,0.1,0.1
				c0,0,0,0,0,0.1c0,0,0,0,0,0c3,3.1,5.4,6.6,7.1,10.6l0,0c0,0,0,0,0,0.1c1.7,4,2.5,8.3,2.5,12.6c0,4.3-0.8,8.6-2.5,12.6
				c0,0,0,0,0,0.1c0,0,0,0,0,0c-1.7,4-4,7.5-7.1,10.6c0,0,0,0,0,0c0,0,0,0-0.1,0.1c0,0,0,0-0.1,0l0,0c-3.1,3-6.6,5.4-10.6,7.1
				c0,0,0,0,0,0c0,0,0,0-0.1,0C41.6,65.2,37.3,66,33,66z M25.3,56.4c-0.3,0-0.5,0.2-0.6,0.4l-1.6,3.9c-0.1,0.2-0.1,0.4,0,0.6
				c0.1,0.2,0.2,0.3,0.4,0.4c2.4,0.8,4.8,1.3,7.4,1.5c0,0,0,0,0,0c0.2,0,0.3-0.1,0.5-0.2c0.1-0.1,0.2-0.3,0.2-0.5v-4.2
				c0-0.4-0.3-0.7-0.6-0.7c-1.9-0.2-3.7-0.5-5.4-1.1C25.5,56.4,25.4,56.4,25.3,56.4z M40.7,56.4c-0.1,0-0.1,0-0.2,0
				c-1.7,0.6-3.5,0.9-5.4,1.1c-0.4,0-0.6,0.3-0.6,0.7v4.2c0,0.2,0.1,0.4,0.2,0.5c0.1,0.1,0.3,0.2,0.5,0.2c0,0,0,0,0,0
				c2.5-0.2,5-0.7,7.4-1.5c0.2-0.1,0.3-0.2,0.4-0.4c0.1-0.2,0.1-0.4,0-0.6l-1.6-3.9C41.2,56.5,41,56.4,40.7,56.4z M49.3,51.6
				c-0.2,0-0.3,0.1-0.4,0.2c-1.4,1.2-2.9,2.2-4.6,3.1c-0.3,0.2-0.5,0.5-0.3,0.9l1.6,3.9c0.1,0.2,0.2,0.3,0.4,0.4c0.1,0,0.2,0,0.2,0
				c0.1,0,0.2,0,0.3-0.1c2.3-1.1,4.3-2.5,6.2-4.2c0.1-0.1,0.2-0.3,0.2-0.5c0-0.2-0.1-0.4-0.2-0.5l-3-3
				C49.7,51.7,49.5,51.6,49.3,51.6z M16.7,51.6c-0.2,0-0.4,0.1-0.5,0.2l-3,3c-0.1,0.1-0.2,0.3-0.2,0.5c0,0.2,0.1,0.4,0.2,0.5
				c1.9,1.6,4,3,6.2,4.2c0.1,0,0.2,0.1,0.3,0.1c0.1,0,0.2,0,0.2,0c0.2-0.1,0.3-0.2,0.4-0.4l1.6-3.9c0.1-0.3,0-0.7-0.3-0.9
				c-1.7-0.9-3.2-1.9-4.6-3.1C17,51.6,16.9,51.6,16.7,51.6z M33,11.3C21,11.3,11.3,21,11.3,33c0,12,9.8,21.7,21.7,21.7
				c12,0,21.7-9.8,21.7-21.7C54.7,21,45,11.3,33,11.3z M10.6,43.9c-0.1,0-0.2,0-0.3,0.1l-3.9,1.6c-0.2,0.1-0.3,0.2-0.4,0.4
				c-0.1,0.2-0.1,0.4,0,0.6c1.1,2.3,2.5,4.3,4.2,6.2c0.1,0.1,0.3,0.2,0.5,0.2l0,0c0.2,0,0.4-0.1,0.5-0.2l3-3c0.3-0.3,0.3-0.7,0-0.9
				c-1.2-1.4-2.2-2.9-3.1-4.6C11.1,44,10.8,43.9,10.6,43.9z M55.4,43.9c-0.3,0-0.5,0.1-0.6,0.4c-0.9,1.7-1.9,3.2-3.1,4.6
				c-0.2,0.3-0.2,0.7,0,0.9l3,3c0.1,0.1,0.3,0.2,0.5,0.2l0,0c0.2,0,0.4-0.1,0.5-0.2c1.6-1.9,3-4,4.2-6.2c0.1-0.2,0.1-0.4,0-0.6
				c-0.1-0.2-0.2-0.3-0.4-0.4l-3.9-1.6C55.6,43.9,55.5,43.9,55.4,43.9z M3.6,34.4c-0.2,0-0.4,0.1-0.5,0.2C3,34.8,2.9,35,2.9,35.2
				c0.2,2.5,0.7,5,1.5,7.4c0.1,0.2,0.2,0.3,0.4,0.4C4.9,43,4.9,43,5,43c0.1,0,0.2,0,0.3-0.1l3.9-1.6c0.3-0.1,0.5-0.5,0.4-0.8
				C9,38.8,8.7,36.9,8.5,35c0-0.4-0.3-0.6-0.7-0.6H3.6z M58.2,34.4c-0.4,0-0.7,0.3-0.7,0.6c-0.2,1.9-0.5,3.7-1.1,5.4
				c-0.1,0.3,0.1,0.7,0.4,0.8l3.9,1.6c0.1,0,0.2,0.1,0.3,0.1c0.1,0,0.2,0,0.3-0.1c0.2-0.1,0.3-0.2,0.4-0.4c0.8-2.4,1.3-4.8,1.5-7.4
				c0-0.2-0.1-0.4-0.2-0.5c-0.1-0.1-0.3-0.2-0.5-0.2H58.2z M61,23c-0.1,0-0.2,0-0.3,0.1l-3.9,1.6c-0.3,0.1-0.5,0.5-0.4,0.8
				c0.6,1.7,0.9,3.6,1.1,5.4c0,0.4,0.3,0.6,0.7,0.6h4.2c0.2,0,0.4-0.1,0.5-0.2c0.1-0.1,0.2-0.3,0.2-0.5c-0.2-2.5-0.7-5-1.5-7.4
				c-0.1-0.2-0.2-0.3-0.4-0.4C61.1,23,61.1,23,61,23z M5,23c-0.1,0-0.2,0-0.3,0.1c-0.2,0.1-0.3,0.2-0.4,0.4
				c-0.8,2.4-1.3,4.8-1.5,7.4c0,0.2,0.1,0.4,0.2,0.5c0.1,0.1,0.3,0.2,0.5,0.2h4.2c0.4,0,0.7-0.3,0.7-0.6c0.2-1.9,0.5-3.7,1.1-5.4
				c0.1-0.3-0.1-0.7-0.4-0.8l-3.9-1.6C5.2,23,5.1,23,5,23z M55.3,13c-0.2,0-0.4,0.1-0.5,0.2l-3,3c-0.3,0.3-0.3,0.7,0,0.9
				c1.2,1.4,2.2,2.9,3.1,4.6c0.1,0.2,0.4,0.4,0.6,0.4c0.1,0,0.2,0,0.3-0.1l3.9-1.6c0.2-0.1,0.3-0.2,0.4-0.4c0.1-0.2,0.1-0.4,0-0.6
				c-1.1-2.2-2.5-4.3-4.2-6.2C55.7,13.1,55.5,13,55.3,13L55.3,13z M10.7,13c-0.2,0-0.4,0.1-0.5,0.2c-1.6,1.9-3,4-4.2,6.2
				C6,19.7,6,19.9,6,20.1c0.1,0.2,0.2,0.3,0.4,0.4l3.9,1.6c0.1,0,0.2,0.1,0.3,0.1c0.3,0,0.5-0.1,0.6-0.4c0.9-1.7,1.9-3.2,3.1-4.6
				c0.2-0.3,0.2-0.7,0-0.9l-3-3C11.1,13.1,10.9,13,10.7,13L10.7,13z M46.2,6c-0.1,0-0.2,0-0.2,0c-0.2,0.1-0.3,0.2-0.4,0.4l-1.6,3.9
				c-0.1,0.3,0,0.7,0.3,0.9c1.7,0.9,3.2,1.9,4.6,3.1c0.1,0.1,0.3,0.2,0.4,0.2c0.2,0,0.4-0.1,0.5-0.2l3-3c0.1-0.1,0.2-0.3,0.2-0.5
				c0-0.2-0.1-0.4-0.2-0.5c-1.9-1.6-4-3-6.2-4.2C46.4,6,46.3,6,46.2,6z M19.8,6c-0.1,0-0.2,0-0.3,0.1c-2.2,1.1-4.3,2.5-6.2,4.2
				c-0.1,0.1-0.2,0.3-0.2,0.5c0,0.2,0.1,0.4,0.2,0.5l3,3c0.1,0.1,0.3,0.2,0.5,0.2c0.2,0,0.3-0.1,0.4-0.2c1.4-1.2,2.9-2.2,4.6-3.1
				c0.3-0.2,0.5-0.5,0.3-0.9l-1.6-3.9c-0.1-0.2-0.2-0.3-0.4-0.4C20,6,19.9,6,19.8,6z M35.1,2.9c-0.2,0-0.3,0.1-0.5,0.2
				c-0.1,0.1-0.2,0.3-0.2,0.5v4.2c0,0.4,0.3,0.7,0.6,0.7c1.9,0.2,3.7,0.5,5.4,1.1c0.1,0,0.1,0,0.2,0c0.3,0,0.5-0.2,0.6-0.4l1.6-3.9
				c0.1-0.2,0.1-0.4,0-0.6c-0.1-0.2-0.2-0.3-0.4-0.4C40.2,3.6,37.7,3.1,35.1,2.9C35.1,2.9,35.1,2.9,35.1,2.9z M30.8,2.9
				c-2.5,0.2-5,0.7-7.4,1.5c-0.2,0.1-0.3,0.2-0.4,0.4c-0.1,0.2-0.1,0.4,0,0.6l1.6,3.9c0.1,0.3,0.4,0.4,0.6,0.4c0.1,0,0.1,0,0.2,0
				C27.2,9,29.1,8.7,31,8.5c0.4,0,0.6-0.3,0.6-0.7V3.6c0-0.2-0.1-0.4-0.2-0.5C31.2,3,31.1,2.9,30.8,2.9C30.9,2.9,30.9,2.9,30.8,2.9z
				"/>
		</g>
	</g>
</g>
</svg>
