<?xml version="1.0" encoding="utf-8"?>
<!-- Generator: Adobe Illustrator 22.0.1, SVG Export Plug-In . SVG Version: 6.00 Build 0)  -->
<svg version="1.1" id="圖層_1" xmlns="http://www.w3.org/2000/svg" xmlns:xlink="http://www.w3.org/1999/xlink" x="0px" y="0px"
	 viewBox="0 0 87 97.1" style="enable-background:new 0 0 87 97.1;" xml:space="preserve">
<path d="M84.9,11.5c-1.4-1.4-3.2-2.1-5.1-2.1c-0.1,0-0.2,0-0.4,0c-0.7,0-1.5,0.1-2.2,0.1c-3,0-7.7-0.3-13.3-1.6
	c-8.1-2-14.4-5.4-16.7-6.8c-1.1-0.7-2.4-1-3.7-1c-1.3,0-2.6,0.4-3.7,1c-2.3,1.4-8.6,4.9-16.7,6.8C17.5,9.2,12.8,9.4,9.8,9.4
	c-0.8,0-1.5,0-2.2-0.1c-0.1,0-0.2,0-0.4,0c-1.9,0-3.8,0.8-5.1,2.1C0.7,12.9,0,14.7,0,16.7c0.1,6,0.9,22,6.6,39.4
	c7.8,23.9,26,36,33.4,40.1c1.1,0.6,2.3,0.9,3.4,0.9c1.2,0,2.4-0.3,3.4-0.9C54.4,92.1,72.6,80,80.4,56c5.7-17.4,6.5-33.3,6.6-39.4
	C87,14.7,86.3,12.9,84.9,11.5z M76.2,54.7c-7.6,23.5-26.2,34.8-31.4,37.6c-0.4,0.2-0.9,0.3-1.3,0.3c-0.4,0-0.9-0.1-1.3-0.3
	c-5.1-2.8-23.7-14.2-31.4-37.6C5.4,38,4.6,22.8,4.4,16.6c0-1.5,1.2-2.8,2.7-2.8c0,0,0.1,0,0.1,0c0.7,0,1.5,0.1,2.5,0.1
	c3.5,0,8.5-0.3,14.4-1.8c8.6-2.1,15.2-5.7,18-7.3c0.4-0.3,0.9-0.4,1.4-0.4c0.5,0,1,0.1,1.4,0.4c2.8,1.7,9.4,5.2,18,7.3
	c5.8,1.4,10.9,1.8,14.4,1.8c0.9,0,1.8,0,2.5-0.1c0,0,0.1,0,0.1,0c1.5,0,2.8,1.2,2.7,2.8C82.4,22.8,81.6,38,76.2,54.7z"/>
<g>
	<path d="M43.5,20.6c-8.1,0-14.4,6.3-14.4,14.4c0,5.3,2.3,9.8,6.4,12.4v7.7l2.6,2v0.7l-2.6,2.9v3l2.6,2.4v0.6l-2.6,2v7.6h8l5.4-6.3
		V48.8c5.7-1.9,9-7,9-13.9C57.9,26.9,51.6,20.6,43.5,20.6z M38.6,73.4v-3l2.6-2v-3.4l-2.6-2.4v-0.5l2.6-2.9v-3.4l-2.6-2v-8l-0.8-0.4
		c-3.6-1.9-5.6-5.6-5.6-10.1c0-6.4,5-11.3,11.3-11.3s11.3,5,11.3,11.3c0,3.5-1,9.5-7.8,11.2l-1.2,0.3V69l-3.7,4.3H38.6z"/>
	<path d="M48.9,31.1c0-3-2.4-5.4-5.4-5.4s-5.4,2.4-5.4,5.4s2.4,5.4,5.4,5.4S48.9,34.1,48.9,31.1z M43.5,33.4c-1.3,0-2.3-1-2.3-2.3
		s1-2.3,2.3-2.3s2.3,1,2.3,2.3S44.8,33.4,43.5,33.4z"/>
</g>
</svg>
