<?xml version="1.0" encoding="utf-8"?>
<!-- Generator: Adobe Illustrator 22.0.1, SVG Export Plug-In . SVG Version: 6.00 Build 0)  -->
<svg version="1.1" id="圖層_1" xmlns="http://www.w3.org/2000/svg" xmlns:xlink="http://www.w3.org/1999/xlink" x="0px" y="0px"
	 viewBox="0 0 72 68.8" style="enable-background:new 0 0 72 68.8;" xml:space="preserve">
<path d="M71.9,26.2c-0.3-1.1-1.1-1.7-2.4-1.9l-3.8-0.6c-2-0.3-3.9-0.6-5.9-0.8L59,22.7c-3.6-0.5-7.3-1.1-10.9-1.6
	c-0.8-1.7-1.7-3.5-2.5-5.1c-0.3-0.7-0.7-1.3-1-2l-2.1-4.3c-1.3-2.7-2.6-5.4-4-8C37.7,0.2,36.7,0,36.1,0c-0.4,0-0.8,0.1-1.1,0.3
	c-0.6,0.3-1.1,0.9-1.5,1.6c-3.1,6.2-6.3,12.7-9.5,19.3c0,0,0,0,0,0c-2.5,0.3-5,0.7-7.5,1.1c-1,0.2-2.1,0.3-3.1,0.4
	c-1.6,0.2-3.1,0.4-4.7,0.7c-2,0.3-4.1,0.6-6.1,0.9c-0.5,0.1-2,0.3-2.5,1.8c-0.5,1.6,0.6,2.6,1,3C1.7,29.7,2.4,30.3,3,31
	c0.3,0.3,0.7,0.7,1,1l3.6,3.5c3,2.9,5.9,5.8,8.9,8.7l-0.8,4.7c-0.9,5.4-1.9,11.1-2.8,16.6c-0.2,1.3,0.1,2.2,1,2.9
	c0.5,0.3,1,0.5,1.5,0.5c0.5,0,1-0.1,1.5-0.4c0.1-0.1,0.2-0.1,0.3-0.2c0.1,0,0.2-0.1,0.3-0.1l3.7-1.9c4.9-2.6,9.9-5.2,14.8-7.8
	c1,0.6,2,1.1,3,1.6c0.4,0.2,0.8,0.4,1.2,0.6l2.8,1.5c4,2.1,8.1,4.2,12.1,6.4c0.5,0.2,1,0.5,1.6,0.5c0.6,0,1.1-0.2,1.6-0.6
	c0.8-0.7,1.1-1.6,0.9-2.8c-0.5-3-1-6-1.6-9.1c-0.7-4-1.4-8.2-2.1-12.3c3.5-3.4,7-6.8,10.5-10.2c1.7-1.6,3.3-3.2,5-4.9
	C71.3,28.7,72.3,27.7,71.9,26.2z M59.4,25.8c1.9,0.3,3.8,0.6,5.8,0.8l-24.7,7.6l7.3-10.1c3.6,0.5,7.2,1,10.8,1.5L59.4,25.8z
	 M39.7,11.1l2.1,4.3c0.3,0.7,0.7,1.3,1,2c0.8,1.7,1.7,3.4,2.5,5.1l-7.8,10.8V6.6C38.2,8.1,39,9.6,39.7,11.1z M34.5,6.6V33l-7.7-10.7
	C29.4,16.9,32,11.7,34.5,6.6z M9.1,26.3c1.6-0.2,3.1-0.4,4.7-0.7c1-0.1,2.1-0.3,3.1-0.4c2.5-0.4,5-0.7,7.5-1.1l7.3,10.2L7,26.6
	C7.7,26.5,8.4,26.4,9.1,26.3z M3.6,27.1l0,0.2c0,0-0.1-0.1-0.1-0.1C3.5,27.2,3.6,27.1,3.6,27.1z M9.7,33.3l-3.6-3.5
	c-0.1-0.1-0.3-0.3-0.4-0.4l25.7,8l-12.5,4.9c0-0.1-0.1-0.1-0.1-0.2C15.7,39.1,12.7,36.2,9.7,33.3z M18.6,49.3l0.7-4l12.5-4.9
	L16.4,62.2C17.2,57.9,17.9,53.5,18.6,49.3z M19.8,63.4L19,63.8l15.5-22.1v13.9C29.6,58.2,24.6,60.9,19.8,63.4z M41.6,57.8
	c-0.4-0.2-0.8-0.4-1.2-0.6c-1-0.5-1.9-1-2.9-1.5V41.5L53.3,64c-3-1.6-6-3.1-9-4.7L41.6,57.8z M55.5,61.9L40.3,40.2l12.3,4.7
	c0.7,4,1.4,8,2.1,11.9C54.9,58.5,55.2,60.2,55.5,61.9z M63.9,31.7c-3.4,3.3-7,6.8-10.5,10.2c0,0,0,0-0.1,0.1L41,37.3l25.2-7.8
	C65.4,30.2,64.7,31,63.9,31.7z"/>
</svg>
