<?xml version="1.0" encoding="utf-8"?>
<!-- Generator: Adobe Illustrator 22.0.1, SVG Export Plug-In . SVG Version: 6.00 Build 0)  -->
<svg version="1.1" id="圖層_1" xmlns="http://www.w3.org/2000/svg" xmlns:xlink="http://www.w3.org/1999/xlink" x="0px" y="0px"
	 viewBox="0 0 87 97.1" style="enable-background:new 0 0 87 97.1;" xml:space="preserve">
<g>
	<path d="M84.9,11.6c-1.4-1.4-3.2-2.1-5.1-2.1c-0.1,0-0.2,0-0.4,0c-0.7,0-1.5,0.1-2.2,0.1c-3,0-7.7-0.3-13.3-1.6
		c-8.1-2-14.4-5.4-16.7-6.8c-1.1-0.7-2.4-1-3.7-1c-1.3,0-2.6,0.4-3.7,1c-2.3,1.4-8.6,4.9-16.7,6.8C17.5,9.2,12.8,9.5,9.8,9.5
		c-0.8,0-1.5,0-2.2-0.1c-0.1,0-0.2,0-0.4,0c-1.9,0-3.8,0.8-5.1,2.1C0.7,13,0,14.8,0,16.7c0.1,6,0.9,22,6.6,39.4
		c7.8,23.9,26,36,33.4,40.1c1.1,0.6,2.3,0.9,3.4,0.9c1.2,0,2.4-0.3,3.4-0.9c7.5-4.1,25.6-16.2,33.4-40.1c5.7-17.4,6.5-33.3,6.6-39.4
		C87,14.8,86.3,13,84.9,11.6z M76.2,54.7c-7.6,23.5-26.2,34.8-31.4,37.6c-0.4,0.2-0.9,0.3-1.3,0.3c-0.4,0-0.9-0.1-1.3-0.3
		c-5.1-2.8-23.7-14.2-31.4-37.6C5.4,38.1,4.6,22.9,4.4,16.7c0-1.5,1.2-2.8,2.7-2.8c0,0,0.1,0,0.1,0C8,13.9,8.8,14,9.8,14
		c3.5,0,8.5-0.3,14.4-1.8c8.6-2.1,15.2-5.7,18-7.3c0.4-0.3,0.9-0.4,1.4-0.4c0.5,0,1,0.1,1.4,0.4c2.8,1.7,9.4,5.2,18,7.3
		c5.8,1.4,10.9,1.8,14.4,1.8c0.9,0,1.8,0,2.5-0.1c0,0,0.1,0,0.1,0c1.5,0,2.8,1.2,2.7,2.8C82.4,22.9,81.6,38.1,76.2,54.7z"/>
	<path d="M43.5,42.5c6.1,0,11-4.9,11-11s-4.9-11-11-11s-11,4.9-11,11S37.4,42.5,43.5,42.5z M43.5,24.9c3.6,0,6.6,3,6.6,6.6
		s-3,6.6-6.6,6.6c-3.6,0-6.6-3-6.6-6.6S39.9,24.9,43.5,24.9z"/>
	<path d="M43.5,45.5c-8.6,0-16.4,5.2-19.7,13.2c-1.2,2.8-0.4,6.2,2,8.2c4.2,3.5,10,5.3,17.7,5.3c7.7,0,13.5-1.7,17.7-5.3
		c2.3-2,3.2-5.3,2-8.2C59.9,50.6,52.1,45.5,43.5,45.5z M58.3,63.4c-3.4,2.8-8.2,4.2-14.8,4.2c-6.6,0-11.4-1.4-14.8-4.2
		c-0.9-0.7-1.2-2-0.7-3.1c2.6-6.3,8.7-10.4,15.6-10.4S56.4,54,59.1,60.3C59.5,61.4,59.2,62.7,58.3,63.4z"/>
</g>
</svg>
