<?xml version="1.0" encoding="utf-8"?>
<!-- Generator: Adobe Illustrator 22.0.1, SVG Export Plug-In . SVG Version: 6.00 Build 0)  -->
<svg version="1.1" id="圖層_1" xmlns="http://www.w3.org/2000/svg" xmlns:xlink="http://www.w3.org/1999/xlink" x="0px" y="0px"
	 viewBox="0 0 111 95" style="enable-background:new 0 0 111 95;" xml:space="preserve">
<g>
	<g>
		<g>
			<path d="M60.9,69.3c-0.6,0-1.1-0.4-1.2-1c-1.2-7.2-5.5-11.8-9.5-16.2c-4.5-4.9-8.8-9.5-8.8-17.2c0-10.8,8.8-19.6,19.6-19.6
				c10.8,0,19.6,8.8,19.6,19.6c0,7.7-4.3,12.3-8.8,17.2c-4.1,4.4-8.3,9-9.5,16.2C62,68.9,61.5,69.3,60.9,69.3z M60.9,17.8
				c-9.5,0-17.1,7.7-17.1,17.1c0,6.7,3.8,10.8,8.2,15.5c3.3,3.5,6.9,7.4,9,12.9c2-5.4,5.7-9.4,9-12.9c4.4-4.7,8.2-8.8,8.2-15.5
				C78.1,25.5,70.4,17.8,60.9,17.8z"/>
		</g>
		<g>
			<path d="M60.9,41.9c-4.2,0-7.7-3.5-7.7-7.7c0-4.2,3.5-7.7,7.7-7.7c4.2,0,7.7,3.5,7.7,7.7C68.6,38.4,65.2,41.9,60.9,41.9z
				 M60.9,29c-2.9,0-5.2,2.4-5.2,5.2c0,2.9,2.4,5.2,5.2,5.2c2.9,0,5.2-2.4,5.2-5.2C66.2,31.3,63.8,29,60.9,29z"/>
		</g>
	</g>
	<g>
		<path d="M27.2,48.4l-0.5-1.1l2.3-1l1,2.3l-2.3,0.9C27.2,48.4,27.7,49.6,27.2,48.4z M25.4,42.9l-0.3-1.2l2.4-0.6l0.3,1.2l0,0
			l0.3,1.2l-2.4,0.6C25.4,42.9,25.7,44.1,25.4,42.9z M24.4,37.2L24.4,37.2l-0.1-1.2l2.5-0.2l0.2,2.5l-2.5,0.2
			C24.4,37.2,24.5,38.4,24.4,37.2z M24.3,32.5l0.2-2.5l2.5,0.2l-0.2,2.5C24.3,32.5,26.8,32.7,24.3,32.5z M25.1,26.8l0.6-2.4l2.4,0.6
			l-0.3,1.2l0,0l-0.3,1.2C25.1,26.8,27.5,27.3,25.1,26.8z M26.7,21.2l0.5-1.1c0,0,0,0,0,0l0.5-1.1l2.3,1L29.4,21l0,0l-0.5,1.1
			C26.7,21.2,28.9,22.1,26.7,21.2z M29.2,15.9l1.3-2.1l2.1,1.3l-1.3,2.1C29.2,15.9,31.3,17.2,29.2,15.9z M32.5,11.1l0.8-0.9
			c0,0,0,0,0,0l0.8-0.9l1.8,1.6l-1.6,1.8C32.5,11.1,34.4,12.7,32.5,11.1z M36.6,6.9l0.9-0.8l0,0l0.9-0.8L40,7.2l-1.9,1.6
			C36.6,6.9,38.1,8.8,36.6,6.9z M41.2,3.4l2.1-1.3l1.3,2.1l-2.1,1.3C41.2,3.4,42.4,5.4,41.2,3.4z"/>
	</g>
	<g>
		<path d="M93.5,44.3l0.6-2.4l2.4,0.6l-0.6,2.4C93.5,44.3,95.9,44.9,93.5,44.3z M94.7,39l0.2-2.5l2.4,0.3L97.3,38l0,0l-0.1,1.2
			C94.7,39,97.2,39.2,94.7,39z M95,32.3L95,32.3l-0.1-1.2l2.5-0.1l0.1,1.2l0,0l0.1,1.2l-2.5,0.1C95,32.3,95.1,33.5,95,32.3z
			 M94.3,26.9L94,25.7l2.4-0.5l0.5,2.4l-2.4,0.5C94.3,26.9,94.5,28.1,94.3,26.9z M92.7,21.7l-0.4-1.1l2.3-0.9l0.9,2.3l-2.3,0.9
			C92.7,21.7,93.1,22.9,92.7,21.7z M90.3,16.8L90.3,16.8l-0.6-1.1l2.1-1.3l0.6,1.1l0,0l0.6,1.1l-2.1,1.3
			C90.3,16.8,90.9,17.9,90.3,16.8z M87.2,12.4l-0.8-1l1.9-1.6l0.8,1l0,0l0.8,0.9L88,13.3C87.2,12.4,88,13.3,87.2,12.4z M83.4,8.5
			l-0.9-0.8l1.6-1.8l1.8,1.6l-1.6,1.9C83.4,8.5,84.3,9.3,83.4,8.5z M79,5.2L78,4.6l1.3-2.1l2.1,1.3l-1.3,2.1C79,5.2,80.1,5.9,79,5.2
			z M74.2,2.7L74.2,2.7l-1.1-0.5L74,0l2.3,1l-1,2.3C74.2,2.7,75.3,3.2,74.2,2.7z"/>
	</g>
	<g>
		<rect x="21.5" y="75.7" transform="matrix(0.8848 -0.4659 0.4659 0.8848 -31.6181 25.962)" width="30.4" height="2.5"/>
	</g>
	<g>
		<polygon points="67.4,95 47.5,82.9 22,85.3 0,73.8 45.5,53.6 46.5,55.8 5.6,74 22.4,82.8 48.1,80.4 67.3,92.1 106.1,66.3 
			91.9,59.1 72.2,59.7 72.1,57.3 92.5,56.6 111,66 		"/>
	</g>
	<g>
		<rect x="68.2" y="62.8" transform="matrix(0.8753 -0.4836 0.4836 0.8753 -20.845 47.1463)" width="25.5" height="2.5"/>
	</g>
</g>
</svg>
