<?xml version="1.0" encoding="utf-8"?>
<!-- Generator: Adobe Illustrator 22.0.1, SVG Export Plug-In . SVG Version: 6.00 Build 0)  -->
<svg version="1.1" id="圖層_1" xmlns="http://www.w3.org/2000/svg" xmlns:xlink="http://www.w3.org/1999/xlink" x="0px" y="0px"
	 viewBox="0 0 82.4 88" style="enable-background:new 0 0 82.4 88;" xml:space="preserve">
<g>
	<path d="M74.3,27.4c-0.4,0-0.7,0-1.1-0.1c-1.1-0.3-2.2-1-3.1-1.9L69.8,25c-0.9-1-1.5-2.1-1.8-3.2c-0.3-1.3,0-2.4,0.8-3.1l4.5-4.2
		c1-0.9,2.3-1.4,3.7-1.3c1.4,0.1,2.7,0.7,3.6,1.7l0.3,0.3c2,2.1,2,5.4-0.1,7.3l-4.5,4.2C75.9,27.2,75.1,27.4,74.3,27.4z M76.7,15.1
		c-0.8,0-1.5,0.3-2,0.8l-4.5,4.2c-0.2,0.2-0.3,0.7-0.2,1.3c0.2,0.7,0.6,1.6,1.3,2.2l0.3,0.3c0.6,0.7,1.4,1.2,2.2,1.4
		c0.6,0.1,1,0.1,1.3-0.1l4.5-4.2c1.2-1.2,1.2-3.2,0-4.5l-0.3-0.3c-0.6-0.6-1.4-1-2.3-1.1C76.8,15.1,76.8,15.1,76.7,15.1z"/>
	<path d="M34,88l-1.4-1.4c0.1-0.2,3.7-3.8,5.7-5.7l0.3-0.3l0.4,0c13.1,1,18.8-7,21-10c0.3-0.4,0.5-0.7,0.7-0.9l1.5,1.3
		c-0.2,0.2-0.4,0.5-0.6,0.8c-2.3,3.2-8.4,11.7-22.3,10.8C37.3,84.6,34.1,88,34,88z"/>
	<path d="M75.1,62.1c-1.2,0-2.5-0.5-3.7-1.5L71,60.3c-2.1-1.8-2.7-4.3-1.4-5.8l3.8-4.3c0.8-1,2-1.5,3.3-1.6c1.3-0.1,2.5,0.3,3.5,1.2
		l0.3,0.3c1,0.8,1.6,2,1.7,3.3c0.1,1.3-0.3,2.5-1.1,3.5l-3.8,4.3C76.8,61.8,76,62.1,75.1,62.1z M77,50.5c-0.1,0-0.1,0-0.2,0
		c-0.8,0-1.4,0.4-1.9,0.9l-3.8,4.3c-0.4,0.5,0,1.9,1.2,3l0.3,0.3c1.2,1.1,2.7,1.3,3.1,0.8l3.8-4.3c0.5-0.6,0.7-1.3,0.6-2
		c-0.1-0.8-0.4-1.5-1-2l-0.3-0.3C78.3,50.8,77.7,50.5,77,50.5z"/>
	<path d="M36.1,74.5l-1.9-0.7C38.3,62.1,34,52.1,30.8,48l-0.3-0.4l0.2-0.5c1.5-4.5,2.1-7.7,2.6-13.2c0.2-2.3-0.5-4.7-2.2-7.1
		c-0.6-0.8-1.5-0.9-2.2-0.8c-0.8,0.1-1.4,0.6-1.6,1.2c-1.1,3.4-1.8,6-2.5,8.1c-1.1,3.8-1.8,6.1-3.1,9.4c-1.2,3.1-1.3,7-1.4,10.1
		c-0.1,2.4-0.1,4.4-0.6,5.5c-0.2,0.5-3.1,5-4.3,6.9l-1.7-1.1c1.5-2.4,4-6.3,4.2-6.7c0.3-0.7,0.4-2.7,0.4-4.7
		c0.1-3.3,0.2-7.4,1.5-10.8c1.2-3.2,1.9-5.3,3-9.2c0.6-2.1,1.4-4.7,2.5-8.1c0.4-1.4,1.7-2.4,3.2-2.6c1.7-0.3,3.2,0.4,4.2,1.6
		c2,2.8,2.9,5.6,2.6,8.5c-0.5,5.5-1.2,8.8-2.6,13.1C36.1,51.9,40.4,62.3,36.1,74.5z"/>
	<path d="M75.1,50.3c-0.2,0-0.4,0-0.6,0c-1.1-0.2-2.2-0.7-3.1-1.5v0l-0.3-0.3c-0.9-0.8-1.6-1.8-1.9-2.8c-0.4-1.2-0.2-2.3,0.5-3
		l3.8-4.4c1.7-2,4.9-2.2,6.9-0.4l0.3,0.3c1,0.9,1.6,2,1.7,3.4c0.1,1.3-0.3,2.6-1.1,3.6l-3.8,4.4C76.9,50,76.1,50.3,75.1,50.3z
		 M72.7,47.2c0.6,0.6,1.4,0.9,2.1,1c0.5,0.1,0.9,0,1.1-0.2l3.8-4.4c0.5-0.6,0.7-1.3,0.7-2.1c-0.1-0.8-0.4-1.5-1-2L79,39.3
		c-1.2-1.1-3.1-1-4.1,0.2l-3.8,4.4c-0.2,0.2-0.2,0.6-0.1,1.1c0.2,0.7,0.7,1.4,1.3,1.9L72.7,47.2z"/>
	<path d="M75.1,38.8c-1.2,0-2.6-0.5-3.7-1.6v0L71.1,37c-0.9-0.8-1.6-1.8-1.9-2.8c-0.4-1.2-0.2-2.3,0.5-3l3.8-4.4
		c1.7-2,4.9-2.2,6.9-0.4l0.3,0.3c1,0.9,1.6,2,1.7,3.4c0.1,1.3-0.3,2.6-1.1,3.6l-3.8,4.4C76.9,38.5,76.1,38.8,75.1,38.8z M72.7,35.7
		c1.3,1.1,2.8,1.3,3.2,0.8l3.8-4.4c0.5-0.6,0.7-1.3,0.7-2.1c-0.1-0.8-0.4-1.5-1-2L79,27.8c-1.2-1.1-3.1-1-4.1,0.2l-3.8,4.4
		c-0.2,0.2-0.2,0.6-0.1,1.1c0.2,0.7,0.7,1.4,1.3,1.9L72.7,35.7z"/>
	<rect x="48.3" y="63.8" width="5.6" height="2"/>
	<path d="M30.6,25.4h-2V6.6c0-3.7,3-6.6,6.6-6.6h31.9c3.7,0,6.6,3,6.6,6.6V16h-2V6.6c0-2.6-2.1-4.6-4.6-4.6H35.2
		c-2.6,0-4.6,2.1-4.6,4.6V25.4z"/>
	<path d="M67.1,71.4H35.2v-2h31.9c2.6,0,4.6-2.1,4.6-4.6V61h2v3.8C73.7,68.4,70.7,71.4,67.1,71.4z"/>
	<polygon points="34.5,88 10.8,64.3 2.8,72.3 17.1,86.6 15.7,88 0,72.3 10.8,61.5 35.9,86.6 	"/>
	<rect x="10.7" y="71.9" transform="matrix(0.7071 -0.7071 0.7071 0.7071 -48.3411 29.7426)" width="2" height="2.7"/>
	<rect x="37.1" y="58.2" width="33.8" height="2"/>
	<rect x="29.6" y="9.4" width="43.1" height="2"/>
	<path d="M52.5,54.5h-5.2V34.6c-3.4-1.8-5.6-5.3-5.6-9.2c0-5.7,4.7-10.4,10.4-10.4c5.7,0,10.4,4.7,10.4,10.4c0,3.9-2.2,7.4-5.6,9.2
		v15.6L52.5,54.5z M49.3,52.5h2.3l3.2-3.2v-16l0.6-0.3c3.1-1.3,5-4.3,5-7.7c0-4.6-3.8-8.4-8.4-8.4s-8.4,3.8-8.4,8.4
		c0,3.3,2,6.3,5,7.7l0.6,0.3V52.5z"/>
	<rect x="50.2" y="20.6" width="3.8" height="2"/>
</g>
</svg>
