<?xml version="1.0" encoding="utf-8"?>
<!-- Generator: Adobe Illustrator 22.0.1, SVG Export Plug-In . SVG Version: 6.00 Build 0)  -->
<svg version="1.1" id="圖層_1" xmlns="http://www.w3.org/2000/svg" xmlns:xlink="http://www.w3.org/1999/xlink" x="0px" y="0px"
	 viewBox="0 0 66 66" style="enable-background:new 0 0 66 66;" xml:space="preserve">
<g>
	<path d="M33,66c18.2,0,33-14.8,33-33S51.2,0,33,0C14.8,0,0,14.8,0,33S14.8,66,33,66z M33,4c16,0,29,13,29,29c0,16-13,29-29,29
		C17,62,4,49,4,33C4,17,17,4,33,4z"/>
	<path d="M16.5,49.8c0.9,0.5,2.2,0.2,2.7-0.7c2.9-4.9,8.2-8,13.8-8c5.7,0,11,3.1,13.8,8c0.4,0.6,1,1,1.7,1c0.3,0,0.7-0.1,1-0.3
		c0.9-0.6,1.3-1.8,0.7-2.7c-3.6-6.2-10.2-10-17.3-10c-7.1,0-13.7,3.8-17.3,10C15.2,48.1,15.5,49.3,16.5,49.8z"/>
	<path d="M16.3,31.7c0.4,0.4,0.9,0.6,1.4,0.6c0.5,0,1-0.2,1.4-0.6l3.1-3.1l3.1,3.1c0.4,0.4,0.9,0.6,1.4,0.6c0.5,0,1-0.2,1.4-0.6
		c0.8-0.8,0.8-2,0-2.8L25,25.8l3.1-3.1c0.8-0.8,0.8-2,0-2.8c-0.8-0.8-2-0.8-2.8,0L22.2,23l-3.1-3.1c-0.8-0.8-2-0.8-2.8,0
		c-0.8,0.8-0.8,2,0,2.8l3.1,3.1l-3.1,3.1C15.5,29.7,15.5,31,16.3,31.7z"/>
	<path d="M37.9,31.7c0.4,0.4,0.9,0.6,1.4,0.6c0.5,0,1-0.2,1.4-0.6l3.1-3.1l3.1,3.1c0.4,0.4,0.9,0.6,1.4,0.6c0.5,0,1-0.2,1.4-0.6
		c0.8-0.8,0.8-2,0-2.8l-3.1-3.1l3.1-3.1c0.8-0.8,0.8-2,0-2.8c-0.8-0.8-2-0.8-2.8,0L43.8,23l-3.1-3.1c-0.8-0.8-2-0.8-2.8,0
		c-0.8,0.8-0.8,2,0,2.8l3.1,3.1l-3.1,3.1C37.2,29.7,37.2,31,37.9,31.7z"/>
</g>
</svg>
