<?xml version="1.0" encoding="utf-8"?>
<!-- Generator: Adobe Illustrator 22.1.0, SVG Export Plug-In . SVG Version: 6.00 Build 0)  -->
<svg version="1.1" id="圖層_1" xmlns="http://www.w3.org/2000/svg" xmlns:xlink="http://www.w3.org/1999/xlink" x="0px" y="0px"
	 viewBox="0 0 113.4 66.7" style="enable-background:new 0 0 113.4 66.7;" xml:space="preserve">
<g>
	<path d="M52.9,31.4c-0.1-0.1-8.8-14.3-8.9-14.2c-5.1-6.1-17.3-5.7-28.6,1.3C3.8,25.7-2.5,37,0.9,44.2l-0.1,0L13,63.8
		c12.1,6.9,28.3-0.2,40.2-7.5c20.4-12.6,35.4-33,58.2-38.2l1.9-0.4L102.3,0C80.5,4.9,66.3,21.2,52.9,31.4z M50.6,33.1
		c-1.4,1-2.8,2-4.3,2.9l-2.5-4.1l-1.6,1l2.6,4.1c-2.9,1.8-5.9,3.5-9,5.1l-2.3-3.8l-1.6,1l2.2,3.6c-2.1,1-4.2,1.9-6.3,2.6l-3.9-6.3
		c6.2,0.5,18.9-5.8,21.1-15.3L50.6,33.1z M25,46.5c-2.6,0.8-5.2,1.3-7.6,1.5c0.6-1.5,2.1-3.5,5.4-5.1C24,44.8,24.9,46.3,25,46.5z
		 M24.1,28.1l4.6,7.7C19.7,38.8,18.9,32.2,24.1,28.1z M3.8,43.6C0.3,38,6.4,27.4,16.9,20.9c8.3-5.1,17.6-6.5,22.7-3.7
		c6.7,3.5,0.9,13.3-8.2,17.5L25,24.1l-1.2,0.7c0,0,0,0-0.1,0c-4.7,2.9-6.9,7.7-5.1,11.2c0.1,0.2,1.3,2.2,2.7,4.4
		c-4.7,2.3-6.3,5.4-6.9,7.6C9.5,48,5.6,46.5,3.8,43.6z M84,28.8L77.9,19l-1.6,1l6.2,10c-3.3,2.5-6.4,5.1-9.5,7.8l-6-9.8l-1.6,1
		l6.2,10c-3.2,2.7-6.5,5.5-10,8.2l-6.1-9.9l-1.6,1L60,48.2c-2.6,1.9-5.4,3.9-8.4,5.7c-0.6,0.4-1.2,0.7-1.8,1.1l-5.9-9.6l-1.6,1
		l5.9,9.6c-3.3,1.9-6.8,3.6-10.4,5l-6.2-10.1l-1.6,1l6,9.8c-3.4,1.2-6.9,2-10.2,2.2l-6.2-10l-1.6,1l5.6,9.1
		c-3.1-0.1-6.1-0.7-8.7-2.2l-7.4-12c11.6,4.1,27.3-3.4,37.8-9.8l0,0C60.7,30.5,69.1,19.8,84,10.6c3.2-2,6.4-3.6,9.5-4.9l7.9,12.7
		c-2,0.9-4,1.8-6,3l-5.9-9.5l-1.6,1l5.8,9.5C90.3,24.3,87.1,26.5,84,28.8z"/>
</g>
</svg>
