<?xml version="1.0" encoding="utf-8"?>
<!-- Generator: Adobe Illustrator 22.0.1, SVG Export Plug-In . SVG Version: 6.00 Build 0)  -->
<svg version="1.1" id="圖層_1" xmlns="http://www.w3.org/2000/svg" xmlns:xlink="http://www.w3.org/1999/xlink" x="0px" y="0px"
	 viewBox="0 0 49 61.6" style="enable-background:new 0 0 49 61.6;" xml:space="preserve">
<g>
	<path d="M46.3,57.6h-2H46.3L46.3,57.6z M46.3,57.6l-2-1.3c0-1.1,0.6-2.1,1.3-3.2c0.7-1.1,1.4-2.3,1.4-3.5V36.2
		c0-0.9-0.9-1.7-1.7-1.7h-3.7v-1c0-0.9-0.9-1.7-1.7-1.7h-3.2l-0.3-0.5c-0.3-0.5-1.3-0.9-1.8-0.9h-1.7v7h-2V20.1
		c0-0.9-0.8-1.7-1.7-1.7s-1.7,0.8-1.7,1.7v20.5l-3,2.8L20.5,37c-0.9-1.2-1.9-1.2-2.4-1.2c-0.6,0.1-1,0.4-1.1,0.6
		c1.9,5.4,4.1,11.4,4.4,12c0.3,0.5,1.1,1.3,1.9,2.2c1.9,2,3,3.2,3,4.3v2.7h-2v-2.7c-0.1-0.4-1.6-2-2.4-2.9c-0.9-0.9-1.7-1.8-2.1-2.5
		c-0.6-0.9-3.8-10-4.7-12.7l-0.1-0.2v-0.2c0-1,0.9-2,2.2-2.4c1.4-0.5,3.5-0.2,5,1.9l2.9,4.4l0.6-0.6V20.1c0-2,1.6-3.7,3.7-3.7
		s3.7,1.6,3.7,3.7v8.4h1.7c1,0,2.3,0.5,3.2,1.3H40c1.4,0,3,1.1,3.5,2.7h1.8c1.7,0,3.7,1.6,3.7,3.7v13.4c0,1.8-0.9,3.2-1.7,4.5
		c-0.5,0.8-1,1.6-1,2.2V57.6z"/>
	<rect x="36.3" y="30.8" width="2" height="6.7"/>
	<rect x="41.6" y="33.5" width="2" height="5.4"/>
	<polygon points="49,61.6 47,61.6 47,58.6 23.6,58.6 23.6,61.6 21.6,61.6 21.6,56.6 49,56.6 	"/>
	<path d="M18.5,32.1l-0.6-0.4C6.3,23.2,1.1,18.9,0.1,12.5c-0.2-1.6-0.7-7.1,3.7-10.4c2.2-1.7,5.5-2.4,8.5-1.9
		c2.4,0.4,4.6,1.7,6.1,3.5c1.5-1.9,3.7-3.1,6.1-3.5c3-0.6,6.3,0.2,8.5,1.9c4.4,3.4,3.9,8.9,3.7,10.4c-0.2,1.4-0.6,2.7-1.3,4
		l-1.8-0.9c0.5-1.1,0.9-2.2,1.1-3.4c0.2-1.3,0.6-5.8-2.9-8.6c-1.8-1.4-4.4-2-6.9-1.5c-1.7,0.3-4,1.2-5.6,3.8l-0.9,1.4L17.6,6
		C16,3.4,13.7,2.5,12,2.2C9.5,1.7,6.9,2.3,5.1,3.7c-3.5,2.7-3.1,7.2-2.9,8.6c0.8,5.2,4.8,9,16.3,17.4c1.9-1.4,3.5-2.6,4.8-3.6
		l1.2,1.6c-1.5,1.1-3.2,2.4-5.5,4.1L18.5,32.1z"/>
</g>
</svg>
