<?xml version="1.0" encoding="utf-8"?>
<!-- Generator: Adobe Illustrator 22.0.1, SVG Export Plug-In . SVG Version: 6.00 Build 0)  -->
<svg version="1.1" id="圖層_1" xmlns="http://www.w3.org/2000/svg" xmlns:xlink="http://www.w3.org/1999/xlink" x="0px" y="0px"
	 viewBox="0 0 57 51.3" style="enable-background:new 0 0 57 51.3;" xml:space="preserve">
<path d="M40.8,0l1.6,0c3.8,0.4,7.1,2,9.9,4.7c6.3,6.3,6.3,16.6,0,22.9L28.5,51.3L4.7,27.6c-6.3-6.3-6.3-16.6,0-22.9
	c2.7-2.6,6.2-4.4,9.9-4.7l1.6,0l1.6,0c3.8,0.4,7.1,2,9.9,4.7l0.9,0.9l0.9-0.9C32,2.1,35.5,0.3,39.3,0L40.8,0z M40.8,3l-1.4,0
	c-3.1,0.2-5.8,1.8-8,3.8l-1.4,1.4l-3.4,9l7.2,9.7l-6.2,9.8l2,9.1l20.3-20.3c5.2-5.4,5.2-13.3,0-18.7c-2.2-2.1-5-3.4-8-3.8L40.8,3z
	 M16.2,3l-1.4,0c-3,0.2-5.8,1.8-8,3.8c-4.2,4.3-5.1,10.9-2,16.1c0.6,1,1.3,1.8,2,2.6l19.8,19.8l-2-9.1l5.7-9.2l-7-9.3l3.6-9.5
	l-1.3-1.3c-2.2-2.1-5-3.5-8-3.8L16.2,3z M16.2,3"/>
</svg>
