<?xml version="1.0" encoding="utf-8"?>
<!-- Generator: Adobe Illustrator 16.0.0, SVG Export Plug-In . SVG Version: 6.00 Build 0)  -->
<!DOCTYPE svg PUBLIC "-//W3C//DTD SVG 1.1//EN" "http://www.w3.org/Graphics/SVG/1.1/DTD/svg11.dtd">
<svg version="1.1" id="facebook" xmlns="http://www.w3.org/2000/svg" xmlns:xlink="http://www.w3.org/1999/xlink" x="0px" y="0px"
	 width="5.607px" height="11.996px" viewBox="0 0 5.607 11.996" enable-background="new 0 0 5.607 11.996" xml:space="preserve">
<path fill-rule="evenodd" clip-rule="evenodd" d="M5.604,0C5.603,0.038,5.599,0.076,5.599,0.114c0,0.613-0.002,1.228,0.002,1.841
	c0,0.094-0.028,0.117-0.119,0.116C5.15,2.066,4.817,2.067,4.485,2.074c-0.114,0.002-0.229,0.02-0.341,0.041
	c-0.211,0.04-0.365,0.212-0.374,0.45C3.753,2.999,3.755,3.435,3.748,3.868C3.746,3.948,3.8,3.934,3.846,3.934
	c0.543,0,1.086,0,1.629,0c0.038,0,0.076,0,0.132,0C5.534,4.626,5.463,5.307,5.39,5.999c-0.545,0-1.086,0-1.641,0
	c0,2.006,0,4.001,0,6.001c-0.752,0-1.493,0-2.245,0c0-1.997,0-3.992,0-5.995c-0.503,0-0.994,0-1.497,0
	C0.006,5.968,0.002,5.938,0.002,5.907c0-0.623,0.001-1.246-0.002-1.869C0,3.95,0.028,3.932,0.11,3.933
	c0.419,0.004,0.837,0.001,1.256,0.001c0.137,0,0.136,0,0.137-0.133c0.006-0.549,0.001-1.099,0.021-1.647
	C1.539,1.749,1.624,1.355,1.811,0.99c0.206-0.401,0.526-0.674,0.951-0.81c0.235-0.074,0.485-0.106,0.728-0.158
	C3.523,0.016,3.557,0.008,3.591,0C4.262,0,4.934,0,5.604,0z"/>
</svg>
