<?xml version="1.0" encoding="utf-8"?>
<!-- Generator: Adobe Illustrator 16.0.0, SVG Export Plug-In . SVG Version: 6.00 Build 0)  -->
<!DOCTYPE svg PUBLIC "-//W3C//DTD SVG 1.1//EN" "http://www.w3.org/Graphics/SVG/1.1/DTD/svg11.dtd">
<svg version="1.1" id="圖層_1" xmlns="http://www.w3.org/2000/svg" xmlns:xlink="http://www.w3.org/1999/xlink" x="0px" y="0px"
	 width="12px" height="11.44px" viewBox="0 0 12 11.44" enable-background="new 0 0 12 11.44" xml:space="preserve">
<path fill-rule="evenodd" clip-rule="evenodd" d="M5.999,0c1.528,0.013,2.933,0.412,4.153,1.356
	c0.899,0.695,1.537,1.572,1.766,2.707c0.226,1.115-0.024,2.131-0.654,3.065c-0.487,0.724-1.132,1.294-1.797,1.845
	c-1.069,0.885-2.216,1.655-3.438,2.312c-0.103,0.056-0.211,0.106-0.323,0.139c-0.215,0.063-0.356-0.073-0.303-0.293
	c0.045-0.184,0.122-0.359,0.163-0.543c0.042-0.194,0.073-0.394,0.083-0.592C5.66,9.788,5.552,9.688,5.345,9.669
	C4.046,9.552,2.856,9.14,1.819,8.334C0.869,7.595,0.233,6.65,0.049,5.446c-0.177-1.153,0.129-2.198,0.833-3.119
	c0.871-1.14,2.053-1.793,3.426-2.132C4.863,0.059,5.427-0.005,5.999,0z M5.903,4.549c0.042,0.052,0.062,0.074,0.079,0.098
	c0.365,0.495,0.729,0.99,1.096,1.483c0.109,0.147,0.248,0.202,0.384,0.158c0.143-0.045,0.219-0.163,0.219-0.351
	c0-0.76,0-1.519-0.002-2.279C7.678,3.457,7.545,3.314,7.364,3.313C7.187,3.311,7.052,3.458,7.052,3.657
	C7.051,4.078,7.051,4.499,7.049,4.919c0,0.037-0.007,0.073-0.013,0.137c-0.04-0.051-0.063-0.078-0.083-0.106
	c-0.355-0.482-0.71-0.965-1.066-1.448C5.763,3.334,5.645,3.285,5.496,3.33C5.342,3.377,5.273,3.493,5.273,3.707
	C5.271,4.446,5.268,5.185,5.268,5.924c0,0.23,0.124,0.373,0.316,0.375c0.196,0.002,0.32-0.134,0.322-0.365
	c0.002-0.288-0.002-0.575-0.003-0.862C5.902,4.909,5.903,4.747,5.903,4.549z M8.733,3.945c0.284,0,0.551,0.002,0.817,0
	c0.21-0.003,0.349-0.126,0.353-0.306c0.004-0.191-0.131-0.327-0.345-0.33C9.183,3.305,8.809,3.305,8.434,3.311
	C8.214,3.314,8.093,3.438,8.092,3.66C8.088,4.424,8.086,5.188,8.088,5.953c0,0.231,0.122,0.345,0.356,0.345
	c0.375,0.001,0.749,0.001,1.124,0c0.049,0,0.103-0.006,0.148-0.025c0.145-0.061,0.216-0.201,0.185-0.349
	C9.87,5.775,9.745,5.672,9.577,5.67C9.296,5.667,9.016,5.669,8.73,5.669c0-0.189,0-0.36,0-0.544c0.285,0,0.561,0.002,0.836,0
	c0.201-0.002,0.34-0.136,0.338-0.32C9.902,4.625,9.771,4.501,9.573,4.493C9.496,4.49,9.419,4.492,9.342,4.492
	c-0.203,0-0.406,0-0.609,0C8.733,4.3,8.733,4.133,8.733,3.945z M2.738,5.672c0-0.07,0-0.125,0-0.18
	c-0.001-0.604,0-1.209-0.004-1.814C2.732,3.456,2.608,3.317,2.422,3.315C2.237,3.314,2.107,3.456,2.106,3.674
	C2.103,4.433,2.102,5.191,2.104,5.95c0,0.23,0.125,0.347,0.356,0.348c0.369,0.001,0.738,0.001,1.107,0
	c0.055,0,0.114-0.006,0.164-0.027c0.136-0.058,0.211-0.204,0.185-0.337c-0.029-0.147-0.158-0.258-0.318-0.26
	C3.318,5.669,3.037,5.672,2.738,5.672z M4.831,4.797c-0.002,0-0.005,0-0.008,0c0-0.374,0.004-0.748-0.003-1.122
	C4.818,3.594,4.793,3.501,4.748,3.434C4.667,3.313,4.535,3.292,4.405,3.34C4.251,3.397,4.202,3.527,4.202,3.684
	c0,0.749-0.003,1.497-0.003,2.245c0,0.226,0.128,0.369,0.321,0.367c0.188-0.002,0.309-0.138,0.31-0.36
	C4.833,5.556,4.831,5.177,4.831,4.797z"/>
</svg>
