<?xml version="1.0" encoding="utf-8"?>
<!-- Generator: Adobe Illustrator 16.0.0, SVG Export Plug-In . SVG Version: 6.00 Build 0)  -->
<!DOCTYPE svg PUBLIC "-//W3C//DTD SVG 1.1//EN" "http://www.w3.org/Graphics/SVG/1.1/DTD/svg11.dtd">
<svg version="1.1" id="圖層_1" xmlns="http://www.w3.org/2000/svg" xmlns:xlink="http://www.w3.org/1999/xlink" x="0px" y="0px"
	 width="12px" height="9.822px" viewBox="0 0 12 9.822" enable-background="new 0 0 12 9.822" xml:space="preserve">
<path fill-rule="evenodd" clip-rule="evenodd" d="M3.581,7.707C2.465,7.578,1.695,7.037,1.29,5.979
	c0.365,0.007,0.702,0.04,1.06-0.049C1.14,5.539,0.495,4.74,0.43,3.479C0.764,3.635,1.107,3.73,1.497,3.763
	C0.408,2.844,0.194,1.752,0.75,0.459C0.966,0.67,1.159,0.858,1.352,1.048c1.232,1.212,2.722,1.852,4.436,1.99
	c0.026,0.002,0.053,0,0.06,0c0-0.225,0.001-0.438,0-0.653C5.839,1.342,6.656,0.266,7.85,0.048c0.786-0.144,1.511,0.036,2.114,0.589
	c0.126,0.115,0.251,0.152,0.406,0.094c0.349-0.132,0.697-0.264,1.045-0.398c0.087-0.033,0.172-0.075,0.289-0.127
	c-0.195,0.554-0.538,0.958-0.966,1.308c0.435-0.023,0.838-0.179,1.262-0.29c-0.022,0.033-0.042,0.069-0.065,0.102
	c-0.284,0.386-0.612,0.729-0.99,1.023c-0.086,0.066-0.124,0.137-0.125,0.245c-0.01,0.548-0.044,1.093-0.167,1.628
	c-0.43,1.872-1.396,3.39-2.996,4.476C6.792,9.283,5.835,9.643,4.798,9.758c-0.969,0.107-1.938,0.1-2.891-0.161
	C1.273,9.424,0.68,9.158,0.111,8.833c-0.031-0.017-0.059-0.038-0.088-0.06C0.019,8.771,0.018,8.762,0,8.725
	C1.314,8.824,2.504,8.517,3.581,7.707z"/>
</svg>
