<?xml version="1.0" encoding="utf-8"?>
<!-- Generator: Adobe Illustrator 16.0.0, SVG Export Plug-In . SVG Version: 6.00 Build 0)  -->
<!DOCTYPE svg PUBLIC "-//W3C//DTD SVG 1.1//EN" "http://www.w3.org/Graphics/SVG/1.1/DTD/svg11.dtd">
<svg version="1.1" id="圖層_1" xmlns="http://www.w3.org/2000/svg" xmlns:xlink="http://www.w3.org/1999/xlink" x="0px" y="0px"
	 width="100px" height="42.666px" viewBox="0 0 100 42.666" enable-background="new 0 0 100 42.666" xml:space="preserve">
<g>
	<g>
		<polygon fill="#4C4948" points="38.389,42.23 40.026,33.971 39.174,33.971 39.347,33.115 41.917,33.115 40.267,41.375 
			41.124,41.375 40.959,42.23 		"/>
		<path fill="#4C4948" d="M46.003,42.23l0.528-2.67c-0.393,0.826-0.889,1.502-1.482,2.025c-0.594,0.527-1.153,0.787-1.686,0.787
			c-0.373,0-0.681-0.139-0.924-0.416c-0.242-0.281-0.361-0.645-0.361-1.08c0-1.252,0.449-2.416,1.349-3.496
			c0.897-1.076,1.868-1.617,2.912-1.617c0.24,0,0.645,0.043,1.216,0.123h1.418l-1.087,5.488h0.855l-0.17,0.855H46.003z
			 M46.802,38.207l0.258-1.297c-0.327-0.158-0.652-0.232-0.971-0.232c-0.521,0-0.946,0.221-1.264,0.67
			c-0.25,0.355-0.48,0.854-0.688,1.5c-0.208,0.648-0.31,1.193-0.31,1.629c0,0.18,0.033,0.316,0.106,0.408
			c0.07,0.088,0.176,0.137,0.313,0.137c0.261,0,0.635-0.268,1.12-0.807C45.85,39.686,46.33,39.016,46.802,38.207"/>
		<path fill="#4C4948" d="M56.188,42.23l1.092-5.484h-0.854l0.174-0.859h2.568l-1.097,5.488h0.855l-0.17,0.855H56.188z M57.532,35
			c0.334-0.561,0.556-1.316,0.585-1.885h1.757C59.663,34.258,58.775,35,57.532,35"/>
		<path fill="#4C4948" d="M66.229,42.23h-2.57l0.056-0.285l0.476-2.391c-0.386,0.82-0.876,1.5-1.47,2.027
			c-0.594,0.531-1.159,0.791-1.693,0.791c-0.379,0-0.69-0.141-0.932-0.428c-0.236-0.279-0.355-0.648-0.355-1.102
			c0-0.637,0.155-1.309,0.47-2.021c0.313-0.709,0.725-1.324,1.235-1.848c0.78-0.805,1.653-1.201,2.612-1.201
			c0.228,0,0.516,0.029,0.866,0.088l0.379-1.889h-0.859l0.169-0.857h2.575l-1.647,8.26h0.854L66.229,42.23z M64.457,38.203
			l0.258-1.297c-0.327-0.156-0.654-0.236-0.974-0.236c-0.517,0-0.938,0.229-1.261,0.684c-0.249,0.352-0.478,0.848-0.684,1.492
			c-0.205,0.648-0.308,1.18-0.308,1.602c0,0.186,0.033,0.33,0.1,0.43c0.067,0.096,0.169,0.145,0.304,0.145
			c0.276,0,0.651-0.264,1.121-0.779C63.485,39.73,63.967,39.049,64.457,38.203"/>
		<path fill="#4C4948" d="M69.606,42.373c-0.697,0-1.267-0.193-1.701-0.584c-0.437-0.395-0.653-0.902-0.653-1.533
			c0-1.168,0.44-2.211,1.32-3.131c0.881-0.916,1.887-1.379,3.011-1.379c0.726,0,1.31,0.199,1.752,0.578
			c0.434,0.393,0.66,0.906,0.66,1.551c0,1.174-0.446,2.223-1.333,3.131C71.775,41.924,70.758,42.373,69.606,42.373 M70.123,41.477
			c0.521,0,0.983-0.334,1.384-0.996c0.401-0.666,0.601-1.43,0.601-2.285c0-0.514-0.082-0.9-0.247-1.162
			c-0.169-0.254-0.416-0.381-0.754-0.381c-0.512,0-0.971,0.328-1.371,0.994c-0.4,0.668-0.603,1.426-0.603,2.281
			c0,0.467,0.092,0.844,0.272,1.127C69.583,41.334,69.823,41.477,70.123,41.477"/>
		<path fill="#4C4948" d="M51.705,40.945c-0.218-0.25-0.323-0.578-0.323-1c0-0.854,0.213-1.619,0.643-2.297
			c0.431-0.674,0.915-0.99,1.458-1.012c0.655-0.029,1.167,0.219,1.797,1.031c0.048-0.25,0.311-1.58,0.311-1.58
			c-0.585-0.227-1.165-0.342-1.743-0.342c-1.15,0-2.156,0.449-3.02,1.346c-0.863,0.895-1.293,1.936-1.293,3.121
			c0,0.654,0.213,1.176,0.64,1.568c0.427,0.395,0.993,0.592,1.702,0.592c0.77,0,1.655-0.203,2.658-0.611l0.22-1.109
			c-0.788,0.438-1.514,0.658-2.172,0.658C52.211,41.311,51.919,41.184,51.705,40.945"/>
		<path fill="#4C4948" d="M37.887,34.123c-0.421-0.291-1.054-0.434-1.896-0.434h-2.672c-1.011,0-2.142,0.143-2.864,0.438
			c-1.142,0.475-1.928,1.232-2.068,2.35c-0.21,1.662,1.839,1.75,1.868,0.48c-0.657-0.24-0.466-1.154,0.157-1.668
			c0.563-0.461,1.37-0.748,2.544-0.748c-0.06,0.309-0.681,3.48-0.896,4.518c-0.212,1.031-0.518,2.209-1.424,3.156l-0.003,0.016
			h4.267l0.173-0.848h-2.854c0.834-0.486,1.292-1.082,1.438-1.744c0.119-0.551,0.186-0.918,0.186-0.918h0.438
			c1.598,0,2.747-0.416,3.447-1.254c0.527-0.633,0.792-1.309,0.792-2.031C38.519,34.85,38.308,34.414,37.887,34.123 M36.056,37.227
			c-0.456,0.426-1.046,0.635-1.764,0.635h-0.283l0.659-3.32h0.578c0.499,0,0.873,0.086,1.124,0.256
			c0.246,0.172,0.372,0.43,0.372,0.781C36.741,36.248,36.513,36.799,36.056,37.227"/>
		<path fill="#7A006E" d="M56.9,25.189c1.872-1.273,5.477-4.52,5.79-16.221c-1.072-0.016-2.13,0-3.128,0
			c0.116,10.969-1.463,14.367-4.01,16.221h-8.408v1.154h17.692v-1.154H56.9z"/>
		<path fill="#7A006E" d="M50.549,8.969c0,3.848,0.026,11.572,4.753,14.539c-2.089-4.063-1.776-10.303-1.716-14.539H50.549z"/>
		<path fill="#7A006E" d="M49.029,13.066c-0.936,0-1.893,0.125-2.883,0.395V7.271h2.883V6.115h-2.883V0.84h-2.477v5.275h-3.883
			v1.156h3.883c0,0,0.005,3.57,0.009,7.143c-1.242,0.615-2.533,1.467-3.892,2.59v4.131c0.742-1.041,2.136-2.84,3.892-4.516
			c0.002,1.859,0,3.49-0.004,4.32c-0.003,0.895-0.153,3.131-0.563,4.643c-0.411,1.508-1.312,3.377-2.417,4.221
			c1.713-0.67,3.833-1.998,4.794-4.344c0.68-1.66,0.658-3.762,0.658-5.061v-5.814C47.067,13.941,48.035,13.41,49.029,13.066"/>
		<path fill="#7A006E" d="M63.427,6.115h-7.683c1.074-0.965,2.613-2.887,3.07-5.275h-3.07c-0.149,1.445-0.184,3.908-0.886,5.275
			h-4.83v1.156h13.398V6.115z"/>
		<path fill="#7A006E" d="M85.43,2.426h-3.735h-6.781H70.96h-4.246v21.082c1.262,3.365,5.971,5.875,11.591,5.875
			c5.619,0,10.327-2.51,11.587-5.875V2.426H85.43z M81.098,3.432c0.183,2.488-1.327,3.619-2.793,3.619
			c-1.468,0-2.974-1.131-2.791-3.619H81.098z M70.96,3.432h2.307c0.259,3.322,2.124,4.096,4.011,4.398v1.49h-7.854L69.42,3.432
			H70.96z M78.305,27.881c-3.804,0-7.121-1.262-8.885-3.121l0.004-14.32h8.881h8.879l0.003,14.32
			C85.424,26.619,82.104,27.881,78.305,27.881 M87.184,9.32h-7.854V7.83c1.889-0.303,3.757-1.076,4.019-4.398h2.082h1.757
			L87.184,9.32z"/>
		<path fill="#7A006E" d="M81.229,22.752c0.142-0.035,0.315-0.08,0.52-0.137v-7.734H74.86v7.734c0.203,0.057,0.378,0.102,0.52,0.137
			c0.801,0.188,1.64,0.326,2.925,0.326C79.587,23.078,80.43,22.939,81.229,22.752 M76.519,15.803h3.57v6.188
			c-0.486,0.096-1.031,0.158-1.784,0.158c-0.751,0-1.299-0.063-1.786-0.158V15.803z"/>
		<path fill="#7A006E" d="M71.149,24.076c0.42,0.234,0.781,0.441,1.079,0.582c1.662,0.787,3.408,1.379,6.076,1.379
			s4.414-0.592,6.074-1.379c0.298-0.141,0.658-0.348,1.084-0.58v-11.92H71.149V24.076z M73.286,13.281h10.035v10.445
			c-1.371,0.543-2.905,0.916-5.017,0.916c-2.114,0-3.645-0.373-5.019-0.916V13.281z"/>
		<path fill="#7A006E" d="M19.114,0.84h-2.479l0.003,4.869h-4.164v1.152h4.164c-0.207,3.439-1.63,7.631-2.481,9.152
			c-0.852,1.521-1.978,3.094-3.31,3.172C9.7,19.252,9.26,18.408,9.353,17.584c-1.278,0.156-1.786,2.039-0.481,2.922
			c1.634,1.109,5.106,0.271,7.771-5.73c0.001,1.066,0.005,5.453,0,6.166c-0.004,0.889-0.155,3.129-0.564,4.641
			c-0.411,1.508-1.31,3.377-2.415,4.221c1.713-0.67,3.832-1.994,4.793-4.344c0.68-1.66,0.659-3.762,0.659-5.061v-5.623
			c0.796,0.936,2.092,1.852,3.625,2.051c-2.524-2.85-3.625-6.646-3.626-9.965h3.626V5.709h-3.626V0.84z"/>
		<path fill="#7A006E" d="M28.51,5.709c1.629-0.828,2.692-2.816,3.067-4.869H28.51c-0.045,1.328-0.188,3.502-0.889,4.869h-3.884
			v19.879v0.186c1.521,1.623,3.917,2.676,6.611,2.676c2.697,0,5.089-1.053,6.611-2.676v-0.199V5.709H28.51z M34.225,25.887
			c-1.086,0.633-2.423,1.018-3.876,1.018c-1.516,0-2.911-0.416-4.023-1.109V16.23h7.899V25.887z M34.225,15.078h-7.898V6.861h7.898
			V15.078z"/>
	</g>
</g>
</svg>
