<?xml version="1.0" encoding="utf-8"?>
<!-- Generator: Adobe Illustrator 16.0.0, SVG Export Plug-In . SVG Version: 6.00 Build 0)  -->
<!DOCTYPE svg PUBLIC "-//W3C//DTD SVG 1.1//EN" "http://www.w3.org/Graphics/SVG/1.1/DTD/svg11.dtd">
<svg version="1.1" id="圖層_1" xmlns="http://www.w3.org/2000/svg" xmlns:xlink="http://www.w3.org/1999/xlink" x="0px" y="0px"
	 width="109.986px" height="130.983px" viewBox="0 0 109.986 130.983" enable-background="new 0 0 109.986 130.983"
	 xml:space="preserve">
<g>
	<path fill="#7A006E" d="M67.63,63.533h19.792V30.965c-5.343-2.033-13.381-3.302-19.697-2.67
		c3.272,3.155,12.545,10.091,12.545,18.329C80.27,54.259,67.63,63.533,67.63,63.533 M83.557,33.862v9.082
		c-1.773-5.572-5.14-9.365-9.164-12.021C77.473,31.318,81.898,32.526,83.557,33.862 M83.557,59.675H78.32
		c2.533-2.737,4.354-5.826,5.236-10.351V59.675z"/>
	<path fill="#7A006E" d="M35.401,46.625c0-8.238,9.269-15.174,12.542-18.329c-6.318-0.632-14.356,0.637-19.694,2.67v32.567h19.788
		C48.037,63.533,35.401,54.26,35.401,46.625 M41.279,30.924c-4.032,2.656-7.397,6.449-9.168,12.02v-9.082
		C33.772,32.526,38.192,31.319,41.279,30.924 M32.111,49.325c0.88,4.525,2.701,7.613,5.237,10.351h-5.237V49.325z"/>
	<path fill="#7A006E" d="M73.863,4.577c2.134,7.225-9.284,13.169-11.569,14.844c4.278,0.087,17.011,0.097,25.128-3.305V4.577H73.863
		z M83.557,12.927c-2.439,1.948-7.652,3.824-14.471,4.539c3.653-1.733,8.277-4.205,8.73-9.027h5.74V12.927z"/>
	<path fill="#7A006E" d="M41.8,4.577H28.245v11.539c8.121,3.402,20.854,3.392,25.127,3.305C51.086,17.746,39.667,11.802,41.8,4.577
		 M32.111,12.927V8.439h5.739c0.452,4.822,5.079,7.294,8.732,9.027C39.762,16.751,34.548,14.875,32.111,12.927"/>
	<path fill="#7A006E" d="M70.395,22.386H59.766v-5.329c6.377-3.408,10.65-7.884,10.616-11.763
		c-0.024-3.763-5.446-4.515-12.548-4.515S45.311,1.531,45.285,5.294c-0.034,3.879,4.238,8.355,10.62,11.763v5.329h-10.63
		c-14.131-0.535-17.03-2.588-17.03-2.588v7.956c0,0,2.899-2.059,17.03-2.594h12.559h12.561c14.131,0.535,17.027,2.594,17.027,2.594
		v-7.956C87.422,19.798,84.525,21.851,70.395,22.386 M51.247,7.944c-0.606-1.771-1.418-5.23,6.587-5.23
		c8.006,0,7.197,3.459,6.584,5.23c-0.742,2.138-3.941,5.953-6.584,6.82C55.195,13.897,51.994,10.082,51.247,7.944"/>
	<path fill="#7A006E" d="M74.795,40.914c-2.171-3.085-5.799-7.037-9.02-9.482c-2.228-1.699-3.656-1.591-5.063-0.395
		c-1.707,1.45-2.881,2.712-2.881,2.712s-1.177-1.262-2.886-2.712c-1.404-1.196-2.834-1.304-5.062,0.395
		c-3.22,2.445-6.847,6.397-9.015,9.482c-3.18,4.519-1.444,9.042,1.161,12.163c6.094,7.284,15.801,14.31,15.801,14.316
		c0-0.006,9.707-7.032,15.796-14.316C76.236,49.956,77.975,45.433,74.795,40.914 M57.832,39.002c0,0,2.169,1.799,3.859,3.831
		c1.558,1.877,1.207,3.256,0.287,4.301c-1.537,1.751-4.146,3.545-4.146,3.545s-2.611-1.794-4.148-3.545
		c-0.92-1.045-1.269-2.424,0.285-4.301C55.66,40.801,57.832,39.002,57.832,39.002 M70.061,50.281
		c-3.854,4.89-12.227,11.237-12.227,11.237H57.83c0,0-8.377-6.347-12.232-11.237c-3.199-4.058-2.383-5.645-0.479-8.349
		c1.342-1.902,4.993-5.746,6.172-6.719c0.656-0.545,1.299-0.658,1.903-0.165c0.902,0.737,1.47,1.386,1.47,1.386
		s-4.414,4.167-5.959,6.287c-1.62,2.224-1.372,3.579-0.19,5.167c2.664,3.577,9.316,8.978,9.316,8.978h0.004
		c0,0,6.652-5.401,9.313-8.978c1.183-1.588,1.43-2.943-0.189-5.167c-1.545-2.12-5.958-6.287-5.958-6.287s0.565-0.649,1.463-1.386
		c0.609-0.493,1.25-0.38,1.908,0.165c1.18,0.973,4.834,4.817,6.174,6.719C72.45,44.636,73.262,46.224,70.061,50.281"/>
	<path fill="#AECFED" d="M74.393,30.923c4.024,2.656,7.391,6.449,9.164,12.021v-9.083C81.898,32.526,77.473,31.318,74.393,30.923"/>
	<path fill="#AECFED" d="M83.557,59.675V49.325c-0.883,4.525-2.703,7.614-5.236,10.351H83.557z"/>
	<path fill="#AECFED" d="M32.111,42.944c1.771-5.571,5.136-9.364,9.168-12.021c-3.087,0.396-7.507,1.603-9.168,2.939V42.944z"/>
	<path fill="#AECFED" d="M32.111,59.675h5.237c-2.536-2.737-4.357-5.826-5.237-10.351V59.675z"/>
	<path fill="#AECFED" d="M57.834,2.713c-8.004,0-7.193,3.459-6.586,5.23c0.746,2.138,3.946,5.954,6.586,6.821
		c2.643-0.867,5.842-4.683,6.584-6.821C65.03,6.172,65.84,2.713,57.834,2.713"/>
	<path fill="#AECFED" d="M57.832,39.002c0,0-2.172,1.799-3.863,3.831c-1.555,1.877-1.205,3.256-0.286,4.301
		c1.538,1.751,4.149,3.545,4.149,3.545s2.608-1.794,4.146-3.545c0.921-1.045,1.272-2.424-0.286-4.301
		C60.002,40.802,57.832,39.002,57.832,39.002"/>
	<path fill="#C3D600" d="M77.816,8.439c-0.453,4.822-5.078,7.294-8.729,9.026c6.817-0.714,12.03-2.591,14.47-4.538V8.439H77.816z"/>
	<path fill="#C3D600" d="M37.85,8.439h-5.739v4.488c2.436,1.947,7.651,3.824,14.471,4.538C42.93,15.733,38.302,13.261,37.85,8.439"
		/>
	<path fill="#C3D600" d="M64.369,35.213c-0.656-0.545-1.299-0.658-1.906-0.165C61.564,35.786,61,36.435,61,36.435
		s4.412,4.167,5.957,6.287c1.619,2.224,1.371,3.579,0.188,5.167c-2.659,3.577-9.312,8.978-9.312,8.978H57.83
		c0,0-6.652-5.401-9.315-8.978c-1.183-1.588-1.431-2.943,0.188-5.167c1.547-2.12,5.959-6.287,5.959-6.287s-0.566-0.649-1.469-1.386
		c-0.604-0.493-1.248-0.38-1.902,0.165c-1.18,0.973-4.83,4.816-6.174,6.719c-1.901,2.704-2.72,4.291,0.479,8.349
		c3.856,4.89,12.233,11.237,12.233,11.237h0.004c0,0,8.373-6.347,12.227-11.237c3.201-4.058,2.389-5.645,0.484-8.349
		C69.203,40.03,65.551,36.187,64.369,35.213"/>
	<polygon fill="#4C4948" points="41.178,130.02 43.311,119.268 42.201,119.268 42.426,118.15 45.771,118.15 43.624,128.906 
		44.739,128.906 44.524,130.02 	"/>
	<path fill="#4C4948" d="M51.092,130.02l0.688-3.477c-0.511,1.076-1.156,1.953-1.929,2.637c-0.774,0.688-1.501,1.023-2.195,1.023
		c-0.485,0-0.887-0.178-1.203-0.541c-0.315-0.367-0.47-0.838-0.47-1.402c0-1.633,0.584-3.148,1.756-4.553
		c1.168-1.402,2.432-2.107,3.791-2.107c0.313,0,0.84,0.057,1.583,0.16h1.847l-1.416,7.146h1.113l-0.222,1.113H51.092z
		 M52.133,124.783l0.336-1.691c-0.428-0.203-0.851-0.303-1.264-0.303c-0.68,0-1.232,0.289-1.646,0.873
		c-0.325,0.461-0.625,1.113-0.897,1.953c-0.271,0.844-0.402,1.555-0.402,2.121c0,0.234,0.043,0.412,0.139,0.529
		c0.091,0.117,0.229,0.178,0.408,0.178c0.34,0,0.826-0.348,1.457-1.047C50.892,126.705,51.517,125.834,52.133,124.783"/>
	<path fill="#4C4948" d="M64.352,130.02l1.42-7.141H64.66l0.227-1.119h3.344l-1.428,7.146h1.113l-0.221,1.113H64.352z
		 M66.102,120.607c0.434-0.732,0.723-1.715,0.76-2.457h2.287C68.875,119.641,67.719,120.607,66.102,120.607"/>
	<path fill="#4C4948" d="M77.424,130.02h-3.346l0.072-0.371l0.618-3.111c-0.502,1.066-1.14,1.951-1.913,2.639
		c-0.773,0.691-1.509,1.029-2.203,1.029c-0.494,0-0.9-0.182-1.213-0.557c-0.309-0.363-0.464-0.846-0.464-1.434
		c0-0.83,0.203-1.703,0.611-2.633c0.407-0.924,0.942-1.725,1.608-2.406c1.017-1.047,2.152-1.564,3.4-1.564
		c0.296,0,0.672,0.039,1.129,0.115l0.493-2.459h-1.119l0.22-1.117h3.354l-2.146,10.756h1.114L77.424,130.02z M75.115,124.777
		l0.338-1.688c-0.428-0.205-0.853-0.309-1.269-0.309c-0.673,0-1.222,0.297-1.642,0.889c-0.324,0.459-0.621,1.105-0.891,1.941
		c-0.266,0.846-0.4,1.537-0.4,2.086c0,0.242,0.044,0.432,0.13,0.561c0.088,0.125,0.22,0.186,0.396,0.186
		c0.36,0,0.848-0.34,1.461-1.012C73.852,126.764,74.478,125.877,75.115,124.777"/>
	<path fill="#4C4948" d="M81.82,130.205c-0.908,0-1.648-0.25-2.215-0.76c-0.568-0.514-0.851-1.176-0.851-1.996
		c0-1.521,0.573-2.881,1.718-4.078c1.148-1.193,2.457-1.793,3.92-1.793c0.945,0,1.705,0.258,2.28,0.754
		c0.567,0.51,0.86,1.176,0.86,2.016c0,1.529-0.58,2.895-1.734,4.078C84.645,129.619,83.32,130.205,81.82,130.205 M82.492,129.035
		c0.68,0,1.28-0.432,1.803-1.295c0.521-0.865,0.781-1.859,0.781-2.973c0-0.67-0.105-1.174-0.322-1.512
		c-0.219-0.334-0.541-0.5-0.981-0.5c-0.666,0-1.263,0.428-1.784,1.295c-0.521,0.869-0.785,1.857-0.785,2.969
		c0,0.611,0.119,1.102,0.355,1.469C81.789,128.852,82.103,129.035,82.492,129.035"/>
	<path fill="#4C4948" d="M58.514,128.346c-0.281-0.326-0.42-0.752-0.42-1.303c0-1.109,0.278-2.107,0.838-2.988
		c0.56-0.879,1.19-1.289,1.896-1.318c0.854-0.037,1.52,0.283,2.339,1.344c0.063-0.326,0.404-2.061,0.404-2.061
		c-0.761-0.293-1.517-0.441-2.269-0.441c-1.498,0-2.808,0.582-3.931,1.75c-1.123,1.164-1.685,2.52-1.685,4.064
		c0,0.854,0.279,1.531,0.834,2.041c0.556,0.516,1.293,0.771,2.216,0.771c1.002,0,2.155-0.266,3.46-0.795l0.287-1.445
		c-1.026,0.57-1.971,0.855-2.828,0.855C59.174,128.82,58.794,128.656,58.514,128.346"/>
	<path fill="#4C4948" d="M40.525,119.465c-0.548-0.381-1.372-0.566-2.468-0.566h-3.479c-1.316,0-2.789,0.186-3.728,0.572
		c-1.488,0.617-2.511,1.604-2.693,3.059c-0.273,2.162,2.394,2.277,2.432,0.623c-0.855-0.311-0.607-1.5,0.205-2.17
		c0.732-0.6,1.783-0.973,3.312-0.973c-0.079,0.4-0.888,4.529-1.167,5.879c-0.277,1.346-0.674,2.877-1.854,4.111l-0.004,0.02h5.554
		l0.226-1.104h-3.714c1.085-0.633,1.681-1.41,1.871-2.27c0.155-0.719,0.242-1.195,0.242-1.195h0.569c2.08,0,3.576-0.543,4.488-1.635
		c0.686-0.822,1.031-1.705,1.031-2.643C41.348,120.41,41.073,119.842,40.525,119.465 M38.141,123.504
		c-0.594,0.555-1.361,0.83-2.296,0.83h-0.369l0.858-4.324h0.753c0.649,0,1.136,0.109,1.463,0.332
		c0.32,0.223,0.484,0.559,0.484,1.016C39.034,122.23,38.736,122.949,38.141,123.504"/>
	<path fill="#7A006E" d="M65.279,107.832c2.437-1.654,7.129-5.885,7.537-21.115c-1.397-0.023-2.772,0-4.072,0
		c0.151,14.279-1.904,18.703-5.221,21.115H52.578v1.504h23.033v-1.504H65.279z"/>
	<path fill="#7A006E" d="M57.01,86.717c0,5.01,0.035,15.066,6.188,18.93c-2.722-5.291-2.313-13.416-2.235-18.93H57.01z"/>
	<path fill="#7A006E" d="M55.031,92.051c-1.219,0-2.465,0.164-3.754,0.514v-8.059h3.754v-1.504h-3.754v-6.867h-3.225v6.867h-5.057
		v1.504h5.057c0,0,0.006,4.65,0.012,9.299c-1.617,0.803-3.298,1.91-5.068,3.371v5.379c0.967-1.354,2.781-3.695,5.068-5.877
		c0.002,2.418,0,4.545-0.006,5.625c-0.004,1.16-0.199,4.074-0.732,6.043c-0.535,1.963-1.709,4.395-3.146,5.494
		c2.23-0.873,4.989-2.602,6.241-5.654c0.885-2.162,0.856-4.898,0.856-6.59v-7.57C52.477,93.191,53.736,92.496,55.031,92.051"/>
	<path fill="#7A006E" d="M73.773,83.002h-10c1.397-1.258,3.4-3.76,3.996-6.867h-3.996c-0.195,1.881-0.24,5.088-1.153,6.867h-6.288
		v1.504h17.441V83.002z"/>
	<path fill="#7A006E" d="M102.42,78.197h-4.863h-8.828h-5.146h-5.528v27.447c1.644,4.381,7.772,7.65,15.09,7.65
		c7.314,0,13.445-3.27,15.084-7.65V78.197H102.42z M96.78,79.51c0.238,3.238-1.728,4.711-3.636,4.711
		c-1.912,0-3.871-1.473-3.633-4.711H96.78z M83.583,79.51h3.002c0.337,4.322,2.765,5.33,5.222,5.723v1.941H81.582l-0.004-7.664
		H83.583z M93.145,111.338c-4.953,0-9.271-1.643-11.566-4.064l0.004-18.645h11.563h11.559l0.004,18.645
		C102.412,109.695,98.092,111.338,93.145,111.338 M104.703,87.174H94.479v-1.941c2.458-0.393,4.891-1.4,5.23-5.723h2.711h2.287
		L104.703,87.174z"/>
	<path fill="#7A006E" d="M96.952,104.662c0.186-0.045,0.411-0.105,0.677-0.18v-10.07H88.66v10.07
		c0.264,0.074,0.492,0.135,0.677,0.18c1.042,0.244,2.134,0.424,3.808,0.424C94.814,105.086,95.91,104.906,96.952,104.662
		 M90.818,95.613h4.648v8.055c-0.633,0.127-1.343,0.207-2.322,0.207c-0.979,0-1.691-0.08-2.326-0.207V95.613z"/>
	<path fill="#7A006E" d="M83.828,106.385c0.549,0.303,1.018,0.576,1.406,0.758c2.164,1.023,4.437,1.793,7.91,1.793
		c3.473,0,5.746-0.77,7.908-1.793c0.387-0.182,0.857-0.455,1.41-0.756V90.869H83.828V106.385z M86.611,92.33h13.064v13.6
		c-1.785,0.707-3.782,1.191-6.531,1.191c-2.752,0-4.744-0.484-6.533-1.191V92.33z"/>
	<path fill="#7A006E" d="M16.085,76.135h-3.227l0.004,6.338H7.441v1.5h5.421c-0.27,4.479-2.122,9.934-3.23,11.914
		c-1.109,1.98-2.576,4.031-4.309,4.131c-1.495,0.086-2.067-1.012-1.947-2.086c-1.664,0.205-2.324,2.654-0.626,3.805
		c2.128,1.443,6.648,0.354,10.117-7.463c0.001,1.393,0.007,7.102,0,8.029c-0.005,1.16-0.202,4.074-0.735,6.043
		c-0.535,1.963-1.705,4.396-3.143,5.494c2.23-0.873,4.988-2.596,6.239-5.654c0.886-2.162,0.859-4.898,0.859-6.592v-7.32
		c1.036,1.221,2.722,2.412,4.719,2.672c-3.286-3.709-4.719-8.652-4.721-12.973h4.721v-1.5h-4.721V76.135z"/>
	<path fill="#7A006E" d="M28.317,82.473c2.121-1.078,3.505-3.668,3.993-6.338h-3.993c-0.059,1.727-0.244,4.557-1.157,6.338h-5.056
		v25.879v0.244c1.98,2.111,5.099,3.484,8.607,3.484c3.511,0,6.626-1.373,8.608-3.484v-0.26V82.473H28.317z M35.758,108.74
		c-1.414,0.824-3.155,1.324-5.046,1.324c-1.974,0-3.789-0.539-5.237-1.441V96.172h10.283V108.74z M35.758,94.67H25.476V83.973
		h10.282V94.67z"/>
</g>
</svg>
