<?xml version="1.0" encoding="utf-8"?>
<!-- Generator: Adobe Illustrator 16.0.0, SVG Export Plug-In . SVG Version: 6.00 Build 0)  -->
<!DOCTYPE svg PUBLIC "-//W3C//DTD SVG 1.1//EN" "http://www.w3.org/Graphics/SVG/1.1/DTD/svg11.dtd">
<svg version="1.1" id="圖層_1" xmlns="http://www.w3.org/2000/svg" xmlns:xlink="http://www.w3.org/1999/xlink" x="0px" y="0px"
	 width="70.991px" height="70.991px" viewBox="0 0 70.991 70.991" enable-background="new 0 0 70.991 70.991" xml:space="preserve">
<g>
	<path fill="#7A006E" d="M45.88,66.71h20.98V32.188c-5.663-2.154-14.185-3.5-20.879-2.83c3.469,3.345,13.298,10.695,13.298,19.429
		C59.279,56.88,45.88,66.71,45.88,66.71 M62.764,35.259v9.628c-1.881-5.907-5.448-9.927-9.715-12.742
		C56.313,32.563,61.006,33.843,62.764,35.259 M62.764,62.62h-5.552c2.686-2.899,4.615-6.174,5.552-10.97V62.62z"/>
	<path fill="#7A006E" d="M11.716,48.788c0-8.733,9.826-16.085,13.296-19.43c-6.697-0.67-15.218,0.676-20.876,2.83V66.71h20.975
		C25.111,66.71,11.716,56.881,11.716,48.788 M17.948,32.145c-4.274,2.815-7.841,6.836-9.718,12.742v-9.628
		C9.99,33.843,14.675,32.563,17.948,32.145 M8.23,51.65c0.932,4.797,2.863,8.07,5.551,10.97H8.23V51.65z"/>
	<path fill="#7A006E" d="M52.488,4.217c2.262,7.658-9.842,13.959-12.265,15.734c4.535,0.092,18.032,0.104,26.637-3.504V4.217H52.488
		z M62.764,13.067c-2.586,2.065-8.112,4.054-15.34,4.812c3.872-1.837,8.774-4.457,9.255-9.569h6.085V13.067z"/>
	<path fill="#7A006E" d="M18.5,4.217H4.131v12.23c8.608,3.607,22.106,3.596,26.636,3.504C28.344,18.176,16.239,11.875,18.5,4.217
		 M8.23,13.067V8.31h6.083c0.479,5.112,5.384,7.732,9.256,9.569C16.34,17.121,10.813,15.133,8.23,13.067"/>
	<path fill="#7A006E" d="M48.812,23.095H37.545v-5.649c6.76-3.612,11.289-8.357,11.253-12.469C48.771,0.988,43.024,0.19,35.496,0.19
		c-7.527,0-13.274,0.798-13.302,4.786c-0.036,4.111,4.493,8.856,11.258,12.469v5.649H22.184C7.206,22.527,4.132,20.351,4.132,20.351
		v8.434c0,0,3.074-2.183,18.052-2.749h13.312h13.315c14.979,0.566,18.049,2.749,18.049,2.749v-8.434
		C66.86,20.351,63.79,22.527,48.812,23.095 M28.514,7.785c-0.643-1.877-1.503-5.544,6.982-5.544c8.487,0,7.63,3.667,6.979,5.544
		c-0.786,2.267-4.178,6.311-6.979,7.229C32.7,14.096,29.306,10.052,28.514,7.785"/>
	<path fill="#7A006E" d="M53.475,42.733c-2.301-3.27-6.146-7.459-9.561-10.051c-2.36-1.801-3.875-1.687-5.366-0.419
		c-1.809,1.537-3.054,2.875-3.054,2.875s-1.247-1.338-3.059-2.875c-1.488-1.268-3.004-1.382-5.365,0.419
		c-3.413,2.592-7.258,6.781-9.556,10.051c-3.372,4.791-1.531,9.586,1.231,12.894c6.459,7.721,16.749,15.168,16.749,15.174
		c0-0.006,10.29-7.453,16.744-15.174C55.003,52.319,56.846,47.524,53.475,42.733 M35.494,40.708c0,0,2.299,1.907,4.091,4.06
		c1.652,1.99,1.279,3.451,0.305,4.56c-1.63,1.857-4.396,3.758-4.396,3.758s-2.768-1.9-4.397-3.758
		c-0.976-1.108-1.345-2.569,0.302-4.56C33.192,42.615,35.494,40.708,35.494,40.708 M48.456,52.663
		c-4.084,5.184-12.96,11.912-12.96,11.912h-0.004c0,0-8.879-6.729-12.966-11.912c-3.391-4.301-2.526-5.983-0.508-8.849
		c1.422-2.018,5.293-6.092,6.542-7.123c0.695-0.578,1.376-0.697,2.017-0.176c0.957,0.783,1.558,1.47,1.558,1.47
		s-4.679,4.417-6.316,6.665c-1.717,2.356-1.455,3.792-0.202,5.478c2.824,3.791,9.875,9.516,9.875,9.516h0.004
		c0,0,7.053-5.725,9.872-9.516c1.254-1.686,1.516-3.121-0.2-5.478c-1.639-2.248-6.316-6.665-6.316-6.665s0.6-0.687,1.55-1.47
		c0.647-0.521,1.325-0.402,2.023,0.176c1.25,1.031,5.125,5.105,6.545,7.123C50.99,46.68,51.851,48.362,48.456,52.663"/>
	<path fill="#AECFED" d="M53.049,32.145c4.267,2.815,7.834,6.835,9.715,12.742v-9.628C61.006,33.843,56.313,32.563,53.049,32.145"/>
	<path fill="#AECFED" d="M62.764,62.62V51.65c-0.937,4.796-2.866,8.07-5.552,10.97H62.764z"/>
	<path fill="#AECFED" d="M8.23,44.887c1.877-5.906,5.444-9.927,9.718-12.743c-3.273,0.42-7.958,1.699-9.718,3.115V44.887z"/>
	<path fill="#AECFED" d="M8.23,62.62h5.551c-2.688-2.899-4.619-6.174-5.551-10.97V62.62z"/>
	<path fill="#AECFED" d="M35.496,2.241c-8.484,0-7.625,3.666-6.981,5.543c0.791,2.267,4.184,6.312,6.981,7.231
		c2.802-0.92,6.193-4.965,6.979-7.231C43.125,5.907,43.983,2.241,35.496,2.241"/>
	<path fill="#AECFED" d="M35.494,40.708c0,0-2.302,1.907-4.095,4.06c-1.648,1.99-1.278,3.452-0.304,4.561
		c1.63,1.856,4.398,3.758,4.398,3.758s2.765-1.901,4.395-3.758c0.976-1.108,1.35-2.57-0.304-4.561
		C37.794,42.615,35.494,40.708,35.494,40.708"/>
	<path fill="#C3D600" d="M56.679,8.31c-0.48,5.112-5.384,7.732-9.254,9.568c7.227-0.757,12.753-2.746,15.339-4.811V8.31H56.679z"/>
	<path fill="#C3D600" d="M14.313,8.31H8.23v4.758c2.582,2.064,8.11,4.054,15.339,4.811C19.698,16.042,14.793,13.422,14.313,8.31"/>
	<path fill="#C3D600" d="M42.424,36.691c-0.696-0.578-1.376-0.697-2.021-0.176c-0.952,0.783-1.55,1.47-1.55,1.47
		s4.676,4.417,6.314,6.665c1.716,2.357,1.453,3.792,0.199,5.478c-2.818,3.791-9.871,9.516-9.871,9.516h-0.004
		c0,0-7.051-5.725-9.874-9.516c-1.254-1.686-1.517-3.12,0.2-5.478c1.64-2.248,6.316-6.665,6.316-6.665s-0.601-0.687-1.557-1.47
		c-0.64-0.521-1.323-0.402-2.016,0.176c-1.25,1.031-5.12,5.105-6.544,7.123c-2.016,2.866-2.883,4.548,0.508,8.85
		c4.088,5.183,12.967,11.911,12.967,11.911h0.004c0,0,8.876-6.729,12.96-11.911c3.395-4.302,2.533-5.983,0.515-8.85
		C47.549,41.797,43.676,37.723,42.424,36.691"/>
</g>
</svg>
