<?xml version="1.0" encoding="utf-8"?>
<!-- Generator: Adobe Illustrator 16.0.0, SVG Export Plug-In . SVG Version: 6.00 Build 0)  -->
<!DOCTYPE svg PUBLIC "-//W3C//DTD SVG 1.1//EN" "http://www.w3.org/Graphics/SVG/1.1/DTD/svg11.dtd">
<svg version="1.1" xmlns="http://www.w3.org/2000/svg" xmlns:xlink="http://www.w3.org/1999/xlink" x="0px" y="0px" width="59.75px"
	 height="63px" viewBox="0 0 59.75 63" enable-background="new 0 0 59.75 63" xml:space="preserve">
<g id="Layer_1">
	<g>
		<g>
			<path fill="#040000" d="M4.075,7.316c0-3.305,4.21-6.118,9.168-6.118c6.906,0,11.575,3.662,11.575,9.142
				c0,2.752-2.268,5.855-5.486,7.523L17.117,19l2.283,0.966c4.491,1.896,7.157,5.419,7.157,9.439
				c0,6.579-5.255,10.815-13.408,10.815c-5.363,0-10.834-3.493-10.834-6.93c0-1.887,0.975-3.018,2.54-3.018
				c1.334,0,2.362,1.03,2.362,2.339c0,0.82-0.405,1.505-1.309,2.206l-0.803,0.617l0.505,0.88c0.921,1.559,3.501,3.392,7.905,3.392
				c3.242,0,8.669-1.326,8.669-10.301c0-7.014-4.739-10.21-9.153-10.21L7.925,19.6l-0.529,0.094c-0.124,0-0.773-0.039-0.773-0.788
				c0-0.552,0.507-0.7,0.773-0.7l0.514,0.071l5.12,0.311c4.5,0,7.399-3.243,7.399-8.247c0-7.164-4.148-8.667-7.585-8.667
				c-2.345,0-5.262,1.004-6.026,2.859L6.414,5.537l0.944,0.476C8.052,6.366,8.861,7.027,8.861,8.19c0,1.247-1.083,2.354-2.33,2.354
				C5.043,10.543,4.075,9.28,4.075,7.316z"/>
			<path fill="#040000" d="M33.885,9.222c0-3.18,3.508-7.872,11.029-7.872c7.671,0,12.271,3.437,12.271,9.243
				c0,3.221-2.947,8.093-7.857,12.996L37.447,35.586h19.332l0.109-0.78l1.231-7.195c0-0.202,0.171-0.304,0.493-0.304
				c0.396,0,0.396,0.124,0.396,0.304l-0.328,1.925l-1.042,8.193v1.754c0,0.366-0.142,0.584-0.274,0.584l-1.949-0.141L52,39.678
				c-0.015,0-17.998-0.094-17.998-0.094c-0.304,0-0.484-0.077-0.516-0.148c-0.039-0.101,0.023-0.375,0.313-0.646l13.539-15.862
				c3.641-4.297,5.441-8,5.441-11.375c0-7.795-4.662-9.423-8.551-9.423c-3.992,0-6.727,1.878-7.671,3.765l-0.7,1.385l1.544,0.274
				c1.037,0.156,2.251,0.959,2.251,2.54c0,1.373-1.214,2.557-2.625,2.557C35.733,12.651,33.885,11.567,33.885,9.222z"/>
		</g>
		<g>
			<g>
				<g>
					<path fill="#040000" d="M1.637,49.698h4.601v0.417H4.821l3.054,9.079h0.038l2.927-9.079H9.184v-0.417h3.457v0.417h-1.292
						L7.494,62.121H7.04L2.966,50.115H1.637V49.698z"/>
					<path fill="#040000" d="M13.895,61.846V61.43h1.219v-6.368h-1.219v-0.416h0.601c0.673,0,1.381-0.018,2.037-0.182v6.966h1.072
						v0.417H13.895z M15.804,49.843c0.437,0,0.928,0.399,0.928,0.873c0,0.566-0.399,0.965-0.928,0.965
						c-0.528,0-0.873-0.437-0.873-0.965C14.932,50.242,15.35,49.843,15.804,49.843z"/>
					<path fill="#040000" d="M22.953,61.846V61.43h-1.401V49.152c-0.654,0.127-1.364,0.165-2.035,0.165h-0.785v0.417h1.403V61.43
						h-1.403v0.417H22.953z"/>
					<path fill="#040000" d="M28.009,61.846V61.43h-1.401V49.152c-0.653,0.127-1.364,0.165-2.037,0.165h-0.783v0.417h1.401V61.43
						h-1.401v0.417H28.009z"/>
					<path fill="#040000" d="M36.413,60.592c-0.055,0.855-0.708,1.491-1.546,1.491c-0.674,0-1.057-0.436-1.184-1.11
						c-0.619,0.763-1.526,1.11-2.454,1.11c-1.147,0-2.129-0.436-2.129-1.781c0.058-1.692,1.785-2.638,4.565-2.638v-1.728
						c0-0.855-0.671-1.11-1.309-1.11c-0.401,0-1.69,0.127-1.69,0.656c0,0.145,0.544,0.237,0.544,0.835
						c0,0.454-0.29,0.765-0.746,0.765c-0.491,0-0.762-0.364-0.762-0.875c0-0.655,0.745-1.745,2.91-1.745
						c2.476,0,2.476,1.055,2.476,1.783v4.329c0,0.544,0,0.837,0.381,0.837c0.364,0,0.544-0.511,0.636-0.82H36.413z M33.665,58.046
						c-1.182,0.017-3.202,0.217-3.202,1.892c0,0.891,0.566,1.437,1.402,1.437c0.581,0,0.964-0.147,1.401-0.529
						c0.145-0.145,0.399-0.346,0.399-1.11V58.046z"/>
					<path fill="#040000" d="M45.979,55.409v0.037c1.691,0.344,3.292,1.11,3.292,3.182c0,1.329-1.309,3.456-4.421,3.456
						c-2.418,0-3.291-1.326-3.291-2.236c0-0.636,0.508-1.163,1.127-1.163c0.438,0,0.965,0.325,0.965,0.816
						c0,1.237-1.127,0.619-1.127,1.184c0,0.654,1.653,1.035,2.145,1.035c1.947,0,2.728-1.072,2.728-3.436
						c0-1.563-1.072-2.546-2.872-2.546c-0.527,0-0.801,0.11-0.983,0.11c-0.162,0-0.546-0.04-0.546-0.293
						c0-0.235,0.257-0.29,0.436-0.29c0.292,0,0.583,0.092,0.891,0.092c1.167,0,2.256-0.618,2.421-1.892
						c0.035-0.384,0.092-0.748,0.092-1.147c0-1.364-0.855-2.017-2.111-2.017c-0.381,0-1.381,0.162-1.381,0.688
						c0,0.383,0.745,0.167,0.745,0.93c0,0.544-0.327,0.927-0.855,0.927c-0.655,0-0.982-0.401-0.982-1.072
						c0-0.511,0.546-1.893,3.037-1.893c1.619,0,3.33,1.038,3.33,2.674C48.616,54.044,47.197,55.027,45.979,55.409z"/>
					<path fill="#040000" d="M58.055,61.846h-7.42v-0.89l1.545-1.526c3.075-3.022,4.274-4.496,4.274-6.057
						c0-1.53-1.09-2.895-2.62-2.895c-1.562,0-2.307,1.127-2.307,1.838c0,0.109,0.018,0.202,0.018,0.292
						c0.272-0.127,0.526-0.217,0.728-0.217c0.581,0,0.908,0.491,0.908,0.925c0,0.636-0.437,1.037-0.908,1.037
						c-0.765,0-1.256-0.708-1.256-1.471c0-2.075,1.765-3.002,3.546-3.002c1.765,0,3.767,1.038,3.767,3.072
						c0,1.311-0.746,2.366-3.311,4.675l-3.092,2.745h4.837c0.873,0,0.965-0.234,1.038-1.491h0.508L58.055,61.846z"/>
				</g>
			</g>
		</g>
	</g>
</g>
<g id="圖層_2">
</g>
</svg>
