<?xml version="1.0" encoding="utf-8"?>
<!-- Generator: Adobe Illustrator 16.0.0, SVG Export Plug-In . SVG Version: 6.00 Build 0)  -->
<!DOCTYPE svg PUBLIC "-//W3C//DTD SVG 1.1//EN" "http://www.w3.org/Graphics/SVG/1.1/DTD/svg11.dtd">
<svg version="1.1" id="Layer_1" xmlns="http://www.w3.org/2000/svg" xmlns:xlink="http://www.w3.org/1999/xlink" x="0px" y="0px"
	 width="240.945px" height="240.945px" viewBox="0 0 240.945 240.945" enable-background="new 0 0 240.945 240.945"
	 xml:space="preserve">
<g>
	<rect x="181.639" y="158.219" width="49.141" height="2.051"/>
	<path d="M100.735,120.458c-13.158,3.877-29.263,10.456-33.82,25.041c-1.936,7.929,0.592,15.518,6.914,20.497
		c6.834,5.476,17.515,7.508,25.217,3.788c4.559-2.272,8.668-6.104,10.372-11.806l-0.168-0.168
		c-5.06,3.372-12.733,3.289-17.632-0.253c-4.122-3.289-6.403-7.836-6.235-13.069c0.847-10.03,11.475-17.534,20.242-20.072
		c2.869-0.847,6.159-1.516,9.525-1.677c-2.015,9.862-10.208,19.146-19.14,24.708v0.333c5.727,1.856,12.393,0.677,17.968-0.762
		c1.442,6.434,3.712,14.532,7.407,22.021c3.701-7.488,5.971-15.587,7.424-22.021c5.564,1.438,12.227,2.618,17.967,0.762v-0.333
		c-8.943-5.562-17.121-14.846-19.148-24.708c3.373,0.161,6.67,0.83,9.537,1.677c8.76,2.538,19.391,10.042,20.232,20.072
		c0.174,5.233-2.104,9.78-6.238,13.069c-4.896,3.542-12.566,3.625-17.625,0.253l-0.17,0.168c1.705,5.702,5.82,9.533,10.373,11.806
		c7.695,3.72,18.379,1.688,25.217-3.788c6.33-4.979,8.854-12.568,6.922-20.497c-4.561-14.585-20.666-21.164-33.828-25.041
		c20.498-1.853,39.904-7.27,54.818-22.014c11.133-11.8,18.301-28.504,11.811-44.772c-3.969-11.131-15.188-18.213-26.561-19.056
		c-16.791-1.606-31.121,10.623-38.125,24.706c-1.268,2.95-2.291,5.698-3.033,9.272c9.691-8.683,20.996-16.359,34.826-13.067
		c6.264,1.477,12.373,6.644,14.092,13.235c2.869,12.063-1.951,23.188-10.803,31.542c-12.906,10.709-28.752,14.843-45.373,16.273
		c0.422-8.846,2.623-16.948,8.184-23.521c3.963-4.471,8.766-7.171,14.584-6.577c3.965,0.457,11.771,7.416,2.281,16.52l0.336,0.344
		c8.609-1.261,17.621-8.349,19.988-17.034c2.754-10.858-6.832-24.772-21.248-19.737c-20.748,7.674-28.088,29.958-29.262,50.207
		c-0.064,0.471-1.914,0.672-2.162,0.15c-4.813-23.277,6.883-42.173,11.689-62.757c4.133-19.978-6.639-36.066-16.705-51.774
		c-10.058,15.708-20.816,31.796-16.688,51.774c4.806,20.583,16.493,39.48,11.688,62.757c-0.253,0.521-2.1,0.32-2.168-0.15
		c-1.179-20.249-8.501-42.532-29.254-50.207c-14.421-5.035-24.009,8.879-21.249,19.737c2.353,8.685,11.389,15.773,19.979,17.034
		l0.34-0.344c-9.48-9.104-1.689-16.063,2.285-16.52c5.812-0.594,10.612,2.105,14.587,6.577c5.559,6.573,7.751,14.676,8.179,23.521
		c-16.621-1.43-32.463-5.564-45.37-16.273c-8.847-8.353-13.661-19.479-10.798-31.542c1.707-6.591,7.824-11.758,14.088-13.235
		c13.828-3.292,25.126,4.385,34.822,13.067c-0.739-3.575-1.773-6.323-3.041-9.272c-6.989-14.083-21.327-26.312-38.11-24.706
		c-11.385,0.843-22.6,7.925-26.563,19.056c-6.499,16.268,0.675,32.972,11.802,44.772C60.844,113.188,80.242,118.605,100.735,120.458
		"/>
	<rect x="12.055" y="158.221" width="49.133" height="2.057"/>
	<path d="M148.885,202.546c-2.836,0-5.266-1.083-6.076-2.275c-0.822-1.214-0.701-3.036-1.039-3.036h-0.646v6.075
		c3.543,0.843,7.844,1.348,11.209-0.174c2.197-1.022,6.924-5.372,4.135-10.773c-2.627-5.114-12.73-1.966-12.73-8.941
		c0-4.501,5.523-5.142,8.52-3.964c1.803,0.78,1.584,2.671,2.061,3.625c0.15,0.348,0.328,0.311,0.635,0.339
		c0.342-1.687,0.529-3.293,0.801-5.083c-4.271-1.639-10.912-1.924-13.529,2.639c-0.932,1.766-1.494,3.998-0.758,6.06
		c2.271,5.568,10.266,3.566,12.357,7.615C155.432,197.775,153.156,202.546,148.885,202.546"/>
	<path d="M56.902,202.894c-1.346-0.234-2.854-0.333-2.854-1.431c0,0,0.003-20.968,0-21.586c-0.004-0.618,6.071-1.28,8.047,0.769
		c1.574,1.64,1.471,4.008,0.325,5.867c-1.033,1.709-3.653,2.999-6.887,3.144c3.551,5.014,5.739,8.061,10.288,13.892h4.721v-0.713
		l-0.879-0.289c-2.636-1.818-6.624-7.561-10.1-12.041c0,0,3.635-1.111,5.371-3.059c2.23-2.506,1.814-5.5,1.038-6.813
		c-3.303-5.519-11.314-1.873-17.895-2.82v0.711c0.993,0.132,2.835,0.236,2.87,1.376v21.563c0,1.098-1.82,1.229-2.858,1.34v0.745
		h8.813V202.894z"/>
	<path d="M83.596,179.851c1.839,0.366,2.094,1.385,2.094,2.498h0.796v-4.069c0-0.366-0.429-0.504-0.429-0.504
		c-5.266-0.038-10.418,0.459-15.647,0.015v0.75c0.845,0.104,2.821,0.161,2.821,1.274v21.648c0,0.637-0.986,1.372-1.863,1.34v0.745
		c4.716-0.167,10.311-0.321,14.95,0.185c1.597,0.104,1.178-2.746,1.259-5.276h-0.691c-0.291,1.425-0.343,2.374-2.089,2.855
		c-1.758,0.459-6.154,0.567-8.394-0.168v-10.052h7.26c0.982,0,1.3,1.367,1.532,2.083h0.616c0,0-0.219-1.932-0.219-3.084
		c0-1.168,0.219-3.306,0.219-3.306h-0.616c-0.232,0.661-0.55,2.164-1.532,2.164h-7.243v-9.099
		C76.419,179.851,81.75,179.497,83.596,179.851"/>
	<path d="M137.832,178.544v-0.731h-8.842v0.731c1.096,0.176,2.615,0,2.861,1.355v21.563c-0.246,1.348-1.766,1.185-2.861,1.34v0.764
		h8.842v-0.764c-1.096-0.155-2.615,0.008-2.861-1.34v-21.563C135.217,178.544,136.736,178.72,137.832,178.544"/>
	<path d="M190.016,230.399v-16.778c0.244-1.346,1.357-1.183,2.455-1.346v-0.746h-6.813v0.746c1.102,0.163,2.229,0,2.484,1.346
		v16.356c0,4.27-3.041,6.163-7.883,6.163c-3.906,0-7.301-1.854-7.301-6.061v-16.459c0.248-1.346,1.289-1.183,2.379-1.346v-0.746
		h-7.877v0.746c1.088,0.163,2.297,0,2.551,1.346v16.931c0,3.491,1.656,7.275,9.604,7.275
		C187.629,237.827,190.016,233.984,190.016,230.399"/>
	<path d="M120.982,202.934v0.614h6.848v-0.662c-0.707-0.051-1.285-0.325-1.715-1.102c-1.203-2.487-6.572-15.7-10.341-25.019
		l-11.313,21.996c-0.968,1.552-1.523,2.701-3.039,2.737c0,0-3.52-0.036-4.017-0.036c-0.499,0-1.306,0-1.306-0.41v-21.153
		c0-1.14,1.672-1.223,2.906-1.368v-0.719h-8.083v0.792c0.684,0.104,2.092,0.376,2.092,1.295v21.563
		c-0.24,0.841-0.92,1.098-2.085,1.372v0.731l15.977-0.019v-0.713c0,0-1.968-0.166-1.455-1.384c0.431-1.009,2.332-5.466,4.132-9.089
		h9.103l3.609,9.261C122.543,202.304,121.668,202.835,120.982,202.934 M110.886,190.149c1.229-2.606,2.304-4.89,3.819-7.912
		c1.008,2.427,1.939,4.896,3.002,7.912H110.886z"/>
	<path d="M98.902,236.698v0.608h6.985v-0.651c-0.707-0.048-1.289-0.321-1.718-1.109c-1.212-2.469-6.585-15.71-10.341-25.03
		L82.517,232.54c-1.034,1.707-1.737,3.97-3.253,4.019c-1.206,0-2.604,0.004-2.857-1.338v-21.584
		c0.253-1.352,1.766-1.182,2.857-1.352v-0.735h-8.847v0.735c1.105,0.17,2.621,0,2.882,1.352v8.792H58.48v-8.792
		c0.259-1.352,1.78-1.182,2.874-1.352v-0.735h-8.842v0.735c1.092,0.17,2.603,0,2.859,1.352v21.584
		c-0.257,1.342-1.767,1.166-2.859,1.338v0.748h8.842v-0.748c-1.093-0.172-2.615,0.004-2.874-1.338v-10.962h14.819v10.962
		c-0.261,1.342-1.776,1.166-2.882,1.338v0.748h14.536v-0.699c0,0-1.964-0.166-1.446-1.387c0.424-0.998,2.319-5.476,4.13-9.108h9.115
		l3.469,9.282C100.466,236.071,99.587,236.607,98.902,236.698 M88.915,223.912c1.244-2.607,2.315-4.902,3.831-7.921
		c1.01,2.435,1.936,4.901,3.007,7.921H88.915z"/>
	<path d="M147.139,236.607c0,0-1.957-0.166-1.443-1.387c0.432-0.998,2.33-5.476,4.131-9.108h9.121l3.482,9.282
		c0.25,0.677-0.637,1.213-1.316,1.304v0.608h6.959v-0.651c-0.699-0.048-1.285-0.321-1.729-1.109
		c-1.191-2.469-6.563-15.71-10.32-25.03l-11.313,22.024c-0.975,1.541-1.41,2.525-3.051,2.729c-2.307,0.276-8.422,0.384-10.66-0.352
		v-10.066h7.258c0.986,0,1.305,1.365,1.537,2.087h0.611c0,0-0.213-1.928-0.213-3.094c0-1.161,0.213-3.302,0.213-3.302h-0.611
		c-0.232,0.676-0.551,2.162-1.537,2.162h-7.23v-9.084c0,0,5.322-0.378,7.176,0c1.836,0.346,2.084,1.367,2.084,2.477h0.795v-4.057
		c0-0.366-0.426-0.512-0.426-0.512c-5.256-0.028-10.43,0.453-15.643,0.006v0.765c0.848,0.097,2.816,0.165,2.816,1.269v21.667
		c0,0.626-0.977,1.372-1.871,1.337v0.734c4.729-0.17,10.135-0.174,14.957,0h6.223V236.607z M154.951,215.991
		c1,2.435,1.928,4.901,2.998,7.921h-6.83C152.355,221.305,153.428,219.01,154.951,215.991"/>
	<path d="M182.67,179.542c-0.453-1.372-3.311-2.313-4.023-2.029c-2.02,0.849-4.119,2.364-5.313,4.381
		c-0.934,1.972,0,4.564,0.76,6.494c-1.768,1.769-3.967,3.198-4.881,5.474c-1.766,4.698,1.947,9.018,5.77,10.081
		c3.375,1.095,6.705-0.55,9.234-2.319c0.514-0.312,0.676-0.479,0.982-0.637c0.541,0.325,2.008,1.317,3.738,2.149
		c2.963,1.591,4.695-0.891,6.404-1.853v-0.416c-2.949,1.246-5.803-0.766-7.916-2.453c1.207-1.74,2.186-4.373,2.449-6.995
		l4.506,0.167l0.207-1.93h-9.695l-1.27,1.597c1.436-0.161,3.035,0.756,3.633,2.192c0.477,1.699,0.105,3.229-0.842,4.385
		c-3.365-2.635-6.949-6.063-9.287-10.363C179.324,185.106,183.623,183.239,182.67,179.542 M184.133,200.102
		c-1.436,1.945-4.635,1.612-6.822,1.182c-2.113-0.59-4.385-2.406-5.318-4.377c-1.49-3.558,2.535-7.158,2.535-7.158
		C177.555,193.021,180.332,196.985,184.133,200.102 M176.793,186.104c-1.285-1.13-2.236-5.708,0.596-6.647
		c1.131-0.477,2.65,0.357,2.777,1.346c0.244,1.435-0.492,2.901-1.404,3.742L176.793,186.104z"/>
	<path d="M47.353,213.243c1.937,0.598,0.669,3.302,2.353,3.89c0.311,0.135,0.417,0,0.417,0l0.097-5.062
		c-7.253-1.936-16.694-1.68-21.083,5.494c-2.778,4.661-2.195,11.974,1.514,15.92c4.386,4.803,11.517,5.065,17.63,3.461
		c1.113-0.291,1.435-1.097,1.605-1.93c-3.182,0.954-5.983,1.857-9.865,1.176c-4.072-0.737-7.24-4.172-8.435-7.761
		c-1.523-4.387-0.96-9.858,2.275-13.325C37.403,211.735,42.966,211.816,47.353,213.243"/>
	<path d="M114.827,235.221V213.54c0,0,1.178-0.186,6.363,0c1.189,0.07,1.881,0.669,2.191,1.915h0.668l-0.166-4.134
		c-3.414,0.247-7.02,0.336-10.568,0.336c-3.538,0-7.146-0.089-10.556-0.336l-0.161,4.134h0.654c0.325-1.246,1-1.845,2.194-1.915
		c5.181-0.186,6.369,0,6.369,0v21.681c-0.238,1.342-1.767,1.166-2.857,1.338v0.748h8.725v-0.748
		C116.584,236.387,115.071,236.563,114.827,235.221"/>
	<path d="M213.557,236.262c-3.738-5.765-5.16-8.03-8.002-12.98c2.523-3.74,4.574-6.961,7.504-10.881
		c0.238-0.45,1.707,0.03,1.082-0.865h-3.207c-2.215,3.559-4.279,6.941-6.633,9.936c-1.486-2.481-2.674-5.34-4.455-8.151
		c-1-1.56-3.145-2.454-5.889-1.751l-0.129,0.715c0.816,0.072,1.381,0.147,2.605,1.62c1.682,2.199,3.908,6.357,6.168,10.476
		c-3.006,4.586-6.002,8.609-9.273,13.144h2.281c2.715-3.96,5.141-7.721,7.916-11.291c2.607,3.619,4.553,7.42,6.996,11.202h4.227
		C215.145,236.399,214.191,237.084,213.557,236.262"/>
	<path d="M216.619,234.277c0,1.766,1.438,3.209,3.209,3.209c1.762,0,3.205-1.443,3.205-3.209c0-1.771-1.443-3.207-3.205-3.207
		C218.057,231.07,216.619,232.507,216.619,234.277 M216.969,234.277c0-1.576,1.287-2.852,2.859-2.852
		c1.568,0,2.852,1.275,2.852,2.852c0,1.572-1.283,2.845-2.852,2.845C218.256,237.122,216.969,235.85,216.969,234.277"/>
	<path d="M218.914,232.939h1.258c0.246,0,0.67,0.049,0.67,0.623c0,0.556-0.379,0.65-0.758,0.65h-1.17V232.939z M218.914,234.647
		h1.229c0.6,0,0.664,0.354,0.664,0.664c0,0.144,0.02,0.716,0.092,0.936h0.625v-0.078c-0.166-0.087-0.188-0.166-0.195-0.378
		l-0.033-0.682c-0.02-0.515-0.23-0.609-0.453-0.696c0.254-0.146,0.539-0.35,0.539-0.899c0-0.794-0.627-1.007-1.238-1.007h-1.744
		v3.74h0.516V234.647z"/>
</g>
</svg>
