<?xml version="1.0" encoding="utf-8"?>
<!-- Generator: Adobe Illustrator 15.1.0, SVG Export Plug-In . SVG Version: 6.00 Build 0)  -->
<!DOCTYPE svg PUBLIC "-//W3C//DTD SVG 1.1//EN" "http://www.w3.org/Graphics/SVG/1.1/DTD/svg11.dtd">
<svg version="1.1" id="圖層_1" xmlns="http://www.w3.org/2000/svg" xmlns:xlink="http://www.w3.org/1999/xlink" x="0px" y="0px"
	 width="80px" height="80px" viewBox="0 0 80 80" enable-background="new 0 0 80 80" xml:space="preserve">
<title>蒂凡諾</title>
<polygon points="25.898,27.025 25.898,50.883 35.356,55.402 35.356,27.025 "/>
<polygon points="54.291,50.883 54.291,27.025 44.85,27.025 44.85,55.324 "/>
<path d="M22.498,52.027c0.142,0.439-0.032,0.917-0.422,1.162c-0.219,0.169-0.489,0.26-0.766,0.259c-0.121,0.012-0.241,0.012-0.362,0
	c-0.281-0.075-0.548-0.194-0.792-0.353c0.085,0.09,0.166,0.185,0.241,0.283c0.427,0.539,0.605,1.233,0.491,1.911l-0.129,0.86
	c-0.12,0.504-0.006,1.035,0.31,1.446c0.25,0.327,0.596,0.567,0.99,0.688c0.252,0.086,0.517,0.129,0.783,0.129
	c0.169,0.018,0.339,0.018,0.508,0c0.459-0.09,0.89-0.287,1.257-0.576c0.384-0.272,0.683-0.648,0.86-1.085
	c-0.163-0.071-0.306-0.185-0.413-0.327c-0.136-0.154-0.213-0.354-0.215-0.559c0.029-0.299,0.111-0.591,0.241-0.861
	c0.154-0.266,0.154-0.594,0-0.861c-0.123-0.151-0.304-0.245-0.499-0.258h-0.052c-0.21,0.006-0.414,0.082-0.577,0.215
	c-0.143,0.104-0.246,0.252-0.292,0.422c0.051-0.008,0.104-0.008,0.155,0c0.138-0.008,0.27,0.055,0.353,0.164
	c0.086,0.096,0.127,0.225,0.112,0.354c-0.012,0.129-0.078,0.248-0.181,0.326c-0.087,0.066-0.192,0.102-0.301,0.104H23.72
	c-0.142-0.033-0.267-0.115-0.353-0.232c-0.154-0.211-0.205-0.479-0.138-0.731c0.067-0.278,0.232-0.522,0.465-0.688
	c0.243-0.199,0.547-0.309,0.861-0.311h0.232c0.409,0.06,0.778,0.279,1.024,0.611c0.294,0.377,0.457,0.84,0.465,1.316
	c0.019,0.521-0.09,1.039-0.318,1.507c-0.242,0.493-0.596,0.924-1.033,1.257c-0.435,0.335-0.933,0.581-1.463,0.723
	c-0.354,0.089-0.719,0.135-1.084,0.138l0,0c-0.181,0-0.37,0-0.551,0c-0.542-0.073-1.066-0.242-1.549-0.499
	c-0.48-0.266-0.902-0.625-1.239-1.059c-0.298-0.4-0.525-0.849-0.671-1.326c-0.159-0.533-0.246-1.086-0.258-1.643
	c-0.008-0.395,0.018-0.789,0.077-1.18c-0.117,0.217-0.275,0.41-0.465,0.568c-0.188,0.15-0.421,0.234-0.663,0.24H16.99
	c-0.257-0.015-0.494-0.145-0.646-0.353c-0.198-0.243-0.238-0.578-0.103-0.86l0.069-0.388l0.086,0.31
	c0.023,0.094,0.058,0.184,0.103,0.268c0.057,0.066,0.137,0.109,0.224,0.12l0,0c0.09,0.001,0.179-0.03,0.25-0.086
	c0.189-0.146,0.241-0.379,0.164-0.731c-0.093-0.307-0.114-0.631-0.061-0.947c0.075-0.254,0.232-0.475,0.448-0.628
	c0.156-0.127,0.35-0.199,0.551-0.206h0.121c0.19,0.033,0.369,0.115,0.516,0.24c0.256-0.816,0.755-1.537,1.429-2.065
	c0.258-0.212,0.548-0.382,0.861-0.499c-0.324-0.459-0.684-0.891-1.076-1.291c-0.224-0.183-0.434-0.381-0.628-0.594
	c-1.618-2.074-0.981-2.918-0.981-2.918c0.069,0.516,0.646,0.533,0.646,0.533c0.035-0.641,0.294-1.25,0.731-1.721
	c0.438-0.486,1.067-0.758,1.721-0.74c0.5-0.012,0.985,0.174,1.352,0.516c0.393,0.356,0.612,0.865,0.602,1.395
	c0.001,0.395-0.157,0.773-0.439,1.051c-0.26,0.285-0.629,0.448-1.016,0.447c-0.375,0.012-0.744-0.101-1.05-0.318
	c-0.283-0.193-0.449-0.518-0.439-0.861c-0.007-0.268,0.085-0.527,0.258-0.731c0.161-0.203,0.404-0.323,0.663-0.327
	c0.361,0,0.792,0.155,0.792,0.922c0,0.197-0.172,0.412-0.534,0.662c0,0.061,0.112,0.104,0.31,0.104
	c0.253,0.004,0.496-0.103,0.663-0.293c0.198-0.204,0.301-0.482,0.284-0.766c-0.013-0.338-0.173-0.652-0.439-0.861
	c-0.298-0.277-0.694-0.426-1.102-0.412c-0.47-0.01-0.92,0.189-1.23,0.541c-0.362,0.39-0.554,0.906-0.534,1.438
	c0.001,0.711,0.204,1.406,0.585,2.006c0.448,0.637,1.042,1.558,1.825,2.822c0.453,0.834,0.849,1.697,1.188,2.582
	c0.17,0.363,0.286,0.749,0.344,1.146c0,0.052,0,0.215-0.267,0.215c-0.267,0-0.25-0.12-0.258-0.172l-0.121-0.422l-0.164-0.567
	c-0.19-0.572-0.42-1.131-0.688-1.67c-0.161-0.342-0.338-0.676-0.534-0.999h-0.104c-0.088-0.009-0.178-0.009-0.267,0
	c-0.318,0.013-0.622,0.134-0.861,0.345c-0.277,0.221-0.514,0.488-0.697,0.791c-0.159,0.247-0.292,0.51-0.396,0.783
	c0.179-0.1,0.38-0.156,0.585-0.163h0.052c0.302,0.021,0.578,0.181,0.749,0.431c0.128,0.201,0.221,0.422,0.275,0.654
	c0.05,0.23,0.137,0.451,0.258,0.654c0.094,0.132,0.236,0.222,0.396,0.249h0.078c0.127-0.006,0.248-0.055,0.344-0.138
	c0,0,0.361-0.189,0.396-0.947L22.498,52.027z M17.472,41.76c0.731-0.714,0.861-0.731,1.42-1.316c0.326-0.45,0.595-0.938,0.8-1.455
	c-0.266-0.058-0.52-0.163-0.749-0.31c-0.195-0.152-0.33-0.369-0.378-0.611c-0.005-0.078-0.005-0.155,0-0.232
	c-0.154-0.033-0.304-0.082-0.448-0.146c-0.507-0.217-0.979-0.507-1.403-0.86c-0.413-0.341-0.762-0.752-1.033-1.214
	c-0.296-0.501-0.517-1.043-0.654-1.609c-0.262-1.084-0.171-2.224,0.258-3.253c0.306-0.733,0.81-1.368,1.455-1.833
	c-0.184-0.153-0.318-0.356-0.387-0.585c-0.067-0.255-0.042-0.526,0.069-0.766c0.142-0.382,0.43-0.691,0.8-0.86
	c0.482-0.185,1-0.258,1.515-0.215c0.494,0.028,0.99-0.016,1.472-0.129c0.267-0.088,0.481-0.29,0.585-0.551
	c0.077-0.175,0.077-0.375,0-0.551c-0.076-0.176-0.218-0.315-0.396-0.387c-0.08-0.031-0.164-0.051-0.25-0.06
	c-0.071-0.013-0.144-0.013-0.215,0c-0.134,0.042-0.243,0.139-0.301,0.267c-0.025,0.063-0.025,0.134,0,0.198
	c0.019,0.052,0.06,0.094,0.112,0.112c0,0,0.069,0.129,0.559,0.086c-0.191,0.164-0.437,0.25-0.688,0.241
	c-0.06,0.013-0.121,0.013-0.181,0c-0.161-0.066-0.281-0.203-0.327-0.37c-0.06-0.158-0.06-0.333,0-0.491
	c0.105-0.273,0.342-0.474,0.628-0.534c0.133-0.042,0.273-0.06,0.413-0.052c0.172,0.007,0.341,0.045,0.499,0.112
	c0.293,0.128,0.555,0.319,0.766,0.56c0.224,0.254,0.401,0.545,0.525,0.861c0.125,0.315,0.192,0.65,0.198,0.99
	c0.003,0.333-0.061,0.665-0.189,0.973c-0.124,0.3-0.315,0.568-0.56,0.783c-0.222,0.182-0.468,0.332-0.731,0.447
	c1.016,0.53,1.756,1.47,2.031,2.582c0.203,1.301,0.203,2.625,0,3.925c-0.154,1.385-0.603,2.72-1.317,3.916
	c-0.702,0.945-1.547,1.776-2.504,2.462c-0.336,0.25-0.654,0.516-0.981,0.783c-0.305,0.268-0.592,0.556-0.86,0.86
	c-0.366,0.494-0.521,1.113-0.431,1.722C16.594,45.246,15.535,43.653,17.472,41.76L17.472,41.76z M22.197,33.894
	c-0.407,0.505-0.986,0.842-1.626,0.947c-0.157,0.017-0.316,0.017-0.474,0c-0.273-0.01-0.542-0.071-0.792-0.181
	c-0.417-0.162-0.762-0.467-0.973-0.861c-0.176-0.376-0.176-0.812,0-1.188c0.105-0.274,0.303-0.502,0.56-0.646
	c0.143-0.085,0.307-0.127,0.473-0.121c0.092,0.002,0.183,0.023,0.267,0.06c0.258,0.112,0.534,0.387,0.327,1.05l-0.051,0.146
	l-0.112-0.112c-0.081-0.071-0.17-0.132-0.267-0.181c-0.081-0.04-0.169-0.06-0.258-0.06c-0.202-0.012-0.388,0.11-0.456,0.301
	c-0.098,0.18-0.098,0.397,0,0.577c0.145,0.229,0.359,0.403,0.611,0.5c0.188,0.081,0.39,0.127,0.594,0.138
	c0.223,0.01,0.446-0.028,0.654-0.112c0.389-0.163,0.698-0.472,0.861-0.861c0.148-0.338,0.19-0.713,0.121-1.076
	c-0.075-0.386-0.25-0.745-0.508-1.042c-0.283-0.314-0.633-0.562-1.024-0.723c-0.337-0.148-0.699-0.233-1.067-0.25l0,0
	c-0.163-0.017-0.327-0.017-0.49,0c-0.523,0.068-1.018,0.279-1.429,0.611c-0.444,0.353-0.789,0.815-0.999,1.342
	c-0.265,0.615-0.349,1.293-0.241,1.954c0.104,0.685,0.382,1.331,0.809,1.876c0.435,0.552,1,0.986,1.644,1.265
	c0.104,0.044,0.21,0.082,0.318,0.112c0.172-0.161,0.402-0.245,0.637-0.232l0,0c0.284,0.051,0.568,0.112,0.86,0.155h0.104
	c0.471,0.034,0.927-0.178,1.205-0.56C22.022,35.887,22.276,34.892,22.197,33.894z"/>
<path d="M57.838,51.701c0,0.758,0.396,0.946,0.396,0.946c0.097,0.083,0.218,0.132,0.345,0.138h0.077
	c0.157-0.027,0.297-0.117,0.388-0.25c0.124-0.201,0.214-0.422,0.266-0.653c0.047-0.234,0.141-0.457,0.275-0.654
	c0.172-0.251,0.447-0.409,0.75-0.431h0.051c0.205,0.008,0.406,0.063,0.586,0.164c-0.104-0.277-0.236-0.543-0.396-0.792
	c-0.186-0.3-0.422-0.563-0.697-0.783c-0.24-0.207-0.543-0.329-0.86-0.345c-0.089-0.008-0.179-0.008-0.267,0h-0.104
	c-0.198,0.322-0.377,0.655-0.533,0.999c-0.269,0.54-0.498,1.098-0.689,1.669l-0.163,0.561l-0.12,0.43
	c-0.033,0.113-0.143,0.186-0.258,0.172c-0.25,0-0.275-0.163-0.275-0.215c0.059-0.396,0.178-0.783,0.352-1.145
	c0.34-0.887,0.736-1.748,1.188-2.582c0.783-1.266,1.377-2.187,1.825-2.823c0.381-0.599,0.584-1.295,0.584-2.005
	c0.021-0.531-0.171-1.049-0.533-1.438c-0.311-0.354-0.761-0.551-1.23-0.543c-0.407-0.012-0.803,0.137-1.102,0.414
	c-0.264,0.21-0.424,0.523-0.439,0.86c-0.015,0.282,0.084,0.558,0.275,0.766c0.17,0.192,0.416,0.3,0.672,0.293
	c0.197,0,0.275-0.043,0.31-0.104c-0.361-0.249-0.534-0.465-0.534-0.663c0-0.757,0.432-0.92,0.793-0.92
	c0.258-0.004,0.501,0.119,0.654,0.326c0.179,0.201,0.274,0.463,0.266,0.732c0.01,0.342-0.155,0.667-0.438,0.86
	c-0.306,0.218-0.675,0.329-1.05,0.318c-0.387,0.001-0.756-0.161-1.016-0.448c-0.282-0.275-0.44-0.654-0.439-1.049
	c-0.01-0.531,0.21-1.039,0.604-1.395c0.363-0.34,0.844-0.525,1.342-0.517c0.654-0.017,1.283,0.255,1.722,0.74
	c0.435,0.472,0.69,1.081,0.723,1.722c0,0,0.585,0,0.654-0.534c0,0,0.637,0.86-0.981,2.918c-0.191,0.216-0.402,0.414-0.628,0.594
	c-0.395,0.399-0.755,0.831-1.076,1.291c0.312,0.12,0.603,0.288,0.86,0.499c0.672,0.533,1.172,1.251,1.438,2.066
	c0.145-0.127,0.32-0.211,0.508-0.242h0.112c0.204,0.008,0.399,0.08,0.56,0.207c0.215,0.153,0.373,0.375,0.447,0.629
	c0.053,0.315,0.033,0.64-0.061,0.946c-0.068,0.353,0,0.594,0.155,0.731c0.073,0.058,0.165,0.088,0.259,0.086l0,0
	c0.086-0.006,0.164-0.051,0.215-0.12c0.051-0.083,0.088-0.173,0.111-0.267l0.078-0.318l0.111,0.309
	c0.135,0.283,0.096,0.619-0.104,0.861c-0.15,0.209-0.388,0.338-0.645,0.354h-0.069c-0.241-0.003-0.474-0.085-0.663-0.232
	c-0.192-0.156-0.351-0.35-0.465-0.568c0.061,0.39,0.086,0.784,0.078,1.179c-0.012,0.558-0.1,1.11-0.258,1.644
	c-0.146,0.479-0.377,0.928-0.681,1.326c-0.332,0.435-0.751,0.795-1.23,1.059c-0.481,0.26-1.007,0.429-1.55,0.499
	c-0.18,0-0.369,0-0.551,0l0,0c-0.366-0.001-0.73-0.05-1.084-0.146c-0.533-0.137-1.034-0.38-1.473-0.714
	c-0.434-0.335-0.781-0.77-1.015-1.266c-0.234-0.464-0.35-0.979-0.336-1.498c0.016-0.477,0.181-0.938,0.474-1.316
	c0.243-0.335,0.613-0.556,1.023-0.611h0.232c0.313,0.004,0.615,0.109,0.861,0.302c0.231,0.173,0.398,0.419,0.473,0.697
	c0.063,0.255,0.006,0.524-0.154,0.731c-0.082,0.118-0.204,0.201-0.344,0.232h-0.086c-0.107-0.002-0.21-0.037-0.293-0.104
	c-0.104-0.078-0.17-0.197-0.182-0.327c-0.019-0.128,0.023-0.259,0.112-0.353c0.081-0.109,0.21-0.17,0.345-0.164
	c0.054-0.009,0.109-0.009,0.163,0c-0.055-0.168-0.159-0.314-0.302-0.422c-0.16-0.133-0.359-0.208-0.567-0.215h-0.052
	c-0.197,0.007-0.38,0.102-0.499,0.258c-0.153,0.268-0.153,0.595,0,0.861c0.126,0.271,0.208,0.563,0.241,0.861
	c-0.006,0.207-0.082,0.408-0.215,0.567c-0.111,0.138-0.252,0.247-0.414,0.318c0.178,0.437,0.477,0.813,0.861,1.085
	c0.367,0.289,0.797,0.486,1.256,0.576c0.166,0.013,0.334,0.013,0.5,0c0.27,0,0.536-0.043,0.791-0.129
	c0.392-0.125,0.736-0.365,0.99-0.688c0.313-0.413,0.424-0.943,0.301-1.446l-0.12-0.86c-0.118-0.679,0.06-1.374,0.491-1.911
	c0.07-0.1,0.15-0.191,0.24-0.275c-0.245,0.154-0.512,0.27-0.791,0.344c-0.121,0.013-0.242,0.013-0.362,0
	c-0.276,0.004-0.547-0.088-0.766-0.258c-0.391-0.244-0.567-0.722-0.431-1.162L57.838,51.701z M63.613,45.28
	c0.09-0.608-0.065-1.228-0.432-1.722c-0.271-0.301-0.559-0.588-0.859-0.86c-0.328-0.267-0.646-0.534-0.982-0.783
	c-0.959-0.684-1.804-1.514-2.504-2.461c-0.713-1.198-1.164-2.532-1.326-3.916c-0.199-1.301-0.199-2.625,0-3.925
	c0.134-0.598,0.412-1.153,0.81-1.618c0.338-0.411,0.757-0.749,1.231-0.99c-0.268-0.113-0.517-0.264-0.74-0.448
	c-0.246-0.213-0.438-0.481-0.561-0.783c-0.128-0.308-0.192-0.639-0.188-0.972c0.005-0.339,0.073-0.675,0.198-0.99
	c0.123-0.313,0.299-0.604,0.516-0.86c0.215-0.241,0.479-0.432,0.775-0.56c0.158-0.067,0.327-0.104,0.498-0.112
	c0.141-0.008,0.28,0.01,0.414,0.052c0.286,0.059,0.523,0.26,0.628,0.534c0.06,0.158,0.06,0.333,0,0.49
	c-0.046,0.167-0.167,0.304-0.327,0.37c-0.063,0.013-0.127,0.013-0.189,0c-0.251,0.007-0.496-0.079-0.688-0.241
	c0.499,0.043,0.568-0.086,0.568-0.086c0.05-0.023,0.089-0.063,0.112-0.112c0.025-0.063,0.025-0.134,0-0.198
	c-0.055-0.127-0.161-0.225-0.293-0.267c-0.071-0.012-0.145-0.012-0.215,0c-0.086,0.008-0.17,0.028-0.25,0.061
	c-0.182,0.067-0.325,0.208-0.396,0.387c-0.076,0.176-0.076,0.375,0,0.551c0.107,0.262,0.325,0.463,0.594,0.551
	c0.482,0.113,0.979,0.157,1.473,0.129c0.514-0.043,1.032,0.031,1.515,0.215c0.368,0.172,0.655,0.481,0.8,0.861
	c0.111,0.24,0.135,0.51,0.069,0.766c-0.073,0.225-0.203,0.427-0.379,0.585c0.638,0.47,1.138,1.104,1.446,1.833
	c0.418,1.032,0.508,2.168,0.258,3.253c-0.146,0.561-0.377,1.098-0.68,1.592c-0.273,0.462-0.626,0.873-1.041,1.213
	c-0.42,0.355-0.89,0.645-1.395,0.861c-0.147,0.064-0.301,0.116-0.457,0.155c0.01,0.074,0.01,0.149,0,0.224
	c-0.052,0.241-0.186,0.457-0.378,0.611c-0.229,0.146-0.483,0.25-0.749,0.31c0.204,0.517,0.473,1.006,0.801,1.455
	c0.525,0.585,0.688,0.603,1.429,1.317c1.937,1.901,0.929,3.52,0.929,3.52L63.613,45.28z M58.715,36.734
	c0.257,0.369,0.679,0.588,1.128,0.585h0.104c0.284,0,0.567-0.103,0.86-0.155l0,0c0.238-0.015,0.473,0.069,0.646,0.232l0.319-0.112
	c0.643-0.277,1.205-0.712,1.635-1.265c0.433-0.542,0.715-1.19,0.817-1.876c0.104-0.662,0.019-1.34-0.249-1.954
	c-0.207-0.529-0.553-0.993-0.999-1.343c-0.394-0.347-0.876-0.577-1.394-0.663c-0.166-0.017-0.334-0.017-0.5,0l0,0
	c-0.793,0.042-1.541,0.391-2.082,0.973c-0.259,0.296-0.434,0.655-0.508,1.041c-0.07,0.363-0.028,0.738,0.12,1.076
	c0.162,0.389,0.472,0.698,0.86,0.86c0.207,0.084,0.431,0.122,0.654,0.112c0.205-0.01,0.406-0.057,0.594-0.138
	c0.252-0.096,0.467-0.271,0.611-0.499c0.098-0.183,0.098-0.402,0-0.585c-0.047-0.126-0.148-0.224-0.275-0.267
	c-0.06-0.013-0.121-0.013-0.182,0c-0.089,0-0.178,0.02-0.258,0.06c-0.097,0.047-0.188,0.108-0.267,0.181l-0.12,0.112v-0.146
	c-0.207-0.663,0.068-0.938,0.326-1.05c0.085-0.038,0.176-0.058,0.268-0.061c0.166-0.006,0.33,0.036,0.473,0.121
	c0.257,0.143,0.455,0.372,0.561,0.646c0.176,0.373,0.176,0.806,0,1.179c-0.21,0.395-0.556,0.701-0.973,0.861
	c-0.254,0.11-0.525,0.172-0.801,0.181c-0.154,0.017-0.311,0.017-0.465,0c-0.641-0.104-1.22-0.442-1.627-0.947
	c-0.084,0.998,0.171,1.996,0.723,2.832V36.734z"/>
<path d="M24.848,51.546V25.984h30.485v25.562l-15.354,7.229L24.848,51.546z M25.898,50.883l14.081,6.73l14.313-6.73V27.025H25.889
	v23.857H25.898z"/>
<path d="M43.447,19.288L43.447,19.288z M36.725,19.288L36.725,19.288z M55.582,15.509c0.904-1.532,2.488-2.875,1.868-4.846
	c-0.8-1.807-4.519-1.342-6.532-1.188l0,0c-1.145-0.861-3.77-0.792-5.389-0.637c-1.162,0.101-2.331,0.101-3.494,0
	c-0.139-0.671-0.608-1.226-1.248-1.472c0.246-0.613,0.822-1.031,1.48-1.076c0.535,0.011,1.006,0.355,1.18,0.861
	c0.262-0.174,0.428-0.461,0.447-0.775C43.76,5.73,43.17,5.279,42.509,5.319c-0.747,0.114-1.421,0.516-1.876,1.119
	c0.146-0.418,0.221-0.857,0.224-1.3c-0.043-0.534-0.568-1.721-0.646-2.229c-0.086,0.49-0.611,1.721-0.654,2.229
	c0.001,0.442,0.074,0.881,0.215,1.3c-0.449-0.606-1.121-1.009-1.868-1.119c-0.661-0.04-1.25,0.411-1.386,1.059
	c0.02,0.314,0.186,0.601,0.448,0.775c0.173-0.506,0.644-0.85,1.179-0.861c0.641,0.042,1.205,0.437,1.463,1.024
	c-0.725,0.198-1.277,0.787-1.429,1.523c-1.146,0.098-2.297,0.098-3.443,0c-1.626-0.155-4.251-0.181-5.388,0.637
	c-2.031-0.155-5.741-0.62-6.541,1.188c-0.62,1.971,0.964,3.314,1.868,4.846c0.456,0.89,0.812,1.828,1.059,2.797
	c0,0.121,0.525,1.79,0.577,1.782c-1.037,0.223-1.696,1.244-1.473,2.28c0.189,0.878,0.962,1.508,1.86,1.516h0.224l0.112,0.706h26.294
	l0.103-0.697h0.104c1.056,0.013,1.921-0.832,1.935-1.887c0.011-0.881-0.582-1.655-1.436-1.875l0,0c0.052,0,0.543-1.661,0.576-1.782
	c0.216-0.986,0.542-1.945,0.973-2.857V15.509z M43.43,19.288L43.43,19.288c-0.723-2.487-1.824-2.074-2.375-1.463
	c0.235-0.729,0.357-1.489,0.361-2.255c-0.064-0.407-0.198-0.8-0.396-1.162c0.251-0.994,0.648-1.946,1.18-2.823
	c-0.327,0.02-0.649,0.089-0.955,0.207c0.255-0.687,0.572-1.35,0.946-1.98c2.212,0.492,4.466,0.78,6.73,0.861
	c0.039,0.461,0.039,0.925,0,1.386c-0.271-0.124-0.563-0.191-0.86-0.198c0.1,0.742,0.1,1.495,0,2.237
	c-0.524,0.457-0.973,0.994-1.326,1.592c-0.252,0.678-0.387,1.394-0.396,2.118c-0.388-0.585-1.291-0.973-2.952,1.463l0,0
	c0.439-0.241,2.298-1.351,2.72,0h-2.728l0,0h-2.626c0.999-1.403,2.496-0.129,2.677,0V19.288z M31.243,10.681
	c2.262-0.081,4.512-0.369,6.722-0.861c0.378,0.628,0.695,1.291,0.947,1.979c-0.303-0.118-0.622-0.188-0.947-0.207
	c0.531,0.877,0.929,1.829,1.179,2.823c-0.202,0.36-0.335,0.753-0.396,1.162c0,0.766,0.122,1.527,0.362,2.255
	c-0.56-0.611-1.644-1.024-2.367,1.455c0.207-0.146,1.722-1.385,2.582,0h-2.582l0,0h-2.746c0.422-1.36,2.29-0.224,2.72,0l0,0
	c-1.669-2.436-2.582-2.048-2.978-1.463c-0.005-0.724-0.14-1.441-0.396-2.117c-0.351-0.599-0.795-1.136-1.317-1.592
	c-0.105-0.742-0.105-1.496,0-2.238c-0.297,0.006-0.591,0.073-0.861,0.198c-0.014-0.469,0.012-0.938,0.078-1.403V10.681z
	 M32.508,19.288h-5.396c0.861-0.86,2.393,0,2.47,0l0,0c0.739-0.812,1.996-0.872,2.809-0.133c0.041,0.037,0.08,0.076,0.118,0.116
	V19.288z M26.062,14.821c-0.137-0.206-0.252-0.425-0.344-0.654c-0.233-0.616-0.344-1.271-0.327-1.928
	c0-0.614,0.329-1.182,0.86-1.489c0.195-0.107,0.408-0.177,0.628-0.207c0.121,0,0.74-0.155,0.818-0.069
	c0.508,0.504,0.985,1.039,1.429,1.601c-0.322-0.112-0.658-0.179-0.999-0.198c0.905,0.859,1.713,1.814,2.41,2.849
	c-0.069,0.332-0.069,0.675,0,1.007c0.289,0.755,0.68,1.468,1.162,2.117c-0.8-0.577-2.203-0.964-2.1,1.437
	c-1.205-1.954-2.221-1.463-2.694-0.86c0.136-1.008-0.025-2.035-0.465-2.952c-0.107-0.234-0.234-0.458-0.378-0.671V14.821z
	 M26.638,23.454c-0.832,0-1.506-0.674-1.506-1.506s0.674-1.506,1.506-1.506c0.832,0,1.506,0.674,1.506,1.506
	S27.47,23.454,26.638,23.454z M29.995,22.705c-0.418,0.005-0.761-0.331-0.766-0.749c-0.004-0.418,0.331-0.761,0.749-0.766
	c0.418-0.005,0.761,0.331,0.766,0.749c0,0.003,0,0.006,0,0.009c0.004,0.414-0.327,0.752-0.74,0.757c-0.006,0-0.012,0-0.018,0H29.995
	z M33.343,23.454c-0.832-0.005-1.502-0.683-1.498-1.515c0.005-0.832,0.683-1.502,1.515-1.498c0.829,0.005,1.498,0.678,1.498,1.506
	c0,0.832-0.674,1.506-1.506,1.506c-0.006,0-0.012,0-0.018,0H33.343z M36.708,22.705c-0.418,0.005-0.761-0.331-0.766-0.749
	c-0.005-0.418,0.331-0.761,0.749-0.766c0.418-0.005,0.761,0.331,0.766,0.749c0,0.003,0,0.006,0,0.009
	c0.005,0.414-0.326,0.752-0.74,0.757c-0.006,0-0.012,0-0.018,0H36.708z M40.056,23.454c-0.832,0-1.506-0.674-1.506-1.506
	s0.674-1.506,1.506-1.506c0.832,0,1.506,0.674,1.506,1.506S40.888,23.454,40.056,23.454c-0.003,0-0.006,0-0.009,0H40.056z
	 M43.404,22.705c-0.418,0-0.758-0.339-0.758-0.757s0.34-0.757,0.758-0.757s0.758,0.339,0.758,0.757
	c0.004,0.414-0.327,0.753-0.74,0.757c-0.01,0-0.018,0-0.026,0H43.404z M46.761,23.454c-0.832,0-1.507-0.674-1.507-1.506
	s0.675-1.506,1.507-1.506c0.831,0,1.506,0.674,1.506,1.506S47.592,23.454,46.761,23.454c-0.003,0-0.006,0-0.009,0H46.761z
	 M50.117,22.705c-0.418,0.005-0.762-0.331-0.766-0.749c-0.005-0.418,0.33-0.761,0.748-0.766s0.762,0.331,0.767,0.749
	c0,0.003,0,0.006,0,0.009c0.005,0.414-0.327,0.752-0.74,0.757c-0.006,0-0.012,0-0.017,0H50.117z M54.98,21.947
	c0.004,0.832-0.666,1.51-1.498,1.515c-0.832,0.005-1.51-0.666-1.515-1.498c-0.005-0.832,0.665-1.51,1.497-1.515
	c0.004,0,0.006,0,0.01,0c0.824,0.005,1.492,0.672,1.497,1.498H54.98z M54.119,14.804c-0.137,0.204-0.26,0.417-0.369,0.637
	c-0.425,0.922-0.574,1.947-0.432,2.952l0,0c-0.473-0.585-1.48-1.067-2.693,0.861l0,0c0.129-0.06,1.661-0.861,2.461,0h-2.461l0,0l0,0
	h-2.9c0.737-0.801,1.984-0.853,2.785-0.116c0.04,0.037,0.078,0.076,0.115,0.116l0,0c0.104-2.384-1.291-2.005-2.1-1.438
	c0.484-0.649,0.877-1.362,1.17-2.117c0.069-0.332,0.069-0.675,0-1.007c0.697-1.035,1.506-1.99,2.41-2.849
	c-0.344,0.02-0.682,0.086-1.007,0.198c0.427-0.55,0.88-1.079,1.36-1.584l0,0c0.086-0.086,0.696,0.052,0.859,0.069
	c0.221,0.031,0.434,0.101,0.629,0.207c0.532,0.308,0.859,0.875,0.861,1.489c0.016,0.658-0.095,1.313-0.328,1.928
	c-0.095,0.229-0.213,0.449-0.353,0.654H54.119z M50.573,19.288L50.573,19.288L50.573,19.288z"/>
<path d="M1.678,69.336c0-2.496,0-2.951,0-3.442s-0.164-0.817-0.706-0.93c-0.21-0.039-0.423-0.056-0.637-0.052
	c-0.181,0-0.275,0-0.275-0.146s0.121-0.146,0.362-0.146c0.86,0,1.894,0.053,2.358,0.053c0.465,0,1.48-0.061,2.462-0.061
	c2.04,0,4.776,0,6.558,1.867c1.055,1.123,1.625,2.617,1.583,4.157c0.029,1.696-0.611,3.334-1.781,4.562
	c-0.749,0.775-2.453,1.937-5.474,1.937c-0.594,0-1.265-0.052-1.885-0.103c-0.62-0.053-1.196-0.096-1.601-0.096
	c-0.189,0-0.542,0-0.938,0s-0.8,0-1.127,0S0.25,76.885,0.25,76.772s0.061-0.138,0.258-0.138c0.197,0.002,0.393-0.018,0.585-0.061
	c0.335-0.068,0.413-0.43,0.482-0.903c0.077-0.688,0.077-1.979,0.077-3.442L1.678,69.336z M3.727,71.135c0,1.722,0,2.996,0,3.305
	c-0.01,0.422,0.055,0.841,0.189,1.24c0.207,0.31,0.861,0.654,2.143,0.654c1.358,0.108,2.705-0.311,3.761-1.171
	c1.05-0.86,1.377-2.393,1.377-4.079c0.057-1.523-0.512-3.004-1.575-4.098c-1.275-1.134-2.944-1.721-4.648-1.635
	c-0.356-0.006-0.712,0.034-1.059,0.12c-0.155,0.061-0.198,0.146-0.198,0.327c0,0.551,0,1.979,0,3.271L3.727,71.135z"/>
<path d="M15.449,70.584c0-2.074,0-2.461,0-2.9s-0.155-0.603-0.611-0.74c-0.185-0.031-0.372-0.045-0.559-0.043
	c-0.146,0-0.241-0.052-0.241-0.146c0-0.094,0.112-0.129,0.318-0.129c0.74,0,1.644,0,2.04,0s3.589,0,3.864,0
	c0.199-0.018,0.397-0.047,0.594-0.086c0.078,0,0.164-0.061,0.224-0.061c0.06,0,0.095,0.061,0.095,0.129
	c-0.057,0.285-0.094,0.572-0.112,0.861c0,0.154,0,0.74-0.077,0.903c-0.078,0.163-0.052,0.232-0.164,0.232s-0.112-0.069-0.112-0.181
	c0-0.171-0.032-0.34-0.095-0.499c-0.112-0.241-0.224-0.438-0.938-0.499c-0.241,0-1.928-0.061-2.212-0.061
	c-0.069,0-0.104,0.043-0.104,0.121v3.382c0,0.077,0,0.146,0.104,0.146c0.318,0,2.151,0,2.47-0.043
	c0.319-0.044,0.551-0.052,0.68-0.198c0.129-0.146,0.155-0.181,0.224-0.181s0.112,0.06,0.112,0.146c0,0.086,0,0.302-0.112,0.989
	c0,0.284-0.069,0.818-0.069,0.922c0,0.103,0,0.309-0.138,0.309s-0.129-0.051-0.129-0.119c0-0.069,0-0.319-0.052-0.491
	c-0.052-0.173-0.258-0.491-0.783-0.534c-0.258,0-1.868-0.068-2.221-0.068c-0.069,0-0.086,0.068-0.086,0.146v1.093
	c0,0.465,0,1.627,0,2.031c0,0.93,0.474,1.136,1.919,1.136c0.452,0.021,0.904-0.041,1.334-0.18c0.353-0.156,0.516-0.448,0.611-1.008
	c0-0.146,0.061-0.207,0.164-0.207c0.104,0,0.121,0.173,0.121,0.318c-0.023,0.51-0.086,1.016-0.189,1.516
	c-0.095,0.353-0.224,0.353-0.757,0.353c-1.059,0-1.911,0-2.582-0.052c-0.671-0.051-1.222,0-1.644,0h-0.8c-0.335,0-0.697,0-0.981,0
	c-0.284,0-0.275-0.051-0.275-0.137c0-0.087,0-0.156,0.224-0.156c0.166,0.018,0.333,0.018,0.499,0c0.293-0.068,0.37-0.318,0.422-0.73
	c0.06-0.577,0.06-1.652,0.06-2.91L15.449,70.584z"/>
<path d="M23.651,67.959c-0.318-0.758-0.525-0.86-1.042-1.016c-0.182-0.031-0.366-0.047-0.551-0.043
	c-0.129,0-0.155-0.068-0.155-0.146c0-0.077,0.138-0.129,0.353-0.129c0.749,0,1.558,0,2.057,0c0.353,0,1.093,0,1.799,0
	c0.172,0,0.336,0,0.336,0.129S26.354,66.9,26.225,66.9c-0.186-0.017-0.373,0.016-0.542,0.095c-0.098,0.056-0.155,0.163-0.146,0.275
	c0.056,0.354,0.164,0.7,0.319,1.024l2.375,6.128h0.052c0.611-1.411,2.436-5.818,2.763-6.722c0.067-0.16,0.111-0.328,0.129-0.5
	c0-0.137-0.061-0.189-0.189-0.24c-0.187-0.043-0.377-0.063-0.568-0.061c-0.121,0-0.232-0.052-0.232-0.146
	c0-0.094,0.121-0.129,0.396-0.129c0.706,0,1.334,0,1.515,0s0.861,0,1.334,0c0.172,0,0.292,0,0.292,0.129S33.635,66.9,33.489,66.9
	c-0.241-0.022-0.483,0.035-0.688,0.164c-0.181,0.12-0.37,0.336-0.74,1.195c-0.559,1.291-0.929,2.031-1.721,3.701
	c-0.861,1.997-1.558,3.486-1.876,4.184c-0.318,0.697-0.49,0.998-0.68,0.998s-0.301-0.181-0.577-0.861L23.651,67.959z"/>
<path d="M34.272,73.52c-0.077,0-0.094,0-0.129,0.104l-0.749,1.824c-0.122,0.271-0.194,0.563-0.215,0.86
	c0,0.241,0.129,0.379,0.568,0.379h0.207c0.172,0,0.207,0.069,0.207,0.155s-0.077,0.137-0.224,0.137
	c-0.465,0-1.127-0.051-1.575-0.051c-0.146,0-0.904,0.051-1.635,0.051c-0.181,0-0.258,0-0.258-0.137
	c-0.01-0.076,0.043-0.145,0.118-0.155c0.012-0.002,0.025-0.002,0.037,0h0.421c0.637-0.095,0.861-0.508,1.171-1.205l3.701-8.606
	c0.164-0.388,0.267-0.543,0.413-0.543c0.146,0,0.275,0.121,0.422,0.431c0.335,0.757,2.703,6.353,3.598,8.427
	c0.551,1.238,0.946,1.41,1.205,1.463c0.177,0.011,0.355,0.011,0.533,0c0.13,0,0.198,0.051,0.198,0.154s-0.086,0.138-0.619,0.138
	c-0.534,0-1.524,0-2.72,0c-0.25,0-0.413,0-0.413-0.103c0-0.104,0-0.139,0.181-0.155c0.113-0.035,0.177-0.155,0.142-0.27
	c-0.003-0.011-0.007-0.021-0.013-0.032L37.75,73.64c-0.017-0.065-0.079-0.11-0.146-0.104L34.272,73.52z M37.293,72.762
	c0.069,0,0.086,0,0.069-0.078l-1.334-3.441c0-0.053,0-0.13-0.06-0.13s-0.069,0.077-0.086,0.13l-1.369,3.441
	c0,0.069,0,0.096,0.052,0.096L37.293,72.762z"/>
<path d="M44.102,75.094c0,1.067,0.206,1.387,0.481,1.48c0.241,0.068,0.49,0.101,0.74,0.095c0.163,0,0.241,0.069,0.241,0.155
	s-0.129,0.138-0.318,0.138c-0.922,0-1.584-0.052-1.834-0.052c-0.249,0-0.8,0.052-1.531,0.052c-0.189,0-0.318,0-0.318-0.138
	s0.094-0.155,0.223-0.155c0.217,0.001,0.434-0.019,0.646-0.06c0.369-0.096,0.413-0.465,0.43-1.662L43,66.849
	c0-0.275,0.086-0.464,0.232-0.464c0.146,0,0.369,0.206,0.61,0.447c0.241,0.24,2.298,2.35,4.364,4.354
	c0.963,0.956,2.84,2.884,3.047,3.073h0.068l-0.146-6.076c0-0.861-0.146-1.076-0.482-1.205c-0.24-0.063-0.49-0.09-0.74-0.078
	c-0.18,0-0.223-0.068-0.223-0.146c0-0.077,0.146-0.129,0.353-0.129c0.74,0,1.497,0,1.799,0c0.163,0,0.688,0,1.386,0
	c0.189,0,0.318,0,0.318,0.129S53.508,66.9,53.345,66.9c-0.145-0.006-0.29,0.009-0.431,0.043c-0.387,0.121-0.498,0.354-0.516,1.127
	l-0.164,8.607c0,0.311-0.111,0.439-0.224,0.439c-0.224-0.02-0.43-0.125-0.577-0.293c-0.86-0.818-2.65-2.505-4.131-3.941
	c-1.48-1.438-3.038-3.125-3.313-3.375h-0.052L44.102,75.094z"/>
<path d="M56.279,75.094c0,1.067,0.207,1.387,0.482,1.48c0.24,0.069,0.49,0.102,0.74,0.095c0.154,0,0.24,0.069,0.24,0.155
	s-0.129,0.138-0.326,0.138c-0.912,0-1.575-0.052-1.834-0.052c-0.12,0-0.8,0.052-1.523,0.052c-0.189,0-0.318,0-0.318-0.138
	s0.096-0.155,0.225-0.155c0.213,0.001,0.427-0.019,0.637-0.06c0.37-0.096,0.422-0.465,0.43-1.662l0.139-8.099
	c0-0.275,0.094-0.464,0.24-0.464s0.37,0.206,0.611,0.447c0.241,0.24,2.298,2.35,4.355,4.354c0.963,0.956,2.849,2.884,3.055,3.073
	h0.061l-0.146-6.076c0-0.861-0.138-1.076-0.482-1.205c-0.24-0.064-0.49-0.09-0.74-0.078c-0.172,0-0.223-0.068-0.223-0.146
	c0-0.077,0.146-0.129,0.353-0.129c0.74,0,1.497,0,1.799,0c0.163,0,0.697,0,1.386,0c0.189,0,0.318,0,0.318,0.129
	S65.678,66.9,65.515,66.9c-0.145-0.006-0.29,0.01-0.431,0.043c-0.379,0.121-0.498,0.354-0.516,1.127l-0.155,8.607
	c0,0.311-0.12,0.439-0.232,0.439c-0.223-0.02-0.43-0.125-0.577-0.293c-0.859-0.818-2.65-2.505-4.122-3.941
	c-1.472-1.438-3.047-3.125-3.313-3.375h-0.052L56.279,75.094z"/>
<path d="M66.281,70.852c0-2.729,1.919-6.266,6.945-6.266C77.4,64.586,80,66.9,80,70.566c0,3.667-2.668,6.551-6.945,6.551
	C68.243,77.117,66.281,73.691,66.281,70.852z M77.529,71.144c0-3.537-2.117-5.715-4.793-5.715c-1.852,0-4.012,0.981-4.012,4.932
	c0,3.288,1.885,5.896,5.01,5.896C74.896,76.256,77.529,75.705,77.529,71.144z"/>
</svg>
