<?xml version="1.0" encoding="utf-8"?>
<!-- Generator: Adobe Illustrator 15.1.0, SVG Export Plug-In . SVG Version: 6.00 Build 0)  -->
<!DOCTYPE svg PUBLIC "-//W3C//DTD SVG 1.1//EN" "http://www.w3.org/Graphics/SVG/1.1/DTD/svg11.dtd">
<svg version="1.1" id="芞脯_1" xmlns="http://www.w3.org/2000/svg" xmlns:xlink="http://www.w3.org/1999/xlink" x="0px" y="0px"
	 width="80px" height="62.498px" viewBox="0 3.52 80 62.498" enable-background="new 0 3.52 80 62.498" xml:space="preserve">
<title>2</title>
<path d="M77.845,3.52H14.628c-1.187,0-2.154,0.963-2.154,2.154l0,0v46.512c0,5.928-1.38,8.125-2.202,8.91
	c-0.294,0.304-0.671,0.512-1.084,0.605H8.755c-0.071,0-0.142,0.004-0.212,0.009c-0.692-0.047-1.349-0.343-1.848-0.829
	c-1.101-0.999-2.414-3.318-2.414-8.695c0-9.722-0.032-24.475-0.044-29.97h4.518v-4.308H2.076c-1.191,0-2.154,0.967-2.154,2.154
	c0,0.004,0,0.004,0,0.008c0,0,0.051,19.977,0.051,32.116c0,5.585,1.29,9.583,3.829,11.888c1.305,1.217,3.011,1.909,4.795,1.94
	c0.063,0,0.11,0,0.158-0.003c0.066,0.003,0.129,0.007,0.216,0.007c0.083,0,0.181-0.004,0.283-0.007h56.029
	C73.407,66.002,79.988,59.417,80,51.293V5.674C80,4.483,79.032,3.52,77.845,3.52L77.845,3.52z M75.687,51.293
	c-0.003,5.747-4.657,10.401-10.403,10.408H15.029c1.297-2.998,1.898-6.252,1.757-9.516V7.829h58.9V51.293z"/>
<path d="M27.316,55.113h16.046c1.188,0,2.155-0.963,2.155-2.155l0,0v-20.09c0-1.187-0.963-2.154-2.155-2.154l0,0H27.316
	c-1.191,0-2.154,0.964-2.154,2.154l0,0v20.09C25.16,54.15,26.125,55.113,27.316,55.113L27.316,55.113z M29.47,35.022h11.738v15.782
	H29.47V35.022z"/>
<rect x="51.185" y="31.281" width="16.565" height="4.311"/>
<rect x="25.324" y="18.068" width="42.426" height="4.309"/>
<rect x="51.185" y="40.757" width="16.565" height="4.313"/>
<rect x="51.185" y="50.239" width="10.972" height="4.309"/>
</svg>
