<?xml version="1.0" encoding="utf-8"?>
<!-- Generator: Adobe Illustrator 15.1.0, SVG Export Plug-In . SVG Version: 6.00 Build 0)  -->
<!DOCTYPE svg PUBLIC "-//W3C//DTD SVG 1.1//EN" "http://www.w3.org/Graphics/SVG/1.1/DTD/svg11.dtd">
<svg version="1.1" id="芞脯_1" xmlns="http://www.w3.org/2000/svg" xmlns:xlink="http://www.w3.org/1999/xlink" x="0px" y="0px"
	 width="80px" height="48.811px" viewBox="0 0 80 48.811" enable-background="new 0 0 80 48.811" xml:space="preserve">
<title>1</title>
<path d="M69.493,28.73c-1.343-0.008-2.669,0.268-3.902,0.787l-8.634-12.533c3.839-3.996,3.713-10.347-0.279-14.188
	C52.682-1.038,46.33-0.912,42.491,3.078c-3.733,3.884-3.733,10.022,0,13.906l-8.633,12.533c-2.494-1.055-5.31-1.055-7.807,0
	l-8.629-12.533c3.79-3.989,3.628-10.297-0.358-14.083S6.773-0.731,2.984,3.26c-3.79,3.99-3.628,10.297,0.358,14.084
	c2.876,2.732,7.098,3.498,10.75,1.946l8.629,12.53c-3.838,4.004-3.712,10.354,0.284,14.189c3.998,3.842,10.347,3.717,14.187-0.281
	c3.729-3.885,3.729-10.016,0-13.908l8.628-12.53c2.496,1.053,5.311,1.053,7.809,0l8.629,12.53
	c-3.82,4.004-3.675,10.354,0.329,14.178c4.001,3.818,10.345,3.672,14.166-0.332c3.824-4.004,3.677-10.348-0.327-14.168
	C74.561,29.712,72.074,28.722,69.493,28.73z M4.208,10.044c-0.003-3.301,2.676-5.979,5.978-5.979c3.305,0,5.981,2.677,5.981,5.979
	c0.003,3.302-2.676,5.984-5.978,5.984h-0.004C6.885,16.029,4.212,13.345,4.208,10.044z M29.957,44.738
	c-3.302,0-5.982-2.676-5.979-5.979c0-3.303,2.676-5.984,5.979-5.984c3.304,0,5.981,2.684,5.981,5.984
	C35.934,42.062,33.258,44.73,29.957,44.738z M43.745,10.044c0-3.301,2.676-5.97,5.978-5.97c3.305,0,5.98,2.669,5.98,5.97
	c0,3.31-2.676,5.984-5.977,5.984h-0.004C46.425,16.029,43.749,13.345,43.745,10.044z M69.493,44.738
	c-3.302,0-5.979-2.676-5.979-5.979s2.678-5.984,5.98-5.984c3.302,0,5.979,2.684,5.979,5.984
	C75.471,42.062,72.794,44.73,69.493,44.738z"/>
</svg>
