<?xml version="1.0" encoding="utf-8"?>
<!-- Generator: Adobe Illustrator 15.1.0, SVG Export Plug-In . SVG Version: 6.00 Build 0)  -->
<!DOCTYPE svg PUBLIC "-//W3C//DTD SVG 1.1//EN" "http://www.w3.org/Graphics/SVG/1.1/DTD/svg11.dtd">
<svg version="1.1" id="圖層_1" xmlns="http://www.w3.org/2000/svg" xmlns:xlink="http://www.w3.org/1999/xlink" x="0px" y="0px"
	 width="65.462px" height="54.371px" viewBox="0 0 65.462 54.371" enable-background="new 0 0 65.462 54.371" xml:space="preserve">
<g>
	<path d="M31.407,54.371c-0.32,0-0.639-0.122-0.883-0.366L5.017,28.531c-6.603-6.602-6.7-17.248-0.218-23.732
		c6.481-6.483,17.128-6.385,23.73,0.218l2.872,2.873l2.895-2.875c6.6-6.599,17.245-6.699,23.729-0.215
		c2.601,2.602,4.213,5.928,4.663,9.618l-2.481,0.303c-0.381-3.131-1.747-5.951-3.949-8.153C50.749,1.06,41.688,1.158,36.061,6.785
		l-3.782,3.757c-0.489,0.485-1.279,0.484-1.765-0.003l-3.753-3.754C21.133,1.156,12.075,1.059,6.566,6.567
		c-5.507,5.51-5.41,14.569,0.217,20.196l24.623,24.591l9.294-9.279l1.767,1.77L32.29,54.006
		C32.046,54.25,31.727,54.371,31.407,54.371z"/>
</g>
<g>
	<rect x="34.591" y="25.563" width="30.871" height="4.758"/>
</g>
<g>
	<rect x="47.648" y="13.628" width="4.758" height="30.871"/>
</g>
</svg>
