<?xml version="1.0" encoding="utf-8"?>
<!-- Generator: Adobe Illustrator 15.1.0, SVG Export Plug-In . SVG Version: 6.00 Build 0)  -->
<!DOCTYPE svg PUBLIC "-//W3C//DTD SVG 1.1//EN" "http://www.w3.org/Graphics/SVG/1.1/DTD/svg11.dtd">
<svg version="1.1" id="Capa_1" xmlns="http://www.w3.org/2000/svg" xmlns:xlink="http://www.w3.org/1999/xlink" x="0px" y="0px"
	 width="56.25px" height="80px" viewBox="11.875 0 56.25 80" enable-background="new 11.875 0 56.25 80" xml:space="preserve">
<g>
	<g>
		<path d="M40,0C24.492,0,11.875,12.617,11.875,28.125c0,5.24,1.451,10.353,4.198,14.789l22.326,35.979
			C38.827,79.581,39.58,80,40.391,80c0.006,0,0.012,0,0.019,0c0.817-0.006,1.572-0.438,1.992-1.139l21.757-36.327
			c2.596-4.342,3.967-9.325,3.967-14.409C68.125,12.617,55.508,0,40,0z M60.135,40.128l-19.78,33.026L20.057,40.445
			c-2.286-3.693-3.526-7.953-3.526-12.32C16.531,15.202,27.077,4.656,40,4.656c12.924,0,23.453,10.545,23.453,23.469
			C63.453,32.363,62.295,36.514,60.135,40.128z"/>
	</g>
</g>
<g>
	<g>
		<path d="M40,14.063c-7.754,0-14.063,6.309-14.063,14.063c0,7.705,6.206,14.063,14.063,14.063c7.953,0,14.063-6.443,14.063-14.063
			C54.063,20.371,47.754,14.063,40,14.063z M40,37.531c-5.196,0-9.406-4.224-9.406-9.406c0-5.169,4.237-9.406,9.406-9.406
			c5.17,0,9.391,4.237,9.391,9.406C49.391,33.232,45.279,37.531,40,37.531z"/>
	</g>
</g>
</svg>
