<?xml version="1.0" encoding="utf-8"?>
<!-- Generator: Adobe Illustrator 15.1.0, SVG Export Plug-In . SVG Version: 6.00 Build 0)  -->
<!DOCTYPE svg PUBLIC "-//W3C//DTD SVG 1.1//EN" "http://www.w3.org/Graphics/SVG/1.1/DTD/svg11.dtd">
<svg version="1.1" id="Capa_1" xmlns="http://www.w3.org/2000/svg" xmlns:xlink="http://www.w3.org/1999/xlink" x="0px" y="0px"
	 width="76.922px" height="80px" viewBox="1.539 0 76.922 80" enable-background="new 1.539 0 76.922 80" xml:space="preserve">
<g>
	<path d="M21.539,37.135c4.725,0,8.567-3.843,8.567-8.566c0-4.726-3.843-8.569-8.567-8.569s-8.568,3.843-8.568,8.568
		S16.814,37.135,21.539,37.135z M21.539,23.077c3.027,0,5.491,2.464,5.491,5.491c0,3.026-2.463,5.491-5.491,5.491
		c-3.028,0-5.491-2.463-5.491-5.489C16.048,25.543,18.511,23.077,21.539,23.077z"/>
	<path d="M1.539,0v61.539V80h76.922V61.539V0H1.539z M4.615,3.077h70.77v41.118l-15.883-14.56c-0.302-0.275-0.699-0.412-1.107-0.403
		c-0.408,0.019-0.793,0.198-1.068,0.5L42.258,46.235l-7.296-7.297c-0.575-0.574-1.495-0.603-2.104-0.068L7.111,61.539H4.615V3.077z
		 M75.385,76.923H4.615V64.615h70.77V76.923z M11.768,61.539l22.037-19.402l15.85,15.848c0.602,0.602,1.573,0.602,2.175,0
		s0.602-1.574,0-2.176l-7.396-7.395l14.125-15.468l16.826,15.423v13.17H11.768z"/>
</g>
</svg>
