<?xml version="1.0" encoding="utf-8"?>
<!-- Generator: Adobe Illustrator 15.1.0, SVG Export Plug-In . SVG Version: 6.00 Build 0)  -->
<!DOCTYPE svg PUBLIC "-//W3C//DTD SVG 1.1//EN" "http://www.w3.org/Graphics/SVG/1.1/DTD/svg11.dtd">
<svg version="1.1" id="Capa_1" xmlns="http://www.w3.org/2000/svg" xmlns:xlink="http://www.w3.org/1999/xlink" x="0px" y="0px"
	 width="80px" height="76.191px" viewBox="0 1.905 80 76.191" enable-background="new 0 1.905 80 76.191" xml:space="preserve">
<path d="M39.869,44.664c11.823,0,21.413-9.59,21.413-21.413c0-11.823-9.59-21.347-21.413-21.347s-21.412,9.589-21.412,21.347
	C18.457,35.008,28.046,44.664,39.869,44.664z M39.869,7.488c8.67,0,15.764,7.093,15.764,15.764c0,8.67-7.094,15.763-15.764,15.763
	c-8.67,0-15.764-7.093-15.764-15.764C24.105,14.581,31.199,7.488,39.869,7.488z"/>
<path d="M2.824,78.096h74.352c1.576,0,2.824-1.248,2.824-2.824c0-14.779-12.02-26.864-26.863-26.864H26.864
	C12.085,48.407,0,60.427,0,75.271C0,76.848,1.248,78.096,2.824,78.096z M26.864,54.056h26.273c10.771,0,19.639,8.013,21.018,18.392
	H5.846C7.225,62.135,16.092,54.056,26.864,54.056z"/>
</svg>
