<?xml version="1.0" encoding="utf-8"?>
<!-- Generator: Adobe Illustrator 15.1.0, SVG Export Plug-In . SVG Version: 6.00 Build 0)  -->
<!DOCTYPE svg PUBLIC "-//W3C//DTD SVG 1.1//EN" "http://www.w3.org/Graphics/SVG/1.1/DTD/svg11.dtd">
<svg version="1.1" id="圖層_1" xmlns="http://www.w3.org/2000/svg" xmlns:xlink="http://www.w3.org/1999/xlink" x="0px" y="0px"
	 width="80px" height="8.128px" viewBox="0 35.872 80 8.128" enable-background="new 0 35.872 80 8.128" xml:space="preserve">
<title>白馬logo</title>
<path d="M2.174,43.987l-2.157-7.97H1.13l1.212,5.227c0.134,0.548,0.25,1.092,0.345,1.631c0.211-0.863,0.332-1.342,0.371-1.476
	l1.557-5.382h1.294l1.173,4.037c0.276,0.925,0.488,1.867,0.634,2.821c0.108-0.505,0.242-1.083,0.431-1.726l1.294-5.124h1.096
	L8.29,43.996H7.241l-1.725-6.073c-0.146-0.509-0.233-0.819-0.259-0.936c-0.082,0.367-0.164,0.677-0.237,0.936l-1.725,6.073
	L2.174,43.987z"/>
<path d="M11.58,43.987v-7.97h1.083v3.273h4.261v-3.273h1.083v7.97h-1.083v-3.744h-4.261V44L11.58,43.987z"/>
<path d="M19.995,43.987v-7.97h1.087v7.97H19.995z"/>
<path d="M25.075,43.987v-7.03h-2.7v-0.94h6.495v0.94h-2.708v7.03H25.075z"/>
<path d="M30.005,43.987v-7.97h5.921v0.94h-4.839v2.424h4.533v0.936h-4.533v2.712h5.033v0.941L30.005,43.987z"/>
<path d="M40.83,43.987v-7.97h1.082v3.273h4.262v-3.273h1.082v7.97h-1.082v-3.744h-4.262V44L40.83,43.987z"/>
<path d="M48.731,40.105c-0.065-1.14,0.329-2.259,1.096-3.105c0.743-0.756,1.77-1.165,2.829-1.126
	c0.717-0.01,1.423,0.173,2.045,0.531c0.599,0.34,1.082,0.853,1.389,1.471c0.33,0.67,0.494,1.41,0.479,2.156
	c0.01,0.749-0.163,1.489-0.505,2.157c-0.315,0.616-0.812,1.122-1.423,1.448c-0.613,0.327-1.299,0.496-1.993,0.491
	c-0.726,0.012-1.44-0.176-2.065-0.543c-0.596-0.348-1.076-0.864-1.381-1.483C48.889,41.483,48.729,40.799,48.731,40.105z
	 M49.849,40.105c-0.054,0.842,0.234,1.668,0.798,2.295c1.099,1.107,2.887,1.114,3.995,0.016c0.005-0.006,0.011-0.011,0.016-0.016
	c0.563-0.66,0.847-1.512,0.794-2.376c0.012-0.585-0.104-1.165-0.341-1.7c-0.208-0.466-0.552-0.859-0.987-1.125
	c-0.44-0.269-0.947-0.408-1.463-0.401c-0.734-0.014-1.445,0.262-1.979,0.768c-0.559,0.503-0.836,1.355-0.833,2.558V40.105z"/>
<path d="M57.979,43.987v-7.97h3.631c0.563-0.023,1.127,0.05,1.665,0.216c0.38,0.144,0.7,0.411,0.91,0.759
	c0.227,0.358,0.345,0.775,0.341,1.199c0.013,0.534-0.191,1.05-0.564,1.432c-0.478,0.431-1.084,0.692-1.726,0.742
	c0.235,0.101,0.456,0.234,0.655,0.397c0.344,0.313,0.645,0.667,0.896,1.057l1.428,2.156h-1.367l-1.082-1.656
	c-0.314-0.479-0.578-0.863-0.781-1.1c-0.153-0.206-0.34-0.385-0.551-0.531c-0.154-0.098-0.32-0.17-0.496-0.215
	c-0.201-0.027-0.402-0.039-0.604-0.034h-1.255v3.537L57.979,43.987z M59.061,39.536h2.329c0.394,0.014,0.787-0.037,1.165-0.151
	c0.26-0.083,0.482-0.252,0.634-0.479c0.144-0.211,0.221-0.46,0.22-0.716c0.006-0.359-0.153-0.701-0.432-0.927
	c-0.387-0.276-0.859-0.406-1.332-0.367h-2.588L59.061,39.536z"/>
<path d="M65.862,41.43l1.022-0.09c0.029,0.35,0.146,0.688,0.336,0.982c0.211,0.28,0.496,0.496,0.824,0.621
	c0.4,0.162,0.828,0.242,1.26,0.237c0.373,0.007,0.744-0.055,1.095-0.181c0.277-0.094,0.522-0.265,0.708-0.492
	c0.146-0.196,0.228-0.436,0.229-0.682c0.004-0.238-0.075-0.471-0.225-0.655c-0.197-0.223-0.453-0.386-0.738-0.47
	c-0.478-0.158-0.965-0.288-1.457-0.389c-0.543-0.109-1.072-0.277-1.578-0.5c-0.35-0.166-0.646-0.422-0.863-0.742
	c-0.196-0.29-0.301-0.633-0.302-0.983c-0.001-0.404,0.123-0.798,0.354-1.13c0.253-0.363,0.611-0.641,1.026-0.793
	c0.48-0.186,0.99-0.278,1.506-0.271c0.548-0.011,1.093,0.086,1.604,0.285c0.434,0.166,0.807,0.458,1.07,0.841
	c0.251,0.372,0.392,0.807,0.405,1.255l-1.04,0.074c-0.024-0.442-0.23-0.854-0.568-1.139c-0.418-0.287-0.922-0.424-1.428-0.388
	c-0.504-0.042-1.006,0.082-1.432,0.354c-0.285,0.194-0.455,0.518-0.453,0.863c-0.006,0.271,0.111,0.529,0.318,0.703
	c0.502,0.296,1.059,0.49,1.635,0.569c0.619,0.119,1.227,0.289,1.816,0.509c0.419,0.171,0.783,0.453,1.057,0.815
	c0.227,0.333,0.346,0.728,0.34,1.13c0,0.429-0.131,0.847-0.375,1.199c-0.269,0.385-0.643,0.685-1.078,0.862
	c-0.498,0.214-1.036,0.319-1.578,0.311c-0.636,0.02-1.27-0.087-1.863-0.314c-0.479-0.192-0.889-0.522-1.178-0.949
	C66.023,42.444,65.868,41.943,65.862,41.43z"/>
<path d="M73.885,43.987v-7.97h5.926v0.94h-4.84v2.424H79.5v0.936h-4.529v2.712H80v0.941L73.885,43.987z"/>
</svg>
