<?xml version="1.0" encoding="utf-8"?>
<!-- Generator: Adobe Illustrator 15.1.0, SVG Export Plug-In . SVG Version: 6.00 Build 0)  -->
<!DOCTYPE svg PUBLIC "-//W3C//DTD SVG 1.1//EN" "http://www.w3.org/Graphics/SVG/1.1/DTD/svg11.dtd">
<svg version="1.1" id="圖層_1" xmlns="http://www.w3.org/2000/svg" xmlns:xlink="http://www.w3.org/1999/xlink" x="0px" y="0px"
	 width="80px" height="65.219px" viewBox="0 0 80 65.219" enable-background="new 0 0 80 65.219" xml:space="preserve">
<title>白馬磁磚</title>
<path d="M23.212,33.291c0,0-1.173-2.014-1.955-2.092c0.47-1.343,0.718-2.753,0.736-4.176c0.188-0.432,0.69-0.63,1.123-0.441
	c0.031,0.012,0.06,0.027,0.089,0.045c0,0-0.769,3.002-0.299,3.623l0.958,0.403C24.111,31.586,23.865,32.58,23.212,33.291z"/>
<path d="M51.173,37.863c0,0-0.442-0.404-0.696-0.404c0,0-0.072-0.617-1.029-0.688c0,0,0.65-1.616-0.334-2.567
	c0,0-3.366-0.183-4.129-1.752c0,0,1.563-0.703,2.229-0.404c0,0,1.576,1.569,3.042,1.715c0,0-0.11,2.24,0.951,2.455
	c0,0,0.912-0.515,1.173,0.326l0.696,1.537C52.436,38.221,51.766,38.146,51.173,37.863z"/>
<path d="M26.86,23.426c0.021-0.042,0.038-0.085,0.052-0.13C26.889,23.337,26.871,23.381,26.86,23.426z"/>
<path d="M58.572,29.459c0.77,0.202,2.535-0.287,2.34-1.955c0,0-2.293,1.226-2.15-0.481c0.176-2.013,1.863-2.827,1.303-4.104
	c0,0-0.436-1.459-2.539-0.873c-2.104,0.586-2.098,2.729-4.06,2.834c0,0-0.293-1.759-5.212-1.759c-3.72,0-8.208,1.218-9.121,0.652
	c-0.912-0.567-0.391-1.805,0.346-2.971c0.736-1.167,2.541-3.863,1.609-5.277c0,0-0.586,0.488-1.023,0.338
	c0,0,0.241,1.42-1.466,4.052c-0.612,0.945-1.172,2.397-0.293,3.466c0,0-1.616-0.651-0.052-3.805c0.652-1.375,1.179-2.15,1.179-2.788
	c0-0.971-0.3-1.166-0.3-1.166s2.105,0.15,2.736-1.563c-0.465,0.097-0.939,0.132-1.413,0.104c-0.391-0.104-0.736,0.189-1.023,0.651
	l-0.3-0.098c0,0,0.052-0.488,0.443-0.534c0,0-1.121-0.651-1.023-1.172c-0.314-0.896-1.155-1.5-2.104-1.512
	c0,0-3.466-1.303-3.668-1.909c-0.137-0.417-0.827-0.482-0.827-0.482s-0.196-0.104-0.652,0.293c-0.303,0.194-0.502,0.515-0.541,0.873
	c0,0,1.075-0.052,0.651,0.932c-0.208,0.437-0.586,0.202-0.788-0.052l-0.098,0.651c0,0,0.098,0.248,0.925,0.495
	c0.828,0.248,2.645,1.857,2.541,2.873s1.303,1.805,2.84,1.661c0,0,0.437,0.443-0.443,0.443c-0.88,0-1.075,0.188-2.541-0.652
	c0,0,0,1.029-1.954,2.052c-1.029,0.534-3.564,1.303-4.346,3.909c-0.651,2.196,0.196,3.466,0.196,3.466l1.121-0.482
	c0,0,0.052-4.397,4.56-4.104l0.098,0.196c0,0-4.195,0.293-4.248,4.293c0,0-1.616,1.557-5.133-0.586c0,0,2.541,1.029,2.931,0.651
	c-0.2-0.833-0.284-1.69-0.248-2.547c-0.248,0.534-1.426,2.488-4.788,0.749c-1.164,2.181-2.469,4.284-3.909,6.293
	c0.131,0.554,0.025,1.137-0.293,1.609c0,0-0.443,1.225,0.046,1.225c0.901-0.102,1.744-0.498,2.397-1.127
	c-0.352-0.857-0.37-1.814-0.052-2.685c0.534-1.459,1.622-4.098,3.322-3.218c2.007,1.023,6.313,4.71,8.554,4.195
	c1.032-0.143,1.836-0.965,1.955-2c0,0,0.43-0.149,0.339,0.391c-0.084,0.663-0.438,1.262-0.977,1.655
	c2.588,1.948,5.928,2.604,9.062,1.778c1.397-0.438,2.854-0.658,4.318-0.651c-0.717-1.29-0.947-2.795-0.65-4.241
	c0,0,0.541-0.391,0.442,0.293c-0.038,0.313-0.272,2.508,1.173,3.855c1.635,1.427,3.697,2.268,5.863,2.392
	c1.172,0.052,1.661-0.052,1.811,3.806c0,0,0.652,0.781,0.828,1.021c0.461-0.023,0.908,0.158,1.226,0.495l0.247,0.104
	c0.416,0.156,1.59,0.534,1.505-0.104c-0.093-0.775-0.544-1.462-1.22-1.856c0,0-1.366,1.172-1.758-1.271
	c-0.021-0.82,0.06-1.641,0.24-2.441c0,0,0.391-0.926-0.879-0.926c-1.139-0.151-1.938-1.197-1.785-2.334
	c0.006-0.053,0.016-0.104,0.025-0.154c0,0,0.834-2.979,0.105-4.346c0.823-0.416,1.608-0.907,2.344-1.465
	c0.652-0.586,2.047-0.684,1.369,0.651C56.756,26.905,56.477,28.905,58.572,29.459z M37.251,13.759
	c-0.157-1.062-0.958-0.912-0.958-0.912V12.04l0.801,0.182c0.209,0.126,0.347,0.343,0.372,0.586c-0.03,0.319-0.102,0.632-0.215,0.932
	V13.759z"/>
<path d="M32.847,10.229L32.411,10.3c0.436,0.111,0.515,0.697,0.515,0.697C33.29,10.333,32.847,10.229,32.847,10.229z"/>
<g id="矩形_24">
	<path d="M79.063,0.651L55.389,64.566H0.925L24.078,0.651H79.063 M80,0H23.622L0,65.219h55.837L80,0z"/>
</g>
<g id="形狀_24">
	<rect x="7.609" y="44.131" width="56" height="0.487"/>
</g>
<path d="M15.244,59.426h-1.303v-0.227c-0.208-1.799-0.339-2.932-0.43-3.799l-0.26,2.072l-0.228,1.953H11.72l-1.303-8.515h1.485
	v0.222c0.202,1.604,0.339,2.697,0.437,3.485c0.084-0.808,0.202-1.907,0.371-3.485v-0.222h1.492v0.222
	c0.195,1.715,0.326,2.822,0.41,3.604c0.098-0.809,0.241-1.954,0.456-3.604v-0.222h1.433L15.244,59.426z"/>
<polygon points="20.593,59.453 19.179,59.453 19.179,55.863 17.994,55.863 17.994,59.453 16.58,59.453 16.58,50.938 17.994,50.938 
	17.994,53.98 19.179,53.98 19.179,50.938 20.593,50.938 "/>
<rect x="20.971" y="50.938" width="1.407" height="8.515"/>
<polygon points="26.45,52.86 25.14,52.86 25.14,59.453 23.72,59.453 23.72,52.86 22.411,52.86 22.411,50.938 26.45,50.938 "/>
<polygon points="30.345,59.453 26.541,59.453 26.541,50.938 30.248,50.938 30.248,52.86 27.941,52.86 27.941,54.039 30.059,54.039 
	30.059,55.967 27.941,55.967 27.941,57.537 30.345,57.537 "/>
<polygon points="36.372,59.453 34.958,59.453 34.958,55.863 33.772,55.863 33.772,59.453 32.352,59.453 32.352,50.938 
	33.772,50.938 33.772,53.98 34.958,53.98 34.958,50.938 36.372,50.938 "/>
<path d="M47.902,59.668c-1.303,0-2.111-1.094-2.111-2.932v-0.254h1.375v0.254c0,0.477,0.131,1.049,0.65,1.049
	c0.307,0,0.651-0.092,0.651-0.787c0-0.463-0.194-0.568-0.651-0.764l-0.469-0.208c-0.717-0.3-1.531-0.651-1.531-2.606
	c0-1.303,0.51-2.723,1.922-2.723c1.414,0,1.955,1.434,1.955,2.848v0.254h-1.361v-0.233c-0.045-0.685-0.24-0.979-0.65-0.979
	c-0.149,0-0.502,0.072-0.502,0.711c0,0.477,0.17,0.547,0.307,0.601l1.068,0.487c0.65,0.287,1.303,0.795,1.303,2.379
	C49.869,59.59,48.078,59.668,47.902,59.668z"/>
<polygon points="53.922,59.453 50.117,59.453 50.117,50.938 53.816,50.938 53.816,52.86 51.512,52.86 51.512,54.039 53.629,54.039 
	53.629,55.967 51.512,55.967 51.512,57.537 53.922,57.537 "/>
<path d="M45.622,58.775c-0.106-0.454-0.136-0.924-0.085-1.389c0-1.25-0.137-1.705-0.424-2.025c0.396-0.557,0.587-1.232,0.541-1.915
	c0-1.159-0.424-2.515-1.615-2.515h-2.477v8.494h1.395v-3.133h0.691c0.365,0,0.449,0.045,0.449,1.264
	c-0.012,0.555,0.023,1.107,0.104,1.654v0.215h1.484v-0.592L45.622,58.775z M43.791,54.457h-0.814v-1.643h0.881
	c0.346,0,0.385,0.561,0.385,0.801c0,0.848-0.262,0.848-0.45,0.848L43.791,54.457L43.791,54.457z"/>
<path d="M38.958,50.724c-0.547,0-2.345,0.325-2.345,4.476c0,4.149,1.798,4.469,2.345,4.469c0.391,0,2.339-0.215,2.339-4.469
	S39.355,50.724,38.958,50.724z M38.958,57.746c-0.43,0-0.932-0.65-0.932-2.547s0.502-2.555,0.932-2.555s0.925,0.652,0.925,2.555
	C39.883,57.103,39.394,57.746,38.958,57.746z"/>
</svg>
