<?xml version="1.0" encoding="utf-8"?>
<!-- Generator: Adobe Illustrator 15.1.0, SVG Export Plug-In . SVG Version: 6.00 Build 0)  -->
<!DOCTYPE svg PUBLIC "-//W3C//DTD SVG 1.1//EN" "http://www.w3.org/Graphics/SVG/1.1/DTD/svg11.dtd">
<svg version="1.1" id="圖層_1" xmlns="http://www.w3.org/2000/svg" xmlns:xlink="http://www.w3.org/1999/xlink" x="0px" y="0px"
	 width="612px" height="792px" viewBox="0 0 612 792" enable-background="new 0 0 612 792" xml:space="preserve">
<g>
	<path fill="#FFFFFF" d="M521.6,711.037H90.401c-5.575,0-9.293-3.718-9.293-9.293V90.257c0-5.575,5.576-9.293,9.293-9.293h429.341
		c5.576,0,9.293,3.719,9.293,9.293v611.487C530.893,705.462,525.318,711.037,521.6,711.037z M99.694,692.45h410.755V99.55H99.694
		V692.45z"/>
	<path fill="#FFFFFF" d="M566.206,711.037H45.793c-5.576,0-9.293-3.718-9.293-9.293c0-5.576,3.717-9.294,9.293-9.294h520.414
		c5.575,0,9.293,3.718,9.293,9.294C575.5,707.319,571.782,711.037,566.206,711.037z"/>
	<path fill="#FFFFFF" d="M385.92,711.037H227.938c-5.576,0-9.293-3.718-9.293-9.293v-44.606c0-5.576,3.717-9.293,9.293-9.293H385.92
		c5.575,0,9.293,3.717,9.293,9.293v44.606C395.213,705.462,389.638,711.037,385.92,711.037z M235.372,692.45h139.396v-26.021
		H235.372V692.45L235.372,692.45z"/>
	<path fill="#FFFFFF" d="M361.758,664.571H248.383c-5.576,0-9.293-3.718-9.293-9.293v-135.68c0-5.575,3.717-9.293,9.293-9.293
		h113.375c5.576,0,9.293,3.718,9.293,9.293v135.68C371.051,660.853,367.334,664.571,361.758,664.571z M259.534,645.985h92.931
		V528.891h-92.931V645.985z"/>
	<path fill="#FFFFFF" d="M181.472,484.285h-44.606c-5.576,0-9.294-3.717-9.294-9.293v-44.606c0-5.575,3.718-9.293,9.294-9.293
		h44.606c5.576,0,9.293,3.718,9.293,9.293v44.606C190.765,480.568,187.048,484.285,181.472,484.285z M146.158,465.699h26.021
		v-26.021h-26.021V465.699z"/>
	<path fill="#FFFFFF" d="M272.545,484.285h-44.607c-5.576,0-9.293-3.717-9.293-9.293v-44.606c0-5.575,3.717-9.293,9.293-9.293
		h44.607c5.576,0,9.293,3.718,9.293,9.293v44.606C281.838,480.568,278.121,484.285,272.545,484.285z M235.372,465.699h26.021
		v-26.021h-26.021V465.699L235.372,465.699z"/>
	<path fill="#FFFFFF" d="M385.92,484.285h-44.606c-5.576,0-9.294-3.717-9.294-9.293v-44.606c0-5.575,3.718-9.293,9.294-9.293h44.606
		c5.575,0,9.293,3.718,9.293,9.293v44.606C395.213,480.568,389.638,484.285,385.92,484.285z M348.747,465.699h26.021v-26.021
		h-26.021V465.699z"/>
	<path fill="#FFFFFF" d="M475.134,484.285h-44.606c-5.576,0-9.293-3.717-9.293-9.293v-44.606c0-5.575,3.717-9.293,9.293-9.293
		h44.606c5.576,0,9.294,3.718,9.294,9.293v44.606C484.428,480.568,480.71,484.285,475.134,484.285z M439.821,465.699h26.021v-26.021
		h-26.021V465.699z"/>
	<path fill="#FFFFFF" d="M181.472,393.212h-44.606c-5.576,0-9.294-3.717-9.294-9.293v-44.606c0-5.576,3.718-9.293,9.294-9.293
		h44.606c5.576,0,9.293,3.717,9.293,9.293v44.606C190.765,389.495,187.048,393.212,181.472,393.212z M146.158,374.626h26.021
		v-26.021h-26.021V374.626z"/>
	<path fill="#FFFFFF" d="M272.545,393.212h-44.607c-5.576,0-9.293-3.717-9.293-9.293v-44.606c0-5.576,3.717-9.293,9.293-9.293
		h44.607c5.576,0,9.293,3.717,9.293,9.293v44.606C281.838,389.495,278.121,393.212,272.545,393.212z M235.372,374.626h26.021
		v-26.021h-26.021V374.626L235.372,374.626z"/>
	<path fill="#FFFFFF" d="M385.92,393.212h-44.606c-5.576,0-9.294-3.717-9.294-9.293v-44.606c0-5.576,3.718-9.293,9.294-9.293h44.606
		c5.575,0,9.293,3.717,9.293,9.293v44.606C395.213,389.495,389.638,393.212,385.92,393.212z M348.747,374.626h26.021v-26.021
		h-26.021V374.626z"/>
	<path fill="#FFFFFF" d="M475.134,393.212h-44.606c-5.576,0-9.293-3.717-9.293-9.293v-44.606c0-5.576,3.717-9.293,9.293-9.293
		h44.606c5.576,0,9.294,3.717,9.294,9.293v44.606C484.428,389.495,480.71,393.212,475.134,393.212z M439.821,374.626h26.021v-26.021
		h-26.021V374.626z"/>
	<path fill="#FFFFFF" d="M181.472,303.998h-44.606c-5.576,0-9.294-3.717-9.294-9.293V248.24c0-5.576,3.718-9.293,9.294-9.293h44.606
		c5.576,0,9.293,3.717,9.293,9.293v44.607C190.765,298.422,187.048,303.998,181.472,303.998z M146.158,285.412h26.021v-27.879
		h-26.021V285.412z"/>
	<path fill="#FFFFFF" d="M272.545,303.998h-44.607c-5.576,0-9.293-3.717-9.293-9.293V248.24c0-5.576,3.717-9.293,9.293-9.293h44.607
		c5.576,0,9.293,3.717,9.293,9.293v44.607C281.838,298.422,278.121,303.998,272.545,303.998z M235.372,285.412h26.021v-27.879
		h-26.021V285.412L235.372,285.412z"/>
	<path fill="#FFFFFF" d="M385.92,303.998h-44.606c-5.576,0-9.294-3.717-9.294-9.293V248.24c0-5.576,3.718-9.293,9.294-9.293h44.606
		c5.575,0,9.293,3.717,9.293,9.293v44.607C395.213,298.422,389.638,303.998,385.92,303.998z M348.747,285.412h26.021v-27.879
		h-26.021V285.412z"/>
	<path fill="#FFFFFF" d="M475.134,303.998h-44.606c-5.576,0-9.293-3.717-9.293-9.293V248.24c0-5.576,3.717-9.293,9.293-9.293h44.606
		c5.576,0,9.294,3.717,9.294,9.293v44.607C484.428,298.422,480.71,303.998,475.134,303.998z M439.821,285.412h26.021v-27.879
		h-26.021V285.412z"/>
	<path fill="#FFFFFF" d="M181.472,212.927h-44.606c-5.576,0-9.294-3.718-9.294-9.294v-44.605c0-5.576,3.718-9.293,9.294-9.293
		h44.606c5.576,0,9.293,3.717,9.293,9.293v44.605C190.765,209.208,187.048,212.927,181.472,212.927z M146.158,194.339h26.021v-26.02
		h-26.021V194.339z"/>
	<path fill="#FFFFFF" d="M272.545,212.927h-44.607c-5.576,0-9.293-3.718-9.293-9.294v-44.605c0-5.576,3.717-9.293,9.293-9.293
		h44.607c5.576,0,9.293,3.717,9.293,9.293v44.605C281.838,209.208,278.121,212.927,272.545,212.927z M235.372,194.339h26.021v-26.02
		h-26.021V194.339L235.372,194.339z"/>
	<path fill="#FFFFFF" d="M385.92,212.927h-44.606c-5.576,0-9.294-3.718-9.294-9.294v-44.605c0-5.576,3.718-9.293,9.294-9.293h44.606
		c5.575,0,9.293,3.717,9.293,9.293v44.605C395.213,209.208,389.638,212.927,385.92,212.927z M348.747,194.339h26.021v-26.02h-26.021
		V194.339z"/>
	<path fill="#FFFFFF" d="M475.134,212.927h-44.606c-5.576,0-9.293-3.718-9.293-9.294v-44.605c0-5.576,3.717-9.293,9.293-9.293
		h44.606c5.576,0,9.294,3.717,9.294,9.293v44.605C484.428,209.208,480.71,212.927,475.134,212.927z M439.821,194.339h26.021v-26.02
		h-26.021V194.339z"/>
</g>
</svg>
