<?xml version="1.0" encoding="utf-8"?>
<!-- Generator: Adobe Illustrator 15.1.0, SVG Export Plug-In . SVG Version: 6.00 Build 0)  -->
<!DOCTYPE svg PUBLIC "-//W3C//DTD SVG 1.1//EN" "http://www.w3.org/Graphics/SVG/1.1/DTD/svg11.dtd">
<svg version="1.1" id="圖層_1" xmlns="http://www.w3.org/2000/svg" xmlns:xlink="http://www.w3.org/1999/xlink" x="0px" y="0px"
	 width="612px" height="792px" viewBox="0 0 612 792" enable-background="new 0 0 612 792" xml:space="preserve">
<g>
	<path fill="#FFFFFF" d="M521.981,238.205c7.456-57.782-26.096-76.421-63.375-76.421c-29.822,0-55.917,16.775-78.284,29.823
		c-9.318,5.591-18.64,11.183-27.959,14.911c0-11.185-9.319-20.502-18.64-20.502h-50.327c-11.184,0-18.64,7.455-18.64,20.502
		c-11.183-1.864-22.367-7.455-31.688-14.911c-24.229-13.047-50.326-29.823-80.148-29.823c-44.735,0-70.83,29.823-63.374,76.421
		c-11.185,0-16.775,7.456-16.775,14.912V387.32c0,7.456,7.456,14.911,14.912,14.911h5.592v210.626
		c0,7.456,7.456,14.912,14.911,14.912h393.293c7.455,0,14.91-7.456,14.91-14.912V402.231h5.593c7.456,0,14.912-7.455,14.912-14.911
		V253.116C538.756,245.661,533.163,238.205,521.981,238.205z M395.233,217.701c20.503-13.047,42.871-24.23,63.373-26.095
		c35.416,0,39.146,26.095,33.552,46.599H354.225C367.273,234.477,382.184,225.157,395.233,217.701z M152.92,191.606
		c20.503,0,42.871,13.047,63.375,26.095c13.048,7.456,26.095,16.776,39.142,20.504H119.369
		C115.641,223.294,113.777,193.47,152.92,191.606z M102.594,372.409V269.892h152.843v102.517H102.594z M486.566,599.81H356.09
		V426.464H255.436V599.81H124.961V402.231H488.43V599.81H486.566z M508.933,372.409H356.09V269.892h152.843V372.409z"/>
</g>
</svg>
