<?xml version="1.0" encoding="utf-8"?>
<!-- Generator: Adobe Illustrator 15.1.0, SVG Export Plug-In . SVG Version: 6.00 Build 0)  -->
<!DOCTYPE svg PUBLIC "-//W3C//DTD SVG 1.1//EN" "http://www.w3.org/Graphics/SVG/1.1/DTD/svg11.dtd">
<svg version="1.1" id="圖層_1" xmlns="http://www.w3.org/2000/svg" xmlns:xlink="http://www.w3.org/1999/xlink" x="0px" y="0px"
	 width="28px" height="20.412px" viewBox="0 0 28 20.412" enable-background="new 0 0 28 20.412" xml:space="preserve">
<g>
	<g>
		<path fill="#FFFFFF" d="M27.637,9.399L14.491,0.155c-0.006-0.005-0.013-0.007-0.02-0.012c-0.026-0.018-0.053-0.031-0.08-0.045
			c-0.023-0.012-0.046-0.024-0.071-0.035c-0.024-0.01-0.05-0.017-0.075-0.024c-0.027-0.009-0.055-0.018-0.084-0.023
			c-0.025-0.004-0.052-0.007-0.078-0.009C14.056,0.005,14.028,0,14,0s-0.057,0.005-0.084,0.007
			c-0.026,0.002-0.053,0.005-0.079,0.009c-0.027,0.006-0.055,0.015-0.082,0.023c-0.026,0.008-0.052,0.015-0.077,0.024
			c-0.022,0.011-0.046,0.021-0.068,0.034c-0.028,0.015-0.056,0.028-0.082,0.047c-0.007,0.004-0.014,0.006-0.02,0.011L6.894,4.808
			V2.189c0-0.353-0.287-0.64-0.642-0.64S5.61,1.837,5.61,2.189v3.52l-5.248,3.69c-0.385,0.271-0.479,0.805-0.207,1.19
			c0.167,0.237,0.432,0.363,0.7,0.363c0.17,0,0.341-0.051,0.49-0.155l1.271-0.895v9.654c0,0.473,0.384,0.854,0.855,0.854
			c0.471,0,0.855-0.384,0.855-0.854V8.701L14,1.899l9.672,6.802v10.854c0,0.473,0.383,0.855,0.854,0.855
			c0.472,0,0.855-0.383,0.855-0.855V9.903l1.271,0.895c0.148,0.105,0.32,0.155,0.49,0.155c0.27,0,0.533-0.126,0.699-0.363
			C28.116,10.204,28.021,9.671,27.637,9.399z"/>
		<path fill="#FFFFFF" d="M17.116,9.227h-6.233c-0.354,0-0.642,0.287-0.642,0.642v7.017c0,0.354,0.287,0.643,0.642,0.643h6.233
			c0.354,0,0.642-0.287,0.642-0.643V9.868C17.758,9.514,17.471,9.227,17.116,9.227z M16.477,12.735h-1.834v-2.229h1.834V12.735z
			 M13.358,10.508v2.228h-1.834v-2.228H13.358z M11.524,14.019h1.834v2.226h-1.834V14.019z M14.643,16.243v-2.225h1.834v2.225
			H14.643z"/>
	</g>
</g>
</svg>
