<?xml version="1.0" encoding="utf-8"?>
<!-- Generator: Adobe Illustrator 15.1.0, SVG Export Plug-In . SVG Version: 6.00 Build 0)  -->
<!DOCTYPE svg PUBLIC "-//W3C//DTD SVG 1.1//EN" "http://www.w3.org/Graphics/SVG/1.1/DTD/svg11.dtd">
<svg version="1.1" id="圖層_1" xmlns="http://www.w3.org/2000/svg" xmlns:xlink="http://www.w3.org/1999/xlink" x="0px" y="0px"
	 width="115px" height="25px" viewBox="0 0 115 25" enable-background="new 0 0 115 25" xml:space="preserve">
<g>
	<g>
		<polygon points="-0.005,1.234 4.105,1.234 5.837,6.094 1.727,6.094 		"/>
		<polygon points="0.564,8.188 4.77,8.188 6.654,13.157 2.359,13.157 		"/>
		<polygon points="2.514,15.068 6.335,15.068 3.919,23.761 -0.006,23.761 		"/>
		<path d="M21.678,18.974c0.883,0,1.309-0.627,1.299-1.262c-0.394,0-5.979,0-6.659,0c0.133-0.557,0.179-0.828,0.264-1.363
			c0,0,3.913,0,4.55,0c0.865,0,1.421-0.659,1.468-1.3c-0.683,0-5.78,0-5.78,0v-1.475c0,0,3.184,0.044,4.39,0
			c1.206-0.045,1.666-1.341,1.666-1.705s0-3.729,0-3.729H16.82V6.759c0,0,1.401,0,2.698,0c1.368,0,2.324-1.032,2.324-1.556
			c0-0.524-0.003-1.543-0.003-1.543h1.595V2.462h-1.592V1.096h-3.513v1.366h-6.817V1.096h-3.47v1.366H6.618V3.66h1.295
			c0,0,0.067,0.904,0.095,1.543c0.044,1.046,1.272,1.556,2.194,1.556c0.921,0,2.821,0,2.821,0v1.382H7.042c0,0,0,2.454,0,3.502
			c0,1.046,1.556,1.932,1.965,1.932c0.41,0,3.996,0.021,3.996,0.021l-0.122,1.475l-5.532-0.021v1.3h5.257
			c0,0-0.158,0.979-0.409,1.363c-0.648,0-5.252,0-5.252,0l-0.022,1.262h4.539c-0.581,1.685-4.878,4.79-4.878,4.79
			c3.336,0,3.042,0,4.588,0c3.142-1.567,4.554-4.79,4.554-4.79S20.074,18.974,21.678,18.974z M12.994,12.245h-2.547V9.504h2.547
			V12.245z M19.491,9.504v2.741h-2.698V9.504H19.491z M11.508,5.333V3.66h6.817v1.673H11.508z"/>
		<polygon points="15.227,20.289 18.751,23.764 23.574,23.764 20.157,20.289 		"/>
	</g>
	<path d="M83.436,7.007l-9.197,0.006l1.8-3.624h7.703V1.784H61.796v1.604h9.638l-1.745,3.618h-7.202c0,0,0,12.324,0,13.895
		c0,1.309,0.75,2.731,2.78,2.873c0,0,14.338,0,15.556,0c1.64,0,2.618-1.012,2.618-2.558C83.44,19.669,83.436,7.007,83.436,7.007z
		 M79.593,21.993H66.261V16.12c0,0,9.993,0,11.13,0c1.313,0,1.896-1.104,1.896-1.692c-0.468,0-13.026,0-13.026,0V8.725h13.332
		V21.993z"/>
	<g>
		<path d="M94.083,1.289l4.405-0.009c0,0-1.158,2.37-2.316,3.527h1.778v3.264l-4.496,0.008V5.226h-2.486
			C90.968,5.226,93.105,3.961,94.083,1.289z"/>
		<path d="M101.545,6.354c0-0.857,0-5.025,0-5.025h3.853v2.448h4.083l2.04-2.488h3.382c0,0-2.027,2.632-2.302,2.905
			c-0.273,0.272-0.668,0.674-1.212,0.674c-0.376,0-5.991,0-5.991,0v2.028l9.607,0.025c0,0,0.017,1.202-1.406,1.202
			c-1.911,0-8.702-0.018-9.811,0C102.271,8.151,101.545,7.021,101.545,6.354z"/>
		<path d="M111.399,21.441c0.344,0.004,0.217,0.005,0.707,0.005c0.708,0,2.273-0.501,2.273-1.866c0-1.474,0-1.341,0-10.064H92.766
			c0,9.128,0,9.128,0,10.057c0,1.207,1.242,1.869,1.983,1.869c0.753,0,0.819,0.022,0.819,0.022l-2.57,2.364h5.789l2.526-2.364h4.537
			l2.458,2.364h5.467L111.399,21.441z M96.554,19.919v-2.01c0,0,10.857,0,12.154,0c1.093,0,1.33-1.448,1.33-1.448H96.554v-2.015
			c0,0,11.111,0,12.272,0c1.208,0,1.28-1.489,1.28-1.489H96.554v-2h14.034v8.962H96.554z"/>
	</g>
	<g>
		<path d="M33.532,1.146h3.535v2.327h2.68c0,0-0.502,3.16-2.796,6.595v13.837h-3.534V12.493h-2.55c0,0,4.363-4.776,5.001-7.914
			h-4.87V3.473h2.535V1.146z"/>
		<polygon points="36.811,10.192 39.511,10.192 40.703,19.944 38.109,19.944 		"/>
		<path d="M54.011,17.751V3.489h-4.693V1.178h-3.156v2.312h-4.847c0,12.83,0,13.116,0,14.024c0,1.295,0.512,2.446,1.809,2.446
			c1.433,0,1.433,0,3.038,0v3.944h3.156V19.96c0,0,1.109,0,2.748,0c1.898,0,1.914-0.94,1.914-1.896
			c0.003-0.017,0.004-0.031,0.007-0.047C54,17.924,54.011,17.833,54.011,17.751z M46.051,18.731h-1.803v-6.175h1.803V18.731z
			 M46.051,4.921v6.271l0,0h-1.803l0,0l0,0V4.805h1.803V4.921z M51.074,18.731h-1.756v-6.175h1.756V18.731z M51.074,4.921v6.271l0,0
			h-1.756l0,0l0,0V4.805h1.756V4.921z"/>
	</g>
</g>
</svg>
