<?xml version="1.0" encoding="utf-8"?>
<!-- Generator: Adobe Illustrator 16.0.0, SVG Export Plug-In . SVG Version: 6.00 Build 0)  -->
<!DOCTYPE svg PUBLIC "-//W3C//DTD SVG 1.1//EN" "http://www.w3.org/Graphics/SVG/1.1/DTD/svg11.dtd">
<svg version="1.1" id="Shapes" xmlns="http://www.w3.org/2000/svg" xmlns:xlink="http://www.w3.org/1999/xlink" x="0px" y="0px"
	 width="263.142px" height="227.025px" viewBox="0 0 263.142 227.025" enable-background="new 0 0 263.142 227.025"
	 xml:space="preserve">
<g>
	<path d="M33.351,132.726l14.526,13.618c-14.398,22.72-10.107,58.473,29.036,78.534c2.739,1.404,5.79,2.148,8.869,2.148H209.13
		c1.973,0,3.76-0.771,5.612-1.451c19.705-7.233,38.421-23.073,48.092-45.009c0.565-1.282,0.34-2.778-0.58-3.835l-14.435-16.587
		c-0.7-0.805-1.722-1.26-2.788-1.242c-1.067,0.018-2.072,0.507-2.746,1.334c-5.46,6.7-14.813,10.312-20.526,10.238
		c-17.157-36.575-55.782-78.34-98.256-83.442c-12.521-0.246-24.728,6.902-36.013,27.685c12.111,6.778,22.152,18.454,28.55,35.854
		c0.293,0.797-0.055,1.687-0.811,2.074c-0.755,0.387-1.682,0.149-2.156-0.555c-9.353-13.863-21.535-23.888-36.428-25.77
		c-1.237,0.245-2.45,0.542-3.64,0.887l-1.28-1.201l-9.11-8.541l-7.962-7.464c6.192-8.115,5.354-19.762-2.252-26.895
		c-8.119-7.607-20.865-7.196-28.474,0.92c-3.56,3.798-5.341,8.611-5.421,13.437c-4.811,0.391-9.499,2.479-13.06,6.277
		c-7.608,8.115-7.197,20.863,0.92,28.472C13.975,139.345,25.652,139.428,33.351,132.726z"/>
	<path d="M188.596,63.346c3.35-4.412,8.178-12.374,7.936-21.375c-0.372-13.713-12.799-15.29-13.539-26.781
		c-0.279-4.332,1.033-9.728,2.191-13.506c0.382-1.246-1.114-2.252-2.025-1.318c-4.927,5.042-12.819,15.246-10.082,26.779
		c3.559,14.992,18.109,20.23,14.074,35.316C186.905,63.377,188.022,64.101,188.596,63.346z"/>
	<path d="M168.745,77.199c1.862-2.81,3.888-6.947,3.764-11.525c-0.227-8.37-7.811-9.332-8.263-16.345
		c-0.129-2.001,0.299-4.374,0.821-6.408c0.317-1.238-1.165-2.215-1.998-1.248c-2.896,3.36-6.321,8.852-4.875,14.952
		c2.023,8.524,9.87,11.881,8.94,19.746C167.021,77.342,168.205,78.017,168.745,77.199z"/>
</g>
</svg>
