<?xml version="1.0" encoding="utf-8"?>
<!-- Generator: Adobe Illustrator 16.0.0, SVG Export Plug-In . SVG Version: 6.00 Build 0)  -->
<!DOCTYPE svg PUBLIC "-//W3C//DTD SVG 1.1//EN" "http://www.w3.org/Graphics/SVG/1.1/DTD/svg11.dtd">
<svg version="1.1" id="圖層_1" xmlns="http://www.w3.org/2000/svg" xmlns:xlink="http://www.w3.org/1999/xlink" x="0px" y="0px"
	 width="225.437px" height="237.143px" viewBox="0 0 225.437 237.143" enable-background="new 0 0 225.437 237.143"
	 xml:space="preserve">
<g>
	<path fill-rule="evenodd" clip-rule="evenodd" d="M201.815,40.312c-15.325-3.498-18.046,19.312,0,16.498
		c20.502-3.195,8.963-39.932-5.25-42.744c-21.319-4.219-39.962,20.691-38.995,40.494c0.555,11.362,7.396,19.2,6,29.247
		c-8.042-0.235-9.43-10.961-16.498-11.999c-4.616-0.678-6.289,2.456-11.999,3c-4.394-2.217-2.547-6.111-5.999-8.999
		c-5.725-4.79-16.239-1.101-22.497-5.999c3.924-7.18,12.385-5.283,17.248-6.749c22.999-6.934,23.827-31.667,41.245-44.995
		c12.601-9.642,37.363-11.811,49.494,0c17.43,16.971,15.106,62.318-15.748,60.743c-11.333-0.579-23.953-11.523-20.997-26.247
		C180.021,31.588,199.288,23.99,201.815,40.312z"/>
	<path fill-rule="evenodd" clip-rule="evenodd" d="M123.075,70.308c3.194,7.49,12.39,15.65,21.747,8.249
		c6.964,3.161,9.611,14.215,19.498,11.999c0.96,47.162-20.674,85.877-47.994,109.486c-19.148,16.547-52.818,34.102-85.489,36.745
		c-11.622,0.94-29.305,0.511-30.746-7.499c-1.187-6.588,9.586-14.17,14.248-17.248c17.866-11.798,34.639-29.34,44.244-50.243
		c7.986-17.38,8.565-35.202,12.749-50.244c5.6-20.138,15.54-40.131,30.746-46.494C105.588,70.297,115.748,68.887,123.075,70.308z
		 M84.08,110.803c-1.664,6.566-11.276,34.249-1.5,34.496c6.934,0.175,8.817-17.46,10.499-24.747
		c2.464-10.68,5.127-20.568,8.999-26.247c2.383-3.494,8.714-4.828,7.5-11.248c-0.715-3.777-4.129-4.621-7.5-3.75
		C93.919,81.416,87.68,96.599,84.08,110.803z M76.581,167.046c3.521-0.669,4.685-3.929,4.499-9.749
		C71.85,145.586,63.98,169.441,76.581,167.046z"/>
</g>
</svg>
