<?xml version="1.0" encoding="utf-8"?>
<!-- Generator: Adobe Illustrator 15.1.0, SVG Export Plug-In . SVG Version: 6.00 Build 0)  -->
<!DOCTYPE svg PUBLIC "-//W3C//DTD SVG 1.1//EN" "http://www.w3.org/Graphics/SVG/1.1/DTD/svg11.dtd">
<svg version="1.1" id="icons" xmlns="http://www.w3.org/2000/svg" xmlns:xlink="http://www.w3.org/1999/xlink" x="0px" y="0px"
	 width="38px" height="38px" viewBox="0 0 38 38" enable-background="new 0 0 38 38" xml:space="preserve">
<path fill="#040000" d="M19,0C8.523,0,0,8.523,0,19s8.523,19,19,19s19-8.523,19-19S29.477,0,19,0z M20,35.949V33
	c0-0.553-0.447-1-1-1s-1,0.447-1,1v2.949C9.426,35.447,2.553,28.575,2.051,20H5c0.553,0,1-0.447,1-1s-0.447-1-1-1H2.051
	C2.553,9.425,9.426,2.553,18,2.051V5c0,0.553,0.447,1,1,1s1-0.447,1-1V2.051C28.576,2.553,35.447,9.425,35.949,18H33
	c-0.553,0-1,0.447-1,1s0.447,1,1,1h2.949C35.447,28.575,28.576,35.447,20,35.949z"/>
<path fill="#040000" d="M28.293,9.293L19,18.586l-5.293-5.293c-0.391-0.391-1.023-0.391-1.414,0s-0.391,1.023,0,1.414l6,6
	C18.488,20.902,18.744,21,19,21s0.512-0.098,0.707-0.293l10-10c0.391-0.391,0.391-1.023,0-1.414S28.684,8.902,28.293,9.293z"/>
</svg>
