<?xml version="1.0" encoding="utf-8"?>
<!-- Generator: Adobe Illustrator 15.1.0, SVG Export Plug-In . SVG Version: 6.00 Build 0)  -->
<!DOCTYPE svg PUBLIC "-//W3C//DTD SVG 1.1//EN" "http://www.w3.org/Graphics/SVG/1.1/DTD/svg11.dtd">
<svg version="1.1" id="分離模式" xmlns="http://www.w3.org/2000/svg" xmlns:xlink="http://www.w3.org/1999/xlink" x="0px"
	 y="0px" width="22px" height="32px" viewBox="0 0 22 32" enable-background="new 0 0 22 32" xml:space="preserve">
<path d="M11,0C4.935,0,0,4.935,0,11c0,1.921,0.512,3.82,1.479,5.494L10.134,31.5C10.313,31.81,10.643,32,11,32s0.688-0.19,0.866-0.5
	l8.655-15.006C21.489,14.82,22,12.92,22,11C22,4.935,17.065,0,11,0z M11,14.75c-2.071,0-3.75-1.68-3.75-3.75S8.929,7.25,11,7.25
	s3.75,1.68,3.75,3.75S13.071,14.75,11,14.75z"/>
</svg>
