<?xml version="1.0" encoding="utf-8"?>
<!-- Generator: Adobe Illustrator 16.0.0, SVG Export Plug-In . SVG Version: 6.00 Build 0)  -->
<!DOCTYPE svg PUBLIC "-//W3C//DTD SVG 1.1//EN" "http://www.w3.org/Graphics/SVG/1.1/DTD/svg11.dtd">
<svg version="1.1" id="圖層_1" xmlns="http://www.w3.org/2000/svg" xmlns:xlink="http://www.w3.org/1999/xlink" x="0px" y="0px"
	 width="50px" height="50px" viewBox="-20.219 -19.002 50 50" enable-background="new -20.219 -19.002 50 50" xml:space="preserve">
<path d="M4.806,30.895c-4.941,0-9.889,0.004-14.835,0c-5.938-0.008-10.049-4.105-10.054-10.021c0-9.856,0-19.711,0-29.566
	c0-6.125,4.054-10.196,10.2-10.204c9.855-0.016,19.71-0.016,29.564,0c5.967,0.008,10.063,4.15,10.066,10.142
	c0.004,9.854,0.004,19.711,0,29.567c-0.003,5.969-4.12,10.074-10.11,10.082C14.693,30.898,9.749,30.895,4.806,30.895z
	 M-15.166,0.905c-0.021,0.476-0.051,0.813-0.051,1.149c-0.004,6.25-0.008,12.504,0,18.748c0.004,3.372,1.933,5.277,5.333,5.277
	c9.82,0.005,19.641,0.005,29.459,0c3.371-0.006,5.277-1.935,5.285-5.316c0.005-6.215,0-12.426,0-18.646c0-0.365,0-0.736,0-1.133
	c-2.498,0-4.874,0-7.361,0c1.106,3.051,1.277,6.052,0.324,9.072c-0.951,3.022-2.745,5.439-5.357,7.219
	c-4.48,3.054-10.469,3.228-14.94,0.182c-5.927-4.039-7.442-9.684-5.475-16.461C-8.132,0.964-8.298,0.905-8.46,0.905
	C-10.652,0.905-12.848,0.905-15.166,0.905z M4.862-2.741c-4.837-0.017-8.82,3.932-8.816,8.737c0.003,4.83,3.971,8.792,8.792,8.781
	c4.843-0.008,8.755-3.951,8.74-8.81C13.57,1.167,9.669-2.729,4.862-2.741z M23.92-4.769c0-2.857,0-5.581,0-8.31
	c-2.818,0-5.564,0-8.314,0c0,2.824,0,5.55,0,8.31C18.396-4.769,21.121-4.769,23.92-4.769z"/>
</svg>
