<!-- Generated by IcoMoon.io -->
<svg version="1.1" xmlns="http://www.w3.org/2000/svg" width="812" height="768" viewBox="0 0 812 768">
<title></title>
<g id="icomoon-ignore">
</g>
<path fill="#000" d="M811.24 307.801c-9.852-171.313-187.59-307.801-405.407-307.801-224.138 0-405.833 144.523-405.833 322.801 0 163.866 153.503 299.207 352.374 320.025 12.158 1.274 20.923 12.248 19.578 24.398l-8.468 76.211c-1.922 17.299 15.966 29.886 31.643 22.318 168.022-81.086 268.49-164.506 328.488-236.78 10.918-13.151 46.519-63.029 53.777-76.127 15.405-27.813 26.025-57.677 31.018-88.943 1.867-9.819 2.787-18.078 3.213-24.559 0.698-10.692-0.097-26.57-0.382-31.542zM244.954 429.713h-83.036c-11.464 0-20.761-9.293-20.761-20.761v-156.73c0-11.465 9.296-20.762 20.761-20.762s20.761 9.296 20.761 20.762v135.969h62.276c11.465 0 20.761 9.296 20.761 20.761s-9.296 20.761-20.761 20.761zM326.953 413.491c0 8.96-7.263 16.221-16.221 16.221h-9.077c-8.958 0-16.222-7.261-16.222-16.221v-165.807c0-8.96 7.264-16.222 16.222-16.222h9.077c8.958 0 16.221 7.263 16.221 16.222v165.807zM520.010 408.088c0 11.529-9.424 21.725-20.953 21.621-5.443-0.049-10.372-2.2-14.047-5.674-1.233-1.174-85.4-110.254-85.4-110.254v95.167c0 11.465-9.296 20.761-20.761 20.761s-20.761-9.293-20.761-20.761v-155.876c0-11.299 8.658-21.169 19.952-21.599 6.481-0.246 12.315 2.491 16.277 6.937 1.267 1.421 84.171 109.557 84.171 109.557v-95.747c0-11.465 9.296-20.758 20.761-20.762 11.464 0 20.761 9.296 20.761 20.762v155.867zM654.94 309.825c11.467 0 20.761 9.293 20.761 20.761 0 11.464-9.292 20.761-20.761 20.761h-62.276v36.847h62.276c11.467 0 20.761 9.296 20.761 20.761s-9.292 20.761-20.761 20.761h-83.035c-11.467 0-20.761-9.293-20.761-20.761v-156.73c0-11.465 9.292-20.762 20.761-20.762h83.035c11.467 0 20.761 9.296 20.761 20.762 0 11.464-9.292 20.761-20.761 20.755h-62.276v36.847h62.276z"></path>
</svg>
