<?xml version="1.0" encoding="utf-8"?>
<!-- Generator: Adobe Illustrator 16.0.0, SVG Export Plug-In . SVG Version: 6.00 Build 0)  -->
<!DOCTYPE svg PUBLIC "-//W3C//DTD SVG 1.1//EN" "http://www.w3.org/Graphics/SVG/1.1/DTD/svg11.dtd">
<svg version="1.1" id="圖層_1" xmlns="http://www.w3.org/2000/svg" xmlns:xlink="http://www.w3.org/1999/xlink" x="0px" y="0px"
	 width="13px" height="12.54px" viewBox="0 0 13 12.54" enable-background="new 0 0 13 12.54" xml:space="preserve">
<path fill-rule="evenodd" clip-rule="evenodd" d="M0.965,11.595c3.687,0,7.368,0,11.077,0c-0.062-0.891-0.34-1.7-0.803-2.447
	c-0.613-0.99-1.46-1.715-2.526-2.186C8.55,6.89,8.422,6.889,8.256,6.975C6.984,7.637,5.714,7.608,4.509,6.839
	C3.295,6.064,2.725,4.911,2.793,3.47c0.089-1.848,1.666-3.392,3.507-3.467c1.923-0.08,3.586,1.271,3.866,3.131
	c0.16,1.062-0.098,2.011-0.744,2.861c-0.046,0.061-0.09,0.122-0.145,0.198c0.891,0.438,1.655,1.02,2.27,1.785
	c0.928,1.155,1.411,2.475,1.452,3.954c0.013,0.447-0.153,0.606-0.608,0.606c-3.927,0.001-7.854,0.001-11.781,0
	c-0.468,0-0.627-0.157-0.609-0.634c0.071-1.85,0.786-3.405,2.147-4.661c0.25-0.23,0.53-0.241,0.72-0.043
	C3.074,7.417,3.042,7.681,2.77,7.933c-1.035,0.957-1.647,2.13-1.805,3.534C0.961,11.504,0.965,11.542,0.965,11.595z M6.487,6.5
	C8.02,6.506,9.28,5.257,9.286,3.727c0.005-1.533-1.243-2.793-2.773-2.798C4.977,0.924,3.72,2.17,3.714,3.703
	C3.708,5.237,4.956,6.496,6.487,6.5z"/>
</svg>
