<?xml version="1.0" encoding="utf-8"?>
<!-- Generator: Adobe Illustrator 16.0.0, SVG Export Plug-In . SVG Version: 6.00 Build 0)  -->
<!DOCTYPE svg PUBLIC "-//W3C//DTD SVG 1.1//EN" "http://www.w3.org/Graphics/SVG/1.1/DTD/svg11.dtd">
<svg version="1.1" id="Shapes" xmlns="http://www.w3.org/2000/svg" xmlns:xlink="http://www.w3.org/1999/xlink" x="0px" y="0px"
	 width="178.37px" height="176.784px" viewBox="0 0 178.37 176.784" enable-background="new 0 0 178.37 176.784"
	 xml:space="preserve">
<g>
	<path d="M19.597,146.463c1.353-1.353,2.857-2.455,4.451-3.338c0.231-0.128,0.463-0.254,0.698-0.373
		c-0.18,0.182-0.337,0.376-0.509,0.563c-3.748,4.073-5.495,9.31-5.242,14.482c0.233,4.78,2.152,9.494,5.804,13.145
		c6.251,6.251,15.61,7.479,23.099,3.711c1.856-0.934,3.602-2.162,5.15-3.711c7.313-7.312,7.77-18.884,1.372-26.729l22.366-22.367
		c10.109-2.348,23.009-3.551,35.143-6.92c46.339-12.866,62.078-37.131,65.697-59.329c4.195-25.719-9.666-48.14-33.438-54.09
		c-23.773-5.951-51.212,6.127-66.132,29.166c-5.892,9.102-11.074,20.66-15.127,35.254c-3.072,11.072-4.344,22.777-6.326,32.422
		l-24.023,24.023c-7.845-6.396-19.416-5.939-26.729,1.373c-7.801,7.801-7.801,20.449,0,28.25c2.384,2.383,5.223,4.029,8.234,4.956
		C14.793,153.109,16.625,149.435,19.597,146.463z"/>
</g>
</svg>
