<?xml version="1.0" encoding="utf-8"?>
<!-- Generator: Adobe Illustrator 16.0.0, SVG Export Plug-In . SVG Version: 6.00 Build 0)  -->
<!DOCTYPE svg PUBLIC "-//W3C//DTD SVG 1.1//EN" "http://www.w3.org/Graphics/SVG/1.1/DTD/svg11.dtd">
<svg version="1.1" id="Shapes" xmlns="http://www.w3.org/2000/svg" xmlns:xlink="http://www.w3.org/1999/xlink" x="0px" y="0px"
	 width="242.995px" height="170.929px" viewBox="0 0 242.995 170.929" enable-background="new 0 0 242.995 170.929"
	 xml:space="preserve">
<g>
	<path d="M108.599,169.789c3.812,1.837,8.34,1.433,11.762-1.056l5.91-4.297l5.394-3.921c1.5-1.09,2.341-2.868,2.234-4.719
		c-0.107-1.851-1.15-3.518-2.765-4.428c-2.31-1.303-4.542-2.626-6.701-3.966c-5.962-3.699-11.303-7.539-15.697-11.55
		c8.132,3.36,18.252,5.449,29.369,6.787c18.495-7.89,36.625-21.698,52.869-43.073c0,0,0.716-1.256,1.741,1.167
		c12.701,36.689,50.68,37.337,50.277,32.499c-0.604-5.241-6.451-10.483-6.451-10.483c-0.403-23.384-16.732-35.883-16.732-35.883
		s16.33-12.499,16.732-35.884c0,0,5.846-5.242,6.451-10.483c0.403-4.838-37.576-4.19-50.277,32.5
		c-1.025,2.423-1.741,1.167-1.741,1.167c-14.808-19.485-33.684-34.05-54.27-42.384L125.934,0
		C93.082-1.684,72.116,17.347,61.895,30.015C40.344,37.984,19.828,53.833,2.763,78.944c-3.222,4.74-3.659,10.848-1.136,15.994
		c13.769,28.095,46.957,51.829,84.921,55.608C91.282,158.344,99.191,165.255,108.599,169.789z M35.86,86.763
		c-3.872,0-7.01-3.139-7.01-7.009c0-3.872,3.139-7.01,7.01-7.01c3.871,0,7.01,3.139,7.01,7.01
		C42.87,83.624,39.731,86.763,35.86,86.763z"/>
</g>
</svg>
