<?xml version="1.0" encoding="utf-8"?>
<!-- Generator: Adobe Illustrator 15.1.0, SVG Export Plug-In . SVG Version: 6.00 Build 0)  -->
<!DOCTYPE svg PUBLIC "-//W3C//DTD SVG 1.1//EN" "http://www.w3.org/Graphics/SVG/1.1/DTD/svg11.dtd">
<svg version="1.1" id="icon" xmlns="http://www.w3.org/2000/svg" xmlns:xlink="http://www.w3.org/1999/xlink" x="0px" y="0px"
	 width="49.998px" height="49.998px" viewBox="0 0 49.998 49.998" enable-background="new 0 0 49.998 49.998" xml:space="preserve">
<path d="M44.152,49.998c-0.013,0-0.025,0-0.038,0c-4.804-0.058-17.339-1.555-29.949-14.165S0.058,10.687,0,5.883
	c-0.016-1.31,0.813-2.471,2.065-2.889l8.524-2.841c1.42-0.471,2.986,0.179,3.654,1.514l4.714,9.427
	c0.582,1.164,0.354,2.564-0.565,3.485l-4.602,4.602c0.586,1.373,2.489,5.182,7.167,9.859c4.677,4.676,8.485,6.581,9.86,7.167
	l4.602-4.602c0.92-0.92,2.322-1.146,3.484-0.566l9.427,4.713c1.335,0.667,1.985,2.239,1.515,3.655l-2.843,8.524
	C46.59,49.171,45.447,49.998,44.152,49.998z"/>
</svg>
