<?xml version="1.0" encoding="utf-8"?>
<!-- Generator: Adobe Illustrator 16.0.0, SVG Export Plug-In . SVG Version: 6.00 Build 0)  -->
<!DOCTYPE svg PUBLIC "-//W3C//DTD SVG 1.1//EN" "http://www.w3.org/Graphics/SVG/1.1/DTD/svg11.dtd">
<svg version="1.1" id="icons" xmlns="http://www.w3.org/2000/svg" xmlns:xlink="http://www.w3.org/1999/xlink" x="0px" y="0px"
	 width="106.941px" height="174.439px" viewBox="0 0 106.941 174.439" enable-background="new 0 0 106.941 174.439"
	 xml:space="preserve">
<path d="M106.941,31.511c0-8.953-7.136-10.504-14.51-7.718c-5.421,2.048-10.123,5.338-14.451,9.723
	c0.124-0.652,0.199-1.328,0.199-2.047c0-7.026-5.45-12.766-12.351-13.257c0.604-1.52,0.945-3.171,0.945-4.906
	C66.774,5.958,60.817,0,53.469,0S40.163,5.958,40.163,13.306c0,1.734,0.342,3.386,0.946,4.906
	c-6.901,0.491-12.351,6.231-12.351,13.257c0,0.698,0.061,1.355,0.148,1.995c-4.313-4.358-8.999-7.631-14.397-9.671
	C7.136,21.007,0,22.559,0,31.511c0,8.952,11.248,9.292,11.248,9.292S1.102,47.242,9.583,55.577
	c8.144,8.004,23.037-3.373,31.92,14.735c-0.328,0.026-0.653,0.054-0.979,0.083c-0.314,0.028-0.626,0.06-0.938,0.091
	c-0.429,0.043-0.858,0.086-1.283,0.134c-0.259,0.03-0.514,0.063-0.771,0.095c-0.47,0.058-0.941,0.115-1.405,0.181
	c-0.122,0.017-0.241,0.037-0.362,0.055c-1.892,0.273-3.732,0.61-5.511,1.023c-0.009,0.002-0.018,0.004-0.026,0.006
	c-0.552,0.128-1.095,0.268-1.634,0.411c-0.098,0.025-0.196,0.05-0.293,0.076c-0.516,0.14-1.024,0.29-1.528,0.444
	c-0.112,0.034-0.225,0.067-0.336,0.103c-0.501,0.157-0.995,0.324-1.484,0.496c-0.102,0.036-0.204,0.072-0.305,0.109
	c-0.5,0.181-0.994,0.37-1.48,0.567c-0.071,0.029-0.142,0.059-0.212,0.088c-0.515,0.213-1.023,0.434-1.522,0.666
	c-0.009,0.004-0.017,0.008-0.025,0.012C12.739,78.997,6.545,86.093,4.474,98.269v0.001l0,0c-0.496,2.913-0.77,6.1-0.77,9.623
	c0,19.747,20.121,35.971,44.801,37.82c-0.151,0.293-0.313,0.611-0.48,0.965c-0.385,0.775-0.802,1.697-1.24,2.81
	c-0.413,1.136-0.927,2.424-1.033,4.399c-0.043,0.971,0.104,2.203,0.646,3.365c0.532,1.177,1.428,2.102,2.274,2.686
	c0.854,0.581,1.677,0.921,2.432,1.146c0.381,0.111,0.751,0.199,1.109,0.266l0.269,0.05l0.017,0.004
	c-0.293-0.09-0.074-0.023-0.136-0.043l0.025,0.007l0.052,0.012l0.103,0.024l0.412,0.099c0.586,0.104,1.014,0.318,1.259,0.514
	c0.245,0.201,0.481,0.623,0.518,1.311c0.058,0.666-0.083,1.471-0.281,2.241c-0.204,0.775-0.496,1.525-0.812,2.199
	c-0.632,1.353-1.375,2.406-1.88,3.006c-0.249,0.292-0.458,0.498-0.532,0.56c-0.087,0.08-0.044,0.07-0.06,0.084
	c-0.815,0.253-1.272,1.118-1.02,1.934s1.118,1.272,1.934,1.02c-0.022,0.001,0.302-0.072,0.674-0.25
	c0.397-0.178,0.809-0.442,1.297-0.803c0.959-0.714,2.063-1.819,3.199-3.343c0.562-0.767,1.125-1.641,1.63-2.665
	c0.504-1.025,0.949-2.203,1.133-3.648c0.197-1.404,0.044-3.248-0.952-4.9c-0.49-0.816-1.149-1.503-1.852-2.062
	c-0.357-0.264-0.698-0.498-1.095-0.725l-0.626-0.315l-0.319-0.15l-0.204-0.088l-0.39-0.165l-0.097-0.042l-0.049-0.021l-0.024-0.01
	c-0.07-0.022,0.141,0.041-0.161-0.051l-0.009-0.004l-0.135-0.07c-0.183-0.092-0.343-0.188-0.482-0.284
	c-0.288-0.182-0.46-0.372-0.482-0.471c-0.015-0.106,0.149-0.049,0.284,0.11c0.134,0.154,0.181,0.286,0.244,0.211
	c0.107-0.134,0.42-0.756,0.84-1.354c0.418-0.622,0.926-1.279,1.395-1.959c0.486-0.671,0.928-1.371,1.327-2.079
	c0.399-0.711,0.736-1.439,0.994-2.183c0.162-0.469,0.28-0.946,0.362-1.393c23.947-2.059,43.42-17.65,44.086-36.757l0,0
	c0.012-0.335,0.034-0.669,0.034-1.007c0-27-16.179-35.49-37.317-37.484c8.877-18.25,23.811-6.813,31.97-14.832
	c8.482-8.335-1.664-14.773-1.664-14.773S106.941,40.463,106.941,31.511z M50.437,69.914c-0.144,0.002-0.285,0.007-0.428,0.009
	c-0.5,0.009-1,0.017-1.497,0.03c-0.336,0.008-0.67,0.021-1.004,0.031c-0.352,0.011-0.705,0.021-1.055,0.034
	c-1.58-5.66-4.795-15.631-8.342-23.31C43.558,51.774,49.521,57.761,50.437,69.914z M53.205,136.893c-21.953,0-40.5-13.28-40.5-29
	c0-1.683,0.071-3.24,0.198-4.694c5.339,3.763,5.812,5.694,13.996,5.694c9.35,0,9.35-8,18.7-8s9.35,8,18.701,8
	c9.352,0,9.352-8,18.703-8c4.518,0,7.702,2.894,10.675,5.317c0.017,0.549,0.028,1.106,0.028,1.683
	C93.705,123.613,75.158,136.893,53.205,136.893z M56.49,69.93c1.302-13.57,7.806-20.116,13.361-25.349
	c-3.95,7.883-7.65,19.291-9.376,25.481C59.162,69.998,57.831,69.957,56.49,69.93z"/>
</svg>
