<svg id="圖層_1" data-name="圖層 1" xmlns="http://www.w3.org/2000/svg" viewBox="0 0 64 64"><title>line</title><path d="M59.38,29a19.81,19.81,0,0,1-6.21,15c-5.49,5.42-11.88,9.71-18.33,13.89a11.76,11.76,0,0,1-3.05,1.36c-1.24.36-1.66-.16-1.3-1.38s.8-2.53,1.07-3.82-.29-2-1.69-2.25a61.41,61.41,0,0,1-6.36-1.36c-6.42-2-11.65-5.75-14.77-11.87C5.3,31.85,5.8,25.16,10.06,18.93c4.45-6.51,11-9.78,18.62-10.86a29.49,29.49,0,0,1,18.65,3.25c5.55,3,9.62,7.4,11.35,13.63A31.72,31.72,0,0,1,59.38,29ZM37.9,34.21l-.19.08c-.19-.27-.39-.53-.57-.8L32.88,27c-.41-.64-.9-1.15-1.74-1S30,27,30,27.76q0,4.74,0,9.48c0,.7.28,1.32,1.1,1.34s1.17-.62,1.19-1.36c0-1.94,0-3.87,0-5.81,0-.32,0-.63.07-1.2l3.92,6a7,7,0,0,0,1.26,1.72,2.52,2.52,0,0,0,1.79.49c.33-.05.71-.84.76-1.33a31.35,31.35,0,0,0,.05-3.36c0-2.18,0-4.35,0-6.53a1,1,0,0,0-1-1.16c-.72-.05-1,.4-1.15,1a8.41,8.41,0,0,0-.06,1.12Zm7.52-6.11h5.33c.66,0,1.3-.13,1.29-.94s-.65-.94-1.31-.94c-2,0-4.09,0-6.13,0-1.33,0-1.68.35-1.69,1.72,0,2.93,0,5.85,0,8.78,0,1.32.38,1.66,1.74,1.69,1.57,0,3.13,0,4.7,0a8,8,0,0,0,2-.1,1.28,1.28,0,0,0,.81-.92c0-.32-.49-.72-.86-.9a2.5,2.5,0,0,0-1.1-.06H45.46V33l.59,0c1.49,0,3,.05,4.48,0a1.4,1.4,0,0,0,1-.87c.16-.61-.37-.88-.94-.91-.41,0-.82,0-1.23,0H45.42ZM16.79,36.4V33.58c0-2.11,0-4.21-.06-6.32a1.19,1.19,0,1,0-2.37.06c0,3.25,0,6.51,0,9.77a1.17,1.17,0,0,0,1.17,1.28c.27,0,.54.05.81.05,1.83,0,3.67,0,5.5,0,.61,0,1.17-.26,1.14-1s-.55-.95-1.19-1h-5Zm8-4.17c0,1.59,0,3.19,0,4.79,0,.82.23,1.55,1.2,1.56S27.2,37.85,27.2,37c0-3.13,0-6.26,0-9.38,0-1.1-.49-1.68-1.27-1.62-1,.07-1.17.79-1.18,1.6Z"/></svg>