<svg id="圖層_1" data-name="圖層 1" xmlns="http://www.w3.org/2000/svg" viewBox="0 0 64 64"><title>twitter</title><path d="M0,54.39A26.43,26.43,0,0,0,19.34,49a13.21,13.21,0,0,1-8.78-3.68A13,13,0,0,1,7.13,39.8,13,13,0,0,0,13,39.58a13.32,13.32,0,0,1-7.53-4.67,13.13,13.13,0,0,1-2.92-8.4,13.25,13.25,0,0,0,5.93,1.64,13.16,13.16,0,0,1-5.72-9.39A12.91,12.91,0,0,1,4.4,10.63,37.54,37.54,0,0,0,31.49,24.36c-.07-.42-.14-.79-.19-1.16A13.14,13.14,0,0,1,38.51,9.55a12.71,12.71,0,0,1,6.18-1.34,13,13,0,0,1,8.24,3.19c.3.27.58.57.88.84a.33.33,0,0,0,.23.07,26.14,26.14,0,0,0,8-3l.27-.15A13.27,13.27,0,0,1,60,13.31a14.11,14.11,0,0,1-3.48,3.1,24.28,24.28,0,0,0,3.78-.74A24.31,24.31,0,0,0,64,14.39l0,0c-.4.55-.79,1.1-1.21,1.64a26.11,26.11,0,0,1-5.19,5,.24.24,0,0,0-.13.25,34.44,34.44,0,0,1-.17,5.28,37.82,37.82,0,0,1-2,8.9,38.74,38.74,0,0,1-5.55,10.33A35.54,35.54,0,0,1,28.85,59.33a38.32,38.32,0,0,1-5.42.81,40.39,40.39,0,0,1-6.69,0,37.28,37.28,0,0,1-11.64-3,38.26,38.26,0,0,1-5-2.65A.74.74,0,0,1,0,54.39Z"/></svg>