<?xml version="1.0" encoding="utf-8"?>
<!-- Generator: Adobe Illustrator 16.0.0, SVG Export Plug-In . SVG Version: 6.00 Build 0)  -->
<!DOCTYPE svg PUBLIC "-//W3C//DTD SVG 1.1//EN" "http://www.w3.org/Graphics/SVG/1.1/DTD/svg11.dtd">
<svg version="1.1" id="Shapes" xmlns="http://www.w3.org/2000/svg" xmlns:xlink="http://www.w3.org/1999/xlink" x="0px" y="0px"
	 width="40px" height="40px" viewBox="0 0 40 40" enable-background="new 0 0 40 40" xml:space="preserve">
<g>
	<path fill="#2A5F7C" d="M5.06,22.923l2.209,2.071c-2.189,3.456-1.537,8.894,4.417,11.946c0.417,0.213,0.881,0.326,1.35,0.326
		h18.763c0.299,0,0.572-0.117,0.854-0.221c2.998-1.1,5.844-3.51,7.316-6.846c0.084-0.195,0.051-0.424-0.09-0.584l-2.195-2.523
		c-0.105-0.122-0.262-0.191-0.424-0.188s-0.314,0.077-0.418,0.203c-0.83,1.019-2.254,1.568-3.123,1.558
		c-2.609-5.563-8.484-11.917-14.945-12.693c-1.904-0.037-3.761,1.05-5.478,4.211c1.842,1.031,3.369,2.808,4.343,5.455
		c0.044,0.121-0.009,0.256-0.123,0.314c-0.115,0.059-0.256,0.023-0.328-0.084c-1.423-2.108-3.276-3.634-5.541-3.92
		c-0.188,0.037-0.373,0.083-0.554,0.135L10.896,21.9l-1.386-1.299L8.3,19.466c0.941-1.234,0.814-3.006-0.343-4.091
		c-1.235-1.157-3.174-1.095-4.331,0.14c-0.541,0.578-0.813,1.31-0.824,2.044c-0.732,0.06-1.445,0.377-1.987,0.955
		c-1.157,1.234-1.095,3.174,0.141,4.331C2.112,23.93,3.889,23.942,5.06,22.923z"/>
	<path fill="#2A5F7C" d="M28.673,12.369c0.51-0.671,1.246-1.882,1.209-3.251c-0.057-2.086-1.947-2.326-2.061-4.074
		c-0.043-0.659,0.158-1.479,0.334-2.054c0.057-0.189-0.17-0.343-0.309-0.201c-0.75,0.767-1.949,2.319-1.533,4.074
		c0.541,2.28,2.754,3.077,2.141,5.372C28.417,12.374,28.587,12.484,28.673,12.369z"/>
	<path fill="#2A5F7C" d="M25.653,14.476c0.285-0.427,0.592-1.057,0.574-1.753c-0.035-1.273-1.189-1.419-1.258-2.486
		c-0.02-0.304,0.045-0.665,0.125-0.975c0.049-0.188-0.178-0.337-0.305-0.189c-0.439,0.511-0.961,1.346-0.74,2.274
		c0.307,1.296,1.5,1.807,1.359,3.003C25.392,14.498,25.571,14.601,25.653,14.476z"/>
</g>
</svg>
