<?xml version="1.0" encoding="utf-8"?>
<!-- Generator: Adobe Illustrator 16.0.0, SVG Export Plug-In . SVG Version: 6.00 Build 0)  -->
<!DOCTYPE svg PUBLIC "-//W3C//DTD SVG 1.1//EN" "http://www.w3.org/Graphics/SVG/1.1/DTD/svg11.dtd">
<svg version="1.1" id="Shapes" xmlns="http://www.w3.org/2000/svg" xmlns:xlink="http://www.w3.org/1999/xlink" x="0px" y="0px"
	 width="35px" height="35px" viewBox="0 0 35 35" enable-background="new 0 0 35 35" xml:space="preserve">
<g>
	<path fill="#FFFFFF" d="M4.469,20.05l1.928,1.806c-1.91,3.015-1.341,7.757,3.852,10.419c0.364,0.187,0.769,0.285,1.177,0.285
		h16.364c0.262,0,0.501-0.103,0.745-0.193c2.614-0.958,5.097-3.06,6.382-5.97c0.072-0.171,0.044-0.369-0.078-0.509l-1.915-2.201
		c-0.093-0.106-0.229-0.167-0.37-0.164c-0.141,0.002-0.274,0.066-0.364,0.176c-0.725,0.889-1.967,1.369-2.724,1.358
		c-2.276-4.852-7.4-10.393-13.035-11.07c-1.661-0.033-3.28,0.916-4.777,3.672c1.606,0.899,2.938,2.449,3.788,4.758
		c0.038,0.105-0.009,0.224-0.108,0.274s-0.223,0.02-0.286-0.073c-1.24-1.839-2.857-3.169-4.832-3.419
		c-0.165,0.032-0.325,0.072-0.483,0.117l-0.17-0.158l-1.209-1.133l-1.056-0.991c0.82-1.077,0.71-2.622-0.299-3.567
		c-1.078-1.01-2.769-0.955-3.777,0.121c-0.473,0.504-0.709,1.143-0.72,1.783c-0.639,0.052-1.261,0.329-1.732,0.833
		c-1.01,1.077-0.955,2.768,0.122,3.778C1.899,20.928,3.448,20.938,4.469,20.05z"/>
	<path fill="#FFFFFF" d="M25.063,10.845c0.446-0.586,1.087-1.642,1.056-2.836c-0.05-1.819-1.699-2.029-1.798-3.553
		c-0.037-0.575,0.138-1.291,0.292-1.792c0.049-0.165-0.149-0.298-0.27-0.175c-0.653,0.669-1.7,2.023-1.337,3.553
		c0.471,1.989,2.401,2.684,1.866,4.686C24.841,10.849,24.989,10.945,25.063,10.845z"/>
	<path fill="#FFFFFF" d="M22.431,12.682c0.249-0.372,0.516-0.922,0.5-1.529c-0.029-1.11-1.037-1.238-1.096-2.168
		c-0.018-0.266,0.038-0.581,0.109-0.85c0.041-0.165-0.156-0.294-0.267-0.166c-0.384,0.446-0.839,1.175-0.645,1.984
		c0.266,1.131,1.308,1.577,1.185,2.62C22.202,12.701,22.359,12.791,22.431,12.682z"/>
</g>
</svg>
