<?xml version="1.0" encoding="utf-8"?>
<!-- Generator: Adobe Illustrator 16.0.0, SVG Export Plug-In . SVG Version: 6.00 Build 0)  -->
<!DOCTYPE svg PUBLIC "-//W3C//DTD SVG 1.1//EN" "http://www.w3.org/Graphics/SVG/1.1/DTD/svg11.dtd">
<svg version="1.1" id="Layer_1" xmlns="http://www.w3.org/2000/svg" xmlns:xlink="http://www.w3.org/1999/xlink" x="0px" y="0px"
	 width="50px" height="50px" viewBox="0 0 50 50" enable-background="new 0 0 50 50" xml:space="preserve">
<g>
	<path fill="#D09B37" d="M33.492,44.259c0.384,0,0.697-0.312,0.697-0.694c0-0.385-0.313-0.697-0.697-0.697s-0.696,0.313-0.696,0.697
		C32.796,43.945,33.107,44.259,33.492,44.259z"/>
	<circle fill="#D09B37" cx="31.038" cy="38.378" r="0.726"/>
	<circle fill="#D09B37" cx="37.124" cy="40.617" r="0.557"/>
	<circle fill="#D09B37" cx="25.973" cy="43.3" r="0.929"/>
	<circle fill="#D09B37" cx="43.246" cy="39.356" r="0.929"/>
	<circle fill="#D09B37" cx="12.328" cy="40.036" r="0.929"/>
	<path fill="#D09B37" d="M0.704,33.357L7.972,50h42.042V33.357H0.704z M47.777,47.639H10.046L4.038,34.357h43.739V47.639z"/>
	<circle fill="#D09B37" cx="21.362" cy="38.413" r="0.696"/>
	<circle fill="#D09B37" cx="17.182" cy="43.151" r="0.558"/>
</g>
</svg>
