<?xml version="1.0" encoding="utf-8"?>
<!-- Generator: Adobe Illustrator 16.0.0, SVG Export Plug-In . SVG Version: 6.00 Build 0)  -->
<!DOCTYPE svg PUBLIC "-//W3C//DTD SVG 1.1//EN" "http://www.w3.org/Graphics/SVG/1.1/DTD/svg11.dtd">
<svg version="1.1" id="Layer_1" xmlns="http://www.w3.org/2000/svg" xmlns:xlink="http://www.w3.org/1999/xlink" x="0px" y="0px"
	 width="50px" height="50px" viewBox="0 0 50 50" enable-background="new 0 0 50 50" xml:space="preserve">
<path fill="#D09B37" d="M1.141,34.357h2.897h43.739h2.236v-3.239l-27.257-18.87c-0.22-0.554-0.579-1.063-1.069-1.472
	c-1.575-1.314-3.915-1.102-5.229,0.472c-0.329,0.394-0.562,0.835-0.702,1.297c-1.371-0.154-2.773,0.461-3.559,1.706
	c-0.273,0.434-0.446,0.903-0.524,1.379c-1.379,0.029-2.688,0.825-3.3,2.163C8.16,18.26,8.05,18.749,8.036,19.231
	c-1.362,0.211-2.554,1.173-2.984,2.582c-0.15,0.491-0.193,0.988-0.144,1.468c-1.323,0.391-2.377,1.502-2.617,2.953
	c-0.093,0.563-0.05,1.115,0.098,1.631c-0.009,0.003-0.018,0.007-0.027,0.011c-1.879,0.819-2.737,3.008-1.917,4.888L1.141,34.357z
	 M7.288,29.146c2.881-6.2,7.779-11.417,13.794-14.69c0.307-0.167,0.688-0.054,0.854,0.252c0.166,0.305,0.054,0.687-0.252,0.854
	c-5.779,3.145-10.486,8.159-13.254,14.115c-0.106,0.229-0.334,0.365-0.572,0.365c-0.089,0-0.179-0.021-0.265-0.06
	C7.278,29.838,7.142,29.463,7.288,29.146z"/>
</svg>
