<?xml version="1.0" encoding="utf-8"?>
<!-- Generator: Adobe Illustrator 16.0.0, SVG Export Plug-In . SVG Version: 6.00 Build 0)  -->
<!DOCTYPE svg PUBLIC "-//W3C//DTD SVG 1.1//EN" "http://www.w3.org/Graphics/SVG/1.1/DTD/svg11.dtd">
<svg version="1.1" id="Shapes" xmlns="http://www.w3.org/2000/svg" xmlns:xlink="http://www.w3.org/1999/xlink" x="0px" y="0px"
	 width="40px" height="40px" viewBox="0 0 40 40" enable-background="new 0 0 40 40" xml:space="preserve">
<g>
	<path fill="#0C3A53" d="M4.397,33.021c0.303-0.304,0.641-0.553,0.998-0.751c0.052-0.028,0.103-0.057,0.156-0.081
		c-0.04,0.039-0.075,0.084-0.113,0.123c-0.841,0.915-1.233,2.091-1.176,3.25c0.052,1.071,0.483,2.13,1.301,2.947
		c1.401,1.401,3.5,1.675,5.18,0.831c0.416-0.208,0.807-0.484,1.154-0.831c1.64-1.642,1.742-4.236,0.308-5.993l5.015-5.015
		c2.267-0.527,5.158-0.798,7.88-1.554c10.389-2.882,13.919-8.323,14.729-13.301c0.941-5.766-2.166-10.793-7.496-12.127
		C27.001-0.815,20.85,1.893,17.505,7.059c-1.321,2.04-2.483,4.632-3.392,7.904c-0.688,2.483-0.974,5.108-1.419,7.271l-5.387,5.385
		c-1.759-1.434-4.353-1.332-5.992,0.307c-1.749,1.751-1.749,4.587,0,6.338c0.534,0.532,1.171,0.902,1.846,1.111
		C3.32,34.511,3.731,33.687,4.397,33.021z"/>
</g>
</svg>
