<?xml version="1.0" encoding="utf-8"?>
<!-- Generator: Adobe Illustrator 16.0.0, SVG Export Plug-In . SVG Version: 6.00 Build 0)  -->
<!DOCTYPE svg PUBLIC "-//W3C//DTD SVG 1.1//EN" "http://www.w3.org/Graphics/SVG/1.1/DTD/svg11.dtd">
<svg version="1.1" id="Shapes" xmlns="http://www.w3.org/2000/svg" xmlns:xlink="http://www.w3.org/1999/xlink" x="0px" y="0px"
	 width="35px" height="35px" viewBox="0 0 35 35" enable-background="new 0 0 35 35" xml:space="preserve">
<g>
	<path fill="#FFFFFF" d="M3.897,28.853c0.264-0.265,0.559-0.481,0.87-0.654c0.045-0.024,0.089-0.05,0.136-0.071
		c-0.035,0.034-0.065,0.073-0.099,0.107c-0.733,0.798-1.076,1.823-1.025,2.834c0.045,0.934,0.421,1.856,1.134,2.569
		c1.222,1.222,3.051,1.46,4.516,0.725c0.362-0.182,0.703-0.422,1.006-0.725c1.43-1.431,1.519-3.693,0.269-5.225l4.372-4.372
		c1.976-0.46,4.497-0.696,6.87-1.355c9.058-2.512,12.135-7.256,12.842-11.596c0.82-5.027-1.889-9.411-6.535-10.573
		c-4.649-1.164-10.012,1.197-12.928,5.701c-1.152,1.779-2.165,4.039-2.957,6.891c-0.6,2.165-0.849,4.453-1.237,6.339l-4.696,4.694
		c-1.533-1.25-3.794-1.161-5.224,0.268c-1.525,1.526-1.525,3.999,0,5.525c0.466,0.465,1.021,0.787,1.609,0.97
		C2.958,30.151,3.316,29.433,3.897,28.853z"/>
</g>
</svg>
