<?xml version="1.0" encoding="utf-8"?>
<!-- Generator: Adobe Illustrator 16.0.0, SVG Export Plug-In . SVG Version: 6.00 Build 0)  -->
<!DOCTYPE svg PUBLIC "-//W3C//DTD SVG 1.1//EN" "http://www.w3.org/Graphics/SVG/1.1/DTD/svg11.dtd">
<svg version="1.1" id="Layer_1" xmlns="http://www.w3.org/2000/svg" xmlns:xlink="http://www.w3.org/1999/xlink" x="0px" y="0px"
	 width="50px" height="50px" viewBox="0 0 50 50" enable-background="new 0 0 50 50" xml:space="preserve">
<path fill="#D09B37" d="M48.826,43.323h-2.375c-0.846-0.849-1.661-1.584-2.538-2.164c-0.833-0.554-1.735-0.953-2.731-1.156
	c-0.416-0.358-0.839-0.69-1.272-0.979c-1.229-0.816-2.61-1.313-4.229-1.31c-0.244,0.003-0.496,0.015-0.756,0.038
	c-0.029-0.021-0.063-0.045-0.089-0.064c-1.229-0.815-2.61-1.313-4.229-1.308c-0.525,0.003-1.082,0.058-1.66,0.157
	c-1.021-0.984-2.41-1.596-3.939-1.596c-1.487,0-2.844,0.58-3.854,1.519c-0.401-0.051-0.788-0.077-1.163-0.079
	c-1.618-0.005-2.999,0.487-4.229,1.309c-0.032,0.021-0.062,0.043-0.093,0.065c-0.256-0.022-0.507-0.038-0.752-0.039
	c-0.134-0.002-0.261,0.007-0.391,0.013V26.541H12.92v11.443c-0.434,0.121-0.852,0.273-1.25,0.472V26.541h-1.6V39.46
	c-0.224,0.173-0.447,0.354-0.667,0.544c-0.198,0.04-0.391,0.096-0.582,0.148V26.541H7.223v14.287
	c-0.187,0.104-0.371,0.212-0.551,0.332c-0.877,0.582-1.692,1.316-2.539,2.164H1.174c-0.66,0-1.2,0.541-1.2,1.201v0.004
	c0,0.66,0.424,1.199,0.943,1.199c0.518,0,1.34,0.361,1.827,0.811l2.904,2.652C6.134,49.635,7.073,50,7.733,50H42.27
	c0.658,0,1.602-0.365,2.084-0.809l2.902-2.653c0.488-0.445,1.311-0.81,1.828-0.81c0.52,0,0.943-0.541,0.943-1.201v-0.004
	C50.027,43.864,49.486,43.323,48.826,43.323z M30.604,37.98c0.658,0.002,1.236,0.096,1.787,0.271
	c-0.975,0.288-2.039,0.701-3.215,1.235c-0.625-0.336-1.222-0.641-1.791-0.914C28.652,38.165,29.709,37.975,30.604,37.98z M25,36.542
	c0.708,0,1.371,0.179,1.949,0.493c-0.524,0.169-1.072,0.365-1.65,0.602c-0.716-0.289-1.383-0.521-2.017-0.712
	C23.805,36.682,24.384,36.542,25,36.542z M6.471,43.323c0.366-0.314,0.726-0.595,1.084-0.83c1.041-0.683,2.043-1.037,3.348-1.041
	c1.544-0.013,3.564,0.55,6.363,1.871H6.471z M20.765,43.323c-3.62-1.978-6.291-3.048-8.521-3.366
	c0.812-0.42,1.646-0.639,2.665-0.643c2.205-0.018,5.382,1.138,10.413,4.009H20.765z M28.509,43.323l-0.683-0.388
	c-4.106-2.439-7.15-3.947-9.632-4.685c0.548-0.179,1.128-0.271,1.789-0.272c2.445-0.018,6.076,1.394,12.111,5.002l0.604,0.343
	H28.509z M32.9,41.6c-0.68-0.399-1.327-0.774-1.95-1.132c1.976-0.807,3.502-1.161,4.726-1.151c1.021,0.002,1.855,0.228,2.67,0.646
	c-1.512,0.215-3.223,0.771-5.294,1.729L32.9,41.6z M42.264,43.323v3.774c0,0.438-0.359,0.801-0.799,0.801h-0.004
	c-0.439,0-0.8-0.361-0.8-0.801v-3.774h-4.74l-1.138-0.649c2.058-0.855,3.638-1.23,4.9-1.223c1.305,0.004,2.305,0.359,3.346,1.042
	c0.359,0.235,0.719,0.515,1.086,0.83H42.264z"/>
</svg>
