<?xml version="1.0" encoding="utf-8"?>
<!-- Generator: Adobe Illustrator 16.0.0, SVG Export Plug-In . SVG Version: 6.00 Build 0)  -->
<!DOCTYPE svg PUBLIC "-//W3C//DTD SVG 1.1//EN" "http://www.w3.org/Graphics/SVG/1.1/DTD/svg11.dtd">
<svg version="1.1" id="Layer_1" xmlns="http://www.w3.org/2000/svg" xmlns:xlink="http://www.w3.org/1999/xlink" x="0px" y="0px"
	 width="50px" height="50px" viewBox="0 0 50 50" enable-background="new 0 0 50 50" xml:space="preserve">
<path fill="#D09B37" d="M48.826,43.323h-2.375c-0.846-0.848-1.661-1.584-2.538-2.164c-0.833-0.554-1.735-0.953-2.732-1.156
	c-0.416-0.359-0.838-0.69-1.275-0.98c-1.229-0.819-2.61-1.312-4.229-1.309c-0.246,0.003-0.497,0.015-0.755,0.038
	c-0.031-0.021-0.06-0.045-0.089-0.064c-1.23-0.819-2.612-1.313-4.229-1.308c-0.528,0.003-1.082,0.058-1.661,0.157
	c-1.021-0.984-2.412-1.595-3.941-1.595c-1.487,0-2.844,0.58-3.854,1.518c-0.401-0.051-0.788-0.077-1.163-0.079
	c-1.618-0.005-2.999,0.487-4.229,1.309c-0.032,0.019-0.062,0.042-0.093,0.065c-0.256-0.023-0.507-0.038-0.752-0.039
	c-0.134-0.002-0.261,0.007-0.391,0.013V25.195l0.997-0.157c3.427-0.918,4.479-2.134,5.612-4.153
	c6.541-1.302,13.801-2.124,17.872-3.214c1.999-0.536,2.64-2.084,2.334-3.222c-0.304-1.137-1.632-2.158-3.631-1.624
	c-4.02,1.078-10.601,3.935-16.845,6.07c-2.152-1.315-3.646-1.95-7.253-0.983l-7.833,3.011c-0.091,0.025-0.136,0.153-0.1,0.288
	c0.036,0.135,0.138,0.223,0.23,0.199l8.938-2.034c0.133-0.036,0.268,0.048,0.304,0.182c0.036,0.135-0.039,0.277-0.172,0.313
	l-8.759,2.695c-0.092,0.025-0.135,0.157-0.099,0.29c0.036,0.135,0.138,0.225,0.23,0.201l8.935-2.046
	c0.134-0.036,0.269,0.049,0.306,0.188c0.036,0.138-0.038,0.281-0.171,0.316l-8.761,2.694C6.56,24.235,6.517,24.366,6.553,24.5
	c0.036,0.135,0.139,0.226,0.231,0.201l8.933-2.042c0.136-0.036,0.271,0.051,0.307,0.186c0.036,0.134-0.039,0.274-0.172,0.311
	l-1.592,0.492c-0.142-0.131-0.331-0.213-0.541-0.213c-0.379,0-0.696,0.265-0.778,0.621l-1.47,0.455
	c-0.146-0.168-0.361-0.276-0.601-0.276c-0.41,0-0.743,0.309-0.789,0.706l-1.458,0.45c-0.146-0.168-0.361-0.277-0.601-0.277
	c-0.412,0-0.745,0.31-0.791,0.708l-0.137,0.042c-0.092,0.024-0.136,0.152-0.1,0.287c0.036,0.134,0.136,0.222,0.229,0.198v14.479
	c-0.187,0.104-0.371,0.212-0.551,0.332c-0.877,0.582-1.692,1.316-2.539,2.164H1.174c-0.66,0-1.2,0.541-1.2,1.201v0.004
	c0,0.66,0.424,1.2,0.943,1.2c0.518,0,1.34,0.364,1.827,0.81l2.904,2.653C6.134,49.635,7.073,50,7.733,50h34.536
	c0.659,0,1.599-0.365,2.084-0.809l2.903-2.653c0.488-0.445,1.311-0.81,1.828-0.81c0.519,0,0.943-0.54,0.943-1.2v-0.004
	C50.027,43.864,49.486,43.323,48.826,43.323z M30.603,37.98c0.658,0.002,1.237,0.096,1.787,0.274
	c-0.974,0.288-2.038,0.701-3.214,1.236c-0.625-0.334-1.222-0.638-1.791-0.915C28.652,38.165,29.709,37.975,30.603,37.98z M25,36.542
	c0.708,0,1.371,0.179,1.949,0.493c-0.524,0.169-1.072,0.365-1.65,0.602c-0.716-0.29-1.383-0.524-2.017-0.712
	C23.805,36.682,24.384,36.542,25,36.542z M11.67,25.646l1.25-0.197v12.536c-0.434,0.121-0.852,0.276-1.25,0.471V25.646z
	 M8.821,26.096l1.249-0.197v13.561c-0.224,0.173-0.447,0.354-0.667,0.544c-0.198,0.04-0.391,0.096-0.582,0.149V26.096z
	 M6.471,43.323c0.366-0.314,0.726-0.594,1.084-0.83c1.041-0.682,2.043-1.037,3.348-1.041c1.544-0.012,3.564,0.55,6.363,1.871H6.471z
	 M20.765,43.323c-3.62-1.977-6.291-3.047-8.521-3.366c0.812-0.42,1.646-0.639,2.665-0.642c2.205-0.015,5.382,1.137,10.413,4.008
	H20.765z M28.509,43.323l-0.683-0.388c-4.106-2.439-7.15-3.947-9.632-4.681c0.548-0.179,1.128-0.272,1.789-0.275
	c2.445-0.015,6.075,1.393,12.111,5.001l0.604,0.343H28.509z M32.901,41.599c-0.68-0.402-1.328-0.777-1.951-1.131
	c1.976-0.807,3.502-1.161,4.726-1.152c1.021,0.003,1.855,0.225,2.67,0.645c-1.512,0.215-3.223,0.773-5.294,1.726L32.901,41.599z
	 M42.264,43.323v3.774c0,0.439-0.359,0.801-0.799,0.801h-0.004c-0.439,0-0.8-0.361-0.8-0.801v-3.774h-4.74l-1.138-0.649
	c2.058-0.856,3.638-1.23,4.9-1.223c1.305,0.004,2.306,0.36,3.347,1.042c0.358,0.236,0.718,0.515,1.085,0.83H42.264z"/>
</svg>
