<?xml version="1.0" encoding="utf-8"?>
<!-- Generator: Adobe Illustrator 16.0.0, SVG Export Plug-In . SVG Version: 6.00 Build 0)  -->
<!DOCTYPE svg PUBLIC "-//W3C//DTD SVG 1.1//EN" "http://www.w3.org/Graphics/SVG/1.1/DTD/svg11.dtd">
<svg version="1.1" id="Layer_1" xmlns="http://www.w3.org/2000/svg" xmlns:xlink="http://www.w3.org/1999/xlink" x="0px" y="0px"
	 width="50px" height="50px" viewBox="0 0 50 50" enable-background="new 0 0 50 50" xml:space="preserve">
<path fill="#D09B37" d="M41.337,14.449c-0.304-1.137-1.632-2.158-3.631-1.624c-4.021,1.078-10.601,3.935-16.845,6.07
	c-2.152-1.315-3.646-1.95-7.253-0.983l-7.833,3.011c-0.091,0.025-0.136,0.153-0.1,0.288c0.036,0.135,0.138,0.223,0.23,0.199
	l8.938-2.034c0.133-0.036,0.268,0.048,0.304,0.182c0.036,0.135-0.039,0.277-0.172,0.313l-8.759,2.695
	c-0.092,0.025-0.135,0.157-0.099,0.29c0.036,0.135,0.138,0.225,0.23,0.201l8.935-2.046c0.134-0.036,0.269,0.049,0.306,0.188
	c0.036,0.138-0.038,0.281-0.171,0.316l-8.761,2.694C6.56,24.235,6.517,24.366,6.553,24.5c0.036,0.135,0.139,0.226,0.231,0.201
	l8.933-2.042c0.136-0.036,0.271,0.051,0.307,0.186c0.036,0.134-0.039,0.274-0.172,0.311l-1.592,0.492
	c-0.142-0.131-0.331-0.213-0.541-0.213c-0.379,0-0.696,0.265-0.778,0.621l-1.47,0.455c-0.146-0.168-0.361-0.276-0.601-0.276
	c-0.41,0-0.743,0.309-0.789,0.706l-1.458,0.45c-0.146-0.168-0.361-0.277-0.601-0.277c-0.412,0-0.745,0.31-0.791,0.708l-0.137,0.042
	c-0.092,0.024-0.136,0.151-0.1,0.286c0.036,0.135,0.136,0.223,0.229,0.199v0.149v11.203h1.598V26.5v-0.188v-0.217l1.249-0.197V26.5
	h0.007v11.203h1.598V26.313H11.67v-0.666l1.25-0.196v0.854h-0.001v11.391h1.598V26.5h0.006v-1.305l0.997-0.157
	c3.427-0.918,4.479-2.134,5.612-4.153c6.541-1.302,13.802-2.124,17.872-3.214C41.002,17.135,41.643,15.587,41.337,14.449z"/>
</svg>
