<?xml version="1.0" encoding="utf-8"?>
<!-- Generator: Adobe Illustrator 16.0.0, SVG Export Plug-In . SVG Version: 6.00 Build 0)  -->
<!DOCTYPE svg PUBLIC "-//W3C//DTD SVG 1.1//EN" "http://www.w3.org/Graphics/SVG/1.1/DTD/svg11.dtd">
<svg version="1.1" id="Layer_1" xmlns="http://www.w3.org/2000/svg" xmlns:xlink="http://www.w3.org/1999/xlink" x="0px" y="0px"
	 width="50px" height="50px" viewBox="0 0 50 50" enable-background="new 0 0 50 50" xml:space="preserve">
<g>
	<path fill="#D09B37" d="M49.03,25.403c-0.043-1.721-0.271-3.432-0.673-5.088c-0.13-0.533-0.667-0.862-1.2-0.73
		c-0.532,0.129-0.86,0.666-0.73,1.2c0.371,1.517,0.577,3.089,0.618,4.667c0.3,12.085-9.288,22.166-21.373,22.467
		c-5.145,0.127-9.921-1.533-13.739-4.416c-5.155-3.893-8.557-10.013-8.73-16.956C2.921,15.21,11.52,5.393,22.782,4.196
		c0.59-0.062,1.195-0.102,1.796-0.118c0.547-0.013,0.98-0.469,0.966-1.017c-0.012-0.549-0.469-0.983-1.015-0.968
		c-0.654,0.016-1.312,0.059-1.958,0.127c-5.953,0.633-11.42,3.463-15.392,7.973c-3.995,4.533-6.112,10.356-5.96,16.403
		c0.189,7.573,3.898,14.247,9.52,18.494c4.163,3.143,9.374,4.955,14.983,4.815C38.902,49.576,49.359,38.583,49.03,25.403z"/>
	<path fill="#D09B37" d="M27.898,1.867c0.15,0.113,0.336,0.186,0.538,0.198c2.509,0.152,4.962,0.741,7.292,1.75
		c5.268,2.281,9.348,6.474,11.486,11.802c0.204,0.508,0.782,0.756,1.292,0.55c0.509-0.203,0.756-0.782,0.552-1.292
		C46.724,9.06,42.271,4.484,36.516,1.993c-2.54-1.102-5.218-1.745-7.959-1.911c-0.546-0.033-1.019,0.383-1.051,0.931
		C27.484,1.358,27.644,1.673,27.898,1.867z"/>
	<path fill="#D09B37" d="M26.129,5.509c-0.001,0-0.003-0.001-0.005-0.001V5.51c0.002,0,0.004,0,0.01,0L26.129,5.509z"/>
	<path fill="#D09B37" d="M39.141,7.446c-3.417-2.583-7.382-3.934-11.363-4.128l-0.953,20.43l19.388-6.51
		C44.937,13.467,42.557,10.026,39.141,7.446z M31.845,19.108c-0.495,0.657-1.428,0.786-2.084,0.292
		c-0.656-0.495-0.788-1.431-0.291-2.087c0.495-0.656,1.428-0.786,2.085-0.291C32.21,17.519,32.343,18.452,31.845,19.108z
		 M30.669,11.666c-1.219-0.921-1.461-2.655-0.54-3.875c0.921-1.219,2.655-1.461,3.875-0.54c1.219,0.921,1.461,2.655,0.54,3.875
		C33.623,12.345,31.889,12.587,30.669,11.666z M38.962,17.261c-0.745,0.986-2.144,1.181-3.13,0.437
		c-0.983-0.744-1.179-2.145-0.437-3.13c0.745-0.984,2.145-1.179,3.13-0.436C39.509,14.875,39.704,16.277,38.962,17.261z"/>
	<path fill="#D09B37" d="M8.719,13.647c-6.835,9.052-5.039,21.929,4.013,28.764c9.051,6.833,21.929,5.038,28.765-4.013
		c4.254-5.635,5.163-12.75,3.062-18.97l-19.388,6.51L26.124,5.51C19.568,5.191,12.974,8.012,8.719,13.647z M18.181,10.7
		c0.742-0.984,2.145-1.18,3.128-0.436c0.986,0.743,1.181,2.145,0.437,3.129c-0.742,0.986-2.145,1.182-3.128,0.437
		C17.631,13.086,17.436,11.685,18.181,10.7z M22.187,20.78c-0.494,0.656-1.428,0.786-2.084,0.292
		c-0.656-0.498-0.789-1.431-0.292-2.088c0.495-0.656,1.431-0.786,2.087-0.291C22.553,19.188,22.685,20.123,22.187,20.78z
		 M10.589,15.973c0.922-1.219,2.656-1.461,3.875-0.54c1.22,0.922,1.462,2.655,0.541,3.875c-0.922,1.22-2.655,1.462-3.875,0.54
		C9.91,18.929,9.668,17.192,10.589,15.973z M9.526,23.632c0.496-0.657,1.43-0.786,2.087-0.291c0.656,0.495,0.786,1.431,0.292,2.087
		c-0.497,0.657-1.431,0.786-2.088,0.291C9.16,25.222,9.031,24.288,9.526,23.632z M9.994,33.453
		c-0.983-0.744-1.179-2.146-0.436-3.129c0.744-0.986,2.146-1.182,3.13-0.437c0.986,0.745,1.182,2.145,0.437,3.131
		C12.38,34.001,10.98,34.196,9.994,33.453z M15.631,38.109c-0.495,0.657-1.431,0.786-2.087,0.291
		c-0.656-0.496-0.786-1.431-0.291-2.087c0.498-0.656,1.431-0.786,2.087-0.292C15.997,36.518,16.125,37.453,15.631,38.109z
		 M17.185,24.932c0.921-1.22,2.655-1.461,3.875-0.54c1.219,0.921,1.461,2.655,0.54,3.875c-0.921,1.222-2.655,1.462-3.875,0.543
		C16.506,27.888,16.263,26.154,17.185,24.932z M23.379,41.295c-0.918,1.219-2.655,1.461-3.875,0.541
		c-1.219-0.922-1.462-2.656-0.54-3.875c0.921-1.22,2.655-1.462,3.875-0.542C24.059,38.339,24.301,40.076,23.379,41.295z
		 M40.62,36.783c-0.496,0.656-1.431,0.788-2.087,0.291c-0.656-0.495-0.786-1.428-0.292-2.084c0.497-0.656,1.431-0.789,2.088-0.292
		C40.985,35.193,41.114,36.127,40.62,36.783z M37.016,26.571c0.921-1.219,2.655-1.461,3.875-0.542
		c1.22,0.921,1.461,2.658,0.54,3.877c-0.922,1.219-2.655,1.461-3.875,0.54C36.337,29.525,36.094,27.791,37.016,26.571z
		 M31.293,27.874c0.495-0.657,1.428-0.786,2.085-0.292c0.657,0.498,0.789,1.431,0.292,2.087c-0.495,0.657-1.43,0.786-2.085,0.291
		S30.796,28.53,31.293,27.874z M30.409,34.921c0.745-0.986,2.145-1.182,3.131-0.437c0.983,0.743,1.179,2.145,0.437,3.129
		c-0.745,0.985-2.145,1.18-3.131,0.436C29.862,37.307,29.667,35.904,30.409,34.921z M29.133,42.792
		c-0.498,0.657-1.431,0.789-2.087,0.291c-0.657-0.495-0.786-1.43-0.292-2.085c0.495-0.656,1.431-0.788,2.087-0.291
		C29.498,41.202,29.627,42.136,29.133,42.792z M25.374,31.119c0.498-0.656,1.431-0.788,2.087-0.291
		c0.657,0.495,0.788,1.428,0.292,2.084c-0.495,0.657-1.431,0.79-2.087,0.292C25.009,32.709,24.879,31.776,25.374,31.119z"/>
</g>
</svg>
