<?xml version="1.0" encoding="utf-8"?>
<!-- Generator: Adobe Illustrator 16.0.0, SVG Export Plug-In . SVG Version: 6.00 Build 0)  -->
<!DOCTYPE svg PUBLIC "-//W3C//DTD SVG 1.1//EN" "http://www.w3.org/Graphics/SVG/1.1/DTD/svg11.dtd">
<svg version="1.1" id="Layer_1" xmlns="http://www.w3.org/2000/svg" xmlns:xlink="http://www.w3.org/1999/xlink" x="0px" y="0px"
	 width="50px" height="50px" viewBox="0 0 50 50" enable-background="new 0 0 50 50" xml:space="preserve">
<g>
	<path fill="#D09B37" d="M27.898,1.867c0.147,0.113,0.336,0.186,0.537,0.198c2.51,0.152,4.963,0.741,7.293,1.75
		c5.268,2.281,9.348,6.474,11.483,11.802c0.204,0.508,0.782,0.756,1.292,0.55c0.512-0.203,0.758-0.782,0.555-1.292
		C46.725,9.06,42.271,4.484,36.516,1.993c-2.539-1.102-5.218-1.745-7.959-1.911c-0.545-0.033-1.019,0.383-1.051,0.931
		C27.484,1.358,27.645,1.673,27.898,1.867z"/>
	<path fill="#D09B37" d="M26.129,5.509c-0.001,0-0.003-0.001-0.005-0.001V5.51c0.002,0,0.004,0,0.01,0L26.129,5.509z"/>
	<path fill="#D09B37" d="M39.141,7.446c-3.416-2.583-7.382-3.934-11.363-4.128l-0.95,20.43l19.388-6.51
		C44.938,13.467,42.557,10.026,39.141,7.446z M31.846,19.108c-0.496,0.657-1.429,0.786-2.084,0.292
		c-0.656-0.495-0.789-1.431-0.291-2.087c0.494-0.656,1.428-0.786,2.084-0.291C32.21,17.519,32.343,18.452,31.846,19.108z
		 M30.669,11.666c-1.219-0.921-1.461-2.655-0.54-3.875c0.921-1.219,2.655-1.461,3.875-0.54c1.219,0.921,1.461,2.655,0.54,3.875
		C33.623,12.345,31.889,12.587,30.669,11.666z M38.962,17.261c-0.745,0.986-2.144,1.181-3.13,0.438
		c-0.982-0.744-1.18-2.145-0.438-3.13c0.746-0.984,2.146-1.179,3.131-0.436C39.509,14.875,39.704,16.277,38.962,17.261z"/>
</g>
</svg>
