<?xml version="1.0" encoding="utf-8"?>
<!-- Generator: Adobe Illustrator 16.0.0, SVG Export Plug-In . SVG Version: 6.00 Build 0)  -->
<!DOCTYPE svg PUBLIC "-//W3C//DTD SVG 1.1//EN" "http://www.w3.org/Graphics/SVG/1.1/DTD/svg11.dtd">
<svg version="1.1" id="Shapes" xmlns="http://www.w3.org/2000/svg" xmlns:xlink="http://www.w3.org/1999/xlink" x="0px" y="0px"
	 width="50px" height="50px" viewBox="0 0 50 50" enable-background="new 0 0 50 50" xml:space="preserve">
<path fill="#D09B37" d="M49.832,40.475c-0.262-0.399-0.705-0.646-1.184-0.646H1.406c-0.479,0-0.925,0.243-1.183,0.646
	c-0.26,0.402-0.294,0.909-0.096,1.344l2.628,5.74C3.437,49.047,4.922,50,6.559,50h36.936c1.635,0,3.122-0.953,3.804-2.441
	l2.626-5.74C50.126,41.384,50.09,40.877,49.832,40.475z"/>
<circle fill="#D09B37" cx="12.403" cy="34.086" r="1.41"/>
<circle fill="#D09B37" cx="15.998" cy="35.229" r="1.115"/>
<circle fill="#D09B37" cx="14.162" cy="37.099" r="0.72"/>
<circle fill="#D09B37" cx="31.709" cy="32.734" r="1.652"/>
<circle fill="#D09B37" cx="33.752" cy="36.345" r="0.868"/>
</svg>
