<?xml version="1.0" encoding="utf-8"?>
<!-- Generator: Adobe Illustrator 16.0.0, SVG Export Plug-In . SVG Version: 6.00 Build 0)  -->
<!DOCTYPE svg PUBLIC "-//W3C//DTD SVG 1.1//EN" "http://www.w3.org/Graphics/SVG/1.1/DTD/svg11.dtd">
<svg version="1.1" id="Shapes" xmlns="http://www.w3.org/2000/svg" xmlns:xlink="http://www.w3.org/1999/xlink" x="0px" y="0px"
	 width="40px" height="40px" viewBox="0 0 40 40" enable-background="new 0 0 40 40" xml:space="preserve">
<g>
	<path fill="#3B718F" d="M17.88,33.862c0.625,0.302,1.37,0.235,1.932-0.173l0.972-0.706l0.886-0.645
		c0.246-0.179,0.385-0.471,0.367-0.775c-0.019-0.305-0.188-0.578-0.454-0.728c-0.38-0.214-0.747-0.432-1.101-0.651
		c-0.979-0.607-1.857-1.239-2.579-1.897c1.336,0.553,2.999,0.896,4.824,1.114c3.039-1.296,6.018-3.564,8.686-7.076
		c0,0,0.118-0.206,0.287,0.192c2.087,6.026,8.326,6.134,8.261,5.338c-0.101-0.859-1.061-1.722-1.061-1.722
		c-0.066-3.841-2.748-5.895-2.748-5.895s2.682-2.053,2.748-5.895c0,0,0.96-0.861,1.061-1.722c0.065-0.795-6.174-0.689-8.261,5.339
		c-0.169,0.398-0.287,0.192-0.287,0.192c-2.432-3.201-5.533-5.594-8.915-6.963l-1.77-5.222c-5.397-0.277-8.842,2.85-10.521,4.932
		c-3.541,1.309-6.911,3.913-9.715,8.039c-0.529,0.778-0.601,1.782-0.187,2.627c2.262,4.616,7.715,8.516,13.953,9.136
		C15.036,31.982,16.335,33.117,17.88,33.862z M5.929,20.222c-0.636,0-1.152-0.516-1.152-1.151c0-0.636,0.516-1.152,1.152-1.152
		s1.153,0.516,1.153,1.152C7.082,19.707,6.565,20.222,5.929,20.222z"/>
</g>
</svg>
