<?xml version="1.0" encoding="utf-8"?>
<!-- Generator: Adobe Illustrator 16.0.0, SVG Export Plug-In . SVG Version: 6.00 Build 0)  -->
<!DOCTYPE svg PUBLIC "-//W3C//DTD SVG 1.1//EN" "http://www.w3.org/Graphics/SVG/1.1/DTD/svg11.dtd">
<svg version="1.1" id="Shapes" xmlns="http://www.w3.org/2000/svg" xmlns:xlink="http://www.w3.org/1999/xlink" x="0px" y="0px"
	 width="35px" height="35px" viewBox="0 0 35 35" enable-background="new 0 0 35 35" xml:space="preserve">
<g>
	<path fill="#FFFFFF" d="M15.645,29.636c0.547,0.264,1.199,0.206,1.691-0.151l0.851-0.618l0.775-0.564
		c0.216-0.156,0.337-0.412,0.321-0.679s-0.165-0.506-0.397-0.637c-0.332-0.188-0.653-0.378-0.964-0.57
		c-0.857-0.532-1.625-1.085-2.257-1.661c1.17,0.483,2.625,0.784,4.223,0.976c2.661-1.135,5.269-3.121,7.604-6.195
		c0,0,0.104-0.18,0.252,0.169c1.827,5.275,7.289,5.37,7.231,4.673c-0.088-0.752-0.929-1.507-0.929-1.507
		c-0.058-3.362-2.405-5.161-2.405-5.161s2.348-1.797,2.405-5.161c0,0,0.841-0.754,0.929-1.508c0.058-0.696-5.404-0.603-7.231,4.674
		c-0.148,0.349-0.252,0.168-0.252,0.168c-2.129-2.802-4.844-4.897-7.805-6.095l-1.549-4.572c-4.725-0.243-7.74,2.495-9.21,4.317
		c-3.1,1.146-6.05,3.425-8.505,7.038c-0.463,0.681-0.525,1.56-0.163,2.3c1.98,4.042,6.754,7.455,12.215,7.998
		C13.154,27.99,14.292,28.983,15.645,29.636z M5.182,17.694c-0.557,0-1.008-0.451-1.008-1.008c0-0.557,0.452-1.008,1.008-1.008
		s1.009,0.451,1.009,1.008C6.191,17.243,5.738,17.694,5.182,17.694z"/>
</g>
</svg>
