<?xml version="1.0" encoding="utf-8"?>
<!-- Generator: Adobe Illustrator 16.0.0, SVG Export Plug-In . SVG Version: 6.00 Build 0)  -->
<!DOCTYPE svg PUBLIC "-//W3C//DTD SVG 1.1//EN" "http://www.w3.org/Graphics/SVG/1.1/DTD/svg11.dtd">
<svg version="1.1" id="Grilling_Icons" xmlns="http://www.w3.org/2000/svg" xmlns:xlink="http://www.w3.org/1999/xlink" x="0px"
	 y="0px" width="50px" height="50px" viewBox="0 0 50 50" enable-background="new 0 0 50 50" xml:space="preserve">
<path fill="#D09B37" d="M48.622,6.979c-3.028-3.032-10.489-0.478-14.759,3.792c-3.459,3.46-3.771,6.719-2.487,9.727
	c0.629,1.469-1.733,3.643-8.392,9.534l-2.308,2.041c-0.151,0.133-0.301,0.265-0.454,0.401C12.889,38.973,9.714,41.02,6.6,44.133
	c-3.115,3.117,1.753,7.982,4.867,4.864c3.114-3.11,5.16-6.286,11.658-13.621c0.099-0.11,0.194-0.218,0.29-0.327l2.246-2.539
	c5.735-6.494,7.911-8.882,9.409-8.305c3.063,1.181,6.287,1,9.757-2.47C49.096,17.466,51.646,10.006,48.622,6.979z"/>
</svg>
