<?xml version="1.0" encoding="utf-8"?>
<!-- Generator: Adobe Illustrator 16.0.0, SVG Export Plug-In . SVG Version: 6.00 Build 0)  -->
<!DOCTYPE svg PUBLIC "-//W3C//DTD SVG 1.1//EN" "http://www.w3.org/Graphics/SVG/1.1/DTD/svg11.dtd">
<svg version="1.1" id="Grilling_Icons" xmlns="http://www.w3.org/2000/svg" xmlns:xlink="http://www.w3.org/1999/xlink" x="0px"
	 y="0px" width="50px" height="50px" viewBox="0 0 50 50" enable-background="new 0 0 50 50" xml:space="preserve">
<path fill="#D09B37" d="M38.848,48.864c-3.033-3.044-5.099-6.087-11.302-13.361c-6.204-7.272-7.619-8.214-9.461-8.304
	c-1.845-0.098-5.111,0.914-8.876-2.863C6.282,21.4,1.3,13.866,0.223,12.626c-0.6-0.693,0.574-1.889,1.235-1.229
	c1.17,1.175,7.074,8.446,7.848,9.221c1.372,1.376,3.606-0.595,2.061-2.186C7.744,14.699,4.016,10.66,3.05,9.686
	C2.403,9.04,3.625,7.796,4.282,8.457c1.174,1.177,8.19,7.325,8.962,8.099c1.566,1.57,3.568-0.681,2.194-2.057
	c-0.774-0.776-8.025-6.703-9.197-7.877C5.582,5.961,6.785,4.79,7.478,5.393c1.236,1.08,8.751,6.087,11.68,9.021
	c3.766,3.776,2.746,7.04,2.838,8.884c0.087,1.844,1.02,3.259,8.277,9.481c7.256,6.221,10.3,8.298,13.328,11.339
	C46.637,47.165,41.883,51.908,38.848,48.864z"/>
</svg>
