<?xml version="1.0" encoding="utf-8"?>
<!-- Generator: Adobe Illustrator 16.0.0, SVG Export Plug-In . SVG Version: 6.00 Build 0)  -->
<!DOCTYPE svg PUBLIC "-//W3C//DTD SVG 1.1//EN" "http://www.w3.org/Graphics/SVG/1.1/DTD/svg11.dtd">
<svg version="1.1" id="Grilling_Icons" xmlns="http://www.w3.org/2000/svg" xmlns:xlink="http://www.w3.org/1999/xlink" x="0px"
	 y="0px" width="50px" height="50px" viewBox="0 0 50 50" enable-background="new 0 0 50 50" xml:space="preserve">
<g id="Fork_and_Spoon">
	<g>
		<path fill="#D09B37" d="M38.848,48.864c-3.033-3.043-5.099-6.087-11.302-13.361c-6.204-7.272-7.619-8.214-9.461-8.304
			c-1.845-0.097-5.111,0.914-8.876-2.863c-2.927-2.936-7.909-10.47-8.986-11.71c-0.6-0.693,0.574-1.889,1.235-1.229
			c1.17,1.175,7.074,8.446,7.848,9.221c1.372,1.376,3.606-0.595,2.061-2.186C7.744,14.699,4.016,10.66,3.05,9.686
			C2.403,9.04,3.625,7.796,4.282,8.457c1.174,1.177,8.19,7.325,8.962,8.099c1.566,1.57,3.568-0.681,2.194-2.057
			c-0.774-0.776-8.025-6.703-9.197-7.877C5.582,5.961,6.785,4.79,7.478,5.393c1.236,1.08,8.751,6.087,11.68,9.021
			c3.766,3.776,2.746,7.04,2.838,8.884c0.087,1.844,1.02,3.258,8.277,9.482c7.257,6.22,10.3,8.297,13.329,11.338
			C46.637,47.165,41.883,51.908,38.848,48.864z"/>
		<path fill="#D09B37" d="M20.222,32.475C12.889,38.972,9.714,41.019,6.6,44.133c-3.115,3.117,1.753,7.982,4.867,4.864
			c3.114-3.11,5.16-6.286,11.658-13.621c0.099-0.111,0.194-0.218,0.29-0.327c-1.084-1.231-1.98-2.205-2.739-2.976
			C20.525,32.206,20.375,32.338,20.222,32.475z"/>
		<path fill="#D09B37" d="M35.07,24.205c3.063,1.181,6.288,1,9.757-2.47c4.269-4.269,6.819-11.729,3.795-14.756
			c-3.028-3.032-10.489-0.478-14.759,3.792c-3.458,3.46-3.77,6.719-2.487,9.727c0.629,1.469-1.733,3.643-8.392,9.534
			c0.713,0.699,1.592,1.513,2.677,2.478C31.397,26.016,33.572,23.628,35.07,24.205z"/>
	</g>
</g>
</svg>
