<?xml version="1.0" encoding="utf-8"?>
<!-- Generator: Adobe Illustrator 16.0.0, SVG Export Plug-In . SVG Version: 6.00 Build 0)  -->
<!DOCTYPE svg PUBLIC "-//W3C//DTD SVG 1.1//EN" "http://www.w3.org/Graphics/SVG/1.1/DTD/svg11.dtd">
<svg version="1.1" id="分離模式" xmlns="http://www.w3.org/2000/svg" xmlns:xlink="http://www.w3.org/1999/xlink" x="0px"
	 y="0px" width="50px" height="50px" viewBox="0 0 50 50" enable-background="new 0 0 50 50" xml:space="preserve">
<path id="box_2_" fill="#C99739" d="M41.684,27.573c-0.121-0.169-3.186-4.145-16.684-4.145c-13.497,0-16.559,3.976-16.683,4.145
	c-0.11,0.149-0.149,0.338-0.113,0.52l4.556,21.394c0.064,0.301,0.33,0.515,0.636,0.515h23.208c0.309,0,0.573-0.214,0.639-0.515
	l4.554-21.395C41.833,27.913,41.795,27.725,41.684,27.573z M15.185,47.256c-0.055,0.014-0.11,0.018-0.164,0.018
	c-0.359,0-0.684-0.252-0.763-0.619l-3.596-16.889c-0.089-0.42,0.179-0.834,0.602-0.925c0.421-0.089,0.835,0.181,0.924,0.601
	l3.597,16.891C15.875,46.753,15.605,47.167,15.185,47.256z"/>
</svg>
