<?xml version="1.0" encoding="utf-8"?>
<!-- Generator: Adobe Illustrator 16.0.0, SVG Export Plug-In . SVG Version: 6.00 Build 0)  -->
<!DOCTYPE svg PUBLIC "-//W3C//DTD SVG 1.1//EN" "http://www.w3.org/Graphics/SVG/1.1/DTD/svg11.dtd">
<svg version="1.1" id="芞脯_1" xmlns="http://www.w3.org/2000/svg" xmlns:xlink="http://www.w3.org/1999/xlink" x="0px" y="0px"
	 width="50px" height="50px" viewBox="0 0 50 50" enable-background="new 0 0 50 50" xml:space="preserve">
<g>
	<path fill="#C69535" d="M17.283,22.647c0,0,0.38-0.238,0.513-0.709c0.339-1.207-1.586-2.937,0.972-6.047
		c1.868-2.27,0.156-5.366-1.129-6.321c-0.604-0.447-1.307-0.333-1.307-0.333s2.996,3.884,0.139,6.789
		C13.615,18.929,17.283,22.647,17.283,22.647z"/>
	<path fill="#C69535" d="M31.898,22.647c0,0,0.381-0.238,0.514-0.709c0.339-1.207-1.586-2.937,0.973-6.047
		c1.868-2.27,0.155-5.366-1.13-6.321c-0.603-0.447-1.308-0.333-1.308-0.333s2.996,3.884,0.141,6.789
		C28.23,18.929,31.898,22.647,31.898,22.647z"/>
	<path fill="#C69535" d="M24.795,21.471c0,0,0.38-0.238,0.512-0.71c0.341-1.206-1.584-2.935,0.974-6.045
		c1.867-2.272,0.156-5.367-1.129-6.322c-0.603-0.449-1.307-0.333-1.307-0.333s2.995,3.884,0.139,6.789
		C21.128,17.755,24.795,21.471,24.795,21.471z"/>
	<path fill="#9C9C9C" d="M49.941,34.314"/>
</g>
</svg>
