<?xml version="1.0" encoding="utf-8"?>
<!-- Generator: Adobe Illustrator 16.0.0, SVG Export Plug-In . SVG Version: 6.00 Build 0)  -->
<!DOCTYPE svg PUBLIC "-//W3C//DTD SVG 1.1//EN" "http://www.w3.org/Graphics/SVG/1.1/DTD/svg11.dtd">
<svg version="1.1" id="芞脯_1" xmlns="http://www.w3.org/2000/svg" xmlns:xlink="http://www.w3.org/1999/xlink" x="0px" y="0px"
	 width="50px" height="50px" viewBox="0 0 50 50" enable-background="new 0 0 50 50" xml:space="preserve">
<g>
	<path fill="#D09B37" d="M12.808,33.638c0,0.148,0,0.174,0,0.177c0,1.728,3.639,2.653,6.667,3.128
		c1.169,0.216,2.441,0.361,3.783,0.431c0.145,0.008,0.228,0.015,0.228,0.015s-0.008-0.004-0.008-0.005
		c0.501,0.023,1.008,0.039,1.527,0.039c11.249,0,13.524-3.905,10.647-4.854c1.424,2.429-5.417,3.581-10.647,3.581
		c-2.395,0-4.643-0.201-6.615-0.549c-0.289-0.066-0.58-0.131-0.882-0.186c-1.121-0.209-3.518-0.747-3.417-1.662
		c0.441-4.062,17.547-3.218,17.547-1.152c0,1.124-6.304,0.855-8.96,0.635c-3.499-0.292-2.391,0.526-2.391,0.526
		c1.114,1.279,8.84,1.591,12.235-0.009c2.218-1.046,2.028-2.732-3.654-3.432C23.836,29.705,12.808,30.555,12.808,33.638z"/>
	<path fill="#D09B37" d="M17.283,22.647c0,0,0.38-0.238,0.513-0.709c0.339-1.207-1.586-2.937,0.972-6.047
		c1.868-2.27,0.156-5.366-1.129-6.321c-0.604-0.447-1.307-0.333-1.307-0.333s2.996,3.884,0.139,6.789
		C13.615,18.929,17.283,22.647,17.283,22.647z"/>
	<path fill="#D09B37" d="M31.899,22.647c0,0,0.381-0.238,0.513-0.709c0.339-1.207-1.586-2.937,0.973-6.047
		c1.868-2.27,0.155-5.366-1.13-6.321c-0.603-0.447-1.308-0.333-1.308-0.333s2.997,3.884,0.141,6.789
		C28.231,18.929,31.899,22.647,31.899,22.647z"/>
	<path fill="#D09B37" d="M24.795,21.471c0,0,0.38-0.238,0.512-0.71c0.341-1.206-1.584-2.935,0.974-6.045
		c1.868-2.272,0.157-5.367-1.129-6.322c-0.603-0.449-1.307-0.333-1.307-0.333s2.995,3.884,0.139,6.789S24.795,21.471,24.795,21.471z
		"/>
	<path fill="#D09B37" d="M44.531,30.846c-1.986-2.936-9.974-5.133-19.527-5.133c-9.555,0-17.54,2.197-19.529,5.133
		c-4.691,0.477-5.683,1.315-5.411,3.469c0.213,1.67,4.655,4.602,7.001,6.042C9.403,45.032,14.386,50,25.004,50
		s15.6-4.968,17.939-9.644c2.349-1.44,6.788-4.372,6.999-6.042C50.216,32.161,49.226,31.322,44.531,30.846z M41.959,33.752
		c0,2.636-7.765,4.863-16.955,4.863c-9.189,0-16.955-2.228-16.955-4.863c0-2.637,7.765-4.863,16.955-4.863
		C34.194,28.889,41.959,31.115,41.959,33.752z M15.383,41.138c-2.322-0.443-3.26-0.549-5.305-1.591c0,0-0.351-0.562-0.475-1.21
		c0,0,5.329,2.653,10.325,2.869C19.928,41.206,17.704,41.579,15.383,41.138z"/>
</g>
</svg>
