<?xml version="1.0" encoding="utf-8"?>
<!-- Generator: Adobe Illustrator 16.0.0, SVG Export Plug-In . SVG Version: 6.00 Build 0)  -->
<!DOCTYPE svg PUBLIC "-//W3C//DTD SVG 1.1//EN" "http://www.w3.org/Graphics/SVG/1.1/DTD/svg11.dtd">
<svg version="1.1" id="芞脯_1" xmlns="http://www.w3.org/2000/svg" xmlns:xlink="http://www.w3.org/1999/xlink" x="0px" y="0px"
	 width="50px" height="50px" viewBox="0 0 50 50" enable-background="new 0 0 50 50" xml:space="preserve">
<g>
	<path fill="#C69535" d="M12.808,33.639c0,0.147,0,0.174,0,0.176c0,1.729,3.639,2.653,6.667,3.129
		c1.169,0.218,2.441,0.361,3.783,0.433c0.145,0.008,0.228,0.017,0.228,0.017s-0.008-0.006-0.008-0.007
		c0.501,0.023,1.008,0.039,1.527,0.039c11.249,0,13.524-3.903,10.647-4.854c1.424,2.431-5.418,3.582-10.647,3.582
		c-2.395,0-4.643-0.2-6.615-0.549c-0.289-0.065-0.58-0.131-0.882-0.188c-1.121-0.209-3.518-0.747-3.417-1.662
		c0.441-4.063,17.548-3.218,17.548-1.15c0,1.123-6.305,0.854-8.958,0.636c-3.499-0.294-2.391,0.524-2.391,0.524
		c1.114,1.278,8.84,1.592,12.232-0.01c2.221-1.046,2.028-2.73-3.651-3.434C23.836,29.705,12.808,30.555,12.808,33.639z"/>
	<path fill="#C69535" d="M44.531,30.846c-1.986-2.936-9.975-5.133-19.527-5.133c-9.555,0-17.54,2.197-19.529,5.133
		c-4.691,0.479-5.683,1.315-5.411,3.469c0.213,1.67,4.655,4.604,7.001,6.043C9.403,45.032,14.386,50,25.004,50
		c10.618,0,15.6-4.968,17.939-9.645c2.349-1.439,6.787-4.371,6.998-6.041C50.216,32.161,49.227,31.322,44.531,30.846z
		 M41.959,33.752c0,2.637-7.766,4.863-16.955,4.863c-9.189,0-16.955-2.229-16.955-4.863c0-2.637,7.765-4.863,16.955-4.863
		C34.193,28.889,41.959,31.115,41.959,33.752z M15.383,41.139c-2.322-0.443-3.26-0.55-5.305-1.592c0,0-0.351-0.563-0.475-1.21
		c0,0,5.329,2.653,10.325,2.869C19.928,41.206,17.704,41.579,15.383,41.139z"/>
</g>
</svg>
