<?xml version="1.0" encoding="utf-8"?>
<!-- Generator: Adobe Illustrator 16.0.0, SVG Export Plug-In . SVG Version: 6.00 Build 0)  -->
<!DOCTYPE svg PUBLIC "-//W3C//DTD SVG 1.1//EN" "http://www.w3.org/Graphics/SVG/1.1/DTD/svg11.dtd">
<svg version="1.1" id="Italian_Food__x26__Resto" xmlns="http://www.w3.org/2000/svg" xmlns:xlink="http://www.w3.org/1999/xlink"
	 x="0px" y="0px" width="49.89px" height="50px" viewBox="0 0 49.89 50" enable-background="new 0 0 49.89 50" xml:space="preserve"
	>
<g>
	<path fill="#C69535" d="M3.121,45.339C3.511,47.972,5.786,50,8.527,50h36.05c2.738,0,5.013-2.028,5.402-4.661H3.121z"/>
	<path fill="#C69535" d="M47.306,35.592c-0.679-9.223-7.86-15.094-16.652-15.094c-7.231,0-14.656,4.664-16.351,12.035
		c4.23-0.809,7.996,0.533,10.425,3.752c0.263,0.347,0.194,0.84-0.153,1.102c-0.143,0.109-0.31,0.16-0.474,0.16
		c-0.239,0-0.475-0.108-0.631-0.313c-2.276-2.985-6.011-3.958-9.52-3.005c-3.524,0.959-6.249,4.578-6.249,8.388
		c0,0.38,0.039,0.749,0.097,1.117h37.929C46.943,41.541,47.546,38.853,47.306,35.592z M30.875,26.013
		c-0.553-0.003-0.997-0.497-0.992-1.107c0-0.607,0.447-1.101,0.994-1.101c6.196,0.016,10.406,3.054,12.785,9.221
		C40.102,27.645,36.314,26.027,30.875,26.013z"/>
	<g>
		<path fill="#C69535" d="M8.338,36.31c-0.19,0-0.379-0.073-0.523-0.221l-3.206-3.296c-0.328,0.121-0.687,0.185-1.061,0.186
			c-0.932,0-1.847-0.396-2.52-1.086c-0.635-0.652-1-1.49-1.027-2.363c-0.028-0.87,0.285-1.668,0.878-2.243
			c0.48-0.469,1.135-0.756,1.844-0.806c0.07-0.708,0.374-1.355,0.857-1.825c0.54-0.528,1.275-0.821,2.066-0.822
			c0.936,0,1.855,0.4,2.53,1.099c0.968,0.992,1.284,2.407,0.803,3.604l3.531,3.626c0.28,0.289,0.274,0.75-0.014,1.031
			c-0.29,0.283-0.75,0.273-1.031-0.014l-3.861-3.966c-0.202-0.207-0.262-0.513-0.154-0.78l0.176-0.439
			c0.266-0.662,0.072-1.465-0.496-2.047c-0.404-0.418-0.941-0.656-1.477-0.656c-0.415,0.001-0.786,0.146-1.055,0.408
			c-0.238,0.232-0.388,0.559-0.425,0.923l-0.058,0.61c-0.034,0.355-0.319,0.633-0.674,0.658l-0.617,0.043
			c-0.363,0.026-0.693,0.168-0.928,0.396c-0.297,0.289-0.453,0.697-0.438,1.154c0.017,0.506,0.233,1,0.615,1.393
			c0.399,0.408,0.933,0.644,1.464,0.644c0.22-0.033,0.393-0.032,0.564-0.096l0.446-0.165c0.269-0.102,0.573-0.032,0.776,0.176
			l3.538,3.638c0.279,0.289,0.273,0.75-0.015,1.031C8.704,36.242,8.521,36.31,8.338,36.31z"/>
	</g>
</g>
</svg>
