<?xml version="1.0" encoding="utf-8"?>
<!-- Generator: Adobe Illustrator 16.0.0, SVG Export Plug-In . SVG Version: 6.00 Build 0)  -->
<!DOCTYPE svg PUBLIC "-//W3C//DTD SVG 1.1//EN" "http://www.w3.org/Graphics/SVG/1.1/DTD/svg11.dtd">
<svg version="1.1" id="Italian_Food__x26__Resto" xmlns="http://www.w3.org/2000/svg" xmlns:xlink="http://www.w3.org/1999/xlink"
	 x="0px" y="0px" width="49.891px" height="50px" viewBox="0 0 49.891 50" enable-background="new 0 0 49.891 50"
	 xml:space="preserve">
<g>
	<path fill="#C69535" d="M47.306,35.592c-0.68-9.223-7.86-15.094-16.652-15.094c-7.23,0-14.655,4.664-16.351,12.035
		c4.229-0.809,7.995,0.533,10.425,3.752c0.264,0.347,0.193,0.84-0.152,1.102c-0.144,0.109-0.311,0.16-0.475,0.16
		c-0.239,0-0.476-0.107-0.631-0.313c-2.276-2.985-6.012-3.959-9.521-3.006C10.425,35.188,7.7,38.807,7.7,42.617
		c0,0.38,0.038,0.749,0.097,1.117h37.93C46.943,41.541,47.546,38.854,47.306,35.592z M30.875,26.014
		c-0.554-0.004-0.997-0.498-0.992-1.106c0-0.607,0.447-1.101,0.994-1.101c6.196,0.016,10.406,3.053,12.785,9.219
		C40.102,27.645,36.314,26.027,30.875,26.014z"/>
	<g>
		<path fill="#C69535" d="M8.338,36.311c-0.189,0-0.379-0.074-0.522-0.222L4.61,32.793c-0.327,0.121-0.688,0.186-1.062,0.186
			c-0.932,0-1.847-0.396-2.521-1.086c-0.635-0.65-1-1.49-1.026-2.363c-0.027-0.868,0.285-1.668,0.878-2.241
			c0.479-0.47,1.136-0.756,1.845-0.808c0.069-0.707,0.374-1.354,0.856-1.823c0.54-0.528,1.274-0.821,2.065-0.822
			c0.937,0,1.854,0.4,2.529,1.099c0.969,0.992,1.284,2.407,0.804,3.604l3.53,3.626c0.28,0.289,0.274,0.75-0.014,1.029
			c-0.29,0.283-0.75,0.273-1.031-0.014l-3.86-3.966c-0.202-0.207-0.263-0.513-0.153-0.78l0.176-0.438
			c0.267-0.662,0.072-1.467-0.496-2.047c-0.403-0.42-0.94-0.656-1.478-0.656c-0.415,0.001-0.785,0.146-1.055,0.408
			c-0.238,0.23-0.389,0.559-0.426,0.923l-0.059,0.608c-0.033,0.355-0.318,0.635-0.674,0.658l-0.616,0.043
			C2.46,27.96,2.13,28.102,1.895,28.33c-0.297,0.289-0.453,0.697-0.438,1.154c0.018,0.506,0.232,1,0.614,1.393
			c0.399,0.408,0.934,0.645,1.465,0.645c0.22-0.033,0.394-0.033,0.563-0.097l0.445-0.165c0.27-0.102,0.573-0.031,0.775,0.176
			l3.538,3.64c0.279,0.288,0.272,0.75-0.015,1.03C8.704,36.242,8.521,36.311,8.338,36.311z"/>
	</g>
</g>
</svg>
