<?xml version="1.0" encoding="utf-8"?>
<!-- Generator: Adobe Illustrator 16.0.0, SVG Export Plug-In . SVG Version: 6.00 Build 0)  -->
<!DOCTYPE svg PUBLIC "-//W3C//DTD SVG 1.1//EN" "http://www.w3.org/Graphics/SVG/1.1/DTD/svg11.dtd">
<svg version="1.1" id="icons" xmlns="http://www.w3.org/2000/svg" xmlns:xlink="http://www.w3.org/1999/xlink" x="0px" y="0px"
	 width="40px" height="40px" viewBox="0 0 40 40" enable-background="new 0 0 40 40" xml:space="preserve">
<path fill="#184965" d="M32.259,7.229c0-2.053-1.637-2.409-3.327-1.771c-1.242,0.47-2.319,1.226-3.313,2.23
	c0.029-0.151,0.048-0.305,0.048-0.469c0-1.612-1.251-2.929-2.834-3.039c0.141-0.349,0.215-0.728,0.215-1.127
	c0-1.684-1.364-3.05-3.048-3.05c-1.685,0-3.05,1.366-3.05,3.05c0,0.399,0.079,0.778,0.216,1.127c-1.582,0.11-2.83,1.427-2.83,3.039
	c0,0.16,0.013,0.31,0.032,0.456c-0.988-0.998-2.063-1.749-3.301-2.217C9.378,4.82,7.742,5.176,7.742,7.229
	c0,2.052,2.578,2.13,2.578,2.13s-2.326,1.475-0.382,3.387c1.867,1.833,5.284-0.772,7.319,3.378
	c-0.076,0.006-0.151,0.013-0.224,0.019c-0.072,0.006-0.146,0.013-0.216,0.018c-0.099,0.013-0.197,0.021-0.294,0.031
	c-0.06,0.007-0.119,0.016-0.177,0.023c-0.108,0.012-0.215,0.028-0.322,0.041c-0.028,0.006-0.055,0.009-0.083,0.013
	c-0.433,0.062-0.855,0.14-1.264,0.234c-0.002,0-0.002,0-0.006,0.003c-0.125,0.028-0.251,0.06-0.373,0.094
	c-0.023,0.003-0.045,0.009-0.068,0.016c-0.119,0.031-0.235,0.066-0.349,0.103c-0.027,0.007-0.052,0.013-0.078,0.023
	c-0.117,0.035-0.229,0.075-0.341,0.113c-0.023,0.009-0.046,0.016-0.07,0.024c-0.115,0.041-0.229,0.085-0.34,0.133
	c-0.016,0.005-0.033,0.012-0.048,0.018c-0.119,0.05-0.234,0.101-0.349,0.155c-0.003,0-0.004,0-0.006,0.001
	c-1.988,0.927-3.409,2.554-3.882,5.345l0,0l0,0c-0.114,0.669-0.177,1.4-0.177,2.208c0,4.527,4.613,8.248,10.271,8.67
	c-0.035,0.066-0.07,0.14-0.109,0.221c-0.088,0.18-0.185,0.39-0.285,0.644c-0.094,0.261-0.211,0.555-0.237,1.009
	c-0.009,0.222,0.025,0.504,0.149,0.772c0.121,0.269,0.327,0.483,0.521,0.613c0.194,0.136,0.385,0.215,0.557,0.266
	c0.087,0.025,0.172,0.047,0.254,0.06l0.061,0.012h0.005c-0.068-0.019-0.018-0.003-0.032-0.009l0.005,0.002l0.012,0.004l0.024,0.003
	l0.094,0.025c0.135,0.021,0.232,0.073,0.289,0.116c0.057,0.047,0.11,0.146,0.119,0.302c0.013,0.151-0.02,0.335-0.064,0.512
	c-0.047,0.179-0.115,0.352-0.187,0.505c-0.144,0.311-0.316,0.554-0.432,0.69c-0.057,0.066-0.104,0.114-0.121,0.126
	c-0.02,0.019-0.011,0.019-0.014,0.019c-0.186,0.06-0.292,0.258-0.232,0.446c0.057,0.186,0.254,0.292,0.443,0.232
	c-0.007,0,0.069-0.016,0.153-0.056c0.091-0.041,0.185-0.103,0.298-0.186c0.221-0.165,0.473-0.418,0.734-0.768
	c0.128-0.176,0.257-0.376,0.374-0.608c0.114-0.235,0.217-0.506,0.259-0.839c0.046-0.32,0.011-0.743-0.217-1.122
	c-0.112-0.187-0.266-0.343-0.425-0.473c-0.082-0.059-0.161-0.116-0.251-0.166l-0.146-0.072l-0.072-0.034l-0.046-0.021l-0.09-0.038
	l-0.021-0.009l-0.01-0.003l-0.008-0.004c-0.015-0.004,0.033,0.01-0.035-0.014h-0.002l-0.031-0.016
	c-0.042-0.021-0.079-0.043-0.112-0.065c-0.064-0.041-0.104-0.084-0.109-0.107c-0.003-0.023,0.035-0.012,0.065,0.026
	c0.03,0.034,0.041,0.065,0.055,0.048c0.025-0.029,0.096-0.174,0.193-0.311c0.096-0.143,0.211-0.294,0.319-0.45
	c0.111-0.154,0.213-0.314,0.304-0.473c0.092-0.165,0.169-0.331,0.229-0.504c0.037-0.107,0.063-0.217,0.083-0.318
	c5.49-0.473,9.955-4.046,10.108-8.425l0,0c0.002-0.08,0.006-0.155,0.006-0.232c0-6.192-3.709-8.139-8.555-8.593
	c2.035-4.186,5.459-1.564,7.329-3.401c1.945-1.912-0.381-3.387-0.381-3.387S32.259,9.281,32.259,7.229z M19.306,16.034
	c-0.035,0-0.066,0-0.099,0c-0.115,0.002-0.229,0.006-0.344,0.009c-0.078,0-0.154,0.003-0.229,0.006
	c-0.082,0.003-0.162,0.003-0.241,0.006c-0.363-1.297-1.101-3.582-1.914-5.344C17.728,11.873,19.095,13.245,19.306,16.034z
	 M19.94,31.39c-5.033,0-9.286-3.045-9.286-6.649c0-0.387,0.016-0.744,0.046-1.078c1.225,0.863,1.333,1.309,3.208,1.309
	c2.143,0,2.143-1.835,4.287-1.835c2.143,0,2.143,1.835,4.287,1.835c2.145,0,2.145-1.835,4.288-1.835
	c1.035,0,1.767,0.662,2.448,1.218c0.004,0.126,0.006,0.255,0.006,0.387C29.225,28.345,24.973,31.39,19.94,31.39z M20.694,16.036
	c0.297-3.111,1.787-4.612,3.061-5.811c-0.905,1.805-1.753,4.423-2.147,5.842C21.307,16.052,20.999,16.043,20.694,16.036z"/>
</svg>
