<?xml version="1.0" encoding="utf-8"?>
<!-- Generator: Adobe Illustrator 16.0.0, SVG Export Plug-In . SVG Version: 6.00 Build 0)  -->
<!DOCTYPE svg PUBLIC "-//W3C//DTD SVG 1.1//EN" "http://www.w3.org/Graphics/SVG/1.1/DTD/svg11.dtd">
<svg version="1.1" id="icons" xmlns="http://www.w3.org/2000/svg" xmlns:xlink="http://www.w3.org/1999/xlink" x="0px" y="0px"
	 width="35px" height="35px" viewBox="0 0 35 35" enable-background="new 0 0 35 35" xml:space="preserve">
<path fill="#FFFFFF" d="M28.21,6.343c0-1.793-1.431-2.104-2.907-1.547c-1.085,0.411-2.026,1.071-2.894,1.949
	c0.025-0.132,0.042-0.266,0.042-0.409c0-1.409-1.093-2.559-2.476-2.656c0.122-0.305,0.188-0.635,0.188-0.984
	c0-1.471-1.192-2.665-2.664-2.665c-1.472,0-2.665,1.194-2.665,2.665c0,0.349,0.069,0.679,0.189,0.984
	c-1.382,0.097-2.472,1.247-2.472,2.656c0,0.14,0.011,0.271,0.028,0.398c-0.863-0.872-1.802-1.528-2.884-1.938
	C8.221,4.238,6.791,4.549,6.791,6.343c0,1.792,2.252,1.86,2.252,1.86s-2.033,1.289-0.334,2.959c1.631,1.602,4.616-0.675,6.395,2.952
	c-0.066,0.005-0.132,0.011-0.196,0.017c-0.063,0.006-0.127,0.011-0.188,0.016c-0.086,0.012-0.172,0.019-0.257,0.027
	c-0.052,0.006-0.104,0.014-0.155,0.02c-0.094,0.011-0.188,0.024-0.282,0.036c-0.023,0.005-0.047,0.008-0.072,0.012
	c-0.379,0.054-0.747,0.122-1.105,0.205c-0.001,0-0.002,0-0.005,0.003c-0.109,0.024-0.219,0.053-0.326,0.083
	c-0.02,0.003-0.039,0.008-0.059,0.013c-0.104,0.027-0.206,0.059-0.305,0.09c-0.023,0.006-0.045,0.011-0.067,0.02
	c-0.102,0.031-0.2,0.065-0.298,0.099c-0.02,0.008-0.041,0.014-0.061,0.021c-0.1,0.036-0.2,0.075-0.297,0.117
	c-0.014,0.004-0.029,0.01-0.042,0.016c-0.104,0.043-0.205,0.088-0.305,0.135c-0.002,0-0.003,0-0.005,0.001
	c-1.737,0.81-2.978,2.231-3.392,4.67l0,0l0,0c-0.099,0.584-0.154,1.223-0.154,1.929c0,3.955,4.03,7.205,8.973,7.574
	c-0.03,0.058-0.062,0.122-0.096,0.192c-0.077,0.157-0.161,0.341-0.249,0.563c-0.082,0.228-0.185,0.484-0.207,0.882
	c-0.009,0.193,0.021,0.439,0.13,0.675c0.106,0.234,0.285,0.422,0.455,0.535c0.17,0.118,0.336,0.188,0.487,0.232
	c0.076,0.022,0.15,0.04,0.222,0.053l0.053,0.01h0.005c-0.06-0.016-0.016-0.003-0.028-0.008l0.005,0.002l0.01,0.003l0.021,0.003
	l0.083,0.021c0.118,0.02,0.203,0.063,0.252,0.102c0.05,0.041,0.096,0.128,0.104,0.264c0.011,0.133-0.018,0.293-0.056,0.447
	c-0.041,0.156-0.1,0.308-0.164,0.441c-0.126,0.271-0.276,0.484-0.377,0.604c-0.049,0.058-0.091,0.1-0.105,0.109
	c-0.018,0.016-0.01,0.016-0.013,0.016c-0.163,0.053-0.255,0.227-0.203,0.391c0.05,0.162,0.222,0.256,0.387,0.203
	c-0.006,0,0.061-0.014,0.134-0.049c0.08-0.036,0.162-0.09,0.261-0.162c0.193-0.144,0.413-0.364,0.641-0.67
	c0.111-0.154,0.225-0.328,0.327-0.531c0.1-0.206,0.188-0.442,0.226-0.734c0.04-0.279,0.009-0.648-0.189-0.979
	c-0.098-0.163-0.232-0.3-0.371-0.413c-0.071-0.051-0.141-0.102-0.22-0.145l-0.127-0.063l-0.063-0.03l-0.04-0.019l-0.079-0.033
	l-0.019-0.008l-0.009-0.002l-0.006-0.004c-0.013-0.003,0.029,0.009-0.031-0.012h-0.002l-0.027-0.014
	c-0.038-0.019-0.069-0.037-0.099-0.058c-0.056-0.035-0.091-0.073-0.095-0.094c-0.003-0.021,0.031-0.01,0.058,0.023
	c0.026,0.029,0.035,0.057,0.048,0.042c0.022-0.026,0.084-0.152,0.169-0.272c0.083-0.124,0.185-0.256,0.279-0.393
	c0.098-0.135,0.186-0.274,0.265-0.413c0.081-0.145,0.148-0.289,0.2-0.44c0.032-0.093,0.055-0.188,0.073-0.278
	c4.796-0.412,8.696-3.534,8.831-7.359l0,0c0.002-0.07,0.005-0.136,0.005-0.203c0-5.411-3.241-7.11-7.474-7.507
	c1.777-3.657,4.77-1.367,6.402-2.972c1.7-1.67-0.332-2.959-0.332-2.959S28.21,8.135,28.21,6.343z M16.894,14.035
	c-0.031,0-0.058,0-0.086,0c-0.1,0.002-0.2,0.005-0.3,0.008c-0.068,0-0.134,0.002-0.2,0.005c-0.072,0.002-0.141,0.002-0.211,0.005
	c-0.317-1.133-0.962-3.129-1.671-4.668C15.515,10.4,16.71,11.598,16.894,14.035z M17.448,27.45c-4.397,0-8.112-2.66-8.112-5.809
	c0-0.338,0.013-0.65,0.04-0.941c1.07,0.753,1.165,1.143,2.803,1.143c1.872,0,1.872-1.603,3.746-1.603
	c1.872,0,1.872,1.603,3.745,1.603c1.874,0,1.874-1.603,3.746-1.603c0.904,0,1.543,0.578,2.139,1.063
	c0.004,0.109,0.006,0.222,0.006,0.338C25.56,24.79,21.845,27.45,17.448,27.45z M18.106,14.037c0.26-2.718,1.561-4.029,2.674-5.076
	c-0.79,1.576-1.531,3.864-1.876,5.104C18.642,14.051,18.373,14.043,18.106,14.037z"/>
</svg>
