<?xml version="1.0" standalone="no"?>
<!DOCTYPE svg PUBLIC "-//W3C//DTD SVG 1.1//EN" "http://www.w3.org/Graphics/SVG/1.1/DTD/svg11.dtd" >
<svg xmlns="http://www.w3.org/2000/svg">
<metadata>Generated by IcoMoon</metadata>
<defs>
<font id="icomoon" horiz-adv-x="1024">
<font-face units-per-em="1024" ascent="960" descent="-64" />
<missing-glyph horiz-adv-x="1024" />
<glyph unicode="&#x20;" horiz-adv-x="512" d="" />
<glyph unicode="&#xe900;" glyph-name="email" horiz-adv-x="1433" d="M716.252 184.234l-716.252 580.558v-828.792h1432.546v828.792l-716.294-580.558zM11.923 960l704.361-584.842 704.286 584.842h-1408.647z" />
<glyph unicode="&#xe901;" glyph-name="facebook" horiz-adv-x="478" d="M272.449-64v512.574h169.114l26.805 169.975h-195.919v85.167c0 44.51 14.483 86.698 77.974 86.698h127.42v169.585h-180.567c-151.84 0-193.159-100.24-193.159-238.594v-102.856h-104.116v-169.975h104.116v-512.574h168.333z" />
<glyph unicode="&#xe902;" glyph-name="instagram" horiz-adv-x="1015" d="M888.25 960h-761.922c-69.675 0-126.328-56.662-126.328-126.328v-771.354c0-69.638 56.653-126.319 126.328-126.319h761.922c69.657 0 126.328 56.681 126.328 126.319v771.354c0 69.666-56.671 126.328-126.328 126.328zM894.902 62.319c0-3.666-2.985-6.651-6.651-6.651h-761.922c-3.657 0-6.651 2.985-6.651 6.651v771.354c0 3.666 2.994 6.642 6.651 6.642h761.922c3.666 0 6.651-2.976 6.651-6.642v-771.354zM681.892 750.648h137.074v-125.749h-137.074v125.749zM642.442 397.336c0-74.647-60.533-135.125-135.181-135.125-74.591 0-135.134 60.477-135.134 135.125 0 74.629 60.543 135.125 135.134 135.125 74.647 0 135.181-60.496 135.181-135.125zM722.845 397.943c0-119.042-96.504-215.565-215.528-215.565-119.089 0-215.584 96.532-215.584 215.565l0.299 96.038h-96.43v-357.462h623.365v357.462h-95.627l-0.494-96.038z" />
<glyph unicode="&#xe903;" glyph-name="twitter" horiz-adv-x="1194" d="M1072.651 668.517c0 11.316-0.481 22.15-0.972 33.526 48.24 35.391 89.574 80.253 122.569 131.429-43.81-19.685-91.077-33.045-140.79-38.447 50.715 31.001 89.584 80.784 107.795 140.279-47.248-28.475-99.917-49.162-155.534-59.495-44.802 50.645-108.316 83.189-178.677 84.172-135.308 1.914-245.088-112.285-245.088-255.531 0-20.186 1.844-39.871 6.274-59.004-203.794 13.23-384.304 119.051-504.909 278.965-21.178-38.267-33.546-83.119-33.546-130.858 0-91.017 43.319-171.801 109.289-219.048-40.362 2.025-78.268 13.831-111.313 34.017v-3.508c0-126.929 84.663-232.79 196.958-258.007-20.677-5.773-42.336-8.85-64.487-8.85-16.307 0.501-31.502 2.095-46.275 5.412 31.021-104.347 121.597-180.17 228.841-182.626-84.182-69.398-189.391-111.253-304.212-110.752-19.635 0-39.319 1.463-58.573 3.939 108.357-74.82 237.25-118.129 375.645-118.129 450.415 0 697.006 392.313 697.006 732.517z" />
<glyph unicode="&#xe904;" glyph-name="youtube" d="M347.43 960l-40.62-158.003h-4.079l-42.594 158.003h-66.242l84.049-262.009v-110.236h48.258v117.503l88.044 254.742h-66.816zM557.63 787.815c0 22.303-7.24 44.18-19.995 56.99-14.776 14.757-22.136 23.323-46.302 23.323-26.576 0-33.955-10.076-49.686-23.323-15.768-13.497-22.692-32.694-22.692-55.201v-122.231c0-24.871 7.749-44.56 22.989-59.382 15.304-14.489 22.683-21.756 48.11-21.756 26.447 0 29.83 7.119 45.144 21.135 14.989 14.118 22.442 33.742 22.442 58.752v121.693zM743.822 867.887h-46.692v-186.516c-5.497-6.415-29.895-39.433-34.242-39.433-5.395 0-6.442 1.502-8.936 4.626-2.456 3.078-3.699 8-3.699 14.915v206.409h-46.738v-226.45c0-17.575 1.483-43.132 10.864-52.624 6.378-6.452 26.502-7.61 44.819 6.378 14.071 10.697 25.631 25.612 37.941 47.943v-49.63h46.692v274.384zM1024.009 304.379c0 105.638-83.622 191.244-186.998 191.244h-649.948c-103.293 0.009-187.063-85.606-187.063-191.244v-177.191c0-105.453 83.771-191.188 187.063-191.188h649.948c103.367 0 186.998 85.736 186.998 191.188v177.191zM766.32 29.68c-21.385 0-38.015 6.693-50.251 20.338-12.18 13.126-18.373 31.665-18.373 55.22v109.995c0 21.061 6.813 60.003 20.199 73.129 13.552 13.571 30.636 20.078 51.79 20.078 21.821 0 38.516-6.081 49.964-18.326 11.865-12.607 17.603-51.818 17.603-74.881v-46.423h-90.751v-61.922c0-13.015 1.687-21.83 4.82-26.882 3.198-4.941 8.315-7.499 16.129-7.499 7.759 0 13.126 2.095 16.25 6.359 3.059 4.273 4.802 13.33 4.802 28.022v11.050h48.759v-12.681c0-25.14-5.738-43.939-17.761-56.638-12.014-12.505-29.747-18.938-53.18-18.938zM788.512 206.89v8.602c0 10.373-1.761 39.257-5.006 43.577-3.059 4.44-8.575 6.683-15.814 6.683-7.453 0-12.941-2.243-16.203-6.683-3.235-4.32-4.996-33.204-4.996-43.577v-8.602h42.020zM607.186 29.059c-9.687 0-18.261 2.012-25.696 5.794-7.295 3.652-14.303 9.27-20.792 17.251v-19.541h-49.204v369.427h46.321v-111.673c6.702 7.731 16.695 13.738 23.675 17.816 7.573 4.060 15.017 6.109 22.702 6.109 15.323 0 27.309-5.673 35.327-16.565 8.065-10.883 12.134-26.808 12.134-47.702v-164.742c0-18.122-3.828-31.869-11.346-41.547-7.722-9.576-18.808-14.628-33.121-14.628zM605.759 247.25c0 8.547-6.072 15.063-9.307 19.605-3.764 4.449-8.825 6.442-15.267 6.442-3.615 0-6.934-0.769-10.419-2.438-3.244-1.585-9.492-4.255-12.941-7.675v-182.067c3.875-4.023 10.697-7.193 14.637-9.029 3.662-1.928 7.499-2.874 11.671-2.874 5.942 0 10.382 1.872 13.2 5.59 2.679 3.421 8.426 9.307 8.426 17.501v154.944zM416.452 63.144c-9.010-10.011-18.326-20.968-28.134-26.261-9.631-5.608-19.068-8.083-28.319-8.083-11.235 0-19.745 3.708-25.436 11.318-5.738 7.62-10.002 18.818-10.002 33.918v233.773h47.192v-216.485c0-5.933 1.085-10.187 3.068-12.941 2.132-2.558 5.432-3.986 10.002-3.986 3.495 0 10.994 1.733 16.5 5.423 5.488 3.439 13.441 8.065 17.993 13.33v214.659h45.932v-278.25h-48.796v33.584zM279.195 29.81h-46.868v325.692h-45.755v46.488h139.871v-46.488h-47.248v-325.692zM488.515 636.746c-7.749 0-13.766 2.178-17.761 6.563-4.255 4.301-6.303 10.493-6.303 18.577v129.795c0 6.452 2.308 11.559 6.683 15.462 4.44 3.977 10.197 5.988 17.381 5.988 7.675 0 10.994-2.012 15.805-5.988 4.681-3.903 7.175-9.010 7.175-15.462v-129.795c0-7.935-2.438-14.016-6.98-18.577-4.885-4.385-8.074-6.563-16-6.563z" />
<glyph unicode="&#xe905;" glyph-name="search" d="M1014.88 33.504c12.192-12.192 12.192-31.968 0-44.192l-44.192-44.192c-12.224-12.192-32-12.192-44.192 0l-309.376 309.376c-3.36 3.36-5.6 7.328-7.104 11.552-63.456-46.368-141.376-74.048-226.016-74.048-212.064 0-384 171.936-384 384s171.936 384 384 384c212.064 0 384-171.936 384-384 0-84.64-27.68-162.56-74.048-226.016 4.224-1.504 8.192-3.712 11.552-7.104l309.376-309.376zM384 832c-141.376 0-256-114.624-256-256s114.624-256 256-256 256 114.624 256 256c0 141.376-114.624 256-256 256z" />
<glyph unicode="&#xe906;" glyph-name="cart" horiz-adv-x="1160" d="M1014.594 124.065h-713.681c-26.785 0-50.904 13.778-64.522 36.844-13.619 23.061-14.019 50.837-1.079 74.293l24.216 43.881-108.173 606.176-130.273 23.78c-13.958 2.548-23.204 15.925-20.662 29.883 2.548 13.952 15.935 23.204 29.883 20.656l165.359-30.186 117.63-659.202-33.001-59.812c-5.867-10.629-1.716-19.87 0.339-23.353 2.050-3.493 8.147-11.589 20.281-11.589h713.681c14.189 0 25.686-11.492 25.686-25.686 0-14.184-11.497-25.686-25.686-25.686zM371.445 270.967c-19.552 0-36.253 13.983-39.705 33.242l-75.269 420.248c-2.111 11.79 1.089 23.821 8.779 33.011 7.685 9.185 18.961 14.456 30.946 14.456h823.683c11.98 0 23.256-5.271 30.946-14.456 7.685-9.19 10.886-21.221 8.774-33.011l-65.308-364.629c-3.226-18.011-18.211-31.619-36.438-33.109l-683.11-55.62c-1.094-0.082-2.204-0.134-3.298-0.134zM309.363 720.558l71.18-397.439 664.678 54.115 61.497 343.325h-797.355zM465.75 748.527l39.531-441.397-51.166-4.582-39.531 441.397 51.166 4.582zM646.629 747.052l12.851-417.045-51.346-1.582-12.851 417.045 51.346 1.582zM776.058 747.009l51.351-1.593-12.553-404.722-51.351 1.593 12.553 404.722zM957.002 748.575l51.171-4.588-35.482-395.747-51.171 4.588 35.482 395.747zM305.48 627.458h817.657v-46.234h-817.657v46.234zM1087.725 506.74l2.575-46.16-751.801-41.942-2.575 46.16 751.801 41.942zM382.917-63.995c-46.486 0-84.305 37.814-84.305 84.305 0 46.486 37.82 84.295 84.305 84.295s84.3-37.809 84.3-84.295c0-46.491-37.814-84.305-84.3-84.305zM382.917 58.372c-20.995 0-38.071-17.071-38.071-38.061 0-21.001 17.076-38.071 38.071-38.071 20.99 0 38.066 17.071 38.066 38.071 0 20.99-17.076 38.061-38.066 38.061zM935.472-63.995c-46.486 0-84.305 37.814-84.305 84.305 0 46.486 37.82 84.295 84.305 84.295s84.3-37.809 84.3-84.295c0-46.491-37.82-84.305-84.3-84.305zM935.472 58.372c-20.995 0-38.071-17.071-38.071-38.061 0-21.001 17.076-38.071 38.071-38.071 20.99 0 38.066 17.071 38.066 38.071 0 20.99-17.076 38.061-38.066 38.061z" />
<glyph unicode="&#xe907;" glyph-name="earth" d="M360.307 521.432c0.931-11.473-14.102-13.8-22.154-14.382-14.87-1.070-15.708 1.396-18.757 13.381h-1.257c6.795 5.445 33.883 4.305 42.167 1.001zM478.269 143.928c-0.326-0.163-0.675-0.419-1.024-0.652 0-0.070 0.093-0.256 0-0.419 0.093 0.093 0.791 1.001 1.024 1.070zM1023.93 447.965c0-282.628-229.267-511.965-511.965-511.965-282.768 0-511.965 229.337-511.965 511.965 0 282.721 229.197 512.035 511.965 512.035 282.698 0 511.965-229.314 511.965-512.035zM704.534 495.345c5.236 28.973 35.931 49.73 50.894 73.863 8.378 13.474 13.171 17.849 28.624 19.269 17.686 1.582 30.043 7.214 45.635 15.522 13.288 7.074 21.084 10.449 31.532-1.815 14.8-17.523 22.689-18.594 44.937-12.124 0.814 0.256 1.466 0.419 2.234 0.582-4.142 11.612-8.703 22.992-13.87 34.115-8.796 3.91-16.685 8.727-24.481 16.36-10.891 10.775-32.975 16.080-46.054 5.050-10.309-8.541-1.094-21.503-16.616-29.042-16.592-8.145-68.883-5.818-39.677 20.502 8.564 7.796 30.555 6.074 35.768 14.358 7.307 11.682-9.541 13.102-12.52 21.247-2.327 6.632 5.562 12.776 3.886 18.407-4.701 17.197-30.392-7.633-40.748 5.166-9.448 11.705 6.004 31.719 16.011 37.35 10.356 5.818 24.9 4.142 34.115 11.031 1.326 0.908 1.838 2.583 2.816 3.91-24.481 23.899-51.941 44.727-81.635 62.25-13.311-15.359-42.051-19.269-59.946-21.991-13.614-2.071-25.482-4.817-36.745-13.521-9.471-7.423-18.105-22.014-30.485-24.923-32.3-7.54-15.173 36.117-11.542 49.474 7.237 26.739-13.032 32.882-34.767 31.3-11.193-0.838-16.848 0.419-26.296 6.725-8.098 5.376-14.707 13.427-25.226 9.122-7.074-2.909-17.29-17.756-16.523-25.575 1.001-9.96 8.029-8.61 16.267-12.101 12.264-5.143 21.409-14.195 21.409-28.321 0-10.356-7.237-25.366-19.501-25.063-12.124 0.512-17.942 15.778-22.061 24.993-7.074 15.359-11.892 14.591-25.156 24.295-26.11 19.292 16.336 32.231 11.612 52.802-0.768 3.328-2.164 5.818-3.886 7.982-42.191-4.98-82.519-16.011-119.963-32.463 0.070-0.326 0.326-0.675 0.326-1.070 0.163-10.449-12.543-10.123 1.001-17.43 5.236-2.746 13.195 1.582 15.871-6.493 2.979-8.773-6.795-11.938-13.288-12.939-12.031-1.815-30.462-0.093-32.068 14.358-4.445 0.582-12.706 0.652-19.152-1.233-0.489-0.256-1.070-0.605-1.582-1.001 2.025-3.979 4.003-8.052 5.911-11.845 5.376-10.728 7.214-12.054 21.433-12.706 14.335-0.582 31.695-0.838 45.844 1.815 16.22 3.072 43.191 38.49 55.199 10.123 10.146-24.155-21.153-26.483-35.442-31.207-28.391-9.215-16.941-36.606 5.469-43.82 32.137-10.472 42.493 31.602 70.325 36.35 17.523 2.979 33.697-24.83 46.961-34.022 10.053-7.005 22.177-11.31 22.596-24.9 0.256-11.31-8.052-23.434-20.083-22.596-3.002 13.939-27.646 25.086-38.374 13.521 2.42-3.142 4.747-5.050 8.959-5.539 6.074-29.391-37.932-20.921-51.452-27.646-12.194-6.144-16.685-16.36-24.97-25.994-7.819-8.796-17.43-14.847-25.901-22.224 0.908 1.070 2.234 1.559 2.909 2.397-0.070 0.093-2.513-1.326-2.513-1.164 0.256 0.652 1.024 1.164 1.257 1.908-16.173-16.36-22.852-25.133-27.972-46.24-3.886-16.011-13.59-28.042-30.625-26.971 5.306 17.267 1.094 30.462-17.593 36.675-28.879 9.634-79.657-7.679-78.773-44.82 0.326-13.102 12.613-30.625 25.808-32.114 13.288-1.489 41.097 22.34 47.752-0.326 0.559-2.327-17.709-8.238-14.544-16.267 2.327-6.562 18.175-4.724 21.898-12.45 3.747-7.633-0.977-16.499 4.98-24.086 15.522-19.408 39.026 2.025 54.385 8.471 23.062 9.797 46.054-0.745 65.089-14.265 18.245-13.102 37.653-20.828 56.735-32.207 15.778-9.564 25.854-25.808 43.191-33.115 19.757-8.401 54.454-8.145 67.23-28.228 13.288-20.851-21.828-33.929-24.993-53.035-1.652-10.449 5.492-19.757 4.91-29.88-0.745-12.706-10.286-18.151-20.409-23.737-9.983-5.655-23.806-9.704-30.043-20.176-4.817-7.889-2.653-16.918-5.259-25.319-6.539-21.014-31.532-34.092-46.612-48.8 0.163-0.093 0.303-0.349 0.303-0.582-2.467-1.676-4.794-2.909-7.703-4.305 1.815 1.629 3.142 3.607 4.654 5.143-4.422-2.234-9.867-5.655-12.543-10.053-8.634-14.8-0.489-51.569 5.236-66.742 10.216-26.715-9.285-28.298-28.717-15.685-47.659 31.020-50.149 92.037-43.564 143.769 4.142 32.789 12.194 63.74-16.127 86.638-21.409 17.453-58.923 41.842-54.687 73.979 2.327 17.686 30.625 40.748 18.012 57.619-6.074 8.261-19.362 12.706-26.622 20.595-7.261 7.703-12.148 13.777-21.177 19.245-8.075 4.91-15.126 11.124-23.015 15.941-13.265 7.796-29.624 6.632-44.308 8.959-35.186 5.562-36.21 22.41-45.402 51.546-15.778 0.838-14.684-1.001-16.755 13.8-1.745 11.775-5.585 16.755-13.893 23.643-11.845 9.867-23.062 21.409-30.927 34.674-18.85-47.729-29.461-99.507-29.461-154.032 0-232.921 188.822-421.743 421.72-421.743 160.966 0 300.826 90.222 371.85 222.844-14.963 25.249 12.427 46.17 13.032 74.398 0.489 26.296-37.676 30.136-38.77 58.736-1.489 40.864-27.693 39.747-60.249 24.318-35.046-16.616-54.78-3.979-74.537 27.483-11.31 17.919-22.759 39.328-18.78 61.319z" />
<glyph unicode="&#xe908;" glyph-name="goBack" d="M511.993 960c141.386 0 269.488-57.221 362.13-149.876 92.655-92.642 149.876-220.745 149.876-362.117 0-141.386-57.221-269.475-149.876-362.13-92.642-92.655-220.745-149.876-362.13-149.876s-269.462 57.221-362.13 149.876-149.863 220.745-149.863 362.13c0 141.373 57.221 269.475 149.876 362.117 92.655 92.655 220.745 149.876 362.117 149.876zM842.753 778.753c-84.529 84.529-201.576 136.958-330.759 136.958-129.196 0-246.23-52.429-330.746-136.958-84.529-84.529-136.945-201.55-136.945-330.746s52.416-246.217 136.945-330.759c84.529-84.529 201.55-136.958 330.746-136.958 129.183 0 246.217 52.416 330.746 136.958s136.958 201.563 136.958 330.759c0 129.196-52.416 246.217-136.945 330.746zM481 570.184h55.007c113.687 0 206.355-93.033 206.355-206.355 0-64.24-29.535-121.813-76.065-159.825 12.931 21.409 19.951 45.774 19.951 70.869 0 76.039-62.391 138.065-138.065 138.065h-66.819v-121.448l-199.713 199.7 199.7 199.713v-121.083l-0.352 0.365z" />
<glyph unicode="&#xe909;" glyph-name="link" horiz-adv-x="1025" d="M370.977 305.824c-16.018 16.018-29.576 33.471-41.083 51.796l68.531 68.48c25.629 25.706 67.173 25.654 92.802 0.026 49.13-49.13 129.041-49.156 178.146-0.026l148.98 148.98c49.105 49.079 49.028 129.016-0.026 177.967-49.054 49.156-129.092 49.207-178.095 0.154l-49.361-49.361c-68.326 30.652-144.034 38.674-216.512 24.168l145.597 145.444c115.407 115.381 303.215 115.432 418.621 0 115.458-115.432 115.509-303.317 0.026-418.647l-148.955-148.955c-115.381-115.509-303.266-115.509-418.673-0.026zM86.6 440.094l148.904 148.904c107 107.103 276.151 114.715 392.326 23.22 0.513-0.359 1.128-0.769 1.615-1.205 8.534-6.869 16.864-14.096 24.757-22.015 15.967-15.916 29.473-33.394 41.057-51.719l-68.506-68.583c-25.629-25.526-67.301-25.526-92.828 0-49.13 49.156-128.99 49.105-178.12-0.026l-148.929-148.827c-49.13-49.079-49.13-128.964 0-178.12 31.037-31.037 74.195-41.826 114.228-33.497l-0.231 0.333c23.502 4.536 45.952 14.993 64.123 33.138l48.874 48.977c68.096-30.601 143.624-39.084 215.795-24.911 0 0-132.706-132.962-144.418-144.316-11.764-11.354-38.52-31.293-54.026-40.955-113.484-70.095-265.643-58.049-364.621 40.955-115.458 115.407-115.432 303.215 0 418.647z" />
<glyph unicode="&#xe90a;" glyph-name="map" horiz-adv-x="673" d="M336.502 960c-185.791 0-336.502-150.711-336.502-336.502 0-59.867 15.829-116.311 43.359-165.156l293.144-522.342 293.168 522.318c27.53 48.845 43.334 105.289 43.334 165.156 0.024 185.815-150.687 336.527-336.502 336.527zM336.502 420.47c-112.159 0-203.004 90.844-203.004 203.004s90.844 203.004 203.004 203.004 203.004-90.844 203.004-203.004-90.844-203.004-203.004-203.004zM336.502 711.574c-48.869 0-88.077-39.207-88.077-88.077s39.207-88.077 88.077-88.077 88.101 39.207 88.101 88.077c0 48.845-39.231 88.077-88.101 88.077z" />
<glyph unicode="&#xe90b;" glyph-name="discount" horiz-adv-x="1036" d="M1035.905 773.741c0 102.705-83.556 186.259-186.259 186.259-85.176 0-157.131-57.489-179.231-135.684-54.668 22.114-112.511 33.326-172.344 33.326-111.111 0-217.298-39.629-300.984-111.9-19.441 11.465-42.079 18.073-66.238 18.073-72.153 0-130.849-58.697-130.849-130.846 0-10.094 0.035-39.835 48.867-133.087-7.683-33.625-11.613-68.27-11.613-103.058 0-226.411 164.124-415.204 379.651-453.661 0.17-0.111 0.319-0.217 0.497-0.326l0.138 0.222c26.156-4.631 53.065-7.056 80.533-7.056 254.097 0 460.82 206.725 460.82 460.824 0 46.038-6.795 91.474-20.145 135.078 46.001 82.718 97.157 187.028 97.157 241.838zM849.647 915.024c77.899 0 141.282-63.381 141.282-141.283 0-60.203-89.375-219.87-141.282-305.33-51.912 85.457-141.288 245.124-141.288 305.33 0 77.902 63.381 141.283 141.288 141.283zM693.404 396.229c0-51.241-4.123-101.158-12.054-148.239-20.656 3.843-41.76 7.054-63.263 9.578 11.8 28.82 19.706 55.114 19.706 73.843 0 69.67-50.759 127.671-117.228 139.061v58.923c54.806 1.19 109.042 6.692 160.617 16.259 7.94-47 12.222-97.432 12.222-149.424zM559.289-14.505c-12.731-1.888-25.651-3.202-38.725-3.903v92.654h-0.51c13.665 21.871 49.878 81.207 78.576 140.191 25.251-2.578 49.951-6.108 73.962-10.554-5.435-23.654-11.87-46.418-19.343-68.001-23.895-69.006-57.155-122.127-93.959-150.387zM436.040-14.392c-1.207 1.168-2.671 2.529-4.592 4.143-47.72 40.132-85.711 118.169-107.719 214.171 23.099 4.268 46.827 7.717 71.095 10.26 30.493-62.622 69.407-125.573 80.761-143.611v-88.978c-13.358 0.714-26.547 2.062-39.544 4.015zM231.753 716.181c38.073 31.794 81.085 56.235 127.088 72.564-34.308-48.135-61.501-113.667-78.986-189.661-7.502 1.81-14.913 3.728-22.25 5.723 4.075 15.569 4.090 23.748 4.090 28.161-0.001 31.58-11.248 60.581-29.942 83.212zM496.666 122.14c-43.121 71.766-96.153 172.206-96.153 209.271 0 53.015 43.134 96.147 96.155 96.147 53.016 0 96.148-43.133 96.148-96.147-0.001-37.040-53.032-137.49-96.151-209.271zM475.585 574.378c-52.049 1.147-102.882 6.263-151.654 15.305 23.233 100.848 64.040 181.25 114.783 218.757 12.182 1.744 24.483 2.935 36.871 3.6v-237.662zM302.743 396.229c0 51.882 4.371 102.299 12.38 149.35 51.644-9.61 105.436-15.015 160.461-16.177v-58.448c-67.856-10.207-120.048-68.893-120.048-139.544 0-18.804 7.971-45.229 19.846-74.184-20.519-2.463-40.676-5.534-60.409-9.2-7.928 46.836-12.23 96.888-12.23 148.202zM520.564 574.384v237.683c12.844-0.676 25.578-1.954 38.186-3.787l-0.391-0.522c50.816-38.352 91.128-118.051 114.048-217.991-48.7-9.006-99.969-14.21-151.842-15.383zM723.899 600.96c-2.456-0.616-4.916-1.227-7.388-1.822-2.802 12.255-5.848 24.242-9.147 35.922 5.279-11.314 10.826-22.726 16.535-34.1zM668.824 736.503c-9.565 19.079-20.014 36.511-31.23 52.173 8.719-3.116 17.361-6.519 25.907-10.237-0.041-1.565-0.12-3.123-0.12-4.698 0.001-10.697 1.968-23.298 5.443-37.238zM130.851 718.838c47.345 0 85.864-38.52 85.864-85.869 0-18.705-23.695-84.746-85.867-187.581-62.178 102.813-85.87 168.862-85.87 187.581 0 47.349 38.519 85.869 85.873 85.869zM84.132 436.45c15.452-26.415 27.004-44.644 27.735-45.791 4.127-6.502 11.285-10.437 18.984-10.437 7.696 0 14.857 3.938 18.983 10.437 1.123 1.768 27.826 43.907 54.977 94.138 17.381 32.158 29.431 57.477 37.816 77.478 9.353-2.583 18.818-5.047 28.406-7.343-8.608-49.932-13.266-103.387-13.266-158.702 0-54.766 4.537-107.861 13.020-157.538-48.577-11.612-93.961-26.993-135.010-45.784-34.067 60.288-53.545 129.867-53.545 203.916 0 13.253 0.659 26.48 1.902 39.626zM160.234 154.643c36.433 16.206 76.516 29.614 119.35 39.943 17.209-75.415 43.953-140.817 77.93-189.137-79.91 28.789-148.537 81.384-197.28 149.195zM638.736 5.488c22.035 31.338 41.292 70.277 57.014 115.677 8.070 23.311 15.002 47.876 20.836 73.378 42.827-10.332 82.926-23.716 119.326-39.9-48.728-67.782-117.315-120.362-197.176-149.155zM913.916 396.824c0-74.048-19.48-143.623-53.546-203.914-41.008 18.766-86.415 34.131-134.995 45.746 8.563 50.124 13.005 103.196 13.005 157.573 0 55.456-4.564 108.915-13.073 158.776 6.686 1.597 13.331 3.239 19.891 4.976 38.26-71.336 77.23-133.349 85.46-146.312 4.126-6.5 11.288-10.436 18.987-10.436 7.696 0 14.857 3.938 18.984 10.436 4.658 7.334 19.169 30.395 37.815 61.944 4.957-25.84 7.472-52.197 7.472-78.789zM939.599 755.908c0 49.603-40.354 89.955-89.955 89.955s-89.956-40.352-89.956-89.955c0-49.601 40.354-89.954 89.956-89.954s89.955 40.353 89.955 89.954zM849.644 710.932c-24.803 0-44.978 20.178-44.978 44.976 0 24.803 20.175 44.978 44.978 44.978 24.8 0 44.977-20.175 44.977-44.978 0-24.798-20.176-44.976-44.977-44.976zM197.975 621.172c0 37.016-30.114 67.127-67.128 67.127s-67.127-30.111-67.127-67.127 30.113-67.127 67.127-67.127 67.128 30.111 67.128 67.127zM108.697 621.172c0 12.214 9.937 22.149 22.15 22.149 12.214 0 22.151-9.935 22.151-22.149s-9.937-22.15-22.151-22.15c-12.213 0-22.15 9.935-22.15 22.15zM496.665 389.854c-39.35 0-71.363-32.013-71.363-71.364 0-39.346 32.013-71.36 71.363-71.36s71.363 32.013 71.363 71.36c-0.001 39.351-32.014 71.364-71.363 71.364zM496.665 292.108c-14.552 0-26.385 11.835-26.385 26.382 0 14.551 11.833 26.388 26.385 26.388 14.55 0 26.388-11.837 26.388-26.388-0.001-14.547-11.839-26.382-26.388-26.382z" />
<glyph unicode="&#xe90c;" glyph-name="select" horiz-adv-x="853" d="M670.287 709.149c0 59.107-48.088 107.195-107.194 107.195-59.111 0-107.198-48.088-107.198-107.195 0-59.112 48.088-107.201 107.198-107.201 59.106 0 107.194 48.089 107.194 107.201zM500.46 709.149c0 34.534 28.099 62.63 62.634 62.63 34.532 0 62.63-28.095 62.63-62.63 0-34.538-28.096-62.636-62.63-62.636-34.536 0-62.634 28.098-62.634 62.636zM799.867 638.673h-29.848c14.276 39.045 21.481 70.114 21.481 92.92 0 125.943-102.462 228.406-228.406 228.406-125.947 0-228.415-102.464-228.415-228.406 0-22.806 7.206-53.875 21.48-92.92h-302.54c-29.564 0-53.618-24.056-53.618-53.621v-595.432c0-29.566 24.053-53.621 53.618-53.621h746.248c29.568 0 53.624 24.054 53.624 53.621v595.432c0 29.565-24.056 53.621-53.624 53.621zM485.864 158.279h179.839v-177.714h-179.839v177.714zM441.297-19.435h-230.81v177.714h230.81v-177.714zM210.487 202.843v118.322h130.512c5.909 0 11.58 2.348 15.755 6.527l100.724 100.725c45.177-81.094 86.341-146.063 86.807-146.79 4.087-6.44 11.183-10.338 18.808-10.338 7.628 0 14.724 3.901 18.811 10.338 0.497 0.779 47.711 75.303 96.53 164.401v-0.719h130.493v-242.465h-598.441zM165.925 202.843h-121.359v118.322h121.359v-118.322zM799.867 594.108c4.996 0 9.060-4.063 9.060-9.056v-95.179h-107.013c20.114 38.498 36.874 73.268 50.239 104.235h47.713zM563.094 915.436c101.371 0 183.84-82.473 183.84-183.843 0-79.119-119.177-290.201-183.843-395.857-64.666 105.647-183.847 316.706-183.847 395.857 0 101.37 82.476 183.843 183.85 183.843zM435.213 469.173l-103.445-103.446h-121.282v228.381h163.537c15.727-36.427 36.133-78.106 61.189-124.935zM53.618 594.108h112.307v-228.381h-121.359v219.325c0 4.993 4.061 9.056 9.052 9.056zM44.566-10.379v168.658h121.359v-177.714h-112.307c-4.991 0-9.052 4.061-9.052 9.056zM799.867-19.435h-89.602v177.714h98.662v-168.658c0-4.995-4.063-9.056-9.060-9.056z" />
<glyph unicode="&#xe90d;" glyph-name="phone" d="M1013.204 104.529l-182.585 182.582c-14.408 14.398-37.764 14.408-52.166 0l-53.142-53.142c-13.034-13.15-34.842-35.151-76.039-35.151-43.471 0-120.533 25.245-240.611 145.326-0.11 0.11-0.222 0.226-0.335 0.342-120.44 120.44-145.605 197.558-145.505 241.045 0.090 41.034 22.038 62.789 35.151 75.784l53.135 53.132c14.405 14.405 14.405 37.761 0 52.166l-182.582 182.588c-14.408 14.398-37.757 14.402-52.166 0.007l-53.039-53.046c-6.341-6.334-62.258-65.422-63.307-176.931-1.398-149.409 92.098-319.369 277.89-505.168 0.063-0.060 0.183-0.179 0.292-0.289 100.245-100.221 197.256-174.385 288.361-220.439 75.249-38.046 147.072-57.335 213.47-57.335 113.574 0 173.714 56.9 180.132 63.314l53.049 53.049c14.398 14.412 14.398 37.761-0.003 52.166zM496.865 681.835c67.686-5.441 127.209-32.070 172.151-77.009 44.879-44.885 71.501-104.302 76.992-171.839 1.57-19.289 17.708-33.896 36.725-33.896 1.006 0 2.015 0.040 3.031 0.12 20.308 1.653 35.427 19.448 33.777 39.759-6.932 85.209-40.941 160.601-98.356 218.022-57.501 57.498-133.026 91.52-218.417 98.376-20.328 1.72-38.089-13.509-39.723-33.81-1.627-20.311 13.515-38.096 33.82-39.723zM508.72 828.873c103.087-8.286 194.61-49.699 264.677-119.759 69.954-69.964 111.356-161.328 119.726-264.205 1.57-19.292 17.708-33.903 36.728-33.903 0.996 0 2.009 0.046 3.028 0.123 20.305 1.653 35.427 19.451 33.777 39.759-9.807 120.553-58.596 227.885-141.090 310.395-82.629 82.619-190.145 131.425-310.94 141.123-20.265 1.703-38.093-13.502-39.719-33.81-1.637-20.301 13.505-38.093 33.813-39.723z" />
<glyph unicode="&#xe90e;" glyph-name="questionmark" horiz-adv-x="881" d="M429.218 219.035c-49.834 0-90.362 40.527-90.362 90.362s40.527 90.362 90.362 90.362c49.834 0 90.362-40.527 90.362-90.362s-40.527-90.362-90.362-90.362zM429.218 354.577c-24.917 0-45.181-20.264-45.181-45.181s20.264-45.181 45.181-45.181c24.917 0 45.181 20.264 45.181 45.181s-20.264 45.181-45.181 45.181zM454.496 422.349h-67.771c-25.956 0-47.869 20.693-47.869 45.181v67.771c0 57.651 61.559 111.325 106.514 150.52 11.273 9.827 21.506 18.727 29.164 26.363 10.505 10.505 15.746 24.985 14.39 39.714-1.378 14.526-8.901 27.154-21.212 35.58-14.977 10.279-36.777 10.776-51.935 1.197-13.012-8.2-21.167-20.828-23.065-35.67-0.023-21.551-1.017-59.571-51.167-59.571h-67.771c-9.94 0-24.375 1.22-34.699 11.724-11.34 11.544-11.069 26.815-10.821 41.566l0.090 7.658c2.508 63.705 32.666 122.146 82.771 161.137 36.89 28.69 83.268 44.48 130.685 44.48 42.244 0 82.771-12.244 117.154-35.399 54.601-36.755 89.074-95.038 94.609-159.895 5.444-63.75-17.598-125.354-63.253-169.021-8.742-8.358-21.235-17.801-34.473-27.764-17.146-12.922-57.312-43.215-58.825-55.392v-45c-0.023-25.753-18.298-45.181-42.515-45.181zM454.496 467.529v0zM384.556 467.936c0.587 0 1.514-0.429 2.169-0.429h64.812l0.271 45.181c0 33.366 39.059 62.801 76.807 91.288 12.154 9.149 23.63 17.824 30.452 24.352 35.715 34.157 53.765 82.455 49.473 132.538-4.36 51.145-31.649 97.161-74.842 126.258-57.154 38.517-140.106 35.309-194.82-7.252-39.578-30.791-63.389-76.898-65.377-126.461l-0.090-7.5c0-2.372-0.068-4.992-0.045-7.297 0.136 0 0.271 0 0.429 0h67.771c2.395 0 4.111 0.136 5.241 0.294 0.474 2.937 0.723 8.087 0.723 15.407l0.113 2.372c3.072 28.916 19.111 54.533 44.051 70.234 30.294 19.044 71.792 18.14 101.499-2.146 23.268-15.904 38.11-40.956 40.708-68.697 2.62-28.148-7.364-55.798-27.425-75.836-8.268-8.268-19.27-17.892-31.423-28.486-36.235-31.604-91.017-79.36-91.017-116.453v-67.771c0.023 0.294 0.226 0.407 0.52 0.407zM248.585-63.977c-5.715 0-11.476 1.084-17.011 3.321-17.169 6.935-28.261 23.381-28.261 41.883v124.857h-90.362c-62.282 0-112.952 50.67-112.952 112.952v316.266c0 62.282 50.67 112.952 112.952 112.952h67.771v-45.181h-67.771c-37.365 0-67.771-30.407-67.771-67.771v-316.266c0-37.365 30.407-67.771 67.771-67.771h112.952c12.47 0 22.59-10.098 22.59-22.59v-147.425l157.636 163.148c4.247 4.383 10.12 6.89 16.242 6.89h345.701c37.365 0 67.771 30.407 67.771 67.771v316.266c0 37.365-30.407 67.771-67.771 67.771h-67.771v45.181h67.771c62.282 0 112.952-50.67 112.952-112.952v-316.266c0-62.282-50.67-112.952-112.952-112.952h-336.122l-150.972-156.258c-8.697-9.036-20.422-13.825-32.395-13.825z" />
<glyph unicode="&#xe90f;" glyph-name="year" horiz-adv-x="1003" d="M981.24-64h-959.423c-12.043 0-21.816 9.752-21.816 21.816v876.717c0 12.043 9.774 21.816 21.816 21.816h959.423c12.065 0 21.816-9.774 21.816-21.816v-876.695c0-12.065-9.774-21.838-21.816-21.838zM43.633-20.367h915.79v833.084h-915.79v-833.084zM245.086 710.507c-12.043 0-21.816 9.774-21.816 21.816v205.86c0 12.043 9.774 21.816 21.816 21.816s21.816-9.774 21.816-21.816v-205.838c0-12.065-9.752-21.838-21.816-21.838zM416.040 710.507c-12.043 0-21.816 9.774-21.816 21.816v205.86c0 12.043 9.774 21.816 21.816 21.816s21.816-9.774 21.816-21.816v-205.838c0-12.065-9.752-21.838-21.816-21.838zM586.994 710.507c-12.065 0-21.816 9.774-21.816 21.816v205.86c0 12.043 9.752 21.816 21.816 21.816s21.816-9.774 21.816-21.816v-205.838c0-12.065-9.752-21.838-21.816-21.838zM757.948 710.507c-12.065 0-21.816 9.774-21.816 21.816v205.86c0 12.043 9.752 21.816 21.816 21.816s21.816-9.774 21.816-21.816v-205.838c0-12.065-9.752-21.838-21.816-21.838zM648.517 525.132h-104.195c-12.065 0-21.816 9.774-21.816 21.816s9.752 21.816 21.816 21.816h104.195c12.065 0 21.816-9.774 21.816-21.816s-9.774-21.816-21.816-21.816zM838.298 525.132h-104.195c-12.065 0-21.816 9.774-21.816 21.816s9.752 21.816 21.816 21.816h104.195c12.065 0 21.816-9.774 21.816-21.816s-9.752-21.816-21.816-21.816zM268.954 389.281h-104.195c-12.043 0-21.816 9.752-21.816 21.816s9.774 21.816 21.816 21.816h104.195c12.043 0 21.816-9.752 21.816-21.816s-9.774-21.816-21.816-21.816zM458.735 389.281h-104.217c-12.043 0-21.816 9.752-21.816 21.816s9.774 21.816 21.816 21.816h104.195c12.043 0 21.816-9.752 21.816-21.816s-9.752-21.816-21.795-21.816zM648.517 389.281h-104.195c-12.065 0-21.816 9.752-21.816 21.816s9.752 21.816 21.816 21.816h104.195c12.065 0 21.816-9.752 21.816-21.816s-9.774-21.816-21.816-21.816zM838.298 389.281h-104.195c-12.065 0-21.816 9.752-21.816 21.816s9.752 21.816 21.816 21.816h104.195c12.065 0 21.816-9.752 21.816-21.816s-9.752-21.816-21.816-21.816zM268.954 253.408h-104.195c-12.043 0-21.816 9.752-21.816 21.816s9.774 21.816 21.816 21.816h104.195c12.043 0 21.816-9.752 21.816-21.816s-9.774-21.816-21.816-21.816zM458.735 253.408h-104.217c-12.043 0-21.816 9.752-21.816 21.816s9.774 21.816 21.816 21.816h104.195c12.043 0 21.816-9.752 21.816-21.816s-9.752-21.816-21.795-21.816zM648.517 253.408h-104.195c-12.065 0-21.816 9.752-21.816 21.816s9.752 21.816 21.816 21.816h104.195c12.065 0 21.816-9.752 21.816-21.816s-9.774-21.816-21.816-21.816zM838.298 253.408h-104.195c-12.065 0-21.816 9.752-21.816 21.816s9.752 21.816 21.816 21.816h104.195c12.065 0 21.816-9.752 21.816-21.816s-9.752-21.816-21.816-21.816zM268.954 117.557h-104.195c-12.043 0-21.816 9.752-21.816 21.816s9.774 21.816 21.816 21.816h104.195c12.043 0 21.816-9.752 21.816-21.816s-9.774-21.816-21.816-21.816zM458.735 117.557h-104.217c-12.043 0-21.816 9.752-21.816 21.816s9.774 21.816 21.816 21.816h104.195c12.043 0 21.816-9.752 21.816-21.816s-9.752-21.816-21.795-21.816z" />
<glyph unicode="&#xe910;" glyph-name="play" d="M512-64c-69.104 0-136.159 13.542-199.305 40.25-60.972 25.79-115.723 62.701-162.733 109.71s-83.922 101.762-109.71 162.736c-26.708 63.143-40.252 130.2-40.252 199.304s13.543 136.159 40.252 199.305c25.789 60.972 62.701 115.724 109.71 162.734 47.010 47.009 101.761 83.92 162.733 109.71 63.146 26.707 130.202 40.25 199.305 40.25s136.159-13.543 199.305-40.25c60.973-25.79 115.724-62.701 162.734-109.71s83.922-101.762 109.712-162.734c26.707-63.146 40.249-130.202 40.249-199.305s-13.543-136.159-40.249-199.304c-25.791-60.973-62.703-115.726-109.712-162.736s-101.761-83.922-162.734-109.71c-63.146-26.71-130.202-40.25-199.305-40.25zM512 887.576c-242.383 0-439.576-197.193-439.576-439.576s197.193-439.576 439.576-439.576 439.576 197.193 439.576 439.576c-0.001 242.383-197.193 439.576-439.576 439.576zM329.21 658.889v-421.776c0-12.76 11.588-21.229 21.75-15.9l404.68 212.197c11.944 6.263 11.904 25.635-0.065 31.835l-404.68 209.578c-10.158 5.261-21.685-3.21-21.685-15.933z" />
<glyph unicode="&#xe911;" glyph-name="office" horiz-adv-x="1103" d="M237.735 629.876h66.293v-66.278h-66.293v66.278zM237.735 508.726h66.293v-66.278h-66.293v66.278zM237.735 387.562h66.293v-66.278h-66.293v66.278zM237.735 266.412h66.293v-66.293h-66.293v66.293zM699.94 511.16h59.452v-59.452h-59.452v59.452zM818.526 511.16h59.437v-59.452h-59.437v59.452zM699.94 378.733h59.452v-59.452h-59.452v59.452zM818.526 378.733h59.437v-59.452h-59.437v59.452zM699.94 246.292h59.452v-59.452h-59.452v59.452zM818.526 246.292h59.437v-59.452h-59.437v59.452zM1076.121-9.589h-77.67v595.006c0 21.459-17.57 39.030-39.030 39.030h-254.239v296.524c0 21.459-17.57 39.030-39.030 39.030h-0.922c-21.459 0-56.6 0-78.059 0h-220.423c-21.473 0-56.586 0-78.059 0h-0.907c-21.473 0-39.030-17.57-39.030-39.030v-145.922h-78.65c-36.725 0-66.581-29.855-66.581-66.566v-718.072h-76.331c-15.007 0-27.191-12.184-27.191-27.205s12.184-27.205 27.205-27.205h1048.916c15.021 0 27.205 12.184 27.205 27.205s-12.184 27.205-27.205 27.205zM943.363-7.803h-310.566v577.176h310.551v-577.176zM303.84 904.927h346.268v-280.48h-33.355c-21.459 0-39.030-17.57-39.030-39.030v-595.006h-76.792v718.072c0 36.711-29.855 66.566-66.581 66.566h-130.511v129.878zM158.624 708.483c0 6.236 5.257 11.493 11.493 11.493h264.234c6.236 0 11.493-5.257 11.493-11.493v-718.072h-57.709v132.888c0 14.805-11.997 26.802-26.788 26.802h-121.813c-14.805 0-26.802-11.997-26.802-26.802v-132.888h-54.094v718.072zM266.308-9.589v106.071h68.208v-106.071h-68.208z" />
<glyph unicode="&#xe912;" glyph-name="zoomout" d="M995.828 100.188l-169.728 169.696c44.732 69.806 71.436 152.292 71.436 241.35 0 247.86-200.908 448.766-448.77 448.766-247.83 0-448.766-200.906-448.766-448.768s200.936-448.768 448.766-448.768c89.058 0 171.542 26.704 241.32 71.436l169.726-169.728c37.564-37.562 98.45-37.562 136.016 0 37.562 37.566 37.562 98.45 0 136.016zM448.766 190.684c-177.022 0-320.548 143.496-320.548 320.548 0 177.022 143.526 320.548 320.548 320.548 177.054 0 320.548-143.526 320.548-320.548 0-177.052-143.494-320.548-320.548-320.548zM256.438 447.124h384.658v128.218h-384.658v-128.218z" />
<glyph unicode="&#xe913;" glyph-name="zoomin" d="M995.828-35.828c-37.566-37.562-98.452-37.562-136.016 0l-169.726 169.728c-69.778-44.732-152.262-71.436-241.32-71.436-247.83 0-448.766 200.908-448.766 448.768s200.936 448.768 448.766 448.768c247.862 0 448.768-200.906 448.768-448.768 0-89.058-26.704-171.542-71.436-241.35l169.728-169.696c37.564-37.564 37.564-98.448 0.002-136.014zM448.766 831.78c-177.022 0-320.548-143.526-320.548-320.548 0-177.052 143.526-320.548 320.548-320.548 177.054 0 320.548 143.496 320.548 320.548 0 177.022-143.494 320.548-320.548 320.548zM512.876 318.904h-128.218v128.218h-128.218v128.218h128.218v128.22h128.218v-128.22h128.22v-128.218h-128.22v-128.218z" />
<glyph unicode="&#xe914;" glyph-name="search1" d="M995.828-35.826c-37.566-37.564-98.45-37.564-136.016 0l-169.726 169.726c-69.776-44.764-152.26-71.434-241.318-71.434-247.83 0-448.768 200.908-448.768 448.768s200.938 448.766 448.768 448.766c247.862 0 448.768-200.904 448.768-448.766 0-89.028-26.704-171.542-71.436-241.352l169.728-169.726c37.562-37.564 37.562-98.418 0-135.982zM448.768 831.782c-177.022 0-320.548-143.494-320.548-320.546s143.526-320.548 320.548-320.548c177.052 0 320.548 143.496 320.548 320.548s-143.496 320.546-320.548 320.546z" />
<glyph unicode="&#xe915;" glyph-name="keyboard_arrow_right" d="M366 240.667l196 196-196 196 60 60 256-256-256-256z" />
<glyph unicode="&#xe916;" glyph-name="keyboard_arrow_left" d="M658 252.667l-60-60-256 256 256 256 60-60-196-196z" />
<glyph unicode="&#xe917;" glyph-name="menu" d="M256 320h512v-128h-512zM256 512h512v-128h-512zM960 960h-896c-35.376 0-64-28.624-64-64v-896c0-35.376 28.624-64 64-64h896c35.376 0 64 28.624 64 64v896c0 35.376-28.624 64-64 64zM896 64h-768v768h768v-768zM256 704h512v-128h-512z" />
</font>
</defs>
</svg>
