<?xml version="1.0" encoding="utf-8"?>
<!-- Generator: Adobe Illustrator 16.0.0, SVG Export Plug-In . SVG Version: 6.00 Build 0)  -->
<!DOCTYPE svg PUBLIC "-//W3C//DTD SVG 1.1//EN" "http://www.w3.org/Graphics/SVG/1.1/DTD/svg11.dtd">
<svg version="1.1" id="圖層_1" xmlns="http://www.w3.org/2000/svg" xmlns:xlink="http://www.w3.org/1999/xlink" x="0px" y="0px"
	 width="28.63px" height="27.78px" viewBox="0 0 28.63 27.78" enable-background="new 0 0 28.63 27.78" xml:space="preserve">
<g>
	<path id="XMLID_55_" fill="#F65097" d="M13.16,13.89c1.113,7.599,0.356,13.753,1.154,13.753c0.796,0,0.041-6.154,1.154-13.753
		c1.115-7.596-0.677-13.752-1.154-13.752C13.836,0.137,12.046,6.294,13.16,13.89z"/>
	<path id="XMLID_54_" fill="#86754D" d="M16.623,13.89c-0.834,3.798-1.301,7.237-0.832,9.728c0.365,2.488,1.668,4.025,1.986,4.025
		c0.547,0-0.824-1.537-1.08-4.025c-0.381-2.49,0.354-5.93,2.236-9.728c1.88-3.799,2.355-7.236,1.559-9.725
		c-0.674-2.489-2.623-4.028-2.715-4.028c-0.318,0,0.409,1.539,0.355,4.028C18.187,6.653,17.457,10.091,16.623,13.89z"/>
	<path id="XMLID_51_" fill="#86754D" d="M9.697,13.89c1.881,3.798,2.614,7.237,2.234,9.728c-0.255,2.488-1.626,4.025-1.081,4.025
		c0.319,0,1.622-1.537,1.986-4.025c0.471-2.49,0.002-5.93-0.833-9.728c-0.833-3.799-1.559-7.236-1.508-9.725
		c-0.051-2.489,0.674-4.028,0.355-4.028c-0.093,0-2.041,1.539-2.714,4.028C7.341,6.653,7.815,10.091,9.697,13.89z"/>
	<g id="XMLID_44_">
		<path id="XMLID_48_" fill="#86754D" d="M5.889,19.086c-4.33-2.131-7.158-5.328-5.094-6.709c2.038-1.217,6.431,2.225,8.18,5.741
			c1.945,3.463,1.913,6.092,1.742,6.148C10.61,24.238,10.292,21.387,5.889,19.086z"/>
		<path id="XMLID_45_" fill="#86754D" d="M19.654,18.117c1.75-3.516,6.143-6.957,8.181-5.741c2.063,1.381-0.763,4.579-5.095,6.709
			c-4.403,2.299-4.721,5.152-4.828,5.18C17.742,24.209,17.711,21.58,19.654,18.117z"/>
	</g>
</g>
</svg>
