<svg width="389" height="100" viewBox="0 0 389 100" fill="none" xmlns="http://www.w3.org/2000/svg">
<g clip-path="url(#clip0)">
<path d="M95.4161 32.5224H86.865C86.8314 31.2925 86.7924 30.064 86.741 28.8392C86.6547 26.8075 85.1306 25.1184 83.116 24.8229C81.9831 24.6577 80.8406 24.568 79.7042 24.5514C79.6657 23.4209 79.6241 22.2912 79.5769 21.1635C79.4497 18.1642 77.1985 15.671 74.2235 15.2351C73.5172 15.1322 72.8088 15.048 72.1049 14.9792C72.0592 14.488 72.0137 13.9968 71.9653 13.5062C71.6018 9.81666 68.6513 6.90588 64.9474 6.58459L64.9156 6.58185C64.5779 6.55334 64.24 6.52463 63.9021 6.49787C63.2526 6.44631 62.653 6.82658 62.4198 7.43108C61.9653 8.60961 60.8098 9.40161 59.5444 9.40161H39.2805C37.7092 9.40161 36.393 8.22738 36.2185 6.67033C36.1355 5.92853 35.5084 5.36836 34.7631 5.36836C34.7601 5.36836 34.7574 5.36836 34.7547 5.36836C31.663 5.38575 28.5056 5.44844 25.3684 5.55469C21.7225 5.68048 18.2195 6.54045 14.9572 8.11097C14.2282 8.46195 13.9216 9.33736 14.2726 10.0663C14.6236 10.7954 15.499 11.1016 16.2279 10.7508C19.1222 9.35747 22.2317 8.59438 25.4686 8.48285C26.2393 8.45668 27.0112 8.43402 27.7833 8.41332V70.4729C27.0114 70.4521 26.2397 70.4293 25.4692 70.4033C19.5674 70.2008 14.0181 67.7859 9.84343 63.6036C5.66935 59.4219 3.26386 53.8689 3.0703 47.9669C2.8826 42.3116 2.8826 36.5767 3.0703 30.9208C3.29003 24.2243 6.39456 17.9498 11.5876 13.7062C12.2142 13.1942 12.3071 12.2714 11.7952 11.645C11.2835 11.0184 10.3604 10.9255 9.73405 11.4376C3.88574 16.2163 0.389409 23.2826 0.14214 30.8243C-0.0477056 36.5441 -0.0477056 42.3444 0.14214 48.0638C0.360307 54.7104 3.06913 60.9643 7.76996 65.6736C11.827 69.7381 17.0375 72.3186 22.6612 73.0969V78.8689C19.5619 79.5202 16.9195 80.2906 14.7962 81.1634C13.4095 81.7326 12.2933 82.7927 11.6532 84.148C10.4208 86.7529 8.95181 90.4323 8.95181 93.1671C8.95181 93.9761 9.60749 94.6319 10.4167 94.6319H81.0933C81.9025 94.6319 82.5582 93.9761 82.5582 93.1671C82.5582 90.4323 81.0892 86.7529 79.8573 84.1488C79.2169 82.7927 78.1005 81.7324 76.7145 81.1636C74.5901 80.2902 71.9467 79.52 68.8471 78.8687V70.8363C70.5668 69.576 71.7442 67.6228 71.9651 65.3808C72.0135 64.8913 72.0563 64.3988 72.1022 63.9077C72.8071 63.839 73.5166 63.7546 74.2243 63.6515C77.1985 63.2155 79.4495 60.7224 79.5767 57.7225C79.6241 56.5942 79.6655 55.4639 79.704 54.3328C80.8409 54.3162 81.9833 54.2291 83.1169 54.0637C85.1304 53.7684 86.6543 52.0793 86.7408 50.0468C86.7922 48.8222 86.8314 47.5939 86.8648 46.3644H95.4159C97.9435 46.3644 100 44.3081 100 41.7803V37.1064C100 34.5787 97.9437 32.5224 95.4161 32.5224ZM77.2089 85.4004C78.3626 87.8397 79.1474 90.0424 79.4673 91.7018H12.0431C12.3632 90.0422 13.1478 87.8393 14.3021 85.3994C14.6294 84.706 15.2001 84.164 15.9093 83.8728C18.0912 82.9757 20.9045 82.1884 24.2709 81.5314H67.2375C70.6043 82.1882 73.4182 82.9755 75.6014 83.8732C76.3102 84.164 76.8809 84.706 77.2089 85.4004ZM65.9175 78.6017H25.5909V73.3379C28.6536 73.4397 31.7351 73.5006 34.7545 73.5176H34.7631C35.5086 73.5176 36.1359 72.9569 36.2187 72.2151C36.2951 71.5293 36.6086 70.8803 37.1002 70.3887C37.6848 69.8055 38.459 69.4844 39.2805 69.4844H59.5444C60.8093 69.4844 61.9649 70.2772 62.42 71.4569C62.6542 72.0645 63.2605 72.4442 63.9107 72.3893L64.9503 72.3012C65.2792 72.2727 65.6019 72.2227 65.9175 72.1547V78.6017ZM76.6499 57.5989C76.5821 59.194 75.3837 60.5204 73.8004 60.7524C73.3215 60.8223 72.8414 60.8829 72.3627 60.9358C72.5795 58.2885 72.7612 55.6346 72.8963 53.0027C72.9379 52.1947 72.3164 51.506 71.5086 51.4646C70.6994 51.422 70.0119 52.0443 69.9705 52.8523C69.7617 56.9151 69.4519 61.0329 69.0498 65.0925C68.8246 67.3791 66.9941 69.1832 64.7003 69.382L64.6447 69.3867C63.5597 67.6574 61.6282 66.5545 59.5446 66.5545H39.2807C37.6779 66.5545 36.1687 67.1795 35.0299 68.3156C34.3894 68.956 33.9039 69.7338 33.6072 70.5791C32.6472 70.5701 31.681 70.5553 30.7132 70.5379V8.34809C31.68 8.33051 32.6453 8.31586 33.6043 8.30687C34.4277 10.6731 36.6746 12.3313 39.2807 12.3313H59.5446C61.6292 12.3313 63.5612 11.2286 64.6458 9.49927C64.6535 9.49986 64.6609 9.50064 64.6685 9.50122L64.6974 9.50357C66.9939 9.70279 68.8244 11.5069 69.0496 13.7939C70.141 24.8329 70.5297 36.0168 70.2053 47.0349C70.1814 47.8435 70.8178 48.5185 71.6264 48.5421C71.641 48.5425 71.6557 48.5427 71.6703 48.5427C72.4594 48.5427 73.1104 47.915 73.1338 47.121C73.4184 37.4551 73.1592 27.6634 72.3654 17.9509C72.843 18.0039 73.3217 18.0642 73.7993 18.1339C75.3833 18.366 76.5819 19.6924 76.6497 21.2871C77.1553 33.3345 77.1553 45.5519 76.6499 57.5989ZM83.8138 49.923C83.7871 50.5511 83.3152 51.0734 82.6929 51.1646C81.7304 51.305 80.7601 51.384 79.7946 51.4037C80.012 43.446 80.012 35.4408 79.7946 27.4829C80.7599 27.5024 81.7296 27.5813 82.6917 27.7218C83.3152 27.8132 83.7871 28.3354 83.8138 28.9628C84.1056 35.9172 84.1056 42.9694 83.8138 49.923ZM97.0702 41.7801C97.0702 42.6922 96.328 43.4344 95.4159 43.4344H86.9275C86.9691 40.7752 86.9691 38.1115 86.9275 35.4521H95.4159C96.328 35.4521 97.0702 36.1941 97.0702 37.1064V41.7801Z" fill="#00796B"/>
<path d="M60.8492 33.4323H40.5852C37.2705 33.4323 34.574 36.129 34.574 39.4437C34.574 42.7584 37.2707 45.4549 40.5852 45.4549H60.8492C64.1639 45.4549 66.8604 42.7582 66.8604 39.4437C66.8604 36.1288 64.1639 33.4323 60.8492 33.4323ZM60.8492 42.5252H40.5852C38.8861 42.5252 37.5037 41.1427 37.5037 39.4437C37.5037 37.7446 38.8861 36.362 40.5852 36.362H60.8492C62.5483 36.362 63.9307 37.7444 63.9307 39.4437C63.9307 41.1429 62.5483 42.5252 60.8492 42.5252Z" fill="#00796B"/>
<path d="M60.8492 15.3764H40.5852C37.2705 15.3764 34.574 18.0731 34.574 21.3878C34.574 24.7024 37.2707 27.399 40.5852 27.399H60.8492C64.1639 27.399 66.8604 24.7023 66.8604 21.3878C66.8604 18.0733 64.1639 15.3764 60.8492 15.3764ZM60.8492 24.4692H40.5852C38.8861 24.4692 37.5037 23.0868 37.5037 21.3878C37.5037 19.6887 38.8861 18.3061 40.5852 18.3061H60.8492C62.5483 18.3061 63.9307 19.6885 63.9307 21.3878C63.9307 23.087 62.5483 24.4692 60.8492 24.4692Z" fill="#00796B"/>
<path d="M60.8492 51.4881H40.5852C37.2705 51.4881 34.574 54.1848 34.574 57.4993C34.574 60.814 37.2707 63.5107 40.5852 63.5107H60.8492C64.1639 63.5107 66.8604 60.814 66.8604 57.4993C66.8604 54.1848 64.1639 51.4881 60.8492 51.4881ZM60.8492 60.581H40.5852C38.8861 60.581 37.5037 59.1985 37.5037 57.4993C37.5037 55.8001 38.8861 54.4178 40.5852 54.4178H60.8492C62.5483 54.4178 63.9307 55.8003 63.9307 57.4993C63.9307 59.1984 62.5483 60.581 60.8492 60.581Z" fill="#00796B"/>
<path d="M18.5105 22.9204H14.7149C13.0507 22.9204 11.6969 24.2743 11.6969 25.9384V39.3391H11.5968C10.1749 39.3391 8.9016 40.0743 8.19066 41.3056C7.47971 42.537 7.47971 44.0073 8.19085 45.2388L13.2069 53.9258C13.9181 55.1571 15.1911 55.892 16.6128 55.892C18.0343 55.892 19.3078 55.1569 20.0187 53.9258L25.0354 45.2388C25.7465 44.0075 25.7467 42.537 25.0358 41.3057C24.3246 40.0741 23.0514 39.3389 21.6295 39.3389H21.5285V25.9382C21.5285 24.2743 20.1746 22.9204 18.5105 22.9204ZM21.6293 42.2688C22.1521 42.2688 22.4111 42.6196 22.4982 42.7706C22.5852 42.9214 22.7596 43.321 22.498 43.7739L17.4814 52.4609C17.2201 52.9137 16.7867 52.9625 16.6126 52.9625C16.4386 52.9625 16.0054 52.9137 15.7439 52.4609L10.7278 43.7739C10.4663 43.3212 10.6407 42.9214 10.7278 42.7706C10.8147 42.6198 11.0737 42.269 11.5966 42.269H13.1616C13.9708 42.269 14.6265 41.6132 14.6265 40.8042V25.9386C14.6265 25.89 14.6661 25.8503 14.7148 25.8503H18.5103C18.5589 25.8503 18.5986 25.89 18.5986 25.9386V40.8042C18.5986 41.6132 19.2543 42.269 20.0634 42.269H21.6293V42.2688Z" fill="#00796B"/>
</g>
<path d="M141.402 32V10.5254H144.244V19.3438H155.406V10.5254H158.248V32H155.406V21.8779H144.244V32H141.402ZM174.307 26.9902L177.031 27.3271C176.602 28.9189 175.806 30.1543 174.644 31.0332C173.481 31.9121 171.997 32.3516 170.19 32.3516C167.915 32.3516 166.108 31.6533 164.771 30.2568C163.442 28.8506 162.778 26.8828 162.778 24.3535C162.778 21.7363 163.452 19.7051 164.8 18.2598C166.147 16.8145 167.896 16.0918 170.044 16.0918C172.124 16.0918 173.823 16.7998 175.142 18.2158C176.46 19.6318 177.119 21.624 177.119 24.1924C177.119 24.3486 177.114 24.583 177.104 24.8955H165.503C165.601 26.6045 166.084 27.9131 166.953 28.8213C167.822 29.7295 168.906 30.1836 170.205 30.1836C171.172 30.1836 171.997 29.9297 172.681 29.4219C173.364 28.9141 173.906 28.1035 174.307 26.9902ZM165.649 22.7275H174.336C174.219 21.4189 173.887 20.4375 173.34 19.7832C172.5 18.7676 171.411 18.2598 170.073 18.2598C168.862 18.2598 167.842 18.665 167.012 19.4756C166.191 20.2861 165.737 21.3701 165.649 22.7275ZM181.298 32V10.5254H183.935V32H181.298ZM188.978 32V10.5254H191.614V32H188.978ZM195.734 24.2217C195.734 21.3408 196.535 19.207 198.137 17.8203C199.475 16.668 201.105 16.0918 203.029 16.0918C205.168 16.0918 206.916 16.7949 208.273 18.2012C209.631 19.5977 210.31 21.5312 210.31 24.002C210.31 26.0039 210.007 27.5811 209.401 28.7334C208.806 29.876 207.932 30.7646 206.779 31.3994C205.637 32.0342 204.387 32.3516 203.029 32.3516C200.852 32.3516 199.089 31.6533 197.741 30.2568C196.403 28.8604 195.734 26.8486 195.734 24.2217ZM198.444 24.2217C198.444 26.2139 198.879 27.708 199.748 28.7041C200.617 29.6904 201.711 30.1836 203.029 30.1836C204.338 30.1836 205.427 29.6855 206.296 28.6895C207.165 27.6934 207.6 26.1748 207.6 24.1338C207.6 22.21 207.16 20.7549 206.281 19.7686C205.412 18.7725 204.328 18.2744 203.029 18.2744C201.711 18.2744 200.617 18.7676 199.748 19.7539C198.879 20.7402 198.444 22.2295 198.444 24.2217ZM215.104 32V28.9971H218.106V32C218.106 33.1035 217.911 33.9922 217.521 34.666C217.13 35.3496 216.51 35.877 215.66 36.248L214.928 35.1201C215.484 34.876 215.895 34.5146 216.158 34.0361C216.422 33.5674 216.568 32.8887 216.598 32H215.104Z" fill="#00796B"/>
<path d="M173.641 83H166.492L165.719 57.875L153.203 83H145.914L144.625 48.6406H151.539L151.844 72.6875L163.633 48.6406H171.297L172.094 72.4297L183.414 48.6406H190.258L173.641 83ZM210.594 72.6406H193.719C193.703 72.9062 193.695 73.1094 193.695 73.25C193.695 74.9062 194.164 76.2422 195.102 77.2578C196.055 78.2734 197.211 78.7812 198.57 78.7812C200.805 78.7812 202.547 77.625 203.797 75.3125L209.82 76.3203C208.648 78.7422 207.078 80.5625 205.109 81.7812C203.156 82.9844 200.961 83.5859 198.523 83.5859C195.18 83.5859 192.461 82.5312 190.367 80.4219C188.273 78.2969 187.227 75.4922 187.227 72.0078C187.227 68.6016 188.172 65.5703 190.062 62.9141C192.641 59.3203 196.32 57.5234 201.102 57.5234C204.148 57.5234 206.57 58.4688 208.367 60.3594C210.164 62.2344 211.062 64.8672 211.062 68.2578C211.062 69.8828 210.906 71.3438 210.594 72.6406ZM204.922 68.5391C204.938 68.2422 204.945 68.0156 204.945 67.8594C204.945 66.0156 204.531 64.6328 203.703 63.7109C202.875 62.7891 201.766 62.3281 200.375 62.3281C198.984 62.3281 197.734 62.8516 196.625 63.8984C195.531 64.9453 194.789 66.4922 194.398 68.5391H204.922ZM214.031 83L221.227 48.6406H227.93L220.758 83H214.031ZM245.312 73.625L251.852 74.6797C250.773 77.5859 249.18 79.7969 247.07 81.3125C244.961 82.8281 242.516 83.5859 239.734 83.5859C236.562 83.5859 234.047 82.6406 232.188 80.75C230.328 78.8594 229.398 76.2578 229.398 72.9453C229.398 70.2422 229.961 67.6875 231.086 65.2812C232.211 62.875 233.906 60.9844 236.172 59.6094C238.438 58.2188 240.922 57.5234 243.625 57.5234C246.562 57.5234 248.906 58.2891 250.656 59.8203C252.406 61.3516 253.391 63.3672 253.609 65.8672L247.211 66.5469C247.055 65.1562 246.625 64.1328 245.922 63.4766C245.234 62.8203 244.328 62.4922 243.203 62.4922C241.906 62.4922 240.695 62.9766 239.57 63.9453C238.445 64.9141 237.578 66.3672 236.969 68.3047C236.375 70.2266 236.078 72.0312 236.078 73.7188C236.078 75.1875 236.438 76.3203 237.156 77.1172C237.875 77.9141 238.773 78.3125 239.852 78.3125C240.93 78.3125 241.969 77.9219 242.969 77.1406C243.969 76.3594 244.75 75.1875 245.312 73.625ZM257.141 72.6641C257.141 68.0547 258.438 64.3828 261.031 61.6484C263.641 58.8984 267.062 57.5234 271.297 57.5234C274.969 57.5234 277.836 58.5391 279.898 60.5703C281.961 62.5859 282.992 65.3047 282.992 68.7266C282.992 72.7578 281.703 76.2422 279.125 79.1797C276.547 82.1172 273.094 83.5859 268.766 83.5859C266.422 83.5859 264.344 83.1172 262.531 82.1797C260.719 81.2422 259.367 79.9141 258.477 78.1953C257.586 76.4766 257.141 74.6328 257.141 72.6641ZM276.312 67.8594C276.312 66.2656 275.844 64.9922 274.906 64.0391C273.984 63.0703 272.789 62.5859 271.32 62.5859C269.867 62.5859 268.578 63.0391 267.453 63.9453C266.328 64.8359 265.453 66.1406 264.828 67.8594C264.203 69.5625 263.891 71.1328 263.891 72.5703C263.891 74.3516 264.375 75.7656 265.344 76.8125C266.312 77.8594 267.531 78.3828 269 78.3828C270.844 78.3828 272.391 77.5938 273.641 76.0156C275.422 73.7812 276.312 71.0625 276.312 67.8594ZM291.492 58.1094H297.82L297.188 61.1328C299.656 58.7266 302.25 57.5234 304.969 57.5234C306.844 57.5234 308.289 57.9141 309.305 58.6953C310.32 59.4766 310.969 60.5547 311.25 61.9297C312.109 60.6797 313.344 59.6328 314.953 58.7891C316.562 57.9453 318.234 57.5234 319.969 57.5234C321.953 57.5234 323.5 58.0547 324.609 59.1172C325.719 60.1797 326.273 61.5859 326.273 63.3359C326.273 64.1953 326.055 65.6797 325.617 67.7891L322.43 83H315.703L318.891 67.7891C319.281 65.8828 319.477 64.8047 319.477 64.5547C319.477 63.8672 319.266 63.3281 318.844 62.9375C318.438 62.5312 317.82 62.3281 316.992 62.3281C315.32 62.3281 313.828 63.2109 312.516 64.9766C311.562 66.2422 310.75 68.4844 310.078 71.7031L307.711 83H300.984L304.125 67.9531C304.484 66.2188 304.664 65.0938 304.664 64.5781C304.664 63.9219 304.438 63.3828 303.984 62.9609C303.547 62.5391 302.938 62.3281 302.156 62.3281C301.422 62.3281 300.664 62.5469 299.883 62.9844C299.102 63.4219 298.414 64.0234 297.82 64.7891C297.242 65.5547 296.742 66.5391 296.32 67.7422C296.133 68.3047 295.828 69.5781 295.406 71.5625L293.016 83H286.289L291.492 58.1094ZM354.438 72.6406H337.562C337.547 72.9062 337.539 73.1094 337.539 73.25C337.539 74.9062 338.008 76.2422 338.945 77.2578C339.898 78.2734 341.055 78.7812 342.414 78.7812C344.648 78.7812 346.391 77.625 347.641 75.3125L353.664 76.3203C352.492 78.7422 350.922 80.5625 348.953 81.7812C347 82.9844 344.805 83.5859 342.367 83.5859C339.023 83.5859 336.305 82.5312 334.211 80.4219C332.117 78.2969 331.07 75.4922 331.07 72.0078C331.07 68.6016 332.016 65.5703 333.906 62.9141C336.484 59.3203 340.164 57.5234 344.945 57.5234C347.992 57.5234 350.414 58.4688 352.211 60.3594C354.008 62.2344 354.906 64.8672 354.906 68.2578C354.906 69.8828 354.75 71.3438 354.438 72.6406ZM348.766 68.5391C348.781 68.2422 348.789 68.0156 348.789 67.8594C348.789 66.0156 348.375 64.6328 347.547 63.7109C346.719 62.7891 345.609 62.3281 344.219 62.3281C342.828 62.3281 341.578 62.8516 340.469 63.8984C339.375 64.9453 338.633 66.4922 338.242 68.5391H348.766ZM365.797 74.2578H362.094L364.203 56.7266L365.891 48.6406H372.945L371.141 57.3359L365.797 74.2578ZM360.312 76.5078H366.969L365.609 83H358.953L360.312 76.5078Z" fill="#00796B"/>
<defs>
<clipPath id="clip0">
<rect width="100" height="100" fill="white"/>
</clipPath>
</defs>
</svg>
