<?xml version="1.0" encoding="utf-8"?>
<!-- Generator: Adobe Illustrator 16.0.0, SVG Export Plug-In . SVG Version: 6.00 Build 0)  -->
<!DOCTYPE svg PUBLIC "-//W3C//DTD SVG 1.1//EN" "http://www.w3.org/Graphics/SVG/1.1/DTD/svg11.dtd">
<svg version="1.1" id="圖層_1" xmlns="http://www.w3.org/2000/svg" xmlns:xlink="http://www.w3.org/1999/xlink" x="0px" y="0px"
	 width="200px" height="200px" viewBox="0 0 200 200" enable-background="new 0 0 200 200" xml:space="preserve">
<g>
	<polygon points="64,0 16,0 0,0 0,16 0,64 16,64 16,16 64,16 	"/>
	<polygon points="0,136 0,184 0,200 16,200 64,200 64,184 16,184 16,136 	"/>
	<polygon points="136,200 184,200 200,200 200,184 200,136 184,136 184,184 136,184 	"/>
	<polygon points="200,64 200,16 200,0 184,0 136,0 136,16 184,16 184,64 	"/>
</g>
</svg>
