<?xml version="1.0" encoding="utf-8"?>
<!-- Generator: Adobe Illustrator 16.0.0, SVG Export Plug-In . SVG Version: 6.00 Build 0)  -->
<!DOCTYPE svg PUBLIC "-//W3C//DTD SVG 1.1//EN" "http://www.w3.org/Graphics/SVG/1.1/DTD/svg11.dtd">
<svg version="1.1" id="圖層_1" xmlns="http://www.w3.org/2000/svg" xmlns:xlink="http://www.w3.org/1999/xlink" x="0px" y="0px"
	 width="60px" height="60px" viewBox="0 0 60 60" enable-background="new 0 0 60 60" xml:space="preserve">
<g>
	<path d="M30,59.836C13.548,59.836,0.163,46.451,0.163,30C0.163,13.548,13.548,0.163,30,0.163c16.451,0,29.836,13.385,29.836,29.837
		C59.836,46.451,46.451,59.836,30,59.836z M30,1.163C14.099,1.163,1.163,14.099,1.163,30c0,15.9,12.936,28.836,28.837,28.836
		C45.9,58.836,58.836,45.9,58.836,30C58.836,14.099,45.9,1.163,30,1.163z"/>
</g>
<path d="M37,37.294l-3.613-4.095c1.217-1.099,1.988-2.684,1.988-4.449c0-3.309-2.691-6-6-6s-6,2.691-6,6s2.691,6,6,6
	c1.183,0,2.284-0.349,3.214-0.942l3.661,4.148L37,37.294z M24.375,28.75c0-2.757,2.243-5,5-5s5,2.243,5,5s-2.243,5-5,5
	S24.375,31.507,24.375,28.75z"/>
</svg>
