<?xml version="1.0" encoding="utf-8"?>
<!-- Generator: Adobe Illustrator 15.1.0, SVG Export Plug-In . SVG Version: 6.00 Build 0)  -->
<!DOCTYPE svg PUBLIC "-//W3C//DTD SVG 1.1//EN" "http://www.w3.org/Graphics/SVG/1.1/DTD/svg11.dtd">
<svg version="1.1" id="圖層_1" xmlns="http://www.w3.org/2000/svg" xmlns:xlink="http://www.w3.org/1999/xlink" x="0px" y="0px"
	 width="86.61px" height="71.296px" viewBox="0 0 86.61 71.296" enable-background="new 0 0 86.61 71.296" xml:space="preserve">
<path d="M84.872,5.116c-0.087-0.018-2.158-0.455-5.854-0.455c-0.508,0-1.07,0.012-1.669,0.034V2.58c0-1.003-0.679-1.878-1.648-2.13
	C75.523,0.404,73.884,0,70.971,0c-2.939,0-7.729,0.429-13.849,2.469c-4.495,1.498-10.599,5.009-13.816,8.513
	c-3.218-3.504-9.322-7.015-13.817-8.513C23.366,0.429,18.58,0,15.641,0c-2.913,0-4.553,0.404-4.731,0.45
	c-0.97,0.252-1.647,1.127-1.647,2.13v2.115c-0.599-0.022-1.16-0.034-1.669-0.034c-3.697,0-5.769,0.437-5.856,0.455
	C0.725,5.333,0,6.229,0,7.267v51.055c0,0.611,0.255,1.193,0.701,1.61c0.447,0.415,1.048,0.625,1.658,0.584
	c0.045-0.003,0.529-0.034,1.433-0.034c3.093,0,9.804,0.341,19.995,2.625c7.973,1.786,13.378,5.037,16.282,6.784
	c1.653,0.994,2.337,1.405,3.236,1.405s1.584-0.411,3.235-1.405c2.903-1.746,8.31-4.998,16.281-6.784
	c10.193-2.284,16.903-2.625,19.995-2.625c0.905,0,1.388,0.031,1.429,0.034c0.614,0.044,1.213-0.165,1.66-0.582
	c0.449-0.416,0.704-1,0.704-1.612V7.267C86.61,6.229,85.887,5.333,84.872,5.116 M58.515,6.643C64.074,4.79,68.356,4.4,70.971,4.4
	c0.778,0,1.44,0.035,1.978,0.081v43.632c-2.876,0.084-8.09,0.57-15.47,2.567c-5.325,1.441-9.37,3.843-11.973,5.614v-4.416V15.306
	C45.984,13.7,52.213,8.744,58.515,6.643 M13.663,4.48C14.199,4.435,14.86,4.4,15.641,4.4c2.613,0,6.895,0.39,12.457,2.243
	c6.301,2.101,12.529,7.057,13.009,8.663v36.572v4.416c-2.604-1.771-6.649-4.173-11.974-5.614c-7.381-1.997-12.594-2.483-15.47-2.567
	V4.48z M82.21,56.086c-3.499,0.044-10.357,0.488-20.349,2.727c-8.669,1.942-14.693,5.566-17.589,7.309
	c-0.328,0.196-0.68,0.408-0.967,0.574c-0.286-0.166-0.639-0.378-0.968-0.575c-2.896-1.741-8.92-5.365-17.588-7.308
	c-9.991-2.239-16.851-2.683-20.35-2.727V9.194c0.804-0.071,1.875-0.132,3.194-0.132c0.505,0,1.066,0.012,1.669,0.036v41.238
	c0,0.616,0.261,1.203,0.714,1.619c0.452,0.417,1.063,0.622,1.675,0.572c0.05-0.004,0.403-0.028,1.045-0.028
	c1.898,0,7.186,0.236,15.287,2.429c6.055,1.638,10.182,4.636,12.4,6.246c1.362,0.99,1.983,1.44,2.922,1.44
	c0.938,0,1.56-0.45,2.921-1.439c2.218-1.611,6.346-4.609,12.4-6.247c8.103-2.192,13.391-2.429,15.287-2.429
	c0.643,0,0.993,0.024,1.036,0.028c0.613,0.053,1.227-0.15,1.683-0.566c0.456-0.417,0.716-1.007,0.716-1.625V9.098
	c0.602-0.024,1.164-0.036,1.669-0.036c1.316,0,2.389,0.061,3.192,0.132V56.086z"/>
<path d="M18.892,24.937c0.063-0.01,6.463-0.811,14.934,5.022c0.38,0.263,0.815,0.388,1.246,0.388c0.699,0,1.386-0.332,1.813-0.952
	c0.69-1.001,0.437-2.371-0.564-3.06c-9.861-6.79-17.7-5.802-18.031-5.757c-1.203,0.166-2.044,1.276-1.878,2.48
	C16.578,24.262,17.683,25.102,18.892,24.937"/>
<path d="M50.527,22.656c0.432,0,0.864-0.126,1.246-0.388c8.311-5.722,14.812-5.037,14.947-5.021
	c1.201,0.159,2.301-0.681,2.466-1.881c0.166-1.203-0.675-2.314-1.879-2.48c-0.329-0.046-8.17-1.032-18.03,5.758
	c-1,0.689-1.253,2.059-0.563,3.059C49.141,22.323,49.829,22.656,50.527,22.656"/>
<path d="M50.527,38.397c0.432,0,0.865-0.125,1.246-0.389c8.309-5.721,14.809-5.037,14.947-5.021c1.198,0.16,2.301-0.681,2.466-1.881
	c0.166-1.203-0.675-2.314-1.879-2.48c-0.329-0.045-8.169-1.032-18.03,5.759c-1,0.689-1.253,2.058-0.563,3.059
	C49.141,38.065,49.829,38.398,50.527,38.397"/>
</svg>
