<?xml version="1.0" encoding="utf-8"?>
<!-- Generator: Adobe Illustrator 15.1.0, SVG Export Plug-In . SVG Version: 6.00 Build 0)  -->
<!DOCTYPE svg PUBLIC "-//W3C//DTD SVG 1.1//EN" "http://www.w3.org/Graphics/SVG/1.1/DTD/svg11.dtd">
<svg version="1.1" id="圖層_1" xmlns="http://www.w3.org/2000/svg" xmlns:xlink="http://www.w3.org/1999/xlink" x="0px" y="0px"
	 width="54.604px" height="59.604px" viewBox="0 0 54.604 59.604" enable-background="new 0 0 54.604 59.604" xml:space="preserve">
<path d="M50.135,6.056h-4.123v-0.92C46.012,2.304,43.707,0,40.875,0s-5.136,2.304-5.136,5.136v0.92H18.251v-0.92
	C18.251,2.304,15.947,0,13.115,0c-2.831,0-5.134,2.304-5.134,5.136v0.92H4.469C2.005,6.056,0,8.061,0,10.526v44.608
	c0,2.465,2.006,4.47,4.47,4.47h45.666c2.465,0,4.47-2.005,4.47-4.47V10.526C54.604,8.061,52.6,6.056,50.135,6.056 M39.339,5.136
	c0-0.847,0.69-1.535,1.536-1.535c0.848,0,1.536,0.688,1.536,1.535v6.671c0,0.848-0.688,1.536-1.536,1.536
	c-0.846,0-1.536-0.688-1.536-1.536V5.136z M11.58,5.136c0-0.847,0.689-1.535,1.535-1.535c0.848,0,1.537,0.688,1.537,1.535v6.671
	c0,0.848-0.689,1.536-1.537,1.536c-0.846,0-1.535-0.688-1.535-1.536V5.136z M4.469,9.856h3.512v1.951
	c0,2.832,2.303,5.137,5.134,5.137c2.832,0,5.136-2.305,5.136-5.137V9.856h17.488v1.951c0,2.832,2.304,5.137,5.136,5.137
	s5.137-2.305,5.137-5.137V9.856h4.123c0.362,0,0.67,0.307,0.67,0.67v10.889H3.799V10.526C3.799,10.163,4.106,9.856,4.469,9.856
	 M50.135,55.804H4.469c-0.363,0-0.67-0.307-0.67-0.67V25.015h47.005v30.119C50.805,55.497,50.497,55.804,50.135,55.804"/>
<rect x="11.072" y="32.509" width="4.701" height="4.7"/>
<rect x="20.325" y="32.509" width="4.701" height="4.7"/>
<rect x="29.578" y="32.509" width="4.701" height="4.7"/>
<rect x="38.831" y="32.509" width="4.701" height="4.7"/>
<rect x="11.072" y="42.702" width="4.701" height="4.701"/>
<rect x="20.325" y="42.702" width="4.701" height="4.701"/>
<rect x="29.578" y="42.702" width="4.701" height="4.701"/>
<rect x="38.831" y="42.702" width="4.701" height="4.701"/>
</svg>
