<?xml version="1.0" encoding="utf-8"?>
<!-- Generator: Adobe Illustrator 15.1.0, SVG Export Plug-In . SVG Version: 6.00 Build 0)  -->
<!DOCTYPE svg PUBLIC "-//W3C//DTD SVG 1.1//EN" "http://www.w3.org/Graphics/SVG/1.1/DTD/svg11.dtd">
<svg version="1.1" id="圖層_1" xmlns="http://www.w3.org/2000/svg" xmlns:xlink="http://www.w3.org/1999/xlink" x="0px" y="0px"
	 width="70.77px" height="39.334px" viewBox="0 0 70.77 39.334" enable-background="new 0 0 70.77 39.334" xml:space="preserve">
<path d="M66.681,15.13l-10.111-3.184c-1.186-0.978-7.661-6.32-9.858-8.159C43.521,1.116,41.532,0,37.473,0H24.236
	c-2.993,0-4.342,0.856-5.772,1.761c-3.75,2.374-9.794,8.118-11.161,9.445L4.32,11.738C1.898,12.137,0,14.417,0,16.928v9.346
	c0,0.657,0.252,1.281,0.714,1.76l3.879,3.993c0.473,0.485,1.133,0.764,1.811,0.764h2.449c0.721,3.723,4.001,6.543,7.93,6.543
	c3.93,0,7.21-2.82,7.932-6.543h22.943c0.722,3.723,4.002,6.543,7.932,6.543s7.209-2.82,7.931-6.543h2.124
	c0.725,0,1.416-0.311,1.893-0.854l2.604-2.948c0.405-0.462,0.629-1.055,0.629-1.669v-7.01C70.77,17.863,69.017,15.649,66.681,15.13
	 M16.783,36.834c-3.078,0-5.581-2.504-5.581-5.582c0-3.077,2.503-5.582,5.581-5.582s5.583,2.505,5.583,5.582
	C22.366,34.33,19.861,36.834,16.783,36.834 M55.59,36.834c-3.078,0-5.583-2.504-5.583-5.582c0-3.077,2.505-5.582,5.583-5.582
	c3.077,0,5.581,2.505,5.581,5.582C61.171,34.33,58.667,36.834,55.59,36.834 M68.265,27.337l-2.603,2.947
	c-0.003,0.003-0.007,0.007-0.018,0.007h-2.035c-0.479-4.004-3.89-7.121-8.02-7.121s-7.542,3.116-8.02,7.119l-22.768-0.003
	c-0.479-4.002-3.89-7.116-8.019-7.116c-4.128,0-7.537,3.113-8.018,7.114l-2.38-0.001L2.5,26.274v-9.346
	c0-1.299,0.999-2.521,2.243-2.726l3.758-0.671l0.276-0.27c2.389-2.347,7.865-7.388,11.025-9.388C21.107,3.046,21.969,2.5,24.236,2.5
	h13.236c3.28,0,4.715,0.76,7.635,3.204l10.247,8.48c0,0,8.13,2.493,10.753,3.381c1.063,0.359,1.976,1.243,2.13,2.391h-1.921
	c-0.691,0-1.25,0.559-1.25,1.25s0.559,1.25,1.25,1.25h1.952L68.265,27.337z"/>
<path d="M18.926,8.71c-1.578,2.146-2.498,4.072-2.674,4.446c-0.357,0.769-0.298,1.657,0.159,2.377
	c0.458,0.717,1.239,1.145,2.089,1.145h11.551h17.477c1.023,0,1.956-0.643,2.321-1.605c0.36-0.958,0.086-2.056-0.681-2.732
	c-0.045-0.04-4.813-4.214-6.502-5.55c-2.378-1.881-3.18-2.514-5.636-2.514H24.572C23.554,4.277,21.089,5.769,18.926,8.71
	 M28.801,14.181l-10.282,0.03c0.094-0.2,0.966-2.016,2.43-4.032c1.835-2.524,3.403-3.247,3.815-3.402h4.037V14.181z M31.301,14.178
	V6.777h5.729c1.587,0,1.775,0.149,4.087,1.977c1.506,1.191,5.875,5.003,6.379,5.424H31.301z"/>
<path d="M36.119,19.271h-2.536c-0.69,0-1.25,0.56-1.25,1.25c0,0.69,0.56,1.25,1.25,1.25h2.536c0.689,0,1.25-0.56,1.25-1.25
	C37.369,19.831,36.809,19.271,36.119,19.271"/>
<path d="M21.664,19.271h-2.533c-0.691,0-1.25,0.56-1.25,1.25c0,0.69,0.559,1.25,1.25,1.25h2.533c0.69,0,1.25-0.56,1.25-1.25
	C22.914,19.831,22.354,19.271,21.664,19.271"/>
</svg>
