<?xml version="1.0" encoding="utf-8"?>
<!-- Generator: Adobe Illustrator 15.1.0, SVG Export Plug-In . SVG Version: 6.00 Build 0)  -->
<!DOCTYPE svg PUBLIC "-//W3C//DTD SVG 1.1//EN" "http://www.w3.org/Graphics/SVG/1.1/DTD/svg11.dtd">
<svg version="1.1" id="圖層_1" xmlns="http://www.w3.org/2000/svg" xmlns:xlink="http://www.w3.org/1999/xlink" x="0px" y="0px"
	 width="47.575px" height="39.168px" viewBox="0 0 47.575 39.168" enable-background="new 0 0 47.575 39.168" xml:space="preserve">
<path d="M43.661,13.5h-4.766L34.611,1.73c-0.496-1.364-2.005-2.068-3.369-1.571L1.731,10.9c-1.365,0.497-2.068,2.005-1.572,3.37
	l5.366,14.742l1.277,3.508c0.496,1.364,2.005,2.067,3.369,1.571l0.73-0.266v1.427c0,2.158,1.756,3.914,3.915,3.914h28.845
	c2.157,0,3.915-1.756,3.915-3.914V17.416C47.576,15.256,45.818,13.5,43.661,13.5z M44.576,17.416v2.779H13.901v-2.779
	c0-0.504,0.411-0.915,0.915-0.915h28.845C44.165,16.5,44.576,16.912,44.576,17.416z M24.886,6.025l3.995-1.454
	c1.103-0.402,2.322,0.167,2.723,1.269l0.357,0.98c0.4,1.102-0.167,2.322-1.271,2.723l-3.995,1.454
	c-1.103,0.401-2.321-0.167-2.723-1.27l-0.356-0.979C23.215,7.646,23.784,6.426,24.886,6.025z M43.661,36.167H14.816
	c-0.504,0-0.915-0.409-0.915-0.914v-10.39h30.675v10.39C44.576,35.758,44.165,36.167,43.661,36.167z"/>
</svg>
