<?xml version="1.0" encoding="utf-8"?>
<!-- Generator: Adobe Illustrator 15.1.0, SVG Export Plug-In . SVG Version: 6.00 Build 0)  -->
<!DOCTYPE svg PUBLIC "-//W3C//DTD SVG 1.1//EN" "http://www.w3.org/Graphics/SVG/1.1/DTD/svg11.dtd">
<svg version="1.1" id="圖層_1" xmlns="http://www.w3.org/2000/svg" xmlns:xlink="http://www.w3.org/1999/xlink" x="0px" y="0px"
	 width="67.225px" height="67.008px" viewBox="0 0 67.225 67.008" enable-background="new 0 0 67.225 67.008" xml:space="preserve">
<path d="M55.296,12.605h-0.479V11.93C54.817,5.352,49.467,0,42.888,0H11.929C5.351,0,0,5.352,0,11.93v21.561
	c0,6.575,5.35,11.925,11.928,11.925h0.479v0.598c-0.489,13.123-2.687,16.007-3.415,16.962c-0.62,0.82-0.739,1.813-0.319,2.658
	c0.206,0.412,0.852,1.374,2.419,1.374c0.056,0,0.216-0.007,0.274-0.011c7.838-0.613,11.845-4.948,15.064-8.43
	c0.17-0.185,0.339-0.367,0.506-0.546h28.359c6.578,0,11.929-5.351,11.929-11.926V24.534C67.225,17.957,61.874,12.605,55.296,12.605
	 M11.929,41.016c-4.152,0-7.529-3.375-7.529-7.524V11.93c0-4.151,3.377-7.53,7.529-7.53h30.959c4.152,0,7.53,3.379,7.53,7.53v0.675
	H24.336c-6.577,0-11.929,5.352-11.929,11.929l0.001,16.481H11.929z M62.824,46.096c0,4.149-3.377,7.525-7.528,7.525H25.988
	c-0.6,0-1.173,0.245-1.588,0.678c-0.395,0.412-0.794,0.842-1.199,1.281c-2.355,2.546-4.772,5.162-8.72,6.383
	c1.011-2.771,2.014-7.482,2.326-15.867V24.534c0-4.152,3.377-7.529,7.529-7.529h30.96c4.151,0,7.528,3.377,7.528,7.529V46.096z"/>
<path d="M29.171,32.296c-1.667,0-3.019,1.351-3.019,3.016c0,1.667,1.352,3.019,3.019,3.019s3.02-1.352,3.02-3.019
	C32.191,33.647,30.838,32.296,29.171,32.296"/>
<path d="M39.78,32.296c-1.667,0-3.02,1.351-3.02,3.016c0,1.667,1.353,3.019,3.02,3.019c1.668,0,3.019-1.352,3.019-3.019
	C42.799,33.647,41.448,32.296,39.78,32.296"/>
<path d="M50.389,32.296c-1.666,0-3.02,1.351-3.02,3.016c0,1.667,1.354,3.019,3.02,3.019c1.667,0,3.019-1.352,3.019-3.019
	C53.407,33.647,52.056,32.296,50.389,32.296"/>
</svg>
