<?xml version="1.0" encoding="utf-8"?>
<!-- Generator: Adobe Illustrator 15.1.0, SVG Export Plug-In . SVG Version: 6.00 Build 0)  -->
<!DOCTYPE svg PUBLIC "-//W3C//DTD SVG 1.1//EN" "http://www.w3.org/Graphics/SVG/1.1/DTD/svg11.dtd">
<svg version="1.1" id="icons" xmlns="http://www.w3.org/2000/svg" xmlns:xlink="http://www.w3.org/1999/xlink" x="0px" y="0px"
	 width="50px" height="46.009px" viewBox="-12.5 -18.004 50 46.009" enable-background="new -12.5 -18.004 50 46.009"
	 xml:space="preserve">
<title>01</title>
<path d="M1.163,28.005C-1.393,28-3.464,25.929-3.469,23.373v-4.336l-0.283-0.297l-8.063-14.526c-1.242-2.233-0.44-5.05,1.792-6.292
	c0.002-0.002,0.004-0.002,0.007-0.005L17.612-17.42c2.237-1.242,5.051-0.44,6.295,1.792c0.004,0.005,0.004,0.009,0.004,0.014
	l8.712,15.69c0.077,0.125,0.122,0.267,0.131,0.411l-0.027,0.304h0.045c2.553,0,4.628,2.071,4.628,4.628v17.955
	c0,2.556-2.075,4.632-4.628,4.632H1.163z M32.771,25.812c1.348,0,2.439-1.091,2.444-2.438V5.418c0-1.348-1.097-2.442-2.444-2.442
	H1.163c-1.345,0.002-2.437,1.097-2.437,2.442v17.955c0.002,1.343,1.092,2.438,2.437,2.438H32.771z M3.277,21.221
	c-0.604,0-1.094-0.485-1.094-1.092c0-0.607,0.49-1.092,1.094-1.092h27.859c0.602,0,1.091,0.484,1.091,1.092
	c0,0.606-0.489,1.092-1.091,1.092H3.277z M3.277,16.237c-0.606,0-1.096-0.49-1.096-1.092c-0.002-0.606,0.488-1.097,1.092-1.097
	c0.002,0,0.002,0,0.004,0h20.598c0.607,0,1.097,0.485,1.097,1.092c0.005,0.606-0.484,1.097-1.092,1.097c0,0,0,0-0.005,0H3.277z
	 M-3.469,14.754V10.32l-1.93,0.952L-3.469,14.754z M3.408,11.597c-0.29,0-0.568-0.1-0.793-0.283
	c-0.157-0.122-0.286-0.279-0.38-0.454c-0.141-0.278-0.213-0.589-0.209-0.898V7.2C2.021,6.89,2.094,6.581,2.235,6.303
	c0.092-0.178,0.223-0.334,0.38-0.46c0.225-0.182,0.505-0.28,0.793-0.28H6.87c0.29,0,0.568,0.099,0.793,0.28
	c0.157,0.123,0.285,0.28,0.375,0.46C8.182,6.579,8.255,6.888,8.249,7.2v2.761c0.006,0.31-0.067,0.62-0.211,0.898
	c-0.09,0.175-0.218,0.332-0.375,0.454C7.44,11.497,7.16,11.597,6.87,11.597H3.408z M23.885,11.597c-0.908,0-1.635-0.737-1.635-1.636
	V7.2c-0.005-0.903,0.727-1.638,1.63-1.638h0.005h6.528c0.903,0.002,1.632,0.734,1.632,1.638v2.761c0,0.898-0.729,1.631-1.632,1.636
	H23.885z M6.063,9.408V7.741H4.214v1.667H6.063z M29.86,9.408V7.741h-5.423v1.667H29.86z M-6.461,9.358l2.992-1.482V5.418
	C-3.467,4.8-3.343,4.187-3.101,3.617l0.135-0.25l-5.277,2.782L-6.461,9.358z M-9.305,4.232l32.3-16.997l-0.993-1.793
	c-0.655-1.179-2.144-1.604-3.325-0.948L-8.953-0.173c-1.182,0.656-1.606,2.143-0.952,3.325L-9.305,4.232z M9.06,0.791l16.851-8.305
	l-1.856-3.339L1.932,0.791H9.06z M30.517,0.791l-3.541-6.389L14.014,0.791H30.517z"/>
</svg>
