<?xml version="1.0" encoding="utf-8"?>
<!-- Generator: Adobe Illustrator 15.1.0, SVG Export Plug-In . SVG Version: 6.00 Build 0)  -->
<!DOCTYPE svg PUBLIC "-//W3C//DTD SVG 1.1//EN" "http://www.w3.org/Graphics/SVG/1.1/DTD/svg11.dtd">
<svg version="1.1" id="圖層_1" xmlns="http://www.w3.org/2000/svg" xmlns:xlink="http://www.w3.org/1999/xlink" x="0px" y="0px"
	 width="48px" height="36px" viewBox="0 0 48 36" enable-background="new 0 0 48 36" xml:space="preserve">
<path d="M20.045,16.625c2.328,1.784,5.58,1.784,7.91,0l19.37-14.848C46.606,0.707,45.387,0,44,0H4C2.613,0,1.393,0.707,0.675,1.777
	L20.045,16.625z"/>
<path d="M29.779,19.006c-1.701,1.305-3.74,1.956-5.779,1.956c-2.039,0-4.078-0.651-5.78-1.956L0,5.039V32c0,2.209,1.791,4,4,4h40
	c2.209,0,4-1.791,4-4V5.039L29.779,19.006z"/>
</svg>
