<?xml version="1.0" encoding="utf-8"?>
<!-- Generator: Adobe Illustrator 15.1.0, SVG Export Plug-In . SVG Version: 6.00 Build 0)  -->
<!DOCTYPE svg PUBLIC "-//W3C//DTD SVG 1.1//EN" "http://www.w3.org/Graphics/SVG/1.1/DTD/svg11.dtd">
<svg version="1.1" id="icons" xmlns="http://www.w3.org/2000/svg" xmlns:xlink="http://www.w3.org/1999/xlink" x="0px" y="0px"
	 width="41.523px" height="50px" viewBox="-8.262 -20 41.523 50" enable-background="new -8.262 -20 41.523 50"
	 xml:space="preserve">
<title>03</title>
<path d="M11.26-7.188H8.186v3.074h3.074V-7.188z M17.637-7.188h-3.074v3.074h3.074V-7.188z M11.26-0.811H8.186v3.074h3.074V-0.811z
	 M17.637-0.811h-3.074v3.074h3.074V-0.811z M17.637,11.943h-3.074v3.076h3.074V11.943z M17.637,5.566h-3.074v3.076h3.074V5.566z
	 M4.88,5.566H1.809v3.076H4.88V5.566z M11.26,5.566H8.186v3.076h3.074V5.566z M11.26,11.943H8.186v3.076h3.074V11.943z M4.88-0.811
	H1.809v3.074H4.88V-0.811z M24.014-0.811h-3.071v3.074h3.071V-0.811z M24.014,5.566h-3.071v3.076h3.071V5.566z M29.814,27.451
	v-41.021c-0.005-1.204-0.977-2.178-2.183-2.18H14.934v-1.167c-0.002-1.702-1.379-3.081-3.083-3.083H-0.903
	c-1.702,0.002-3.081,1.382-3.083,3.083v3.186c0,0.032,0.005,0.061,0.007,0.09c-0.002,0.024-0.007,0.046-0.007,0.071v41.021h-4.275
	V30h41.523v-2.549H29.814z M-1.436-16.917c0.005-0.293,0.239-0.527,0.532-0.532h12.754c0.293,0.005,0.53,0.239,0.532,0.532v1.167
	H-1.436V-16.917z M27.261,27.451H-1.438v-40.649h28.699V27.451z"/>
</svg>
