<?xml version="1.0" encoding="utf-8"?>
<!-- Generator: Adobe Illustrator 15.1.0, SVG Export Plug-In . SVG Version: 6.00 Build 0)  -->
<!DOCTYPE svg PUBLIC "-//W3C//DTD SVG 1.1//EN" "http://www.w3.org/Graphics/SVG/1.1/DTD/svg11.dtd">
<svg version="1.1" id="圖層_1" xmlns="http://www.w3.org/2000/svg" xmlns:xlink="http://www.w3.org/1999/xlink" x="0px" y="0px"
	 width="68.266px" height="75.44px" viewBox="0 0 68.266 75.44" enable-background="new 0 0 68.266 75.44" xml:space="preserve">
<path d="M62.024,16.409H46.719c0.829-0.659,1.599-1.376,2.252-2.161c2.009-2.417,2.793-5.186,2.268-8.01
	C50.533,2.449,47.57,0,43.688,0c-3,0-5.943,1.527-7.681,3.986c-0.755,1.067-1.368,2.386-1.873,3.789
	c-0.507-1.403-1.122-2.722-1.875-3.789C30.521,1.527,27.578,0,24.579,0c-3.882,0-6.846,2.448-7.551,6.237
	c-0.525,2.824,0.259,5.593,2.269,8.01c0.652,0.785,1.421,1.502,2.252,2.161H6.241C2.8,16.409,0,19.208,0,22.65v13.978
	c0,1.215,0.985,2.2,2.199,2.2h2.142v30.371c0,3.441,2.8,6.241,6.241,6.241h13.51h20.082h13.51c3.44,0,6.24-2.8,6.24-6.241V38.828
	h2.142c1.215,0,2.2-0.984,2.2-2.2V22.65C68.266,19.208,65.466,16.409,62.024,16.409 M21.354,7.042
	C21.782,4.744,23.558,4.4,24.579,4.4c1.594,0,3.16,0.814,4.087,2.126c1.591,2.25,2.507,6.667,2.954,9.882h-0.501
	c-2.748-0.828-6.39-2.508-8.438-4.973C21.502,10.018,21.068,8.581,21.354,7.042 M24.092,71.04h-13.51
	c-1.015,0-1.841-0.825-1.841-1.841V38.828h15.351V71.04z M24.092,34.429H4.4V22.65c0-1.015,0.826-1.842,1.841-1.842h17.851V34.429z
	 M39.774,71.04H28.492v-49.7h11.282V71.04z M37.148,16.409h-0.501c0.447-3.215,1.363-7.632,2.953-9.882
	C40.527,5.214,42.095,4.4,43.688,4.4c1.021,0,2.797,0.343,3.224,2.642c0.286,1.538-0.146,2.975-1.326,4.393
	C43.537,13.9,39.896,15.581,37.148,16.409 M59.524,69.199c0,1.016-0.826,1.841-1.841,1.841h-13.51V38.828h15.351V69.199z
	 M63.865,34.429H44.174v-13.62h17.851c1.015,0,1.841,0.827,1.841,1.842V34.429z"/>
</svg>
