<?xml version="1.0" encoding="utf-8"?>
<!-- Generator: Adobe Illustrator 15.1.0, SVG Export Plug-In . SVG Version: 6.00 Build 0)  -->
<!DOCTYPE svg PUBLIC "-//W3C//DTD SVG 1.1//EN" "http://www.w3.org/Graphics/SVG/1.1/DTD/svg11.dtd">
<svg version="1.1" id="圖層_1" xmlns="http://www.w3.org/2000/svg" xmlns:xlink="http://www.w3.org/1999/xlink" x="0px" y="0px"
	 width="18.304px" height="16.695px" viewBox="0 0 18.304 16.695" enable-background="new 0 0 18.304 16.695" xml:space="preserve">
<path d="M16.641,1.667C15.566,0.592,14.138,0,12.619,0c-1.276,0-2.474,0.438-3.465,1.207C8.163,0.438,6.965,0,5.689,0
	c-1.52,0-2.949,0.591-4.023,1.666C0.591,2.74,0,4.169,0,5.689s0.592,2.948,1.667,4.023l6.501,6.501h0
	c0.321,0.32,0.745,0.481,1.166,0.481c0.423,0,0.846-0.161,1.168-0.482c0.216-0.216,0.359-0.478,0.431-0.754
	c0.566,0.177,1.215,0.041,1.661-0.407c0.216-0.217,0.359-0.478,0.431-0.754c0.568,0.178,1.229,0.022,1.661-0.408
	c0.521-0.522,0.62-1.309,0.297-1.931c0.231-0.079,0.448-0.211,0.633-0.395c0.355-0.355,0.507-0.832,0.471-1.297l0.555-0.556
	C18.858,7.494,18.858,3.884,16.641,1.667z M14.908,10.857c-0.254,0.254-0.666,0.254-0.92,0l-3.603-3.602L9.679,7.962l3.603,3.602
	l0.003,0.003l0.694,0.694c0.253,0.254,0.253,0.667,0,0.921c-0.254,0.254-0.665,0.254-0.92,0l-4.3-4.301L8.051,9.589l3.838,3.838
	c0.252,0.254,0.251,0.665-0.002,0.918c-0.254,0.254-0.666,0.254-0.92,0l-3.836-3.836l-0.707,0.708l3.371,3.369
	c0.123,0.123,0.19,0.286,0.19,0.46c0,0.175-0.067,0.338-0.19,0.46c-0.255,0.255-0.665,0.253-0.919,0.001L2.374,9.006
	C1.487,8.12,1,6.941,1,5.689c0-1.253,0.488-2.43,1.374-3.316C3.259,1.487,4.438,1,5.689,1C6.673,1,7.604,1.31,8.391,1.868
	L5.921,4.315C5.619,4.617,5.452,5.018,5.452,5.446c0,0.427,0.167,0.829,0.534,1.196c0.624,0.624,1.639,0.623,2.262,0l1.994-1.994
	c0.046-0.046,0.107-0.071,0.272-0.071c0.133,0,0.242,0.108,0.242,0.243v0.447c0,0.328,0.133,0.648,0.364,0.878l0.715,0.715
	l-0.003,0.002l3.075,3.075C15.162,10.191,15.162,10.604,14.908,10.857z M15.615,9.23l-0.959-0.959l0.003-0.002l-2.832-2.831
	c-0.045-0.045-0.07-0.108-0.07-0.171V4.82c0-0.686-0.558-1.243-1.343-1.243c-0.332,0-0.645,0.129-0.879,0.364L7.541,5.935
	C7.306,6.167,6.926,6.169,6.628,5.87C6.515,5.756,6.452,5.606,6.452,5.446c0-0.16,0.063-0.311,0.174-0.422L9.3,2.375L9.153,2.227
	V2.226l0.148,0.148C10.188,1.488,11.365,1,12.619,1c1.251,0,2.429,0.488,3.314,1.374c1.828,1.828,1.828,4.803,0,6.631l-0.276,0.276
	C15.642,9.266,15.631,9.246,15.615,9.23z"/>
</svg>
