<?xml version="1.0" encoding="utf-8"?>
<!-- Generator: Adobe Illustrator 15.1.0, SVG Export Plug-In . SVG Version: 6.00 Build 0)  -->
<!DOCTYPE svg PUBLIC "-//W3C//DTD SVG 1.1//EN" "http://www.w3.org/Graphics/SVG/1.1/DTD/svg11.dtd">
<svg version="1.1" id="圖層_1" xmlns="http://www.w3.org/2000/svg" xmlns:xlink="http://www.w3.org/1999/xlink" x="0px" y="0px"
	 width="304.358px" height="304.358px" viewBox="0 0 304.358 304.358" enable-background="new 0 0 304.358 304.358"
	 xml:space="preserve">
<path fill-rule="evenodd" clip-rule="evenodd" d="M70.606,166.049l56.19,59.088c0,0,25.96,29.857,45.201,0.028
	c10.023-15.535,33.996-53.712,54.847-90.461c50.169-88.405,76.033-114.523,76.033-114.523
	c-20.209-11.543-60.244,14.086-91.181,61.363c-14.904,22.77-46.624,71.918-57.814,89.272c-2.532,3.929-5.698,4.563-8.395,1.862
	c-8.404-8.416-26.669-26.873-34.684-36.347c-1.712-2.018-4.426-4.869-5.741-6.332c-3.383-3.78-9.74-4.439-14.44-1.295
	c-2.608,1.737-5.113,4.054-7.502,6.249c-5.425,4.977-11.033,10.063-14.699,14.802C64.539,154.76,64.392,160.568,70.606,166.049"/>
<path d="M265.981,91.657c9.643,18.06,15.131,38.661,15.131,60.522c0,71.096-57.839,128.934-128.935,128.934
	c-71.094,0-128.932-57.838-128.932-128.934c0-71.095,57.838-128.933,128.932-128.933c26.874,0,51.845,8.274,72.521,22.396
	c5.549-6.119,11.215-11.645,16.902-16.489C216.475,10.84,185.58,0,152.178,0C68.262,0,0,68.268,0,152.179
	c0,83.912,68.262,152.179,152.177,152.179c83.908,0,152.181-68.268,152.181-152.179c0-30.307-8.946-58.552-24.28-82.298
	C275.812,76.261,271.112,83.486,265.981,91.657"/>
</svg>
