<!-- Generated by IcoMoon.io -->
<svg version="1.1" xmlns="http://www.w3.org/2000/svg" width="512" height="512" viewBox="0 0 512 512">
<title></title>
<g id="icomoon-ignore">
</g>
<path fill="#000" d="M447.452 425.684c40.113-45.206 64.548-104.633 64.548-169.684 0-67.681-26.447-129.262-69.491-175.087 0 0 0-0.009 0-0.009-0.036-0.053-0.089-0.070-0.115-0.115-44.836-47.66-107.653-78.168-177.523-80.561l-0.009-0.009-4.988-0.133c-1.289-0.044-2.577-0.088-3.875-0.088s-2.587 0.044-3.875 0.088l-4.97 0.133-0.009 0.009c-69.87 2.393-132.688 32.901-177.523 80.561-0.035 0.044-0.088 0.062-0.115 0.115 0 0 0 0.009-0.009 0.017-43.052 45.815-69.499 107.397-69.499 175.077 0 65.050 24.435 124.478 64.547 169.684 0.053 0.079 0.053 0.168 0.115 0.247 0.159 0.221 0.388 0.327 0.556 0.529 45.073 50.388 109.745 82.847 181.919 85.319l0.009 0.009 4.97 0.132c1.298 0.036 2.587 0.079 3.884 0.079s2.587-0.044 3.875-0.089l4.97-0.132 0.009-0.009c72.254-2.481 136.995-35.002 182.069-85.495 0.115-0.15 0.3-0.194 0.406-0.353 0.070-0.070 0.070-0.159 0.123-0.238zM17.876 264.827h105.957c0.998 37.42 8.307 73.781 21.318 107.846-25.106 9.084-49.108 21.265-71.6 36.467-33.077-39.344-53.663-89.494-55.675-144.313zM78.371 97.306c21.963 14.283 45.347 25.724 69.738 34.268-14.936 36.255-23.199 75.344-24.276 115.597h-105.957c2.11-57.441 24.602-109.745 60.495-149.866zM494.124 247.173h-105.957c-1.077-40.254-9.339-79.343-24.276-115.597 24.39-8.545 47.775-19.986 69.738-34.269 35.893 40.122 58.385 92.425 60.495 149.866zM247.173 132.087c-25.52-0.724-50.573-4.528-74.779-11.326 17.893-36.705 43.158-69.835 74.779-97.421v108.747zM247.173 149.743v97.43h-105.684c1.086-38.382 9.137-75.608 23.535-110.124 26.536 7.689 54.087 11.944 82.149 12.694zM264.827 149.743c28.063-0.75 55.614-4.996 82.159-12.694 14.398 34.516 22.449 71.742 23.534 110.124h-105.692v-97.43zM264.827 132.087v-108.747c31.62 27.586 56.885 60.716 74.779 97.421-24.205 6.797-49.258 10.602-74.779 11.326zM356.714 115.394c-16.958-35.531-40.492-67.902-69.632-95.647 51.695 6.762 98.207 30.138 134.029 64.6-20.339 12.906-41.913 23.287-64.397 31.047zM155.286 115.394c-22.484-7.76-44.059-18.141-64.388-31.047 35.814-34.463 82.335-57.839 134.029-64.6-29.148 27.745-52.683 60.116-69.641 95.647zM141.488 264.827h105.684v88.611c-29.193 0.777-57.794 5.332-85.284 13.603-12.421-32.265-19.403-66.737-20.4-102.214zM247.173 371.094v117.566c-33.845-29.529-60.38-65.404-78.424-105.198 25.309-7.459 51.597-11.608 78.424-12.368zM264.827 488.66v-117.566c26.827 0.75 53.115 4.908 78.424 12.358-18.043 39.803-44.579 75.679-78.424 105.207zM264.827 353.439v-88.612h105.684c-0.998 35.478-7.98 69.95-20.409 102.224-27.481-8.281-56.082-12.836-85.274-13.612zM388.166 264.827h105.957c-2.012 54.82-22.59 104.969-55.675 144.313-22.493-15.201-46.495-27.383-71.601-36.467 13.021-34.065 20.321-70.427 21.318-107.846zM85.548 422.365c20.886-13.877 43.123-25.035 66.357-33.377 17.169 38.488 41.816 73.56 73.013 103.265-54.298-7.106-102.894-32.529-139.37-69.888zM287.082 492.252c31.197-29.696 55.844-64.768 73.013-103.265 23.234 8.342 45.462 19.5 66.357 33.377-36.476 37.358-85.072 62.782-139.37 69.888z"></path>
</svg>
