<?xml version="1.0" encoding="utf-8"?>
<!-- Generator: Adobe Illustrator 15.1.0, SVG Export Plug-In . SVG Version: 6.00 Build 0)  -->
<!DOCTYPE svg PUBLIC "-//W3C//DTD SVG 1.1//EN" "http://www.w3.org/Graphics/SVG/1.1/DTD/svg11.dtd">
<svg version="1.1" id="圖層_1" xmlns="http://www.w3.org/2000/svg" xmlns:xlink="http://www.w3.org/1999/xlink" x="0px" y="0px"
	 width="160px" height="160px" viewBox="0 0 160 160" enable-background="new 0 0 160 160" xml:space="preserve">
<path fill="#040000" d="M117.07,22.93c-11.03,0-20,8.97-20,20c0,11.03,8.97,20,20,20s20-8.97,20-20
	C137.07,31.9,128.101,22.93,117.07,22.93 M117.07,52.93c-5.513,0-10-4.487-10-10c0-5.513,4.487-10,10-10s10,4.487,10,10
	C127.07,48.443,122.583,52.93,117.07,52.93"/>
<path fill="#040000" d="M110,0C82.432,0,60,22.432,60,50c0,3.892,0.459,7.773,1.357,11.567L0,122.931V160h40v-20h20v-20h17.07
	l21.363-21.356C102.227,99.541,106.108,100,110,100c27.568,0,50-22.432,50-50C160,22.432,137.568,0,110,0 M110,90
	c-3.921,0-7.827-0.581-11.616-1.724l-2.866-0.869L72.93,110H50v20H30v20H10v-22.93l62.593-62.588l-0.869-2.866
	C70.581,57.827,70,53.921,70,50c0-22.056,17.944-40,40-40s40,17.944,40,40C150,72.056,132.056,90,110,90"/>
</svg>
