<?xml version="1.0" encoding="utf-8"?>
<!-- Generator: Adobe Illustrator 15.1.0, SVG Export Plug-In . SVG Version: 6.00 Build 0)  -->
<!DOCTYPE svg PUBLIC "-//W3C//DTD SVG 1.1//EN" "http://www.w3.org/Graphics/SVG/1.1/DTD/svg11.dtd">
<svg version="1.1" id="圖層_1" xmlns="http://www.w3.org/2000/svg" xmlns:xlink="http://www.w3.org/1999/xlink" x="0px" y="0px"
	 width="93.402px" height="100px" viewBox="0 0 93.402 100" enable-background="new 0 0 93.402 100" xml:space="preserve">
<g>
	<path fill="#040000" d="M5.148,25.093c0,0,27.238,32.202,28.511,34.872c0.647,1.036,0.5,2.399,0.361,3.269
		c-0.785,4.975-0.572,4.755-5.602,28.159c0,0-17.32-12.274-4.945-25.252C23.474,66.141-13.222,61.957,5.148,25.093z"/>
	<path fill="#040000" d="M27.479,45.399C21.728,34.286,21.895,18.404,42.157,0c20.975,57.064,21.459,58.71,21.55,60.65
		c0.044,1.125-0.175,2.548-0.438,3.16c-2.722,6.438-21.423,36.152-21.423,36.152S24.5,77.315,46.968,64.042
		C46.968,64.042,33.749,57.501,27.479,45.399z"/>
	<path fill="#040000" d="M63.934,70.272l2.289-3.186c0,0,1.063,2.394,2.409,3.998c1.886,2.235,3.049,2.071,4.835,2.041
		c1.224-0.02,3.416-1.74,3.411-4.79c0-1.184-0.844-3.191-2.419-5.808c-1.876-3.135-4.577-5.468-6.593-10.207
		c-0.953-2.22-1.344-3.879-1.41-5.369c-0.072-1.459-0.405-2.691,1.048-6.311c0.512-1.247,2.498-4.999,5.918-6.705
		c1.085-0.545,3.491-1.773,7.737-1.424c4.416,0.364,9.499,3.513,11.432,8.708c1.086,2.899,0.909,5.338,0.459,7.052
		c-0.516,1.935-1.591,3.034-1.823,3.414c-0.561,0.905-3.01,2.785-5.342,2.955c-3.482,0.259-5.538-0.53-6.89-1.307
		c-2.299-1.318-3.866-3.074-4.495-6.032c-0.592-2.806-0.021-4.74,0.909-6.145c0,0,0.658-1.128,1.889-1.951
		c0.418-0.274,1.385-0.782,2.493-1.004c0.853-0.172,2.203,0.01,2.729,0.112c0,0,3.591,0.346,4.955,4.042
		c0.332,0.909,0.626,2.517,0.151,3.537c-0.491,1.044-1.048,1.994-2.44,2.144c-2.369,0.249-3.3-1.091-3.514-1.938
		c0,0,3.327,1.413,4.035-1.038c0.386-1.345-0.059-2.98-0.798-3.733c-1.031-1.055-2.668-1.952-3.986-1.761
		c-0.995,0.139-3.149,0.657-3.601,2.933c-0.324,1.59-0.107,3.599,0.648,4.976c0.957,1.733,4.231,4.636,7.854,3.869
		c2.083-0.443,3.881-1.193,4.723-4.328c0.629-2.363-0.08-4.928-0.404-5.688c-0.974-2.293-2.557-4.118-3.984-5.115
		c-1.389-0.981-3.183-2.281-7.279-2.051c-5.005,0.284-7.235,2.929-8.363,6.996c-0.521,1.9-0.168,5.771,2.198,9.416
		c2.438,3.751,5.348,7.763,6.643,10.016c0.813,1.417,1.338,2.725,1.469,5.184c-0.063,1.603-0.478,2.95-0.822,3.854
		c-1.171,2.725-3.692,4.748-4.437,5.124c-0.755,0.371-2.435,1.228-6.036,0.475C65.99,74.488,63.934,70.272,63.934,70.272z"/>
</g>
</svg>
