<?xml version="1.0" encoding="utf-8"?>
<!-- Generator: Adobe Illustrator 15.1.0, SVG Export Plug-In . SVG Version: 6.00 Build 0)  -->
<!DOCTYPE svg PUBLIC "-//W3C//DTD SVG 1.1//EN" "http://www.w3.org/Graphics/SVG/1.1/DTD/svg11.dtd">
<svg version="1.1" id="圖層_1" xmlns="http://www.w3.org/2000/svg" xmlns:xlink="http://www.w3.org/1999/xlink" x="0px" y="0px"
	 width="51.99px" height="59.695px" viewBox="0 0 51.99 59.695" enable-background="new 0 0 51.99 59.695" xml:space="preserve">
<path d="M26.358,29.946c8.256,0,14.973-6.716,14.973-14.972C41.331,6.717,34.614,0,26.358,0c-8.256,0-14.973,6.717-14.973,14.974
	C11.385,23.23,18.102,29.946,26.358,29.946 M26.358,4.4c5.83,0,10.572,4.744,10.572,10.574c0,5.829-4.742,10.572-10.572,10.572
	s-10.573-4.743-10.573-10.572C15.785,9.144,20.528,4.4,26.358,4.4"/>
<path d="M38.504,29.452c-0.755-0.142-1.526,0.117-2.041,0.683L26.348,41.292L16.116,30.15c-0.516-0.562-1.286-0.816-2.036-0.672
	C-4.696,29.027,0.727,57.495,0.727,57.495s-0.052,2.2,2.2,2.2H49.79c1.215,0,2.2-0.985,2.2-2.2
	C51.99,38.563,51.337,31.89,38.504,29.452 M5.132,55.295c0.081-16.696,1.221-19.607,8.586-21.251l11.02,11.999
	c0.419,0.456,0.962,0.735,1.628,0.712c0.619-0.002,1.207-0.264,1.623-0.722l10.892-12.015c7.468,1.643,8.623,4.551,8.704,21.276
	H5.132z"/>
</svg>
