<?xml version="1.0" encoding="utf-8"?>
<!-- Generator: Adobe Illustrator 15.1.0, SVG Export Plug-In . SVG Version: 6.00 Build 0)  -->
<!DOCTYPE svg PUBLIC "-//W3C//DTD SVG 1.1//EN" "http://www.w3.org/Graphics/SVG/1.1/DTD/svg11.dtd">
<svg version="1.1" id="icons" xmlns="http://www.w3.org/2000/svg" xmlns:xlink="http://www.w3.org/1999/xlink" x="0px" y="0px"
	 width="11.745px" height="10px" viewBox="6.632 0 11.745 10" enable-background="new 6.632 0 11.745 10" xml:space="preserve">
<g>
	<path d="M18.299,4.19c-0.324-0.324-0.811-0.463-1.25-0.324c-0.533,0.116-0.856,0.509-1.158,1.088l-0.902,0.463
		c-0.162-0.162-0.416-0.278-0.74-0.278H12.72c-0.046-0.023-0.162-0.116-0.254-0.162c-0.208-0.162-0.463-0.348-0.718-0.348h-1.296
		c-0.417,0-0.902,0.301-1.204,0.579C8.993,5.463,8.6,5.834,8.368,6.064L8.021,5.718c-0.093-0.093-0.231-0.093-0.324,0L6.655,6.76
		c0,0.068-0.023,0.115-0.023,0.185s0.023,0.116,0.069,0.162l2.848,2.847c0.046,0.047,0.116,0.07,0.162,0.07
		c0.046,0,0.116-0.023,0.162-0.07l1.042-1.041c0.046-0.047,0.069-0.093,0.069-0.162s-0.023-0.115-0.069-0.162l-0.093-0.092
		c0.046-0.023,0.116-0.047,0.185-0.047h3.796c0.463,0,2.223-1.875,2.246-1.898c0.486-0.648,0.949-1.366,1.319-2.106
		C18.391,4.375,18.368,4.259,18.299,4.19z M9.71,9.444l-2.523-2.5L7.882,6.25l2.5,2.5L9.71,9.444z M16.678,6.273
		c-0.301,0.348-1.619,1.62-1.921,1.736h-3.75c-0.185,0-0.37,0.046-0.509,0.162l-1.782-1.76C8.947,6.181,9.34,5.811,9.595,5.556
		c0.231-0.231,0.625-0.463,0.88-0.463h1.296c0.116,0,0.301,0.139,0.439,0.254c0.186,0.139,0.348,0.254,0.509,0.254h1.552
		c0.369,0,0.531,0.209,0.531,0.417s-0.162,0.417-0.531,0.417h-2.315v0.463h2.315c0.671,0,0.994-0.439,0.994-0.88
		c0-0.069-0.022-0.14-0.022-0.208l0.949-0.486c0.046-0.023,0.069-0.046,0.093-0.093c0.301-0.602,0.532-0.833,0.902-0.926
		c0.231-0.069,0.486-0.023,0.672,0.092C17.512,5.069,17.118,5.694,16.678,6.273z"/>
	<path d="M11.655,3.843c0-0.44,0.995-0.764,1.735-0.787c0.023,0,0.047,0,0.07,0h0.046l0,0c0.023,0,0.046,0,0.069,0
		c0.741,0.023,1.76,0.347,1.76,0.787v0.532h0.463V3.843c0-0.625-0.718-0.996-1.436-1.158c0.023-0.023,0.023-0.023,0.047-0.023
		c0.23-0.255,0.37-0.579,0.347-0.926V1.366c0.023-0.347-0.093-0.671-0.301-0.926C14.225,0.185,13.924,0.023,13.6,0
		c-0.348-0.023-0.671,0.093-0.926,0.301c-0.255,0.231-0.417,0.533-0.44,0.856c0,0.07,0,0.116,0,0.162v0.347
		c-0.023,0.394,0.139,0.741,0.394,0.972c-0.718,0.162-1.435,0.533-1.435,1.158v0.532h0.463V3.843z M12.697,1.204
		c0.023-0.208,0.116-0.417,0.278-0.556c0.139-0.116,0.324-0.185,0.532-0.185c0.023,0,0.046,0,0.046,0
		c0.209,0.023,0.417,0.116,0.557,0.278c0.139,0.162,0.208,0.371,0.185,0.602v0.37v0.023c0,0.231-0.069,0.439-0.231,0.579
		c-0.139,0.139-0.324,0.231-0.51,0.254c-0.022,0-0.046,0-0.068,0c-0.023,0-0.047,0-0.07,0c-0.417-0.046-0.74-0.417-0.74-0.856V1.319
		C12.697,1.273,12.697,1.25,12.697,1.204z"/>
</g>
</svg>
