<?xml version="1.0" encoding="utf-8"?>
<!-- Generator: Adobe Illustrator 15.1.0, SVG Export Plug-In . SVG Version: 6.00 Build 0)  -->
<!DOCTYPE svg PUBLIC "-//W3C//DTD SVG 1.1//EN" "http://www.w3.org/Graphics/SVG/1.1/DTD/svg11.dtd">
<svg version="1.1" id="圖層_1" xmlns="http://www.w3.org/2000/svg" xmlns:xlink="http://www.w3.org/1999/xlink" x="0px" y="0px"
	 width="74.353px" height="75.298px" viewBox="0 0 74.353 75.298" enable-background="new 0 0 74.353 75.298" xml:space="preserve">
<path d="M3.348,14.979l12.81-0.099L15.942,3.347H52.25v60.445H3.348V14.979z M12.53,0l0.217,11.558L0,11.655v55.485h55.599V0H12.53z
	"/>
<polygon points="52.671,8.227 70.451,11.938 59.221,71.333 22.659,63.825 21.985,67.105 61.88,75.298 74.352,9.33 53.354,4.949 "/>
<rect x="5.778" y="-1.431" transform="matrix(-0.6741 -0.7386 0.7386 -0.6741 7.25 17.3519)" width="3.348" height="17.015"/>
<rect x="9.786" y="27.589" width="35.73" height="3.349"/>
<rect x="9.786" y="35.96" width="35.73" height="3.349"/>
<rect x="9.786" y="44.332" width="35.73" height="3.348"/>
</svg>
