<?xml version="1.0" encoding="utf-8"?>
<!-- Generator: Adobe Illustrator 15.1.0, SVG Export Plug-In . SVG Version: 6.00 Build 0)  -->
<!DOCTYPE svg PUBLIC "-//W3C//DTD SVG 1.1//EN" "http://www.w3.org/Graphics/SVG/1.1/DTD/svg11.dtd">
<svg version="1.1" id="圖層_1" xmlns="http://www.w3.org/2000/svg" xmlns:xlink="http://www.w3.org/1999/xlink" x="0px" y="0px"
	 width="304.762px" height="304.762px" viewBox="0 0 304.762 304.762" enable-background="new 0 0 304.762 304.762"
	 xml:space="preserve">
<path fill="#040000" d="M266.667,0H38.095C17.085,0,0,17.085,0,38.096v228.571c0,21.011,17.085,38.096,38.095,38.096h228.572
	c21.009,0,38.095-17.085,38.095-38.096V38.096C304.762,17.085,287.676,0,266.667,0 M285.714,266.667
	c0,10.5-8.547,19.049-19.047,19.049H38.095c-10.5,0-19.048-8.549-19.048-19.049V38.096c0-10.501,8.548-19.048,19.048-19.048h228.572
	c10.5,0,19.047,8.547,19.047,19.048V266.667z"/>
<path fill="#040000" d="M161.905,57.143H85.714V247.62h19.048v-76.19h57.143c31.51,0,57.143-25.633,57.143-57.143
	C219.048,82.776,193.415,57.143,161.905,57.143 M161.905,152.381h-57.143v-76.19h57.143c21.01,0,38.095,17.085,38.095,38.095
	C200,135.296,182.915,152.381,161.905,152.381"/>
</svg>
