<?xml version="1.0" encoding="utf-8"?>
<!-- Generator: Adobe Illustrator 15.1.0, SVG Export Plug-In . SVG Version: 6.00 Build 0)  -->
<!DOCTYPE svg PUBLIC "-//W3C//DTD SVG 1.1//EN" "http://www.w3.org/Graphics/SVG/1.1/DTD/svg11.dtd">
<svg version="1.1" id="圖層_1" xmlns="http://www.w3.org/2000/svg" xmlns:xlink="http://www.w3.org/1999/xlink" x="0px" y="0px"
	 width="117.57px" height="123.414px" viewBox="0 0 117.57 123.414" enable-background="new 0 0 117.57 123.414"
	 xml:space="preserve">
<path d="M115.517,119.308H2.053c-1.135,0-2.053,0.918-2.053,2.054c0,1.135,0.918,2.053,2.053,2.053h113.464
	c1.136,0,2.054-0.918,2.054-2.053C117.57,120.226,116.652,119.308,115.517,119.308"/>
<path d="M2.054,115.254c0.3,0,0.603-0.065,0.888-0.201l59.695-28.606c0.199-0.095,0.37-0.226,0.522-0.372
	c0.013-0.011,0.028-0.015,0.04-0.027l0.007-0.007c0.001-0.001,0.004-0.003,0.005-0.004l51.439-51.442
	c0.802-0.802,0.802-2.102,0-2.904c-0.802-0.801-2.101-0.801-2.903,0L62.634,80.808c-1.626-4.025-5.259-10.547-12.326-12.957
	l48.802-48.8c0.801-0.802,0.801-2.101,0-2.904c-0.803-0.801-2.101-0.801-2.904,0l-48.801,48.8
	c-2.411-7.067-8.933-10.7-12.957-12.326L83.563,3.504c0.798-0.802,0.798-2.101,0-2.902c-0.806-0.803-2.103-0.803-2.905,0
	L29.227,52.034c-0.169,0.166-0.313,0.361-0.419,0.583L0.203,112.313c-0.377,0.786-0.217,1.724,0.399,2.339
	C0.995,115.048,1.52,115.254,2.054,115.254 M44.162,69.25c0.012,0.122,0.063,0.229,0.096,0.344c0.026,0.095,0.038,0.188,0.078,0.278
	c0.1,0.229,0.233,0.436,0.405,0.609c0.005,0.006,0.006,0.014,0.012,0.02s0.014,0.008,0.02,0.014
	c0.175,0.171,0.382,0.304,0.609,0.404c0.091,0.039,0.185,0.053,0.28,0.078c0.114,0.032,0.221,0.083,0.342,0.097
	c8.252,0.809,12.015,8.938,13.257,12.418l-32.29,15.473l-10.701-10.7L31.746,55.99C35.222,57.219,43.348,60.958,44.162,69.25
	 M14.389,92.209l8.656,8.656L6.423,108.83L14.389,92.209z"/>
</svg>
