<?xml version="1.0" encoding="utf-8"?>
<!-- Generator: Adobe Illustrator 15.1.0, SVG Export Plug-In . SVG Version: 6.00 Build 0)  -->
<!DOCTYPE svg PUBLIC "-//W3C//DTD SVG 1.1//EN" "http://www.w3.org/Graphics/SVG/1.1/DTD/svg11.dtd">
<svg version="1.1" id="圖層_1" xmlns="http://www.w3.org/2000/svg" xmlns:xlink="http://www.w3.org/1999/xlink" x="0px" y="0px"
	 width="61.31px" height="61.296px" viewBox="0 0 61.31 61.296" enable-background="new 0 0 61.31 61.296" xml:space="preserve">
<g>
	<g>
		<path d="M30.65,61.296C13.75,61.296,0,47.548,0,30.649C0,13.749,13.75,0,30.65,0C47.556,0,61.31,13.749,61.31,30.649
			C61.31,47.548,47.556,61.296,30.65,61.296z M30.65,2.5C15.128,2.5,2.5,15.127,2.5,30.649c0,15.52,12.628,28.147,28.151,28.147
			c15.527,0,28.159-12.627,28.159-28.147C58.81,15.127,46.178,2.5,30.65,2.5z"/>
	</g>
</g>
<g>
	<path d="M25.914,22.542c-0.96,0-1.61-0.086-1.705-0.099c-0.684-0.096-1.16-0.729-1.063-1.412c0.096-0.683,0.725-1.163,1.412-1.063
		c0.315,0.043,7.13,0.901,9.236-4.25c0.183-0.447,0.607-0.749,1.09-0.775c0.483-0.033,0.937,0.228,1.167,0.653
		c0.022,0.042,2.396,4.321,5.532,4.321c0.69,0,1.25,0.56,1.25,1.25s-0.56,1.25-1.25,1.25c-2.95,0-5.229-2.194-6.527-3.845
		C32.563,22.017,28.289,22.542,25.914,22.542z"/>
</g>
<g>
	<path d="M13.058,47.145c-0.558,0-1.066-0.376-1.21-0.941c-0.17-0.67,0.234-1.35,0.903-1.52c8.365-2.128,10.217-3.656,10.569-4.037
		c0-0.764,0.003-3.195,0-4.433c-0.002-0.69,0.556-1.251,1.247-1.253c0.001,0,0.002,0,0.003,0c0.689,0,1.248,0.558,1.25,1.247
		c0.003,1.358,0,4.154,0,4.613c0.149,2.059-3.929,4.116-12.452,6.284C13.264,47.132,13.16,47.145,13.058,47.145z"/>
</g>
<g>
	<path d="M48.252,47.145c-0.103,0-0.206-0.013-0.31-0.039c-8.521-2.168-12.6-4.225-12.451-6.284c-0.001-0.459-0.005-3.255,0-4.614
		c0.002-0.689,0.562-1.246,1.25-1.246c0.001,0,0.003,0,0.004,0c0.69,0.002,1.248,0.563,1.246,1.254
		c-0.004,1.237-0.001,3.668,0,4.432c0.351,0.38,2.203,1.908,10.568,4.037c0.669,0.17,1.073,0.85,0.902,1.52
		C49.318,46.769,48.81,47.145,48.252,47.145z"/>
</g>
<g>
	<path d="M26.986,38.194c-0.097,0-0.195-0.011-0.293-0.034c-1.667-0.401-2.643-1.122-2.898-1.329
		c-3.304-2.394-4.939-9.331-5.386-13.066c-0.627-5.228,0.156-9.025,2.396-11.608c2.076-2.394,5.369-3.658,9.79-3.758
		c0.02-0.001,0.101-0.001,0.12,0c4.421,0.1,7.715,1.364,9.79,3.758c2.24,2.582,3.024,6.379,2.398,11.609
		c-0.447,3.736-2.085,10.673-5.388,13.066c-0.257,0.208-1.231,0.929-2.898,1.329c-0.667,0.161-1.347-0.252-1.508-0.924
		c-0.161-0.671,0.253-1.346,0.924-1.508c1.246-0.299,1.9-0.833,1.906-0.839c0.024-0.02,0.063-0.05,0.088-0.068
		c2.177-1.546,3.858-6.881,4.394-11.353c0.538-4.49-0.053-7.654-1.805-9.674c-1.594-1.839-4.271-2.813-7.958-2.897
		c-3.693,0.084-6.371,1.059-7.965,2.897c-1.751,2.02-2.341,5.184-1.802,9.673c0.534,4.472,2.214,9.807,4.392,11.354
		c0.034,0.023,0.066,0.05,0.098,0.077l0,0c0,0,0.656,0.531,1.897,0.829c0.671,0.162,1.084,0.837,0.923,1.508
		C28.063,37.81,27.551,38.194,26.986,38.194z"/>
</g>
</svg>
