<?xml version="1.0" encoding="utf-8"?>
<!-- Generator: Adobe Illustrator 15.1.0, SVG Export Plug-In . SVG Version: 6.00 Build 0)  -->
<!DOCTYPE svg PUBLIC "-//W3C//DTD SVG 1.1//EN" "http://www.w3.org/Graphics/SVG/1.1/DTD/svg11.dtd">
<svg version="1.1" id="圖層_1" xmlns="http://www.w3.org/2000/svg" xmlns:xlink="http://www.w3.org/1999/xlink" x="0px" y="0px"
	 width="43.275px" height="43.246px" viewBox="0 0 43.275 43.246" enable-background="new 0 0 43.275 43.246" xml:space="preserve">
<path d="M43.255,34.129c0.092,0.703-0.123,1.313-0.641,1.833l-6.093,6.046c-0.276,0.306-0.636,0.565-1.077,0.779
	c-0.442,0.214-0.878,0.351-1.307,0.412c-0.029,0-0.122,0.009-0.274,0.023c-0.151,0.015-0.352,0.022-0.596,0.022
	c-0.579,0-1.52-0.099-2.816-0.297c-1.299-0.198-2.886-0.689-4.766-1.468c-1.879-0.778-4.009-1.945-6.391-3.504
	c-2.382-1.557-4.917-3.696-7.605-6.413c-2.138-2.106-3.909-4.123-5.314-6.047s-2.535-3.704-3.39-5.338
	c-0.856-1.633-1.497-3.115-1.924-4.443c-0.428-1.329-0.718-2.474-0.87-3.438c-0.154-0.96-0.215-1.716-0.185-2.266
	c0.031-0.55,0.047-0.856,0.047-0.916c0.061-0.428,0.199-0.863,0.413-1.305C0.68,7.366,0.94,7.008,1.245,6.733l6.093-6.092
	C7.766,0.213,8.254,0,8.804,0c0.397,0,0.748,0.113,1.054,0.344c0.305,0.227,0.565,0.511,0.778,0.847l4.903,9.299
	c0.275,0.489,0.351,1.023,0.229,1.603s-0.382,1.069-0.779,1.466l-2.245,2.245c-0.061,0.061-0.114,0.161-0.16,0.298
	c-0.047,0.138-0.069,0.252-0.069,0.345c0.122,0.64,0.397,1.374,0.824,2.199c0.366,0.731,0.932,1.625,1.696,2.679
	c0.763,1.053,1.847,2.268,3.252,3.64c1.374,1.407,2.596,2.498,3.665,3.277c1.069,0.778,1.962,1.352,2.68,1.719
	c0.718,0.366,1.268,0.586,1.65,0.663l0.571,0.115c0.062,0,0.161-0.023,0.299-0.069c0.136-0.046,0.235-0.099,0.297-0.16l2.61-2.658
	c0.552-0.486,1.192-0.731,1.926-0.731c0.519,0,0.932,0.092,1.236,0.274h0.045l8.843,5.223
	C42.751,33.015,43.132,33.517,43.255,34.129"/>
</svg>
