<?xml version="1.0" encoding="utf-8"?>
<!-- Generator: Adobe Illustrator 15.1.0, SVG Export Plug-In . SVG Version: 6.00 Build 0)  -->
<!DOCTYPE svg PUBLIC "-//W3C//DTD SVG 1.1//EN" "http://www.w3.org/Graphics/SVG/1.1/DTD/svg11.dtd">
<svg version="1.1" id="圖層_1" xmlns="http://www.w3.org/2000/svg" xmlns:xlink="http://www.w3.org/1999/xlink" x="0px" y="0px"
	 width="30.66px" height="33.191px" viewBox="0 0 30.66 33.191" enable-background="new 0 0 30.66 33.191" xml:space="preserve">
<g>
	<path d="M24.42,33.191C24.42,33.191,24.42,33.191,24.42,33.191c-4.796,0-11.81-1.52-17.995-8.756
		C-0.398,15.81-0.865,6.979,0.801,2.03L0.94,1.619l0.395-0.18C4.19,0.141,7.583,0,8.91,0c0.867,0,1.643,0.053,2.245,0.154
		l0.459,0.077l0.236,0.401c1.677,2.845,2.411,7.222,1.747,10.409l-0.066,0.319l-0.242,0.218c-0.767,0.693-2.425,1.761-3.612,2.399
		c0.388,1.247,1.39,2.856,2.988,4.798c1.598,1.943,2.983,3.237,4.133,3.86c0.854-1.041,2.221-2.461,3.049-3.081l0.262-0.195
		l0.438-0.005c3.23,0,7.337,1.567,9.766,3.727l0.349,0.31l-0.013,0.467c-0.103,3.516-0.986,6.533-2.556,8.728l-0.253,0.354
		l-0.431,0.056C26.421,33.126,25.416,33.191,24.42,33.191z M2.57,3.086c-0.583,2.104-2.2,10.471,5.399,20.08
		c5.667,6.628,12.076,8.025,16.45,8.025c0.001,0,0.001,0,0.001,0c0.762,0,1.528-0.042,2.287-0.125
		c1.378-2.136,1.816-4.77,1.922-6.788c-2.041-1.632-5.277-2.843-7.836-2.918c-0.889,0.754-2.343,2.335-2.861,3.079l-0.431,0.619
		l-0.714-0.244c-1.639-0.563-3.492-2.121-5.667-4.767c-2.176-2.644-3.347-4.764-3.582-6.479l-0.102-0.748l0.69-0.303
		c0.833-0.366,2.665-1.487,3.574-2.213c0.422-2.525-0.133-5.913-1.343-8.238C9.939,2.023,9.441,2,8.91,2
		C6.607,2,4.279,2.402,2.57,3.086z"/>
</g>
</svg>
