<?xml version="1.0" encoding="utf-8"?>
<!-- Generator: Adobe Illustrator 15.1.0, SVG Export Plug-In . SVG Version: 6.00 Build 0)  -->
<!DOCTYPE svg PUBLIC "-//W3C//DTD SVG 1.1//EN" "http://www.w3.org/Graphics/SVG/1.1/DTD/svg11.dtd">
<svg version="1.1" id="圖層_1" xmlns="http://www.w3.org/2000/svg" xmlns:xlink="http://www.w3.org/1999/xlink" x="0px" y="0px"
	 width="104.174px" height="78.252px" viewBox="0 0 104.174 78.252" enable-background="new 0 0 104.174 78.252"
	 xml:space="preserve">
<path d="M46.931,31.776c-1.544-4.262-5.467-6.651-9.865-5.962c-3.457,0.551-5.311,2.613-6.22,4.766
	c-1.017-0.543-2.25-0.948-3.665-0.948c-1.402,0-2.797,0.398-4.143,1.18c-3.875,2.251-5.397,6.513-3.876,10.855
	c3.285,9.373,17.994,11.166,18.619,11.237c0.084,0.011,0.168,0.015,0.251,0.015c0.59,0,1.159-0.237,1.576-0.665
	C40.047,51.803,50.311,41.116,46.931,31.776 M37.197,48.375c-4.068-0.693-12.091-3.053-13.883-8.163
	c-0.391-1.117-0.985-3.899,1.935-5.595c0.676-0.394,1.308-0.585,1.932-0.585c1.916,0,3.329,1.876,3.332,1.88
	c0.568,0.794,1.59,1.107,2.51,0.789c0.92-0.32,1.521-1.217,1.476-2.191c-0.03-0.635-0.012-3.829,3.259-4.349
	c2.322-0.375,4.196,0.794,5.037,3.113C44.637,38.367,39.912,45.267,37.197,48.375"/>
<path d="M103.704,12.024c-0.361-0.459-0.889-0.755-1.469-0.825L55.372,5.594c-1.203-0.121-2.3,0.718-2.444,1.924l-0.672,5.611
	L48.282,1.491c-0.393-1.15-1.644-1.767-2.793-1.371L1.489,15.148c-0.553,0.188-1.007,0.588-1.264,1.112
	c-0.258,0.524-0.296,1.128-0.107,1.681l20.089,58.822c0.313,0.914,1.167,1.49,2.082,1.49c0.237,0,0.476-0.039,0.711-0.12
	l22.427-7.659c0.01,0.475,0.165,0.937,0.461,1.314c0.361,0.459,0.89,0.755,1.469,0.825l46.863,5.604
	c0.089,0.01,0.177,0.015,0.264,0.015c1.098,0,2.048-0.82,2.181-1.939l7.494-62.648C104.229,13.066,104.064,12.483,103.704,12.024
	 M4.994,18.6L44.829,4.995l6.222,18.217l-5.074,42.425l-22.315,7.621L4.994,18.6z M92.559,73.587l-42.494-5.081l6.971-58.28
	l42.494,5.08L92.559,73.587z"/>
<path d="M65.919,51.945c0.92,0.293,1.834,0.442,2.717,0.442c2.362,0,4.123-1.017,5.359-2.169c1.269,1.946,3.426,3.691,6.808,3.691
	c0.194,0,0.393-0.008,0.596-0.02c4.554-0.27,7.889-3.446,8.498-8.094c0.875-6.677-4.951-12.027-8.432-15.224
	c-2.002-1.838-3.082-3.363-3.091-3.375c-0.319-0.459-0.819-0.76-1.375-0.83c-0.551-0.067-1.115,0.097-1.54,0.46
	c-0.014,0.012-1.438,1.222-3.833,2.508C67.463,31.57,60.495,35.31,59.688,42C59.128,46.651,61.573,50.555,65.919,51.945
	 M63.62,42.472c0.56-4.646,6.394-7.776,9.879-9.647c1.184-0.636,2.163-1.257,2.907-1.769c0.595,0.681,1.392,1.525,2.38,2.433
	c2.914,2.676,7.791,7.156,7.185,11.794c-0.367,2.797-2.119,4.494-4.807,4.653c-3.849,0.235-4.638-3.602-4.708-4.017
	c-0.136-0.873-0.833-1.55-1.709-1.66c-0.083-0.011-0.166-0.016-0.248-0.016c-0.784,0-1.505,0.467-1.819,1.201
	c-0.013,0.03-1.351,2.982-4.044,2.982c-0.473,0-0.981-0.086-1.511-0.256C64.561,47.352,63.283,45.275,63.62,42.472"/>
<path d="M76.637,55.143c-1.391-0.398-1.734-2.146-1.736-2.155c-0.003-0.016-0.012-0.027-0.015-0.041
	c-0.017-0.077-0.05-0.146-0.08-0.218c-0.03-0.075-0.054-0.152-0.097-0.221c-0.023-0.036-0.056-0.063-0.082-0.097
	c-0.072-0.093-0.146-0.181-0.24-0.25c-0.004-0.003-0.008-0.005-0.012-0.007c-0.123-0.091-0.26-0.158-0.408-0.2
	c-0.001,0-0.002-0.001-0.003-0.001c-0.007-0.002-0.013,0-0.02-0.002c-0.118-0.031-0.239-0.059-0.368-0.053
	c-0.021,0-0.04,0.011-0.062,0.013c-0.039,0.002-0.074,0.017-0.113,0.023c-0.115,0.02-0.229,0.041-0.333,0.089
	c-0.03,0.014-0.056,0.037-0.085,0.053c-0.103,0.057-0.201,0.117-0.285,0.198c-0.037,0.035-0.062,0.082-0.095,0.122
	c-0.063,0.078-0.126,0.152-0.17,0.244c-0.006,0.012-0.017,0.019-0.022,0.03c-0.007,0.017-0.762,1.621-2.204,1.662
	c-1.01,0.03-1.746,0.896-1.75,2.059c-0.003,0.661,0.49,1.223,1.147,1.306l3.393,0.426l3.393,0.427c0.055,0.007,0.11,0.01,0.164,0.01
	c0.594,0,1.124-0.403,1.271-0.991C78.108,56.442,77.609,55.421,76.637,55.143"/>
</svg>
