<?xml version="1.0" encoding="utf-8"?>
<!-- Generator: Adobe Illustrator 15.1.0, SVG Export Plug-In . SVG Version: 6.00 Build 0)  -->
<!DOCTYPE svg PUBLIC "-//W3C//DTD SVG 1.1//EN" "http://www.w3.org/Graphics/SVG/1.1/DTD/svg11.dtd">
<svg version="1.1" id="圖層_1" xmlns="http://www.w3.org/2000/svg" xmlns:xlink="http://www.w3.org/1999/xlink" x="0px" y="0px"
	 width="160px" height="169.065px" viewBox="0 0 160 169.065" enable-background="new 0 0 160 169.065" xml:space="preserve">
<path fill="#040000" d="M150,89.065c0,38.599-31.401,70-70,70c-38.599,0-70-31.401-70-70c0-38.599,31.401-70,70-70
	c18.603,0,35.879,7.231,48.876,20H97l-0.129,10H145V0h-10v31.114c-14.755-14.077-34.141-22.05-55-22.05c-44.111,0-80,35.889-80,80
	c0,44.11,35.889,80,80,80c44.111,0,80-35.89,80-80H150z"/>
</svg>
