<?xml version="1.0" encoding="utf-8"?>
<!-- Generator: Adobe Illustrator 15.1.0, SVG Export Plug-In . SVG Version: 6.00 Build 0)  -->
<!DOCTYPE svg PUBLIC "-//W3C//DTD SVG 1.1//EN" "http://www.w3.org/Graphics/SVG/1.1/DTD/svg11.dtd">
<svg version="1.1" id="圖層_1" xmlns="http://www.w3.org/2000/svg" xmlns:xlink="http://www.w3.org/1999/xlink" x="0px" y="0px"
	 width="84.535px" height="64.474px" viewBox="0 0 84.535 64.474" enable-background="new 0 0 84.535 64.474" xml:space="preserve">
<path d="M42.268,44.42c-0.551,0-1.103-0.211-1.523-0.632L0.631,3.676c-0.842-0.841-0.842-2.205,0-3.046
	c0.842-0.841,2.205-0.841,3.046,0l38.59,38.588L80.857,0.63c0.842-0.841,2.205-0.841,3.047,0c0.842,0.841,0.842,2.205,0,3.046
	L43.791,43.788C43.371,44.209,42.819,44.42,42.268,44.42"/>
<path d="M42.268,64.474c-0.551,0-1.103-0.21-1.523-0.631L0.631,23.73c-0.842-0.842-0.842-2.205,0-3.047
	c0.842-0.841,2.205-0.841,3.046,0l38.59,38.589l38.589-38.589c0.842-0.841,2.205-0.841,3.047,0c0.842,0.842,0.842,2.205,0,3.047
	L43.791,63.843C43.371,64.264,42.819,64.474,42.268,64.474"/>
</svg>
