<?xml version="1.0" encoding="utf-8"?>
<!-- Generator: Adobe Illustrator 15.1.0, SVG Export Plug-In . SVG Version: 6.00 Build 0)  -->
<!DOCTYPE svg PUBLIC "-//W3C//DTD SVG 1.1//EN" "http://www.w3.org/Graphics/SVG/1.1/DTD/svg11.dtd">
<svg version="1.1" id="圖層_1" xmlns="http://www.w3.org/2000/svg" xmlns:xlink="http://www.w3.org/1999/xlink" x="0px" y="0px"
	 width="41px" height="50px" viewBox="0 0 41 50" enable-background="new 0 0 41 50" xml:space="preserve">
<g>
	<path d="M38,48H2V2h25v10c0,0.552,0.447,1,1,1h10v25.758l2,2V12c0-0.265-0.105-0.52-0.293-0.707l-11-11C28.52,0.105,28.266,0,28,0
		H1C0.448,0,0,0.448,0,1v48c0,0.553,0.448,1,1,1h38c0.553,0,1-0.447,1-1v-1c-0.718,0-1.431-0.267-2-0.78V48z M29,3.414L36.586,11H29
		V3.414z"/>
	<path d="M40.707,44.293L29.154,32.74C30.926,30.649,32,27.949,32,25c0-6.617-5.383-12-12-12c-6.617,0-12,5.383-12,12
		c0,6.617,5.383,12,12,12c2.949,0,5.649-1.074,7.74-2.846l11.553,11.553C39.488,45.902,39.744,46,40,46s0.512-0.098,0.707-0.293
		C41.098,45.316,41.098,44.684,40.707,44.293z M10,25c0-5.514,4.486-10,10-10c5.514,0,10,4.486,10,10c0,5.514-4.486,10-10,10
		C14.486,35,10,30.514,10,25z"/>
</g>
</svg>
