<!-- Generated by IcoMoon.io -->
<svg version="1.1" xmlns="http://www.w3.org/2000/svg" width="1024" height="1024" viewBox="0 0 1024 1024">
<title></title>
<g id="icomoon-ignore">
</g>
<path d="M995.828 995.827c-37.566 37.564-98.45 37.564-136.016 0l-169.726-169.726c-69.776 44.764-152.26 71.434-241.318 71.434-247.83 0-448.768-200.908-448.768-448.768s200.938-448.766 448.768-448.766c247.862 0 448.768 200.904 448.768 448.766 0 89.028-26.704 171.542-71.436 241.352l169.728 169.726c37.562 37.564 37.562 98.418 0 135.982zM448.768 128.219c-177.022 0-320.548 143.494-320.548 320.546s143.526 320.548 320.548 320.548c177.052 0 320.548-143.496 320.548-320.548s-143.496-320.546-320.548-320.546z"></path>
</svg>
