<?xml version="1.0" encoding="utf-8"?>
<!-- Generator: Adobe Illustrator 15.1.0, SVG Export Plug-In . SVG Version: 6.00 Build 0)  -->
<!DOCTYPE svg PUBLIC "-//W3C//DTD SVG 1.1//EN" "http://www.w3.org/Graphics/SVG/1.1/DTD/svg11.dtd">
<svg version="1.1" id="圖層_1" xmlns="http://www.w3.org/2000/svg" xmlns:xlink="http://www.w3.org/1999/xlink" x="0px" y="0px"
	 width="44px" height="44px" viewBox="0 0 44 44" enable-background="new 0 0 44 44" xml:space="preserve">
<g>
	<path fill="#040000" d="M10.011,10c0.553-0.001,1-0.449,1-1.001C11.005,5.145,13.696,2.005,17.009,2h0.008
		c3.297,0,5.984,3.139,5.988,7.001c0.002,0.552,0.449,0.999,1,0.999h0.002c0.553-0.001,0.998-0.449,0.998-1.001
		C25,4.034,21.416,0,17.018,0h-0.01c-4.416,0.007-8.004,4.045-7.996,9.001C9.011,9.553,9.458,10,10.011,10z"/>
	<path fill="#040000" d="M41.994,24.89C41.939,24.383,41.509,24,41.001,24h-9.069L31,12.916C30.957,12.398,30.523,12,30.003,12
		H4.013c-0.514,0-0.944,0.389-0.996,0.9L0.005,42.893c-0.029,0.281,0.062,0.561,0.252,0.771C0.446,43.872,0.716,44,1,44h20.008
		h12.996H43c0.285,0,0.555-0.121,0.746-0.333c0.189-0.212,0.279-0.495,0.248-0.777L41.994,24.89z M4.917,14h24.166l0.842,10h-6.918
		c-0.51,0-0.938,0.383-0.994,0.89L20.112,42H2.105L4.917,14z M34.003,42H22.125l1.777-16h16.202l1.778,16H34.003z"/>
	<path fill="#040000" d="M37.001,28H37c-0.551,0.001-0.998,0.449-0.998,1.002c0.002,1.366-0.434,2.645-1.23,3.599
		c-0.75,0.901-1.734,1.398-2.77,1.399h-0.004c-2.197,0-3.988-2.242-3.992-5.002c-0.002-0.551-0.449-0.998-1-0.998h-0.002
		c-0.553,0.001-1,0.449-0.998,1.002C26.011,32.862,28.699,36,31.998,36h0.008c1.638-0.003,3.166-0.755,4.303-2.119
		c1.094-1.313,1.695-3.047,1.693-4.883C38.001,28.447,37.554,28,37.001,28z"/>
</g>
</svg>
