<?xml version="1.0" encoding="utf-8"?>
<!-- Generator: Adobe Illustrator 15.1.0, SVG Export Plug-In . SVG Version: 6.00 Build 0)  -->
<!DOCTYPE svg PUBLIC "-//W3C//DTD SVG 1.1//EN" "http://www.w3.org/Graphics/SVG/1.1/DTD/svg11.dtd">
<svg version="1.1" id="圖層_1" xmlns="http://www.w3.org/2000/svg" xmlns:xlink="http://www.w3.org/1999/xlink" x="0px" y="0px"
	 width="73.035px" height="69.996px" viewBox="0 0 73.035 69.996" enable-background="new 0 0 73.035 69.996" xml:space="preserve">
<path d="M72.782,26.345c-0.398-1.222-1.872-4.067-6.973-4.067H50.787c-1.362,0-3.182-1.321-3.603-2.617L42.543,5.374
	C40.966,0.524,37.805,0,36.519,0c-1.286,0-4.446,0.524-6.022,5.374l-4.644,14.287c-0.422,1.296-2.239,2.617-3.601,2.617H7.225
	c-5.099,0-6.574,2.845-6.971,4.067c-0.398,1.223-0.876,4.391,3.25,7.389l12.155,8.831c1.102,0.801,1.797,2.938,1.376,4.233
	l-4.643,14.29c-0.889,2.735-0.707,4.995,0.543,6.715c1.013,1.393,2.606,2.192,4.372,2.192c1.558,0,3.137-0.598,4.83-1.827
	l12.157-8.831c0.517-0.376,1.35-0.602,2.225-0.602s1.707,0.226,2.227,0.602l12.153,8.831c1.693,1.229,3.273,1.827,4.829,1.827
	c1.768,0,3.361-0.8,4.373-2.192c1.249-1.72,1.434-3.979,0.543-6.715l-4.641-14.289c-0.421-1.296,0.272-3.434,1.375-4.234
	l12.155-8.831C73.658,30.736,73.179,27.568,72.782,26.345 M66.945,30.174l-12.153,8.831c-2.647,1.923-3.985,6.043-2.975,9.153
	l4.643,14.288c0.659,2.029,0.318,3.148-0.732,3.148c-0.559,0-1.321-0.318-2.242-0.987l-12.153-8.83
	c-1.324-0.962-3.069-1.441-4.813-1.441c-1.745,0-3.488,0.479-4.811,1.44L19.55,64.608c-0.919,0.669-1.682,0.987-2.243,0.987
	c-1.049,0-1.389-1.119-0.73-3.148l4.642-14.288c1.011-3.11-0.328-7.23-2.974-9.153L6.09,30.174
	c-2.647-1.923-2.136-3.496,1.135-3.496h15.027c3.271,0,6.774-2.546,7.786-5.657l4.643-14.287C35.186,5.178,35.853,4.4,36.519,4.4
	c0.667,0,1.333,0.778,1.838,2.334l4.645,14.287c1.01,3.111,4.514,5.657,7.786,5.657H65.81
	C69.082,26.678,69.592,28.251,66.945,30.174"/>
</svg>
