<?xml version="1.0" encoding="utf-8"?>
<!-- Generator: Adobe Illustrator 15.1.0, SVG Export Plug-In . SVG Version: 6.00 Build 0)  -->
<!DOCTYPE svg PUBLIC "-//W3C//DTD SVG 1.1//EN" "http://www.w3.org/Graphics/SVG/1.1/DTD/svg11.dtd">
<svg version="1.1" id="圖層_1" xmlns="http://www.w3.org/2000/svg" xmlns:xlink="http://www.w3.org/1999/xlink" x="0px" y="0px"
	 width="73.4px" height="53.882px" viewBox="0 0 73.4 53.882" enable-background="new 0 0 73.4 53.882" xml:space="preserve">
<path d="M23.471,33.475c-0.677,0-1.353,0.187-1.866,0.56l-8.938,6.494c-0.356,0.259-0.652,0.383-0.869,0.383
	c-0.408,0-0.539-0.434-0.284-1.221l3.414-10.506c0.393-1.207-0.127-2.804-1.153-3.55l-8.941-6.495
	c-1.026-0.745-0.828-1.355,0.441-1.355h11.051c1.269,0,2.627-0.988,3.02-2.195l3.412-10.505c0.196-0.602,0.455-0.904,0.713-0.904
	c0.259,0,0.518,0.302,0.713,0.904l3.413,10.505c0.392,1.207,1.751,2.195,3.02,2.195h8.357l1.357-4.18h-8.984l-3.188-9.812
	C27.016,0.273,24.282,0,23.471,0s-3.544,0.274-4.687,3.793l-3.188,9.812H5.274c-3.701,0-4.806,2.516-5.056,3.286
	c-0.251,0.771-0.836,3.456,2.159,5.631l8.349,6.064l-3.188,9.813c-0.752,2.312-0.109,3.898,0.562,4.823
	c0.863,1.188,2.211,1.869,3.697,1.869c1.128,0,2.247-0.397,3.326-1.18l8.347-6.066l7.269,5.281l1.358-4.18l-6.761-4.912
	C24.825,33.661,24.147,33.475,23.471,33.475"/>
<path d="M62.593,37.278l8.426-6.122c2.999-2.18,2.414-4.866,2.164-5.638c-0.251-0.771-1.358-3.289-5.065-3.289H57.702l-3.216-9.902
	c-1.146-3.525-3.882-3.8-4.693-3.8s-3.549,0.275-4.693,3.8l-3.217,9.902H31.466c-3.707,0-4.813,2.518-5.064,3.289
	c-0.25,0.772-0.835,3.458,2.165,5.638l8.426,6.122l-3.218,9.902c-0.753,2.317-0.11,3.906,0.562,4.831
	c0.863,1.188,2.212,1.87,3.698,1.87c1.132,0,2.253-0.399,3.334-1.185l8.425-6.121l8.423,6.121c1.081,0.785,2.203,1.185,3.333,1.185
	c1.486,0,2.835-0.682,3.699-1.87c0.672-0.925,1.314-2.514,0.563-4.831L62.593,37.278z M61.549,49.702
	c-0.219,0-0.518-0.124-0.876-0.387l-9-6.541c-0.519-0.376-1.198-0.563-1.88-0.563s-1.362,0.187-1.881,0.563l-9.001,6.541
	c-0.358,0.263-0.657,0.387-0.877,0.387c-0.409,0-0.543-0.438-0.284-1.229l3.438-10.583c0.396-1.214-0.128-2.824-1.161-3.575
	l-9.005-6.541c-1.035-0.751-0.834-1.365,0.443-1.365h11.131c1.277,0,2.646-0.995,3.041-2.21l3.437-10.58
	c0.198-0.608,0.458-0.912,0.719-0.912s0.521,0.304,0.718,0.912l3.437,10.58c0.396,1.215,1.765,2.21,3.041,2.21h11.129
	c1.279,0,1.479,0.614,0.444,1.365l-9.003,6.541c-1.033,0.751-1.557,2.361-1.162,3.576l3.438,10.582
	C62.092,49.265,61.959,49.702,61.549,49.702"/>
</svg>
