<?xml version="1.0" encoding="utf-8"?>
<!-- Generator: Adobe Illustrator 15.1.0, SVG Export Plug-In . SVG Version: 6.00 Build 0)  -->
<!DOCTYPE svg PUBLIC "-//W3C//DTD SVG 1.1//EN" "http://www.w3.org/Graphics/SVG/1.1/DTD/svg11.dtd">
<svg version="1.1" id="圖層_1" xmlns="http://www.w3.org/2000/svg" xmlns:xlink="http://www.w3.org/1999/xlink" x="0px" y="0px"
	 width="510.581px" height="720.513px" viewBox="0 0 510.581 720.513" enable-background="new 0 0 510.581 720.513"
	 xml:space="preserve">
<g>
	<path d="M456.383,54.509h-62.185V17.001c0-9.389-7.612-17-17-17c-9.389,0-17,7.611-17,17v37.508h-88.275V17.001
		c0-9.389-7.612-17-17-17c-9.389,0-17,7.611-17,17v37.508h-88.276V17.001c0-9.389-7.611-17-17-17c-9.389,0-17,7.611-17,17v37.508
		H54.198C24.313,54.509,0,78.822,0,108.708v557.607c0,29.885,24.313,54.198,54.199,54.198h402.185
		c29.886,0,54.197-24.313,54.197-54.198c0-0.021-0.002-0.04-0.002-0.062c0-0.02,0.002-0.04,0.002-0.06l-0.729-504.451
		c0.461-0.669,0.729-1.403,0.729-2.211v-50.828v-0.001C510.578,78.82,486.266,54.509,456.383,54.509z M456.383,686.513H54.198
		c-11.138,0-20.199-9.062-20.199-20.198V108.708c0-11.138,9.061-20.199,20.199-20.199h61.448v38.982c0,9.389,7.611,17,17,17
		c9.389,0,17-7.611,17-17V88.509h88.276v38.982c0,9.389,7.611,17,17,17c9.388,0,17-7.611,17-17V88.509h88.275v38.982
		c0,9.389,7.611,17,17,17c9.388,0,17-7.611,17-17V88.509h62.185c11.136,0,20.197,9.06,20.197,20.197v44.481
		c-0.472,0.667-0.741,1.408-0.735,2.231l0.735,510.903C476.577,677.456,467.518,686.513,456.383,686.513z"/>
	<path d="M391.93,236.503H116.441c-7.732,0-14,6.268-14,14s6.268,14,14,14H391.93c7.732,0,14-6.268,14-14
		S399.662,236.503,391.93,236.503z"/>
	<path d="M355.1,354.359H116.441c-7.732,0-14,6.268-14,14c0,7.732,6.268,14,14,14H355.1c7.732,0,14-6.268,14-14
		C369.1,360.627,362.832,354.359,355.1,354.359z"/>
	<path d="M302.064,474.425H116.441c-7.732,0-14,6.268-14,14s6.268,14,14,14h185.624c7.732,0,14-6.268,14-14
		S309.797,474.425,302.064,474.425z"/>
</g>
</svg>
