<?xml version="1.0" encoding="utf-8"?>
<!-- Generator: Adobe Illustrator 15.1.0, SVG Export Plug-In . SVG Version: 6.00 Build 0)  -->
<!DOCTYPE svg PUBLIC "-//W3C//DTD SVG 1.1//EN" "http://www.w3.org/Graphics/SVG/1.1/DTD/svg11.dtd">
<svg version="1.1" id="圖層_1" xmlns="http://www.w3.org/2000/svg" xmlns:xlink="http://www.w3.org/1999/xlink" x="0px" y="0px"
	 width="64.713px" height="64.715px" viewBox="0 0 64.713 64.715" enable-background="new 0 0 64.713 64.715" xml:space="preserve">
<path d="M48.848,30.548c0,1.104,0.896,2,2,2c1.104,0,2-0.896,2-2c0-10.301-8.382-18.683-18.684-18.683c-1.104,0-2,0.896-2,2
	c0,1.105,0.896,2,2,2C42.26,15.865,48.848,22.452,48.848,30.548"/>
<path d="M34.277,0c-1.104,0-2,0.896-2,2s0.896,2,2,2c14.576,0,26.436,11.859,26.436,26.436c0,1.104,0.896,2,2,2c1.104,0,2-0.896,2-2
	C64.713,13.653,51.059,0,34.277,0"/>
<path d="M56.691,47.45l-7.646-5.766c-2.425-1.906-5.328-1.911-7.227-0.01c-0.028,0.028-0.055,0.059-0.082,0.089l-5.006,5.659
	c-3.235-2.336-7.176-5.719-10.448-8.989l-0.003-0.001l0.001-0.001c-3.274-3.275-6.656-7.216-8.99-10.448l5.661-5.006
	c0.03-0.026,0.059-0.054,0.088-0.083c0.934-0.932,2.805-3.501,0.015-7.193l-5.791-7.677c-0.055-0.074-0.118-0.145-0.184-0.211
	c-1.418-1.419-3.562-3.564-8.011-2.008C5.411,7.083,0,12.324,0,19.513c-0.017,7.083,6.423,18.161,16.412,28.236
	c0.036,0.041,0.074,0.08,0.114,0.119l0.08,0.08c0.009,0.009,0.07,0.071,0.079,0.081c0.035,0.035,0.072,0.069,0.109,0.101
	C26.98,58.212,38.105,64.716,45.17,64.715h0.026c7.194,0,12.435-5.411,13.712-9.068c1.557-4.449-0.587-6.592-2.007-8.015
	C56.834,47.566,56.765,47.506,56.691,47.45 M55.132,54.326c-0.753,2.158-4.557,6.389-9.939,6.389h-0.021
	c-5.901,0-16.45-6.38-25.66-15.522c-0.026-0.026-0.052-0.051-0.079-0.074l-0.014-0.015l-0.046-0.045
	c-0.025-0.029-0.052-0.058-0.079-0.084C10.132,35.744,3.986,25.516,4,19.517c0-5.378,4.23-9.181,6.388-9.935
	c2.02-0.707,2.606-0.197,3.767,0.962l5.707,7.567c0.949,1.256,0.692,1.608,0.393,1.911l-6.947,6.144
	c-0.748,0.662-0.893,1.775-0.339,2.607c2.46,3.694,6.477,8.479,10.483,12.486l0.003-0.002v0.005
	c4.003,4.002,8.787,8.019,12.487,10.482c0.832,0.555,1.945,0.409,2.605-0.339l6.135-6.934c0.634-0.579,1.684,0.193,1.923,0.381
	l7.564,5.705C55.329,51.721,55.84,52.304,55.132,54.326"/>
</svg>
