<?xml version="1.0" encoding="utf-8"?>
<!-- Generator: Adobe Illustrator 15.1.0, SVG Export Plug-In . SVG Version: 6.00 Build 0)  -->
<!DOCTYPE svg PUBLIC "-//W3C//DTD SVG 1.1//EN" "http://www.w3.org/Graphics/SVG/1.1/DTD/svg11.dtd">
<svg version="1.1" id="圖層_1" xmlns="http://www.w3.org/2000/svg" xmlns:xlink="http://www.w3.org/1999/xlink" x="0px" y="0px"
	 width="66.125px" height="41.294px" viewBox="0 0 66.125 41.294" enable-background="new 0 0 66.125 41.294" xml:space="preserve">
<g>
	<path d="M16.294,23.864c0,0.433-0.346,0.779-0.777,0.779c-0.43,0-0.78-0.347-0.78-0.779c0-0.432,0.35-0.778,0.78-0.778
		C15.948,23.085,16.294,23.432,16.294,23.864"/>
</g>
<g>
	<path d="M15.517,25.893c-1.12,0-2.03-0.91-2.03-2.029c0-1.118,0.911-2.028,2.03-2.028c1.118,0,2.027,0.91,2.027,2.028
		C17.544,24.983,16.635,25.893,15.517,25.893z M15.517,23.393c-0.261,0-0.473,0.211-0.473,0.471s0.212,0.472,0.473,0.472
		c0.259,0,0.47-0.212,0.47-0.472S15.776,23.393,15.517,23.393z"/>
</g>
<g>
	<path d="M44.795,23.864c0,0.433-0.346,0.779-0.777,0.779c-0.43,0-0.779-0.347-0.779-0.779c0-0.432,0.35-0.778,0.779-0.778
		C44.449,23.085,44.795,23.432,44.795,23.864"/>
</g>
<g>
	<path d="M44.018,25.893c-1.119,0-2.029-0.91-2.029-2.029c0-1.118,0.91-2.028,2.029-2.028c1.118,0,2.027,0.91,2.027,2.028
		C46.045,24.983,45.136,25.893,44.018,25.893z M44.018,23.393c-0.261,0-0.473,0.211-0.473,0.471s0.212,0.472,0.473,0.472
		c0.26,0,0.471-0.212,0.471-0.472S44.277,23.393,44.018,23.393z"/>
</g>
<g>
	<path d="M59.533,41.294H0V6.435h59.533V41.294z M2.5,38.794h54.533V8.935H2.5V38.794z"/>
</g>
<g>
	<polygon points="66.125,34.704 63.625,34.704 63.625,2.5 7.291,2.5 7.291,0 66.125,0 	"/>
</g>
<g>
	<path d="M49.459,35.276H10.073v-1.25c0-1.563-1.271-2.834-2.834-2.834h-1.25V16.536h1.25c1.563,0,2.834-1.271,2.834-2.834v-1.25
		h39.386v1.25c0,1.563,1.271,2.834,2.834,2.834h1.25v14.656h-1.25c-1.563,0-2.834,1.271-2.834,2.834V35.276z M12.425,32.776h34.681
		c0.468-1.939,1.997-3.469,3.937-3.937v-9.951c-1.939-0.467-3.469-1.997-3.937-3.936H12.425c-0.467,1.939-1.997,3.469-3.937,3.936
		v9.951C10.428,29.307,11.958,30.836,12.425,32.776z"/>
</g>
<g>
	<path d="M29.766,30.506c-3.451,0-6.259-2.979-6.259-6.643c0-3.662,2.808-6.642,6.259-6.642c3.453,0,6.262,2.979,6.262,6.642
		C36.027,27.527,33.219,30.506,29.766,30.506z M29.766,19.722c-2.073,0-3.759,1.857-3.759,4.142s1.687,4.143,3.759,4.143
		c2.074,0,3.762-1.858,3.762-4.143S31.84,19.722,29.766,19.722z"/>
</g>
</svg>
