<!-- Generated by IcoMoon.io -->
<svg version="1.1" xmlns="http://www.w3.org/2000/svg" width="512" height="512" viewBox="0 0 512 512">
<title></title>
<g id="icomoon-ignore">
</g>
<path fill="#000" d="M468.485 157.464c0-5.053-0.214-9.899-0.436-14.981 21.565-15.815 40.026-35.854 54.78-58.733-19.575 8.799-40.704 14.767-62.914 17.185 22.656-13.857 40.026-36.106 48.166-62.691-21.111 12.729-44.649 21.968-69.5 26.581-20.010-22.623-48.389-37.172-79.844-37.608-60.464-0.854-109.511 50.176-109.511 114.186 0 9.017 0.815 17.816 2.797 26.368-91.055-5.902-171.728-53.196-225.612-124.653-9.462 17.095-14.99 37.144-14.99 58.477 0 40.666 19.352 76.767 48.834 97.877-18.038-0.9-34.972-6.186-49.74-15.203v1.574c0 56.714 37.831 104.012 88.007 115.28-9.239 2.579-18.916 3.959-28.814 3.959-7.287-0.223-14.075-0.934-20.674-2.423 13.862 46.635 54.334 80.502 102.258 81.612-37.623 31.005-84.632 49.707-135.946 49.484-8.771 0-17.564-0.659-26.174-1.759 48.427 33.431 106.017 52.788 167.869 52.788 201.249 0.005 311.443-175.303 311.443-327.32v0z"></path>
</svg>
