<!-- Generated by IcoMoon.io -->
<svg version="1.1" xmlns="http://www.w3.org/2000/svg" width="1024" height="1024" viewBox="0 0 1024 1024">
<title></title>
<g id="icomoon-ignore">
</g>
<path d="M995.828 995.829c-37.566 37.562-98.452 37.562-136.016 0l-169.726-169.728c-69.778 44.732-152.262 71.436-241.32 71.436-247.83 0-448.766-200.908-448.766-448.768s200.936-448.768 448.766-448.768c247.862 0 448.768 200.906 448.768 448.768 0 89.058-26.704 171.542-71.436 241.35l169.728 169.696c37.564 37.564 37.564 98.448 0.002 136.014zM448.766 128.221c-177.022 0-320.548 143.526-320.548 320.548 0 177.052 143.526 320.548 320.548 320.548 177.054 0 320.548-143.496 320.548-320.548 0-177.022-143.494-320.548-320.548-320.548zM512.876 641.097h-128.218v-128.218h-128.218v-128.218h128.218v-128.22h128.218v128.22h128.22v128.218h-128.22v128.218z"></path>
</svg>
