<!-- Generated by IcoMoon.io -->
<svg version="1.1" xmlns="http://www.w3.org/2000/svg" width="1024" height="1024" viewBox="0 0 1024 1024">
<title></title>
<g id="icomoon-ignore">
</g>
<path d="M995.828 859.813l-169.728-169.696c44.732-69.806 71.436-152.292 71.436-241.35 0-247.86-200.908-448.766-448.77-448.766-247.83 0-448.766 200.906-448.766 448.768s200.936 448.768 448.766 448.768c89.058 0 171.542-26.704 241.32-71.436l169.726 169.728c37.564 37.562 98.45 37.562 136.016 0 37.562-37.566 37.562-98.45 0-136.016zM448.766 769.317c-177.022 0-320.548-143.496-320.548-320.548 0-177.022 143.526-320.548 320.548-320.548 177.054 0 320.548 143.526 320.548 320.548 0 177.052-143.494 320.548-320.548 320.548zM256.438 512.877h384.658v-128.218h-384.658v128.218z"></path>
</svg>
